<svg width="24" height="24" viewBox="0 0 24 24" fill="none" xmlns="http://www.w3.org/2000/svg">
<path d="M12 2.25C10.0716 2.25 8.18657 2.82183 6.58319 3.89317C4.97982 4.96451 3.73013 6.48726 2.99218 8.26884C2.25422 10.0504 2.06114 12.0108 2.43735 13.9021C2.81355 15.7934 3.74215 17.5307 5.10571 18.8943C6.46928 20.2579 8.20656 21.1865 10.0979 21.5627C11.9892 21.9389 13.9496 21.7458 15.7312 21.0078C17.5127 20.2699 19.0355 19.0202 20.1068 17.4168C21.1782 15.8134 21.75 13.9284 21.75 12C21.7473 9.41498 20.7192 6.93661 18.8913 5.10872C17.0634 3.28084 14.585 2.25273 12 2.25ZM12 3.75C13.5984 3.7483 15.1625 4.21361 16.5 5.08875V6.9375L14.4216 9.35063L11.4713 9.75L11.4422 9.72937L9.59813 8.52375C9.43464 8.40858 9.24976 8.32727 9.05439 8.2846C8.85901 8.24192 8.65707 8.23875 8.46045 8.27526C8.26382 8.31177 8.07649 8.38723 7.90945 8.49721C7.74242 8.60718 7.59906 8.74944 7.48782 8.91562L5.52469 11.85C5.36115 12.0945 5.27312 12.3818 5.27157 12.6759L5.25 16.0725L4.94344 16.2741C4.18558 15.0228 3.77404 13.5926 3.75101 12.1299C3.72798 10.6672 4.09429 9.22469 4.81238 7.95021C5.53048 6.67573 6.57454 5.6151 7.83756 4.87703C9.10058 4.13896 10.5371 3.75 12 3.75ZM5.83969 17.4816L6.07594 17.3269C6.28224 17.1908 6.45172 17.0059 6.56932 16.7885C6.68691 16.5711 6.74898 16.3281 6.75 16.0809L6.76969 12.6844L8.73469 9.75C8.74432 9.75741 8.75433 9.76429 8.76469 9.77063L10.6088 10.9772C10.9178 11.1953 11.298 11.2881 11.6728 11.2369L14.625 10.8366C14.9891 10.788 15.3226 10.6075 15.5625 10.3294L17.6409 7.91437C17.8734 7.64204 18.0007 7.29554 18 6.9375V6.34406C19.0144 7.41731 19.7217 8.74352 20.0478 10.1839C20.3738 11.6242 20.3067 13.1257 19.8534 14.5312L18.3403 13.1475C18.13 12.9544 17.8689 12.8254 17.5877 12.7756C17.3066 12.7257 17.017 12.7572 16.7531 12.8663L13.8975 14.0522C13.6587 14.1524 13.4498 14.3125 13.2908 14.5169C13.1319 14.7213 13.0283 14.9633 12.99 15.2194L12.7659 16.7372C12.7121 17.1025 12.7949 17.4749 12.9985 17.783C13.2021 18.091 13.5122 18.3132 13.8694 18.4069L15.8813 18.9375L16.1025 19.1597C14.4596 20.1023 12.5421 20.4501 10.6729 20.1444C8.80362 19.8388 7.09676 18.8984 5.83969 17.4816ZM17.3438 18.2812L16.9406 17.8772C16.7526 17.6884 16.5177 17.5532 16.26 17.4853L14.25 16.9547L14.4741 15.4369L17.3288 14.25L19.2188 15.9825C18.737 16.8552 18.1019 17.634 17.3438 18.2812Z" fill="currentColor"/>
</svg>
