<svg width="24" height="24" viewBox="0 0 24 24" fill="none" xmlns="http://www.w3.org/2000/svg">
<path d="M23.1078 7.89242C22.9386 7.7449 22.7294 7.65099 22.5067 7.62261C22.284 7.59424 22.058 7.63267 21.8572 7.73304L17.15 10.0768L13.22 3.54898C13.119 3.38147 12.9764 3.24291 12.806 3.14673C12.6357 3.05054 12.4434 3 12.2478 3C12.0522 3 11.8599 3.05054 11.6896 3.14673C11.5192 3.24291 11.3766 3.38147 11.2756 3.54898L7.34561 10.0796L2.6403 7.73585C2.43999 7.63638 2.21477 7.59827 1.99289 7.62633C1.77101 7.65439 1.56236 7.74735 1.39312 7.89356C1.22388 8.03976 1.10159 8.2327 1.0416 8.44815C0.981615 8.6636 0.986597 8.89197 1.05592 9.1046L4.52467 19.7321C4.55955 19.8389 4.61796 19.9364 4.69559 20.0176C4.77323 20.0988 4.8681 20.1615 4.9732 20.2011C5.07831 20.2407 5.19097 20.2561 5.30286 20.2464C5.41475 20.2366 5.52302 20.2018 5.61967 20.1446C5.64311 20.1305 8.0403 18.7496 12.2478 18.7496C16.4553 18.7496 18.8525 20.1305 18.874 20.1437C18.9707 20.2014 19.0792 20.2367 19.1914 20.2468C19.3035 20.2569 19.4165 20.2416 19.522 20.2021C19.6275 20.1626 19.7227 20.0998 19.8006 20.0184C19.8784 19.9371 19.937 19.8392 19.9719 19.7321L23.4406 9.10742C23.5119 8.89473 23.5184 8.66563 23.4591 8.44927C23.3998 8.23291 23.2775 8.03907 23.1078 7.89242ZM18.8103 18.4524C17.6853 17.9752 15.4428 17.2496 12.2478 17.2496C9.0528 17.2496 6.8103 17.9752 5.6853 18.4524L2.75186 9.46835L6.97717 11.5749C7.23293 11.701 7.52665 11.7268 7.80046 11.6472C8.07428 11.5675 8.30834 11.3882 8.45655 11.1446L12.2478 4.84273L16.039 11.1427C16.1874 11.386 16.4213 11.565 16.6948 11.6446C16.9684 11.7242 17.2618 11.6987 17.5175 11.573L21.7437 9.46835L18.8103 18.4524ZM16.7356 15.4524C16.705 15.6259 16.6143 15.7831 16.4794 15.8964C16.3445 16.0097 16.174 16.0719 15.9978 16.0721C15.9538 16.072 15.9099 16.0683 15.8665 16.0609C13.4709 15.6496 11.0228 15.6496 8.62717 16.0609C8.43125 16.0954 8.22961 16.0507 8.06663 15.9366C7.90365 15.8225 7.79267 15.6483 7.75811 15.4524C7.72355 15.2565 7.76824 15.0549 7.88234 14.8919C7.99645 14.7289 8.17062 14.6179 8.36655 14.5834C10.9346 14.1421 13.5591 14.1421 16.1272 14.5834C16.3227 14.6177 16.4967 14.7282 16.6109 14.8905C16.7251 15.0529 16.7703 15.254 16.7365 15.4496L16.7356 15.4524Z" fill="currentColor"/>
</svg>
