<svg width="24" height="24" viewBox="0 0 24 24" fill="none" xmlns="http://www.w3.org/2000/svg">
<path d="M21.75 11.25H20.2153C20.131 10.3125 19.8855 9.39654 19.4897 8.5425L20.8191 7.77469C20.9914 7.67523 21.1171 7.5114 21.1686 7.31923C21.2201 7.12707 21.1932 6.92231 21.0938 6.75C20.9943 6.57769 20.8305 6.45195 20.6383 6.40044C20.4461 6.34892 20.2414 6.37586 20.0691 6.47531L18.7378 7.24406C18.194 6.47616 17.5238 5.80603 16.7559 5.26219L17.5247 3.93094C17.6241 3.75863 17.6511 3.55387 17.5996 3.3617C17.548 3.16954 17.4223 3.00571 17.25 2.90625C17.0777 2.80679 16.8729 2.77986 16.6808 2.83137C16.4886 2.88289 16.3248 3.00863 16.2253 3.18094L15.4575 4.51031C14.6035 4.11449 13.6875 3.86901 12.75 3.78469V2.25C12.75 2.05109 12.671 1.86032 12.5303 1.71967C12.3897 1.57902 12.1989 1.5 12 1.5C11.8011 1.5 11.6103 1.57902 11.4697 1.71967C11.329 1.86032 11.25 2.05109 11.25 2.25V3.78469C10.3125 3.86901 9.39654 4.11449 8.5425 4.51031L7.77469 3.18094C7.72544 3.09562 7.65987 3.02084 7.58173 2.96086C7.50358 2.90088 7.41438 2.85688 7.31923 2.83137C7.22408 2.80587 7.12484 2.79935 7.02717 2.8122C6.9295 2.82505 6.83532 2.857 6.75 2.90625C6.57769 3.00571 6.45195 3.16954 6.40044 3.3617C6.34892 3.55387 6.37586 3.75863 6.47531 3.93094L7.24406 5.26219C6.47616 5.80603 5.80603 6.47616 5.26219 7.24406L3.93094 6.47531C3.75863 6.37586 3.55387 6.34892 3.3617 6.40044C3.16954 6.45195 3.00571 6.57769 2.90625 6.75C2.80679 6.92231 2.77986 7.12707 2.83137 7.31923C2.88289 7.5114 3.00863 7.67523 3.18094 7.77469L4.51031 8.5425C4.11449 9.39654 3.86901 10.3125 3.78469 11.25H2.25C2.05109 11.25 1.86032 11.329 1.71967 11.4697C1.57902 11.6103 1.5 11.8011 1.5 12C1.5 12.1989 1.57902 12.3897 1.71967 12.5303C1.86032 12.671 2.05109 12.75 2.25 12.75H3.78469C3.86901 13.6875 4.11449 14.6035 4.51031 15.4575L3.18094 16.2253C3.03787 16.3078 2.92604 16.4353 2.8628 16.5878C2.79957 16.7404 2.78846 16.9096 2.8312 17.0691C2.87394 17.2286 2.96814 17.3696 3.09918 17.4701C3.23023 17.5706 3.39078 17.6251 3.55594 17.625C3.68762 17.6254 3.81704 17.5908 3.93094 17.5247L5.26219 16.7559C5.80603 17.5238 6.47616 18.194 7.24406 18.7378L6.47531 20.0691C6.37586 20.2414 6.34892 20.4461 6.40044 20.6383C6.45195 20.8305 6.57769 20.9943 6.75 21.0938C6.92231 21.1932 7.12707 21.2201 7.31923 21.1686C7.5114 21.1171 7.67523 20.9914 7.77469 20.8191L8.5425 19.4897C9.39654 19.8855 10.3125 20.131 11.25 20.2153V21.75C11.25 21.9489 11.329 22.1397 11.4697 22.2803C11.6103 22.421 11.8011 22.5 12 22.5C12.1989 22.5 12.3897 22.421 12.5303 22.2803C12.671 22.1397 12.75 21.9489 12.75 21.75V20.2153C13.6875 20.131 14.6035 19.8855 15.4575 19.4897L16.2253 20.8191C16.3248 20.9914 16.4886 21.1171 16.6808 21.1686C16.8729 21.2201 17.0777 21.1932 17.25 21.0938C17.4223 20.9943 17.548 20.8305 17.5996 20.6383C17.6511 20.4461 17.6241 20.2414 17.5247 20.0691L16.7559 18.7378C17.5238 18.194 18.194 17.5238 18.7378 16.7559L20.0691 17.5247C20.1544 17.574 20.2486 17.6059 20.3462 17.6188C20.4439 17.6316 20.5432 17.6251 20.6383 17.5996C20.7335 17.5741 20.8227 17.5301 20.9008 17.4701C20.979 17.4101 21.0445 17.3353 21.0938 17.25C21.1933 17.0778 21.2204 16.8731 21.1691 16.681C21.1177 16.4888 20.9922 16.3249 20.82 16.2253L19.4906 15.4575C19.8861 14.6034 20.1313 13.6875 20.2153 12.75H21.75C21.9489 12.75 22.1397 12.671 22.2803 12.5303C22.421 12.3897 22.5 12.1989 22.5 12C22.5 11.8011 22.421 11.6103 22.2803 11.4697C22.1397 11.329 21.9489 11.25 21.75 11.25ZM12 5.25C13.6597 5.25197 15.2605 5.86464 16.4975 6.9712C17.7344 8.07775 18.5208 9.60081 18.7069 11.25H12.4331L9.29625 5.81719C10.1484 5.44265 11.0692 5.2495 12 5.25ZM5.25 12C5.25057 10.9426 5.49953 9.90022 5.97682 8.95672C6.45411 8.01322 7.14637 7.19505 7.99781 6.56812L11.1337 12L7.99781 17.4319C7.14637 16.805 6.45411 15.9868 5.97682 15.0433C5.49953 14.0998 5.25057 13.0574 5.25 12ZM12 18.75C11.0695 18.752 10.1488 18.5604 9.29625 18.1875L12.4331 12.75H18.7069C18.5208 14.3992 17.7344 15.9222 16.4975 17.0288C15.2605 18.1354 13.6597 18.748 12 18.75Z" fill="currentColor"/>
</svg>
