<svg id="Layer_1" enable-background="new 0 0 511.955 511.955" viewBox="0 0 511.955 511.955" xmlns="http://www.w3.org/2000/svg"><g><path d="m270.975 163.788v-41.88c17.46-6.18 30-22.87 30-42.42 0-24.81-20.19-45-45-45s-45 20.19-45 45c0 19.55 12.54 36.24 30 42.42v41.88l-105.49 47.95 120.49 54.77 120.49-54.77z"/><path d="m114.225 384.557-36.82 16.74c-.2-.21-.4-.42-.61-.63-8.78-8.78-20.3-13.16-31.82-13.16s-23.04 4.38-31.82 13.16c-17.54 17.55-17.54 46.09 0 63.64 8.77 8.77 20.3 13.16 31.82 13.16s23.05-4.39 31.82-13.16c9.75-9.76 14.08-22.91 12.99-35.68l41.98-19.08 109.21 49.64v-166.54l-126.75-57.61z"/><path d="m498.795 400.667c-17.55-17.54-46.09-17.55-63.64 0-.21.21-.41.42-.61.63l-36.82-16.74v-149.52l-126.75 57.61v166.54l109.22-49.64 41.97 19.08c-1.09 12.77 3.24 25.92 12.99 35.68 8.77 8.77 20.3 13.16 31.82 13.16s23.05-4.39 31.82-13.16c8.77-8.78 13.16-20.3 13.16-31.82s-4.39-23.039-13.16-31.82z"/></g><g/><g/><g/><g/><g/><g/><g/><g/><g/><g/><g/><g/><g/><g/><g/></svg>