<svg id="Layer_1" viewBox="0 0 512 512" xmlns="http://www.w3.org/2000/svg" data-name="Layer 1"><path d="m500.197 120.469c-.423-3.768-3.43-6.722-7.204-7.079-36.62-3.462-69.84-17.03-98.739-40.328-2.932-2.363-7.116-2.365-10.049-.002-15.699 12.644-32.664 22.416-50.742 29.269l-3.456-24.622c-1.957-14.01-14.092-24.215-28.254-23.733l-45.077 1.586c-3.203.111-5.777-.833-8.131-2.965l-33.531-30.186c-10.494-9.457-26.347-9.46-36.882-.003l-33.552 30.206c-2.335 2.115-4.918 3.043-8.09 2.95l-45.109-1.588c-14.098-.484-26.247 9.715-28.243 23.729l-6.264 44.666c-.445 3.151-1.818 5.522-4.344 7.481l-35.546 27.779c-11.141 8.706-13.891 24.32-6.397 36.319l23.915 38.297c1.687 2.675 2.162 5.369 1.493 8.492l-9.382 44.103c-2.951 13.838 4.98 27.579 18.456 31.964l17.328 5.623-49.526 123.146c-2.311 5.737-1.723 11.355 1.615 15.415 3.272 3.981 8.552 5.614 14.496 4.484l54.128-10.398 34.414 43.042c3.226 4.011 7.389 6.188 11.687 6.188.755 0 1.516-.067 2.275-.204 5.098-.916 9.29-4.909 11.209-10.668l39.394-117.493 10.137-4.103c2.964-1.19 5.726-1.19 8.671-.008l10.158 4.108 39.4 117.515c1.979 5.854 6.077 9.737 11.241 10.654.749.133 1.497.198 2.241.198 4.294 0 8.459-2.18 11.695-6.204l34.426-43.027 54.122 10.402c5.928 1.125 11.207-.505 14.477-4.471 3.337-4.045 3.94-9.659 1.644-15.428l-49.551-123.146 17.359-5.63c1.218-.396 2.396-.906 3.552-1.472 10.4 7.025 21.859 13.255 34.391 18.67 1.013.438 2.095.657 3.176.657s2.164-.219 3.177-.657c83.39-36.046 119.656-107.888 107.792-213.529zm-199.976 195.025c-7.03 2.303-12.348 6.777-15.803 13.29l-21.169 39.816c-2.79 5.23-9.031 7.508-14.509 5.303l-41.86-16.931c-6.745-2.706-13.874-2.706-20.642.009l-41.789 16.914c-5.51 2.21-11.768-.065-14.552-5.285l-21.171-39.82c-3.459-6.52-8.776-10.993-15.828-13.303l-42.882-13.916c-5.65-1.839-8.979-7.596-7.742-13.396l9.38-44.095c1.533-7.156.286-14.202-3.589-20.348l-23.896-38.269c-3.141-5.029-1.992-11.57 2.674-15.215l35.522-27.761c5.841-4.529 9.328-10.545 10.365-17.887l6.262-44.657c.838-5.881 5.951-10.147 11.832-9.964l45.122 1.588c7.395.242 13.927-2.144 19.365-7.069l33.525-30.182c4.416-3.964 11.061-3.969 15.457-.007l33.516 30.172c5.457 4.942 11.977 7.334 19.406 7.085l45.089-1.587c5.932-.213 11.019 4.073 11.839 9.948l3.857 27.474c-10.516 2.93-21.369 4.933-32.539 5.989-3.078.291-5.645 2.311-6.717 5.09-21.858-21.365-50.928-33.33-82.161-33.33-64.999 0-117.878 52.88-117.878 117.878s52.88 117.879 117.878 117.879c43.202 0 82.808-23.975 103.295-61.105 9.394 16.698 21.565 31.36 36.486 43.97l-36.146 11.722zm-79.987-89.438 9.455 28.954-24.559-17.918c-2.563-1.883-5.566-2.822-8.567-2.822s-5.984.936-8.53 2.805l-24.572 17.928 9.492-28.996c1.889-5.9-.193-12.365-5.182-16.087l-24.757-17.901 30.44.07c6.317 0 11.854-4.041 13.773-10.033l9.355-28.959 9.324 28.938c1.925 6.013 7.463 10.054 13.8 10.054l30.427-.07-24.68 17.861c-5.099 3.746-7.19 10.267-5.219 16.175zm168.992 91.839c-11.72-5.279-22.361-11.303-31.943-18.077-.478-.432-.993-.806-1.543-1.104-21.638-15.669-37.712-35.279-48.301-58.993-.226-1.118-.68-2.179-1.344-3.103-11.521-27.417-15.931-60.167-13.35-98.487.01-.128.02-.257.024-.386.206-3.01.453-6.053.746-9.133 12.031-1.519 23.704-4.086 35.01-7.641.539-.112 1.054-.275 1.543-.486 21.106-6.828 40.892-17.183 59.157-31.026 28.438 21.572 60.58 34.719 95.714 39.153 8.948 94.251-22.402 156.246-95.713 189.282zm68.067-173.136c-22.588-5.45-44.07-14.429-63.848-26.688-2.583-1.601-5.85-1.603-8.434-.002-19.808 12.261-41.292 21.241-63.854 26.691-3.546.856-6.064 4.001-6.126 7.648-1.089 64.338 21.906 108.712 70.3 135.655 1.211.674 2.553 1.011 3.896 1.011s2.686-.337 3.897-1.012c48.393-26.958 71.388-71.331 70.299-135.654-.062-3.648-2.582-6.793-6.129-7.649zm-36.779 39.848-33.477 37.502c-1.483 1.661-3.59 2.63-5.815 2.674-.053 0-.106.001-.159.001-2.169 0-4.248-.88-5.758-2.443l-17.15-17.745c-3.073-3.18-2.987-8.25.193-11.323 3.18-3.074 8.25-2.987 11.323.193l11.159 11.545 27.736-31.071c2.946-3.3 8.009-3.586 11.307-.642 3.299 2.945 3.586 8.007.642 11.307z"/></svg>