<svg height="512" viewBox="0 0 64 64" width="512" xmlns="http://www.w3.org/2000/svg"><g id="Layer_18" data-name="Layer 18"><path d="m59.775 20-27.763-13.882-27.764 13.882 27.764 13.882z"/><path d="m31.012 42.618-28-14v1.764l28 14z"/><path d="m59.775 27-4.763-2.382-22.553 11.282a1.006 1.006 0 0 1 -.9 0l-22.547-11.282-4.764 2.382 27.764 13.882z"/><path d="m3.012 43.382 28 14v-3.764l-28-14z"/><path d="m33.012 42.618v1.764l28-14v-1.764z"/><path d="m33.012 57.382 28-14v-3.764l-28 14z"/><path d="m55.012 35.618-22.553 11.282a1.006 1.006 0 0 1 -.9 0l-22.547-11.282-4.764 2.382 27.764 13.882 27.763-13.882z"/></g></svg>