<svg enable-background="new 0 0 3872.98 3872.98" viewBox="0 0 3872.98 3872.98" xmlns="http://www.w3.org/2000/svg"><g id="Layer_1"><g><path d="m1268.38 2177.49c33.39 0 60.46-27.07 60.46-60.46s-27.07-60.46-60.46-60.46h-107.01c-31.61 0-60.13-12.72-80.66-33.27-20.66-20.67-33.45-49.31-33.45-81s12.78-60.34 33.44-81.01c20.52-20.54 49.04-33.25 80.67-33.25v-.24h107.01c33.26 0 60.22-26.96 60.22-60.22s-26.96-60.22-60.22-60.22h-107.01v-.24c-64.72 0-123.48 26.44-166.16 69.15-42.54 42.58-68.87 101.3-68.87 166.03 0 64.72 26.34 123.44 68.88 166.01 42.68 42.72 101.47 69.17 166.15 69.17h107.01z"/><path d="m1574.52 2177.49c-53.65 0-102.4-21.92-137.81-57.38-35.26-35.3-57.09-83.98-57.09-137.67v-80.33c0-53.66 21.82-102.36 57.09-137.68 35.4-35.44 84.12-57.37 137.8-57.37 53.65 0 102.4 21.92 137.81 57.38 35.27 35.3 57.09 83.98 57.09 137.67v80.33h-.24c-.05 53.77-21.82 102.48-56.95 137.66-35.39 35.43-84.07 57.39-137.7 57.39zm-52.32-142.39c13.25 13.27 31.75 21.48 52.32 21.48 20.52 0 38.97-8.22 52.22-21.49 13.57-13.59 21.98-32.23 22-52.65h-.24v-80.33c0-20.65-8.28-39.26-21.66-52.65-13.25-13.27-31.75-21.48-52.32-21.48-20.58 0-39.07 8.21-52.31 21.47-13.39 13.4-21.67 32.02-21.67 52.66v80.33c-.01 20.66 8.27 39.27 21.66 52.66z"/><path d="m1941.03 1767.6c0-33.39-27.07-60.46-60.46-60.46s-60.46 27.07-60.46 60.46v349.44c0 33.39 27.07 60.46 60.46 60.46h178.35c33.39 0 60.46-27.07 60.46-60.46s-27.07-60.46-60.46-60.46h-117.89z"/><path d="m2364.98 2177.49c-53.65 0-102.4-21.92-137.81-57.38-35.26-35.3-57.09-83.98-57.09-137.67v-80.33c0-53.66 21.82-102.36 57.09-137.68 35.4-35.44 84.12-57.37 137.8-57.37 53.65 0 102.4 21.92 137.81 57.38 35.27 35.3 57.09 83.98 57.09 137.67v80.33c0 53.6-21.83 102.32-57.13 137.66-35.38 35.43-84.09 57.39-137.76 57.39zm-52.32-142.39c13.25 13.27 31.75 21.48 52.32 21.48 20.56 0 39.02-8.22 52.27-21.49 13.41-13.43 21.71-32.05 21.71-52.64v-80.33c0-20.65-8.28-39.26-21.66-52.65-13.25-13.27-31.75-21.48-52.32-21.48-20.58 0-39.07 8.21-52.31 21.47-13.39 13.4-21.67 32.02-21.67 52.66v80.33c0 20.65 8.28 39.26 21.66 52.65z"/><path d="m2751.15 1767.37c0-33.39-27.07-60.46-60.46-60.46s-60.46 27.07-60.46 60.46v349.89c0 33.39 27.07 60.46 60.46 60.46s60.46-27.07 60.46-60.46z"/><path d="m2690.69 1706.91c-33.39 0-60.46 27.07-60.46 60.46s27.07 60.46 60.46 60.46h128.85c8.44 0 15.91 3.24 21.15 8.49 5.38 5.38 8.7 12.95 8.7 21.43 0 8.4-3.35 15.97-8.77 21.4-5.26 5.26-12.7 8.53-21.08 8.53v.24h-128.85c-33.26 0-60.22 26.96-60.22 60.22s26.96 60.22 60.22 60.22h128.85v.24c41.5 0 79.17-17.01 106.57-44.43 27.32-27.34 44.2-65.02 44.2-106.41 0-41.53-16.85-79.15-44.13-106.45-27.42-27.44-65.12-44.39-106.64-44.39h-128.85z"/><path d="m2872.67 1919.8c-15.65-29.35-52.13-40.45-81.48-24.8-29.34 15.65-40.45 52.13-24.8 81.48l90.08 169.13c15.65 29.35 52.13 40.45 81.48 24.8 29.34-15.65 40.45-52.13 24.8-81.48z"/><g clip-rule="evenodd" fill-rule="evenodd"><path d="m1073.96 1077.11c64.73-64.79 136.67-122.35 214.51-171.37l-215.63-373.8c-110.41 68.03-212.22 148.69-303.4 239.97-91.26 91.34-171.9 193.32-239.91 303.91l373.31 215.9c48.95-77.88 106.42-149.85 171.12-214.61z"/><path d="m1893.2 719.36v-431.42c-268.26 7.22-520.55 78.37-742.22 198.76l215.62 373.78c158.14-83.96 336.87-134.19 526.6-141.12z"/><path d="m2510.48 860.48 215.62-373.78c-221.67-120.39-473.96-191.54-742.22-198.76v431.42c189.73 6.93 368.45 57.16 526.6 141.12z"/><path d="m3347.54 1075.81c-68.01-110.59-148.65-212.56-239.9-303.9-91.19-91.27-192.99-171.93-303.41-239.97l-215.63 373.8c77.84 49.02 149.78 106.58 214.51 171.37 64.65 64.71 122.09 136.63 171.02 214.46z"/><path d="m3591.33 1896.97c-7.21-268.45-78.27-520.95-198.52-742.84l-373.38 215.75c83.86 158.27 134.03 337.16 140.94 527.09z"/><path d="m3392.81 2730.5c120.26-221.88 191.31-474.39 198.53-742.84h-430.97c-6.91 189.93-57.08 368.81-140.94 527.09z"/><path d="m3107.64 3112.72c91.25-91.34 171.89-193.31 239.9-303.9l-373.4-215.76c-48.93 77.82-106.37 149.74-171.02 214.46-64.73 64.79-136.67 122.35-214.51 171.37l215.63 373.8c110.41-68.04 212.21-148.69 303.4-239.97z"/><path d="m2726.1 3397.94-215.62-373.78c-158.15 83.96-336.87 134.19-526.6 141.12v431.42c268.26-7.23 520.55-78.37 742.22-198.76z"/><path d="m1893.2 3596.7v-431.42c-189.64-6.93-368.27-57.11-526.37-141l-215.76 373.71c221.65 120.35 473.91 191.48 742.13 198.71z"/><path d="m1072.78 3352.65 215.76-373.71c-77.87-49.03-149.84-106.61-214.59-171.42-64.65-64.71-122.09-136.63-171.02-214.46l-373.4 215.76c68.01 110.59 148.65 212.56 239.9 303.9 91.18 91.26 192.96 171.9 303.35 239.93z"/><path d="m857.65 2514.74c-83.86-158.27-134.03-337.15-140.94-527.08h-430.96c7.21 268.45 78.27 520.95 198.53 742.84z"/><path d="m716.71 1896.97c6.91-189.86 57.05-368.69 140.86-526.92l-373.31-215.9c-120.25 221.88-191.3 474.38-198.52 742.82z"/></g></g></g><g id="Master_Layer_2"/></svg>