<svg id="Icons" viewBox="0 0 60 60" xmlns="http://www.w3.org/2000/svg"><path d="m21 47h-1.5c-1.93 0-3.5 1.57-3.5 3.5s1.57 3.5 3.5 3.5h2.5v2c0 .552-.448 1-1 1h-2c-.552 0-1-.448-1-1s-.447-1-1-1-1 .447-1 1c0 1.654 1.346 3 3 3h2c1.654 0 3-1.346 3-3v-6c0-1.654-1.346-3-3-3zm-3 3.5c0-.827.673-1.5 1.5-1.5h1.5c.552 0 1 .448 1 1v2h-2.5c-.827 0-1.5-.673-1.5-1.5z"/><path d="m30 47c-2.206 0-4 1.794-4 4v4c0 2.206 1.794 4 4 4s4-1.794 4-4v-4c0-2.206-1.794-4-4-4zm2 8c0 1.103-.897 2-2 2s-2-.897-2-2v-4c0-1.103.897-2 2-2s2 .897 2 2z"/><path d="m40 47c-2.206 0-4 1.794-4 4v4c0 2.206 1.794 4 4 4s4-1.794 4-4v-4c0-2.206-1.794-4-4-4zm2 8c0 1.103-.897 2-2 2s-2-.897-2-2v-4c0-1.103.897-2 2-2s2 .897 2 2z"/><path d="m57.975 28c-.246-6.966-3.046-13.291-7.495-18.066l-6.357 6.357c2.875 3.188 4.613 7.296 4.843 11.709z"/><path d="m11.046 30h-9.023c.236 6.682 2.826 13.024 7.362 17.952.029.031.066.047.112.048.012.002.091-.002.145-.057l6.11-6.11c.068-.068.078-.173.022-.237-2.855-3.22-4.504-7.308-4.73-11.596z"/><path d="m48.954 30c-.226 4.288-1.875 8.377-4.737 11.604-.049.057-.039.161.029.229l6.11 6.11c.055.055.127.058.145.057.046 0 .083-.017.11-.046 4.539-4.93 7.128-11.272 7.364-17.954h-9.022z"/><path d="m36.048 23.786c-.964 2.997-1.818 5.487-2.395 6.848-.631 1.483-2.09 2.372-3.633 2.372-.527 0-1.064-.104-1.582-.323-2.029-.862-2.994-3.183-2.15-5.175.577-1.36 1.777-3.706 3.264-6.485-4.202.235-7.552 3.718-7.552 7.977 0 4.411 3.589 8 8 8s8-3.589 8-8c0-1.947-.704-3.778-1.952-5.214z"/><path d="m29.219 30.841c1.017.434 2.178-.012 2.592-.988 1.067-2.515 3.42-9.875 6.635-20.75-4.011 7.079-8.96 15.989-10.316 19.187-.414.977.075 2.121 1.09 2.552z"/><path d="m2.025 28h9.025c.235-4.484 2.024-8.553 4.847-11.688l-6.378-6.378c-4.448 4.775-7.248 11.099-7.495 18.066z"/><path d="m36.928 7.723c.49-.865 1.519-1.21 2.448-.815.928.394 1.396 1.372 1.115 2.327-.317 1.075-.649 2.192-.988 3.327 1.159.669 2.229 1.447 3.201 2.32l6.361-6.361c-4.775-4.448-11.099-7.248-18.066-7.495v9.015c1.445.075 2.856.312 4.22.707.581-1.033 1.155-2.048 1.708-3.024z"/><path d="m29 10.051v-9.026c-6.966.246-13.291 3.046-18.066 7.495l6.378 6.378c3.135-2.824 7.204-4.612 11.688-4.847z"/></svg>