<svg id="&#x421;&#x43B;&#x43E;&#x439;_1" enable-background="new 0 0 300 300" viewBox="0 0 300 300" xmlns="http://www.w3.org/2000/svg"><g><path d="m239.725 204.008c1.6-11.678 5.467-39.868 6.83-49.384.023-.158.013-.315.023-.473l-.003-.894c-.088-1.019-.417-2.008-1.003-2.87-9.506-14.005-9.909-15.079-10.061-15.484-3.276-8.609-14.957-38.11-27.604-55.894-2.674-3.785-6.695-5.954-11.033-5.954h-94.191c-4.339 0-8.359 2.169-11.03 5.95-12.649 17.789-24.331 47.289-27.61 55.906-.483 1.29-6.22 10.485-10.948 17.971-.137.218-.2.47-.181.73l5.807 50.241c.41 3.548 3.413 6.224 6.985 6.224h167.054c3.497-.002 6.492-2.61 6.965-6.069zm-2.918-54.121c2.665 2.732 3.762 6.563 3.259 11.386-.316 3.029-2.61 5.43-5.455 5.71l-34.282 3.373c-.122.012-.243.018-.364.018-1.307 0-2.512-.696-3.208-1.875-.8-1.357-.743-3.066.145-4.354 3.565-5.175 8.942-11.597 14.309-12.81l17.005-3.843c3.209-.726 6.421.17 8.591 2.395zm-155.861-24.838 15.625-37.2c2.271-5.524 6.646-8.965 11.411-8.965h83.596c4.765 0 9.14 3.441 11.417 8.978l15.614 37.174c.002.004.004.009.006.013.716 1.741.528 3.836-.479 5.339-.765 1.141-1.919 1.795-3.167 1.795h-130.378c-1.248 0-2.402-.655-3.167-1.795-1.006-1.503-1.194-3.599-.478-5.339zm112.08 32.437-3.903 14.164c-2.226 8.078-8.406 13.803-15.746 14.585-.061.006-.121.009-.182.009h-44.834c-.061 0-.121-.003-.182-.009-7.34-.782-13.52-6.508-15.746-14.585l-3.903-14.164c-.577-2.094-.127-4.307 1.203-5.918 1.111-1.345 2.68-2.05 4.332-1.948h73.426c1.654-.103 3.221.603 4.331 1.947 1.332 1.612 1.781 3.824 1.204 5.919zm-131.019 3.787c-.503-4.823.593-8.654 3.259-11.386 2.169-2.225 5.378-3.122 8.591-2.395l17.005 3.843c5.367 1.213 10.744 7.636 14.309 12.81.888 1.289.944 2.997.145 4.354-.695 1.178-1.901 1.874-3.207 1.874-.121 0-.242-.006-.364-.018l-34.283-3.373c-2.845-.279-5.139-2.68-5.455-5.709zm74.95 36.189c-.022 0-.044-.001-.066-.001l-61.698-2.323c-.946-.036-1.684-.832-1.649-1.778.036-.946.816-1.66 1.778-1.649l61.698 2.323c.946.036 1.684.832 1.649 1.778-.035.925-.795 1.65-1.712 1.65zm86.754-2.324-61.699 2.323c-.022.001-.044.001-.066.001-.917 0-1.677-.725-1.712-1.65-.036-.947.703-1.742 1.649-1.778l61.698-2.323c.968-.013 1.742.703 1.778 1.649.036.947-.702 1.743-1.648 1.778z"/><path d="m55.316 204.245-2.463-21.317-.08 39.061c-.044 1.428.454 2.758 1.366 3.698.787.813 1.81 1.26 2.879 1.26h16.6c1.606 0 2.911-1.486 2.911-3.313v-10.129h-10.821c-5.314-.001-9.781-3.981-10.392-9.26z"/><path d="m60.816 117.602h-9c-3.097 0-5.784 2.205-6.388 5.243l-.426 2.14c-.089.448.012.897.286 1.263.273.367.675.592 1.13.634l15.101 1.402v-9.98c-.001-.387-.316-.702-.703-.702z"/><path d="m232.76 213.504h-9.728v10.129c0 1.827 1.306 3.313 2.911 3.313h16.6c1.069 0 2.091-.448 2.879-1.26.911-.94 1.41-2.27 1.366-3.648l-.133-43.273c-1.346 9.76-2.727 19.827-3.532 25.707-.706 5.149-5.16 9.032-10.363 9.032z"/><path d="m254.712 126.247c.273-.366.375-.815.286-1.263l-.426-2.139c-.604-3.038-3.291-5.243-6.388-5.243h-9c-.387 0-.702.315-.702.702v9.98l15.1-1.402c.456-.043.857-.268 1.13-.635z"/><path d="m102.362 166.758c.034-.058.194-.363-.015-.667-4.484-6.507-8.945-10.667-12.241-11.412l-17.005-3.843c-.479-.108-.957-.161-1.424-.161-1.522 0-2.939.561-3.957 1.606-1.948 1.996-2.701 4.821-2.303 8.636.148 1.416 1.149 2.533 2.379 2.654l34.284 3.373c.037.001.162.016.282-.186z"/><path d="m214.853 128.288c.21-.23.459-1.025.162-1.753l-15.615-37.179c-1.671-4.063-4.666-6.579-7.821-6.579h-83.596c-3.156 0-6.151 2.515-7.816 6.565l-15.625 37.2c-.295.717-.045 1.515.166 1.745h130.145z"/><path d="m199.725 166.091c-.209.304-.049.608-.015.666.12.203.241.189.282.186l34.283-3.373c1.232-.121 2.232-1.237 2.38-2.654.398-3.814-.355-6.639-2.303-8.636-1.332-1.365-3.343-1.903-5.382-1.445l-17.005 3.843c-3.295.746-7.756 4.906-12.24 11.413z"/><path d="m187.687 153.044c-.045.003-.09.005-.135.005h-73.547c-.045 0-.09-.002-.134-.005-.738-.054-1.253.417-1.493.707-.61.739-.818 1.821-.541 2.824l3.903 14.163c1.839 6.677 6.824 11.408 12.715 12.077h44.646c5.891-.669 10.876-5.4 12.715-12.077l3.903-14.163c.277-1.003.069-2.086-.541-2.824-.237-.289-.754-.761-1.491-.707zm-36.347 25.132c-.126.137-.274.252-.434.354-.148.103-.32.194-.492.263-.171.069-.354.126-.526.16-.194.046-.377.057-.56.057-.755 0-1.497-.297-2.023-.834-.537-.526-.834-1.269-.834-2.023 0-.182.011-.366.046-.549.046-.182.092-.366.171-.537.069-.171.16-.343.263-.492.103-.16.217-.309.354-.434.663-.663 1.646-.972 2.583-.789.172.046.354.092.526.171.172.069.343.16.492.263.16.103.309.217.434.354.137.126.252.274.354.434.103.148.194.32.263.492.08.171.126.354.171.537.035.183.057.366.057.549.001.756-.308 1.498-.845 2.024zm8.553-7.573c-.559.764-1.633.93-2.396.37-.84-.615-1.697-1.134-2.546-1.543-.842-.405-1.699-.714-2.548-.917-.846-.203-1.705-.306-2.552-.308-.892.018-1.729.101-2.588.303-.882.209-1.776.528-2.656.95-.911.436-1.829.992-2.731 1.652-.305.223-.66.331-1.012.331-.528 0-1.049-.243-1.385-.702-.559-.764-.393-1.837.371-2.396 1.072-.785 2.174-1.45 3.275-1.977 1.101-.528 2.228-.93 3.35-1.195 1.12-.263 2.274-.391 3.383-.395 1.114.003 2.239.138 3.345.402 1.087.261 2.175.652 3.235 1.162 1.038.499 2.076 1.127 3.085 1.866.764.56.929 1.633.37 2.397zm4.093-6.684c-.544.775-1.613.962-2.389.417-1.212-.852-2.477-1.575-3.763-2.15-1.27-.569-2.579-1.001-3.89-1.285-1.307-.283-2.593-.409-3.97-.421-1.336.004-2.686.157-4.012.454-1.35.301-2.702.758-4.018 1.356-1.348.613-2.686 1.386-3.976 2.3-.301.213-.647.315-.989.315-.537 0-1.066-.252-1.401-.724-.547-.772-.364-1.843.409-2.39 1.466-1.039 2.994-1.921 4.539-2.624 1.531-.696 3.108-1.228 4.688-1.58 1.567-.35 3.165-.531 4.749-.536 1.614.002 3.159.163 4.708.499 1.543.334 3.078.841 4.565 1.506 1.484.665 2.942 1.497 4.333 2.473.774.546.961 1.615.417 2.39z"/></g></svg>