<svg xmlns="http://www.w3.org/2000/svg" xmlns:xlink="http://www.w3.org/1999/xlink" width="36" height="36" viewBox="0 0 36 36">
  <defs>
    <clipPath id="clip-path">
      <rect id="back" width="24" height="24" transform="translate(26 589)" fill="#00b2ca"/>
    </clipPath>
  </defs>
  <g id="Battery_Health" data-name="Battery Health" transform="translate(-20 -583)">
    <rect id="back-2" data-name="back" width="36" height="36" rx="10" transform="translate(20 583)" fill="#00b2ca" opacity="0.1"/>
    <g id="Mask_Group_23" data-name="Mask Group 23" clip-path="url(#clip-path)">
      <path id="battery-full_9376487" d="M1.091,8.727A3.273,3.273,0,0,1,4.364,5.455H17.455a3.273,3.273,0,0,1,3.273,3.273v8.727a3.273,3.273,0,0,1-3.273,3.273H4.364a3.273,3.273,0,0,1-3.273-3.273Zm20.727,2.182a1.091,1.091,0,0,1,1.091-1.091A2.182,2.182,0,0,1,25.091,12v2.182a2.182,2.182,0,0,1-2.182,2.182,1.091,1.091,0,0,1-1.091-1.091Zm-14.182,0a1.091,1.091,0,1,0-2.182,0v4.364a1.091,1.091,0,0,0,2.182,0Zm3.273-1.091A1.091,1.091,0,0,1,12,10.909v4.364a1.091,1.091,0,0,1-2.182,0V10.909a1.091,1.091,0,0,1,1.091-1.091Zm5.455,1.091a1.091,1.091,0,1,0-2.182,0v4.364a1.091,1.091,0,1,0,2.182,0Z" transform="translate(24.909 587.909)" fill="#00b2ca" fill-rule="evenodd"/>
    </g>
  </g>
</svg>
