<svg xmlns="http://www.w3.org/2000/svg" xmlns:xlink="http://www.w3.org/1999/xlink" width="36" height="36" viewBox="0 0 36 36">
  <defs>
    <clipPath id="clip-path">
      <rect id="back" width="24" height="24" transform="translate(26 589)" fill="#00b2ca"/>
    </clipPath>
  </defs>
  <g id="Memory_" data-name="Memory " transform="translate(-20 -583)">
    <rect id="back-2" data-name="back" width="36" height="36" rx="10" transform="translate(20 583)" fill="#00b2ca" opacity="0.1"/>
    <g id="Mask_Group_19" data-name="Mask Group 19" clip-path="url(#clip-path)">
      <path id="memory_8651176" d="M9.913,12.8h-3.2L12.8,6.713v3.2ZM23.844,6.777a.533.533,0,0,0,0-.754L20.8,2.979V5.113l2.354,2.354Zm1.067,1.379-.469-.469L7.688,24.442l.469.469a.534.534,0,0,0,.754,0l16-16a.533.533,0,0,0,0-.754ZM5.71,19.89,8.22,22.4,22.4,8.221,19.89,5.71a.532.532,0,0,1-.156-.377V1.913l-.69-.69a.533.533,0,0,0-.754,0l-.156.156V5.333a.533.533,0,1,1-1.067,0V2.446L16,3.513V7.467a.533.533,0,0,1-1.067,0V4.579L13.867,5.646v4.487a.532.532,0,0,1-.156.377l-3.2,3.2a.532.532,0,0,1-.377.156H5.646L4.579,14.933H7.467a.534.534,0,0,1,0,1.067H3.513L2.446,17.067H5.333a.533.533,0,1,1,0,1.067H1.379l-.156.156a.534.534,0,0,0,0,.754l.69.69h3.42A.532.532,0,0,1,5.71,19.89Zm-2.732.91,3.044,3.044a.533.533,0,0,0,.754,0l.69-.69L5.113,20.8Z" transform="translate(24.933 587.934)" fill="#00b2ca"/>
    </g>
  </g>
</svg>
