<svg xmlns="http://www.w3.org/2000/svg" xmlns:xlink="http://www.w3.org/1999/xlink" width="36" height="36" viewBox="0 0 36 36">
  <defs>
    <clipPath id="clip-path">
      <rect id="back" width="24" height="24" transform="translate(306.348 431.348)" fill="#00b2ca"/>
    </clipPath>
  </defs>
  <g id="Condition" transform="translate(-300.348 -425.348)">
    <rect id="back-2" data-name="back" width="36" height="36" rx="10" transform="translate(300.348 425.348)" fill="#00b2ca" opacity="0.1"/>
    <g id="Mask_Group_13" data-name="Mask Group 13" clip-path="url(#clip-path)">
      <g id="_x32_0" transform="translate(304.729 429.729)">
        <path id="Path_23488" data-name="Path 23488" d="M18.047,3.646V6.269a.394.394,0,0,1-.393.393H9.583a.394.394,0,0,1-.393-.393V3.646a.4.4,0,0,1,.393-.4h2.431a1.614,1.614,0,0,1,3.228,0h2.411a.4.4,0,0,1,.393.4Z" fill="#00b2ca"/>
        <path id="Path_23489" data-name="Path 23489" d="M20.992,4.9h-.928V6.27a2.411,2.411,0,0,1-2.411,2.411H9.583A2.411,2.411,0,0,1,7.172,6.27V4.9H6.244A2.045,2.045,0,0,0,4.207,6.936V23.581a2.045,2.045,0,0,0,2.038,2.038H20.992a2.045,2.045,0,0,0,2.038-2.038V6.936A2.045,2.045,0,0,0,20.992,4.9ZM15.744,19.882l-1.9,1.9a1.008,1.008,0,0,1-1.426,0l-.929-.929a1.009,1.009,0,0,1,1.426-1.426l.216.216,1.183-1.183a1.009,1.009,0,0,1,1.426,1.426Zm0-6.37-1.9,1.9a1.009,1.009,0,0,1-1.426,0l-.929-.929a1.009,1.009,0,1,1,1.426-1.426l.216.216,1.183-1.183a1.009,1.009,0,0,1,1.426,1.426Z" fill="#00b2ca"/>
      </g>
    </g>
  </g>
</svg>
