<svg xmlns="http://www.w3.org/2000/svg" xmlns:xlink="http://www.w3.org/1999/xlink" width="36" height="36" viewBox="0 0 36 36">
  <defs>
    <clipPath id="clip-path">
      <rect id="back" width="24" height="24" transform="translate(26 589)" fill="#00b2ca"/>
    </clipPath>
  </defs>
  <g id="Accessories" transform="translate(-20 -583)">
    <rect id="back-2" data-name="back" width="36" height="36" rx="10" transform="translate(20 583)" fill="#00b2ca" opacity="0.1"/>
    <g id="Mask_Group_20" data-name="Mask Group 20" clip-path="url(#clip-path)">
      <path id="charger_10210734" d="M13.6,9.935H12.526V2.7H13.6a1.2,1.2,0,0,1,1.2,1.2v.459h1.838a.412.412,0,1,1,0,.825H14.8V7.451h1.838a.412.412,0,1,1,0,.824H14.8v.46A1.2,1.2,0,0,1,13.6,9.935Zm-1.8,1.126V2.7a1.766,1.766,0,0,0-1.545-1.507H4.12A1.764,1.764,0,0,0,2.557,2.941v7.875a1.764,1.764,0,0,0,1.762,1.762h5.737A1.765,1.765,0,0,0,11.8,11.061ZM23.412,2.5H21.3a.412.412,0,0,0-.412.412V5.051a1.47,1.47,0,0,0,1.055,1.408V17.194a7.173,7.173,0,1,1-14.346,0V15.643a1.831,1.831,0,0,0,1.416-1.781V13.3H5.359v.558a1.831,1.831,0,0,0,1.417,1.781V17.19a8,8,0,0,0,15.995,0V6.459a1.47,1.47,0,0,0,1.055-1.408V2.917a.412.412,0,0,0-.412-.412Z" transform="translate(24.809 587.81)" fill="#00b2ca"/>
    </g>
  </g>
</svg>
