<svg xmlns="http://www.w3.org/2000/svg" xmlns:xlink="http://www.w3.org/1999/xlink" width="36" height="36" viewBox="0 0 36 36">
  <defs>
    <clipPath id="clip-path">
      <rect id="back" width="24" height="24" transform="translate(306.348 432.484)" fill="#00b2ca"/>
    </clipPath>
  </defs>
  <g id="How_old" data-name="How old" transform="translate(-300.348 -425.484)">
    <rect id="back-2" data-name="back" width="36" height="36" rx="10" transform="translate(300.348 425.484)" fill="#00b2ca" opacity="0.1"/>
    <g id="Mask_Group_12" data-name="Mask Group 12" clip-path="url(#clip-path)">
      <g id="Layer_x0020_1" transform="translate(306.348 432.484)">
        <g id="_218336912">
          <path id="_218337728" d="M3.594,0H20.406V2.159H3.594Z" fill="#00b2ca" fill-rule="evenodd"/>
          <path id="_218338088" d="M3.594,21.841H20.406V24H3.594Z" fill="#00b2ca" fill-rule="evenodd"/>
          <g id="Group_4868" data-name="Group 4868">
            <path id="_218338208" d="M6.407,1.892a14.406,14.406,0,0,0,.2,3.168c6.674-1.054,5.1,2.858,9.9,2.694A12.449,12.449,0,0,0,17.6,1.892h1.6a14.212,14.212,0,0,1-1.169,6.379A10,10,0,0,1,15.077,12a10,10,0,0,1,2.946,3.728,14.212,14.212,0,0,1,1.169,6.379H4.808a14.211,14.211,0,0,1,1.169-6.379A9.995,9.995,0,0,1,8.923,12,10,10,0,0,1,5.977,8.272a14.212,14.212,0,0,1-1.169-6.38ZM12,12l-1.239.7a8.134,8.134,0,0,0-3.34,3.7,10.843,10.843,0,0,0-.867,2.819c2.3-3.2,8.588-3.2,10.891,0a10.842,10.842,0,0,0-.866-2.819,8.134,8.134,0,0,0-3.34-3.706Z" fill="#00b2ca"/>
            <path id="_218337056" d="M12.327,14.034a.327.327,0,0,0-.653,0h0a.327.327,0,0,0,.653,0Z" fill="#00b2ca"/>
            <path id="_218337512" d="M12.327,13.043a.327.327,0,0,0-.653,0h0a.327.327,0,0,0,.653,0Z" fill="#00b2ca"/>
            <path id="_218337416" d="M12.327,15.024a.327.327,0,0,0-.653,0h0a.327.327,0,0,0,.653,0Z" fill="#00b2ca"/>
            <path id="_218336936" d="M12.327,16.014a.327.327,0,0,0-.653,0h0a.327.327,0,1,0,.653,0Z" fill="#00b2ca"/>
          </g>
        </g>
      </g>
    </g>
  </g>
</svg>
