<svg xmlns="http://www.w3.org/2000/svg" xmlns:xlink="http://www.w3.org/1999/xlink" width="36" height="36" viewBox="0 0 36 36">
  <defs>
    <clipPath id="clip-path">
      <rect id="back" width="24" height="24" transform="translate(306.348 431.348)" fill="#00b2ca"/>
    </clipPath>
  </defs>
  <g id="invoice" transform="translate(-300.348 -425.348)">
    <rect id="back-2" data-name="back" width="36" height="36" rx="10" transform="translate(300.348 425.348)" fill="#00b2ca" opacity="0.1"/>
    <g id="Mask_Group_5226" data-name="Mask Group 5226" clip-path="url(#clip-path)">
      <g id="Layer_1" data-name="Layer 1" transform="translate(309.365 431.348)">
        <g id="Group_5230" data-name="Group 5230">
          <path id="Path_25478" data-name="Path 25478" d="M16.7,24H1.263A1.565,1.565,0,0,1,0,22.191V1.528A1.392,1.392,0,0,1,.541.361,4.239,4.239,0,0,1,1.263,0h9.216V5.859A1.511,1.511,0,0,0,12.128,7.5h5.837v6.652q0,4.136,0,8.273a1.489,1.489,0,0,1-1.178,1.538A.677.677,0,0,0,16.7,24ZM5.24,4.556c-.3.126-.584.222-.848.366a2.409,2.409,0,0,0-.756,3.816A3.068,3.068,0,0,0,5.946,9.748,1.938,1.938,0,0,1,6.907,10a.955.955,0,0,1,0,1.755,1.737,1.737,0,0,1-1.961-.088.756.756,0,0,0-1.111.135.734.734,0,0,0,.241,1.074c.358.227.753.4,1.166.608,0,.2,0,.455,0,.712a.75.75,0,1,0,1.5.007c0-.262,0-.525,0-.739a9.85,9.85,0,0,0,1.027-.491,2.39,2.39,0,0,0,.7-3.565A3.016,3.016,0,0,0,6.1,8.258a2.034,2.034,0,0,1-1.11-.3.939.939,0,0,1,0-1.657,1.812,1.812,0,0,1,2.043.039.752.752,0,0,0,1.1-.116A.735.735,0,0,0,7.9,5.126c-.357-.228-.753-.394-1.165-.6,0-.209,0-.474,0-.739a.748.748,0,1,0-1.495,0c0,.265,0,.53,0,.778ZM9.006,16.5H6.246c-.834,0-1.668,0-2.5,0a.747.747,0,0,0-.173,1.474A1.406,1.406,0,0,0,3.895,18q3.882,0,7.765,0c.842,0,1.684,0,2.526,0a.75.75,0,1,0-.011-1.5q-2.585,0-5.169,0ZM8.981,21h4.771c.171,0,.344.007.514,0a.748.748,0,0,0,.108-1.479,1.523,1.523,0,0,0-.3-.017H3.9a1.974,1.974,0,0,0-.211,0,.727.727,0,0,0-.64.476A.747.747,0,0,0,3.788,21q2.6,0,5.193,0Zm3.751-9c.483,0,.967,0,1.45,0a.75.75,0,1,0,0-1.5q-1.449,0-2.9,0a.751.751,0,1,0,0,1.5c.483,0,.966,0,1.45,0Zm0,3c.483,0,.966,0,1.45,0a.75.75,0,1,0-.009-1.5q-1.449,0-2.9,0a.751.751,0,1,0,.009,1.5c.483,0,.966,0,1.45,0Z" fill="#00b2ca"/>
          <path id="Path_25479" data-name="Path 25479" d="M12.023,0a1.95,1.95,0,0,0,.153.2q2.784,2.794,5.572,5.585c.059.059.115.121.194.2H11.976V0h.047Z" fill="#00b2ca"/>
        </g>
      </g>
    </g>
  </g>
</svg>
