<svg width="36" height="36" viewBox="0 0 36 36" fill="none" xmlns="http://www.w3.org/2000/svg">
<g clip-path="url(#clip0_1068_1227)">
<path opacity="0.1" d="M26 0H10C4.47715 0 0 4.47715 0 10V26C0 31.5228 4.47715 36 10 36H26C31.5228 36 36 31.5228 36 26V10C36 4.47715 31.5228 0 26 0Z" fill="#00B2CA"/>
<path d="M18.001 6.75782C17.9152 6.75863 17.8321 6.78886 17.7659 6.84357L6.89096 15.8436C6.62001 16.0672 6.77769 16.5072 7.129 16.5079H8.62899V27.3828H7.50619C7.29741 27.3816 7.12779 27.5512 7.129 27.76V28.8814C7.1282 29.0899 7.2977 29.259 7.50619 29.2578H28.5024C28.7095 29.257 28.8768 29.0885 28.876 28.8814V27.76C28.8772 27.5526 28.7098 27.3837 28.5024 27.3828H27.3789V16.5079H28.876C29.2287 16.5107 29.389 16.0681 29.1169 15.8436L26.6282 13.784V9.0086C26.629 8.80036 26.4599 8.63135 26.2517 8.63214H22.8782C22.6711 8.63296 22.5024 8.8015 22.5032 9.0086V10.3716L18.242 6.84357C18.1742 6.78758 18.0889 6.75725 18.001 6.75782ZM18.004 13.5071C19.1473 13.5071 20.0665 14.4357 20.0665 15.5703C20.0665 16.7049 19.1443 17.6328 18.004 17.6328C16.8637 17.6328 15.9422 16.7049 15.9422 15.5703C15.9422 14.4357 16.8607 13.5071 18.004 13.5071ZM18.004 14.2585C17.2821 14.2585 16.6922 14.841 16.6922 15.5703C16.6922 16.2996 17.2821 16.8828 18.004 16.8828C18.7259 16.8828 19.3165 16.2996 19.3165 15.5703C19.3165 14.841 18.7259 14.2585 18.004 14.2585ZM19.1283 18.3813C20.3153 18.3813 21.3255 19.1685 21.6441 20.2571L21.7547 20.2585C21.9745 20.2586 22.1471 20.4467 22.1282 20.6657L21.7701 24.5827C21.9858 24.7556 22.1282 25.0134 22.1282 25.3217C22.1282 25.8478 21.7021 26.257 21.1893 26.257H14.8158C14.303 26.257 13.8805 25.8449 13.8805 25.3217C13.8805 25.0065 14.0211 24.757 14.2372 24.5842L13.8805 20.6657C13.8618 20.4602 14.0127 20.2782 14.2181 20.2585C14.23 20.2579 14.2421 20.2579 14.254 20.2585H14.3624C14.6812 19.1708 15.6934 18.3813 16.8805 18.3813L19.1283 18.3813ZM16.8805 19.1321C16.1046 19.1321 15.4472 19.5959 15.1593 20.2585H20.8487C20.5608 19.596 19.904 19.1321 19.1283 19.1321H16.8805ZM14.6634 21.0085L14.971 24.3835H21.0347L21.3416 21.0085H14.6634ZM18.004 22.1328C18.2111 22.1328 18.379 22.3007 18.379 22.5078C18.379 22.7149 18.2111 22.8828 18.004 22.8828C17.7969 22.8828 17.629 22.7149 17.629 22.5078C17.629 22.3007 17.7969 22.1328 18.004 22.1328ZM14.8158 25.1335C14.7054 25.1335 14.6305 25.2201 14.6305 25.3218C14.6305 25.4234 14.7054 25.5071 14.8158 25.5071H21.1893C21.2996 25.5071 21.3775 25.4233 21.3775 25.3218C21.3775 25.2201 21.2996 25.1335 21.1893 25.1335H14.8158Z" fill="#00B2CA"/>
</g>
<defs>
<clipPath id="clip0_1068_1227">
<rect width="36" height="36" fill="white"/>
</clipPath>
</defs>
</svg>
