<svg width="36" height="36" viewBox="0 0 36 36" fill="none" xmlns="http://www.w3.org/2000/svg">
<g clip-path="url(#clip0_1081_1378)">
<path opacity="0.1" d="M26 0H10C4.47715 0 0 4.47715 0 10V26C0 31.5228 4.47715 36 10 36H26C31.5228 36 36 31.5228 36 26V10C36 4.47715 31.5228 0 26 0Z" fill="#00B2CA"/>
<path d="M18.3788 25.5577C18.3788 25.1283 18.4204 24.7048 18.5011 24.2924C18.4189 24.3445 18.3282 24.3821 18.2354 24.3986C18.049 24.4297 17.7959 24.4587 17.4495 24.4587C17.1037 24.4587 16.8501 24.4292 16.6637 24.3986C16.3569 24.3445 16.0782 24.0659 16.0241 23.7592C15.993 23.5732 15.964 23.3197 15.964 22.9734C15.964 22.6276 15.9935 22.374 16.0241 22.1876C16.0782 21.8809 16.3569 21.6023 16.6637 21.5482C16.8496 21.5171 17.1032 21.488 17.4495 21.488C17.7954 21.488 18.049 21.5176 18.2354 21.5482C18.5422 21.6023 18.8208 21.8809 18.875 22.1876C18.904 22.3635 18.9311 22.6 18.9346 22.9168C19.2554 22.1941 19.71 21.5296 20.2859 20.9538C20.8693 20.3705 21.5444 19.9114 22.2782 19.5902C22.0892 19.5792 21.9358 19.5597 21.813 19.5391C21.5063 19.485 21.2276 19.2063 21.1735 18.8997C21.1424 18.7137 21.1134 18.4602 21.1134 18.1139C21.1134 17.7681 21.1429 17.5145 21.1735 17.3281C21.2276 17.0214 21.5063 16.7428 21.813 16.6886C21.999 16.6576 22.2526 16.6285 22.5989 16.6285C22.9448 16.6285 23.1984 16.6581 23.3848 16.6886C23.6916 16.7428 23.9702 17.0214 24.0244 17.3281C24.0554 17.5145 24.0845 17.7676 24.0845 18.1139C24.0845 18.4597 24.0549 18.7132 24.0244 18.8997C24.0113 18.9738 23.9848 19.0465 23.9482 19.1146C24.2579 19.07 24.5727 19.047 24.8909 19.047C26.3374 19.047 27.7112 19.5155 28.8404 20.3805C28.877 19.6899 28.8991 18.9377 28.9001 18.1179C28.8986 16.6937 28.8339 15.4734 28.7377 14.427C18.891 13.7109 9.13955 14.2371 6.16189 14.4325C6.06616 15.4779 6.002 16.6967 6 18.1179C6.00301 20.7844 6.22655 22.7368 6.46512 24.1721C6.88262 26.5364 9.03079 28.6833 11.395 29.1013C12.8299 29.3398 14.7831 29.5633 17.4495 29.5663C18.2695 29.5653 19.0218 29.5438 19.7125 29.5067C18.8474 28.3776 18.3788 27.0035 18.3788 25.5577ZM16.0241 17.3286C16.0782 17.0219 16.3569 16.7433 16.6637 16.6891C16.8496 16.6581 17.1032 16.629 17.4495 16.629C17.7954 16.629 18.049 16.6586 18.2354 16.6891C18.5422 16.7433 18.8208 17.0219 18.875 17.3286C18.906 17.515 18.9351 17.7681 18.9351 18.1144C18.9351 18.4602 18.9055 18.7137 18.875 18.9002C18.8208 19.2069 18.5422 19.4855 18.2354 19.5396C18.049 19.5707 17.7959 19.5997 17.4495 19.5997C17.1037 19.5997 16.8501 19.5702 16.6637 19.5396C16.3569 19.4855 16.0782 19.2069 16.0241 18.9002C15.993 18.7142 15.964 18.4607 15.964 18.1144C15.964 17.7686 15.9935 17.515 16.0241 17.3286ZM13.7256 23.7587C13.6715 24.0654 13.3928 24.344 13.086 24.3981C12.8996 24.4292 12.6465 24.4582 12.3002 24.4582C11.9543 24.4582 11.7007 24.4287 11.5148 24.3981C11.208 24.344 10.9294 24.0654 10.8752 23.7587C10.8442 23.5727 10.8151 23.3192 10.8151 22.9729C10.8151 22.6271 10.8447 22.3735 10.8752 22.1871C10.9294 21.8804 11.208 21.6018 11.5148 21.5477C11.7007 21.5166 11.9543 21.4875 12.3002 21.4875C12.646 21.4875 12.8996 21.5171 13.086 21.5477C13.3928 21.6018 13.6715 21.8804 13.7256 22.1871C13.7567 22.3735 13.7857 22.6266 13.7857 22.9729C13.7857 23.3187 13.7562 23.5722 13.7256 23.7587ZM13.7256 18.8997C13.6715 19.2063 13.3928 19.485 13.086 19.5391C12.8996 19.5702 12.6465 19.5992 12.3002 19.5992C11.9543 19.5992 11.7007 19.5697 11.5148 19.5391C11.208 19.485 10.9294 19.2063 10.8752 18.8997C10.8442 18.7137 10.8151 18.4602 10.8151 18.1139C10.8151 17.7681 10.8447 17.5145 10.8752 17.3281C10.9294 17.0214 11.208 16.7428 11.5148 16.6886C11.7007 16.6576 11.9543 16.6285 12.3002 16.6285C12.646 16.6285 12.8996 16.6581 13.086 16.6886C13.3928 16.7428 13.6715 17.0214 13.7256 17.3281C13.7567 17.5145 13.7857 17.7676 13.7857 18.1139C13.7857 18.4597 13.7562 18.7132 13.7256 18.8997Z" fill="#00B2CA"/>
<path d="M28.5156 12.5767C28.4885 12.3962 28.4615 12.2229 28.4339 12.057C28.0234 9.73372 25.9424 7.62094 23.6263 7.15237V6.21074C23.6263 5.54223 23.0845 5 22.4154 5C21.7463 5 21.2045 5.54223 21.2045 6.21074V6.83065C20.4512 6.75999 19.6067 6.70586 18.6599 6.6798V6.21124C18.6604 5.54223 18.1181 5 17.449 5C16.7804 5 16.2381 5.54223 16.2381 6.21074V6.6793C15.2913 6.70536 14.4473 6.75999 13.6935 6.83014V6.21024C13.694 5.54223 13.1516 5 12.4825 5C11.8134 5 11.2716 5.54223 11.2716 6.21074V7.15187C8.95605 7.62093 6.87455 9.73322 6.46406 12.0565C6.43599 12.2249 6.40843 12.4013 6.38086 12.5842C9.71438 12.3747 19.0313 11.9147 28.5156 12.5762V12.5767Z" fill="#00B2CA"/>
<path d="M24.8915 20.4453C22.0702 20.4453 19.7832 22.732 19.7832 25.5529C19.7832 28.3738 22.0702 30.6604 24.8915 30.6604C27.7128 30.6604 29.9998 28.3738 29.9998 25.5529C29.9998 22.732 27.7128 20.4453 24.8915 20.4453ZM25.8047 28.5782C25.7696 28.7767 25.5892 28.9571 25.3907 28.9922C25.2704 29.0122 25.106 29.0308 24.882 29.0313C24.6579 29.0313 24.494 29.0122 24.3732 28.9922C24.1748 28.9571 23.9943 28.7767 23.9593 28.5782C23.9392 28.458 23.9207 28.2936 23.9202 28.0696C23.9202 27.8456 23.9392 27.6817 23.9593 27.5609C23.9943 27.3625 24.1748 27.1821 24.3732 27.147C24.4935 27.1269 24.6579 27.1084 24.882 27.1079C25.106 27.1079 25.2699 27.1269 25.3907 27.147C25.5892 27.1821 25.7696 27.3625 25.8047 27.5609C25.8247 27.6812 25.8433 27.8456 25.8438 28.0696C25.8438 28.2936 25.8247 28.4575 25.8047 28.5782ZM25.8438 25.5308C25.8438 26.0565 25.4173 26.483 24.8915 26.483C24.3657 26.483 23.9392 26.0565 23.9392 25.5308V23.0186C23.9392 22.4929 24.3657 22.0665 24.8915 22.0665C25.4173 22.0665 25.8438 22.4929 25.8438 23.0186V25.5308Z" fill="#00B2CA"/>
</g>
<defs>
<clipPath id="clip0_1081_1378">
<rect width="36" height="36" fill="white"/>
</clipPath>
</defs>
</svg>
