<svg width="36" height="36" viewBox="0 0 36 36" fill="none" xmlns="http://www.w3.org/2000/svg">
<g clip-path="url(#clip0_1068_1098)">
<path opacity="0.1" d="M26 0H10C4.47715 0 0 4.47715 0 10V26C0 31.5228 4.47715 36 10 36H26C31.5228 36 36 31.5228 36 26V10C36 4.47715 31.5228 0 26 0Z" fill="#00B2CA"/>
<path d="M14.0078 7.125H10.0078C8.48903 7.125 7.25781 8.35622 7.25781 9.875V13.875C7.25781 15.3938 8.48903 16.625 10.0078 16.625H14.0078C15.5266 16.625 16.7578 15.3938 16.7578 13.875V9.875C16.7578 8.35622 15.5266 7.125 14.0078 7.125Z" fill="#00B2CA"/>
<path d="M26.0449 7.125H22.0449C20.5261 7.125 19.2949 8.35622 19.2949 9.875V13.875C19.2949 15.3938 20.5261 16.625 22.0449 16.625H26.0449C27.5637 16.625 28.7949 15.3938 28.7949 13.875V9.875C28.7949 8.35622 27.5637 7.125 26.0449 7.125Z" fill="#00B2CA"/>
<path d="M14.0078 18.8828H10.0078C8.48903 18.8828 7.25781 20.114 7.25781 21.6328V25.6328C7.25781 27.1516 8.48903 28.3828 10.0078 28.3828H14.0078C15.5266 28.3828 16.7578 27.1516 16.7578 25.6328V21.6328C16.7578 20.114 15.5266 18.8828 14.0078 18.8828Z" fill="#00B2CA"/>
<path d="M28.8948 22.4175L25.3088 18.8315C24.9803 18.5041 24.5354 18.3203 24.0715 18.3203C23.6077 18.3203 23.1628 18.5041 22.8342 18.8315L19.2483 22.4175C18.9205 22.7458 18.7363 23.1908 18.7363 23.6548C18.7363 24.1188 18.9205 24.5638 19.2483 24.8921L22.8342 28.478C23.1626 28.8057 23.6076 28.9897 24.0715 28.9897C24.5355 28.9897 24.9804 28.8057 25.3088 28.478L28.8948 24.8921C29.2226 24.5638 29.4067 24.1188 29.4067 23.6548C29.4067 23.1908 29.2226 22.7458 28.8948 22.4175Z" fill="#00B2CA"/>
</g>
<defs>
<clipPath id="clip0_1068_1098">
<rect width="36" height="36" fill="white"/>
</clipPath>
</defs>
</svg>
