<svg width="36" height="36" viewBox="0 0 36 36" fill="none" xmlns="http://www.w3.org/2000/svg">
<g clip-path="url(#clip0_1068_1238)">
<path opacity="0.1" d="M26 0H10C4.47715 0 0 4.47715 0 10V26C0 31.5228 4.47715 36 10 36H26C31.5228 36 36 31.5228 36 26V10C36 4.47715 31.5228 0 26 0Z" fill="#00B2CA"/>
<path d="M14.7797 8.1125H14.1797V6.35469C14.1797 6.18594 14.3109 6.05469 14.4797 6.05469H21.5203C21.6891 6.05469 21.8203 6.19063 21.8203 6.35469V8.1125H21.2203V6.65469H14.7797V8.1125ZM26.2594 8.64219H9.74063C8.58281 8.64219 7.64531 9.58438 7.64531 10.7422V13.1609C7.64531 14.3188 8.58281 15.2563 9.74063 15.2563H11.5922C11.3625 13.0578 14.2734 13.0391 14.0438 15.2563H21.9562C21.9562 14.6984 21.9797 14.1969 22.4766 13.8453C23.1 13.4047 24.0516 13.6297 24.3141 14.3844C24.4031 14.6516 24.4078 14.9516 24.4078 15.2563H26.2641C27.4219 15.2563 28.3594 14.3188 28.3594 13.1609V10.7422C28.3547 9.58438 27.4172 8.64219 26.2594 8.64219ZM23.8734 16.2266V14.825C23.8781 14.4547 23.5547 14.1219 23.1797 14.1313C22.8047 14.1219 22.4859 14.45 22.4859 14.8203V16.2219C22.5141 17.1406 23.85 17.1406 23.8734 16.2266ZM13.5141 16.2266V14.825C13.5234 14.4547 13.1906 14.1219 12.8203 14.1313C12.4453 14.1219 12.1266 14.45 12.1266 14.8203V16.2219C12.15 17.1406 13.4859 17.1406 13.5141 16.2266ZM26.2594 15.7859H24.4031V16.2219C24.4031 16.8969 23.8547 17.4453 23.1797 17.4453C22.5047 17.4453 21.9562 16.8969 21.9562 16.2219V15.7813H14.0438V16.2172C14.0438 16.8922 13.4953 17.4406 12.8203 17.4406C12.1453 17.4406 11.5969 16.8922 11.5969 16.2172V15.7766H9.74063C8.88281 15.7766 8.12344 15.3641 7.64062 14.7266V21.05C7.64062 22.2078 8.58281 23.1453 9.73594 23.1453H11.55C11.9156 19.9109 14.9297 17.3703 18.1641 17.4875C21.2906 17.5531 24.0516 20.0328 24.4406 23.1453H26.2547C27.4125 23.1453 28.35 22.2078 28.35 21.05V14.7359C27.8766 15.3734 27.1172 15.7859 26.2594 15.7859ZM22.7109 20.3234C25.5375 23.9563 23.2969 29.3703 18.7172 29.9188C13.7578 30.5141 10.3031 25.0391 12.9422 20.8156C15.0938 17.3234 20.2125 17.0844 22.7109 20.3234ZM17.7375 19.4984C17.7422 19.8453 18.2578 19.8453 18.2672 19.4984V18.6688C18.2672 18.5188 18.15 18.4063 18.0047 18.4063C17.8594 18.4063 17.7422 18.5234 17.7422 18.6688V19.4984H17.7375ZM13.7766 23.9891C13.7766 23.8438 13.6594 23.7266 13.5141 23.7266H12.6844C12.5344 23.7266 12.4219 23.8438 12.4219 23.9891C12.4219 24.1344 12.5391 24.2516 12.6844 24.2516H13.5141C13.6594 24.2516 13.7766 24.1344 13.7766 23.9891ZM18.2625 28.4797C18.2625 28.1328 17.7328 28.1328 17.7328 28.4797V29.3094C17.7328 29.4594 17.85 29.5719 17.9953 29.5719C18.1406 29.5719 18.2578 29.4547 18.2578 29.3094V28.4797H18.2625ZM18.7125 23.9891C18.7219 23.5203 18.2344 23.1547 17.7938 23.3094L15.1219 19.9344C15.0281 19.8172 14.8641 19.7984 14.7469 19.8875C14.6344 19.9813 14.6156 20.1453 14.7047 20.2625L17.3813 23.6422C17.2547 23.8484 17.2594 24.1484 17.3906 24.35L15.8203 26.7828C15.7406 26.9047 15.7734 27.0688 15.8953 27.1484C16.0172 27.2281 16.1766 27.1953 16.2609 27.0734L17.8078 24.6734C18.2531 24.8047 18.7172 24.4531 18.7125 23.9891ZM23.3203 23.7266H22.4906C22.1437 23.7266 22.1437 24.2563 22.4906 24.2563H23.3203C23.6672 24.2516 23.6672 23.7266 23.3203 23.7266ZM18 23.8016C17.7609 23.8063 17.7563 24.1672 18 24.1672C18.2391 24.1719 18.2391 23.8063 18 23.8016Z" fill="#00B2CA"/>
</g>
<defs>
<clipPath id="clip0_1068_1238">
<rect width="36" height="36" fill="white"/>
</clipPath>
</defs>
</svg>
