<svg width="36" height="36" viewBox="0 0 36 36" fill="none" xmlns="http://www.w3.org/2000/svg">
<g clip-path="url(#clip0_1081_1326)">
<path opacity="0.1" d="M26 0H10C4.47715 0 0 4.47715 0 10V26C0 31.5228 4.47715 36 10 36H26C31.5228 36 36 31.5228 36 26V10C36 4.47715 31.5228 0 26 0Z" fill="#00B2CA"/>
<g clip-path="url(#clip1_1081_1326)">
<path d="M28.9195 14.7141L21.7229 10.5571C21.3092 10.3506 20.8064 10.5185 20.5999 10.9322C20.5419 11.0483 20.5117 11.1763 20.5117 11.3061V28.0503C20.5117 28.5126 20.8866 28.8875 21.3489 28.8875H26.9303C28.6252 28.8863 29.9989 27.5126 30.0001 25.8177V16.4611C30.0028 15.7203 29.5836 15.0426 28.9195 14.7141ZM25.814 25.5387H23.5815C23.1191 25.5387 22.7443 25.1639 22.7443 24.7015C22.7443 24.2391 23.1191 23.8643 23.5815 23.8643H25.814C26.2764 23.8643 26.6513 24.2391 26.6513 24.7015C26.6513 25.1639 26.2764 25.5387 25.814 25.5387ZM25.814 22.1899H23.5815C23.1191 22.1899 22.7443 21.815 22.7443 21.3526C22.7443 20.8903 23.1191 20.5154 23.5815 20.5154H25.814C26.2764 20.5154 26.6513 20.8903 26.6513 21.3526C26.6513 21.815 26.2764 22.1899 25.814 22.1899ZM25.814 18.841H23.5815C23.1191 18.841 22.7443 18.4662 22.7443 18.0038C22.7443 17.5414 23.1191 17.1666 23.5815 17.1666H25.814C26.2764 17.1666 26.6513 17.5414 26.6513 18.0038C26.6513 18.4662 26.2764 18.841 25.814 18.841Z" fill="#00B2CA"/>
<path d="M18 7.11719H7.95349C6.87514 7.11841 6.00123 7.99232 6 9.07068V26.9311C6.00123 28.0095 6.87514 28.8834 7.95349 28.8846H9.34884V24.1404C9.35006 23.3703 9.97408 22.7463 10.7442 22.7451H15.2093C15.9794 22.7463 16.6034 23.3703 16.6047 24.1404V28.8846H19.1163C19.5786 28.8846 19.9535 28.5098 19.9535 28.0474V9.07068C19.9523 7.99232 19.0783 7.11841 18 7.11719ZM11.3023 19.3963H10.186C9.72368 19.3963 9.34884 19.0214 9.34884 18.559C9.34884 18.0967 9.72368 17.7218 10.186 17.7218H11.3023C11.7647 17.7218 12.1395 18.0967 12.1395 18.559C12.1395 19.0214 11.7647 19.3963 11.3023 19.3963ZM11.3023 16.0474H10.186C9.72368 16.0474 9.34884 15.6726 9.34884 15.2102C9.34884 14.7478 9.72368 14.373 10.186 14.373H11.3023C11.7647 14.373 12.1395 14.7478 12.1395 15.2102C12.1395 15.6726 11.7647 16.0474 11.3023 16.0474ZM11.3023 12.6986H10.186C9.72368 12.6986 9.34884 12.3237 9.34884 11.8614C9.34884 11.399 9.72368 11.0242 10.186 11.0242H11.3023C11.7647 11.0242 12.1395 11.399 12.1395 11.8614C12.1395 12.3237 11.7647 12.6986 11.3023 12.6986ZM15.7674 19.3963H14.6512C14.1888 19.3963 13.814 19.0214 13.814 18.559C13.814 18.0967 14.1888 17.7218 14.6512 17.7218H15.7674C16.2298 17.7218 16.6047 18.0967 16.6047 18.559C16.6047 19.0214 16.2298 19.3963 15.7674 19.3963ZM15.7674 16.0474H14.6512C14.1888 16.0474 13.814 15.6726 13.814 15.2102C13.814 14.7478 14.1888 14.373 14.6512 14.373H15.7674C16.2298 14.373 16.6047 14.7478 16.6047 15.2102C16.6047 15.6726 16.2298 16.0474 15.7674 16.0474ZM15.7674 12.6986H14.6512C14.1888 12.6986 13.814 12.3237 13.814 11.8614C13.814 11.399 14.1888 11.0242 14.6512 11.0242H15.7674C16.2298 11.0242 16.6047 11.399 16.6047 11.8614C16.6047 12.3237 16.2298 12.6986 15.7674 12.6986Z" fill="#00B2CA"/>
<path d="M11.0234 24.4219H14.9304V28.887H11.0234V24.4219Z" fill="#00B2CA"/>
</g>
</g>
<defs>
<clipPath id="clip0_1081_1326">
<rect width="36" height="36" fill="white"/>
</clipPath>
<clipPath id="clip1_1081_1326">
<rect width="24" height="24" fill="white" transform="translate(6 6)"/>
</clipPath>
</defs>
</svg>
