<svg width="36" height="36" viewBox="0 0 36 36" fill="none" xmlns="http://www.w3.org/2000/svg">
<g clip-path="url(#clip0_1068_1217)">
<path opacity="0.1" d="M26 0H10C4.47715 0 0 4.47715 0 10V26C0 31.5228 4.47715 36 10 36H26C31.5228 36 36 31.5228 36 26V10C36 4.47715 31.5228 0 26 0Z" fill="#00B2CA"/>
<path d="M27.0029 9.97967L27.6718 10.0619C27.7846 10.0736 27.8974 10.0407 27.9861 9.97034C28.0747 9.9 28.1321 9.7978 28.146 9.68572C28.1598 9.57365 28.1289 9.46064 28.06 9.37099C27.9911 9.28134 27.8896 9.22222 27.7774 9.20632L26.1216 9.00285C26.0079 8.98982 25.8936 9.02186 25.8034 9.09206C25.7132 9.16226 25.6544 9.26498 25.6396 9.37804L25.4356 11.0278C25.4238 11.1401 25.4568 11.2525 25.5274 11.3408C25.5979 11.4291 25.7005 11.4863 25.8129 11.5001C25.9254 11.5138 26.0388 11.4831 26.1287 11.4145C26.2187 11.3458 26.278 11.2448 26.2939 11.133L26.3646 10.5619C32.6382 17.7206 27.4012 29.1197 17.8506 29.0832C15.6532 29.085 13.5037 28.4436 11.6691 27.2386C11.5733 27.1762 11.4566 27.1542 11.3445 27.1774C11.2325 27.2006 11.1342 27.267 11.0713 27.3623C11.0083 27.4575 10.9858 27.5737 11.0087 27.6854C11.0316 27.7971 11.0981 27.8953 11.1934 27.9583C22.981 35.4686 35.9993 20.6207 27.0029 9.97967Z" fill="#00B2CA"/>
<path d="M10.0836 24.546C10.0267 24.5403 9.96929 24.5461 9.9147 24.563C9.86011 24.5799 9.80945 24.6076 9.76572 24.6444C9.72199 24.6813 9.68608 24.7265 9.66012 24.7775C9.63415 24.8285 9.61865 24.8842 9.61454 24.9413L9.5675 25.4877C1.29505 15.5065 13.4143 1.72177 24.3341 8.7279C24.4302 8.78893 24.5463 8.8097 24.6576 8.78573C24.7688 8.76175 24.8661 8.69496 24.9286 8.59974C24.9912 8.50453 25.0138 8.38851 24.9918 8.27671C24.9697 8.1649 24.9047 8.06626 24.8107 8.00205C22.8307 6.69415 20.5107 5.998 18.1391 6.0001C7.90429 5.96022 2.2284 18.1805 8.84521 25.9781L8.23064 25.8918C8.11769 25.8777 8.00374 25.9087 7.91339 25.978C7.82305 26.0474 7.76356 26.1496 7.74778 26.2625C7.732 26.3755 7.76119 26.4901 7.82905 26.5816C7.8969 26.6732 7.99798 26.7343 8.11046 26.7519L9.84944 26.9962C9.90767 27.0039 9.96687 26.9999 10.0235 26.9842C10.0801 26.9685 10.133 26.9415 10.1789 26.9048C10.2249 26.8681 10.2629 26.8225 10.2908 26.7707C10.3188 26.7189 10.336 26.662 10.3414 26.6034L10.4781 25.016C10.483 24.9592 10.4767 24.902 10.4595 24.8476C10.4424 24.7932 10.4147 24.7428 10.378 24.6991C10.3414 24.6555 10.2965 24.6195 10.246 24.5932C10.1955 24.567 10.1403 24.5509 10.0836 24.546Z" fill="#00B2CA"/>
<path d="M11 18V23.3105C11.0007 23.5263 11.0961 23.7331 11.2653 23.8857C11.4346 24.0383 11.6639 24.1244 11.9032 24.125H24.0968C24.3361 24.1244 24.5655 24.0383 24.7347 23.8857C24.9039 23.7331 24.9993 23.5263 25 23.3105V18H21.36C21.355 18.3446 21.4585 18.8536 20.9084 18.8756C20.7887 18.8752 20.6741 18.8322 20.5895 18.7559C20.5048 18.6796 20.4572 18.5762 20.4568 18.4683V18H15.5433V18.4683C15.5433 18.5218 15.5316 18.5748 15.5089 18.6242C15.4862 18.6736 15.4529 18.7185 15.411 18.7563C15.369 18.7941 15.3193 18.8241 15.2645 18.8446C15.2097 18.865 15.151 18.8756 15.0917 18.8756C15.0323 18.8756 14.9736 18.865 14.9188 18.8446C14.864 18.8241 14.8143 18.7941 14.7723 18.7563C14.7304 18.7185 14.6971 18.6736 14.6744 18.6242C14.6517 18.5748 14.64 18.5218 14.64 18.4683V18H11Z" fill="#00B2CA"/>
<path d="M25 15.1485C24.9993 14.9131 24.9039 14.6875 24.7347 14.5211C24.5655 14.3547 24.3361 14.2608 24.0968 14.2601H21.4864V13.2075C21.4862 12.8542 21.3433 12.5154 21.0893 12.2656C20.8353 12.0157 20.4908 11.8753 20.1316 11.875H15.8684C15.5092 11.8753 15.1647 12.0157 14.9107 12.2656C14.6567 12.5154 14.5138 12.8542 14.5136 13.2075V14.2601H11.9032C11.6639 14.2608 11.4346 14.3546 11.2653 14.5211C11.0961 14.6875 11.0007 14.9131 11 15.1485V17.125H25V15.1485ZM20.5832 14.2601H15.4168V13.2075C15.4166 13.1491 15.4281 13.0912 15.4508 13.0373C15.4734 12.9833 15.5066 12.9342 15.5486 12.8929C15.5906 12.8517 15.6405 12.8189 15.6953 12.7967C15.7502 12.7744 15.8091 12.7631 15.8684 12.7633H20.1316C20.191 12.7631 20.2498 12.7745 20.3047 12.7967C20.3596 12.819 20.4094 12.8517 20.4514 12.893C20.4934 12.9342 20.5267 12.9833 20.5493 13.0373C20.5719 13.0912 20.5834 13.1491 20.5832 13.2075V14.2601Z" fill="#00B2CA"/>
</g>
<defs>
<clipPath id="clip0_1068_1217">
<rect width="36" height="36" fill="white"/>
</clipPath>
</defs>
</svg>
