<svg width="36" height="36" viewBox="0 0 36 36" fill="none" xmlns="http://www.w3.org/2000/svg">
<g clip-path="url(#clip0_1068_1252)">
<path opacity="0.1" d="M26 0H10C4.47715 0 0 4.47715 0 10V26C0 31.5228 4.47715 36 10 36H26C31.5228 36 36 31.5228 36 26V10C36 4.47715 31.5228 0 26 0Z" fill="#00B2CA"/>
<path d="M29.134 15.3973C29.6074 15.3973 29.9911 15.0136 29.9911 14.5402V8.54017C29.9911 8.06678 29.6074 7.68302 29.134 7.68302H27.8482V7.25444C27.8483 6.54437 27.2727 5.96875 26.5625 5.96875H23.9911C23.2811 5.96875 22.7054 6.54438 22.7054 7.25448V7.68306H21.4197C20.9463 7.68306 20.5625 8.06683 20.5625 8.54022V13.1576C21.3157 13.7456 21.9059 14.5167 22.2768 15.3974L29.134 15.3973ZM23.5625 7.25448C23.5625 7.01781 23.7544 6.82591 23.9911 6.82591H26.5625C26.7992 6.82591 26.9911 7.01777 26.9911 7.25448V7.68306H23.5625V7.25448ZM25.2769 8.54017C26.9337 8.54017 28.2769 9.88333 28.2769 11.5402C28.2769 13.197 26.9337 14.5402 25.2769 14.5402C23.62 14.5402 22.2769 13.197 22.2769 11.5402C22.2787 9.88413 23.6208 8.54205 25.2769 8.54017Z" fill="#00B2CA"/>
<path d="M15.1206 21.7986C15.2486 21.814 15.3774 21.8222 15.5064 21.823H17.7482C18.061 21.8238 18.3709 21.8819 18.6628 21.9944C20.7962 21.2635 22.1131 19.1239 21.8047 16.8899C21.4963 14.656 19.6489 12.9533 17.3973 12.8277C15.1456 12.7021 13.1203 14.1888 12.5654 16.3746C12.0105 18.5605 13.0814 20.8332 15.1203 21.7969L15.1206 21.7986ZM17.1349 17.9659C16.2727 17.9669 15.5444 17.3262 15.4356 16.471C15.3267 15.6157 15.8713 14.813 16.7063 14.5981V14.5373C16.7063 14.3006 16.8982 14.1087 17.1349 14.1087C17.3716 14.1087 17.5635 14.3006 17.5635 14.5373V14.5981C18.3181 14.7929 18.8463 15.4722 18.8492 16.2515C18.8492 16.4882 18.6573 16.6801 18.4206 16.6801C18.184 16.6801 17.992 16.4883 17.992 16.2515C17.992 15.7782 17.6083 15.3944 17.1349 15.3944C16.6615 15.3944 16.2777 15.7782 16.2777 16.2515C16.2777 16.7249 16.6615 17.1087 17.1349 17.1087C17.9971 17.1076 18.7254 17.7483 18.8342 18.6036C18.943 19.4589 18.3985 20.2615 17.5635 20.4764V20.5373C17.5635 20.774 17.3716 20.9659 17.1349 20.9659C16.8982 20.9659 16.7063 20.774 16.7063 20.5373V20.4764C15.9517 20.2816 15.4235 19.6023 15.4206 18.823C15.4206 18.5863 15.6124 18.3944 15.8492 18.3944C16.0859 18.3944 16.2777 18.5863 16.2777 18.823C16.2777 19.2964 16.6615 19.6802 17.1349 19.6802C17.6083 19.6802 17.992 19.2964 17.992 18.823C17.992 18.3496 17.6083 17.9659 17.1349 17.9659Z" fill="#00B2CA"/>
<path d="M25.2776 13.6919C26.4611 13.6919 27.4205 12.7325 27.4205 11.5491C27.4205 10.3656 26.4611 9.40625 25.2776 9.40625C24.0942 9.40625 23.1348 10.3656 23.1348 11.5491C23.1362 12.732 24.0947 13.6905 25.2776 13.6919ZM24.4205 11.1205H24.849V10.6919C24.849 10.4553 25.0409 10.2634 25.2776 10.2634C25.5143 10.2634 25.7062 10.4552 25.7062 10.6919V11.1205H26.1348C26.3714 11.1205 26.5633 11.3124 26.5633 11.5491C26.5633 11.7858 26.3714 11.9777 26.1347 11.9777H25.7061V12.4063C25.7061 12.6429 25.5143 12.8348 25.2776 12.8348C25.0408 12.8348 24.849 12.643 24.849 12.4063V11.9777H24.4204C24.1837 11.9777 23.9918 11.7858 23.9918 11.5491C23.9918 11.3124 24.1837 11.1205 24.4205 11.1205Z" fill="#00B2CA"/>
<path d="M6.41881 20.1172H8.56166C8.79833 20.1172 8.99023 20.309 8.99023 20.5458V29.5458C8.99023 29.7824 8.79837 29.9743 8.56166 29.9743H6.41881C6.18209 29.9743 5.99023 29.7825 5.99023 29.5458V20.5458C5.99023 20.3091 6.18209 20.1172 6.41881 20.1172Z" fill="#00B2CA"/>
<path d="M29.8191 23.1782C29.622 22.9395 29.2988 22.8462 29.0048 22.943L21.0762 25.5868C20.8568 25.6613 20.6266 25.6991 20.3948 25.6986H16.5852C15.9083 25.699 15.2464 25.8992 14.6828 26.2742L14.3725 26.4834C14.1759 26.6155 13.9093 26.5631 13.7773 26.3664C13.6452 26.1697 13.6976 25.9032 13.8943 25.7711L14.2075 25.5611C14.9119 25.0923 15.7391 24.842 16.5853 24.8415H19.0795C19.3794 24.4699 19.4333 23.9568 19.2171 23.531C18.9063 23.0158 18.3492 22.7002 17.7475 22.6987H15.5048C14.5194 22.6975 13.5635 22.3622 12.7932 21.7477C12.1757 21.2547 11.4092 20.9856 10.6191 20.9844H9.84766V29.5558H20.2619C20.7334 29.556 21.1959 29.4264 21.5987 29.1812L29.6301 24.2912C29.8104 24.183 29.9362 24.0034 29.9763 23.797C30.0165 23.5906 29.9671 23.3769 29.8405 23.2091C29.8337 23.1988 29.8263 23.189 29.8191 23.1782Z" fill="#00B2CA"/>
<path d="M11.836 15.3539C11.884 15.3753 11.936 15.3863 11.9886 15.386C12.5439 14.0649 13.5842 13.0067 14.8956 12.4289C15.2558 11.4647 15.4327 10.4417 15.4172 9.41259V7.46601C15.4158 7.24036 15.2411 7.05375 15.016 7.03744C14.0269 6.99131 13.0674 6.68531 12.2342 6.15028C12.0815 6.04242 11.8771 6.04378 11.7259 6.1537C10.8987 6.68883 9.94339 6.9929 8.95906 7.03444C8.7335 7.05014 8.55809 7.23689 8.55664 7.46301L8.56006 9.41259C8.56002 11.4637 9.12833 14.1594 11.836 15.3539ZM9.97133 10.7973C10.1387 10.63 10.41 10.63 10.5773 10.7973L11.0852 11.3051L13.36 8.2717C13.4519 8.14922 13.6021 8.08505 13.7541 8.10333C13.9062 8.12165 14.0368 8.21967 14.097 8.36048C14.1571 8.5013 14.1376 8.66348 14.0457 8.78597L11.4743 12.2145C11.3999 12.3143 11.2859 12.3769 11.1619 12.386H11.1314C11.0178 12.3859 10.9088 12.3408 10.8284 12.2604L9.97128 11.4032C9.80398 11.2359 9.80398 10.9647 9.97133 10.7973Z" fill="#00B2CA"/>
</g>
<defs>
<clipPath id="clip0_1068_1252">
<rect width="36" height="36" fill="white"/>
</clipPath>
</defs>
</svg>
