<svg width="36" height="36" viewBox="0 0 36 36" fill="none" xmlns="http://www.w3.org/2000/svg">
<g clip-path="url(#clip0_1068_1196)">
<path opacity="0.1" d="M26 0H10C4.47715 0 0 4.47715 0 10V26C0 31.5228 4.47715 36 10 36H26C31.5228 36 36 31.5228 36 26V10C36 4.47715 31.5228 0 26 0Z" fill="#00B2CA"/>
<path d="M22.4102 24.7423H23.7669L23.0916 22.9531L22.4102 24.7423Z" fill="#00B2CA"/>
<path d="M28.7093 17.1016H23.1078V17.2188C23.1078 18.705 21.8987 19.9141 20.4124 19.9141H16.1703V26.6825L14.0609 28.7919C13.6179 29.2348 13.9316 29.9922 14.558 29.9922H28.7093C29.4213 29.9922 29.9984 29.4151 29.9984 28.7032V18.3907C29.9984 17.6787 29.4213 17.1016 28.7093 17.1016ZM25.5531 27.486C25.4714 27.5168 25.3875 27.5314 25.305 27.5314C25.0208 27.5314 24.7533 27.358 24.647 27.0764L24.2974 26.15H21.8744L21.5208 27.0784C21.3827 27.4412 20.9766 27.6236 20.6135 27.4852C20.2506 27.347 20.0685 26.9408 20.2067 26.5779L22.3189 21.0321C22.3209 21.0268 22.323 21.0214 22.3252 21.0161C22.4533 20.7029 22.7548 20.5003 23.0933 20.5H23.0941C23.4321 20.5 23.7336 20.702 23.8622 21.0147C23.8648 21.021 23.8673 21.0274 23.8698 21.0338L25.9627 26.5798C26.0998 26.9432 25.9164 27.3489 25.5531 27.486Z" fill="#00B2CA"/>
<path d="M14.9611 11.3281H12.7441C12.8906 12.1469 13.2869 12.8802 13.8526 13.4444C14.4183 12.8802 14.8146 12.1469 14.9611 11.3281Z" fill="#00B2CA"/>
<path d="M20.4141 18.5156C21.126 18.5156 21.7031 17.9385 21.7031 17.2266V7.28906C21.7031 6.57713 21.126 6 20.4141 6H7.28906C6.57713 6 6 6.57713 6 7.28906V20.6706C6 21.2746 6.71152 21.5975 7.16616 21.1997L10.2337 18.5156H20.4141ZM11.3195 11.3203H11.0391C10.6507 11.3203 10.3359 11.0055 10.3359 10.6172C10.3359 10.2289 10.6507 9.91406 11.0391 9.91406H13.1484V9.21094C13.1484 8.82262 13.4632 8.50781 13.8516 8.50781C14.2399 8.50781 14.5547 8.82262 14.5547 9.21094V9.91406H16.6641C17.0524 9.91406 17.3672 10.2289 17.3672 10.6172C17.3672 11.0055 17.0524 11.3203 16.6641 11.3203H16.3837C16.2373 12.439 15.7468 13.4511 15.0219 14.246C15.5231 14.4736 16.0787 14.6016 16.6641 14.6016C17.0524 14.6016 17.3672 14.9164 17.3672 15.3047C17.3672 15.693 17.0524 16.0078 16.6641 16.0078C15.6341 16.0078 14.6709 15.7173 13.8516 15.2142C13.0322 15.7173 12.069 16.0078 11.0391 16.0078C10.6507 16.0078 10.3359 15.693 10.3359 15.3047C10.3359 14.9164 10.6507 14.6016 11.0391 14.6016C11.6244 14.6016 12.1801 14.4736 12.6812 14.246C11.9563 13.4511 11.4659 12.439 11.3195 11.3203Z" fill="#00B2CA"/>
<path d="M11.4375 25.7422H9.32812V23.6328C9.32812 23.2445 9.01331 22.9297 8.625 22.9297C8.23669 22.9297 7.92188 23.2445 7.92188 23.6328V26.4453C7.92188 26.8336 8.23669 27.1484 8.625 27.1484H11.4375C11.8258 27.1484 12.1406 26.8336 12.1406 26.4453C12.1406 26.057 11.8258 25.7422 11.4375 25.7422Z" fill="#00B2CA"/>
<path d="M24.5625 10.2656H26.6719V12.375C26.6719 12.7633 26.9867 13.0781 27.375 13.0781C27.7633 13.0781 28.0781 12.7633 28.0781 12.375V9.5625C28.0781 9.17419 27.7633 8.85938 27.375 8.85938H24.5625C24.1742 8.85938 23.8594 9.17419 23.8594 9.5625C23.8594 9.95081 24.1742 10.2656 24.5625 10.2656Z" fill="#00B2CA"/>
</g>
<defs>
<clipPath id="clip0_1068_1196">
<rect width="36" height="36" fill="white"/>
</clipPath>
</defs>
</svg>
