<svg width="36" height="36" viewBox="0 0 36 36" fill="none" xmlns="http://www.w3.org/2000/svg">
<g clip-path="url(#clip0_1068_1203)">
<path opacity="0.1" d="M26 0H10C4.47715 0 0 4.47715 0 10V26C0 31.5228 4.47715 36 10 36H26C31.5228 36 36 31.5228 36 26V10C36 4.47715 31.5228 0 26 0Z" fill="#00B2CA"/>
<path d="M30.002 11.5106C30.003 10.5326 29.423 9.68763 28.523 9.35763L20.621 6.45763C18.964 5.85063 17.141 5.84663 15.485 6.45063L7.486 9.36063C6.584 9.68963 6.001 10.5346 6.002 11.5126C6.002 12.4916 6.586 13.3356 7.488 13.6626L15.442 16.5486C16.265 16.8476 17.13 16.9966 17.994 16.9966C18.858 16.9966 19.722 16.8476 20.544 16.5486L28 13.8436V17.9976C28 18.5496 28.448 18.9976 29 18.9976C29.552 18.9976 30 18.5496 30 17.9976C30 17.9976 30.002 11.5156 30.002 11.5106ZM8.203 22.0396C10.29 22.5626 14.255 23.6916 17 23.9436V28.0536C14.255 28.3056 10.289 29.4356 8.203 29.9576C7.082 30.2386 6 29.3866 6 28.2306V23.7666C6 22.6106 7.082 21.7586 8.203 22.0396ZM30 23.7666V28.2306C30 29.3866 28.918 30.2386 27.797 29.9576C25.71 29.4346 21.745 28.3056 19 28.0536V23.9436C21.745 23.6916 25.711 22.5616 27.797 22.0396C28.918 21.7586 30 22.6106 30 23.7666ZM11 20.6956V17.0646L14.759 18.4286C16.833 19.1816 19.148 19.1826 21.226 18.4286L24.999 17.0596V20.6946C23.045 21.1956 20.499 22.0266 17.999 22.0266C15.499 22.0266 12.953 21.1956 10.999 20.6946L11 20.6956Z" fill="#00B2CA"/>
</g>
<defs>
<clipPath id="clip0_1068_1203">
<rect width="36" height="36" fill="white"/>
</clipPath>
</defs>
</svg>
