<svg width="36" height="36" viewBox="0 0 36 36" fill="none" xmlns="http://www.w3.org/2000/svg">
<g clip-path="url(#clip0_1069_1279)">
<path opacity="0.1" d="M26 0H10C4.47715 0 0 4.47715 0 10V26C0 31.5228 4.47715 36 10 36H26C31.5228 36 36 31.5228 36 26V10C36 4.47715 31.5228 0 26 0Z" fill="#00B2CA"/>
<path fill-rule="evenodd" clip-rule="evenodd" d="M19.8281 15H16.2188C16.0781 15 15.9844 14.9531 15.8906 14.8594C15.8438 14.7656 15.8438 14.625 15.8906 14.5312L17.7188 10.875C17.7656 10.7812 17.8594 10.6875 18 10.6875C18.1406 10.6875 18.2812 10.7812 18.3281 10.875L20.1562 14.5312C20.2031 14.625 20.2031 14.7656 20.1562 14.8594C20.1094 14.9531 19.9688 15 19.8281 15Z" fill="#00B2CA"/>
<path fill-rule="evenodd" clip-rule="evenodd" d="M21.75 18.7969H14.2969C14.2031 18.7969 14.0625 18.75 14.0156 18.6562C13.9688 18.5156 13.9688 18.4219 14.0156 18.2812L15.2812 15.75C15.3281 15.6562 15.4219 15.5625 15.5625 15.5625H20.4375C20.5781 15.5625 20.7188 15.6562 20.7656 15.75L22.0312 18.2812C22.0781 18.4219 22.0781 18.5156 22.0312 18.6562C21.9375 18.7031 21.8438 18.7969 21.75 18.7969Z" fill="#00B2CA"/>
<path fill-rule="evenodd" clip-rule="evenodd" d="M23.625 22.5469H12.4219C12.3281 22.5469 12.1875 22.5 12.1406 22.4062C12.0937 22.2656 12.0937 22.1719 12.1406 22.0312L13.4063 19.5C13.4531 19.4062 13.5469 19.3125 13.6875 19.3125H22.3594C22.5 19.3125 22.5938 19.4062 22.6875 19.5L23.9531 22.0312C24 22.1719 23.9531 22.2656 23.9063 22.4062C23.8594 22.5 23.7188 22.5469 23.625 22.5469Z" fill="#00B2CA"/>
<path fill-rule="evenodd" clip-rule="evenodd" d="M10.125 26.0625L11.5312 23.2969C11.5781 23.2031 11.6719 23.1094 11.8125 23.1094H24.2344C24.375 23.1094 24.5156 23.2031 24.5625 23.2969L25.9688 26.0625H10.125Z" fill="#00B2CA"/>
<path fill-rule="evenodd" clip-rule="evenodd" d="M11.3433 19.4531H8.76516C8.53079 19.4531 8.39017 19.3125 8.39017 19.125V12.375H7.45267C7.31204 12.375 7.21829 12.2812 7.12454 12.1875C7.07767 12.0938 7.07767 11.9531 7.17142 11.8594L9.79641 7.875C9.84329 7.78125 9.93704 7.73438 10.0777 7.73438C10.1714 7.73438 10.2652 7.78125 10.3589 7.875L12.9839 11.8594C13.0777 11.9531 13.0777 12.0938 12.9839 12.1875C12.937 12.3281 12.8433 12.375 12.7027 12.375H11.7183V19.125C11.7183 19.3125 11.5777 19.4531 11.3433 19.4531Z" fill="#00B2CA"/>
<path fill-rule="evenodd" clip-rule="evenodd" d="M24.7426 7.73438L27.3676 7.73438C27.5551 7.73438 27.6958 7.875 27.6958 8.0625L27.6958 14.8125L28.6333 14.8125C28.7739 14.8125 28.8676 14.9063 28.9614 15C29.0083 15.0937 29.0083 15.2344 28.9145 15.3281L26.2895 19.3125C26.2426 19.4063 26.1489 19.4531 26.0083 19.4531C25.9145 19.4531 25.8208 19.4063 25.727 19.3125L23.102 15.3281C23.0083 15.2344 23.0083 15.0938 23.102 15C23.1489 14.8594 23.2426 14.8125 23.3833 14.8125L24.3208 14.8125L24.3208 8.0625C24.4145 7.875 24.5551 7.73438 24.7426 7.73438Z" fill="#00B2CA"/>
<path fill-rule="evenodd" clip-rule="evenodd" d="M18 8.76562C17.8125 8.76562 17.6719 8.625 17.6719 8.4375V6.84375C17.6719 6.65625 17.8125 6.51562 18 6.51562C18.2344 6.51562 18.375 6.65625 18.375 6.84375V8.4375C18.3281 8.625 18.1875 8.76562 18 8.76562Z" fill="#00B2CA"/>
<path fill-rule="evenodd" clip-rule="evenodd" d="M19.3125 9.09565C19.2656 9.09565 19.2188 9.09565 19.1719 9.04877C18.9844 8.95502 18.9375 8.76752 19.0312 8.58002L19.8281 7.22065C19.9219 7.08002 20.1094 7.03315 20.2969 7.1269C20.4375 7.22065 20.4844 7.40815 20.3906 7.59565L19.6406 8.95502C19.5469 9.04877 19.4531 9.09565 19.3125 9.09565Z" fill="#00B2CA"/>
<path fill-rule="evenodd" clip-rule="evenodd" d="M20.2975 10.0781C20.1569 10.0781 20.0631 9.98438 19.9694 9.89062C19.8756 9.75 19.9694 9.51562 20.11 9.42188L21.4694 8.625C21.61 8.53125 21.8444 8.57812 21.9381 8.76562C22.0319 8.90625 21.985 9.14062 21.8444 9.23438L20.4381 9.98438C20.3913 10.0781 20.3444 10.0781 20.2975 10.0781Z" fill="#00B2CA"/>
<path fill-rule="evenodd" clip-rule="evenodd" d="M22.2188 11.3906H20.625C20.4375 11.3906 20.25 11.2031 20.25 11.0156C20.25 10.8281 20.4375 10.6875 20.625 10.6875H22.2188C22.4062 10.6875 22.5469 10.8281 22.5469 11.0156C22.5469 11.2031 22.4062 11.3906 22.2188 11.3906Z" fill="#00B2CA"/>
<path fill-rule="evenodd" clip-rule="evenodd" d="M15.4219 11.3906H13.8281C13.6406 11.3906 13.4531 11.2031 13.4531 11.0156C13.4531 10.8281 13.6406 10.6875 13.8281 10.6875H15.4219C15.6094 10.6875 15.75 10.8281 15.75 11.0156C15.75 11.2031 15.6094 11.3906 15.4219 11.3906Z" fill="#00B2CA"/>
<path fill-rule="evenodd" clip-rule="evenodd" d="M15.75 10.0801C15.7031 10.0801 15.6562 10.0332 15.5625 10.0332L14.2031 9.23633C14.0156 9.14258 13.9688 8.95508 14.0625 8.76758C14.1562 8.62695 14.3438 8.58008 14.5312 8.62695L15.8906 9.42383C16.0781 9.51758 16.125 9.70508 16.0312 9.89258C15.9844 9.98633 15.8906 10.0801 15.75 10.0801Z" fill="#00B2CA"/>
<path fill-rule="evenodd" clip-rule="evenodd" d="M16.6868 9.09375C16.593 9.09375 16.4524 9.04688 16.4055 8.90625L15.6555 7.54688C15.5149 7.40625 15.6086 7.17188 15.7493 7.07812C15.8899 6.98438 16.1243 7.03125 16.218 7.21875L17.0149 8.57812C17.1086 8.71875 17.0618 8.95312 16.8743 9.04688C16.8274 9.09375 16.7805 9.09375 16.6868 9.09375Z" fill="#00B2CA"/>
<path fill-rule="evenodd" clip-rule="evenodd" d="M29.6719 29.4844H6.32812C6.14062 29.4844 6 29.3438 6 29.1562V27.7969C6 27.1875 6.46875 26.7188 7.03125 26.7188H28.9688C29.5312 26.7188 30 27.1875 30 27.7969V29.1562C30.0469 29.3438 29.8594 29.4844 29.6719 29.4844Z" fill="#00B2CA"/>
</g>
<defs>
<clipPath id="clip0_1069_1279">
<rect width="36" height="36" fill="white"/>
</clipPath>
</defs>
</svg>
