<svg width="36" height="36" viewBox="0 0 36 36" fill="none" xmlns="http://www.w3.org/2000/svg">
<g clip-path="url(#clip0_1068_1249)">
<path opacity="0.1" d="M26 0H10C4.47715 0 0 4.47715 0 10V26C0 31.5228 4.47715 36 10 36H26C31.5228 36 36 31.5228 36 26V10C36 4.47715 31.5228 0 26 0Z" fill="#00B2CA"/>
<path d="M18.0011 12.1273C18.8739 12.1273 19.5648 11.4364 19.5648 10.5636C19.5648 9.69091 18.8739 9 18.0011 9C17.1284 9 16.4375 9.69091 16.4375 10.5636C16.4375 11.4364 17.1284 12.1273 18.0011 12.1273Z" fill="#00B2CA"/>
<path d="M21.0969 17.9494C21.2787 17.1494 21.606 15.7676 21.2787 15.404C20.7696 14.8585 19.4969 14.5312 18.006 14.5312C16.5514 14.5312 15.2787 14.8949 14.7332 15.404C14.406 15.7676 14.7332 17.1858 14.9151 17.9494H21.0969Z" fill="#00B2CA"/>
<path d="M22.1133 25.6879V29.4334L26.7315 24.8516H22.9496C22.5133 24.8516 22.1133 25.2152 22.1133 25.6879Z" fill="#00B2CA"/>
<path d="M21.3866 25.6528C21.3866 24.7801 22.0775 24.0892 22.9502 24.0892H26.9139V7.3983C26.9139 6.81648 26.4412 6.34375 25.8593 6.34375H10.1502C9.56843 6.34375 9.0957 6.81648 9.0957 7.3983V28.5256C9.0957 29.1074 9.56843 29.5801 10.1502 29.5801H21.3866V25.6528ZM18.0048 8.27102C19.2775 8.27102 20.2957 9.2892 20.2957 10.5619C20.2957 11.8347 19.2775 12.8528 18.0048 12.8528C16.7321 12.8528 15.7139 11.8347 15.7139 10.5619C15.7139 9.2892 16.7321 8.27102 18.0048 8.27102ZM14.223 14.8892C14.8775 14.1983 16.2957 13.7983 18.0048 13.7619C19.7139 13.7619 21.1321 14.1619 21.7866 14.8892C22.3684 15.5074 22.1139 16.8165 21.7502 18.2347L21.7139 18.3801C21.6775 18.5256 21.5321 18.671 21.3502 18.671H14.623C14.4412 18.671 14.2957 18.5619 14.2593 18.3801L14.223 18.2347C13.9684 17.1074 13.5684 15.5801 14.223 14.8892ZM11.8593 20.1983H24.1866C24.4048 20.1983 24.5502 20.3437 24.5502 20.5619C24.5502 20.7801 24.4048 20.9256 24.1866 20.9256H11.8593C11.6412 20.9256 11.4957 20.7801 11.4957 20.5619C11.4957 20.3437 11.6412 20.1983 11.8593 20.1983ZM11.8593 22.4528H24.1866C24.4048 22.4528 24.5502 22.5983 24.5502 22.8165C24.5502 23.0347 24.4048 23.1801 24.1866 23.1801H11.8593C11.6412 23.1801 11.4957 23.0347 11.4957 22.8165C11.4957 22.5983 11.6412 22.4528 11.8593 22.4528ZM11.8593 24.7074H19.023C19.2412 24.7074 19.3866 24.8528 19.3866 25.071C19.3866 25.2892 19.2412 25.4347 19.023 25.4347H11.8593C11.6412 25.4347 11.4957 25.2892 11.4957 25.071C11.4957 24.8528 11.6412 24.7074 11.8593 24.7074ZM19.023 27.6892H11.8593C11.6412 27.6892 11.4957 27.5438 11.4957 27.3256C11.4957 27.1074 11.6412 26.9619 11.8593 26.9619H19.023C19.2412 26.9619 19.3866 27.1074 19.3866 27.3256C19.3866 27.5074 19.2412 27.6892 19.023 27.6892Z" fill="#00B2CA"/>
</g>
<defs>
<clipPath id="clip0_1068_1249">
<rect width="36" height="36" fill="white"/>
</clipPath>
</defs>
</svg>
