<svg width="36" height="36" viewBox="0 0 36 36" fill="none" xmlns="http://www.w3.org/2000/svg">
<g clip-path="url(#clip0_1068_1210)">
<path opacity="0.1" d="M26 0H10C4.47715 0 0 4.47715 0 10V26C0 31.5228 4.47715 36 10 36H26C31.5228 36 36 31.5228 36 26V10C36 4.47715 31.5228 0 26 0Z" fill="#00B2CA"/>
<path d="M27.2467 12.25H8.6873C8.36431 12.2506 8.05474 12.3792 7.82635 12.6076C7.59796 12.836 7.46938 13.1456 7.46875 13.4685V17.0042C7.46858 17.0535 7.47816 17.1023 7.49694 17.1479C7.51572 17.1935 7.54334 17.2349 7.57819 17.2697C7.61304 17.3046 7.65444 17.3322 7.7 17.3509C7.74557 17.3697 7.7944 17.3793 7.84369 17.3791H28.0903C28.1396 17.3793 28.1884 17.3697 28.234 17.3509C28.2796 17.3322 28.321 17.3046 28.3558 17.2697C28.3907 17.2349 28.4183 17.1935 28.4371 17.1479C28.4558 17.1023 28.4654 17.0535 28.4652 17.0042V13.4685C28.4646 13.1456 28.336 12.836 28.1077 12.6076C27.8793 12.3792 27.5697 12.2506 27.2467 12.25ZM19.4667 15.1895H16.4673C16.3688 15.188 16.2748 15.1479 16.2057 15.0777C16.1366 15.0076 16.0978 14.913 16.0978 14.8146C16.0979 14.7161 16.1366 14.6215 16.2057 14.5514C16.2748 14.4812 16.3688 14.4411 16.4673 14.4396H19.4667C19.5652 14.4411 19.6592 14.4812 19.7283 14.5514C19.7974 14.6216 19.8362 14.7161 19.8362 14.8146C19.8362 14.9131 19.7974 15.0076 19.7283 15.0777C19.6592 15.1479 19.5652 15.188 19.4667 15.1895Z" fill="#00B2CA"/>
<path d="M15.0192 10.7184H20.9732V11.5132H23.2228V10.5309C23.2218 9.98428 23.0043 9.46032 22.6177 9.0738C22.2312 8.68728 21.7073 8.46971 21.1606 8.46875H14.8317C14.2851 8.46971 13.7611 8.68728 13.3746 9.0738C12.9881 9.46032 12.7705 9.98428 12.7695 10.5309V11.5132H15.0192V10.7184Z" fill="#00B2CA"/>
<path d="M13.1387 18.1328H13.8887V19.0741H13.1387V18.1328Z" fill="#00B2CA"/>
<path d="M22.1113 18.125H22.8613V19.0663H22.1113V18.125Z" fill="#00B2CA"/>
<path d="M26.7562 24.442L25.7551 24.4307L25.4514 23.4934C25.4007 23.3385 25.3023 23.2036 25.1703 23.108C25.0383 23.0124 24.8795 22.9609 24.7166 22.9609C24.5536 22.9609 24.3948 23.0124 24.2628 23.108C24.1308 23.2036 24.0324 23.3385 23.9817 23.4934L23.6592 24.4419H22.6769C22.5139 24.4415 22.3549 24.4928 22.2229 24.5884C22.0908 24.684 21.9925 24.8191 21.9421 24.9741C21.8917 25.1291 21.8917 25.2962 21.9422 25.4512C21.9927 25.6062 22.0911 25.7412 22.2232 25.8367L23.0256 26.4404L22.7219 27.374C22.6728 27.5289 22.6737 27.6953 22.7245 27.8497C22.7753 28.0041 22.8734 28.1386 23.005 28.234C23.1365 28.3294 23.2948 28.381 23.4573 28.3815C23.6199 28.3819 23.7784 28.3311 23.9104 28.2363L24.7278 27.6589L25.5227 28.2363C25.6545 28.332 25.8133 28.3836 25.9762 28.3836C26.1392 28.3836 26.298 28.3321 26.4299 28.2364C26.5618 28.1407 26.66 28.0058 26.7105 27.8509C26.7611 27.696 26.7613 27.529 26.7112 27.374L26.415 26.4141C26.4605 26.383 27.2895 25.7818 27.2961 25.7617C27.4038 25.654 27.4773 25.5169 27.5074 25.3675C27.5375 25.2182 27.5227 25.0633 27.465 24.9223C27.4074 24.7813 27.3093 24.6605 27.1832 24.575C27.0571 24.4896 26.9085 24.4433 26.7562 24.442Z" fill="#00B2CA"/>
<path d="M13.2668 24.442L12.2657 24.4307L11.962 23.4934C11.9113 23.3385 11.8129 23.2036 11.6809 23.108C11.5489 23.0124 11.3901 22.9609 11.2271 22.9609C11.0642 22.9609 10.9054 23.0124 10.7734 23.108C10.6414 23.2036 10.543 23.3385 10.4923 23.4934L10.1698 24.4419H9.18748C9.02394 24.4395 8.86401 24.4901 8.73156 24.586C8.59911 24.682 8.50125 24.8182 8.45259 24.9743C8.40149 25.1293 8.40121 25.2965 8.4518 25.4516C8.50238 25.6068 8.60118 25.7417 8.7338 25.8367L9.53617 26.4404L9.23247 27.374C9.18334 27.5289 9.18424 27.6954 9.23506 27.8497C9.28588 28.0041 9.38403 28.1386 9.51558 28.234C9.64713 28.3295 9.8054 28.3811 9.96792 28.3815C10.1305 28.3819 10.289 28.3311 10.421 28.2363L11.2384 27.6589L12.0333 28.2363C12.1651 28.332 12.3239 28.3836 12.4868 28.3836C12.6498 28.3836 12.8086 28.3321 12.9405 28.2364C13.0723 28.1407 13.1706 28.0058 13.2211 27.8509C13.2717 27.696 13.2719 27.529 13.2218 27.374L12.9256 26.4141L13.7205 25.8367C13.8501 25.7399 13.9461 25.6048 13.995 25.4506C14.044 25.2964 14.0434 25.1307 13.9933 24.9768C13.9433 24.8229 13.8463 24.6886 13.716 24.5927C13.5857 24.4968 13.4286 24.444 13.2668 24.442Z" fill="#00B2CA"/>
<path d="M20.3516 25.0816H19.2155C19.1977 25.0813 19.1804 25.0754 19.1662 25.0646C19.1521 25.0538 19.1417 25.0387 19.1367 25.0216L18.7881 23.9456C18.7328 23.7794 18.6266 23.6349 18.4846 23.5325C18.3426 23.4301 18.172 23.375 17.9969 23.375C17.8219 23.375 17.6512 23.4301 17.5093 23.5325C17.3673 23.6349 17.2611 23.7794 17.2058 23.9455L16.8571 25.0216C16.8522 25.0387 16.8418 25.0538 16.8277 25.0646C16.8135 25.0754 16.7962 25.0813 16.7784 25.0816H15.6424C15.4679 25.0837 15.2984 25.1405 15.1579 25.244C15.0174 25.3475 14.9128 25.4924 14.859 25.6584C14.8052 25.8244 14.8048 26.0031 14.8579 26.1694C14.911 26.3356 15.0148 26.481 15.1549 26.5851L16.0735 27.2525C16.1445 27.2977 16.062 27.4358 16.051 27.4962C16.01 27.6173 15.7856 28.3188 15.7511 28.4223C15.7115 28.5472 15.7018 28.6797 15.7228 28.8091C15.7437 28.9385 15.7947 29.0611 15.8716 29.1672C15.9485 29.2734 16.0493 29.3599 16.1657 29.4201C16.2822 29.4802 16.4111 29.5121 16.5422 29.5134C16.9263 29.5562 17.5889 28.9075 17.9482 28.6848C17.9628 28.6756 17.9797 28.6707 17.9969 28.6707C18.0142 28.6707 18.0311 28.6756 18.0457 28.6848L18.9643 29.3521C19.1068 29.4525 19.2772 29.5058 19.4515 29.5045C19.6258 29.5032 19.7954 29.4474 19.9364 29.3449C20.0774 29.2423 20.1827 29.0982 20.2377 28.9328C20.2927 28.7673 20.2944 28.5888 20.2428 28.4223C20.2096 28.3138 19.9817 27.6179 19.9429 27.4962C19.9327 27.437 19.8463 27.2954 19.9241 27.2525L20.839 26.5851C20.979 26.481 21.0829 26.3356 21.136 26.1694C21.1891 26.0031 21.1887 25.8244 21.1349 25.6584C21.0811 25.4924 20.9765 25.3475 20.836 25.244C20.6955 25.1405 20.5261 25.0837 20.3516 25.0816Z" fill="#00B2CA"/>
<path d="M23.5911 19.0739C23.5911 19.1724 23.5717 19.2699 23.534 19.3609C23.4963 19.4519 23.4411 19.5346 23.3715 19.6042C23.3018 19.6738 23.2192 19.7291 23.1282 19.7668C23.0372 19.8044 22.9397 19.8238 22.8412 19.8238H22.0913C21.9928 19.8238 21.8953 19.8044 21.8043 19.7668C21.7133 19.7291 21.6306 19.6739 21.561 19.6042C21.4914 19.5346 21.4361 19.4519 21.3985 19.3609C21.3608 19.2699 21.3414 19.1724 21.3414 19.0739V18.1328H14.5926V19.0739C14.5926 19.1724 14.5732 19.2699 14.5355 19.3609C14.4979 19.4519 14.4426 19.5346 14.373 19.6042C14.3033 19.6739 14.2207 19.7291 14.1297 19.7668C14.0387 19.8044 13.9412 19.8238 13.8427 19.8238H13.0928C12.9943 19.8238 12.8968 19.8044 12.8058 19.7668C12.7148 19.7291 12.6321 19.6738 12.5625 19.6042C12.4929 19.5346 12.4376 19.4519 12.4 19.3609C12.3623 19.2699 12.3429 19.1724 12.3429 19.0739V18.1328H7.88867L7.88869 24.3268C8.23816 23.698 8.96479 23.5601 9.62463 23.6106L9.77463 23.172C9.87554 22.8679 10.0698 22.6034 10.3299 22.4163C10.5899 22.2291 10.9023 22.1288 11.2227 22.1296C11.5431 22.1305 11.855 22.2324 12.1141 22.4209C12.3731 22.6094 12.5661 22.8749 12.6654 23.1795L12.8041 23.6069L13.2653 23.6106C13.5703 23.6113 13.8681 23.704 14.1196 23.8766C14.3711 24.0492 14.5647 24.2936 14.6751 24.578C15.0789 24.237 15.7531 24.2621 16.261 24.2743L16.4635 23.6557C16.5688 23.34 16.7708 23.0654 17.0409 22.871C17.3111 22.6766 17.6355 22.5722 17.9683 22.5726C18.3012 22.573 18.6254 22.6782 18.895 22.8733C19.1647 23.0684 19.366 23.3434 19.4705 23.6594L19.673 24.2743C20.1828 24.2643 20.8554 24.2346 21.259 24.5817C21.3693 24.2955 21.5638 24.0495 21.8168 23.8761C22.0698 23.7027 22.3695 23.6102 22.6762 23.6106H23.1224L23.2724 23.172C23.3733 22.8679 23.5676 22.6034 23.8276 22.4163C24.0877 22.2291 24.4001 22.1288 24.7205 22.1296C25.0409 22.1305 25.3528 22.2324 25.6118 22.4209C25.8709 22.6094 26.0638 22.8749 26.1632 23.1795L26.3019 23.6069C26.979 23.5662 27.6772 23.686 28.0453 24.3268V18.1328H23.5911V19.0739Z" fill="#00B2CA"/>
</g>
<defs>
<clipPath id="clip0_1068_1210">
<rect width="36" height="36" fill="white"/>
</clipPath>
</defs>
</svg>
