<svg width="36" height="36" viewBox="0 0 36 36" fill="none" xmlns="http://www.w3.org/2000/svg">
<g clip-path="url(#clip0_1068_1109)">
<path opacity="0.1" d="M26 0H10C4.47715 0 0 4.47715 0 10V26C0 31.5228 4.47715 36 10 36H26C31.5228 36 36 31.5228 36 26V10C36 4.47715 31.5228 0 26 0Z" fill="#00B2CA"/>
<path d="M21.525 13.3411C21.5077 9.43284 17.8535 5.93563 13.8881 6.0009C9.66484 5.9843 6.20308 9.43186 6.20313 13.6552C6.20317 17.3372 8.8031 20.4115 12.2671 21.1435V25.2577H10.6454C10.418 25.2577 10.2336 25.4421 10.2336 25.6695V27.7034C10.2336 27.9308 10.418 28.1152 10.6454 28.1152H12.2584V29.5882C12.2584 29.8157 12.4428 30.0001 12.6702 30.0001H15.0528C15.2803 30.0001 15.4647 29.8157 15.4647 29.5882V28.1152H17.062C17.29 28.1152 17.4746 27.93 17.4739 27.7021L17.4675 25.6683C17.4668 25.4413 17.2827 25.2577 17.0557 25.2577H15.503V21.0131C15.6283 20.9862 15.7535 20.9568 15.878 20.9225C16.0833 20.8659 16.2873 20.7997 16.4892 20.7234C16.2093 20.4894 15.9401 20.2363 15.6837 19.9651C15.1608 19.4119 14.7095 18.8029 14.3371 18.1576C11.654 18.4246 9.33521 16.328 9.33596 13.6552C9.33596 11.1725 11.337 9.1575 13.8141 9.13429C16.2664 9.04384 18.5144 11.2962 18.3814 13.8046C18.3718 13.9858 18.3853 14.1682 18.4367 14.3422C18.5951 14.8781 18.935 15.3957 19.3585 15.8206C19.7813 16.2449 20.2962 16.5382 20.8299 16.67C21.3209 15.6523 21.5627 14.4986 21.525 13.3411Z" fill="#00B2CA"/>
<path d="M29.7974 13.6543C29.7974 9.43716 26.387 6.01661 22.1738 6.00006C21.2003 5.99622 20.2674 6.17688 19.4079 6.5083C20.2916 7.18679 21.171 8.16265 21.7508 9.15001C21.8801 9.13889 22.0109 9.13289 22.1431 9.13289C24.6402 9.13289 26.6645 11.1572 26.6645 13.6543C26.6645 15.9173 25.0265 17.9404 22.8317 18.2187C21.6819 18.3645 20.9013 18.2142 20.0819 17.9314C19.1542 17.6088 18.2678 16.9068 17.7065 16.0268C17.7076 16.025 17.7086 16.0233 17.7097 16.0215C17.7086 16.0232 17.7075 16.0249 17.7064 16.0266C17.2381 15.3068 16.9735 14.3852 17.0022 13.535C17.0022 12.7975 16.6584 12.0435 16.0587 11.4661C15.7584 11.1769 15.413 10.949 15.0476 10.7929C13.2356 15.294 15.998 20.1071 20.442 21.1181V25.2931H19.6783C19.3927 25.2931 19.2162 25.6048 19.3632 25.8497L21.7458 29.8208C21.8873 30.0567 22.2284 30.0591 22.3733 29.8253L24.7686 25.8844C24.9204 25.6396 24.7443 25.3233 24.4563 25.3233H23.6815V21.1539C27.1715 20.4417 29.7974 17.3546 29.7974 13.6543Z" fill="#00B2CA"/>
</g>
<defs>
<clipPath id="clip0_1068_1109">
<rect width="36" height="36" fill="white"/>
</clipPath>
</defs>
</svg>
