<svg width="36" height="36" viewBox="0 0 36 36" fill="none" xmlns="http://www.w3.org/2000/svg">
<g clip-path="url(#clip0_1081_1385)">
<path opacity="0.1" d="M26 0H10C4.47715 0 0 4.47715 0 10V26C0 31.5228 4.47715 36 10 36H26C31.5228 36 36 31.5228 36 26V10C36 4.47715 31.5228 0 26 0Z" fill="#00B2CA"/>
<path d="M23.882 19.6108C20.6277 19.53 18.0344 22.9459 18.9284 26.1277C20.5598 31.9544 28.8437 30.9439 29.0002 24.8156C28.9995 23.4354 28.4601 22.1119 27.5004 21.136C26.5407 20.1601 25.2392 19.6115 23.882 19.6108ZM26.0364 23.8596L23.5616 26.3763C23.482 26.4549 23.3754 26.4988 23.2644 26.4988C23.1534 26.4988 23.0468 26.4549 22.9672 26.3763L21.7319 25.1158C21.6929 25.0761 21.6619 25.029 21.6408 24.9771C21.6196 24.9253 21.6088 24.8697 21.6088 24.8135C21.6088 24.7574 21.6196 24.7018 21.6408 24.65C21.6619 24.5981 21.6929 24.551 21.7319 24.5113C21.7709 24.4716 21.8173 24.4401 21.8683 24.4186C21.9193 24.3971 21.9739 24.3861 22.0291 24.3861C22.0843 24.3861 22.139 24.3971 22.19 24.4186C22.241 24.4401 22.2873 24.4716 22.3263 24.5113L23.2665 25.4674L25.4377 23.2551C25.5171 23.177 25.6234 23.1337 25.7338 23.1345C25.8442 23.1352 25.9499 23.18 26.0283 23.2591C26.1066 23.3382 26.1514 23.4454 26.1529 23.5576C26.1544 23.6699 26.1126 23.7783 26.0364 23.8596Z" fill="#00B2CA"/>
<path d="M17.9193 24.8045C17.9193 24.7102 17.9236 24.6202 17.9278 24.5301H10.0481C9.93633 24.5301 9.82909 24.485 9.75003 24.4046C9.67096 24.3242 9.62655 24.2151 9.62655 24.1014C9.62655 23.9877 9.67096 23.8786 9.75003 23.7982C9.82909 23.7178 9.93633 23.6727 10.0481 23.6727H18.029C18.2805 22.3331 18.9686 21.1189 19.9821 20.2259C20.9956 19.3329 22.2755 18.8132 23.6151 18.7507V8.178C23.6145 7.60128 23.3893 7.04828 22.9887 6.64007C22.5881 6.23187 22.0447 6.00171 21.4776 6H7.4216C7.36618 5.99981 7.31127 6.01076 7.26003 6.03224C7.2088 6.05372 7.16224 6.08529 7.12306 6.12514C7.08387 6.16499 7.05282 6.21233 7.0317 6.26444C7.01058 6.31655 6.99981 6.37238 7 6.42874V26.5452C6.99981 26.6016 7.01058 26.6574 7.0317 26.7095C7.05282 26.7616 7.08387 26.809 7.12306 26.8488C7.16224 26.8887 7.2088 26.9202 7.26003 26.9417C7.31127 26.9632 7.36618 26.9742 7.4216 26.974H18.3156C18.0527 26.282 17.9183 25.5464 17.9193 24.8045ZM10.8534 10.5361C13.1452 7.96045 17.2615 7.98682 19.6142 10.3818C23.5101 14.2663 20.6739 21.1267 15.1873 21.0187C9.93452 20.9568 7.22774 14.3561 10.8534 10.5361Z" fill="#00B2CA"/>
<path d="M18.684 10.6904C18.2727 10.3489 17.8137 10.0715 17.3223 9.86719C17.5908 10.2855 17.8101 10.7345 17.9757 11.2049C18.2257 11.0539 18.4626 10.8818 18.684 10.6904Z" fill="#00B2CA"/>
<path d="M16.2617 9.89139C16.1102 9.73633 15.9295 9.61385 15.7305 9.53125V11.9322C16.2405 11.8853 16.7415 11.7655 17.2187 11.5763C17.0223 10.9514 16.6959 10.3767 16.2617 9.89139Z" fill="#00B2CA"/>
<path d="M14.8864 9.53125C14.2666 9.78421 13.7523 10.616 13.4023 11.5935C13.8789 11.7768 14.3785 11.8909 14.8864 11.9322V9.53125Z" fill="#00B2CA"/>
<path d="M13.3095 9.82031C12.8018 10.0331 12.3308 10.3269 11.9141 10.6907C12.1362 10.8832 12.3746 11.0553 12.6266 11.2051C12.7995 10.7176 13.0287 10.2528 13.3095 9.82031Z" fill="#00B2CA"/>
<path d="M12.9028 14.0749C12.8412 15.1188 12.9221 16.1663 13.1431 17.1876C13.701 16.9722 14.2884 16.8463 14.8843 16.8146V12.7844C12.9622 12.651 13.1047 11.6995 12.9028 14.0749Z" fill="#00B2CA"/>
<path d="M11.3186 18.3095C11.6422 18.0245 11.994 17.7745 12.3684 17.5635C12.0948 16.4166 11.9924 15.2343 12.0649 14.0564C12.091 13.3809 12.1928 12.7106 12.3684 12.0585C11.9915 11.8516 11.6393 11.6012 11.3186 11.3125C10.4968 12.2865 10.0449 13.5276 10.0449 14.811C10.0449 16.0945 10.4968 17.3355 11.3186 18.3095Z" fill="#00B2CA"/>
<path d="M11.9141 18.9016C12.3362 19.2719 12.8165 19.5676 13.3348 19.7762C13.045 19.3421 12.8072 18.8743 12.6266 18.3828C12.3752 18.5352 12.1369 18.7087 11.9141 18.9016Z" fill="#00B2CA"/>
<path d="M14.1111 19.4254C14.3041 19.709 14.5714 19.9318 14.8827 20.0685V17.6719C13.0611 17.8826 13.1973 17.9496 14.1111 19.4254Z" fill="#00B2CA"/>
<path d="M17.733 14.7686C17.7501 13.9723 17.6593 13.1774 17.4632 12.4062C16.9079 12.623 16.3239 12.7545 15.7305 12.7964V16.8266C16.3251 16.8751 16.91 17.0094 17.4674 17.2253C17.6388 16.4179 17.7278 15.5946 17.733 14.7686Z" fill="#00B2CA"/>
<path d="M18.572 14.7911C18.5659 15.7313 18.4541 16.6678 18.2389 17.5822C18.6115 17.7857 18.9619 18.0286 19.2845 18.3068C20.1063 17.3616 20.5658 16.147 20.5788 14.8854V14.7868C20.5741 13.5038 20.1163 12.2652 19.2887 11.2969C18.9623 11.5833 18.6077 11.8348 18.2305 12.0472C18.4698 12.9411 18.5848 13.8647 18.572 14.7911Z" fill="#00B2CA"/>
<path d="M17.2715 19.7739C17.7833 19.5591 18.2597 19.2655 18.6838 18.9036C18.4658 18.7167 18.2315 18.5502 17.984 18.4062C17.8082 18.8927 17.5686 19.3528 17.2715 19.7739Z" fill="#00B2CA"/>
<path d="M17.2229 18.0363C16.7447 17.8442 16.2423 17.7215 15.7305 17.6719V20.0685C16.485 19.6836 16.8808 18.9212 17.2229 18.0363Z" fill="#00B2CA"/>
</g>
<defs>
<clipPath id="clip0_1081_1385">
<rect width="36" height="36" fill="white"/>
</clipPath>
</defs>
</svg>
