<svg width="36" height="36" viewBox="0 0 36 36" fill="none" xmlns="http://www.w3.org/2000/svg">
<g clip-path="url(#clip0_1080_1309)">
<path opacity="0.1" d="M26 0H10C4.47715 0 0 4.47715 0 10V26C0 31.5228 4.47715 36 10 36H26C31.5228 36 36 31.5228 36 26V10C36 4.47715 31.5228 0 26 0Z" fill="#00B2CA"/>
<path d="M17.5774 3.71875C17.8539 3.71875 18.1301 3.71875 18.4065 3.71875C18.7319 3.75561 19.0578 3.78646 19.382 3.83046C20.328 3.95875 21.2223 4.25646 22.068 4.69218C23.5375 5.44932 24.7108 6.53046 25.57 7.94646C26.2573 9.07904 26.6467 10.3096 26.7507 11.6265C26.8062 12.3285 26.7696 13.0307 26.6404 13.7256C26.4597 14.6965 26.1298 15.6139 25.6189 16.4593C25.0528 17.3962 24.4687 18.3219 23.8926 19.2525C22.1969 21.9922 20.5016 24.7319 18.8059 27.4713C18.5395 27.9016 18.271 28.3308 17.9991 28.7673C17.9754 28.7336 17.9562 28.7087 17.9394 28.6822C17.377 27.7876 16.8129 26.8942 16.256 25.9962C16.1977 25.9022 16.1373 25.881 16.039 25.895C15.4426 25.9802 14.8439 26.0493 14.2499 26.1485C13.2767 26.3107 12.3298 26.5716 11.4318 26.9879C11.1805 27.1045 10.9314 27.2339 10.7325 27.4533C10.8031 27.5125 10.8643 27.5725 10.9337 27.6208C11.4618 27.9876 12.0613 28.1942 12.6694 28.375C14.0466 28.7845 15.4621 28.9619 16.8915 29.0282C17.9857 29.079 19.0792 29.0548 20.1714 28.951C21.0222 28.8702 21.8653 28.7476 22.6958 28.5467C23.3957 28.3776 24.0859 28.177 24.7237 27.8339C24.9195 27.7285 25.0994 27.5936 25.2866 27.4722C25.2824 27.4519 25.2784 27.4316 25.2741 27.4116C24.1436 26.6482 22.8371 26.3648 21.5191 26.0816C22.0246 25.2948 22.5206 24.5213 23.0203 23.7502C23.0395 23.7207 23.0981 23.6919 23.1298 23.6993C24.1265 23.9325 25.104 24.2225 26.0108 24.7105C26.5843 25.019 27.1024 25.3976 27.5101 25.915C28.1588 26.7387 28.2277 27.8553 27.6776 28.749C27.3137 29.3402 26.7856 29.751 26.1952 30.0925C25.4193 30.5416 24.5856 30.8522 23.7176 31.055C22.9674 31.2305 22.207 31.3702 21.4453 31.4865C20.8549 31.5768 20.2554 31.6105 19.6593 31.6619C19.3471 31.689 19.0332 31.7002 18.7201 31.7188H17.2907C16.9776 31.7005 16.6634 31.6927 16.3518 31.6613C15.5587 31.5819 14.7639 31.5125 13.9748 31.4013C12.772 31.2322 11.6013 30.9313 10.4886 30.433C9.75011 30.1022 9.0631 29.6933 8.54648 29.0513C7.98727 28.3565 7.80801 27.577 8.08018 26.7188C8.28832 26.063 8.74489 25.5865 9.28124 25.1868C10.3453 24.393 11.5698 23.9593 12.8472 23.6667C13.4819 23.5213 14.1289 23.429 14.7739 23.3119C14.753 23.2756 14.7247 23.2222 14.6921 23.1713C14.3748 22.6765 14.0563 22.1825 13.739 21.6879C12.7386 20.1287 11.7402 18.5682 10.7373 17.0108C10.3782 16.453 10.04 15.8859 9.80586 15.2616C9.53369 14.5365 9.34871 13.793 9.27752 13.0202C9.21119 12.3013 9.23378 11.5862 9.35243 10.8762C9.46021 10.2319 9.64433 9.60789 9.90078 9.00446C10.4483 7.71618 11.2714 6.63475 12.3432 5.74161C13.0654 5.13989 13.8705 4.67218 14.7462 4.33018C15.4126 4.06989 16.1002 3.88532 16.8129 3.80304C17.0679 3.77361 17.3227 3.74675 17.5774 3.71875ZM18.008 7.63675C17.7727 7.66389 17.5354 7.67846 17.3027 7.71989C15.6936 8.00618 14.4054 9.35561 14.2847 11.0065C14.2064 12.0768 14.5403 13.0045 15.2782 13.7682C16.1799 14.7016 17.3052 15.0608 18.5821 14.8816C19.5112 14.7513 20.2957 14.3165 20.8978 13.5853C21.682 12.6333 21.9316 11.5516 21.6183 10.3605C21.1952 8.75275 19.675 7.63789 18.0083 7.63675H18.008Z" fill="#00B2CA"/>
</g>
<defs>
<clipPath id="clip0_1080_1309">
<rect width="36" height="36" fill="white"/>
</clipPath>
</defs>
</svg>
