<svg clip-rule="evenodd" fill-rule="evenodd" height="512" image-rendering="optimizeQuality" shape-rendering="geometricPrecision" text-rendering="geometricPrecision" viewBox="0 0 1706.66 1706.66" width="512" xmlns="http://www.w3.org/2000/svg" xmlns:xodm="http://www.corel.com/coreldraw/odm/2003"><g id="Layer_x0020_1"><path d="m325.78 1153c-.96-193.52-45.49-375.28-71.43-399.21-105.37-97.23-100.21-307.74 78.76-374.64 269.66-100.81 171.84-355.12 355.85-378.96h328.7c184 23.77 86.2 278.18 355.87 378.96 178.98 66.89 184.12 277.41 78.76 374.64-25.94 23.94-70.48 205.69-71.42 399.21-53.52-3.43-103.68 14.37-142.15 47.12v-673.76c0-29.43-23.89-53.33-53.33-53.33h-663.88c-29.43 0-53.33 23.9-53.33 53.33v673.99c-38.5-32.89-88.76-50.79-142.41-47.35zm748.66-835.32h-441.94c-13.07 0-22.66-12.44-19.35-25.08l33.33-127.08c11.04-42.1 36.8-66.23 70.67-66.23l272.37-.01c78.74 0 77.49 117.46 103.18 190.19 5.87 16.61-5.78 28.21-18.26 28.21zm-416.02-40h389.83l-26.76-102.01c-4.35-16.6-13.44-36.39-31.98-36.39h-272.35c-18.53 0-27.61 19.79-31.97 36.39z"/><path d="m1514.05 1706.65h-1321.44c-11.04 0-20-8.97-20-20v-334.58c0-91.63 74.54-166.17 166.17-166.17 91.64 0 166.18 74.54 166.18 166.17v88.46h696.75v-88.46c0-91.63 74.54-166.17 166.17-166.17 91.64 0 166.18 74.54 166.18 166.17v334.58c.02 11.04-8.95 20-20 20z"/><path d="m505.59 1242.76c36.9-50.24 95.76-82.18 163.25-82.18h363.72c68.38 0 129.18 33.07 167.26 84.06-35.93 56.01-31.45 100.29-31.45 162.56h-630.09c0-63.04 4.48-107.91-32.69-164.44z"/><path d="m501.52 1196.37v-670c0-11.04 8.96-20 20-20h663.88c11.04 0 20 8.96 20 20v673.64c-45.17-46.17-107.15-72.76-172.83-72.76h-363.72c-63.73 0-123.41 24.86-167.33 69.12zm490.44-575.04h-277.01c-26.33 0-26.33-40 0-40h277.02c26.33 0 26.33 40-.02 40zm0 145.89h-277.01c-26.33 0-26.33-40 0-40h277.02c26.33 0 26.33 40-.02 40zm0 145.87h-277.01c-26.33 0-26.33-40 0-40h277.02c26.33 0 26.32 40-.02 40zm0 145.88h-277.01c-26.33 0-26.33-40 0-40h277.02c26.33 0 26.32 40-.02 40z"/></g></svg>