<svg enable-background="new 0 0 48 48" height="512" viewBox="0 0 48 48" width="512" xmlns="http://www.w3.org/2000/svg"><g id="Layer_4"><g><path d="m42 6.1v-2.1c0-1.1-.9-2-2-2h-2c-1.1 0-2 .9-2 2v2h-4v-2c0-1.1-.9-2-2-2h-2c-1.1 0-2 .9-2 2v2h-4v-2c0-1.1-.9-2-2-2h-2c-1.1 0-2 .9-2 2v2h-4v-2c0-1.1-.9-2-2-2h-2c-1.1 0-2 .9-2 2v2.1c-2.3.5-4 2.5-4 4.9v30c0 2.8 2.2 5 5 5h34c2.8 0 5-2.2 5-5v-30c0-2.4-1.7-4.4-4-4.9zm-4-2.1h2v6h-2zm-10 0h2v6h-2zm-10 0h2v6h-2zm-10 0h2v6h-2zm1 35h-2c-.6 0-1-.4-1-1s.4-1 1-1h2c.6 0 1 .4 1 1s-.4 1-1 1zm-3-16c0-.6.4-1 1-1s1 .4 1 1-.4 1-1 1-1-.4-1-1zm8 19c-.6 0-1-.4-1-1s.4-1 1-1 1 .4 1 1-.4 1-1 1zm1-14c0 1.3-.8 2.4-2 2.8v3.2c0 .6-.4 1-1 1s-1-.4-1-1v-3.2c-1.2-.4-2-1.5-2-2.8v-2c0-.6.4-1 1-1s1 .4 1 1v2c0 .6.4 1 1 1s1-.4 1-1v-2c0-.6.4-1 1-1s1 .4 1 1zm-5-8c0-.6.4-1 1-1 0-.6.4-1 1-1s1 .4 1 1c.6 0 1 .4 1 1s-.4 1-1 1c0 .6-.4 1-1 1s-1-.4-1-1c-.6 0-1-.4-1-1zm10 19c-.6 0-1-.4-1-1s.4-1 1-1 1 .4 1 1-.4 1-1 1zm2-10c.6 0 1 .4 1 1s-.4 1-1 1h-3v2h3c.6 0 1 .4 1 1s-.4 1-1 1h-4c-.6 0-1-.4-1-1v-8c0-.6.4-1 1-1h4c.6 0 1 .4 1 1s-.4 1-1 1h-3v2zm-4-10c0-.6.4-1 1-1h2c.6 0 1 .4 1 1s-.4 1-1 1h-2c-.6 0-1-.4-1-1zm10 21c0 .6-.4 1-1 1s-1-.4-1-1c-.6 0-1-.4-1-1s.4-1 1-1c0-.6.4-1 1-1s1 .4 1 1c.6 0 1 .4 1 1s-.4 1-1 1zm3-6c0 .6-.4 1-1 1s-1-.4-1-1v-2h-2v2c0 .6-.4 1-1 1s-1-.4-1-1v-6c0-1.7 1.3-3 3-3s3 1.3 3 3zm-1-12h-2c-.6 0-1-.4-1-1s.4-1 1-1h2c.6 0 1 .4 1 1s-.4 1-1 1zm4 19c-.6 0-1-.4-1-1s.4-1 1-1 1 .4 1 1-.4 1-1 1zm1-8.6v1.6c0 .6-.4 1-1 1s-1-.4-1-1v-8c0-.6.4-1 1-1h2c1.7 0 3 1.3 3 3 0 1.5-1.1 2.8-2.6 3l2.3 2.3c.4.4.4 1 0 1.4-.2.2-.4.3-.7.3s-.5-.1-.7-.3zm-1-12.4c0-.6.4-1 1-1s1 .4 1 1-.4 1-1 1-1-.4-1-1zm7 19h-2c-.6 0-1-.4-1-1s.4-1 1-1h2c.6 0 1 .4 1 1s-.4 1-1 1zm0-18c0 .6-.4 1-1 1s-1-.4-1-1c-.6 0-1-.4-1-1s.4-1 1-1c0-.6.4-1 1-1s1 .4 1 1c.6 0 1 .4 1 1s-.4 1-1 1zm3-5h-40v-2h40z"/><path d="m28 27c-.6 0-1 .4-1 1v2h2v-2c0-.6-.4-1-1-1z"/><path d="m37 28c0-.6-.4-1-1-1h-1v2h1c.6 0 1-.4 1-1z"/></g></g></svg>