<svg id="OBJECT" viewBox="0 0 32 32" xmlns="http://www.w3.org/2000/svg"><path d="m27.5 29h-.71v-2h-21.58v2h-.71c-.55 0-1 .45-1 1s.45 1 1 1h23c.55 0 1-.45 1-1s-.45-1-1-1z"/><path d="m12 25v-2c0-2.21 1.79-4 4-4 .47 0 .91.1 1.33.24l6.09-8.45c.32-.45.95-.55 1.4-.23s.55.95.23 1.4l-6.05 8.4c.62.71 1.01 1.62 1.01 2.63v2h7.98c1.95-2.58 3.02-5.7 3.02-9 0-8.27-6.73-15-15-15s-15.01 6.74-15.01 15.01c0 3.3 1.07 6.42 3.02 9zm14.89-10.56c.03.24.06.49.08.74.04.55-.37 1.03-.92 1.07-.02 0-.05 0-.07 0-.52 0-.96-.4-1-.93-.02-.2-.04-.4-.07-.6-.08-.55.3-1.05.85-1.13.56-.08 1.05.3 1.13.85zm-21.88 1.02c.07-1.45.42-2.84 1.04-4.15 1.81-3.84 5.72-6.31 9.95-6.31 2.4 0 4.68.76 6.59 2.2.11.09.22.17.33.26.43.35.49.98.14 1.41s-.98.5-1.41.14c-.09-.07-.18-.14-.27-.21-1.57-1.18-3.43-1.8-5.39-1.8-3.46 0-6.66 2.03-8.14 5.17-.5 1.07-.79 2.21-.85 3.39 0 .15-.01.29-.01.44 0 .55-.45 1-1 1s-1-.45-1-1c0-.18 0-.36.01-.54z"/><path d="m14 23v2h4v-2c0-1.1-.9-2-2-2s-2 .9-2 2z"/></svg>