<svg enable-background="new 0 0 512 512" viewBox="0 0 512 512" xmlns="http://www.w3.org/2000/svg"><g id="_x38_5_Gas_Station"><g><path d="m486.292 148.706c-.145-.193-.338-.386-.482-.531-17.899-17.898 8.298 8.298-56.88-56.88-1.11-1.11-2.654-1.737-4.245-1.737h-23.929c-3.329 0-6.03 2.701-6.03 6.03s2.702 6.03 6.03 6.03h21.42l12.399 12.398c-10.035 6.32-16.355 17.32-16.355 29.671 0 19.49 15.824 35.314 35.315 35.314 10.855 0 20.697-4.921 27.258-12.93v196.063c0 29.477-22.434 53.84-51.139 56.831v-36.955c0-15.196-12.399-27.595-27.595-27.595h-18.14v-310.109c0-19.635-15.969-35.556-35.556-35.556h-239.097c-19.635 0-35.556 15.921-35.556 35.556v86.453c0 3.329 2.702 6.03 6.03 6.03s6.03-2.701 6.03-6.03v-86.453c0-12.977 10.517-23.495 23.495-23.495h239.097c12.929 0 23.495 10.517 23.495 23.495v210.488h-286.086v-68.892c0-3.329-2.702-6.03-6.03-6.03s-6.03 2.701-6.03 6.03c-.048 301.766 0 181.976 0 305.287h-48.534c-3.329 0-6.03 2.701-6.03 6.031 0 3.329 2.702 6.03 6.03 6.03h407.227c3.329 0 6.03-2.701 6.03-6.03s-2.702-6.031-6.03-6.031h-48.485v-23.108h18.14c15.197 0 27.595-12.351 27.595-27.596v-9.407c35.363-3.088 63.2-32.806 63.2-68.941v-196.835c0-6.127-2.365-12.11-6.562-16.596zm-32.757 18.236c-12.833 0-23.254-10.421-23.254-23.253 0-9.07 5.114-17.079 13.074-20.89l15.631 15.631-7.671 6.609c-2.509 2.171-2.75 5.982-.579 8.491 2.171 2.557 5.982 2.798 8.491.627l8.298-7.188 6.947 6.947c-3.859 7.912-11.867 13.026-20.937 13.026zm-229.304 117.667c2.268-2.654 6.803-2.654 9.118 0 3.811 4.39 37.244 43.613 37.244 64.984 0 23.012-18.767 41.779-41.779 41.779-23.06 0-41.827-18.766-41.827-41.779 0-21.371 33.433-60.594 37.244-64.984zm147.627 206.532h-286.087v-72.076h286.087zm45.735-50.656c0 8.588-6.947 15.535-15.534 15.535h-18.14v-89.541h18.14c8.587 0 15.534 6.995 15.534 15.534z"/><path d="m313.917 57.959h-170.253c-11.434 0-20.793 9.311-20.793 20.793v107.054c0 11.433 9.359 20.793 20.793 20.793h170.253c11.434 0 20.793-9.36 20.793-20.793v-107.054c0-11.482-9.359-20.793-20.793-20.793zm8.732 127.846c0 4.776-3.956 8.732-8.732 8.732h-34.06c-2.123-24.219-21.083-43.612-45.06-46.411v-32.371c0-3.329-2.702-6.03-6.03-6.03s-6.03 2.701-6.03 6.03v32.371c-23.977 2.799-42.889 22.192-45.06 46.411h-34.012c-4.776 0-8.732-3.956-8.732-8.732v-107.053c0-4.824 3.956-8.732 8.732-8.732h170.253c4.776 0 8.732 3.907 8.732 8.732v107.053z"/><path d="m258.533 349.593c0 16.355-13.364 29.718-29.718 29.718-16.403 0-29.766-13.363-29.766-29.718 0-11.385 16.693-35.652 29.718-51.669 13.025 16.017 29.766 40.284 29.766 51.669z"/></g></g><g id="Layer_1"/></svg>