<svg enable-background="new 0 0 512 512" viewBox="0 0 512 512" xmlns="http://www.w3.org/2000/svg"><g id="_x32_0_Engine"><g><path d="m486.501 298.812c3.27 0 5.923-2.606 5.923-5.876v-10.566c0-11.278-9.145-20.376-20.375-20.376h-18.196c-11.277 0-20.376 9.098-20.376 20.376v6.207h-11.987c-9.098 0-16.49-7.439-16.49-16.49v-49.659c0-15.637-12.699-28.336-28.431-28.336-4.786 0-9.382-2.085-12.509-5.686l-23.882-27.673c-5.402-6.255-13.22-9.809-21.418-9.809h-34.022v-32.316h15.684c13.362 0 24.213-10.851 24.213-24.214 0-13.315-10.851-24.166-24.213-24.166h-89.414c-13.315 0-24.166 10.851-24.166 24.166 0 13.362 10.851 24.214 24.166 24.214h15.685v32.316h-40.087c-8.198 0-16.017 3.554-21.418 9.809-15.211 15.684-18.196 26.251-30.184 26.251h-6.444c-15.59 0-28.289 12.652-28.289 28.288v52.028h-32.316v-15.684c0-13.315-10.851-24.166-24.166-24.166-13.362 0-24.213 10.851-24.213 24.166v89.415c0 13.362 10.851 24.213 24.213 24.213 13.315 0 24.166-10.851 24.166-24.213v-15.685h32.316v30.137c0 15.637 12.699 28.336 28.289 28.336h33.169c9.05 0 16.395 7.392 16.395 16.49v13.126c0 15.637 12.746 28.336 28.383 28.336h170.204c15.59 0 28.288-12.699 28.288-28.336v-44.826c0-9.05 7.392-16.395 16.49-16.395h11.988v6.16c0 11.23 9.145 20.423 20.423 20.423h18.101c11.229 0 20.422-9.193 20.422-20.423v-12.462c0-3.27-2.653-5.923-5.923-5.923-3.317 0-5.923 2.654-5.923 5.923v12.462c0 4.691-3.885 8.577-8.576 8.577h-18.101c-4.738 0-8.577-3.886-8.577-8.577v-12.083c0-3.317-2.653-5.923-5.923-5.923h-17.91c-15.637 0-28.336 12.652-28.336 28.241v44.826c0 9.098-7.392 16.49-16.442 16.49h-170.205c-9.098 0-16.537-7.392-16.537-16.49v-13.126c0-15.637-12.652-28.336-28.241-28.336h-33.169c-9.051 0-16.443-7.392-16.443-16.49 0 0 0-109.742 0-140.21 0-9.098 7.392-16.442 16.443-16.442h6.444c19.428 0 25.635-17.153 39.14-30.374 3.175-3.601 7.724-5.686 12.463-5.686h132.153c4.786 0 9.335 2.085 12.462 5.686l23.882 27.673c5.402 6.255 13.22 9.809 21.607 9.809 9.051 0 16.442 7.392 16.442 16.49v49.659c0 15.59 12.699 28.336 28.336 28.336h17.911c3.27 0 5.923-2.654 5.923-5.923v-12.13c0-4.738 3.791-8.529 8.529-8.529h18.196c4.691 0 8.529 3.791 8.529 8.529v10.567c.001 3.268 2.607 5.874 5.924 5.874zm-430.392 42.219c0 6.823-5.544 12.367-12.32 12.367-6.823 0-12.367-5.544-12.367-12.367v-89.415c0-6.776 5.544-12.32 12.367-12.32 6.776 0 12.32 5.544 12.32 12.32zm44.162-27.53h-32.316v-34.354h32.316zm110.737-206.738c-6.776 0-12.32-5.544-12.32-12.368 0-6.776 5.544-12.32 12.32-12.32h89.414c6.824 0 12.367 5.544 12.367 12.32 0 6.823-5.544 12.368-12.367 12.368-52.928 0-33.31 0-89.414 0zm61.885 44.115h-34.354v-32.269h34.354z"/><path d="m255.739 202.432c-51.791 0-93.916 42.124-93.916 93.916 0 51.791 42.125 93.916 93.916 93.916s93.916-42.124 93.916-93.916c0-51.791-42.125-93.916-93.916-93.916zm46.058 98.18-40.703 61.505c-2.18 3.317-5.781 5.165-9.524 5.165-1.137 0-2.274-.142-3.364-.474-4.881-1.469-8.198-5.923-8.198-11.04v-45.915h-20.754c-4.217 0-8.103-2.322-10.14-6.065-1.991-3.696-1.801-8.245.568-11.751l40.656-61.505c2.843-4.265 8.008-6.113 12.888-4.644 4.928 1.469 8.197 5.876 8.197 10.993v45.915h20.754c4.265 0 8.151 2.322 10.14 6.065 1.991 3.743 1.802 8.245-.52 11.751z"/><path d="m251.854 354.631v-50.701c0-3.27-2.653-5.923-5.923-5.923h-26.014l39.661-59.941v50.654c0 3.27 2.654 5.923 5.923 5.923h26.061z"/></g></g><g id="Layer_1"/></svg>