<svg enable-background="new 0 0 512 512" viewBox="0 0 512 512" xmlns="http://www.w3.org/2000/svg"><g id="_x34_8_Safari_Jeep"><g><path d="m503.25 335.723v-10.131c0-10.951-8.925-19.828-19.876-19.828h-3.57v-66.287c0-10.951-8.925-19.876-19.876-19.876h-77.769l-47.472-66.866c-3.715-5.259-9.745-8.394-16.21-8.394h-20.841v-33.916h10.564c3.329 0 6.03-2.702 6.03-6.03 0-3.329-2.702-6.03-6.03-6.03h-241.171c-3.377 0-6.03 2.702-6.03 6.03 0 3.329 2.653 6.03 6.03 6.03h10.565v33.916h-3.86c-10.951 0-19.828 8.877-19.828 19.828v14.039h-24.459c-11.434 0-20.697 9.263-20.697 20.697v69.23c0 11.434 9.262 20.745 20.697 20.745h24.459v16.885h-3.618c-10.951 0-19.828 8.877-19.828 19.828v10.131c0 10.951 8.877 19.876 19.828 19.876h37.196c0 .482-.048.965-.048 1.447 0 18.043 8.539 34.157 21.758 44.529h-94.414c-3.329 0-6.03 2.702-6.03 6.031s2.702 6.03 6.03 6.03h482.44c3.329 0 6.03-2.702 6.03-6.03 0-3.329-2.702-6.031-6.03-6.031h-65.853c13.219-10.373 21.806-26.486 21.806-44.529 0-.482-.097-.965-.097-1.447h30.297c10.952 0 19.877-8.925 19.877-19.877zm-247.202-225.299h29.525v33.916h-29.525zm-41.634 0h29.574v33.916h-29.574zm-41.587 0h29.525v33.916h-29.525zm-41.586 0h29.525v33.916h-29.525zm-41.586 0h29.525v33.916h-29.525zm-60.208 166.393c-4.776 0-8.636-3.908-8.636-8.684v-69.23c0-4.776 3.86-8.636 8.636-8.636h24.459v86.55zm59.677 66.722h-38.836c-4.294 0-7.767-3.522-7.767-7.815v-10.131c0-4.294 3.473-7.768 7.767-7.768h53.02c-6.803 7.043-11.772 15.872-14.184 25.714zm-23.06-41.008.724-36.569h6.609c4.39 0 7.864 3.57 7.767 7.912l-.531 28.657zm77.962 82.16c-15.245 0-27.644-12.399-27.644-27.644s12.398-27.644 27.644-27.644c15.245 0 27.644 12.399 27.644 27.644s-12.399 27.644-27.644 27.644zm34.784 16.885c13.267-10.373 21.806-26.486 21.806-44.529 0-.482-.048-.965-.048-1.447h57.169c3.329 0 6.03-2.702 6.03-6.031s-2.701-6.03-6.03-6.03h-58.81c-2.412-9.842-7.381-18.67-14.183-25.714h171.121c-6.802 7.044-11.771 15.872-14.183 25.714h-29.959c-3.329 0-6.03 2.702-6.03 6.03 0 3.329 2.701 6.031 6.03 6.031h28.319c0 .482-.096.965-.096 1.447 0 18.043 8.587 34.157 21.806 44.529zm217.725-16.885c-15.197 0-27.596-12.399-27.596-27.644s12.399-27.644 27.596-27.644c15.245 0 27.644 12.399 27.644 27.644-.001 15.245-12.399 27.644-27.644 27.644zm23.784-78.976c-7.237-3.329-15.294-5.307-23.785-5.307-8.443 0-16.5 1.978-23.736 5.307h-205.036c-7.237-3.329-15.245-5.307-23.736-5.307s-16.548 1.978-23.785 5.307h-27.595l.579-31.6c.241-11.096-8.684-20.214-19.828-20.214h-7.43v-89.734c0-4.294 3.474-7.767 7.767-7.767h244.741c2.509 0 4.873 1.206 6.32 3.281l49.305 69.471c1.158 1.592 2.991 2.509 4.921 2.509h80.905c4.293 0 7.815 3.522 7.815 7.815v7.092h-10.807c-10.951 0-19.876 8.925-19.876 19.876v2.557c0 10.951 8.925 19.876 19.876 19.876h10.807v16.837h-47.422zm47.424-47.086v18.188h-10.807c-4.342 0-7.815-3.522-7.815-7.816v-2.557c0-4.294 3.473-7.815 7.815-7.815zm-16.307 84.91c-2.412-9.842-7.381-18.67-14.183-25.714h46.121c4.294 0 7.815 3.474 7.815 7.768v10.131c0 4.294-3.522 7.815-7.815 7.815z"/><path d="m129.215 178.206h-35.604c-6.658 0-12.109 5.403-12.109 12.061v43.13c0 6.706 5.451 12.109 12.109 12.109h35.603c6.658 0 12.109-5.403 12.109-12.109v-43.13c.001-6.657-5.451-12.061-12.108-12.061zm0 55.24-35.652-.048.048-43.13h35.652z"/><path d="m214.51 178.206h-35.604c-6.658 0-12.109 5.403-12.109 12.061v43.13c0 6.706 5.452 12.109 12.109 12.109h35.604c6.658 0 12.061-5.403 12.061-12.109v-43.13c0-6.657-5.403-12.061-12.061-12.061zm0 55.24-35.652-.048.048-43.13h35.604z"/><path d="m337.532 226.644-29.091-43.13c-2.267-3.329-6.03-5.307-10.035-5.307h-34.205c-6.657 0-12.109 5.403-12.109 12.061v43.13c0 6.706 5.452 12.109 12.109 12.109h63.345c4.438 0 8.539-2.46 10.662-6.417 2.074-3.955 1.833-8.732-.676-12.446zm-73.379 6.754.048-43.13h34.205l29.14 43.178z"/><path d="m412.117 357.047c0 8.588-6.947 15.583-15.583 15.583-8.588 0-15.535-6.995-15.535-15.583 0-8.587 6.947-15.583 15.535-15.583 8.636 0 15.583 6.996 15.583 15.583z"/><path d="m159.609 357.047c0 8.588-6.995 15.583-15.583 15.583s-15.583-6.995-15.583-15.583c0-8.587 6.995-15.583 15.583-15.583s15.583 6.996 15.583 15.583z"/></g></g><g id="Layer_1"/></svg>