<svg enable-background="new 0 0 512 512" height="512" viewBox="0 0 512 512" width="512" xmlns="http://www.w3.org/2000/svg"><g id="_x32_4_Colorpallet"><g><path d="m449.728 328.882h-139.906l98.426-98.348c21.872-21.951 21.872-57.65 0-79.6l-45.698-45.62c-22.263-22.342-57.962-21.638-79.523-.078l-99.988 99.988v-142.874c0-31.091-25.231-56.322-56.244-56.322h-64.523c-31.012.001-56.243 25.232-56.243 56.322v319.729c0 4.296 3.515 7.812 7.812 7.812s7.812-3.515 7.812-7.812v-37.574h145.764v145.843h-97.333c-26.716 0-48.432-21.716-48.432-48.432v-29.919c0-4.296-3.515-7.812-7.812-7.812s-7.812 3.515-7.812 7.812v29.919c0 35.309 28.747 64.055 64.055 64.055h105.144.078 190.837c4.296 0 7.812-3.515 7.812-7.812s-3.515-7.812-7.812-7.812h-183.024v-145.841h266.61c22.419 0 40.62 18.201 40.62 40.62v64.602c0 22.419-18.201 40.62-40.62 40.62h-53.588c-4.296 0-7.812 3.515-7.812 7.812s3.515 7.812 7.812 7.812h53.587c31.012 0 56.244-25.231 56.244-56.244v-64.602c0-31.012-25.231-56.244-56.243-56.244zm-282.312 0h-145.764v-145.764h145.764z"/></g></g></svg>