<svg id="Layer_1" enable-background="new 0 0 100 100" viewBox="0 0 100 100" xmlns="http://www.w3.org/2000/svg"><g><path d="m89.9327 57.60515c-.10004-.12994-.10004-.31 0-.44l3.25-4.38995c1.15157-1.58632.02704-3.78003-1.91003-3.78003h-5.51996v-38.72998c0-3.94-3.20001-7.14001-7.14001-7.14001h-57.22999c-3.92999 0-7.13001 3.20001-7.13001 7.14001v38.72998h-5.53002c-.89996 0-1.70996.5-2.10999 1.29999-.40997.81-.33002 1.75.21002 2.48004l3.25 4.38995c.08997.13.08997.31006 0 .44l-3.25 4.39001c-.54004.72003-.62 1.66998-.21002 2.47003.40002.81 1.21002 1.29999 2.10999 1.29999h5.53003v.27002c0 4.09998 1.98999 7.95996 5.32001 10.32996l27.38995 19.54004c1.83718 1.29195 4.2304 1.29374 6.07001 0l27.39002-19.54004c3.34003-2.37 5.33002-6.22998 5.33002-10.32996v-.27002h5.51996c1.96992 0 3.04877-2.22289 1.91003-3.77002zm-73.67999-47.33996c0-2.84003 2.29999-5.14001 5.13-5.14001h57.22998c2.83002 0 5.14001 2.29999 5.14001 5.14001v38.72998h-3.83002v-4.26001c0-1.34998-1.09003-2.44-2.44-2.44h-9.03998c-3.03002-7.19996-10.16003-12.27998-18.44-12.27998-8.29004 0-15.42004 5.08002-18.44 12.27997h-9.04004c-1.34998 0-2.44 1.09003-2.44 2.44v4.26001h-3.82996v-38.72997zm51.72998 39.72998c0 10.43219-8.53888 17.98004-17.97998 17.98004-8.46088 0-17.31458-6.50537-17.95001-16.98004-.61273-10.10089 7.50476-18.97998 17.95001-18.97998 9.89685 0 17.97998 8.05749 17.97998 17.97998zm-59.58997 13.57c-.04004-.07001-.08002-.21997.03998-.38l3.23999-4.39001c.63-.84998.63-1.97998.01001-2.81995l-3.25-4.39001c-.12-.16003-.08002-.31-.03998-.39001.03998-.07001.12994-.20001.32996-.20001h11.35999v5.63c0 1.34003 1.09003 2.44 2.44 2.44h2.77002v4.34003c0 .19995-.16998.35999-.37.35999h-16.20001c-.20002-.00001-.28998-.12001-.32996-.20003zm75.35999 2.47003c0 3.44995-1.67999 6.69995-4.48999 8.69995l-27.39002 19.54004c-1.12.79999-2.63.79999-3.75 0l-27.39001-19.54004c-2.81-2-4.47998-5.25-4.47998-8.69995v-.27002h8.66998c1.29999 0 2.37-1.06 2.37-2.35998v-4.34003h4.91003c3.31 6.47003 10.03998 10.91003 17.79999 10.91003 7.75 0 14.48999-4.44 17.79999-10.91003h4.90997v4.34003c0 1.29998 1.06 2.35998 2.36005 2.35998h8.67999zm7.51996-2.27001h-16.19995c-.20001 0-.36005-.16003-.36005-.35999v-4.34003h2.77002c1.34998 0 2.44-1.09998 2.44-2.44v-5.63h11.34998c.28456 0 .48277.32416.30005.59003l-3.25 4.39001c-.62.83997-.62 1.96997 0 2.81995l3.25 4.39001c.18112.24156.00663.58002-.30005.58002z"/><path d="m46.20607 37.35472c.26025-.07715.52393-.14844.79053-.20996.53809-.125.87305-.66211.74854-1.2002s-.66504-.87207-1.19971-.74902c-.30664.07129-.60938.15234-.90869.24121-.5293.15723-.83105.71387-.67383 1.24316.15958.53797.72367.82933 1.24316.67481z"/><path d="m40.50246 40.83617c.854-.88477 1.8252-1.64551 2.88672-2.26172.47754-.27734.64014-.88965.36279-1.36719s-.88916-.6416-1.3667-.36328c-1.22168.70898-2.33936 1.58496-3.32227 2.60352-.3833.39746-.37207 1.03027.02539 1.41406.39405.38114 1.02775.37439 1.41407-.02539z"/><path d="m58.4327 45.03521-4.28998-.62006-1.92004-3.88995c-.90829-1.83836-3.53083-1.83989-4.44 0l-1.91998 3.88995-4.29999.62006c-2.00798.29896-2.85356 2.78008-1.37 4.21997l3.10999 3.03003-.73999 4.27997c-.34303 2.01487 1.77508 3.56789 3.58997 2.60999l3.85004-2.01996 3.83997 2.01996c1.80946.94778 3.93665-.57326 3.59003-2.60999l-.72998-4.27997 3.09998-3.03003c1.46655-1.4234.66725-3.91665-1.37002-4.21997z"/><path d="m29.3727 23.77519h41.25c1.39001 0 2.52002-1.13 2.52002-2.52002v-6.97997c0-1.39001-1.13-2.51001-2.52002-2.51001h-41.25c-1.38 0-2.51001 1.12-2.51001 2.51001v6.97998c0 1.39001 1.13001 2.52001 2.51001 2.52001zm10.53943-8.30328h9.0166c.55225 0 1 .44727 1 1s-.44775 1-1 1h-9.0166c-.55225 0-1-.44727-1-1s.44775-1 1-1zm-5.15918 0h.69727c.55225 0 1 .44727 1 1s-.44775 1-1 1h-.69727c-.55225 0-1-.44727-1-1s.44775-1 1-1z"/></g></svg>