<svg enable-background="new 0 0 512 512" viewBox="0 0 512 512" xmlns="http://www.w3.org/2000/svg"><g id="_x30_2_Speedometer"><g><path d="m256 6.014c-137.855 0-249.986 112.17-249.986 249.986 0 137.855 112.131 249.986 249.986 249.986s249.986-112.131 249.986-249.986c0-137.816-112.131-249.986-249.986-249.986zm0 488.522c-131.519 0-238.536-106.979-238.536-238.536 0-131.519 107.017-238.536 238.536-238.536s238.536 107.017 238.536 238.536c0 131.557-107.017 238.536-238.536 238.536z"/><path d="m269.816 58.111c-144.801-9.809-248.955 132.664-200.179 265.977 8.625 23.663 31.258 39.54 56.218 39.54h260.252c24.846 0 47.287-15.457 55.875-38.471 46.066-123.734-40.265-258.077-172.166-267.046zm161.441 263.038c-6.946 18.587-25.075 31.029-45.15 31.029h-260.252c-20.19 0-38.471-12.862-45.494-32.021-45.646-124.917 51.486-259.947 188.692-250.635 124.153 8.435 205.675 134.878 162.204 251.627z"/><path d="m255.998 133.617c3.162 0 5.725-2.562 5.725-5.725v-33.182c0-3.162-2.562-5.725-5.725-5.725s-5.725 2.562-5.725 5.725v33.183c0 3.162 2.562 5.724 5.725 5.724z"/><path d="m372.165 140.457-23.464 23.464c-2.236 2.234-2.236 5.861 0 8.095 2.236 2.236 5.859 2.236 8.095 0l23.464-23.464c2.236-2.234 2.236-5.861 0-8.095-2.236-2.237-5.859-2.237-8.095 0z"/><path d="m392.824 270.446h33.183c3.162 0 5.725-2.562 5.725-5.725 0-3.162-2.562-5.725-5.725-5.725h-33.183c-3.162 0-5.725 2.562-5.725 5.725 0 3.162 2.563 5.725 5.725 5.725z"/><path d="m119.169 258.996h-33.182c-3.162 0-5.725 2.562-5.725 5.725 0 3.162 2.562 5.725 5.725 5.725h33.183c3.162 0 5.725-2.562 5.725-5.725-.001-3.163-2.563-5.725-5.726-5.725z"/><path d="m139.829 140.457c-2.236-2.236-5.859-2.236-8.095 0-2.236 2.234-2.236 5.861 0 8.095l23.464 23.464c2.236 2.236 5.859 2.236 8.095 0 2.236-2.234 2.236-5.861 0-8.095z"/><path d="m371.306 192.083-79.27 22.976c-3.038.881-4.786 4.057-3.906 7.093s4.059 4.78 7.093 3.906l60.253-17.465-41.283 46.524c-2.098 2.365-1.882 5.984.483 8.082 2.36 2.093 5.979 1.887 8.082-.483l54.425-61.334c1.692-1.906 1.919-4.704.557-6.858-1.362-2.156-3.989-3.151-6.434-2.441z"/><path d="m302.677 272.106c0 25.724-20.953 46.677-46.677 46.677-25.762 0-46.677-20.953-46.677-46.677 0-25.762 20.915-46.715 46.677-46.715 25.724 0 46.677 20.953 46.677 46.715z"/><path d="m338.514 420.074c0 19.426-15.762 35.227-35.189 35.227h-94.651c-19.426 0-35.227-15.8-35.227-35.227 0-19.426 15.801-35.227 35.227-35.227h94.651c19.427.001 35.189 15.801 35.189 35.227z"/></g></g><g id="Layer_1"/></svg>