<svg enable-background="new 0 0 512 512" viewBox="0 0 512 512" xmlns="http://www.w3.org/2000/svg"><g id="_x30_9_Id_Card"><g><path d="m415.356 139.805h-81.252c-3.16-19.335-19.937-34.231-40.174-34.231h-12.113v-55.597c0-22.419-18.206-40.701-40.626-40.701-22.495 0-40.701 18.282-40.701 40.701v55.597h-12.112c-20.238 0-37.015 14.896-40.099 34.231h-81.328c-36.639 0-66.506 29.867-66.506 66.506v198.616c0 36.714 29.867 66.581 66.506 66.581h348.405c36.714 0 66.582-29.867 66.582-66.581v-198.616c0-36.638-29.868-66.506-66.582-66.506zm-199.82-89.828c0-14.144 11.511-25.655 25.655-25.655s25.579 11.511 25.579 25.655v55.597h-51.234zm251.355 354.95c0 28.438-23.097 51.535-51.535 51.535h-348.405c-28.363 0-51.459-23.096-51.459-51.535v-198.616c0-28.363 23.097-51.459 51.459-51.459h81.628c3.987 18.357 20.313 32.125 39.798 32.125h105.553c19.56 0 35.811-13.768 39.798-32.125h81.628c28.438 0 51.535 23.097 51.535 51.459z"/><path d="m178.898 259.576c0 25.278-20.614 45.817-45.892 45.817-25.354 0-45.893-20.539-45.893-45.817 0-25.354 20.539-45.892 45.893-45.892 25.278 0 45.892 20.539 45.892 45.892z"/><path d="m195.75 364.151c-.978 1.354-13.241 51.986-62.744 51.986-50.406 0-61.24-49.88-62.745-51.986-8.802-22.946 8.125-47.547 32.651-47.547h60.187c24.526-.001 41.454 24.676 32.651 47.547z"/><path d="m247.473 271.527h37.183c4.158 0 7.523-3.369 7.523-7.523 0-4.155-3.365-7.523-7.523-7.523h-37.183c-4.158 0-7.523 3.369-7.523 7.523s3.365 7.523 7.523 7.523z"/><path d="m406.896 307.354h-159.423c-4.158 0-7.523 3.369-7.523 7.523s3.365 7.523 7.523 7.523h159.423c4.158 0 7.523-3.369 7.523-7.523s-3.365-7.523-7.523-7.523z"/><path d="m406.896 358.225h-159.423c-4.158 0-7.523 3.369-7.523 7.523s3.365 7.523 7.523 7.523h159.423c4.158 0 7.523-3.369 7.523-7.523s-3.365-7.523-7.523-7.523z"/></g></g><g id="Layer_1"/></svg>