<svg enable-background="new 0 0 512 512" viewBox="0 0 512 512" xmlns="http://www.w3.org/2000/svg"><g id="_x39_0_Automatic_Gear"><g><path d="m450.561 278.998h-9.904c-3.317 0-5.923 2.654-5.923 5.923v74.109c0 3.27 2.606 5.923 5.923 5.923h9.904c23.692 0 42.977-19.285 42.977-42.977s-19.285-42.978-42.977-42.978zm0 74.109h-3.981v-62.263h3.981c17.2 0 31.131 13.979 31.131 31.132s-13.932 31.131-31.131 31.131z"/><path d="m482.656 496.885c3.27 0 5.923-2.652 5.923-5.923v-74.098c0-3.272-2.651-5.923-5.923-5.923s-5.923 2.651-5.923 5.923v49.009l-25.825-51.655c-1.226-2.457-3.97-3.753-6.659-3.119-2.675.634-4.563 3.017-4.563 5.766v74.098c0 3.272 2.651 5.923 5.923 5.923s5.923-2.651 5.923-5.923v-49.009l25.825 51.655c1.019 2.041 3.092 3.276 5.299 3.276z"/><path d="m474.395 15.115h-18.528c-3.269 0-5.923 2.654-5.923 5.923v74.062c0 3.317 2.654 5.923 5.923 5.923 3.27 0 5.923-2.606 5.923-5.923v-31.084h12.605c13.456 0 24.45-10.993 24.45-24.451 0-13.504-10.994-24.45-24.45-24.45zm0 37.055h-12.605v-25.209h12.605c6.918 0 12.604 5.638 12.604 12.604 0 6.918-5.686 12.605-12.604 12.605z"/><path d="m479.891 190.01c5.26-4.454 8.672-11.087 8.672-18.527 0-13.458-10.946-24.451-24.451-24.451h-18.48c-3.317 0-5.923 2.653-5.923 5.923v74.109c0 3.269 2.606 5.923 5.923 5.923 3.269 0 5.923-2.654 5.923-5.923v-31.132h12.557c6.965 0 12.604 5.686 12.604 12.605v18.527c0 3.269 2.653 5.923 5.923 5.923 3.269 0 5.923-2.654 5.923-5.923v-18.527c.001-7.439-3.411-14.025-8.671-18.527zm-15.779-5.923h-12.557v-25.208h12.557c6.965 0 12.604 5.686 12.604 12.604.001 6.966-5.638 12.604-12.604 12.604z"/><path d="m382.515 52.152h-45.714c-3.272 0-5.923 2.651-5.923 5.923s2.651 5.923 5.923 5.923h45.714c3.272 0 5.923-2.651 5.923-5.923 0-3.271-2.652-5.923-5.923-5.923z"/><path d="m382.515 184.097h-45.714c-3.272 0-5.923 2.651-5.923 5.923s2.651 5.923 5.923 5.923h45.714c3.272 0 5.923-2.651 5.923-5.923 0-3.271-2.652-5.923-5.923-5.923z"/><path d="m382.515 316.043h-45.714c-3.272 0-5.923 2.651-5.923 5.923s2.651 5.923 5.923 5.923h45.714c3.272 0 5.923-2.651 5.923-5.923s-2.652-5.923-5.923-5.923z"/><path d="m382.515 447.988h-45.714c-3.272 0-5.923 2.651-5.923 5.923s2.651 5.923 5.923 5.923h45.714c3.272 0 5.923-2.651 5.923-5.923s-2.652-5.923-5.923-5.923z"/><path d="m251.451 100.596h-31.747v-58.33c0-11.088-9.004-20.043-20.091-20.043h-73.683c-11.041 0-19.996 8.956-19.996 20.043v58.33h-31.795c-33.643 0-60.984 27.388-60.984 61.031v19.759c0 33.643 27.341 60.984 60.984 60.984h31.795v219.342c0 18.811 15.305 34.164 34.117 34.164h45.536c18.765 0 34.117-15.352 34.117-34.164v-76.194c0-3.269-2.654-5.923-5.923-5.923-3.27 0-5.923 2.654-5.923 5.923v76.194c0 12.32-9.999 22.318-22.271 22.318h-45.536c-12.32 0-22.27-9.998-22.27-22.318v-219.342h90.078v90.173c0 3.269 2.653 5.923 5.923 5.923 3.269 0 5.923-2.654 5.923-5.923v-90.173h31.747c33.643 0 60.984-27.341 60.984-60.984v-19.759c-.001-33.642-27.342-61.031-60.985-61.031zm-133.671-58.33c0-4.549 3.649-8.197 8.15-8.197h73.683c4.549 0 8.245 3.649 8.245 8.197v58.33h-90.078zm70.081 188.258h-50.132v-118.082h50.132z"/></g></g><g id="Layer_1"/></svg>