<svg enable-background="new 0 0 512 512" viewBox="0 0 512 512" xmlns="http://www.w3.org/2000/svg"><g id="_x39_3_Cinema_Seat"><g><path d="m92.052 135.936c0 3.367 2.729 6.097 6.097 6.097 3.367 0 6.097-2.729 6.097-6.097 0-5.968 4.858-10.826 10.829-10.826h61.392c5.97 0 10.826 4.858 10.826 10.826 0 3.367 2.729 6.097 6.097 6.097s6.097-2.729 6.097-6.097c0-12.693-10.326-23.019-23.019-23.019h-61.392c-12.696 0-23.024 10.326-23.024 23.019z"/><path d="m442.164 370.737h12.339c8.438 0 15.266-6.828 15.266-15.266v-46.87c20.192-1.512 36.189-18.436 36.189-39.018v-47.504c0-8.925-7.267-16.192-16.192-16.192h-42.286v-69.94c0-31.117-25.313-56.43-56.381-56.43h-61.404c-31.117 0-56.381 25.313-56.381 56.43v69.94h-40.432v-69.94c0-29.946-23.411-54.674-53.308-56.332-3.365-.195-6.243 2.39-6.438 5.755-.195 3.366 2.39 6.243 5.755 6.389 23.459 1.317 41.798 20.728 41.798 44.188v72.427c-4.585 2.877-7.657 7.9-7.657 13.705v47.504c0 5.218 1.073 10.144 2.878 14.681h-134.466c1.853-4.536 2.878-9.462 2.878-14.681v-47.504c0-7.999-5.853-14.632-13.461-15.949v-70.184c0-24.386 19.85-44.188 44.188-44.188h9.608c3.365 0 6.097-2.731 6.097-6.097 0-3.414-2.731-6.097-6.097-6.097h-9.608c-31.068 0-56.381 25.264-56.381 56.381v69.94h-36.434c-8.925 0-16.192 7.267-16.192 16.192v47.504c0 18.582 12.974 34.141 30.337 38.14v47.748c0 8.438 6.877 15.266 15.266 15.266h12.339v38.237c0 4.097 1.171 7.95 3.024 11.316h-54.87c-3.365 0-6.097 2.731-6.097 6.097 0 3.365 2.732 6.097 6.097 6.097h487.724c3.365 0 6.097-2.732 6.097-6.097 0-3.366-2.731-6.097-6.097-6.097h-60.722c1.853-3.366 3.024-7.218 3.024-11.316zm-156.656-234.79c0-24.386 19.802-44.237 44.188-44.237h61.404c24.386 0 44.188 19.851 44.188 44.237v72.427c-4.536 2.877-7.608 7.9-7.608 13.705v47.504c0 5.218 1.024 10.144 2.878 14.681h-142.075c1.805-4.536 2.877-9.462 2.877-14.681v-47.504c0-4.975-2.341-9.413-5.852-12.34zm-233.864 222.597c-1.658 0-3.073-1.366-3.073-3.073v-46.919c9.852-.829 18.631-5.316 25.02-12.095h150.219c5.072 5.414 11.705 9.316 19.119 11.12v47.895c0 1.707-1.365 3.073-3.073 3.073h-188.212zm47.163 50.43c0 6.243-5.072 11.316-11.315 11.316s-11.315-5.073-11.315-11.316v-38.237h22.63zm9.169 11.316c1.902-3.366 3.024-7.218 3.024-11.316v-38.237h69.5v38.237c0 4.097 1.17 7.95 3.073 11.316zm107.397-11.316c0 6.243-5.073 11.316-11.315 11.316-6.243 0-11.364-5.073-11.364-11.316v-38.237h22.679zm9.169 11.316c1.853-3.366 3.024-7.218 3.024-11.316v-38.237h12.29c5.707 0 10.584-3.122 13.217-7.755 2.634 4.633 7.56 7.755 13.217 7.755h12.339v38.237c0 4.097 1.122 7.95 3.024 11.316zm88.912-11.316c0 6.243-5.072 11.316-11.315 11.316s-11.315-5.073-11.315-11.316v-38.237h22.63zm9.169 11.316c1.853-3.366 3.024-7.218 3.024-11.316v-38.237h69.501v38.237c0 4.097 1.171 7.95 3.024 11.316zm107.348-11.316c0 6.243-5.073 11.316-11.315 11.316-6.243 0-11.315-5.073-11.315-11.316v-38.237h22.63zm-163.68-50.43c-1.707 0-3.073-1.366-3.073-3.073v-48.333c6.731-2 12.681-5.707 17.363-10.681h157.827c5.121 5.414 11.705 9.316 19.168 11.12v47.895c0 1.707-1.365 3.073-3.073 3.073h-188.212z"/><path d="m312.775 142.033c3.367 0 6.097-2.729 6.097-6.097 0-5.968 4.856-10.826 10.826-10.826h61.392c5.97 0 10.826 4.858 10.826 10.826 0 3.367 2.729 6.097 6.097 6.097 3.367 0 6.097-2.729 6.097-6.097 0-12.693-10.326-23.019-23.019-23.019h-61.392c-12.693 0-23.019 10.326-23.019 23.019-.001 3.368 2.728 6.097 6.095 6.097z"/></g></g><g id="Layer_1"/></svg>