<svg enable-background="new 0 0 512 512" height="512" viewBox="0 0 512 512" width="512" xmlns="http://www.w3.org/2000/svg"><g id="_x32_6_Crane_Truck"><g><path d="m338.485 266.505h-22.898c-2.862 0-5.204 2.342-5.204 5.204s2.342 5.204 5.204 5.204h22.898c2.914 0 5.204-2.342 5.204-5.204s-2.29-5.204-5.204-5.204zm0 0h-22.898c-2.862 0-5.204 2.342-5.204 5.204s2.342 5.204 5.204 5.204h22.898c2.914 0 5.204-2.342 5.204-5.204s-2.29-5.204-5.204-5.204zm0 0h-22.898c-2.862 0-5.204 2.342-5.204 5.204s2.342 5.204 5.204 5.204h22.898c2.914 0 5.204-2.342 5.204-5.204s-2.29-5.204-5.204-5.204z"/><path d="m501.008 228.723-54.799-105.851c-7.546-14.415-22.274-23.418-38.51-23.418h-92.112c-23.887 0-43.35 19.463-43.35 43.35v19.359h-33.15l-85.763-63.854c4.319-10.096 3.123-22.169-4.319-31.224-10.617-13.01-29.872-14.936-42.882-4.319-13.01 10.616-14.936 29.871-4.267 42.882 2.029 2.498 4.475 4.527 7.13 6.245v67.966c0 2.862 2.342 5.204 5.204 5.204s5.412 1.145 7.286 3.018c1.873 1.873 3.018 4.423 3.018 7.286 0 5.672-4.58 10.252-10.304 10.252-5.673 0-10.304-4.58-10.304-10.252 0-2.862-2.342-5.204-5.204-5.204s-5.204 2.342-5.204 5.204c0 11.397 9.316 20.66 20.712 20.66 11.449 0 20.712-9.263 20.712-20.66 0-9.628-6.609-17.643-15.508-19.984v-59.274c3.903.78 6.817 1.197 12.282.052l48.606 103.093v77.176h-143.946c-16.601 0-30.132 13.531-30.132 30.08v45.432c0 16.601 13.53 30.132 30.132 30.132h22.117c2.654 30.236 28.05 54.018 58.91 54.018 30.912 0 56.308-23.782 58.962-54.018h147.744c2.654 30.236 28.05 54.018 58.91 54.018 30.912 0 56.308-23.782 59.014-54.018h20.504c23.887 0 43.298-19.463 43.298-43.35v-110.069c.001-6.87-1.612-13.739-4.787-19.932zm-246.205-10.981c0 12.907-10.46 23.418-23.366 23.418-12.854 0-23.366-10.512-23.366-23.418s10.512-23.366 23.366-23.366c12.906 0 23.366 10.46 23.366 23.366zm-113.397-105.382c2.498-1.509 4.371-3.07 6.349-5.204l73.898 55.007h-1.873c-19.672 0-36.221 14.676-39.083 33.619zm-24.043 303.242c-10.304 0-18.735-8.431-18.735-18.735 0-10.356 8.431-18.735 18.735-18.735 10.356 0 18.787 8.379 18.787 18.735 0 10.304-8.431 18.735-18.787 18.735zm59.014-23.939c-2.654-30.288-28.518-54.018-59.014-54.018-30.392 0-56.256 23.574-58.962 54.018h-22.065c-10.877 0-19.723-8.847-19.723-19.724v-31.224h14.832c2.862 0 5.204-2.342 5.204-5.204s-2.342-5.204-5.204-5.204h-14.833v-3.799c0-10.825 8.847-19.672 19.723-19.672h235.901v51.885c0 12.854 5.932 24.98 15.196 32.942zm206.654 23.939c-10.356 0-18.735-8.431-18.735-18.735 0-10.356 8.378-18.735 18.735-18.735 10.304 0 18.735 8.379 18.735 18.735 0 10.304-8.431 18.735-18.735 18.735zm112.357-163.252c-16.393 2.498-29.039 16.705-29.039 33.827s12.646 31.329 29.039 33.879v38.666c0 18.162-14.728 32.942-32.89 32.942h-20.504c-2.602-30.028-28.206-54.018-59.014-54.018-30.444 0-56.256 23.574-58.91 54.018h-8.483c-18.162 0-32.942-14.78-32.942-32.942v-215.919c0-18.162 14.779-32.942 32.942-32.942h92.112c12.334 0 23.523 6.817 29.247 17.798l54.799 105.851c2.394 4.684 3.643 9.94 3.643 15.144z"/><path d="m457.398 218.523-38.042-73.586c-3.747-7.077-10.981-11.449-18.943-11.449h-72.857c-11.761 0-21.285 9.524-21.285 21.285v73.586c0 11.709 9.524 21.285 21.285 21.285h110.951c15.976-.001 26.177-16.966 18.891-31.121zm-113.709-28.674c-2.03-2.03-2.03-5.36 0-7.389l18.787-18.787c2.03-2.029 5.308-2.029 7.39 0 2.029 2.03 2.029 5.36 0 7.39l-18.787 18.787c-2.082 2.028-5.361 2.028-7.39-.001zm54.382-9.42-38.979 38.979c-2.03 2.03-5.36 2.03-7.39 0-2.029-2.029-2.029-5.308 0-7.337l38.979-38.979c2.029-2.03 5.36-2.03 7.39 0 2.03 2.029 2.03 5.308 0 7.337z"/></g></g></svg>