<svg id="Layer_1" enable-background="new 0 0 68 68" viewBox="0 0 68 68" xmlns="http://www.w3.org/2000/svg"><g><path d="m23.1 25.9c-.4 0-.8.3-.8.8v.9c0 .4.3.8.8.8s.8-.3.8-.8v-.9c0-.4-.4-.8-.8-.8z"/><path d="m23.1 29.4c-.4 0-.8.3-.8.8v5.8c0 .4.3.8.8.8s.8-.3.8-.8v-5.9c0-.4-.4-.7-.8-.7z"/><path d="m51.6 12.2h-2.8l1.6-2.8c.4.1.8.2 1.3.2 2.1 0 3.8-1.7 3.8-3.8s-1.7-3.8-3.8-3.8-3.8 1.7-3.8 3.8c0 1.1.5 2.1 1.3 2.8l-2 3.6h-4.5c-.7 0-1.3-.4-1.7-1-1.5-2.4-4.1-3.9-7-3.9s-5.5 1.4-7 3.9c-.4.6-1 1-1.7 1h-4.5l-2-3.6c.8-.7 1.3-1.7 1.3-2.8 0-2.1-1.7-3.8-3.8-3.8s-3.8 1.7-3.8 3.8 1.7 3.8 3.8 3.8c.4 0 .9-.1 1.3-.2l1.6 2.8h-2.8c-1.9 0-3.4 1.5-3.4 3.4s1.5 3.4 3.4 3.4h9c.2 0 .4.1.6.1-1 .2-2 .3-2.9.5-2.5.5-4.3 2.7-4.3 5.3v24.1c0 2.5 1.8 4.8 4.3 5.3 1.4.3 2.8.5 4.3.7v1.7c0 .4.3.8.8.8h1.3v3.9c0 2.6 2.1 4.6 4.6 4.6s4.6-2.1 4.6-4.6v-3.9h1.3c.4 0 .8-.3.8-.8v-1.7c1.4-.2 2.8-.4 4.3-.7 2.5-.5 4.3-2.7 4.3-5.3v-24.1c0-2.5-1.8-4.8-4.3-5.3-1-.2-2-.4-2.9-.5.2-.1.4-.1.6-.1h9c1.9 0 3.4-1.5 3.4-3.4-.2-1.9-1.7-3.4-3.6-3.4zm-14.5 49.2c0 1.7-1.4 3.1-3.1 3.1s-3.1-1.4-3.1-3.1v-3.9h6.3v3.9zm10.6-36.5v24.1c0 1.8-1.3 3.4-3.1 3.8-1.3.3-2.6.5-3.9.7v-4.9c0-3.7-3-6.7-6.7-6.7s-6.7 3-6.7 6.7v4.9c-1.3-.2-2.6-.4-3.9-.7-1.8-.4-3.1-2-3.1-3.8v-24.1c0-1.8 1.3-3.4 3.1-3.8 1.3-.3 2.7-.5 4-.7 1.5 2.1 4 3.4 6.7 3.4s5.1-1.3 6.7-3.4c1.3.2 2.7.4 4 .7 1.6.4 2.9 2 2.9 3.8zm3.9-7.4h-9c-1.2 0-2.3.6-2.9 1.7-1.2 2-3.4 3.2-5.7 3.2-2.4 0-4.5-1.2-5.7-3.2-.7-1.1-1.8-1.7-2.9-1.7h-9c-1.1 0-1.9-.9-1.9-1.9s.9-1.9 1.9-1.9h9c1.2 0 2.3-.6 2.9-1.7 1.2-2 3.4-3.2 5.7-3.2s4.5 1.2 5.7 3.2c.7 1.1 1.8 1.7 2.9 1.7h9c1.1 0 1.9.9 1.9 1.9s-.8 1.9-1.9 1.9z"/><path d="m34 11c-2.5 0-4.6 2.1-4.6 4.6s2.1 4.6 4.6 4.6 4.6-2.1 4.6-4.6c0-2.6-2.1-4.6-4.6-4.6z"/><path d="m27.2 29.9c-.4 0-.8.3-.8.8s.3.8.8.8h13.6c.4 0 .8-.3.8-.8s-.3-.8-.8-.8z"/><path d="m40.8 33.5h-13.6c-.4 0-.8.3-.8.8s.3.8.8.8h13.6c.4 0 .8-.3.8-.8s-.4-.8-.8-.8z"/><path d="m40.8 37.2h-13.6c-.4 0-.8.3-.8.8s.3.8.8.8h13.6c.4 0 .8-.3.8-.8s-.4-.8-.8-.8z"/></g></svg>