<svg enable-background="new 0 0 467.63 467.63" height="512" viewBox="0 0 467.63 467.63" width="512" xmlns="http://www.w3.org/2000/svg"><g id="_x32_2_Energy"><g><path d="m441.546 183.692h-36.609c-3.664-12.423-8.591-24.282-14.703-35.388l25.866-25.862c10.175-10.186 10.175-26.751.004-36.926l-34.008-34.083c-10.222-10.115-26.776-10.1-36.905.029l-25.884 25.884c-11.356-6.197-23.212-11.113-35.371-14.667v-36.52c.002-14.425-11.7-26.159-26.082-26.159h-48.15c-14.385 0-26.087 11.734-26.087 26.159v36.523c-12.187 3.575-24.043 8.491-35.367 14.663l-25.884-25.884c-10.132-10.132-26.683-10.136-36.937.004l-33.993 34.071c-10.068 10.164-10.068 26.708.025 36.905l25.862 25.862c-6.137 11.149-11.046 23.012-14.649 35.388h-36.587c-14.385.001-26.087 11.703-26.087 26.085v48.154c0 14.382 11.702 26.084 26.087 26.084h36.587c3.586 12.298 8.498 24.154 14.656 35.381l-15.859 15.862c-2.854 2.854-2.854 7.482 0 10.332 2.854 2.854 7.478 2.854 10.332 0l19.801-19.805c2.358-2.358 2.822-6.015 1.124-8.887-7.756-13.111-13.611-27.243-17.403-42.01-.831-3.229-3.743-5.487-7.078-5.487h-42.16c-6.326 0-11.474-5.145-11.474-11.47v-48.154c0-6.326 5.148-11.47 11.474-11.47h42.16c3.336 0 6.247-2.258 7.078-5.487 3.825-14.892 9.676-29.02 17.393-41.999 1.709-2.872 1.252-6.54-1.113-8.902l-29.783-29.783c-4.456-4.499-4.456-11.816-.021-16.294l33.943-34.018c4.527-4.474 11.834-4.488 16.29-.029l29.812 29.812c2.355 2.358 5.997 2.829 8.859 1.138 13.297-7.788 27.439-13.65 42.046-17.421 3.225-.831 5.48-3.743 5.48-7.075v-42.089c0-6.365 5.148-11.545 11.474-11.545h48.15c6.326 0 11.47 5.18 11.47 11.545v42.089c0 3.336 2.258 6.247 5.487 7.078 14.549 3.735 28.695 9.597 42.042 17.418 2.872 1.691 6.511 1.22 8.859-1.138l29.812-29.812c4.46-4.46 11.77-4.449 16.258-.004l33.983 34.054c4.56 4.56 4.56 11.706 0 16.265l-29.812 29.808c-2.365 2.362-2.822 6.029-1.113 8.902 7.678 12.912 13.557 27.054 17.478 42.028.842 3.218 3.746 5.459 7.068 5.459h42.16c6.326 0 11.47 5.145 11.47 11.47v7.674c0 4.035 3.272 7.307 7.307 7.307s7.307-3.272 7.307-7.307v-7.674c-.001-14.382-11.703-26.084-26.085-26.084z"/><path d="m460.323 242.877c-4.035 0-7.307 3.272-7.307 7.307v7.746c0 6.326-5.145 11.47-11.47 11.47h-42.16c-3.322 0-6.226 2.241-7.068 5.459-3.871 14.781-9.733 28.934-17.432 42.064-1.68 2.865-1.213 6.504 1.131 8.855l29.773 29.844c4.416 4.372 4.58 11.612-.032 16.173l-33.968 34.043c-4.487 4.487-11.737 4.573-16.265 0l-29.812-29.812c-2.355-2.351-6.001-2.822-8.887-1.124-13.104 7.753-27.243 13.611-42.014 17.411-3.229.828-5.487 3.739-5.487 7.075v42.16c0 6.326-5.145 11.47-11.47 11.47h-48.15c-6.326 0-11.474-5.145-11.474-11.47v-42.16c0-3.332-2.255-6.24-5.48-7.075-14.827-3.832-28.966-9.69-42.017-17.411-2.886-1.709-6.533-1.234-8.887 1.124l-29.841 29.837c-4.13 4.178-11.353 4.863-16.23-.021-36.371-36.618-34.463-34.122-35.745-36.341-2.023-3.496-6.5-4.695-9.983-2.669-3.493 2.023-4.688 6.49-2.669 9.983 2.985 5.157 4.283 5.144 38.057 39.356 10.166 10.158 26.722 10.312 36.93 0l25.873-25.87c11.188 6.133 23.044 11.046 35.378 14.653v36.594c0 14.382 11.702 26.084 26.087 26.084h48.15c14.382 0 26.084-11.702 26.084-26.084v-36.587c12.302-3.589 24.161-8.505 35.381-14.66l25.845 25.845c10.167 10.264 26.703 10.276 36.965.021l33.943-34.018c10.308-10.204 10.227-26.784.032-36.876l-25.823-25.887c6.112-11.221 11.024-23.08 14.653-35.371h36.612c14.382 0 26.084-11.702 26.084-26.084v-7.746c0-4.036-3.272-7.308-7.307-7.308z"/><path d="m233.816 109.236c-68.683 0-124.58 55.897-124.58 124.579 0 68.683 55.897 124.58 124.58 124.58s124.579-55.897 124.579-124.58c0-68.682-55.896-124.579-124.579-124.579zm55.239 119.099-68.318 87.023c-2.046 2.557-5.626 3.507-8.695 2.119-2.996-1.315-4.822-4.53-4.238-7.818l9.864-63.349h-33.392c-2.777 0-5.334-1.607-6.576-4.092-1.169-2.557-.877-5.48.804-7.672l63.641-82.201c1.973-2.484 5.261-3.434 8.257-2.338 2.996 1.023 4.896 3.945 4.823 7.087l-1.9 59.404h29.957c2.777 0 5.334 1.608 6.576 4.092 1.242 2.558.877 5.553-.803 7.745z"/><path d="m289.858 220.59c-1.242-2.484-3.8-4.092-6.576-4.092h-29.957l1.9-59.404c.073-3.142-1.827-6.064-4.823-7.087-2.996-1.096-6.284-.146-8.257 2.338l-63.641 82.201c-1.681 2.192-1.973 5.115-.804 7.672 1.242 2.484 3.8 4.092 6.576 4.092h33.392l-9.864 63.349c-.585 3.288 1.242 6.503 4.238 7.818 3.069 1.388 6.649.438 8.695-2.119l68.318-87.023c1.68-2.192 2.045-5.187.803-7.745zm-63.276 63.642 6.868-44.06c.366-2.119-.292-4.238-1.68-5.845-1.388-1.68-3.361-2.557-5.48-2.63h-27.108l40.698-52.535-1.461 44.425c-.073 1.973.73 3.872 2.046 5.334 1.388 1.388 3.288 2.192 5.261 2.192h22.504z"/></g></g></svg>