<svg id="Layer_1" enable-background="new 0 0 100 100" viewBox="0 0 100 100" xmlns="http://www.w3.org/2000/svg"><path d="m90.27108 11.5977125c-.5500641-.080019-1.0900574-.159977-1.6200409-.2500067-14.920433-2.2500591-26.5707054-4.9701014-35.5809517-8.3002062-1.9800301-.7299995-4.1601448-.7299995-6.1401749 0-9.330265 3.4501033-21.5005665 6.250165-37.2009926 8.5502129-2.6800637.3900251-4.7100854 2.7300529-4.7000751 5.4401464.0499887 26.3907108 5.6201429 46.5912552 16.930439 61.0016098 6.1801548 7.8802109 14.080328 14.0303955 23.7306042 18.510498 1.3700333.6300183 2.8401031.9500333 4.310112.9500333s2.9400787-.320015 4.310112-.9500351c27.2906952-12.6803284 40.591095-38.6910248 40.6610413-79.5121059.0100097-2.7100935-2.0200119-5.0501213-4.7000733-5.4401465zm-39.0610275 78.2520647c-.3900223.1799927-.8000679.2700272-1.2100525.2700272s-.8200302-.0900345-1.2100525-.2700272c-8.8802414-4.1301193-16.060421-9.7502594-21.6105556-17.0304184-9.7402459-12.7203674-14.5103913-30.4908561-14.760398-54.1614628 15.4404078-2.3300781 27.5807419-5.1801291 37.0709801-8.6902313.1699915-.0700092.3400393-.0999775.510026-.0999775s.3400345.0299683.510025.0999775c8.3602028 3.0901089 18.7705154 5.6701937 31.690834 7.8302231 1.7500458.2999954 3.5400696.5800323 5.3801498.8600082-.3900298 37.2110043-11.9703521 59.8516102-36.3709563 71.1918812z"/><path d="m24.8300171 47c0 13.8999023 11.2700195 25.1699219 25.1699829 25.1699219v21.630127c-.9599609 0-1.9199829-.1999512-2.7999878-.6201172-9.5499878-4.4499512-16.9699707-10.4499512-22.6400146-17.7399902-11.5399781-14.8500977-15.7899781-35.0498048-15.8499756-58.3300782 0-.9399414.710022-1.7397461 1.6499634-1.8798828 14.5700073-2.1298828 27.5100098-4.8901367 37.8000488-8.6999512.5999756-.2199707 1.2199707-.3400879 1.8399658-.3400879v15.6401367c-13.8999634 0-25.1699829 11.2700196-25.1699829 25.1699219z"/><path d="m50 74.6699219c-15.2573242 0-27.6699219-12.4125977-27.6699219-27.6699219s12.4125977-27.6699219 27.6699219-27.6699219 27.6699219 12.4125977 27.6699219 27.6699219-12.4125977 27.6699219-27.6699219 27.6699219zm0-50.3398438c-12.5 0-22.6699219 10.1699219-22.6699219 22.6699219s10.1699219 22.6699219 22.6699219 22.6699219 22.6699219-10.1699219 22.6699219-22.6699219-10.1699219-22.6699219-22.6699219-22.6699219z"/><path d="m65.001442 40.0400009-17.6679802 17.6717835c-.5549812.551178-1.3076134.8628769-2.0906601.8628769-.78685 0-1.5394821-.3116989-2.0944633-.8628769l-8.1497803-8.1535835c-.5777893-.5777664-.5777893-1.5128708 0-2.0906601l2.0906639-2.0906601c.5777893-.5777664 1.5128708-.5777664 2.0906601 0l6.0629196 6.0591164 15.5773163-15.5773164c.5777893-.5777931 1.5128937-.5777931 2.0906601 0l2.0906639 2.0906601c.5777893.5777893.5777893 1.5128708 0 2.0906601z"/></svg>