<?xml version="1.0" encoding="UTF-8"?>
<svg id="Layer_2" xmlns="http://www.w3.org/2000/svg" viewBox="0 0 503.18 518.5">
  <defs>
    <style>
      .cls-1 {
        fill: #00b2ca;
      }
    </style>
  </defs>
  <g id="Layer_2-2" data-name="Layer_2">
    <g id="Ceiling_Height">
      <g>
        <g>
          <path class="cls-1" d="M35.53,505.5c-12.43,0-22.54-10.11-22.54-22.54s10.11-22.54,22.54-22.54h41.82v-75.23c0-5.67,4.61-10.29,10.28-10.29h57.48c5.67,0,10.28,4.62,10.28,10.29v75.23h57.18v-173.84c0-5.67,4.61-10.29,10.28-10.29h57.47c5.67,0,10.29,4.62,10.29,10.29v173.84h57.67V195.93c0-5.67,4.64-10.28,10.34-10.28h57.42c5.67,0,10.29,4.61,10.29,10.28v264.49h41.31c12.43,0,22.54,10.11,22.54,22.54s-10.11,22.54-22.54,22.54H35.53ZM358.63,186.59c-5.18,0-9.39,4.19-9.39,9.33v264.49h76.16V195.93c0-5.15-4.19-9.33-9.34-9.33h-57.42ZM222.86,277.24c-5.15,0-9.34,4.19-9.34,9.34v173.84h76.16v-173.84c0-5.15-4.19-9.34-9.34-9.34h-57.47ZM87.63,375.85c-5.15,0-9.33,4.19-9.33,9.34v75.23h76.15v-75.23c0-5.15-4.19-9.34-9.33-9.34h-57.48Z"/>
          <path d="M467.65,466.92c8.84,0,16.03,7.19,16.03,16.03s-7.19,16.04-16.03,16.04H35.54c-8.84,0-16.03-7.2-16.03-16.04s7.19-16.03,16.03-16.03h432.11M416.05,179.15h-57.42c-9.28,0-16.84,7.53-16.84,16.78v257.99h-44.67v-167.34c0-9.26-7.53-16.79-16.79-16.79h-57.47c-9.25,0-16.78,7.53-16.78,16.79v167.34h-44.18v-68.73c0-9.25-7.53-16.79-16.78-16.79h-57.48c-9.25,0-16.78,7.54-16.78,16.79v68.73h-35.32c-16.01,0-29.03,13.03-29.03,29.03s13.02,29.04,29.03,29.04h432.11c16.01,0,29.03-13.03,29.03-29.04s-13.02-29.03-29.03-29.03h-34.81V195.93c0-9.25-7.54-16.78-16.79-16.78h0ZM355.74,453.92V195.93c0-1.54,1.33-2.83,2.89-2.83h57.42c1.57,0,2.84,1.27,2.84,2.83v257.99h-63.16ZM220.01,453.92v-167.34c0-1.55,1.31-2.84,2.84-2.84h57.47c1.57,0,2.84,1.28,2.84,2.84v167.34h-63.16ZM84.8,453.92v-68.73c0-1.57,1.27-2.84,2.83-2.84h57.48c1.59,0,2.83,1.25,2.83,2.84v68.73h-63.15Z"/>
        </g>
        <g>
          <path class="cls-1" d="M374.46,131.95c-4.95,0-8.99-4.03-8.99-8.98v-43.86h-16.41c-3.25,0-6.2-1.79-7.71-4.68-1.5-2.88-1.28-6.33.57-8.98l38.26-55.21c1.62-2.34,4.29-3.74,7.13-3.74s5.55,1.4,7.17,3.74l38.26,55.2c1.86,2.67,2.07,6.11.57,9-1.5,2.88-4.45,4.67-7.7,4.67h-16.41v43.86c0,4.95-4.03,8.98-8.98,8.98h-25.75Z"/>
          <path d="M387.31,13c.74,0,1.42.35,1.83.95l38.28,55.22c.47.67.51,1.52.12,2.27-.39.74-1.09,1.17-1.93,1.17h-22.91v50.36c0,1.35-1.14,2.48-2.48,2.48h-25.75c-1.35,0-2.48-1.14-2.48-2.48v-50.36h-22.91c-.84,0-1.55-.43-1.94-1.16-.39-.75-.35-1.61.15-2.31l38.25-55.19c.41-.59,1.08-.95,1.79-.95M387.31,0c-4.97,0-9.63,2.44-12.47,6.54l-38.25,55.19c-3.24,4.65-3.62,10.67-1,15.71,2.63,5.04,7.79,8.17,13.47,8.17h9.91v37.36c0,8.54,6.95,15.48,15.48,15.48h25.75c8.53,0,15.48-6.95,15.48-15.48v-37.36h9.91c5.68,0,10.84-3.13,13.46-8.17,2.63-5.05,2.25-11.07-.99-15.71l-38.26-55.19c-2.83-4.1-7.52-6.54-12.51-6.54h0Z"/>
        </g>
        <g>
          <path class="cls-1" d="M238.69,223.4c-4.93,0-8.93-4.01-8.93-8.93v-43.91h-16.41c-3.26,0-6.21-1.78-7.69-4.66-1.55-2.93-1.34-6.35.51-9l38.26-55.16c1.63-2.34,4.31-3.75,7.17-3.75s5.57,1.39,7.15,3.71l38.28,55.17c1.86,2.67,2.08,6.11.57,9-.74,1.43-1.84,2.61-3.18,3.42-1.36.82-2.95,1.26-4.58,1.26h-16.41v43.91c0,4.93-4.01,8.93-8.94,8.93h-25.8Z"/>
          <path d="M251.59,104.49c.74,0,1.41.33,1.78.88l.03.04.03.04,38.27,55.16c.47.67.52,1.52.12,2.29-.19.36-.44.64-.75.83-.25.15-.66.33-1.23.33h-22.91v50.41c0,1.34-1.09,2.43-2.43,2.43h-25.8c-1.32,0-2.43-1.11-2.43-2.43v-50.41h-22.91c-.85,0-1.54-.41-1.92-1.14l-.03-.07-.04-.07c-.38-.71-.33-1.5.16-2.2l38.24-55.12c.42-.6,1.11-.97,1.84-.97M251.59,91.49c-4.99,0-9.66,2.44-12.51,6.54l-38.25,55.14c-3.26,4.67-3.62,10.69-.96,15.7,2.6,5.05,7.77,8.18,13.47,8.18h9.91v37.41c0,8.52,6.93,15.43,15.43,15.43h25.8c8.51,0,15.43-6.92,15.43-15.43v-37.41h9.91c2.87,0,5.6-.79,7.94-2.19,2.34-1.42,4.28-3.46,5.58-5.98,2.62-5.04,2.24-11.06-1-15.7l-38.25-55.13c-2.8-4.11-7.49-6.55-12.52-6.55h0Z"/>
        </g>
        <g>
          <path class="cls-1" d="M103.53,330.13c-4.96,0-9-4.03-9-8.99v-43.85h-16.41c-3.25,0-6.2-1.79-7.69-4.67-1.53-2.89-1.32-6.33.54-9.03l38.28-55.16c1.63-2.35,4.29-3.76,7.12-3.76s5.55,1.4,7.18,3.75l38.25,55.18c1.86,2.67,2.08,6.12.57,9.01-.74,1.42-1.84,2.61-3.2,3.43-1.34.81-2.9,1.24-4.49,1.24h-16.41v43.85c0,4.96-4.04,8.99-9,8.99h-25.74Z"/>
          <path d="M116.37,211.17c.74,0,1.42.36,1.84.96l38.26,55.2c.48.68.53,1.54.12,2.31-.23.45-.56.71-.78.85-.34.2-.72.31-1.13.31h-22.91v50.35c0,1.38-1.12,2.49-2.49,2.49h-25.74c-1.38,0-2.49-1.12-2.49-2.49v-50.35h-22.91c-.82,0-1.54-.44-1.93-1.17l-.03-.05-.03-.05c-.37-.69-.3-1.53.17-2.23l38.27-55.15c.42-.6,1.08-.96,1.78-.96M116.37,198.17c-4.97,0-9.62,2.45-12.46,6.55l-38.3,55.19c-3.23,4.71-3.59,10.73-.95,15.7,2.62,5.05,7.79,8.18,13.46,8.18h9.91v37.35c0,8.55,6.95,15.49,15.49,15.49h25.74c8.55,0,15.49-6.95,15.49-15.49v-37.35h9.91c2.84,0,5.54-.78,7.88-2.19,2.32-1.42,4.28-3.46,5.58-5.98,2.62-5.04,2.24-11.06-1-15.71l-38.25-55.18c-2.84-4.1-7.52-6.55-12.52-6.55h0Z"/>
        </g>
      </g>
    </g>
  </g>
</svg>