<?xml version="1.0" encoding="UTF-8"?>
<svg id="Layer_2" xmlns="http://www.w3.org/2000/svg" viewBox="0 0 527.8 525">
  <defs>
    <style>
      .cls-1 {
        fill: #00b2ca;
      }
    </style>
  </defs>
  <g id="Layer_2-2" data-name="Layer_2">
    <g id="Parking">
      <g>
        <g>
          <path class="cls-1" d="M13.55,512c-.3,0-.55-.25-.55-.55v-17.79c0-10.1,8.22-18.32,18.33-18.32h26.12V13.55c0-.3.26-.55.56-.55s.55.26.55.55v26.12h43.34v-8.33c0-10.11,8.23-18.34,18.34-18.34h124.48c10.11,0,18.33,8.23,18.33,18.34v124.46c0,10.11-8.22,18.34-18.33,18.34h-124.48c-10.11,0-18.34-8.23-18.34-18.34v-8.33h-43.34v327.87h26.12c10.11,0,18.33,8.22,18.33,18.32v17.79c0,.3-.25.55-.56.55H13.55ZM58.56,146.36h43.34V40.78h-43.34v105.58Z"/>
          <path d="M244.72,19.5c6.52,0,11.83,5.31,11.83,11.84v124.46c0,6.53-5.31,11.84-11.83,11.84h-124.48c-6.53,0-11.84-5.31-11.84-11.84V31.34c0-6.53,5.31-11.84,11.84-11.84h124.48M84.68,481.84c6.52,0,11.83,5.3,11.83,11.82v11.84H19.5v-11.84c0-6.52,5.31-11.82,11.83-11.82h53.35M244.72,6.5h-124.48c-13.7,0-24.84,11.14-24.84,24.84v1.83h-30.34V13.55c0-3.89-3.17-7.05-7.05-7.05s-7.06,3.16-7.06,7.05v455.29h-19.62c-13.69,0-24.83,11.14-24.83,24.82v17.79c0,3.89,3.16,7.05,7.05,7.05h88.9c3.9,0,7.06-3.16,7.06-7.05v-17.79c0-13.68-11.13-24.82-24.83-24.82h-19.62V153.97h30.34v1.83c0,13.7,11.14,24.84,24.84,24.84h124.48c13.69,0,24.83-11.14,24.83-24.84V31.34c0-13.7-11.14-24.84-24.83-24.84h0ZM65.06,139.86V47.28h30.34v92.58h-30.34Z"/>
        </g>
        <g>
          <path class="cls-1" d="M168.28,60.96h22.33c9.25,0,16.78,7.52,16.78,16.77,0-9.25-7.53-16.77-16.78-16.77h-22.33v68.14V60.96Z"/>
          <path d="M190.61,54.46h-28.83v81.14h13v-34.6h15.83c12.84,0,23.28-10.44,23.28-23.27s-10.44-23.27-23.28-23.27h0ZM174.78,88v-20.54h15.83c5.67,0,10.28,4.61,10.28,10.27s-4.61,10.27-10.28,10.27h-15.83Z"/>
        </g>
      </g>
      <g id="_x30_7_Smartcar">
        <g>
          <g>
            <path class="cls-1" d="M434.65,511.92c-8.18,0-14.83-6.62-14.83-14.76v-32.49h-208.43v32.49c0,8.14-6.62,14.76-14.76,14.76h-30.37c-8.14,0-14.76-6.62-14.76-14.76v-32.49h-18.08c-1.34,0-2.58-.42-3.6-1.12h371.55c-1.02.71-2.26,1.12-3.6,1.12h-18.08v32.49c0,8.14-6.62,14.76-14.76,14.76h-30.29ZM128.27,462c-.71-1.01-1.12-2.23-1.12-3.54v-80.78c0-12.45,5.04-24.06,14.2-32.7l11.9-11.23h-19.9c-10.55,0-19.13-8.58-19.13-19.13s8.58-19.14,19.13-19.14h2.68c7,0,13.43,3.91,16.8,10.2l6.36,11.89,34.7-80.56.05-.14c3.65-9.65,12.98-16.14,23.23-16.14h196.85c10.25,0,19.58,6.48,23.23,16.14l.05.14,33.11,76.56,6.66-9.68c3.62-5.27,9.56-8.41,15.9-8.41h2.68c10.55,0,19.13,8.58,19.13,19.14,0,5.13-1.99,9.94-5.59,13.54-3.6,3.6-8.42,5.59-13.54,5.59h-17.71l11.9,11.23c9.16,8.64,14.2,20.25,14.2,32.7v80.78c0,1.32-.42,2.54-1.12,3.54v-84.32c0-24.22-19.71-43.93-43.93-43.93H172.2c-24.22,0-43.93,19.71-43.93,43.93v84.32ZM477.07,334.84l-40.97-97.72c-3.46-9.13-12.31-15.26-22.07-15.26h-196.84c-9.71,0-18.59,6.12-22.13,15.23l-40.9,97.74,11.25-1.62c4.59-.38,62.88-.64,142.08-.64,84,0,153.31.28,158.37.64l11.23,1.62Z"/>
            <path d="M136.04,301.99c4.59,0,8.83,2.59,11.07,6.76l6.12,11.45-.65,1.56-2.3,5.51h-16.92c-6.97,0-12.64-5.67-12.64-12.63s5.67-12.64,12.64-12.64h2.68M495.67,301.99c6.97,0,12.64,5.67,12.64,12.64,0,3.39-1.31,6.57-3.69,8.95-2.38,2.38-5.56,3.69-8.95,3.69h-14.72l-2.31-5.51-2.25-5.35,6.05-8.81c2.41-3.5,6.35-5.59,10.54-5.59h2.68M473.2,470.05v27.11c0,4.55-3.7,8.26-8.26,8.26h-30.3c-4.59,0-8.33-3.7-8.33-8.26v-27.11h46.88M204.89,470.05v27.11c0,4.55-3.7,8.26-8.26,8.26h-30.37c-4.55,0-8.26-3.7-8.26-8.26v-27.11h46.88M414.03,214.24h-196.85c-12.92,0-24.72,8.19-29.31,20.34l-29.31,68.03c-4.31-8.05-12.78-13.63-22.53-13.63h-2.68c-14.12,0-25.64,11.51-25.64,25.64s11.44,25.63,25.64,25.63h3.53c-9.96,9.39-16.24,22.67-16.24,37.43v80.78c0,7.06,5.72,12.71,12.78,12.71h11.58v25.99c0,11.72,9.53,21.26,21.26,21.26h30.37c11.72,0,21.26-9.53,21.26-21.26v-25.99h195.43v25.99c0,11.72,9.6,21.26,21.33,21.26h30.3c11.72,0,21.26-9.53,21.26-21.26v-25.99h11.58c7.06,0,12.78-5.65,12.78-12.71v-80.78c0-14.76-6.29-28.04-16.24-37.43h1.34c14.2,0,25.64-11.44,25.64-25.63s-11.51-25.64-25.64-25.64h-2.68c-8.83,0-16.6,4.45-21.26,11.23l-28.39-65.63c-4.59-12.15-16.38-20.34-29.31-20.34h0ZM164.57,326.77l36.51-87.24c2.54-6.64,8.97-11.16,16.1-11.16h196.84c7.06,0,13.56,4.52,16.03,11.16l36.58,87.24c-3.04-.44-82.5-.69-159.16-.69-71.01,0-139.61.21-142.91.69h0ZM134.77,457.05v-79.36c0-20.62,16.81-37.43,37.43-37.43h286.81c20.62,0,37.43,16.81,37.43,37.43v79.36H134.77Z"/>
          </g>
          <g>
            <path class="cls-1" d="M181.24,422.52c-12.85,0-23.3-10.45-23.3-23.3s10.45-23.37,23.3-23.37,23.37,10.48,23.37,23.37-10.49,23.3-23.37,23.3Z"/>
            <path d="M181.24,382.35c9.3,0,16.87,7.57,16.87,16.87s-7.57,16.8-16.87,16.8-16.8-7.54-16.8-16.8,7.54-16.87,16.8-16.87M181.24,369.35c-16.45,0-29.8,13.42-29.8,29.87s13.35,29.8,29.8,29.8,29.87-13.42,29.87-29.8-13.42-29.87-29.87-29.87h0Z"/>
          </g>
          <g>
            <path class="cls-1" d="M448.56,422.52c-12.85,0-23.3-10.45-23.3-23.3s10.45-23.37,23.3-23.37,23.3,10.48,23.3,23.37-10.45,23.3-23.3,23.3Z"/>
            <path d="M448.56,382.35c9.26,0,16.8,7.57,16.8,16.87s-7.54,16.8-16.8,16.8-16.8-7.54-16.8-16.8,7.54-16.87,16.8-16.87M448.56,369.35c-16.45,0-29.8,13.42-29.8,29.87s13.35,29.8,29.8,29.8,29.8-13.42,29.8-29.8-13.35-29.87-29.8-29.87h0Z"/>
          </g>
          <g>
            <path class="cls-1" d="M250.26,399.74c-.31,0-.56-.25-.56-.56s.25-.56.56-.56h129.31c.15,0,.29.06.4.16.11.11.16.24.16.4,0,.31-.25.56-.56.56h-129.31Z"/>
            <path d="M379.57,392.11h-129.31c-3.9,0-7.06,3.16-7.06,7.06s3.16,7.06,7.06,7.06h129.31c3.9,0,7.06-3.16,7.06-7.06,0-3.9-3.16-7.06-7.06-7.06h0Z"/>
          </g>
        </g>
      </g>
    </g>
  </g>
</svg>