<?xml version="1.0" encoding="UTF-8"?>
<svg id="Layer_2" xmlns="http://www.w3.org/2000/svg" viewBox="0 0 525.16 525">
  <defs>
    <style>
      .cls-1 {
        fill: #00b2ca;
      }
    </style>
  </defs>
  <g id="Layer_2-2" data-name="Layer_2">
    <g id="Furnishing">
      <g>
        <g>
          <path class="cls-1" d="M471.28,512c-.25,0-.46-.22-.46-.47v-231.6H200.79v231.6c0,.26-.22.47-.47.47H53.95c-.32,0-.55-.2-.55-.47v-231.69h-18.33c-12.17,0-22.07-9.9-22.07-22.07v-2.57c0-12.18,9.9-22.08,22.07-22.08h.62c1.03-.04,5.27-.04,16.6-.05h7.87c16.63-.01,44.09-.03,89.26-.11h6.49v-36.49h-81.87c-12.18,0-22.08-9.91-22.08-22.08V35.15c0-12.22,9.91-22.15,22.08-22.15h229.27c12.22,0,22.15,9.94,22.15,22.15v139.21c0,12.18-9.94,22.08-22.15,22.08h-81.87v36.49h22.02c2.03,0,51.99,0,246.61.16,5.9,0,11.45,2.3,15.63,6.47,4.16,4.17,6.46,9.72,6.46,15.61v2.57c0,12.17-9.91,22.07-22.08,22.07h-18.33v231.69c0,.26-.22.47-.47.47ZM102.79,418.01c-6.38,0-11.57,5.2-11.57,11.58s5.19,11.57,11.57,11.57h46.84c6.39,0,11.58-5.19,11.58-11.57s-5.2-11.58-11.58-11.58h-46.84ZM54.35,394.97h145.5v-115.05H54.35v115.05ZM156.85,232.94h63.64v-36.49h-63.64v36.49ZM74.04,13.94c-11.65,0-21.14,9.52-21.14,21.22v111.84h271.62V35.15c0-11.7-9.52-21.22-21.22-21.22H74.04Z"/>
          <path d="M318.96,153.49v20.87c0,8.59-7.02,15.58-15.65,15.58H74.04c-8.59,0-15.58-6.99-15.58-15.58v-20.87h260.51M150.35,239.44h0s13,0,13,0h80.11c2.03,0,51.99,0,246.61.16,4.16,0,8.08,1.62,11.01,4.55,2.95,2.95,4.57,6.87,4.57,11.03v2.57c0,8.59-6.99,15.57-15.58,15.57h-24.83v.09H59.9v-.09h-24.83c-8.59,0-15.57-6.99-15.57-15.57v-2.57c0-8.59,6.99-15.58,15.57-15.58h.84c.92-.04,5.46-.04,16.41-.05h2.74s4.97,0,4.97,0c16.5,0,44.11-.03,89.41-.11h.91M194.29,401.47v104.03H59.9v-104.03h134.39M102.79,447.66h46.84c9.97,0,18.08-8.11,18.08-18.07s-8.11-18.08-18.08-18.08h-46.84c-9.96,0-18.07,8.11-18.07,18.08s8.11,18.07,18.07,18.07M303.31,6.5H74.04c-15.76,0-28.58,12.85-28.58,28.65v139.21c0,15.76,12.82,28.58,28.58,28.58h75.37v23.49c-50.13.09-78.45.1-94.36.11-14.1,0-18.35,0-19.57.05h-.41c-15.75,0-28.57,12.82-28.57,28.58v2.57c0,15.76,12.82,28.57,28.57,28.57h11.83v225.19c0,3.85,3.13,6.97,7.05,6.97h146.37c3.85,0,6.97-3.13,6.97-6.97v-225.1h257.02v225.1c0,3.85,3.13,6.97,6.96,6.97s6.97-3.13,6.97-6.97v-225.19h11.83c15.76,0,28.58-12.81,28.58-28.57v-2.57c0-7.63-2.98-14.81-8.37-20.21-5.4-5.39-12.58-8.37-20.21-8.37-196.86-.16-246.15-.16-246.61-.16h-15.52v-23.49h75.37c15.8,0,28.65-12.82,28.65-28.58V35.15c0-15.8-12.85-28.65-28.65-28.65h0ZM59.4,140.49V35.15c0-8.11,6.57-14.72,14.64-14.72h229.27c8.11,0,14.72,6.61,14.72,14.72v105.34H59.4ZM163.35,226.44v-23.49h50.64v23.49h-50.64ZM60.85,388.47v-102.05h132.5v102.05H60.85ZM102.79,434.66c-2.75,0-5.07-2.32-5.07-5.07s2.32-5.08,5.07-5.08h46.84c2.75,0,5.08,2.32,5.08,5.08s-2.33,5.07-5.08,5.07h-46.84Z"/>
        </g>
        <g>
          <path class="cls-1" d="M102.83,314.02c-.26,0-.47-.22-.47-.47s.22-.47.47-.47h46.79c.26,0,.47.22.47.47s-.22.47-.47.47h-46.79Z"/>
          <path d="M149.62,306.58h-46.79c-3.85,0-6.97,3.13-6.97,6.97s3.13,6.97,6.97,6.97h46.79c3.85,0,6.97-3.13,6.97-6.97s-3.13-6.97-6.97-6.97h0Z"/>
        </g>
      </g>
    </g>
  </g>
</svg>