<?xml version="1.0" encoding="UTF-8"?>
<svg id="Layer_2" xmlns="http://www.w3.org/2000/svg" viewBox="0 0 711.22 517.65">
  <defs>
    <style>
      .cls-1 {
        fill: #00b2ca;
      }
    </style>
  </defs>
  <g id="Layer_2-2" data-name="Layer_2">
    <g id="Water_Access">
      <g>
        <path class="cls-1" d="M583.67,504.65c-26.89,0-40.24-13.57-57.54-34.27-13.88-16.65-28.23-33.87-56.63-33.87s-42.58,17.19-56.52,33.82l-.25.31c-14.69,17.5-28.6,34.01-57.26,34.01s-43.19-17.34-57.26-34.12c-14.64-17.5-28.46-34.02-56.78-34.02s-42.56,17.19-56.5,33.8l-.21.25c-14.7,17.51-28.61,34.09-57.32,34.09-3.93,0-7.58-.3-10.99-.86V115.44h-60.28c-10.27,0-18.62-8.42-18.62-18.76V31.83c0-10.38,8.35-18.83,18.62-18.83h286.86c10.27,0,18.62,8.45,18.62,18.83v64.86c0,10.34-8.35,18.76-18.62,18.76h-60.35v73.08h117.06v-12.02c0-3.43,2.76-6.22,6.15-6.22h53.24c3.43,0,6.22,2.79,6.22,6.22v36.75h82.22c38.88,0,70.51,31.92,70.51,71.15v209.26l-.19.13c-10.13,7.3-21.31,10.84-34.18,10.84ZM117.44,503.65l10.21-.03c28.08-.09,43.15-18.07,56.44-33.93,14.05-16.82,28.57-34.21,57.34-34.21,9.15,0,18.23,1.97,25.55,5.53l14.63,7.12V115.44H117.44v388.21ZM465.31,293.58h72.6c.28,0,.52.24.52.52v188.6l3.09,3c13.01,12.56,25.61,17.91,42.15,17.91,10.23,0,19.73-2.47,28.22-7.34l5.12-2.9v-208.97c0-38.66-31.17-70.12-69.48-70.12h-82.22v79.29ZM282.64,452.17l3.04,2.99c4.64,4.56,8.96,9.56,13.34,14.71,13.87,16.58,28.25,33.76,56.44,33.76s42.66-17.18,56.57-33.79l.17-.21c14.06-16.82,28.57-34.15,57.29-34.15,22.73,0,36.48,10.25,50.12,25.65l17.79,20.07v-186.58h-72.09v19.36c0,3.39-2.79,6.15-6.22,6.15h-53.24c-3.39,0-6.14-2.76-6.14-6.15v-12.02h-117.07v150.21ZM282.64,300.92h117.07v-111.36h-117.07v111.36ZM111.63,502.77c-16.95-4.4-28.06-16.23-41.59-32.42-13.94-16.64-28.35-33.84-56.53-33.84-.28,0-.51-.23-.51-.51s.23-.52.51-.52c28.83,0,43.32,17.42,57.33,34.26,9.33,11.14,18.11,21.63,30.82,28.02l9.97,5.01ZM635.95,474.75c.63-.74,3.59-4.24,3.59-4.24,12.41-14.67,23.11-27.33,40.8-32.61,2.67-.83,5.4-1.43,8.16-1.81,2.91-.41,5.92-.61,9.2-.61.28,0,.52.24.52.52,0,.21-.31.51-.52.51-6.2,0-11.77.77-17.03,2.36-17.71,5.25-28.92,18.67-39.77,31.64-5.44,6.5-11,13.16-17.4,18.81l12.45-14.57Z"/>
        <path d="M342.99,19.5c6.68,0,12.12,5.53,12.12,12.33v64.86c0,6.76-5.44,12.26-12.12,12.26h-54.88s-13-.01-13-.01H56.13c-6.68,0-12.12-5.5-12.12-12.26V31.83c0-6.8,5.44-12.33,12.12-12.33h286.86M458.81,176.79v136.84h-52.6v-130.57h-.01v-6.27h52.61M342.99,6.5H56.13c-13.85,0-25.12,11.36-25.12,25.33v64.85c0,13.93,11.27,25.26,25.12,25.26h53.78v372.69l-5.33-2.68c-11.51-5.79-19.88-15.79-28.74-26.37-14.28-17.16-30.46-36.6-62.33-36.6-3.87,0-7.01,3.15-7.01,7.02s3.14,7.01,7.01,7.01c25.15,0,37.97,15.31,51.54,31.51,17.94,21.46,32.89,36.63,62.35,36.63,31.75,0,47.29-18.52,62.33-36.44l.14-.17c13.6-16.22,26.41-31.53,51.56-31.53s37.56,14.68,51.78,31.68c14.34,17.09,30.58,36.46,62.26,36.46s47.29-18.52,62.32-36.43l.14-.18c13.6-16.22,26.42-31.53,51.57-31.53s38.12,15.32,51.64,31.54c17.91,21.43,32.88,36.6,62.53,36.6,14.28,0,26.71-3.95,37.98-12.07l1.01-.69c9.09-6.8,16.27-15.39,23.23-23.71,10.7-12.8,20.81-24.89,36.66-29.59,4.64-1.4,9.61-2.08,15.15-2.08,3.8,0,7.02-3.21,7.02-7.01s-3.15-7.02-7.02-7.02c-3.56,0-6.9.22-10.09.67-3.19.44-6.22,1.12-9.13,2.02-19.54,5.83-31.37,19.82-43.89,34.63-1.19,1.4-2.38,2.82-3.58,4.23l-6.47,7.57v-193.69c0-42.82-34.55-77.65-77.01-77.65h-75.72v-30.25c0-7.02-5.71-12.72-12.72-12.72h-53.24c-6.97,0-12.65,5.7-12.65,12.72v5.52h-104.06v-60.08h53.85c13.85,0,25.12-11.34,25.12-25.26V31.83c0-13.97-11.27-25.33-25.12-25.33h0ZM123.94,497.13V121.94h151.17v315.8l-5.28-2.57c-8.19-3.99-18.28-6.19-28.4-6.19-31.81,0-48.02,19.41-62.32,36.53-12.99,15.5-26.43,31.53-51.48,31.61h-3.69ZM289.14,294.42v-98.36h104.07v98.36h-104.07ZM471.81,287.08v-66.29h75.72c34.73,0,62.98,28.54,62.98,63.62v205.18l-1.85,1.05c-7.5,4.3-15.91,6.48-24.99,6.48-14.9,0-25.8-4.66-37.62-16.07l-1.12-1.09v-185.86c0-3.87-3.15-7.02-7.02-7.02h-66.1ZM405.85,326.63h53.24c7.01,0,12.72-5.67,12.72-12.65v-12.86h59.09v162.95l-6.43-7.25c-12.81-14.46-28.34-27.84-54.98-27.84-31.81,0-48.01,19.41-62.32,36.53l-.12.15c-13.55,16.18-26.35,31.46-51.59,31.46s-37.95-15.29-51.49-31.47c-4.23-4.97-8.78-10.26-13.73-15.13l-1.1-1.08v-140.98h104.07v5.52c0,6.98,5.67,12.65,12.64,12.65h0Z"/>
      </g>
    </g>
  </g>
</svg>