<?xml version="1.0" encoding="UTF-8"?>
<svg id="Layer_2" xmlns="http://www.w3.org/2000/svg" viewBox="0 0 519.14 525">
  <defs>
    <style>
      .cls-1 {
        fill: #00b2ca;
      }
    </style>
  </defs>
  <g id="Layer_2-2" data-name="Layer_2">
    <g id="Unit_Type">
      <g>
        <g>
          <path class="cls-1" d="M13.55,512c-.3,0-.55-.25-.55-.55s.25-.56.55-.56h35.19V202.84c0-13.33,10.84-24.17,24.16-24.17h68.92v-114.46h-8.45c-8.98,0-16.29-7.34-16.29-16.37v-18.55c0-8.99,7.31-16.3,16.29-16.3h252.4c8.99,0,16.3,7.31,16.3,16.3v18.55c0,9.02-7.31,16.37-16.3,16.37h-8.44v114.46h68.92c13.32,0,24.16,10.84,24.16,24.17v308.06h35.19c.06,0,.21,0,.4.19.1.1.15.21.15.37,0,.3-.25.55-.56.55H13.55ZM319.2,371.97c.3,0,.55.26.55.56v138.37h56.48V64.21h-233.31v446.68h56.48v-138.37c0-.3.25-.56.55-.56h119.26ZM285.46,418.76c-8.55,0-15.5,6.96-15.5,15.51v15.5c0,8.55,6.96,15.5,15.5,15.5s15.51-6.96,15.51-15.5v-15.5c0-8.55-6.96-15.51-15.51-15.51Z"/>
          <path d="M385.76,19.5c5.4,0,9.8,4.39,9.8,9.8v18.55c0,5.44-4.39,9.87-9.8,9.87h-252.4c-5.4,0-9.79-4.43-9.79-9.87v-18.55c0-5.4,4.39-9.8,9.79-9.8h252.4M446.25,185.17c9.74,0,17.66,7.93,17.66,17.67v302.66h-81.18V185.17h63.52M136.41,185.17v320.33H55.24V202.84c0-9.74,7.92-17.67,17.66-17.67h63.52M313.25,378.47v127.03h-107.36v-127.03h107.36M285.46,471.78c12.14,0,22.01-9.87,22.01-22v-15.5c0-12.14-9.88-22.01-22.01-22.01s-22,9.88-22,22.01v15.5c0,12.13,9.87,22,22,22M385.76,6.5h-252.4c-12.57,0-22.79,10.23-22.79,22.8v18.55c0,12.61,10.22,22.87,22.79,22.87h1.95v101.46h-62.42c-16.9,0-30.66,13.75-30.66,30.67v301.56H13.55c-3.89,0-7.05,3.16-7.05,7.06s3.16,7.05,7.05,7.05h492.03c3.9,0,7.06-3.16,7.06-7.05,0-1.88-.73-3.64-2.07-4.98-1.34-1.34-3.11-2.08-4.98-2.08h-28.69V202.84c0-16.91-13.75-30.67-30.66-30.67h-62.42v-101.46h1.94c12.57,0,22.8-10.26,22.8-22.87v-18.55c0-12.57-10.23-22.8-22.8-22.8h0ZM149.41,504.4V70.71h220.31v433.68h-43.48v-131.87c0-3.89-3.16-7.06-7.05-7.06h-119.26c-3.89,0-7.05,3.16-7.05,7.06v131.87h-43.48ZM285.46,458.78c-4.96,0-9-4.04-9-9v-15.5c0-4.97,4.05-9.01,9-9.01s9.01,4.05,9.01,9.01v15.5c0,4.97-4.05,9-9.01,9h0Z"/>
        </g>
        <g>
          <path class="cls-1" d="M200.98,192.3c-6.23,0-11.31-5.07-11.31-11.31v-36.46c0-6.28,5.07-11.4,11.31-11.4h24.01c6.29,0,11.4,5.11,11.4,11.4v36.46c0,6.24-5.11,11.31-11.4,11.31h-24.01ZM200.98,134.24c-5.63,0-10.2,4.62-10.2,10.29v36.46c0,5.63,4.58,10.2,10.2,10.2h24.01c5.68,0,10.29-4.58,10.29-10.2v-36.46c0-5.68-4.62-10.29-10.29-10.29h-24.01Z"/>
          <path d="M224.99,126.64h-24.01c-9.82,0-17.81,8.03-17.81,17.9v36.46c0,9.82,7.99,17.81,17.81,17.81h24.01c9.87,0,17.9-7.99,17.9-17.81v-36.46c0-9.87-8.03-17.9-17.9-17.9h0ZM200.98,184.7c-2.08,0-3.7-1.63-3.7-3.7v-36.46c0-2.09,1.67-3.79,3.7-3.79h24.01c2.06,0,3.79,1.74,3.79,3.79v36.46c0,2.04-1.7,3.7-3.79,3.7h-24.01Z"/>
        </g>
        <g>
          <path class="cls-1" d="M200.98,301.92c-6.23,0-11.31-5.07-11.31-11.31v-36.46c0-6.28,5.07-11.4,11.31-11.4h24.01c6.29,0,11.4,5.11,11.4,11.4v36.46c0,6.24-5.11,11.31-11.4,11.31h-24.01ZM200.98,243.86c-5.63,0-10.2,4.62-10.2,10.29v36.46c0,5.63,4.58,10.2,10.2,10.2h24.01c5.68,0,10.29-4.58,10.29-10.2v-36.46c0-5.68-4.62-10.29-10.29-10.29h-24.01Z"/>
          <path d="M224.99,236.25h-24.01c-9.82,0-17.81,8.03-17.81,17.9v36.46c0,9.82,7.99,17.81,17.81,17.81h24.01c9.87,0,17.9-7.99,17.9-17.81v-36.46c0-9.87-8.03-17.9-17.9-17.9h0ZM200.98,294.32c-2.08,0-3.7-1.63-3.7-3.7v-36.46c0-2.1,1.67-3.79,3.7-3.79h24.01c2.06,0,3.79,1.74,3.79,3.79v36.46c0,2.04-1.7,3.7-3.79,3.7h-24.01Z"/>
        </g>
        <g>
          <path class="cls-1" d="M294.14,192.3c-6.28,0-11.39-5.07-11.39-11.31v-36.46c0-6.28,5.11-11.4,11.39-11.4h24.01c6.28,0,11.4,5.11,11.4,11.4v36.46c0,6.24-5.11,11.31-11.4,11.31h-24.01ZM294.14,134.24c-5.67,0-10.28,4.62-10.28,10.29v36.46c0,5.63,4.61,10.2,10.28,10.2h24.01c5.68,0,10.29-4.58,10.29-10.2v-36.46c0-5.68-4.62-10.29-10.29-10.29h-24.01Z"/>
          <path d="M318.15,126.64h-24.01c-9.87,0-17.89,8.03-17.89,17.9v36.46c0,9.82,8.02,17.81,17.89,17.81h24.01c9.87,0,17.9-7.99,17.9-17.81v-36.46c0-9.87-8.03-17.9-17.9-17.9h0ZM294.14,184.7c-2.09,0-3.78-1.67-3.78-3.7v-36.46c0-2.06,1.74-3.79,3.78-3.79h24.01c2.06,0,3.79,1.74,3.79,3.79v36.46c0,2.04-1.7,3.7-3.79,3.7h-24.01Z"/>
        </g>
        <g>
          <path class="cls-1" d="M294.14,301.92c-6.28,0-11.39-5.07-11.39-11.31v-36.46c0-6.28,5.11-11.4,11.39-11.4h24.01c6.28,0,11.4,5.11,11.4,11.4v36.46c0,6.24-5.11,11.31-11.4,11.31h-24.01ZM294.14,243.86c-5.67,0-10.28,4.62-10.28,10.29v36.46c0,5.63,4.61,10.2,10.28,10.2h24.01c5.68,0,10.29-4.58,10.29-10.2v-36.46c0-5.68-4.62-10.29-10.29-10.29h-24.01Z"/>
          <path d="M318.15,236.25h-24.01c-9.87,0-17.89,8.03-17.89,17.9v36.46c0,9.82,8.02,17.81,17.89,17.81h24.01c9.87,0,17.9-7.99,17.9-17.81v-36.46c0-9.87-8.03-17.9-17.9-17.9h0ZM294.14,294.32c-2.09,0-3.78-1.67-3.78-3.7v-36.46c0-2.06,1.74-3.79,3.78-3.79h24.01c2.06,0,3.79,1.74,3.79,3.79v36.46c0,2.04-1.7,3.7-3.79,3.7h-24.01Z"/>
        </g>
      </g>
    </g>
  </g>
</svg>