<?xml version="1.0" encoding="UTF-8"?>
<svg id="Layer_2" xmlns="http://www.w3.org/2000/svg" viewBox="0 0 528.53 525">
  <defs>
    <style>
      .cls-1 {
        fill: #00b2ca;
      }
    </style>
  </defs>
  <g id="Layer_2-2" data-name="Layer_2">
    <g id="Flooring_Type">
      <g>
        <polygon class="cls-1" points="264.29 260.7 264.29 264.29 264.27 262.49 264.25 260.7 264.29 260.7"/>
        <polygon points="264.29 260.7 264.25 260.7 264.27 262.49 264.29 264.29 264.29 260.7 264.29 260.7"/>
      </g>
      <g>
        <g>
          <path class="cls-1" d="M264.25,260.7l.02,1.79.03,1.8v-3.58h-.05ZM264.25,260.7l.02,1.79.03,1.8v-3.58h-.05ZM264.25,260.7l.02,1.79.03,1.8v-3.58h-.05Z"/>
          <path d="M264.29,260.7h-.05.05v3.58-3.58h0ZM264.29,260.7h-.05l.02,1.79.03,1.8v-3.58h0ZM264.25,260.7l.02,1.79.03,1.8-.03-1.8-.02-1.79h0Z"/>
        </g>
        <g>
          <path class="cls-1" d="M264.24,512c-.1,0-.15-.02-.21-.06-.51-.34-44.75-29.99-69.21-72.44l-2.5-4.34-4.83,1.31c-15.81,4.28-34.94,6.54-55.31,6.54-16,0-32.11-1.42-45.37-4.01l-.13-.02s-.18-.13-.21-.3c-.43-2.11-10.41-52.62,2.58-99.84l1.34-4.88-4.4-2.5c-39.69-22.51-67.66-61.11-72.87-68.62l-.03-.05c-.11-.18-.08-.37-.05-.41,3.15-4.64,31.51-45.3,72.95-68.85l4.4-2.5-1.34-4.88c-12.98-47.26-2.68-99.29-2.58-99.81.04-.2.17-.32.37-.36.21-.04,20.14-3.98,46.59-3.98,19.88,0,38.05,2.2,54.01,6.52l4.83,1.31,2.5-4.34c24.48-42.52,67.41-71.21,69.22-72.41.1-.07.15-.08.22-.08.07,0,.18.02.31.1,1.77,1.17,44.65,29.75,69.18,72.38l2.5,4.34,4.84-1.31c16.17-4.38,34.46-6.61,54.35-6.61,26.11,0,45.5,3.85,46.31,4.02.17.03.3.2.31.25l.03.16c.43,2.13,10.4,52.78-2.54,99.81l-1.34,4.88,4.4,2.5c42.49,24.14,71.67,66.95,72.89,68.76l.06.08c.04.06.06.26-.04.41-1.23,1.82-30.43,44.59-72.91,68.69l-4.4,2.5,1.34,4.88c12.97,47.2,2.64,99.33,2.53,99.86l-.03.16s-.13.18-.31.22c-13.14,2.56-29.2,3.97-45.14,3.97h0c-20.42,0-39.59-2.27-55.46-6.57l-4.83-1.31-2.5,4.33c-24.33,42.18-67.46,71.22-69.28,72.44-.08.06-.18.07-.24.07ZM163.74,263.5c-19.2,5.62-34.87,14.37-46.6,26-42.34,42.07-34.18,120.88-30.66,144.03l.72,4.74,4.74.72c7.41,1.12,22.6,3,41.13,3,32.11,0,76.22-5.79,104.01-33.37,11.78-11.74,20.58-27.3,26.17-46.26l.52-1.76-.48-1.77c-3.5-12.95-5.6-27.45-6.24-43.09l-.2-4.83-4.69-1.2c-6.53-1.67-12.75-4.7-18-8.76l-4.51-3.49-67.22,66.79s-.13.13-.2.13h-.11c-.12,0-.2-.04-.29-.13-.11-.11-.14-.19-.13-.31,0-.05.02-.18.17-.33l67.17-66.74-3.54-4.55c-4.02-5.16-7.03-11.3-8.69-17.74l-1.21-4.68-4.83-.19c-15.84-.64-30.48-2.73-43.52-6.24l-1.76-.47-1.75.51ZM294.36,300.93c-8.55,6.62-18.84,10.16-29.75,10.23l-6.79.04.34,6.78c2.01,40.2,13.23,70.69,33.35,90.63,27.72,27.55,72.06,33.33,104.39,33.33,18.32,0,33.35-1.81,40.68-2.9l4.76-.7.72-4.75c3.51-23.17,11.67-102.02-30.66-144.08-20.13-20-50.84-31.13-91.28-33.07l-6.76-.33-.05,6.77c-.08,10.8-3.62,20.98-10.24,29.42l-3.57,4.55,67.21,66.77c.1.09.16.17.16.34,0,.07-.03.13-.11.21l-.08.09s-.09.09-.25.09c-.14,0-.26-.05-.36-.15l-67.19-66.76-4.51,3.49ZM133.08,83c-18.53,0-33.73,1.88-41.14,3l-4.73.72-.72,4.73c-3.52,23.15-11.73,101.97,30.66,144.04,25.09,24.88,63.51,31.72,91.32,33.07l6.79.33.02-6.8c.04-10.77,3.56-20.93,10.19-29.4l3.56-4.55-67.21-66.77c-.08-.08-.13-.19-.13-.32,0-.15.06-.21.08-.23.11-.11.24-.16.38-.16.16,0,.23.07.26.1l67.23,66.81,4.51-3.5c8.54-6.63,18.82-10.16,29.74-10.22l6.79-.04-.34-6.78c-1.37-27.61-8.25-65.74-33.3-90.63-27.79-27.59-71.89-33.38-104-33.38ZM366.41,160.65c.18,0,.26.08.29.11.1.1.15.17.15.32,0,.09-.04.17-.13.26l-67.23,66.8,3.56,4.55c4.03,5.15,7.05,11.28,8.73,17.74l1.21,4.67,4.82.2c15.69.64,30.3,2.74,43.42,6.24l1.76.47,1.74-.51c19.32-5.65,35.02-14.4,46.67-26.01,27.78-27.58,33.62-71.52,33.62-103.53,0-18.3-1.86-33.26-2.96-40.55l-.72-4.75-4.75-.7c-7.34-1.09-22.39-2.91-40.74-2.91-32.29,0-76.6,5.78-104.33,33.34-11.72,11.68-20.54,27.21-26.21,46.18l-.53,1.77.48,1.79c3.53,13.04,5.65,27.58,6.28,43.2l.2,4.84,4.69,1.2c6.47,1.65,12.68,4.67,17.97,8.72l4.51,3.46,67.21-66.77c.06-.06.18-.11.32-.11Z"/>
          <path d="M264.24,20.81c10.46,7.45,42.68,32.12,62.92,66.36-14.81,5.36-28.81,13.23-40.26,24.6-9.33,9.3-16.92,20.83-22.66,34.42-5.25-12.52-12.54-24.44-22.59-34.43-11.49-11.4-25.5-19.28-40.31-24.65,20.21-34.13,52.44-58.84,62.9-66.3M440.8,200.02c34.14,19.9,59.21,52.01,66.87,62.52-7.65,10.5-32.71,42.55-66.82,62.4-5.43-14.75-13.39-28.64-24.88-40.05-9.38-9.32-20.86-16.81-34.36-22.46,13.64-5.69,25.16-13.17,34.36-22.34,11.49-11.4,19.43-25.35,24.84-40.08M87.67,200.06c5.44,14.74,13.41,28.63,24.91,40.05,10.03,9.94,21.98,17.16,34.53,22.36-13.66,5.68-25.24,13.19-34.54,22.43-11.49,11.41-19.45,25.3-24.88,40.05-33.52-19.51-58.25-50.7-66.81-62.41,7.9-10.9,32.67-42.57,66.79-62.47M269.49,220.29l5.31,1.36c5.63,1.44,11.03,4.06,15.62,7.58l4.16,3.19,3.35,4.27c3.49,4.45,6.1,9.76,7.55,15.37l1.35,5.21-.04,5.56c-.07,9.35-3.13,18.16-8.86,25.46l-3.3,4.21-4.26,3.3c-7.41,5.74-16.34,8.81-25.81,8.87l-5.71.04-5.07-1.3c-5.67-1.45-11.08-4.08-15.64-7.61l-4.26-3.3-3.26-4.18c-3.48-4.47-6.08-9.78-7.53-15.37l-1.33-5.17.02-5.67c.03-9.44,2.99-17.99,8.81-25.41l3.27-4.18,4.3-3.33c7.4-5.74,16.32-8.81,25.8-8.86l5.53-.03M264.24,378.96c5.7,13.48,13.27,24.93,22.68,34.25,11.44,11.37,25.46,19.24,40.29,24.6-20.07,33.85-52.4,58.76-62.95,66.34-10.42-7.55-42.99-32.77-62.87-66.3,14.8-5.37,28.8-13.24,40.29-24.64,9.32-9.28,16.87-20.76,22.56-34.25M264.21,6.5c-1.34,0-2.66.39-3.8,1.16-1.88,1.24-45.98,30.65-71.27,74.59-19.02-5.16-38.69-6.75-55.71-6.75-27.14,0-47.54,4.04-47.87,4.11-2.77.56-4.91,2.69-5.46,5.44-.11.54-10.82,53.67,2.68,102.83C40.1,212.12,10.91,253.94,7.71,258.65c-1.61,2.29-1.61,5.42-.01,7.8l.07.1c5.38,7.77,34.07,47.36,75,70.57-13.42,48.77-3.13,100.66-2.68,102.87.57,2.76,2.78,4.94,5.47,5.4,12.98,2.53,29.36,4.13,46.62,4.13,19.08,0,39.22-1.95,57.01-6.77,25.35,44,70.76,74.29,71.2,74.58,1.17.79,2.5,1.18,3.85,1.18s2.67-.39,3.84-1.16c1.88-1.25,45.97-30.66,71.31-74.6,17.84,4.83,38.04,6.79,57.16,6.79,17.19,0,33.51-1.59,46.44-4.1,2.76-.57,4.93-2.77,5.4-5.44.11-.54,10.85-53.81-2.63-102.88,43.94-24.93,73.82-68.83,75.08-70.69,1.59-2.34,1.59-5.46,0-7.76-.76-1.13-30.58-45.5-75.08-70.79,13.38-48.64,3.08-100.65,2.64-102.82-.48-2.72-2.65-4.94-5.42-5.5-1.35-.27-21.2-4.14-47.59-4.14-17.03,0-36.77,1.61-56.05,6.83-25.28-43.93-69.38-73.34-71.28-74.6-1.18-.77-2.52-1.15-3.85-1.15h0ZM208.79,262.06c-27.13-1.32-63.56-7.89-87.06-31.19-40.81-40.51-31.67-119.72-28.82-138.45,6.88-1.04,21.9-2.93,40.17-2.93,31.79,0,73.45,5.7,99.42,31.49,23.46,23.31,30.06,59.43,31.39,86.34-12.39.07-23.98,4.05-33.69,11.59l-63.17-62.77c-1.33-1.33-3.09-2-4.86-2s-3.59.69-4.97,2.06c-2.68,2.67-2.66,7.06.05,9.77l63.11,62.7c-7.56,9.64-11.54,21.11-11.58,33.39h0ZM298.34,218.92c-6-4.6-12.97-7.98-20.32-9.86-.66-16.11-2.84-31.11-6.5-44.64,5.36-17.92,13.62-32.53,24.57-43.43,25.94-25.78,67.88-31.45,99.75-31.45,18.1,0,32.95,1.83,39.79,2.84,1.03,6.8,2.89,21.58,2.89,39.57,0,31.6-5.73,73.14-31.71,98.93-10.88,10.85-25.66,19.05-43.9,24.38-13.61-3.63-28.69-5.8-44.83-6.45-1.91-7.35-5.3-14.25-9.9-20.12l63.1-62.69c1.33-1.3,2.07-3.03,2.09-4.88,0-1.85-.71-3.59-2.01-4.9-1.34-1.37-3.13-2.06-4.93-2.06-1.76,0-3.53.66-4.9,1.99l-63.18,62.77h0ZM366.41,370.84c1.79,0,3.58-.69,4.91-2.06,1.32-1.31,2.04-3.05,2.03-4.9-.02-1.85-.75-3.58-2.08-4.88l-63.11-62.7c7.55-9.62,11.54-21.1,11.63-33.39,38.79,1.87,68.05,12.35,87.01,31.19,40.77,40.52,31.66,119.75,28.82,138.5-6.84,1.01-21.67,2.83-39.73,2.83-31.89,0-73.87-5.67-99.81-31.45-18.93-18.76-29.5-47.79-31.43-86.33,12.38-.08,23.96-4.06,33.68-11.59l63.19,62.78c1.36,1.33,3.13,1.99,4.89,1.99h0ZM133.06,435.49c-18.27,0-33.27-1.88-40.15-2.92-2.84-18.73-11.99-97.9,28.82-138.45,10.96-10.88,25.72-19.08,43.84-24.38,13.49,3.62,28.6,5.8,44.94,6.45,1.89,7.31,5.26,14.21,9.86,20.11l-63.12,62.71c-1.3,1.31-2.04,3.04-2.06,4.88-.01,1.85.7,3.59,1.99,4.89,1.3,1.33,3.05,2.08,4.91,2.09.05,0,.1,0,.14,0,1.81,0,3.51-.74,4.78-2.02l63.18-62.77c5.97,4.62,12.96,8.02,20.37,9.92.66,16.15,2.83,31.12,6.45,44.53-5.28,17.91-13.53,32.54-24.52,43.48-25.97,25.78-67.65,31.48-99.43,31.48h0Z"/>
        </g>
      </g>
    </g>
  </g>
</svg>