<svg id="Capa_1" enable-background="new 0 0 512 512" height="512" viewBox="0 0 512 512" width="512" xmlns="http://www.w3.org/2000/svg"><g><path d="m256 292c-11.046 0-20 8.954-20 20v60c0 11.046 8.954 20 20 20s20-8.954 20-20v-60c0-11.046-8.954-20-20-20z"/><circle cx="140" cy="352" r="20"/><circle cx="372" cy="352" r="20"/><path d="m412 232h-136v-32h40c33.084 0 60-26.916 60-60 0-9.276-2.183-18.546-6.312-26.809l-40-80c-10.238-20.473-30.81-33.191-53.688-33.191h-40c-22.878 0-43.449 12.718-53.687 33.191-3.163 6.327-16.92 33.841-40 80-4.129 8.261-6.313 17.531-6.313 26.809 0 33.084 26.916 60 60 60h40v32h-136c-55.141 0-100 44.86-100 100v40c0 48.293 34.41 88.698 80 97.989v22.011c0 11.046 8.954 20 20 20s20-8.954 20-20v-20h272v20c0 11.046 8.954 20 20 20s20-8.954 20-20v-22.011c45.59-9.291 80-49.697 80-97.989v-40c0-55.14-44.859-100-100-100zm-236-92c0-6.889 3.192-10.544 5.007-14.753.014-.027.027-.055.041-.082l37.043-74.085c3.417-6.834 10.279-11.08 17.909-11.08h40c7.63 0 14.493 4.246 17.91 11.08l39.999 79.997c6.555 13.113-2.959 28.923-17.909 28.923h-120c-11.028 0-20-8.972-20-20zm296 232c0 33.084-26.916 60-60 60h-312c-33.084 0-60-26.916-60-60v-40c0-33.084 26.916-60 60-60h312c33.084 0 60 26.916 60 60z"/></g></svg>