<svg id="Capa_1" enable-background="new 0 0 512 512" height="512" viewBox="0 0 512 512" width="512" xmlns="http://www.w3.org/2000/svg"><g><path d="m492 280h-56v-180c0-55.14-44.859-100-100-100h-160c-55.141 0-100 44.86-100 100v180h-56c-11.046 0-20 8.954-20 20s8.954 20 20 20h16v172c0 11.046 8.954 20 20 20s20-8.954 20-20v-172h360v172c0 11.046 8.954 20 20 20s20-8.954 20-20v-172h16c11.046 0 20-8.954 20-20s-8.954-20-20-20zm-176 0h-120v-20c0-25.395-9.52-48.604-25.173-66.26 38.02-14.172 65.173-50.843 65.173-93.74v-60h40v60c0 42.897 27.153 79.568 65.173 93.74-15.653 17.656-25.173 40.865-25.173 66.26zm80-180v60h-20c-33.084 0-60-26.916-60-60v-60h20c33.084 0 60 26.916 60 60zm-280 0c0-33.084 26.916-60 60-60h20v60c0 33.084-26.916 60-60 60h-20zm0 180v-76.573c23.281 8.254 40 30.498 40 56.573v20zm240 0v-20c0-26.075 16.719-48.318 40-56.573v76.573z"/><path d="m136 360c-11.046 0-20 8.954-20 20v112c0 11.046 8.954 20 20 20s20-8.954 20-20v-112c0-11.046-8.954-20-20-20z"/><path d="m216 360c-11.046 0-20 8.954-20 20v112c0 11.046 8.954 20 20 20s20-8.954 20-20v-112c0-11.046-8.954-20-20-20z"/><path d="m296 360c-11.046 0-20 8.954-20 20v112c0 11.046 8.954 20 20 20s20-8.954 20-20v-112c0-11.046-8.954-20-20-20z"/><path d="m376 360c-11.046 0-20 8.954-20 20v112c0 11.046 8.954 20 20 20s20-8.954 20-20v-112c0-11.046-8.954-20-20-20z"/></g></svg>