<svg id="Capa_1" enable-background="new 0 0 512 512" height="512" viewBox="0 0 512 512" width="512" xmlns="http://www.w3.org/2000/svg"><g id="Garage"><g><path d="m296 152h-80c-11.046 0-20-8.954-20-20s8.954-20 20-20h80c11.046 0 20 8.954 20 20s-8.954 20-20 20z"/></g><g><path d="m392 412c0-27.48-18.577-50.688-43.826-57.767l-9.196-36.785c-6.69-26.759-30.626-45.448-58.209-45.448h-49.538c-27.583 0-51.519 18.689-58.208 45.448l-9.196 36.785c-25.25 7.079-43.827 30.287-43.827 57.767 0 26.073 16.722 48.304 40 56.56v23.44c0 11.046 8.954 20 20 20s20-8.954 20-20v-20h112v20c0 11.046 8.954 20 20 20s20-8.954 20-20v-23.44c23.278-8.256 40-30.487 40-56.56zm-160.769-100h49.538c9.194 0 17.173 6.229 19.403 15.149l6.213 24.851h-100.77l6.213-24.851c2.23-8.92 10.209-15.149 19.403-15.149zm100.769 120h-152c-11.028 0-20-8.972-20-20s8.972-20 20-20h151.869c.039 0 .077.005.116.005.023 0 .046-.002.07-.002 11.002.03 19.945 8.988 19.945 19.997 0 11.028-8.972 20-20 20z"/><path d="m474.335 84.301-195.928-79.971c-.042-.017-.083-.034-.125-.05-7.094-2.84-14.59-4.28-22.282-4.28s-15.188 1.44-22.282 4.279c-.042.017-.083.034-.125.05l-195.928 79.972c-22.883 9.181-37.665 31.037-37.665 55.699v32c0 26.073 16.722 48.304 40 56.56v223.44c0 33.084 26.916 60 60 60 11.046 0 20-8.954 20-20s-8.954-20-20-20c-11.028 0-20-8.972-20-20v-220h352v220c0 11.028-8.972 20-20 20-11.046 0-20 8.954-20 20s8.954 20 20 20c33.084 0 60-26.916 60-60v-223.44c23.278-8.256 40-30.487 40-56.56v-32c0-24.662-14.782-46.518-37.665-55.699zm-2.335 87.699c0 11.028-8.972 20-20 20h-392c-11.028 0-20-8.972-20-20v-32c0-8.232 4.938-15.527 12.58-18.584.043-.018.086-.035.13-.052l195.924-79.969c4.66-1.851 10.073-1.851 14.733 0l195.924 79.969c.043.018.086.035.13.052 7.641 3.057 12.579 10.352 12.579 18.584z"/></g></g></svg>