<svg id="Layer_1" enable-background="new 0 0 512.079 512.079" height="512" viewBox="0 0 512.079 512.079" width="512" xmlns="http://www.w3.org/2000/svg"><path d="m343.333 478.939c2.794 10.687-3.604 21.615-14.29 24.409-22.137 5.789-46.027 8.727-71.006 8.731h-.068c-48.416-.008-92.392-11.057-127.176-31.954-37.945-22.796-63.788-56.656-74.733-97.918-8.973-34.839 8.592-85.39 63.13-92.222.431-.062.864-.109 1.298-.143 32.918-2.534 65.502 1.205 96.363 10.883 34.875-12.571 105.587-5.071 97.239 24.568-6.974 18.359-23.382 32.177-36.848 40.903 2.04 16.812 16.388 29.883 33.742 29.883 11.046 0 20 8.954 20 20s-8.954 20-20 20c-21.285 0-40.487-9.046-54-23.48-13.513 14.434-32.715 23.48-54 23.48-11.046 0-20-8.954-20-20s8.954-20 20-20c17.129 0 31.332-12.734 33.659-29.23-9.655-6.387-20.803-15.576-28.902-27.029-26.667-8.772-54.925-12.257-83.505-10.147-11.686 1.783-19.729 6.217-24.58 13.545-7.368 11.132-5.733 25.718-4.934 28.732 16.632 62.693 77.668 100.124 163.28 100.128 21.578-.001 42.076-2.501 60.922-7.429 10.681-2.795 21.614 3.604 24.409 14.29zm153.228-389.072c-21.677-30.551-87.992-92.406-126.579-89.786-25.783-.001-48.345 12.892-65.249 37.285-3.167 4.57-8.662 6.541-13.668 4.902-11.656-3.813-23.768-5.925-35.082-6.188-11.314.263-23.426 2.375-35.082 6.188-5.009 1.64-10.5-.332-13.667-4.902-16.906-24.393-39.469-37.286-65.251-37.286-20.632 0-45.896 12.332-75.09 36.652-22.339 18.61-41.956 40.097-51.488 53.135-26.093 34.187-17.872 87.139 17.369 111.796 11.768 8.603 25.34 13.714 39.482 15.061-3.058 8.118-5.871 16.288-8.389 24.474-3.248 10.557 2.678 21.749 13.235 24.997 10.27 3.247 21.777-2.582 24.997-13.235 4.814-15.648 10.771-31.256 17.7-46.466 9.41-5.392 17.701-12.692 24.36-21.643 3.146-3.802 19.207-23.876 29.394-49.344 4.103-10.255-.886-21.895-11.142-25.997-10.258-4.103-21.895.886-25.997 11.142-8.578 21.445-23.841 39.633-24.136 40.037-6.306 8.625-15.592 14.278-26.15 15.918-21.173 3.743-42.807-12.073-45.666-33.385-1.641-10.558.929-21.122 7.234-29.748 8.072-11.042 26.054-30.392 44.8-46.009 39.654-31.907 58.976-37.977 81.861-7.314 13.324 19.226 37.026 27.318 58.981 20.135 7.768-2.542 15.384-3.94 22.645-4.159 7.261.219 14.877 1.617 22.645 4.159 21.957 7.184 45.659-.909 58.982-20.136 22.838-30.617 42.172-24.639 81.86 7.314 18.746 15.618 36.727 34.967 44.8 46.01 6.306 8.625 8.875 19.189 7.234 29.747-1.64 10.558-7.293 19.845-15.919 26.151-17.803 13.017-42.88 9.122-55.897-8.685-.279-.382-15.558-18.591-24.136-40.036-4.103-10.256-15.744-15.246-25.997-11.142-10.256 4.102-15.244 15.742-11.142 25.997 10.189 25.473 26.253 45.55 29.395 49.346 26.149 35.133 75.961 42.707 111.385 16.811 35.239-24.66 43.464-77.607 17.368-111.796zm-149.658 133.184c1.308 33.234-45.783 36.939-49.84 4.057-1.307-33.234 45.782-36.939 49.84-4.057zm-157.949-22.891c-12.118.956-21.936 10.773-22.891 22.891-1.214 15.404 11.544 28.163 26.949 26.948 32.899-4.067 29.156-51.155-4.058-49.839zm303.042 270.919c-.24 0-.481.004-.723.013-3.323.118-24.067.987-30.09.987-30.438 0-55.2-24.224-55.2-54v-80c0-29.776 24.763-54 55.2-54 7.434 0 29.947.982 29.947.982 26.55.048 28.158-37.776 1.705-39.964-37.006-2.183-67.592-3.399-98.604 26.364-18.216 17.832-28.248 41.491-28.248 66.618v80c0 25.127 10.032 48.786 28.248 66.618 18.037 17.658 41.815 27.382 66.952 27.382 6.86 0 28.273-.897 31.51-1.013 11.039-.392 19.67-9.659 19.277-20.698-.383-10.796-9.257-19.289-19.974-19.289zm-.013-151h-32c-26.536 1.056-26.516 38.953 0 40h32c26.536-1.056 26.516-38.953 0-40zm0 76h-32c-26.536 1.056-26.516 38.953 0 40h32c26.536-1.056 26.516-38.953 0-40z"/></svg>