<svg id="Capa_1" enable-background="new 0 0 512 512" height="512" viewBox="0 0 512 512" width="512" xmlns="http://www.w3.org/2000/svg"><g><path d="m236.314 352.229c9.741 5.402 21.879 1.785 27.189-7.793 8.176-14.745 12.497-31.494 12.497-48.436s-4.321-33.691-12.496-48.436c-5.356-9.66-17.53-13.15-27.189-7.793-9.66 5.356-13.149 17.529-7.793 27.189 4.892 8.825 7.478 18.867 7.478 29.04s-2.586 20.215-7.479 29.039c-5.356 9.66-1.867 21.834 7.793 27.19z"/><circle cx="100" cy="100" r="20"/><circle cx="176" cy="100" r="20"/><path d="m412 0h-312c-55.14 0-100 44.86-100 100v312c0 55.14 44.86 100 100 100h312c55.141 0 100-44.86 100-100v-312c0-55.14-44.859-100-100-100zm60 412c0 33.084-26.916 60-60 60h-312c-33.084 0-60-26.916-60-60v-312c0-33.084 26.916-60 60-60h312c33.084 0 60 26.916 60 60z"/><path d="m256 156c-77.196 0-140 62.804-140 140s62.804 140 140 140 140-62.804 140-140-62.804-140-140-140zm0 240c-55.14 0-100-44.86-100-100s44.86-100 100-100c55.141 0 100 44.86 100 100s-44.859 100-100 100z"/><path d="m416 80h-80c-11.046 0-20 8.954-20 20s8.954 20 20 20h80c11.046 0 20-8.954 20-20s-8.954-20-20-20z"/></g></svg>