<svg id="Capa_1" enable-background="new 0 0 512 512" height="512" viewBox="0 0 512 512" width="512" xmlns="http://www.w3.org/2000/svg"><g><circle cx="412" cy="296" r="20"/><circle cx="412" cy="376" r="20"/><path d="m412 0h-312c-55.14 0-100 44.86-100 100v352c0 33.084 26.916 60 60 60h272c11.046 0 20-8.954 20-20v-272c0-33.084-26.916-60-60-60h-152c-33.084 0-60 26.916-60 60v252h-20c-11.028 0-20-8.972-20-20v-352c0-33.084 26.916-60 60-60h312c33.084 0 60 26.916 60 60v352c0 11.028-8.972 20-20 20h-40c-11.046 0-20 8.954-20 20s8.954 20 20 20h40c33.084 0 60-26.916 60-60v-352c0-55.14-44.86-100-100-100zm-100 220v252h-76v-272h56c11.028 0 20 8.972 20 20zm-192 0c0-11.028 8.972-20 20-20h56v272h-76z"/><path d="m140 80c-11.046 0-20 8.954-20 20s8.954 20 20 20h152c11.046 0 20-8.954 20-20s-8.954-20-20-20z"/></g></svg>