<svg id="Capa_1" enable-background="new 0 0 512 512" height="512" viewBox="0 0 512 512" width="512" xmlns="http://www.w3.org/2000/svg"><g><path d="m376 76h-80c-11.046 0-20 8.954-20 20s8.954 20 20 20h71.715l-121.043 121.043c-7.81 7.811-7.81 20.474 0 28.284s20.475 7.81 28.285 0l121.043-121.043v71.716c0 11.046 8.954 20 20 20s20-8.954 20-20v-80c0-33.057-26.943-60-60-60z"/><path d="m0 212c0 11.046 8.954 20 20 20s20-8.954 20-20v-40c0-11.046-8.954-20-20-20s-20 8.954-20 20z"/><path d="m20 112c11.046 0 20-8.954 20-20v-32c0-11.028 8.972-20 20-20h36c11.046 0 20-8.954 20-20s-8.954-20-20-20h-36c-33.084 0-60 26.916-60 60v32c0 11.046 8.954 20 20 20z"/><path d="m452 0h-36c-11.046 0-20 8.954-20 20s8.954 20 20 20h36c11.028 0 20 8.972 20 20v36c0 11.046 8.954 20 20 20s20-8.954 20-20v-36c0-33.084-26.916-60-60-60z"/><path d="m216 40c11.046 0 20-8.954 20-20s-8.954-20-20-20h-40c-11.046 0-20 8.954-20 20s8.954 20 20 20z"/><path d="m336 0h-40c-11.046 0-20 8.954-20 20s8.954 20 20 20h40c11.046 0 20-8.954 20-20s-8.954-20-20-20z"/><path d="m300 472c-11.046 0-20 8.954-20 20s8.954 20 20 20h40c11.046 0 20-8.954 20-20s-8.954-20-20-20z"/><path d="m492 396c-11.046 0-20 8.954-20 20v36c0 11.028-8.972 20-20 20h-32c-11.046 0-20 8.954-20 20s8.954 20 20 20h32c33.084 0 60-26.916 60-60v-36c0-11.046-8.954-20-20-20z"/><path d="m492 276c-11.046 0-20 8.954-20 20v40c0 11.046 8.954 20 20 20s20-8.954 20-20v-40c0-11.046-8.954-20-20-20z"/><path d="m492 156c-11.046 0-20 8.954-20 20v40c0 11.046 8.954 20 20 20s20-8.954 20-20v-40c0-11.046-8.954-20-20-20z"/><path d="m0 452c0 33.084 26.916 60 60 60h120c33.084 0 60-26.916 60-60v-120c0-33.084-26.916-60-60-60h-120c-33.084 0-60 26.916-60 60zm40-120c0-11.028 8.972-20 20-20h120c11.028 0 20 8.972 20 20v120c0 11.028-8.972 20-20 20h-120c-11.028 0-20-8.972-20-20z"/></g></svg>