<?xml version="1.0" encoding="UTF-8"?>
<svg id="Layer_2" xmlns="http://www.w3.org/2000/svg" viewBox="0 0 462.96 525">
  <defs>
    <style>
      .cls-1 {
        fill: #00b2ca;
      }
    </style>
  </defs>
  <g id="Layer_2-2" data-name="Layer_2">
    <g id="Floor">
      <g>
        <path class="cls-1" d="M231.49,512c-4.42,0-8.83-1.15-12.74-3.32L26.67,402.25c-8.52-4.67-13.59-13.27-13.59-23.01s5.08-18.42,13.58-23.07l63.71-35.27-63.68-35.25c-8.51-4.73-13.6-13.36-13.6-23.09s5.09-18.36,13.61-23.09l63.68-35.16-63.77-35.35c-8.52-4.73-13.6-13.36-13.6-23.09s5.09-18.36,13.61-23.09L218.74,16.36c3.96-2.2,8.38-3.36,12.78-3.36s8.76,1.17,12.81,3.38l192.02,106.4c8.52,4.73,13.6,13.36,13.6,23.09s-5.09,18.36-13.61,23.09l-63.76,35.35,63.7,35.15c8.49,4.72,13.61,13.37,13.67,23.14,0,9.65-5.1,18.29-13.63,23.06l-63.74,35.24,63.69,35.26c8.51,4.67,13.62,13.31,13.68,23.13,0,9.67-5.08,18.26-13.59,22.96l-192.07,106.42c-3.94,2.18-8.38,3.33-12.81,3.33ZM27.22,357.1c-8.18,4.56-13.05,12.84-13.05,22.14s4.89,17.63,13.09,22.08l192.02,106.39c3.73,2.07,7.95,3.16,12.21,3.16s8.48-1.09,12.24-3.15l192.09-106.43c8.15-4.42,13.05-12.68,13.05-22.07-.12-9.41-4.99-17.64-13.03-22.12l-64.33-35.53-122.97,68.04c-5.26,2.91-11.17,4.45-17.08,4.45s-11.79-1.54-17.03-4.45l-122.9-68.05-64.31,35.52ZM231.52,14.14c-4.25,0-8.48,1.1-12.23,3.17L27.13,123.74c-8.17,4.55-13.04,12.81-13.04,22.13s4.87,17.58,13.03,22.13l192.15,106.43c3.68,2.1,7.93,3.22,12.22,3.22s8.52-1.12,12.3-3.24l192.03-106.41c8.17-4.56,13.04-12.83,13.04-22.14s-4.87-17.58-13.02-22.13L243.76,17.32c-3.75-2.08-7.98-3.17-12.24-3.17Z"/>
        <path d="M91.52,211.1l124.54,68.98c4.71,2.66,10.04,4.07,15.42,4.07s10.7-1.4,15.45-4.05l124.51-68.99,8.29,4.57,53.37,29.46c6.51,3.62,10.28,9.98,10.35,17.46-.02,7.39-3.76,13.72-10.27,17.38l-53.46,29.55-20.57,11.37.08.05-113.85,63c-4.3,2.38-9.12,3.64-13.93,3.64s-9.6-1.25-13.89-3.64l-113.81-63.02.03-.02-20.54-11.37-53.39-29.56c-6.52-3.62-10.26-9.97-10.26-17.41s3.74-13.79,10.24-17.39l53.41-29.49,8.3-4.58M231.52,6.5c-5.49,0-11,1.44-15.93,4.18L23.45,117.1c-10.62,5.9-16.95,16.65-16.95,28.77s6.34,22.88,16.95,28.77l53.49,29.66-53.41,29.49c-10.62,5.9-16.95,16.65-16.95,28.77s6.34,22.88,16.95,28.77l53.41,29.57-53.41,29.57c-10.62,5.81-16.95,16.57-16.95,28.77s6.34,22.88,16.94,28.69l192.07,106.42c4.97,2.76,10.43,4.14,15.9,4.14s10.95-1.38,15.96-4.14l192.06-106.42c10.62-5.86,16.95-16.59,16.95-28.69-.08-12.21-6.45-22.97-17.03-28.77l-53.41-29.57,53.49-29.57c10.61-5.94,16.94-16.69,16.95-28.77-.08-12.14-6.45-22.9-17.03-28.78l-53.41-29.48,53.49-29.66c10.62-5.9,16.95-16.65,16.95-28.77s-6.34-22.88-16.95-28.77L247.45,10.68c-5-2.73-10.52-4.18-15.93-4.18h0ZM231.49,271.15c-3.12,0-6.25-.8-9.07-2.41L30.28,162.32c-6.07-3.38-9.69-9.53-9.69-16.45s3.63-13.07,9.69-16.44L222.43,23c2.85-1.57,5.97-2.36,9.09-2.36s6.24.79,9.09,2.36l192.07,106.42c6.07,3.38,9.69,9.53,9.69,16.45s-3.63,13.07-9.69,16.45l-192.06,106.42c-2.87,1.61-6.01,2.41-9.13,2.41h0ZM231.46,400.58c6.94,0,13.89-1.75,20.23-5.26l119.83-66.31,61.16,33.79c5.99,3.33,9.6,9.48,9.69,16.44,0,6.96-3.63,13.09-9.7,16.38l-192.06,106.42c-2.86,1.57-6,2.35-9.12,2.35s-6.24-.78-9.06-2.35L30.36,395.62c-6.07-3.29-9.69-9.42-9.69-16.37s3.63-13.07,9.69-16.45l61.16-33.79,119.75,66.31c6.31,3.51,13.24,5.26,20.18,5.26h0Z"/>
      </g>
    </g>
  </g>
</svg>