<svg id="Capa_1" enable-background="new 0 0 512 512" height="512" viewBox="0 0 512 512" width="512" xmlns="http://www.w3.org/2000/svg"><g id="Double_Bed"><g><path d="m412 236h-16v-20c0-33.084-26.916-60-60-60h-40c-15.355 0-29.376 5.805-40 15.327-10.624-9.522-24.645-15.327-40-15.327h-40c-33.084 0-60 26.916-60 60v20h-16c-55.14 0-100 44.86-100 100v40c0 26.073 16.722 48.304 40 56.56v23.44c0 11.046 8.954 20 20 20s20-8.954 20-20v-20h352v20c0 11.046 8.954 20 20 20s20-8.954 20-20v-23.44c23.278-8.256 40-30.487 40-56.56v-40c0-55.14-44.86-100-100-100zm-116-40h40c11.028 0 20 8.972 20 20v20h-80v-20c0-11.028 8.972-20 20-20zm-140 20c0-11.028 8.972-20 20-20h40c11.028 0 20 8.972 20 20v20h-80zm316 160c0 11.028-8.972 20-20 20h-392c-11.028 0-20-8.972-20-20v-40c0-33.084 26.916-60 60-60h312c33.084 0 60 26.916 60 60z"/><path d="m56 217.473c11.046 0 20-8.954 20-20v-21.473c0-33.084 26.916-60 60-60h11.716c23.582 0 45.751-9.183 62.426-25.858 9.12-9.12 21.245-14.142 34.142-14.142h23.432c12.897 0 25.022 5.022 34.142 14.142 16.674 16.675 38.845 25.858 62.426 25.858h11.716c33.084 0 60 26.916 60 60v21.473c0 11.046 8.954 20 20 20s20-8.954 20-20v-21.473c0-55.14-44.86-100-100-100h-11.716c-12.897 0-25.022-5.022-34.142-14.142-16.674-16.675-38.845-25.858-62.426-25.858h-23.432c-23.582 0-45.752 9.183-62.426 25.858-9.12 9.12-21.245 14.142-34.142 14.142h-11.716c-55.14 0-100 44.86-100 100v21.473c0 11.046 8.954 20 20 20z"/></g><g><path d="m376 356h-240c-11.046 0-20-8.954-20-20s8.954-20 20-20h240c11.046 0 20 8.954 20 20s-8.954 20-20 20z"/></g></g></svg>