<svg id="Capa_1" enable-background="new 0 0 512 512" height="512" viewBox="0 0 512 512" width="512" xmlns="http://www.w3.org/2000/svg"><g><path d="m472 140c0 11.046 8.954 20 20 20s20-8.954 20-20c0-77.196-62.804-140-140-140-11.046 0-20 8.954-20 20s8.954 20 20 20c55.14 0 100 44.86 100 100z"/><path d="m352 100c0 11.046 8.954 20 20 20 11.028 0 20 8.972 20 20 0 11.046 8.954 20 20 20s20-8.954 20-20c0-33.084-26.916-60-60-60-11.046 0-20 8.954-20 20z"/><path d="m20 512c11.046 0 20-8.954 20-20v-20h100c33.084 0 60-26.916 60-60v-41.581l66.827 46.792c27.16 19.018 64.546 12.427 83.563-14.734l11.472-16.383 16.383 11.471c9.049 6.336 21.52 4.137 27.854-4.911 6.333-9.044 4.138-21.507-4.899-27.845 20.495-6.666 38.205-19.721 50.785-37.687 9.193-13.128 12.723-29.05 9.94-44.833s-11.546-29.538-24.674-38.73l-196.597-137.659c-27.1-18.975-64.587-12.366-83.563 14.735l-68.829 98.298c-19.022 27.164-12.431 64.543 14.734 83.563l57.004 39.915v69.589c0 11.028-8.972 20-20 20h-100v-20c0-11.046-8.954-20-20-20s-20 8.954-20 20v80c0 11.046 8.954 20 20 20zm182.767-376.646c5.245-.925 10.557.241 14.944 3.312l196.597 137.659c4.376 3.064 7.297 7.649 8.225 12.91s-.249 10.568-3.313 14.944c-9.193 13.128-22.947 21.891-38.73 24.674-15.785 2.785-31.705-.747-44.833-9.939l-163.831-114.716c-4.376-3.064-7.297-7.649-8.225-12.91-.927-5.259.248-10.563 3.308-14.938l.005-.007c.002-.002.003-.004.004-.007l22.939-32.759c3.064-4.375 7.649-7.296 12.91-8.223zm-85.052 121.467c-.928-5.261.249-10.568 3.313-14.944l13.424-19.172c3.911 5.467 8.761 10.291 14.43 14.26l163.831 114.715c5.568 3.899 11.441 7.174 17.531 9.832l-12.62 18.023c-6.34 9.055-18.8 11.252-27.854 4.911l-163.831-114.716c-4.376-3.063-7.297-7.648-8.224-12.909z"/></g></svg>