<?xml version="1.0" encoding="UTF-8"?>
<svg id="Layer_2" xmlns="http://www.w3.org/2000/svg" viewBox="0 0 428.27 523.5">
  <defs>
    <style>
      .cls-1 {
        fill: #00b2ca;
      }
    </style>
  </defs>
  <g id="Layer_2-2" data-name="Layer_2">
    <g id="Soil_Type">
      <g>
        <path class="cls-1" d="M14.93,510.5l119.34-95.33c11.94-9.52,25.61-16.81,40.62-21.64l4.88-1.6,6.53-1.47c9.29-2.08,18.8-3.14,28.25-3.14,28.66,0,56.87,9.9,79.43,27.86l22.61,18.07h.01s96.76,77.26,96.76,77.26H14.93ZM280.72,334.87c-1.96,0-3.89-.39-5.74-1.15-3.81-1.56-6.75-4.47-8.31-8.22-1.55-3.73-1.56-7.83-.04-11.55l4.61-11.17h0s.75-1.83.75-1.83h0s10-24.55,10-24.55h.03s17.28-42.19,17.28-42.19l28.07,11.52-14.81,36.18-1.67,4.12h-.03s-11.6,28.25-11.6,28.25l.05.02-4.59,11.13c-1.54,3.75-4.45,6.68-8.18,8.26-1.87.79-3.83,1.19-5.83,1.19Z"/>
        <path d="M302.85,242.69l16.05,6.58c-5.4,13.18-9.49,23.18-11.57,28.26h0s-4.93,12.02-4.93,12.02l-6.66,16.23-4.94,12.04.04.02-2.11,5.12c-.9,2.18-2.52,3.82-4.69,4.73-1.07.45-2.19.68-3.31.68s-2.2-.22-3.29-.67c-2.21-.9-3.85-2.53-4.75-4.69-.9-2.16-.91-4.44-.04-6.57l2.14-5.19h.03s2.88-7.06,2.88-7.06l2.8-6.79h-.03s5.1-12.52,5.1-12.52h.02s4.93-12.03,4.93-12.03l12.35-30.17M214.54,393.82c27.59,0,53.66,9.15,75.36,26.43l18.64,14.9,7.94,6.35h.02s.9.7.9.7l77.4,61.8H33.48l104.84-83.75c11.33-9.04,24.3-15.95,38.56-20.54h.04s.04-.02.04-.02l.67-.22,3.88-1.28,5.51-1.24.69-.16c8.84-1.98,17.87-2.98,26.84-2.98M400.08,6.5c-2.84,0-5.67.56-8.37,1.7-5.35,2.24-9.51,6.42-11.7,11.76l-101.54,247.97-61.74-25.32c-1.64-.66-3.34-.98-5.02-.98-5.28,0-10.31,3.14-12.43,8.32l-20.18,49.3c-11.19,27.22-13.22,58.19-5.72,87.2l.18.68-.67.22c-15.77,5.08-30.13,12.74-42.68,22.75L8.58,507.25c-1.86,1.46-2.55,3.86-1.76,6.11.74,2.18,2.83,3.64,5.19,3.64h404.27c2.31,0,4.4-1.46,5.19-3.65.74-2.24.05-4.64-1.77-6.1l-94.19-75.21.73-.59c18.22-14.73,32.46-33.76,41.19-55.05l20.18-49.35c1.36-3.27,1.36-6.88,0-10.16-1.38-3.31-3.96-5.89-7.28-7.25l-61.74-25.31.28-.69c4.32-10.55,21.83-53.31,41.18-100.56,25.49-62.23,54.17-132.26,60.08-146.71,2.19-5.35,2.17-11.23-.07-16.57-2.23-5.33-6.41-9.48-11.76-11.67-2.65-1.09-5.43-1.64-8.22-1.64h0ZM325.67,238l-19.77-8.11L390.21,24.14c1.07-2.64,3.12-4.71,5.76-5.82,1.33-.56,2.73-.84,4.12-.84s2.73.27,4.03.81c5.42,2.25,8.05,8.51,5.86,13.96l-84.31,205.75h0ZM267.68,294.29l-63.98-26.19.28-.69c1.25-3.1,5.1-12.5,5.45-13.35l.19-.46h.12c.24-.34.59-.61.99-.78.3-.13.61-.19.92-.19.31,0,.61.06.9.18l61.74,25.26-6.61,16.22h0ZM184.15,384.28l-.18-.71c-6.86-26.6-4.98-55.06,5.28-80.14l10.27-25.12,63.98,26.19-2.88,6.99c-2.18,5.32-2.16,11.19.05,16.51,2.23,5.36,6.43,9.52,11.83,11.73,2.65,1.1,5.43,1.64,8.22,1.64s5.67-.57,8.36-1.7c5.32-2.25,9.46-6.42,11.66-11.77l2.88-6.98,63.93,26.19-10.27,25.12c-8.42,20.53-22.31,38.66-40.15,52.41l-.47.36-18.64-14.9c-24.08-19.18-53.41-29.28-83.48-29.28-9.87,0-19.81,1.09-29.68,3.3l-.71.16h0ZM371.73,336.91l-63.98-26.19,6.66-16.23,61.74,25.31c1.23.51,1.81,1.86,1.31,3.08l-5.73,14.03h0Z"/>
      </g>
    </g>
  </g>
</svg>