<svg id="Capa_1" enable-background="new 0 0 512 512" height="512" viewBox="0 0 512 512" width="512" xmlns="http://www.w3.org/2000/svg"><g><path d="m136 192c11.046 0 20-8.954 20-20v-112c0-11.028 8.972-20 20-20h160c11.028 0 20 8.972 20 20v112c0 11.046 8.954 20 20 20s20-8.954 20-20v-112c0-33.084-26.916-60-60-60h-160c-33.084 0-60 26.916-60 60v112c0 11.046 8.954 20 20 20z"/><path d="m93.623 249.629c-11.416 11.454-17.674 26.667-17.622 42.838.145 44.448 21.278 85.908 56.904 112.217 14.462 10.678 23.095 28.267 23.095 47.049v20.267h-20c-11.046 0-20 8.954-20 20s8.954 20 20 20h240c11.046 0 20-8.954 20-20s-8.954-20-20-20h-20v-20.267c0-18.782 8.633-36.371 23.094-47.05 35.607-26.295 56.759-67.745 56.905-112.217.053-16.171-6.206-31.384-17.622-42.838-11.332-11.367-26.381-17.628-42.377-17.628h-240c-15.996 0-31.045 6.261-42.377 17.629zm296.423 28.238c3.856 3.869 5.97 9.007 5.952 14.469-.104 31.941-14.927 61.162-40.667 80.17-24.627 18.188-39.331 47.806-39.331 79.227v20.267h-120v-20.267c0-31.422-14.704-61.04-39.333-79.228-25.74-19.008-40.562-48.228-40.666-80.169-.018-5.462 2.096-10.601 5.952-14.469 3.771-3.783 8.76-5.867 14.046-5.867h240c5.288 0 10.276 2.084 14.047 5.867z"/><circle cx="296" cy="100" r="20"/></g></svg>