<?xml version="1.0" encoding="UTF-8"?>
<svg id="Layer_2" xmlns="http://www.w3.org/2000/svg" viewBox="0 0 637.24 523.62">
  <defs>
    <style>
      .cls-1 {
        fill: #00b2ca;
      }
    </style>
  </defs>
  <g id="Layer_2-2" data-name="Layer_2">
    <g id="Farm">
      <g>
        <g>
          <path class="cls-1" d="M482.69,510.62c3.96-.69,7.86-1.57,11.68-2.64l-5.43,2.64h-6.26ZM435.73,510.62l-5.55-2.72c3.9,1.11,7.89,2.02,11.94,2.72h-6.4ZM120.27,510.62l-13.82-5.66c4.65.84,9.43,1.27,14.31,1.27s9.72-.44,14.39-1.29l-13.76,5.68h-1.12ZM324.83,380.64c-1.89,0-3.79-.25-5.67-.73-12.33-3.09-19.79-15.71-16.7-28.14,10.4-41.16,35.72-76.43,71.29-99.27l17.92-11.49h3.15l1.36-.63c3.86-1.67,8.07-3.32,12.51-4.91l4.77-1.77v-.05l7.22-1.85c13.72-3.54,27.76-5.34,41.76-5.34,12.71,0,25.57,1.51,38.23,4.49l7.1,1.67v.12l4.93,1.64c30.68,9.89,57.63,28.47,77.99,53.73,7.96,9.89,6.42,24.51-3.44,32.58-4.04,3.28-9.08,5.02-14.55,5.02-.23,0-.46,0-.69,0l-11.08-.28c-21.45-31.73-57.63-52.63-98.56-52.67h0c-58.99,0-108.09,43.52-117.35,100.37l-9.88,4.98c-3.32,1.68-6.8,2.53-10.33,2.53ZM509.52,62.64h-252.21v.03s-4.51-1.75-4.51-1.75c-9.5-3.75-15.65-12.81-15.65-23.06,0-13.7,11.06-24.85,24.66-24.85h251.71c13.59,0,24.65,11.15,24.65,24.85s-10.33,24.07-23.52,24.67l-5.13.24v-.11Z"/>
          <path d="M513.52,19.5c10.01,0,18.15,8.23,18.15,18.35s-7.61,17.74-17.33,18.17l-.66.03-1.87.09h-253.36l-2.7-1.05-.55-.22c-7.02-2.78-11.55-9.46-11.55-17.02,0-10.12,8.15-18.35,18.16-18.35h251.71M462.45,232.97c12.21,0,24.57,1.45,36.74,4.31l.85.2,4.8,1.13,5.33,1.78.48.16.06.02.06.02c29.41,9.48,55.3,27.33,74.86,51.6,5.73,7.12,4.62,17.64-2.46,23.46-2.93,2.37-6.45,3.57-10.45,3.57-.17,0-.34,0-.53,0l-1.19-.03-6.6-.17c-22.82-31.89-60.04-52.72-102.01-52.76-61.08,0-112.1,44.21-123.18,102.54l-5.88,2.97-1.09.55c-2.4,1.21-4.89,1.83-7.4,1.83-1.34,0-2.69-.18-4.03-.52h-.05s-.05-.03-.05-.03c-8.8-2.21-14.15-11.29-11.93-20.21,10-39.58,34.33-73.47,68.51-95.41l1.98-1.27,14.33-9.19h2.68l2.58-1.19c3.71-1.61,7.76-3.2,12.04-4.72l.07-.02.07-.02.46-.17,4.4-1.62,5.57-1.43.89-.23c13.18-3.4,26.67-5.13,40.12-5.13M513.52,6.5h-251.71c-17.18,0-31.16,14.07-31.16,31.35,0,12.94,7.77,24.37,19.79,29.12l.59.23-.18.61-48.74,166.7h-28.32v-51.75c0-12.61-8.57-23.46-20.83-26.38l-.45-.11-.07-.45c-.12-.74-.09-2-.04-3.73.24-9.54.82-31.87-18.79-51.63-1.06-1.06-2.47-1.65-3.97-1.65s-2.9.59-3.96,1.65c-2.18,2.18-2.21,5.74-.06,7.94,16.27,16.38,15.74,35.45,15.52,43.59-.05,1.63-.08,2.92.02,3.61l.1.63-.62.15c-12.26,2.92-20.83,13.77-20.83,26.38v52.21l-.58.1c-19.33,3.11-33.35,19.6-33.35,39.19v71.67l-.41.18c-30.69,13.99-50.53,44.82-50.53,78.55s20.94,66.5,53.35,79.88l3.22,1.32H12.13c-3.1,0-5.63,2.53-5.63,5.63s2.53,5.63,5.63,5.63h612.98c3.11,0,5.63-2.52,5.63-5.63s-2.52-5.63-5.62-5.63h-111.56l2.69-1.31c42.53-20.75,70.01-64.68,70.01-111.93,0-20.69-5.2-41.22-15.02-59.39l-.57-1.05,1.19.03c.29,0,.57.01.86.01,6.98,0,13.42-2.23,18.66-6.49,12.61-10.32,14.58-29.02,4.38-41.69-21.16-26.25-49.18-45.56-81-55.82l-.48-.16V69.04l.66-.03c16.67-.75,29.73-14.44,29.73-31.16s-13.97-31.35-31.15-31.35h0ZM418.22,225.73V69.14h84.8v155.69l-.85-.2c-13.14-3.09-26.5-4.66-39.72-4.66-14.53,0-29.12,1.86-43.37,5.54l-.86.22h0ZM213.81,234.51l.26-.89,48.11-164.48h144.79v160.04l-.46.17c-4.51,1.61-8.88,3.32-12.98,5.1l-.13.06h-179.59ZM131.07,234.5v-51.75c0-8.74,7.06-15.85,15.73-15.85s15.73,7.11,15.73,15.85v51.75h-31.46ZM97.13,341.84v-67.58c0-7.86,3.18-14.98,8.3-20.14,5.13-5.16,12.2-8.36,20.01-8.36h246.79l-1.98,1.27c-36.97,23.74-63.28,60.38-74.09,103.17-3.96,15.9,5.63,32.05,21.37,36,2.42.63,4.87.94,7.3.94,4.53,0,9.02-1.08,13.26-3.22l1.09-.55-.09,1.21c-.18,2.63-.37,5.3-.37,8.04,0,15.14,2.77,30.06,8.23,44.37l.36.94h-141.96l.1-.79c.47-3.37,1.01-7.84,1.01-12.48,0-47.53-38.44-86.2-85.7-86.2-7.56,0-15.21,1.06-22.75,3.14l-.88.24h0ZM462.39,505.86c-61.99,0-112.42-50.8-112.42-113.24s50.43-113.36,112.42-113.36c62.12.06,112.61,50.92,112.61,113.36s-50.52,113.24-112.61,113.24h0ZM120.76,499.73c-41.11,0-74.56-33.67-74.56-75.07s33.45-74.94,74.56-74.94,74.44,33.62,74.44,74.94-33.39,75.07-74.44,75.07h0ZM149.95,505.86l3.22-1.33c23.97-9.89,42.04-29.88,49.59-54.85l.15-.49h149.44l.19.37c12.15,23.68,32.06,43.21,56.06,54.99l2.67,1.31H149.95Z"/>
        </g>
        <g>
          <path class="cls-1" d="M120.7,461.39c-20.08,0-36.41-16.45-36.41-36.66s16.33-36.67,36.41-36.67,36.41,16.45,36.41,36.67-16.33,36.66-36.41,36.66Z"/>
          <path d="M120.7,394.56c16.49,0,29.91,13.53,29.91,30.17s-13.42,30.16-29.91,30.16-29.91-13.53-29.91-30.16,13.42-30.17,29.91-30.17M120.7,381.56c-23.66,0-42.91,19.36-42.91,43.17s19.25,43.16,42.91,43.16,42.91-19.36,42.91-43.16-19.25-43.17-42.91-43.17h0Z"/>
        </g>
        <g>
          <path class="cls-1" d="M462.45,454.57c-33.94,0-61.56-27.79-61.56-61.95s27.62-62.07,61.56-62.07c16.41,0,31.86,6.46,43.5,18.19,11.66,11.75,18.07,27.33,18.07,43.88,0,34.16-27.62,61.95-61.57,61.95Z"/>
          <path d="M462.45,337.05c14.66,0,28.47,5.78,38.88,16.27,10.44,10.52,16.19,24.48,16.19,39.3,0,30.58-24.7,55.45-55.07,55.45s-55.06-24.87-55.06-55.45,24.7-55.57,55.06-55.57M462.45,324.05c-37.53,0-68.06,30.76-68.06,68.57s30.53,68.45,68.06,68.45,68.07-30.71,68.07-68.45c0-18.28-7.09-35.49-19.96-48.46-12.87-12.97-29.96-20.11-48.11-20.11h0Z"/>
        </g>
      </g>
    </g>
  </g>
</svg>