<?xml version="1.0" encoding="UTF-8"?>
<svg id="Layer_2" xmlns="http://www.w3.org/2000/svg" viewBox="0 0 604.42 520.41">
  <defs>
    <style>
      .cls-1 {
        fill: #00b2ca;
      }
    </style>
  </defs>
  <g id="Layer_2-2" data-name="Layer_2">
    <g id="Unit_Type">
      <g>
        <g>
          <path class="cls-1" d="M47.99,507.41c-.28,0-.52-.24-.52-.51s.24-.52.52-.52h22.86V195.57l-57.08,44.67c-.11.08-.18.11-.28.11h-.1c-.06-.02-.15-.03-.26-.18-.08-.11-.14-.17-.11-.36.03-.21.12-.32.2-.37l57.81-45.33L301.98,13.08c.09-.07.15-.08.18-.08.09,0,.17.06.23.1l288.81,226.39c.19.14.2.25.2.3,0,.09.02.14-.1.28l-.11.14c-.05.06-.12.13-.28.15,0,0,0,0,0,0-.11,0-.19-.01-.3-.1l-57.01-44.72v310.83h22.86c.28,0,.51.24.51.52s-.23.51-.51.51H47.99ZM418.72,222.62c17.23,0,31.25,14.02,31.25,31.25v252.51h82.6V194.72L302.22,14.15,71.86,194.72v311.65h82.52v-252.51c0-17.23,14.05-31.25,31.33-31.25h233.01ZM224.55,395.38c-12.45,0-22.58,10.13-22.58,22.58v65.75c0,12.5,10.13,22.67,22.58,22.67h84.47c12.5,0,22.67-10.17,22.67-22.67v-65.75c0-12.45-10.17-22.58-22.67-22.58h-41.68v43.25c0,.28-.23.52-.51.52-.34,0-.51-.17-.51-.52v-43.25h-41.77Z"/>
          <path d="M418.72,229.12c13.65,0,24.75,11.1,24.75,24.75v247.04h-110.9c3.53-4.83,5.62-10.77,5.62-17.2v-65.75c0-16.03-13.09-29.08-29.17-29.08h-84.47c-16.03,0-29.08,13.05-29.08,29.08v65.75c0,6.43,2.08,12.37,5.61,17.2h-40.2v-247.04c0-13.65,11.14-24.75,24.83-24.75h233.01M302.17,6.5c-1.51,0-3.02.51-4.27,1.53L67,189l-57.84,45.35c-1.45,1.15-2.38,2.81-2.61,4.67-.23,1.86.27,3.68,1.42,5.13,1.15,1.49,2.79,2.43,4.64,2.65.29.04.58.05.87.05,1.55,0,3.05-.52,4.29-1.49l46.57-36.45v290.97h-16.36c-3.87,0-7.02,3.15-7.02,7.02s3.15,7.01,7.02,7.01h508.48c3.87,0,7.01-3.15,7.01-7.01s-3.14-7.02-7.01-7.02h-16.36V208.91l46.46,36.44c1.26,1,2.76,1.52,4.32,1.52.28,0,.56-.02.84-.05,1.86-.23,3.51-1.17,4.64-2.64,1.2-1.48,1.72-3.27,1.51-5.1-.21-1.88-1.17-3.55-2.68-4.72h-.01S306.48,8.05,306.48,8.05c-1.28-1.03-2.8-1.55-4.32-1.55h0ZM78.36,499.88V197.89L302.22,22.41l223.85,175.48v301.99h-69.6v-246.01c0-20.82-16.93-37.75-37.75-37.75h-233.01c-20.86,0-37.83,16.93-37.83,37.75v246.01h-69.52ZM266.83,445.65c3.87,0,7.01-3.15,7.01-7.02v-36.75h35.18c8.92,0,16.17,7.21,16.17,16.08v65.75c0,8.92-7.25,16.17-16.17,16.17h-84.47c-8.87,0-16.08-7.25-16.08-16.17v-65.75c0-8.87,7.21-16.08,16.08-16.08h35.27v36.75c0,3.94,3.08,7.02,7.01,7.02h0Z"/>
        </g>
        <g>
          <path class="cls-1" d="M302.22,165.53c-20.93,0-37.95-17.02-37.95-37.95s17.02-37.95,37.95-37.95,37.86,17.02,37.86,37.95-16.98,37.95-37.86,37.95Z"/>
          <path d="M302.22,96.13c17.29,0,31.36,14.11,31.36,31.45s-14.07,31.45-31.36,31.45-31.45-14.11-31.45-31.45,14.11-31.45,31.45-31.45M302.22,83.13c-24.51,0-44.45,19.94-44.45,44.45s19.94,44.45,44.45,44.45,44.36-19.94,44.36-44.45-19.9-44.45-44.36-44.45h0Z"/>
        </g>
      </g>
    </g>
  </g>
</svg>