<?xml version="1.0" encoding="UTF-8"?>
<svg id="Layer_2" xmlns="http://www.w3.org/2000/svg" viewBox="0 0 543.47 525">
  <defs>
    <style>
      .cls-1 {
        fill: #00b2ca;
      }
    </style>
  </defs>
  <g id="Layer_2-2" data-name="Layer_2">
    <g id="Accessibility">
      <g>
        <g>
          <path class="cls-1" d="M13.53,512c-.29,0-.53-.24-.53-.53s.24-.53.53-.53h28.06V53.52c0-22.34,18.18-40.52,40.52-40.52h379.16c22.34,0,40.52,18.18,40.52,40.52v457.42h28.14c.29,0,.53.24.53.53s-.24.53-.53.53H13.53ZM387.15,93.23c.29,0,.53.24.53.53v417.18h113.07V53.52c0-21.76-17.71-39.47-39.47-39.47H82.11c-21.76,0-39.47,17.71-39.47,39.47v457.42h50.35V93.76c0-.29.24-.53.53-.53h293.63ZM240.86,510.95h145.76V94.29h-145.76v416.66Z"/>
          <path d="M234.36,99.73v405.77H99.49V99.73h134.87M461.28,6.5H82.12c-25.93,0-47.02,21.09-47.02,47.02v450.92H13.53c-3.88,0-7.03,3.15-7.03,7.03s3.15,7.03,7.03,7.03h516.42c3.88,0,7.03-3.15,7.03-7.03s-3.15-7.03-7.03-7.03h-21.64V53.52c0-25.93-21.1-47.02-47.02-47.02h0ZM49.15,504.45V53.52c0-18.18,14.79-32.97,32.97-32.97h379.16c18.18,0,32.97,14.79,32.97,32.97v450.92h-100.07V93.76c0-3.88-3.15-7.03-7.03-7.03H93.52c-3.88,0-7.03,3.15-7.03,7.03v410.68h-37.35ZM247.36,504.45V100.79h132.76v403.66h-132.76Z"/>
        </g>
        <g>
          <path class="cls-1" d="M226.41,52c-.29,0-.53-.24-.53-.53s.24-.53.53-.53h77.14c.29,0,.53.24.53.53s-.24.53-.53.53h-77.14Z"/>
          <path d="M303.55,44.45h-77.14c-3.88,0-7.03,3.15-7.03,7.03s3.15,7.03,7.03,7.03h77.14c3.88,0,7.03-3.15,7.03-7.03s-3.15-7.03-7.03-7.03h0Z"/>
        </g>
        <g>
          <path class="cls-1" d="M467.43,244.08c-.15,0-.27-.05-.37-.15l-22.52-22.52-22.51,22.52c-.1.1-.22.15-.37.15s-.27-.05-.37-.15c-.2-.2-.2-.54,0-.75l22.88-22.88c.1-.1.23-.15.37-.15h0c.15,0,.27.05.37.15l22.89,22.88c.2.2.2.54,0,.75-.13.13-.26.15-.37.15Z"/>
          <path d="M444.54,213.65c-1.8,0-3.6.69-4.97,2.06l-22.88,22.88c-2.74,2.74-2.74,7.2,0,9.94,1.37,1.37,3.17,2.06,4.97,2.06s3.6-.69,4.97-2.06l17.91-17.92,17.92,17.92c1.33,1.33,3.09,2.06,4.97,2.06s3.63-.73,4.97-2.06c2.74-2.74,2.74-7.2,0-9.94l-22.89-22.88c-1.37-1.37-3.17-2.06-4.97-2.06h0Z"/>
        </g>
        <g>
          <path class="cls-1" d="M444.54,320.5c-.15,0-.27-.05-.37-.15l-22.88-22.89c-.2-.2-.2-.55,0-.75.04-.04.14-.14.37-.14s.35.12.39.16l22.49,22.5,22.52-22.52c.11-.11.22-.15.37-.15.11,0,.24.02.39.17.19.19.18.53-.02.73l-22.89,22.89c-.11.11-.22.15-.36.15h0Z"/>
          <path d="M467.43,290.06c-1.88,0-3.64.73-4.97,2.06l-17.92,17.92-17.91-17.92c-1.38-1.37-3.17-2.05-4.97-2.05s-3.6.68-4.97,2.05c-2.74,2.74-2.74,7.2,0,9.94l22.88,22.89c1.33,1.32,3.09,2.06,4.97,2.06h.01c1.87,0,3.63-.73,4.96-2.06l22.89-22.89c2.74-2.74,2.74-7.2,0-9.94-1.34-1.33-3.09-2.06-4.97-2.06h0Z"/>
        </g>
      </g>
    </g>
  </g>
</svg>