<?xml version="1.0" encoding="UTF-8"?>
<svg id="Layer_2" xmlns="http://www.w3.org/2000/svg" viewBox="0 0 525 525">
  <defs>
    <style>
      .cls-1 {
        fill: #00b2ca;
      }
    </style>
  </defs>
  <g id="Layer_2-2" data-name="Layer_2">
    <g id="Size__x28_sqft_x29_">
      <g>
        <g>
          <path class="cls-1" d="M452.16,512c-5.04,0-9.14-4.1-9.14-9.14v-24.88H81.99v24.88c0,5.04-4.1,9.14-9.14,9.14H22.19c-5.07,0-9.19-4.1-9.19-9.14v-50.7c0-5.04,4.12-9.14,9.19-9.14h24.83V82.03h-24.83c-5.07,0-9.19-4.12-9.19-9.19V22.18c0-5.06,4.12-9.18,9.19-9.18h50.65c5.04,0,9.14,4.12,9.14,9.18v24.83h361.03v-24.83c0-5.06,4.1-9.18,9.14-9.18h50.65c5.06,0,9.18,4.12,9.18,9.18v50.65c0,5.07-4.12,9.19-9.18,9.19h-24.83v360.98h24.83c5.06,0,9.18,4.1,9.18,9.14v50.7c0,5.04-4.12,9.14-9.18,9.14h-50.65ZM47.97,443.01h24.88c5.04,0,9.14,4.1,9.14,9.14v24.88h361.03v-24.88c0-5.04,4.1-9.14,9.14-9.14h24.88V82.03h-24.88c-5.04,0-9.14-4.12-9.14-9.19v-24.88H81.99v24.88c0,5.07-4.1,9.19-9.14,9.19h-24.88v360.98Z"/>
          <path d="M502.82,19.5c1.48,0,2.68,1.2,2.68,2.68v50.65c0,1.46-1.23,2.69-2.68,2.69h-50.65c-1.46,0-2.64-1.21-2.64-2.69V22.18c0-1.48,1.19-2.68,2.64-2.68h50.65M72.85,19.5c1.46,0,2.64,1.2,2.64,2.68v50.65c0,1.49-1.19,2.69-2.64,2.69H22.19c-1.49,0-2.69-1.21-2.69-2.69V22.18c0-1.48,1.21-2.68,2.69-2.68h50.65M502.82,449.51c1.48,0,2.68,1.19,2.68,2.64v50.7c0,1.46-1.2,2.64-2.68,2.64h-50.65c-1.43,0-2.64-1.21-2.64-2.64v-50.7c0-1.43,1.21-2.64,2.64-2.64h50.65M72.85,449.51c1.43,0,2.64,1.21,2.64,2.64v50.7c0,1.43-1.21,2.64-2.64,2.64H22.19c-1.49,0-2.69-1.19-2.69-2.64v-50.7c0-1.46,1.21-2.64,2.69-2.64h50.65M502.82,6.5h-50.65c-8.62,0-15.64,7.03-15.64,15.68v18.33H88.49v-18.33c0-8.65-7.02-15.68-15.64-15.68H22.19c-8.65,0-15.69,7.03-15.69,15.68v50.65c0,8.65,7.04,15.69,15.69,15.69h18.33v347.98h-18.33c-8.65,0-15.69,7.02-15.69,15.64v50.7c0,8.62,7.04,15.64,15.69,15.64h50.65c8.62,0,15.64-7.02,15.64-15.64v-18.38h348.03v18.38c0,8.62,7.02,15.64,15.64,15.64h50.65c8.65,0,15.68-7.02,15.68-15.64v-50.7c0-8.62-7.03-15.64-15.68-15.64h-18.33V88.53h18.33c8.64,0,15.68-7.04,15.68-15.69V22.18c0-8.65-7.04-15.68-15.68-15.68h0ZM54.47,436.51V88.53h18.38c8.62,0,15.64-7.04,15.64-15.69v-18.38h348.03v18.38c0,8.65,7.02,15.69,15.64,15.69h18.38v347.98h-18.38c-8.62,0-15.64,7.02-15.64,15.64v18.38H88.49v-18.38c0-8.62-7.02-15.64-15.64-15.64h-18.38Z"/>
        </g>
        <g>
          <path class="cls-1" d="M311.56,412.28c-49.19,0-90.49-38.48-94.02-87.6l-.43-6.03h-97.64c-.25,0-.47-.22-.47-.47v-180.04c0-.26.22-.48.47-.48h180.05c.25,0,.47.22.47.48v86.09l7-.53c1.52-.12,3.02-.22,4.58-.22,52.09,0,94.46,42.33,94.46,94.35s-42.38,94.45-94.46,94.45ZM119.94,317.71h97.15l.4-6.07c1.37-20.77,9.75-40.79,23.6-56.37,13.75-15.49,32.46-26.15,52.67-30.03l5.28-1.01v-85.62H119.94v179.1Z"/>
          <path d="M311.56,229.97c48.5,0,87.96,39.41,87.96,87.85s-39.46,87.95-87.96,87.95c-45.8,0-84.25-35.83-87.54-81.57l-.44-6.14.4-6.01c1.28-19.34,9.08-37.98,21.97-52.49,12.81-14.42,30.22-24.35,49.03-27.96l4.21-.81,8.28-.63c1.39-.11,2.75-.2,4.09-.2M299.51,131.15H119.46c-3.84,0-6.97,3.13-6.97,6.98v180.04c0,3.85,3.13,6.97,6.97,6.97h91.59c3.78,52.57,47.79,93.64,100.51,93.64,55.67,0,100.96-45.29,100.96-100.95s-45.3-100.85-100.96-100.85c-1.74,0-3.38.11-5.07.24v-79.08c0-3.85-3.13-6.98-6.97-6.98h0ZM126.44,311.21v-166.1h166.09v73.74c-21.62,4.15-41.59,15.52-56.3,32.1-14.82,16.67-23.76,38.05-25.23,60.26h-84.56Z"/>
        </g>
      </g>
    </g>
  </g>
</svg>