<?xml version="1.0" encoding="UTF-8"?>
<svg id="Layer_2" xmlns="http://www.w3.org/2000/svg" viewBox="0 0 670.08 525">
  <defs>
    <style>
      .cls-1 {
        fill: #00b2ca;
      }
    </style>
  </defs>
  <g id="Layer_2-2" data-name="Layer_2">
    <g id="Security_Features">
      <g>
        <g>
          <path class="cls-1" d="M656.51,512c-.31,0-.58-.27-.58-.58v-64.84h-244.41c-51.31,0-93.05-41.74-93.05-93.05v-106.73h-182.1c-29.58,0-53.65-24.02-53.65-53.55v-55.46c0-38.1-30.95-69.09-68.99-69.09-.12,0-.22,0-.3,0-.26-.74-.56-2.47-.32-6.41.05-.87.1-1.68.05-2.53.2-25.79,21.3-46.73,47.12-46.73h473.48c36.85,0,66.83,29.98,66.83,66.82v63.66c0,56.97-46.4,103.31-103.43,103.31h-104.44v106.73c0,10.37,8.44,18.81,18.81,18.81h244.41v-64.84c0-.31.27-.58.58-.58s.57.27.57.58v203.93c0,.31-.26.58-.57.58ZM319.62,353.52c0,50.68,41.23,91.9,91.9,91.9h244.41v-71.94h-244.41c-11,0-19.96-8.96-19.96-19.97v-106.72h-71.95v106.72ZM60.27,14.15c-24.57,0-44.76,19.25-45.96,43.83l-.45,9.02,8.96,1.17c34.8,4.51,61.04,34.43,61.04,69.6v55.46c0,28.9,23.55,52.4,52.5,52.4h73.72c56.33,0,102.16-45.83,102.16-102.16V14.15H60.27Z"/>
          <path d="M533.75,19.5c33.27,0,60.33,27.06,60.33,60.32v63.66c0,53.38-43.48,96.81-96.93,96.81h-237.76c35.2-18,59.35-54.64,59.35-96.81V19.5h215M533.75,6.5H60.27C30.77,6.5,6.75,30.44,6.65,59.92c.04.51.01,1.08-.04,1.95-.16,2.6-.53,8.7,2.18,11.57,1.1,1.17,2.71,1.75,4.93,1.75,34.46,0,62.49,28.08,62.49,62.59v55.46c0,33.11,26.98,60.05,60.15,60.05h175.6v100.23c0,54.89,44.67,99.55,99.55,99.55h237.91v58.34c0,3.9,3.17,7.08,7.08,7.08s7.07-3.18,7.07-7.08v-203.93c0-3.9-3.17-7.08-7.07-7.08s-7.08,3.18-7.08,7.08v58.34h-237.91c-6.79,0-12.31-5.52-12.31-12.31v-100.23h97.94c60.61,0,109.93-49.27,109.93-109.81v-63.66c0-40.43-32.9-73.32-73.33-73.32h0ZM136.37,239.14c-25.36,0-46-20.59-46-45.9v-55.46c0-38.43-28.67-71.12-66.7-76.05l-3.02-.4.15-3.04c1.03-21.11,18.36-37.65,39.47-37.65h245.48v122.83c0,52.75-42.91,95.66-95.66,95.66h-73.72ZM411.52,438.92c-47.09,0-85.4-38.31-85.4-85.4v-100.22h58.95v100.22c0,14.59,11.87,26.47,26.46,26.47h237.91v58.94h-237.91Z"/>
        </g>
        <g>
          <path class="cls-1" d="M190.9,174.32c-26.38,0-47.85-21.47-47.85-47.85s21.46-47.95,47.85-47.95,47.86,21.51,47.86,47.95-21.47,47.85-47.86,47.85Z"/>
          <path d="M190.9,85.02c22.81,0,41.36,18.59,41.36,41.45s-18.55,41.35-41.36,41.35-41.35-18.55-41.35-41.35,18.55-41.45,41.35-41.45M190.9,72.02c-29.97,0-54.35,24.42-54.35,54.45s24.38,54.35,54.35,54.35,54.36-24.38,54.36-54.35-24.39-54.45-54.36-54.45h0Z"/>
        </g>
      </g>
    </g>
  </g>
</svg>