<svg fill="none" height="64" viewBox="0 0 64 64" width="64" xmlns="http://www.w3.org/2000/svg"><g fill="rgb(0,0,0)"><path d="m20 31c-1.1046 0-2 .8954-2 2s.8954 2 2 2h24c1.1046 0 2-.8954 2-2s-.8954-2-2-2z"/><path d="m18 17c0-1.1046.8954-2 2-2h8c1.1046 0 2 .8954 2 2s-.8954 2-2 2h-8c-1.1046 0-2-.8954-2-2z"/><path d="m35 47c-1.1046 0-2 .8954-2 2s.8954 2 2 2h8c1.1046 0 2-.8954 2-2s-.8954-2-2-2z"/><path d="m29.2584 42.4455c.8585.695.9911 1.9544.2961 2.8129l-5.6667 7c-.3939.4866-.9929.7607-1.6187.7406-.6257-.0201-1.2059-.3321-1.5678-.843l-2.3333-3.2941c-.6385-.9013-.4254-2.1496.476-2.7881.9013-.6384 2.1496-.4253 2.788.476l.8077 1.1402 4.0058-4.9484c.695-.8585 1.9544-.9911 2.8129-.2961z"/><path d="m20 23c-1.1046 0-2 .8954-2 2s.8954 2 2 2h14c1.1046 0 2-.8954 2-2s-.8954-2-2-2z"/><path clip-rule="evenodd" d="m21 2c-7.732 0-14 6.26801-14 14v32c0 7.732 6.268 14 14 14h22c7.732 0 14-6.268 14-14v-32c0-7.73199-6.268-14-14-14zm-10 14c0-5.5228 4.4772-10 10-10h22c5.5228 0 10 4.4772 10 10v32c0 5.5228-4.4772 10-10 10h-22c-5.5228 0-10-4.4772-10-10z" fill-rule="evenodd"/></g></svg>