<?xml version="1.0" encoding="UTF-8"?>
<svg id="Layer_2" xmlns="http://www.w3.org/2000/svg" viewBox="0 0 524.87 525">
  <defs>
    <style>
      .cls-1 {
        fill: #00b2ca;
      }
    </style>
  </defs>
  <g id="Layer_2-2" data-name="Layer_2">
    <g id="Condition">
      <g>
        <g>
          <path class="cls-1" d="M58.53,512c-8.35,0-15.49-5.97-16.99-14.18l-28.26-155.19c-.83-4.55.16-9.13,2.79-12.92,2.63-3.79,6.55-6.33,11.07-7.14l53.23-9.71c1.03-.19,2.08-.29,3.11-.29,8.31,0,15.44,5.97,16.96,14.2l3.11,17.22,20.79-12.37c19.42-11.63,41.48-17.78,63.83-17.78,15.25,0,30.3,2.81,44.73,8.34l3.49,1.33,108.45-15.31c1.2-.17,2.43-.26,3.64-.26,6.89,0,13.62,2.75,18.47,7.53,4.31,4.2,7.05,9.76,7.76,15.69l1.36,11.42,88.7-68.97c5.89-4.58,13.31-7.1,20.89-7.1,6.32,0,12.49,1.72,17.83,4.98,2.32,1.42,4.23,3.3,5.66,5.56,1.44,2.27,2.31,4.78,2.59,7.48.58,5.44-1.35,10.7-5.29,14.46l-117.52,112.83c-26.63,25.57-63.11,40.24-100.09,40.24h0c-2.9,0-5.84-.09-8.73-.27l-118.61-7.28c-.23,0-.45-.02-.67-.02-3.32,0-6.56,1.12-9.12,3.15l-25.57,20.23,2.55,14.07c.83,4.54-.16,9.13-2.79,12.94-2.62,3.78-6.54,6.31-11.06,7.13l-53.23,9.71c-1.03.19-2.07.28-3.08.28ZM188.52,314.95c-22.55,0-44.58,6.03-63.69,17.45l-21.06,12.6,7.43,40.95,15.13,80.55,24.76-19.62c2.73-2.15,6.14-3.34,9.58-3.34.34,0,.67.01,1.01.03l118.49,7.23c2.9.18,5.84.27,8.74.27,36.7,0,72.93-14.56,99.39-39.93l117.51-112.82c3.72-3.54,5.55-8.52,5-13.66-.54-5.16-3.4-9.68-7.83-12.39-5.18-3.18-11.17-4.87-17.31-4.87-7.35,0-14.56,2.46-20.31,6.92l-93.94,73.08-.61.98c-3.83,6.15-10.23,10.46-17.54,11.84l-69.43,12.7c-.08.01-.12.02-.16.02-.23,0-.38-.14-.43-.42-.03-.18.18-.5.46-.55l69.43-12.69c9.53-1.77,16.9-8.34,19.72-17.58,2.83-9.23.39-18.79-6.52-25.58-4.74-4.62-11.24-7.27-17.85-7.27-1.16,0-2.33.08-3.48.24l-108.59,15.36c-.3-.01-1.07-.33-1.62-.56l-.32-.13c-.6-.25-1.25-.51-1.99-.76-13.98-5.35-28.77-8.06-43.96-8.06Z"/>
          <path d="M83.49,319.06c5.18,0,9.62,3.73,10.56,8.83l1.45,8.02,3.33,18.45.04-.02,5.95,32.77v.04s.01.04.01.04l13.13,69.94,1.46,7.77-.36.29,1.39,7.68,1.86,10.26c.53,2.86-.08,5.64-1.74,8.05-1.65,2.39-4.03,3.92-6.89,4.44l-53.22,9.71c-.65.12-1.3.18-1.92.18-5.21,0-9.66-3.72-10.59-8.85l-28.26-155.21c-.52-2.82.1-5.67,1.75-8.05,1.65-2.39,4.03-3.92,6.89-4.44l53.24-9.71c.64-.12,1.29-.18,1.93-.18M485.69,260c-8.85,0-17.66,2.85-24.88,8.47l-79.62,61.91c-.89-7.43-4.29-14.32-9.65-19.54-6.13-6.05-14.49-9.4-23.04-9.4-1.52,0-3.04.11-4.55.32l-106.8,15.08-1.91-.73c-15.3-5.87-31.23-8.77-47.06-8.77-23.33,0-46.46,6.3-67.15,18.69l-12.73,7.58-1.45-8.02c-2.11-11.47-12.12-19.52-23.35-19.53-1.41,0-2.84.13-4.28.39l-53.22,9.71c-6.22,1.13-11.64,4.62-15.25,9.83-3.63,5.22-5,11.56-3.85,17.8l28.26,155.19c2.08,11.47,12.11,19.52,23.38,19.52,1.4,0,2.82-.13,4.25-.39l53.22-9.71c6.21-1.13,11.64-4.62,15.25-9.83,3.62-5.23,4.99-11.56,3.84-17.8l-1.85-10.23,22.51-17.81c1.43-1.13,3.22-1.74,5.09-1.74.13,0,.25,0,.38,0l118.5,7.28c3.04.19,6.09.28,9.13.28,38.79,0,76.49-15.05,104.6-42.05l117.51-112.82c5.41-5.16,8.07-12.4,7.27-19.84-.39-3.73-1.63-7.23-3.56-10.28-1.93-3.06-4.57-5.67-7.77-7.64-6.51-3.97-13.87-5.93-21.21-5.93h0ZM283.66,379.45c.44,0,.88-.04,1.33-.12l69.47-12.7c9.1-1.72,17.06-7.1,21.86-14.79l93.03-72.37c4.75-3.69,10.53-5.56,16.33-5.56,4.82,0,9.65,1.29,13.92,3.91,2.69,1.65,4.43,4.39,4.76,7.53.33,3.11-.78,6.13-3.04,8.29l-117.51,112.82c-25.52,24.48-59.71,38.13-94.89,38.13-2.78,0-5.56-.08-8.35-.26l-118.45-7.23c-.48-.03-.96-.05-1.44-.05-4.89,0-9.68,1.66-13.62,4.74l-16.32,12.93-13.13-69.94-6.63-36.52,17.19-10.29c18.32-10.94,39.32-16.53,60.36-16.53,14.16,0,28.33,2.53,41.73,7.67.78.27,1.45.55,2.06.8,1.41.58,2.57,1.06,4.02,1.06.32,0,.65-.02,1-.07l108.58-15.35c.86-.12,1.72-.18,2.57-.18,4.91,0,9.73,1.93,13.29,5.4,5.14,5.06,6.96,12.17,4.86,19.04-2.1,6.88-7.59,11.77-14.68,13.08l-69.48,12.7c-3.77.72-6.29,4.38-5.62,8.16.65,3.4,3.52,5.7,6.81,5.7h0Z"/>
        </g>
        <g>
          <path class="cls-1" d="M252.87,285.78c-4.33,0-7.86-3.52-7.86-7.85v-12.27l-4.93-1.23c-11.35-2.82-22.17-7.31-32.18-13.35l-4.38-2.65-8.67,8.75c-1.45,1.45-3.42,2.26-5.53,2.26s-4.07-.81-5.54-2.28l-22.68-22.68c-1.5-1.48-2.31-3.43-2.31-5.51,0-2.1.82-4.09,2.31-5.59l8.65-8.73-2.61-4.33c-6.01-9.99-10.49-20.8-13.31-32.14l-1.23-4.93h-12.27c-4.33,0-7.85-3.53-7.85-7.86v-32.04c0-4.33,3.52-7.85,7.85-7.85h12.28l1.22-4.94c2.8-11.31,7.28-22.12,13.31-32.14l2.61-4.34-8.64-8.71c-1.5-1.49-2.32-3.45-2.32-5.53,0-2.1.82-4.09,2.31-5.59l22.67-22.67c1.46-1.46,3.43-2.27,5.53-2.27s4.1.81,5.6,2.29l8.61,8.7,4.38-2.64c10.06-6.06,20.88-10.55,32.18-13.35l4.94-1.22v-12.28c0-4.33,3.53-7.85,7.86-7.85h32.04c4.33,0,7.86,3.52,7.86,7.85v12.27l4.93,1.23c11.38,2.83,22.19,7.32,32.12,13.34l4.38,2.65,8.67-8.75c1.44-1.43,3.43-2.24,5.55-2.24s4.11.81,5.6,2.29l22.59,22.64c1.51,1.49,2.32,3.45,2.32,5.56s-.79,4.05-2.3,5.54l-8.68,8.74,2.63,4.34c6.03,9.96,10.52,20.77,13.35,32.13l1.23,4.93h12.21c2.15,0,4.08.8,5.59,2.3,1.49,1.49,2.31,3.46,2.31,5.55v32.04c0,4.33-3.55,7.86-7.91,7.86h-12.23l-1.22,4.94c-2.81,11.36-7.3,22.16-13.34,32.11l-2.63,4.34,8.64,8.72c1.52,1.51,2.34,3.47,2.34,5.58s-.79,4.05-2.3,5.54l-22.64,22.68c-1.47,1.45-3.46,2.27-5.58,2.27s-4.1-.81-5.59-2.28l-8.63-8.72-4.38,2.64c-10,6.04-20.81,10.53-32.13,13.36l-4.92,1.23v12.26c0,4.33-3.52,7.85-7.86,7.85h-32.04ZM203.59,247.31c.06,0,.15,0,.21.05,12.75,8.51,26.79,14.33,41.76,17.32.21.04.41.27.41.49v12.76c0,3.8,3.09,6.9,6.9,6.9h32.04c3.8,0,6.9-3.09,6.9-6.9v-12.76c0-.22.19-.45.4-.49,14.91-2.98,28.96-8.8,41.69-17.29.06-.04.15-.06.25-.06.08,0,.24.02.36.14l9.02,9.02c1.3,1.3,3.04,2.02,4.89,2.02s3.58-.72,4.89-2.02l22.82-22.81c2.49-2.64,2.52-6.69.07-9.42l-.12-.14-9.17-9.12c-.12-.12-.14-.36-.04-.51,8.5-12.81,14.32-26.84,17.32-41.75.08-.37.31-.42.49-.42h12.7c3.83,0,6.95-3.09,6.95-6.9v-32.05c0-3.8-3.12-6.9-6.95-6.9h-12.7c-.17,0-.41-.04-.49-.42-3-14.91-8.82-28.95-17.3-41.72-.13-.19-.11-.44.03-.57l9.21-9.16.14-.16c2.42-2.74,2.29-6.9-.28-9.47l-22.65-22.64c-1.29-1.31-3.07-2.06-4.92-2.06s-3.63.75-4.92,2.06l-8.99,8.98c-.13.13-.31.15-.38.15-.1,0-.19-.02-.26-.07-12.71-8.48-26.75-14.3-41.71-17.28-.17-.04-.36-.27-.36-.5v-12.75c0-3.8-3.09-6.9-6.9-6.9h-32.04c-3.8,0-6.9,3.09-6.9,6.9v12.75c0,.18-.04.42-.43.5-14.93,2.98-28.97,8.8-41.71,17.29-.07.05-.13.06-.21.06s-.27-.02-.44-.19l-8.95-8.94c-1.29-1.31-3.07-2.06-4.92-2.06s-3.64.75-4.93,2.06l-22.56,22.61c-1.27,1.26-2.01,2.99-2.04,4.77-.03,1.85.71,3.66,2.02,4.97l9,9.05c.19.19.2.44.11.57-8.47,12.74-14.31,26.77-17.36,41.72l-.02.11c-.03.19-.22.32-.42.32h-12.75c-3.8,0-6.9,3.09-6.9,6.9v32.05c0,3.8,3.09,6.9,6.9,6.9h12.75c.21,0,.4.15.43.35,3.06,15.01,8.89,29.04,17.35,41.77.11.16.09.4-.08.57l-8.97,8.98c-1.33,1.3-2.09,3.08-2.09,4.94s.72,3.56,2.03,4.87l22.63,22.68c1.31,1.31,3.04,2.03,4.89,2.03s3.58-.72,4.89-2.02l9.02-9.02c.13-.13.29-.15.38-.15Z"/>
          <path d="M284.9,6.5h-32.04c-7.92,0-14.36,6.43-14.36,14.35v7.19c-11.96,2.96-23.38,7.71-33.97,14.09l-5.07-5.11c-2.81-2.78-6.49-4.17-10.17-4.17s-7.34,1.39-10.12,4.17l-22.67,22.67c-2.73,2.73-4.23,6.35-4.22,10.2,0,3.82,1.51,7.41,4.21,10.09l5.08,5.12c-6.36,10.57-11.09,21.98-14.05,33.93h-7.19c-7.91,0-14.35,6.43-14.35,14.35v32.04c0,7.92,6.44,14.36,14.35,14.36h7.19c2.97,11.94,7.69,23.35,14.05,33.92l-5.07,5.11c-2.73,2.73-4.23,6.35-4.22,10.2,0,3.82,1.51,7.41,4.22,10.09l22.67,22.67c2.69,2.7,6.29,4.19,10.14,4.19s7.46-1.49,10.15-4.19l5.07-5.11c10.58,6.39,22.01,11.13,33.97,14.1v7.19c0,7.91,6.44,14.35,14.36,14.35h32.04c7.92,0,14.36-6.44,14.36-14.35v-7.19c11.94-2.98,23.34-7.72,33.91-14.1l5.08,5.12c2.8,2.78,6.48,4.16,10.16,4.16s7.37-1.39,10.18-4.17l22.62-22.66c2.72-2.7,4.22-6.3,4.22-10.15s-1.5-7.46-4.22-10.15l-5.07-5.11c6.38-10.52,11.12-21.93,14.09-33.92h7.14c7.95,0,14.41-6.44,14.41-14.36v-32.04c0-3.84-1.51-7.44-4.23-10.15-2.72-2.71-6.33-4.2-10.18-4.2h-7.13c-2.98-11.99-7.72-23.4-14.1-33.93l5.07-5.1c2.72-2.7,4.22-6.3,4.22-10.15s-1.5-7.46-4.22-10.15l-22.62-22.67c-2.81-2.78-6.49-4.17-10.17-4.17s-7.36,1.39-10.17,4.17l-5.07,5.11c-10.5-6.36-21.91-11.1-33.92-14.09v-7.19c0-7.92-6.44-14.35-14.36-14.35h0ZM203.61,57.96c1.33,0,2.66-.38,3.82-1.15,12.02-8.02,25.28-13.51,39.4-16.33,3.32-.68,5.63-3.5,5.63-6.87v-12.75c0-.19.17-.4.4-.4h32.04c.19,0,.4.21.4.4v12.75c0,3.31,2.35,6.19,5.58,6.87,14.13,2.82,27.38,8.32,39.4,16.33,1.17.77,2.51,1.15,3.85,1.15,1.81,0,3.62-.7,4.97-2.05l9.02-9.01c.1-.11.23-.12.29-.12.07,0,.19.01.29.12l22.68,22.67c.16.16.15.41,0,.58l-9.07,9.02c-2.33,2.33-2.69,6.02-.85,8.76,8.02,12.07,13.51,25.33,16.34,39.4.67,3.32,3.49,5.63,6.86,5.63h12.7c.25,0,.45.18.45.4v32.05c0,.22-.2.4-.45.4h-12.7c-3.37,0-6.19,2.31-6.86,5.63-2.83,14.07-8.33,27.33-16.33,39.39-1.85,2.74-1.5,6.43.84,8.76l9.04,8.99c.18.2.19.45.03.62l-22.68,22.67c-.1.1-.22.12-.29.12s-.19-.02-.29-.12l-9.02-9.02c-1.35-1.35-3.15-2.04-4.96-2.04-1.34,0-2.68.38-3.86,1.15-12.02,8.02-25.28,13.51-39.4,16.33-3.23.67-5.58,3.56-5.58,6.86v12.76c0,.18-.21.4-.4.4h-32.04c-.24,0-.4-.21-.4-.4v-12.76c0-3.31-2.37-6.19-5.63-6.86-14.12-2.82-27.38-8.32-39.39-16.33-1.17-.79-2.51-1.17-3.85-1.17-1.81,0-3.62.7-4.98,2.05l-9.02,9.02c-.1.1-.22.12-.29.12s-.19-.02-.29-.12l-22.62-22.67c-.09-.09-.14-.19-.14-.29,0-.11.04-.21.14-.3l9.01-9.02c2.35-2.35,2.73-6.04.9-8.76-8-12.03-13.51-25.3-16.38-39.38-.62-3.27-3.48-5.64-6.82-5.64h-12.75c-.24,0-.4-.17-.4-.4v-32.05c0-.24.16-.4.4-.4h12.75c3.34,0,6.2-2.37,6.81-5.63,2.88-14.11,8.4-27.37,16.39-39.39,1.83-2.73,1.46-6.42-.9-8.77l-9.01-9.06c-.16-.16-.16-.39,0-.54l22.62-22.67c.1-.11.23-.12.29-.12.07,0,.19.01.29.12l9.03,9.02c1.38,1.35,3.18,2.04,4.99,2.04h0Z"/>
        </g>
        <g>
          <path class="cls-1" d="M249.5,226.72c-.74,0-1.48-.17-2.21-.5-2.17-.99-3.35-3.02-3.11-5.33l7.5-71.09h-22.79c-2.64,0-4.84-1.45-5.89-3.87-1.08-2.42-.65-4.98,1.13-6.89l60.21-65.25c1-1.07,2.41-1.69,3.86-1.69.75,0,1.48.16,2.16.48,2.07.95,3.29,3.09,3.03,5.32l-7.93,71.06,23.47.34c2.64.03,4.79,1.47,5.8,3.85,1.06,2.44.62,5-1.16,6.91l-60.35,64.93c-1.04,1.13-2.34,1.73-3.72,1.73Z"/>
          <path d="M286.5,81.03l-6.7,60.08-1.59,14.23,14.32.21,16.14.24-57.63,62,6.34-60.13,1.51-14.36h-29.86l57.45-62.26M288.2,65.59c-3.2,0-6.34,1.31-8.63,3.79l-60.19,65.23c-3.55,3.82-4.45,9.15-2.33,13.91,2.08,4.8,6.62,7.78,11.86,7.78h15.56l-6.74,63.91c-.54,5.11,2.15,9.78,6.86,11.92,1.61.74,3.28,1.1,4.93,1.1,3.15,0,6.21-1.32,8.49-3.81l60.35-64.93c3.53-3.8,4.44-9.11,2.38-13.86-2.01-4.78-6.5-7.78-11.7-7.83l-16.31-.24,7.13-63.91c.59-5.04-2.13-9.85-6.76-11.97-1.57-.72-3.23-1.07-4.89-1.07h0Z"/>
        </g>
      </g>
    </g>
  </g>
</svg>