<?xml version="1.0" encoding="UTF-8"?>
<svg id="Layer_2" xmlns="http://www.w3.org/2000/svg" viewBox="0 0 524.93 525">
  <defs>
    <style>
      .cls-1 {
        fill: #00b2ca;
      }
    </style>
  </defs>
  <g id="Layer_2-2" data-name="Layer_2">
    <g id="Building_Amenities">
      <g>
        <g>
          <path class="cls-1" d="M262.5,512c-19.72,0-35.77-16.08-35.77-35.86,0-17.27,12.37-32.07,29.4-35.2l5.85-1.01v-77.82l-6.65-.45c-21.54-1.54-41.57-9.85-57.88-24.02l-5.02-4.37-40.9,40.91,3.29,4.87c8.36,12.55,6.68,29.45-4.03,40.16-6,6-13.99,9.3-22.51,9.3s-16.5-3.3-22.5-9.3c-6.02-6-9.33-13.97-9.34-22.47,0-8.54,3.31-16.57,9.34-22.6,5.98-5.98,13.97-9.28,22.51-9.28,6.33,0,12.44,1.85,17.68,5.34l4.84,3.27,40.9-40.89-4.35-5.03c-14.19-16.42-22.5-36.45-24.02-57.91l-.45-6.63h-77.92l-1.01,5.95c-3.05,16.95-17.85,29.3-35.18,29.3-19.73,0-35.78-16.04-35.78-35.77s16.05-35.78,35.78-35.78c17.33,0,32.13,12.36,35.2,29.38l1.01,5.87h77.91l.45-6.65c1.54-21.53,9.82-41.53,23.94-57.8l4.35-5.02-40.84-40.94-4.87,3.22c-5.22,3.48-11.29,5.31-17.58,5.31-8.55,0-16.56-3.3-22.56-9.3-6.03-6-9.34-13.98-9.34-22.5s3.31-16.5,9.33-22.49c6.03-6.04,14.02-9.36,22.52-9.36s16.48,3.32,22.5,9.34c10.73,10.68,12.42,27.58,4.01,40.19l-3.23,4.89,40.86,40.86,5.02-4.36c16.34-14.18,36.33-22.49,57.82-24.02l6.63-.45v-77.79l-5.79-1.12c-17.05-3.07-29.38-17.88-29.38-35.21,0-19.72,16.04-35.77,35.77-35.77s35.78,16.04,35.78,35.77c0,17.33-12.38,32.13-29.45,35.2l-5.88,1.11v77.82l6.67.44c21.52,1.53,41.54,9.84,57.86,24.02l5.03,4.36,40.85-40.85-3.21-4.87c-8.37-12.62-6.68-29.53,4-40.22,6.01-6,14.01-9.31,22.54-9.31s16.53,3.31,22.54,9.32c12.4,12.4,12.4,32.59,0,45-6.01,6.01-14.03,9.32-22.59,9.32-6.3,0-12.39-1.84-17.6-5.31l-4.89-3.22-40.94,40.84,4.37,5.03c14.17,16.23,22.47,36.22,24.02,57.82l.56,6.63h77.68l1.12-5.79c3.13-17.05,17.94-29.38,35.21-29.38,19.73,0,35.78,16.05,35.78,35.78s-16.05,35.77-35.78,35.77c-17.33,0-32.13-12.38-35.2-29.45l-1-5.88h-77.81l-.54,6.57c-1.54,21.68-9.82,41.7-23.94,57.97l-4.36,5.03,40.79,40.79,4.94-3.14c5.23-3.46,11.32-5.29,17.63-5.29,8.57,0,16.58,3.3,22.57,9.29,12.39,12.45,12.4,32.68,0,45.07-6.03,6.03-14.03,9.34-22.54,9.34s-16.51-3.32-22.53-9.34c-10.77-10.77-12.43-27.65-3.97-40.14l3.25-4.93-40.85-40.86-5.03,4.36c-16.42,14.19-36.45,22.5-57.91,24.02l-6.63.45v77.82l5.91,1.02c16.97,3.12,29.34,17.92,29.34,35.19,0,19.77-16.05,35.86-35.78,35.86ZM128.28,365.91c-8.24,0-15.98,3.2-21.79,9.02-11.97,11.97-11.97,31.52,0,43.57,5.84,5.79,13.56,8.96,21.77,8.96,4.02,0,7.93-.76,11.63-2.26,3.84-1.55,7.28-3.83,10.21-6.77,5.79-5.79,8.99-13.52,8.99-21.75s-3.2-15.95-9-21.75c-5.81-5.81-13.55-9.01-21.79-9.01ZM396.69,365.87c-8.25,0-15.99,3.22-21.77,9.08-5.8,5.74-9.03,13.47-9.03,21.72s3.22,15.98,9.07,21.78c5.58,5.58,13.52,8.79,21.76,8.79,8.3-.01,16.2-3.23,21.75-8.83,5.8-5.77,9.02-13.5,9.02-21.74s-3.22-15.98-9.06-21.77c-5.76-5.81-13.49-9.03-21.74-9.03ZM262.43,164.01c-54.26,0-98.41,44.18-98.41,98.49s44.15,98.48,98.41,98.48,98.48-44.18,98.48-98.48-44.18-98.49-98.48-98.49ZM396.57,97.46c-8.17.04-15.86,3.24-21.63,9.01-5.85,5.85-9.07,13.6-9.07,21.84s3.19,15.96,8.99,21.76c5.85,5.8,13.59,8.98,21.82,8.98s15.98-3.19,21.77-8.98c5.81-5.77,9.03-13.49,9.04-21.71.03-8.25-3.19-16.03-9.04-21.89-5.83-5.81-13.54-9.01-21.73-9.01h-.15ZM128.28,97.47c-8.24,0-15.98,3.2-21.8,9.02-11.98,12.07-11.97,31.61.01,43.59,5.83,5.8,13.58,8.98,21.82,8.98s15.96-3.19,21.76-8.99c11.97-11.97,11.98-31.51.02-43.57-5.83-5.83-13.57-9.03-21.81-9.03Z"/>
          <path d="M262.5,19.5c16.14,0,29.28,13.13,29.28,29.27,0,14.18-10.13,26.29-24.09,28.8h-.06s-.06.02-.06.02l-.53.1-4.66.88-4.52-.87-.52-.1h-.08s-.08-.03-.08-.03c-13.88-2.5-23.95-14.61-23.95-28.8,0-16.14,13.13-29.27,29.27-29.27M476.15,233.22c16.14,0,29.28,13.13,29.28,29.28s-13.13,29.27-29.28,29.27c-14.16,0-26.26-10.11-28.79-24.04l-.08-.47-.88-5.16.82-4.25.1-.52v-.05s.02-.05.02-.05c2.55-13.9,14.67-24,28.81-24M48.78,233.22c14.17,0,26.28,10.09,28.79,24l.08.47.82,4.75-.83,4.89-.08.46c-2.52,13.89-14.62,23.97-28.79,23.97-16.14,0-29.28-13.13-29.28-29.27s13.13-29.28,29.28-29.28M262.5,446.44l4.8.83.44.08c13.92,2.59,24.02,14.69,24.02,28.8,0,16.19-13.13,29.36-29.28,29.36s-29.27-13.17-29.27-29.36c0-14.11,10.1-26.21,24.02-28.8l.45-.08,4.8-.83M262.5,6.5c-23.31,0-42.27,18.96-42.27,42.27,0,20.49,14.57,37.97,34.65,41.59l.52.1v66.35l-.59.04c-22.92,1.63-44.22,10.49-61.62,25.59l-.45.39-32.82-32.82.29-.44c10.13-15.19,8.09-35.54-4.82-48.39-7.26-7.26-16.88-11.25-27.1-11.25s-19.85,3.99-27.1,11.25c-7.26,7.22-11.25,16.84-11.25,27.1s3.99,19.88,11.25,27.1c7.39,7.39,17.24,11.21,27.15,11.21,7.35,0,14.72-2.1,21.16-6.39l.44-.29,32.82,32.9-.39.45c-15.05,17.34-23.87,38.65-25.51,61.62l-.04.59h-66.36l-.09-.52c-3.62-20.12-21.11-34.73-41.59-34.73-23.31,0-42.28,18.96-42.28,42.28s18.97,42.27,42.28,42.27c20.48,0,37.98-14.6,41.59-34.72l.09-.53h66.36l.04.59c1.62,22.88,10.48,44.21,25.59,61.7l.39.45-32.83,32.82-.43-.29c-6.48-4.32-13.9-6.43-21.28-6.43-9.91,0-19.74,3.8-27.11,11.18-7.27,7.27-11.26,16.93-11.25,27.21.01,10.25,4.01,19.85,11.25,27.06,7.47,7.47,17.28,11.2,27.09,11.2s19.63-3.73,27.1-11.2c12.89-12.89,14.92-33.24,4.82-48.39l-.29-.43,32.82-32.83.45.39c17.38,15.1,38.72,23.95,61.7,25.59l.59.04v66.28l-.52.09c-20.13,3.7-34.73,21.19-34.73,41.59,0,23.36,18.96,42.36,42.27,42.36s42.28-19,42.28-42.36c0-20.4-14.61-37.89-34.73-41.59l-.52-.09v-66.28l.59-.04c22.88-1.62,44.21-10.48,61.7-25.59l.45-.39,32.82,32.83-.29.44c-10.21,15.07-8.21,35.42,4.75,48.38,7.25,7.26,16.89,11.25,27.13,11.25s19.88-3.99,27.14-11.25c14.93-14.93,14.93-39.27,0-54.27-7.38-7.38-17.24-11.19-27.17-11.19-7.36,0-14.76,2.09-21.22,6.37l-.44.28-32.82-32.82.39-.45c15.06-17.34,23.88-38.68,25.51-61.69l.05-.6h66.35l.09.53c3.62,20.16,21.11,34.8,41.59,34.8,23.31,0,42.28-18.96,42.28-42.27s-18.97-42.28-42.28-42.28c-20.41,0-37.91,14.57-41.59,34.65l-.1.52h-66.34l-.05-.59c-1.64-23.01-10.49-44.32-25.59-61.62l-.39-.45,32.9-32.82.44.29c6.45,4.3,13.84,6.4,21.2,6.4,9.92,0,19.78-3.82,27.19-11.22,14.94-14.95,14.94-39.26,0-54.2-7.48-7.48-17.31-11.22-27.14-11.22s-19.65,3.74-27.14,11.22c-12.85,12.86-14.89,33.21-4.82,48.39l.29.44-32.82,32.82-.45-.39c-17.39-15.11-38.73-23.96-61.69-25.59l-.6-.04v-66.35l.53-.1c20.16-3.62,34.8-21.11,34.8-41.59,0-23.31-18.97-42.27-42.28-42.27h0ZM396.68,152.56c-6.23,0-12.46-2.36-17.22-7.08-4.57-4.57-7.09-10.67-7.09-17.16s2.55-12.62,7.17-17.24,10.62-7.08,17.06-7.11h.12c6.47,0,12.54,2.53,17.13,7.11,4.62,4.62,7.16,10.76,7.14,17.28-.01,6.49-2.55,12.56-7.14,17.12-4.72,4.72-10.94,7.08-17.17,7.08h0ZM128.31,152.56c-6.24,0-12.47-2.36-17.22-7.08-9.45-9.45-9.45-24.88,0-34.4,4.74-4.74,10.97-7.11,17.2-7.11,6.23,0,12.45,2.37,17.19,7.1,9.44,9.52,9.44,24.95,0,34.4-4.72,4.72-10.94,7.09-17.16,7.09h0ZM262.43,354.48c-50.69,0-91.91-41.26-91.91-91.98s41.22-91.99,91.91-91.99,91.98,41.26,91.98,91.99-41.26,91.98-91.98,91.98h0ZM396.72,420.75c-6.53,0-12.79-2.52-17.18-6.91-4.61-4.57-7.15-10.67-7.15-17.16s2.54-12.59,7.15-17.15c4.56-4.61,10.66-7.15,17.15-7.15s12.59,2.54,17.16,7.15c4.6,4.56,7.14,10.66,7.14,17.15s-2.54,12.59-7.14,17.16c-4.34,4.38-10.57,6.9-17.07,6.91h-.06ZM128.24,420.96c-6.22,0-12.42-2.35-17.15-7.04-9.45-9.52-9.45-24.95,0-34.4,4.74-4.74,10.97-7.11,17.2-7.11s12.46,2.37,17.2,7.11c9.46,9.45,9.46,24.85,0,34.32-2.37,2.38-5.11,4.15-8.05,5.33-2.94,1.19-6.06,1.78-9.18,1.78h0Z"/>
        </g>
        <g>
          <path class="cls-1" d="M224.22,237.45c-.29,0-.53-.24-.53-.52s.24-.53.53-.53h76.52c.28,0,.52.24.52.53s-.24.52-.52.52h-76.52Z"/>
          <path d="M300.75,229.91h-76.52c-3.88,0-7.03,3.15-7.03,7.03s3.15,7.02,7.03,7.02h76.52c3.87,0,7.02-3.15,7.02-7.02s-3.15-7.03-7.02-7.03h0Z"/>
        </g>
        <g>
          <path class="cls-1" d="M224.22,288.56c-.29,0-.53-.24-.53-.52s.24-.53.53-.53h38.27c.28,0,.52.25.52.53s-.24.52-.52.52h-38.27Z"/>
          <path d="M262.49,281.02h-38.27c-3.88,0-7.03,3.16-7.03,7.03s3.15,7.02,7.03,7.02h38.27c3.87,0,7.02-3.15,7.02-7.02s-3.15-7.03-7.02-7.03h0Z"/>
        </g>
      </g>
    </g>
  </g>
</svg>