<?xml version="1.0" encoding="UTF-8"?>
<svg id="Layer_2" xmlns="http://www.w3.org/2000/svg" viewBox="0 0 589.48 527.63">
  <defs>
    <style>
      .cls-1 {
        fill: #00b2ca;
      }
    </style>
  </defs>
  <g id="Layer_2-2" data-name="Layer_2">
    <g id="Model">
      <g>
        <path class="cls-1" d="M116.03,512s-.16-.03-.33-.1l-.47-.21c-.77-.4-1.78-.89-3.26-1.61l-.43-.21c-2.78-1.35-6.78-3.29-11.57-5.6-9.58-4.63-22.35-10.81-35.14-16.98-2.05-.99-49.29-23.82-51.68-24.94l.17.08c-.2-.1-.33-.3-.32-.5v-.16c.02-.89,2.66-114.2,2.86-119.38.04-.15.26-.45.41-.54l99.75-38.05c.07-.03.17-.05.27-.05.1,0,.2.02.27.06l42.07,21.33,80.02-131.42-45.73-22.11c-.15-.08-.28-.27-.27-.46l2.87-119.54c0-.2.36-.45.46-.52l99.76-38.09.11-.02c.06,0,.2.01.37.1l100.37,50.72c.11.08.25.32.27.45l-2.87,119.5c0,.22-.15.43-.33.5l-37.01,13.98,71.51,123.57,47.23-18.03c.06-.02.13-.04.2-.04.09,0,.18.02.26.06l100.37,50.78c.12.07.27.3.28.42l-2.81,119.51c0,.21-.16.45-.39.54l-95.63,36.1h-4.14l-100.9-48.76c-.21-.1-.34-.32-.33-.48l1.04-43.34h-157.61l-1.37,55.96c0,.25-.15.43-.4.53l-24.42,9.23c-28.54,10.79-71.68,27.08-73.27,27.66-.13.04-.2.05-.22.05ZM119.47,392.33l-2.83,118.3,96.63-36.49,2.82-118.29-96.62,36.48ZM14.1,461.55l101.42,49.05,2.84-118.27-101.42-49.05-2.84,118.27ZM373.39,461.55l101.47,49.04,2.84-118.27-101.48-49.04-2.82,118.27ZM159.65,325.6l57.29,28.99c.13.08.28.32.28.54l-1.48,62.35h149.92l7.82-.06.06-7.77c.01-.52,1.53-64.6,1.68-67.31v-.03c.04-.11.27-.38.44-.49l51.47-19.61-71.55-123.53-6.25,2.35c-5.62,2.11-16.09,6.07-26.29,9.93-6.33,2.39-25.61,9.68-27.14,10.23-.16.05-.26.05-.27.05-.43-.21-48.87-23.61-49.68-23.99l-6.38-2.93-79.91,131.27ZM377.09,342.49l101.16,48.9,96.36-36.37-99.07-50.1-98.44,37.57ZM299.12,101.61l-2.83,118.24,96.62-36.5,2.83-118.24-96.62,36.5ZM197.45,51.71l101.16,48.9,96.29-36.38-99-50.09-98.45,37.56Z"/>
        <path d="M201.79,61.02l6.39,3.09,84.36,40.78-.02.95-2.49,104.22-.03,1.25c-14.04-6.79-40.71-19.67-41.34-19.96l-.74-.34v-.02s-12.88-6.23-12.88-6.23l-35.79-17.3,2.55-106.43M115.94,310.79l34.38,17.44,10.73,5.44.03-.06,1.91.96,38.91,19.69-80.62,30.44-2.1.79-1.75-.85-86.04-41.61,84.56-32.26M569.77,363.79l-2.5,106.6-85.72,32.35.05-2.07,2.49-104v-.54s78.99-29.81,78.99-29.81l6.69-2.52M295.84,6.5c-.83,0-1.65.15-2.43.45l-99.89,38.13c-1.52.59-4.42,2.7-4.51,6.38l-2.87,119.46c-.1,2.75,1.45,5.32,3.94,6.55l39.28,18.99-73.17,120.17-36.74-18.63c-.99-.49-2.08-.74-3.18-.74-.87,0-1.75.16-2.58.47l-99.82,38.07c-2.42.94-4.32,3.51-4.51,6.12-.13,2.16-2.85,118.86-2.87,119.76-.1,2.78,1.46,5.34,3.95,6.57.32.14,28.47,13.73,51.55,24.88,12.79,6.17,25.56,12.35,35.14,16.98,4.79,2.31,8.78,4.24,11.56,5.6,2.34,1.14,3.62,1.75,4.32,2.17l.02-.06c1,.45,1.99.67,2.99.67.8,0,1.6-.14,2.41-.43,1.77-.63,57.84-21.83,87.96-33.21l9.86-3.73c2.72-1.05,4.51-3.58,4.56-6.43l1.22-49.62h144.61l-.87,36.63c-.09,2.73,1.48,5.3,4,6.54l102.24,49.41h1.07l.02.48c.74.24,1.47.36,2.2.36.8,0,1.6-.14,2.42-.43l.21-.07,97.67-36.87c2.67-1.03,4.46-3.57,4.56-6.45l2.8-119.45c.1-2.61-1.49-5.26-3.84-6.43l-100.4-50.79c-.99-.5-2.08-.75-3.16-.75-.85,0-1.71.15-2.52.46l-42.06,16.06-64.9-112.15,29.81-11.26c2.68-1,4.51-3.58,4.56-6.43l2.86-119.47c.09-2.6-1.53-5.3-3.83-6.44L299.1,7.28c-1.04-.52-2.16-.78-3.26-.78h0ZM298.92,93.54l-85.09-41.13,81.69-31.17,83.27,42.13-79.87,30.17h0ZM303.02,210.37l2.49-104.22,83.5-31.54-2.49,104.22-83.5,31.54h0ZM222.38,410.97l1.33-55.75c.04-2.69-1.5-5.28-3.84-6.43l-51.01-25.82,73.24-120.33,1.12.51c.63.29,48.77,23.55,49.54,23.92.93.44,1.88.66,2.86.66.8,0,1.63-.15,2.48-.44,1.31-.47,13.9-5.23,27.24-10.26,10.19-3.86,20.65-7.81,26.27-9.92l1.1-.41,64.96,112.15-44.49,16.95c-2.06.83-4.27,3.22-4.45,6.1v.02c-.13,1.8-1.68,67.17-1.69,67.67v1.37s-1.38.01-1.38.01h-143.26ZM478.57,384.32l-85.09-41.13,81.69-31.18,83.33,42.14-79.93,30.17h0ZM468.6,500.35l-88.62-42.83,2.48-104,88.63,42.83-2.49,104h0ZM109.27,500.35l-88.56-42.83,2.49-104,88.56,42.83-2.49,104h0ZM123.37,501.15l2.49-104.28,83.5-31.53-2.48,104.27-83.51,31.54h0Z"/>
      </g>
    </g>
  </g>
</svg>