<?xml version="1.0" encoding="UTF-8"?>
<svg id="Layer_2" xmlns="http://www.w3.org/2000/svg" viewBox="0 0 434.01 518.5">
  <defs>
    <style>
      .cls-1 {
        fill: #00b2ca;
      }
    </style>
  </defs>
  <g id="Layer_2-2" data-name="Layer_2">
    <g id="model">
      <g>
        <g>
          <path class="cls-1" d="M179.62,427.92c-34.52,0-63.32-25.85-66.99-60.12l-.67-6.7H13.53c-.29,0-.53-.24-.53-.53,0-91.13,71.29-165.74,162.3-169.85l7.16-.3V13.53c0-.29.24-.53.53-.53s.53.24.53.53v176.9l7.19.3c90.99,4.12,162.28,78.72,162.28,169.84,0,.29-.24.53-.53.53h-105.49l-.68,6.74c-3.67,34.24-32.33,60.09-66.67,60.09ZM182.99,191.63c-43.6,0-85.02,16.62-116.63,46.79-31.5,30.07-50.02,70.47-52.14,113.75l-.37,7.87h338.21l-.37-7.86c-2.12-43.28-20.63-83.67-52.13-113.76-31.61-30.18-73.01-46.8-116.57-46.8Z"/>
          <path d="M239.88,366.55l-.06.59c-3.33,30.95-29.21,54.28-60.21,54.28s-57.2-23.33-60.53-54.28l-.06-.6h120.85M182.99,6.5c-3.88,0-7.03,3.15-7.03,7.03v170.67l-.95.04C80.51,188.5,6.5,265.96,6.5,360.57c0,3.88,3.15,7.03,7.03,7.03h92.54l.09.89c4.03,37.59,35.61,65.93,73.46,65.93s69.11-28.34,73.14-65.93l.09-.89h99.62c3.88,0,7.03-3.15,7.03-7.03,0-94.61-74.02-172.06-168.51-176.34l-.96-.04V13.53c0-3.88-3.15-7.03-7.03-7.03h0ZM20.67,353.55l.05-1.05c2.04-41.6,19.84-80.44,50.14-109.37,30.39-29.01,70.21-45,112.14-45s81.69,15.98,112.08,45c30.28,28.92,48.09,67.76,50.13,109.37l.05,1.05H20.67Z"/>
        </g>
        <g>
          <path class="cls-1" d="M179.4,512c-.29,0-.53-.24-.53-.53v-18.83c0-.29.24-.53.53-.53s.53.24.53.53v18.83c0,.29-.24.53-.53.53Z"/>
          <path d="M179.41,485.61c-3.88,0-7.03,3.15-7.03,7.03v18.83c0,3.88,3.15,7.03,7.03,7.03s7.03-3.15,7.03-7.03v-18.83c0-3.88-3.15-7.03-7.03-7.03h0Z"/>
        </g>
        <g>
          <path class="cls-1" d="M72.84,467.85c-.15,0-.27-.05-.37-.15-.11-.11-.16-.22-.16-.37,0-.11.02-.24.17-.39l13.3-13.3c.11-.11.22-.15.37-.15s.27.05.37.15c.11.11.15.22.15.37s-.05.27-.15.37l-13.32,13.32c-.1.1-.23.15-.37.15Z"/>
          <path d="M86.16,446.98c-1.88,0-3.64.73-4.97,2.06l-13.32,13.32c-1.33,1.34-2.06,3.09-2.06,4.97s.73,3.64,2.06,4.97c1.37,1.37,3.17,2.06,4.97,2.06s3.6-.69,4.97-2.06l13.32-13.32c1.33-1.33,2.06-3.09,2.06-4.97s-.73-3.64-2.06-4.97-3.09-2.06-4.97-2.06h0Z"/>
        </g>
        <g>
          <path class="cls-1" d="M285.96,467.86c-.15,0-.27-.05-.37-.15l-13.32-13.31c-.13-.13-.15-.26-.15-.37,0-.15.05-.27.16-.37.04-.04.15-.15.37-.15s.32.1.36.14l13.34,13.33c.13.13.15.26.15.37,0,.15-.05.27-.15.37-.11.11-.22.15-.37.15Z"/>
          <path d="M272.64,446.99c-1.8,0-3.59.68-4.97,2.06-1.33,1.33-2.06,3.09-2.06,4.97s.73,3.63,2.06,4.97l13.32,13.31c1.33,1.33,3.09,2.06,4.97,2.06s3.64-.73,4.97-2.06c1.33-1.33,2.06-3.09,2.06-4.97s-.73-3.63-2.06-4.97l-13.32-13.31c-1.37-1.38-3.16-2.06-4.97-2.06h0Z"/>
        </g>
        <g>
          <path class="cls-1" d="M426.98,46.66c-.15,0-.27-.05-.37-.15-18.84-18.84-43.92-29.21-70.63-29.21s-51.79,10.37-70.62,29.21c-.1.1-.23.15-.37.15s-.27-.05-.37-.15c-.09-.09-.15-.18-.15-.37s.07-.29.14-.36c9.49-9.49,20.49-16.85,32.71-21.92,12.22-5.05,25.24-7.62,38.67-7.62,27,0,52.34,10.48,71.38,29.52.1.1.15.23.15.37s-.05.27-.15.37c-.1.1-.23.15-.37.15Z"/>
          <path d="M356,9.74h-.02c-14.36,0-28.29,2.79-41.16,8.11-12.87,5.33-24.68,13.18-34.81,23.31-1.34,1.33-2.06,3.09-2.06,4.97s.72,3.64,2.06,4.97c1.37,1.37,3.17,2.06,4.97,2.06s3.6-.69,4.97-2.06c17.61-17.61,41.06-27.31,66.03-27.31s48.43,9.7,66.04,27.31c1.37,1.37,3.17,2.06,4.97,2.06s3.6-.69,4.97-2.06c2.74-2.74,2.74-7.2,0-9.94-20.26-20.26-47.24-31.42-75.96-31.42h0Z"/>
        </g>
        <g>
          <path class="cls-1" d="M317.14,78.83c-.15,0-.27-.05-.37-.15-.11-.11-.15-.21-.15-.37,0-.19.07-.29.14-.36,10.47-10.47,24.4-16.23,39.23-16.23,7.22,0,14.24,1.36,20.88,4.05,6.87,2.78,13.04,6.88,18.32,12.16.11.11.16.22.16.37,0,.11-.02.24-.17.39-.08.08-.21.13-.36.13-.22,0-.33-.11-.37-.15-10.26-10.26-23.92-15.91-38.46-15.91s-28.21,5.65-38.46,15.91c-.1.1-.23.15-.37.15Z"/>
          <path d="M355.99,55.21c-15.86,0-31.73,6.04-43.81,18.12-1.33,1.33-2.06,3.09-2.06,4.97s.72,3.63,2.06,4.97c1.37,1.37,3.17,2.06,4.97,2.06s3.6-.69,4.97-2.06c9.34-9.34,21.6-14,33.87-14s24.53,4.67,33.87,14c1.37,1.37,3.17,2.05,4.96,2.05s3.6-.69,4.97-2.05c1.33-1.33,2.06-3.09,2.06-4.97s-.73-3.64-2.06-4.97c-6.03-6.03-13.02-10.57-20.48-13.59-7.46-3.02-15.39-4.53-23.32-4.53h0Z"/>
        </g>
        <g>
          <path class="cls-1" d="M362.65,110.99c-.12,0-.24-.03-.38-.17-1.79-1.76-4.01-2.71-6.3-2.71s-4.54.96-6.29,2.71c-.11.11-.23.16-.38.16-.09,0-.24-.02-.39-.17-.09-.09-.14-.2-.14-.35s.05-.27.16-.38c.84-.84,1.91-1.54,3.07-2,1.24-.5,2.59-.76,3.96-.76s2.71.25,3.94.75c1.21.49,2.25,1.17,3.11,2.02.1.1.15.22.15.37s-.04.25-.15.36c-.11.11-.22.15-.37.15Z"/>
          <path d="M355.98,100.83c-2.22,0-4.39.42-6.36,1.22-1.99.79-3.78,1.97-5.26,3.44-1.34,1.34-2.07,3.1-2.07,4.98s.73,3.63,2.06,4.96c1.34,1.33,3.1,2.06,4.97,2.06s3.64-.73,4.97-2.06c.54-.54,1.12-.81,1.7-.81s1.16.27,1.71.8c1.34,1.33,3.09,2.07,4.97,2.07s3.64-.73,4.97-2.06c1.33-1.32,2.06-3.08,2.06-4.96s-.73-3.64-2.06-4.97c-1.49-1.49-3.28-2.65-5.27-3.45-1.99-.8-4.16-1.22-6.37-1.22h0Z"/>
        </g>
      </g>
    </g>
  </g>
</svg>