<?xml version="1.0" encoding="UTF-8"?>
<svg id="Layer_2" xmlns="http://www.w3.org/2000/svg" viewBox="0 0 500.96 518.5">
  <defs>
    <style>
      .cls-1 {
        fill: #00b2ca;
      }
    </style>
  </defs>
  <g id="Layer_2-2" data-name="Layer_2">
    <g id="Type">
      <g>
        <g>
          <path class="cls-1" d="M136.17,186.68c-19.48,0-35.33-15.82-35.33-35.26v-33.85h-13.42c-22.66,0-41.1-18.4-41.1-41.02V13.54c0-.29.25-.54.54-.54h407.17c.29,0,.54.25.54.54v63.02c0,22.62-18.4,41.02-41.02,41.02h-13.49v33.85c0,19.44-15.82,35.26-35.26,35.26h-228.64ZM47.4,76.55c0,22.03,17.96,39.95,40.03,39.95h326.12c22.03,0,39.95-17.92,39.95-39.95V14.07H47.4v62.48Z"/>
          <path d="M393.57,123v28.43c0,15.86-12.9,28.76-28.76,28.76h-228.64c-15.9,0-28.83-12.9-28.83-28.76v-28.43h286.22M454.03,6.5H46.87c-3.88,0-7.04,3.16-7.04,7.04v63.02c0,26.2,21.35,47.52,47.6,47.52h6.92v27.35c0,23.03,18.76,41.76,41.83,41.76h228.64c23.03,0,41.76-18.73,41.76-41.76v-27.35h6.99c26.21,0,47.52-21.32,47.52-47.52V13.54c0-3.87-3.15-7.04-7.04-7.04h0ZM87.43,110c-18.48,0-33.53-15.01-33.53-33.45V20.57h393.1v55.98c0,18.44-15.01,33.45-33.45,33.45H87.43Z"/>
        </g>
        <g>
          <path class="cls-1" d="M250.32,512c-30.03,0-59.79-10.03-72.36-24.38-21.13-24.27-24.88-61.14-9.11-89.67,3.65-6.69,9.66-13.65,16.61-21.71,20.63-23.87,48.82-56.49,39.46-114.09-.03-.19.07-.42.27-.59.08-.04.14-.05.19-.05.12,0,.24.03.37.1,24.85,13.22,42.86,36.3,52.05,66.74,6.21,20.9,7.04,43.52,2.4,65.4l-6.91,32.69,20.18-26.62c11.5-15.14,17.25-34.17,15.77-52.2-.02-.18.13-.42.26-.47.14-.05.21-.07.27-.07.16,0,.32.09.45.26,21.21,28.54,31.54,55.24,31.54,81.59,0,8.12-.99,16.49-2.93,24.87-6.38,27.43-26.82,46.78-57.54,54.48-9.84,2.46-20.27,3.71-30.99,3.71Z"/>
          <path d="M232.87,273.64c18.07,12.87,31.34,32.2,38.71,56.57,5.9,19.88,6.69,41.39,2.27,62.21l-.9,4.28-12.01,56.84,35.09-46.3,2.63-3.47c8.53-11.23,14.14-24.46,16.31-37.98,13.64,21.94,20.31,42.73,20.31,63.17,0,7.62-.93,15.5-2.76,23.39-2.88,12.38-8.81,22.91-17.61,31.29-9.03,8.59-20.86,14.77-35.17,18.36-9.33,2.33-19.23,3.52-29.41,3.52-31.55,0-57.82-11.15-67.44-22.13-19.38-22.26-22.81-56.09-8.33-82.27l.02-.03.02-.03c3.3-6.05,9.1-12.77,15.81-20.55l.04-.05c19.9-23.02,46.64-53.95,42.43-106.79M225.39,255.01c-1.42,0-2.8.43-3.99,1.27-2.19,1.62-3.3,4.27-2.88,6.91,8.87,54.6-17.06,84.62-37.91,108.74-7.22,8.36-13.46,15.59-17.44,22.88-17.06,30.87-12.99,70.8,9.91,97.09,13.15,15.01,43.94,26.6,77.25,26.6,10.76,0,21.79-1.21,32.57-3.9,33.2-8.32,55.33-29.39,62.29-59.31,2.06-8.86,3.1-17.62,3.1-26.34,0-28.04-10.74-55.77-32.83-85.49-1.38-1.85-3.48-2.87-5.65-2.87-.84,0-1.69.15-2.52.47-2.89,1.06-4.78,4.05-4.5,7.1,1.34,16.45-3.92,33.85-14.47,47.74l-2.64,3.48.9-4.28c4.87-22.95,3.98-46.68-2.54-68.63-9.71-32.14-28.81-56.55-55.24-70.6-1.08-.57-2.25-.85-3.4-.85h0Z"/>
        </g>
        <g>
          <path class="cls-1" d="M417.12,290.28c-.29,0-.54-.25-.54-.54s.25-.54.54-.54c42.05,0,76.26-34.21,76.26-76.26,0-.3.25-.55.55-.55s.54.26.54.55c0,42.64-34.7,77.33-77.34,77.33Z"/>
          <path d="M493.92,205.9c-3.88,0-7.05,3.16-7.05,7.05,0,38.46-31.3,69.76-69.76,69.76-3.87,0-7.04,3.15-7.04,7.04s3.16,7.04,7.04,7.04c46.23,0,83.84-37.61,83.84-83.83,0-3.88-3.16-7.05-7.04-7.05h0Z"/>
        </g>
        <g>
          <path class="cls-1" d="M417.12,258.21c-.29,0-.54-.25-.54-.54s.25-.54.54-.54c24.37,0,44.2-19.82,44.2-44.19,0-.3.25-.55.54-.55s.54.26.54.55c0,24.96-20.31,45.26-45.27,45.26Z"/>
          <path d="M461.85,205.9c-3.88,0-7.04,3.16-7.04,7.05,0,20.78-16.91,37.69-37.7,37.69-3.87,0-7.04,3.16-7.04,7.04s3.16,7.04,7.04,7.04c28.55,0,51.77-23.22,51.77-51.76,0-3.88-3.16-7.05-7.04-7.05h0Z"/>
        </g>
        <g>
          <path class="cls-1" d="M417.12,226.16c-.29,0-.54-.26-.54-.55s.25-.54.54-.54c6.69,0,12.13-5.44,12.13-12.13,0-.29.25-.54.54-.54s.54.25.54.54c0,7.29-5.92,13.21-13.2,13.21Z"/>
          <path d="M429.78,205.91c-3.88,0-7.04,3.16-7.04,7.04,0,3.11-2.53,5.63-5.63,5.63-3.87,0-7.04,3.16-7.04,7.04s3.16,7.05,7.04,7.05c10.87,0,19.7-8.84,19.7-19.71,0-3.87-3.15-7.04-7.04-7.04h0Z"/>
        </g>
        <g>
          <path class="cls-1" d="M83.83,290.28c-42.64,0-77.33-34.69-77.33-77.33,0-.3.25-.55.54-.55s.54.26.54.55c0,42.05,34.21,76.26,76.26,76.26.3,0,.54.24.54.54s-.24.54-.54.54Z"/>
          <path d="M7.04,205.9c-3.88,0-7.04,3.16-7.04,7.05,0,46.22,37.6,83.83,83.83,83.83,3.88,0,7.04-3.15,7.04-7.04s-3.15-7.04-7.04-7.04c-38.46,0-69.76-31.3-69.76-69.76,0-3.88-3.16-7.05-7.04-7.05h0Z"/>
        </g>
        <g>
          <path class="cls-1" d="M83.83,258.21c-24.96,0-45.27-20.31-45.27-45.26,0-.29.25-.55.54-.55s.55.25.55.55c0,24.37,19.82,44.19,44.19,44.19.29,0,.54.25.54.54s-.24.54-.54.54Z"/>
          <path d="M39.1,205.9c-3.87,0-7.04,3.16-7.04,7.05,0,28.55,23.23,51.76,51.77,51.76,3.88,0,7.04-3.15,7.04-7.04s-3.15-7.04-7.04-7.04c-20.79,0-37.69-16.91-37.69-37.69,0-3.88-3.16-7.05-7.05-7.05h0Z"/>
        </g>
        <g>
          <path class="cls-1" d="M83.82,226.16c-7.28,0-13.19-5.93-13.19-13.21,0-.29.25-.54.54-.54s.54.25.54.54c0,6.69,5.44,12.13,12.12,12.13.29,0,.55.25.55.54s-.25.55-.55.55Z"/>
          <path d="M71.17,205.91c-3.88,0-7.04,3.16-7.04,7.04,0,10.87,8.83,19.71,19.69,19.71,3.88,0,7.05-3.16,7.05-7.05s-3.16-7.04-7.05-7.04c-3.1,0-5.62-2.52-5.62-5.63,0-3.87-3.15-7.04-7.04-7.04h0Z"/>
        </g>
        <g>
          <path class="cls-1" d="M179.04,65.84c-.29,0-.55-.25-.55-.54s.25-.54.55-.54h8.84c.3,0,.54.24.54.54s-.25.54-.54.54h-8.84Z"/>
          <path d="M187.89,58.26h-8.84c-3.88,0-7.05,3.15-7.05,7.04s3.16,7.04,7.05,7.04h8.84c3.88,0,7.04-3.16,7.04-7.04s-3.15-7.04-7.04-7.04h0Z"/>
        </g>
        <g>
          <path class="cls-1" d="M246.04,65.84c-.29,0-.54-.25-.54-.54s.25-.54.54-.54h8.85c.3,0,.54.24.54.54s-.25.54-.54.54h-8.85Z"/>
          <path d="M254.9,58.26h-8.85c-3.87,0-7.04,3.15-7.04,7.04s3.16,7.04,7.04,7.04h8.85c3.88,0,7.04-3.16,7.04-7.04s-3.15-7.04-7.04-7.04h0Z"/>
        </g>
        <g>
          <path class="cls-1" d="M313.06,65.84c-.29,0-.54-.25-.54-.54s.25-.54.54-.54h8.85c.3,0,.54.24.54.54s-.25.54-.54.54h-8.85Z"/>
          <path d="M321.91,58.26h-8.85c-3.87,0-7.04,3.15-7.04,7.04s3.16,7.04,7.04,7.04h8.85c3.88,0,7.04-3.16,7.04-7.04s-3.15-7.04-7.04-7.04h0Z"/>
        </g>
      </g>
    </g>
  </g>
</svg>