<?xml version="1.0" encoding="UTF-8"?>
<svg id="Layer_2" xmlns="http://www.w3.org/2000/svg" viewBox="0 0 317.41 525">
  <defs>
    <style>
      .cls-1 {
        fill: #00b2ca;
      }
    </style>
  </defs>
  <g id="Bottom_navigation">
    <g id="Screensize">
      <g>
        <g>
          <path class="cls-1" d="M61.47,512c-26.73,0-48.48-21.75-48.48-48.47V61.48c0-26.73,21.75-48.48,48.48-48.48h194.46c26.73,0,48.48,21.75,48.48,48.48v402.05c0,26.73-21.75,48.47-48.48,48.47H61.47ZM147.35,448.41c-8.98,0-16.29,7.31-16.29,16.29s7.31,16.29,16.29,16.29h22.71c8.98,0,16.29-7.31,16.29-16.29s-7.31-16.29-16.29-16.29h-22.71ZM61.47,14.06c-26.15,0-47.42,21.27-47.42,47.42v355.94h289.3V61.48c0-26.15-21.27-47.42-47.42-47.42H61.47Z"/>
          <path d="M297.91,423.91v39.61c0,23.15-18.83,41.98-41.97,41.98H61.47c-23.15,0-41.97-18.83-41.97-41.98v-39.61h278.41M147.35,487.49h22.71c12.57,0,22.79-10.22,22.79-22.79s-10.23-22.79-22.79-22.79h-22.71c-12.57,0-22.79,10.22-22.79,22.79s10.22,22.79,22.79,22.79M255.94,6.5H61.47C31.16,6.5,6.5,31.16,6.5,61.48v402.05c0,30.31,24.66,54.98,54.97,54.98h194.47c30.31,0,54.97-24.66,54.97-54.98V61.48c0-30.31-24.66-54.98-54.97-54.98h0ZM20.56,410.91V61.48c0-22.56,18.36-40.92,40.92-40.92h194.47c22.56,0,40.92,18.36,40.92,40.92v349.44H20.56ZM147.35,474.49c-5.4,0-9.79-4.39-9.79-9.79s4.39-9.79,9.79-9.79h22.71c5.4,0,9.79,4.39,9.79,9.79s-4.39,9.79-9.79,9.79h-22.71Z"/>
        </g>
        <g>
          <g>
            <path class="cls-1" d="M110.38,49.88c-.28,0-.53-.25-.53-.54s.25-.53.53-.53h96.66c.28,0,.53.25.53.53s-.25.54-.53.54h-96.66Z"/>
            <path d="M207.04,42.31h-96.66c-3.87,0-7.03,3.16-7.03,7.03s3.16,7.04,7.03,7.04h96.66c3.87,0,7.03-3.16,7.03-7.04s-3.16-7.03-7.03-7.03h0Z"/>
          </g>
          <g>
            <polygon class="cls-1" points="80.86 264.71 80.86 340.22 161.87 259.22 80.86 340.23 80.86 264.71"/>
            <path d="M236.43,178.21h-75.57c-3.59,0-6.5,2.91-6.5,6.5s2.91,6.5,6.5,6.5h59.83l-133.33,133.32v-59.82c0-3.59-2.91-6.5-6.5-6.5s-6.5,2.91-6.5,6.5v75.58c0,3.59,2.91,6.5,6.5,6.5h75.57c3.59,0,6.5-2.91,6.5-6.5s-2.91-6.5-6.5-6.5h-59.94l133.44-133.44v59.94c0,3.59,2.91,6.5,6.5,6.5s6.5-2.91,6.5-6.5v-75.58c0-3.59-2.91-6.5-6.5-6.5h0Z"/>
          </g>
        </g>
      </g>
    </g>
  </g>
</svg>