<?xml version="1.0" encoding="UTF-8"?>
<svg id="Layer_2" xmlns="http://www.w3.org/2000/svg" viewBox="0 0 448.95 525">
  <defs>
    <style>
      .cls-1 {
        fill: #00b2ca;
      }
    </style>
  </defs>
  <g id="Layer_2-2" data-name="Layer_2">
    <g id="Model">
      <g>
        <path class="cls-1" d="M376.79,512c-5.96,0-9.3-1.01-18.22-3.72l-.36-.11c-3.78-1.14-8.47-2.56-14.57-4.24-15.12-4.82-25.27-19.39-25.27-36.31,0-2.45.22-4.9.68-7.49,7.72-41.08,7.72-82.79,0-123.91-3.52-19.34,7-38.12,24.48-43.71,5.89-1.62,10.46-3.01,14.13-4.13l.76-.23c7.87-2.4,11.78-3.6,17.29-3.72l6.37-.14v-6.37c-.02-20.04,0-32.66,0-40.9v-2c.02-11.08.02-13.25-.09-16.1l-.19-4.7-4.53-1.29c-13.03-3.7-23.21-13.77-27.23-26.92-16.66-54.83-68.3-93.13-125.59-93.13s-108.88,38.3-125.54,93.13c-4.01,13.16-14.19,23.22-27.25,26.92l-4.57,1.3-.16,4.74c-.1,3.09-.1,5.59-.09,18.39v8.08c0,7.83,0,18.29,0,32.49v6.36s6.36.14,6.36.14c5.56.12,9.48,1.32,17.31,3.71l.74.23c3.66,1.11,8.22,2.49,14.01,4.08,17.56,5.63,28.13,24.42,24.61,43.76-3.82,20.51-5.75,41.37-5.75,61.99s1.94,41.46,5.76,62c3.52,19.36-6.98,38.14-24.44,43.72-6.28,1.73-11.03,3.17-14.85,4.32l-.16.05c-8.96,2.71-12.31,3.72-18.3,3.72-27.79,0-51.85-25.97-55.96-60.4-4.24-35.41-4.24-71.37,0-106.87,2.11-17.71,9.74-33.71,21.47-45.07l1.97-1.91v-2.75c.07-26.43.04-42.54,0-55.57v-.15c-.04-16.21-.05-19.58.41-26.59l.24-3.6-2.92-2.11c-13.95-10.04-19.94-27.86-14.92-44.33C49.36,74.54,132.44,13,224.48,13s175.16,61.54,202.03,149.66c5.03,16.44-.97,34.26-14.92,44.34l-2.92,2.11.24,3.59c.48,7.25.47,10.96.43,28.74v.11c-.03,9.19-.07,26.3-.02,53.41v2.75s1.98,1.91,1.98,1.91c11.72,11.34,19.35,27.27,21.49,44.89l.03.24c4.2,35.5,4.2,71.46,0,106.87-4.1,34.43-28.19,60.4-56.01,60.4ZM376.67,285.3c-1.48,0-2.96.08-4.4.25l-7.54.86,2.02,7.32c18.81,68.3,18.81,140.55,0,208.93l-2,7.29,7.51.89c1.53.18,3.06.27,4.56.27,23.61,0,50.68-22.29,55.12-59.6,2.1-17.59,3.17-35.53,3.17-53.31s-1.07-35.74-3.17-53.36c-2.47-20.78-12.31-38.89-26.98-49.69-8.64-6.36-18.67-9.86-28.26-9.86ZM72.09,285.26c-23.56,0-50.57,22.29-55.01,59.6-4.23,35.41-4.23,71.3,0,106.67,4.43,37.3,31.48,59.59,55.07,59.59,1.49,0,3.03-.09,4.56-.27l7.5-.89-2-7.29c-18.77-68.33-18.77-140.58,0-208.96l2-7.29-7.51-.88c-1.56-.18-3.07-.27-4.61-.27ZM40.61,218.8c-.1,3.19-.1,6.72-.08,17.39,0,9.02.02,23.87-.01,48.41v10.96s9.61-5.25,9.61-5.25c3.59-1.95,7.29-3.45,11.02-4.44l4.83-1.28v-5c.02-18.16.01-30.34,0-38.67v-10.37c-.01-5.97-.02-7.77.02-9.43l.16-6.52-6.53-.14c-3.69-.08-7.17-.63-10.66-1.68l-8.1-2.45-.28,8.46ZM399.96,212.78c-3.46,1.05-6.96,1.6-10.68,1.69l-6.56.15.21,6.56c.04,1.08.04,2.11.03,8.81v6.98c0,8.37-.02,21.55,0,42.63v5s4.84,1.28,4.84,1.28c3.74.99,7.45,2.47,11.03,4.41l9.6,5.19v-10.91c-.02-21.81,0-35.84,0-45.16.02-13.92.02-17.34-.09-20.62l-.29-8.45-8.09,2.45ZM224.48,92c57.66,0,109.65,38.56,126.41,93.76,4.42,14.52,15.93,24.71,30.79,27.27,2.22.38,4.48.58,6.73.58,12.45,0,23.86-5.76,31.3-15.81,7.46-10.08,9.63-22.8,5.98-34.89C398.88,75.16,316.15,13.88,224.48,13.88S50.11,75.16,23.32,162.9c-3.7,12.08-1.53,24.8,5.96,34.9,7.41,10.03,18.85,15.79,31.36,15.79,17.33,0,32.37-11.19,37.42-27.83,16.82-55.2,68.8-93.76,126.42-93.76Z"/>
        <path d="M88.76,294.4l.61.19c3.67,1.11,8.23,2.5,14.05,4.09,14.38,4.69,23,20.27,20.08,36.31-3.89,20.93-5.87,42.19-5.87,63.2s1.97,42.24,5.86,63.15c2.92,16.13-5.62,31.7-19.91,36.34-6.27,1.73-11.01,3.16-14.83,4.31l-.29-1.05c-18.46-67.2-18.46-138.27,0-205.52l.28-1.03M360.18,294.42l.29,1.04c18.5,67.17,18.5,138.23,0,205.48l-.28,1.04-.08-.03c-3.78-1.14-8.48-2.56-14.59-4.25-12.35-3.99-20.63-16.05-20.63-30.08,0-2.05.19-4.11.57-6.3,7.86-41.91,7.86-84.39,0-126.25-2.92-16.11,5.65-31.68,19.95-36.32,5.91-1.63,10.47-3.02,14.15-4.14l.64-.19M224.48,6.5c-94.87,0-180.51,63.43-208.25,154.26-5.87,19.25,1.08,39.8,17.34,51.5-.48,7.25-.47,10.84-.43,27.19.03,11.1.07,27.84,0,55.53-12.81,12.39-21.12,29.74-23.41,48.97-4.3,36.02-4.3,72.49,0,108.41,4.51,37.7,31.34,66.13,62.42,66.13,6.96,0,11.09-1.25,20.18-4,3.84-1.16,8.62-2.61,14.97-4.36,20.64-6.52,33.1-28.5,28.99-51.15-3.74-20.11-5.65-40.57-5.65-60.81s1.91-40.71,5.65-60.82c4.12-22.6-8.39-44.58-29.15-51.16-6.16-1.69-10.91-3.14-14.71-4.29-8.16-2.49-12.63-3.85-19.06-3.99,0-19.79,0-32.32,0-40.58,0-12.6,0-15.15.09-18.17,15.22-4.32,27.01-15.91,31.7-31.29,15.84-52.12,64.91-88.52,119.32-88.52s103.53,36.4,119.37,88.53c4.69,15.37,16.47,26.96,31.67,31.28.11,2.71.11,4.83.09,15.83,0,8.16-.03,21.18,0,42.92-6.43.14-10.9,1.51-19.04,4-3.82,1.16-8.57,2.62-14.86,4.35-20.66,6.53-33.14,28.51-29.03,51.15,7.57,40.31,7.57,81.21,0,121.58-.52,2.94-.77,5.76-.77,8.61,0,19.81,12,36.9,29.93,42.54,6.27,1.73,11.04,3.18,14.89,4.34,9.06,2.75,13.19,4,20.1,4,31.11,0,57.97-28.43,62.47-66.14,4.26-35.91,4.26-72.38,0-108.39h0c-2.28-19.23-10.61-36.61-23.45-49.03-.05-25.92,0-42.42.02-53.38.04-17.91.05-21.8-.45-29.29,16.25-11.74,23.21-32.28,17.34-51.5C405.02,69.93,319.38,6.5,224.48,6.5h0ZM60.64,207.09c-10.43,0-19.96-4.79-26.14-13.16-6.24-8.43-8.05-19.05-4.96-29.14C55.5,79.77,135.65,20.38,224.48,20.38s169.02,59.38,194.98,144.41c3.06,10.11,1.24,20.73-4.98,29.15-6.22,8.4-15.87,13.18-26.07,13.18-1.86,0-3.74-.16-5.62-.48-12.38-2.13-21.98-10.64-25.67-22.75-17.58-57.91-72.12-98.37-132.63-98.37s-114.99,40.46-132.64,98.37c-4.22,13.89-16.76,23.22-31.2,23.22h0ZM401.93,284.56c-4.04-2.18-8.22-3.85-12.46-4.97-.02-28.21,0-42.26,0-49.6,0-6.68,0-7.82-.03-9.03,4.29-.1,8.39-.74,12.41-1.96.11,3.16.11,6.66.09,20.39,0,9.33-.02,23.36,0,45.17h0ZM47.01,284.6c.03-24.54.02-39.4.01-48.43-.02-10.72-.02-14.12.08-17.17,4.01,1.21,8.11,1.87,12.4,1.96-.05,1.98-.04,4.08-.03,12.31,0,7.93.02,21.57,0,46.31-4.23,1.12-8.41,2.8-12.46,5.01h0ZM72.15,504.62c-20.75,0-44.61-20.14-48.61-53.86-4.17-34.85-4.17-70.23,0-105.13,4.01-33.72,27.84-53.86,48.56-53.86,1.31,0,2.58.08,3.85.23-19.09,69.55-19.09,142.9,0,212.4-1.26.15-2.54.23-3.79.23h0ZM376.79,504.62c-1.26,0-2.53-.08-3.79-.23,19.13-69.56,19.13-142.9,0-212.38,1.21-.14,2.43-.21,3.67-.21,8.17,0,16.8,3,24.41,8.59,13.23,9.74,22.12,26.22,24.38,45.22,2.08,17.46,3.13,35.03,3.13,52.59s-1.04,35.12-3.13,52.54c-4.01,33.72-27.88,53.86-48.66,53.86h0Z"/>
      </g>
    </g>
  </g>
</svg>