<?xml version="1.0" encoding="UTF-8"?>
<svg id="Layer_2" xmlns="http://www.w3.org/2000/svg" viewBox="0 0 518.5 393.36">
  <defs>
    <style>
      .cls-1 {
        fill: #00b2ca;
      }
    </style>
  </defs>
  <g id="Layer_2-2" data-name="Layer_2">
    <g id="Noise_Cancellation">
      <g>
        <g>
          <path class="cls-1" d="M298.46,380.36c-3.78,0-7.53-1.1-10.85-3.18-36.29-22.6-115.61-72.06-159.7-99.6l-1.58-.99h-58.48c-8.17,0-14.82-6.62-14.82-14.77v-49.38h-24.28c-8.69,0-15.76-7.07-15.76-15.76s7.07-15.76,15.76-15.76h24.28v-49.37c0-8.14,6.65-14.77,14.82-14.77h58.47l1.58-.98c62.51-38.98,132.42-82.58,159.69-99.6,3.34-2.08,7.1-3.19,10.88-3.19,3.42,0,6.87.91,9.97,2.63,6.63,3.71,10.6,10.43,10.6,17.98v109.8l5.61.78c21.42,2.97,37.58,21.53,37.58,43.18v18.63c0,21.65-16.15,40.21-37.57,43.18l-5.61.78v109.8c0,7.56-3.96,14.29-10.6,18-3.1,1.71-6.56,2.62-9.99,2.62ZM298.43,13.97c-3.65,0-7.23,1.05-10.37,3.03l-18.86,11.72v335.91l18.9,11.75c3.14,1.96,6.73,2.99,10.36,2.99,3.31,0,6.61-.87,9.54-2.52,6.3-3.42,10.11-9.83,10.11-17.11V33.61c0-7.27-3.8-13.69-10.17-17.15-2.88-1.62-6.19-2.49-9.5-2.49ZM126.96,117.49v158.38l141.29,88.17V29.32L126.96,117.49ZM28.76,181.86c-8.17,0-14.82,6.65-14.82,14.83s6.65,14.82,14.82,14.82h24.28v-29.64h-24.28Z"/>
          <path d="M120.46,123.27v146.82h-52.6c-4.59,0-8.32-3.71-8.32-8.27v-130.29c0-4.56,3.73-8.27,8.32-8.27h52.6M324.61,150.75c17.81,2.89,31.13,18.48,31.13,36.61v18.62c0,18.14-13.33,33.74-31.13,36.61v-91.85M298.49,6.5c-4.95,0-9.88,1.39-14.32,4.17-27.27,17.02-97.19,60.62-159.69,99.6h-56.61c-11.76,0-21.32,9.54-21.32,21.27v42.87h-17.78c-12.27,0-22.26,9.99-22.26,22.26s9.99,22.27,22.26,22.27h17.78v42.88c0,11.73,9.56,21.27,21.32,21.27h56.61c42,26.23,121.63,75.9,159.69,99.6,4.43,2.77,9.35,4.17,14.3,4.17,4.49,0,8.99-1.15,13.16-3.45,8.72-4.88,13.93-13.72,13.93-23.67v-104.13c24.67-3.41,43.18-24.62,43.18-49.62v-18.62c0-24.99-18.53-46.19-43.18-49.61V33.61c0-9.94-5.21-18.79-13.94-23.66-4.14-2.3-8.64-3.45-13.13-3.45h0ZM298.46,372.88c-2.39,0-4.77-.67-6.93-2.01l-15.83-9.84V32.34l15.83-9.84c2.14-1.35,4.51-2.03,6.9-2.03,2.18,0,4.37.56,6.39,1.7,4.25,2.31,6.78,6.6,6.78,11.45v326.13c0,4.85-2.53,9.13-6.79,11.45-2,1.12-4.18,1.68-6.35,1.68h0ZM261.75,352.32l-128.29-80.06V121.1l128.29-80.06v311.28h0ZM28.76,205c-4.59,0-8.32-3.74-8.32-8.32s3.73-8.33,8.32-8.33h17.78v16.64h-17.78Z"/>
        </g>
        <g>
          <path class="cls-1" d="M440.9,257.17c-4.16,0-7.54-3.39-7.54-7.55v-34.79h-34.79c-4.16,0-7.55-3.39-7.55-7.55v-21.22c0-4.16,3.39-7.54,7.55-7.54h34.79v-34.79c0-4.16,3.38-7.55,7.54-7.55h21.22c4.16,0,7.55,3.39,7.55,7.55v34.79h34.79c4.16,0,7.55,3.38,7.55,7.54v21.22c0,4.16-3.39,7.55-7.55,7.55h-34.79v34.79c0,4.16-3.39,7.55-7.55,7.55h-21.22Z"/>
          <path d="M462.12,142.69c.57,0,1.05.48,1.05,1.05v41.29h41.29c.57,0,1.05.48,1.05,1.04v21.22c0,.57-.48,1.05-1.05,1.05h-41.29v41.29c0,.57-.48,1.05-1.05,1.05h-21.22c-.56,0-1.04-.48-1.04-1.05v-41.29h-41.29c-.57,0-1.05-.48-1.05-1.05v-21.22c0-.56.48-1.04,1.05-1.04h41.29v-41.29c0-.57.48-1.05,1.04-1.05h21.22M462.12,129.69h-21.22c-7.74,0-14.04,6.3-14.04,14.05v28.29h-28.29c-7.75,0-14.05,6.3-14.05,14.04v21.22c0,7.75,6.3,14.05,14.05,14.05h28.29v28.29c0,7.75,6.3,14.05,14.04,14.05h21.22c7.75,0,14.05-6.3,14.05-14.05v-28.29h28.29c7.75,0,14.05-6.3,14.05-14.05v-21.22c0-7.74-6.3-14.04-14.05-14.04h-28.29v-28.29c0-7.75-6.3-14.05-14.05-14.05h0Z"/>
        </g>
      </g>
    </g>
  </g>
</svg>