<?xml version="1.0" encoding="UTF-8"?>
<svg id="Layer_2" xmlns="http://www.w3.org/2000/svg" viewBox="0 0 525 419.92">
  <defs>
    <style>
      .cls-1 {
        fill: #00b2ca;
      }
    </style>
  </defs>
  <g id="Layer_2-2" data-name="Layer_2">
    <g id="Brand">
      <g>
        <g>
          <path class="cls-1" d="M381.27,406.92c-7.29,0-13.22-5.93-13.22-13.22v-28.53h-211.16v28.53c0,7.29-5.91,13.22-13.17,13.22h-48.71c-7.28,0-13.21-5.93-13.21-13.22v-28.48l-6.45-.05c-20.41-.15-38.89-9.78-50.7-26.4-11.91-16.78-14.85-37.57-8.06-57.04l21.72-62.26c6.53-18.71,21.82-33.36,40.91-39.2l2.99-.91-9.71,4.28c-15.66,6.91-27.83,20.05-33.4,36.07l-21.72,62.3c-6.71,19.2-3.82,39.7,7.93,56.25,11.76,16.57,30.17,26.08,50.52,26.08h373.32c20.33,0,38.75-9.5,50.51-26.07,11.75-16.55,14.65-37.05,7.94-56.27l-21.71-62.31c-8.66-24.83-32.15-41.51-58.45-41.51h-123.02l.86,7.27c.53,4.46.8,8.81.8,12.94,0,61.99-50.44,112.43-112.44,112.43s-112.34-50.44-112.34-112.43c0-2.79.1-5.59.31-8.33l.81-10.78.48-.15.79-3.76c10.82-51.76,57.06-89.33,109.96-89.33,25.64,0,50.74,8.9,70.67,25.05,19.23,15.58,32.95,37.34,38.65,61.26l1.19,4.99h123.29c26.67,0,50.48,16.92,59.25,42.11l21.71,62.26c6.79,19.48,3.85,40.27-8.07,57.05-11.81,16.62-30.28,26.24-50.68,26.39l-6.45.05v28.48c0,7.29-5.93,13.22-13.22,13.22h-48.71ZM193.64,126.04c-39.89,0-72.35,32.46-72.35,72.36s32.46,72.45,72.35,72.45,72.45-32.5,72.45-72.45-32.5-72.36-72.45-72.36Z"/>
          <path d="M193.64,92.56c24.16,0,47.8,8.38,66.58,23.6,18.12,14.69,31.06,35.18,36.43,57.71l1.43,6.02.75,6.34c.5,4.2.75,8.29.75,12.17,0,58.41-47.52,105.93-105.94,105.93s-105.84-47.52-105.84-105.93c0-2.63.1-5.27.29-7.84l.53-7.01,1.43-6.83c10.19-48.77,53.76-84.16,103.6-84.16M193.64,277.35c43.53,0,78.95-35.42,78.95-78.95s-35.42-78.86-78.95-78.86-78.85,35.38-78.85,78.86,35.37,78.95,78.85,78.95M436.7,370.85v22.85c0,3.7-3.01,6.72-6.72,6.72h-48.71c-3.7,0-6.72-3.01-6.72-6.72v-22.85h62.15M150.4,370.85v22.85c0,3.7-2.99,6.72-6.67,6.72h-48.71c-3.7,0-6.71-3.01-6.71-6.72v-22.85h62.09M193.64,79.56c-56.13,0-104.86,39.67-116.32,94.5-21.09,6.45-37.91,22.55-45.14,43.28l-21.72,62.26c-7.49,21.48-4.25,44.43,8.9,62.94,13.05,18.37,33.41,28.97,55.95,29.13v22.03c0,10.87,8.84,19.72,19.71,19.72h48.71c10.85,0,19.67-8.85,19.67-19.72v-22.03h198.16v22.03c0,10.87,8.84,19.72,19.72,19.72h48.71c10.87,0,19.72-8.85,19.72-19.72v-22.03c22.52-.17,42.88-10.76,55.93-29.12,13.16-18.52,16.4-41.46,8.91-62.95l-21.71-62.26c-9.68-27.79-35.95-46.47-65.39-46.47h-118.16c-6.03-25.31-20.5-48.28-40.88-64.8-21.08-17.09-47.63-26.51-74.76-26.51h0ZM193.64,264.35c-36.31,0-65.85-29.59-65.85-65.95s29.54-65.86,65.85-65.86,65.95,29.54,65.95,65.86-29.58,65.95-65.95,65.95h0ZM193.64,317.33c65.58,0,118.94-53.35,118.94-118.93,0-4.43-.29-9.03-.84-13.7h115.71c23.55,0,44.57,14.92,52.32,37.15l21.71,62.31c6,17.2,3.41,35.56-7.11,50.36-10.53,14.83-27,23.33-45.21,23.33H75.84c-18.22,0-34.7-8.51-45.22-23.34-10.52-14.82-13.1-33.17-7.1-50.35l21.72-62.31c5.02-14.45,15.82-26.06,29.88-32.26-.22,2.91-.33,5.86-.33,8.81,0,65.58,53.32,118.93,118.84,118.93h0Z"/>
        </g>
        <g>
          <path class="cls-1" d="M159.99,198.83c-.22,0-.42-.19-.42-.42,0-18.8,15.29-34.09,34.09-34.09.22,0,.42.19.42.42s-.2.42-.42.42c-18.34,0-33.25,14.92-33.25,33.25,0,.23-.19.42-.42.42Z"/>
          <path d="M193.66,157.83c-22.38,0-40.59,18.21-40.59,40.59,0,3.81,3.11,6.92,6.92,6.92s6.92-3.11,6.92-6.92c0-14.76,12.01-26.75,26.75-26.75,3.81,0,6.92-3.11,6.92-6.92s-3.11-6.92-6.92-6.92h0Z"/>
        </g>
        <g>
          <path class="cls-1" d="M343.76,316.21c-9.51,0-17.25-7.74-17.25-17.25v-55.39c0-9.51,7.74-17.25,17.25-17.25s17.26,7.74,17.26,17.25v55.39c0,9.51-7.74,17.25-17.26,17.25ZM343.76,227.16c-9.05,0-16.41,7.36-16.41,16.41v55.39c0,9.05,7.36,16.41,16.41,16.41s16.42-7.36,16.42-16.41v-55.39c0-9.05-7.37-16.41-16.42-16.41Z"/>
          <path d="M343.76,219.82c-13.09,0-23.75,10.65-23.75,23.75v55.39c0,13.09,10.66,23.75,23.75,23.75s23.76-10.66,23.76-23.75v-55.39c0-13.1-10.66-23.75-23.76-23.75h0ZM343.76,308.87c-5.47,0-9.91-4.45-9.91-9.91v-55.39c0-5.47,4.45-9.91,9.91-9.91s9.92,4.44,9.92,9.91v55.39c0,5.47-4.46,9.91-9.92,9.91h0Z"/>
        </g>
        <g>
          <path class="cls-1" d="M415.34,316.21c-9.51,0-17.25-7.74-17.25-17.25v-55.39c0-9.51,7.74-17.25,17.25-17.25s17.26,7.74,17.26,17.25v55.39c0,9.51-7.74,17.25-17.26,17.25ZM415.34,227.16c-9.05,0-16.41,7.36-16.41,16.41v55.39c0,9.05,7.36,16.41,16.41,16.41s16.42-7.36,16.42-16.41v-55.39c0-9.05-7.37-16.41-16.42-16.41Z"/>
          <path d="M415.34,219.82c-13.1,0-23.75,10.65-23.75,23.75v55.39c0,13.09,10.65,23.75,23.75,23.75s23.76-10.66,23.76-23.75v-55.39c0-13.1-10.66-23.75-23.76-23.75h0ZM415.34,308.87c-5.47,0-9.91-4.45-9.91-9.91v-55.39c0-5.47,4.45-9.91,9.91-9.91s9.92,4.44,9.92,9.91v55.39c0,5.47-4.46,9.91-9.92,9.91h0Z"/>
        </g>
        <g>
          <path class="cls-1" d="M137.95,56.54c-.07,0-.21-.02-.31-.12l-18.63-21.13s-.11-.13-.1-.31c.01-.17.1-.25.13-.28.11-.09.2-.11.27-.11.15,0,.23.05.31.14l18.63,21.13s.12.13.11.31c0,.11-.05.18-.08.23l-.06.05s-.11.1-.27.1Z"/>
          <path d="M119.31,28.1c-1.68,0-3.3.61-4.57,1.73-2.86,2.52-3.13,6.91-.61,9.77l18.63,21.12c1.36,1.55,3.27,2.33,5.19,2.33,1.63,0,3.25-.57,4.56-1.72h.01c2.86-2.52,3.14-6.9.61-9.76l-18.63-21.12c-1.22-1.39-2.91-2.21-4.74-2.33-.15,0-.3-.01-.45-.01h0Z"/>
        </g>
        <g>
          <path class="cls-1" d="M193.68,35.49c-.22,0-.42-.19-.42-.42V6.92c0-.23.19-.42.42-.42s.42.19.42.42v28.15c0,.22-.19.42-.42.42Z"/>
          <path d="M193.68,0c-3.81,0-6.92,3.1-6.92,6.92v28.15c0,3.81,3.11,6.92,6.92,6.92s6.92-3.11,6.92-6.92V6.92c0-3.82-3.11-6.92-6.92-6.92h0Z"/>
        </g>
        <g>
          <path class="cls-1" d="M249.41,56.55c-.13,0-.22-.06-.28-.11-.17-.15-.18-.42-.02-.59l18.62-21.11c.08-.09.19-.14.31-.14.16,0,.24.07.27.1.03.03.13.12.14.29,0,.17-.07.25-.1.29l-18.63,21.13c-.11.12-.24.14-.31.14Z"/>
          <path d="M268.05,28.11c-1.92,0-3.83.79-5.19,2.34l-18.63,21.12c-2.52,2.87-2.25,7.24.62,9.76,1.31,1.15,2.94,1.73,4.56,1.73,1.92,0,3.83-.79,5.19-2.34l18.63-21.12c2.53-2.86,2.25-7.23-.62-9.77-1.31-1.16-2.94-1.72-4.57-1.72h0Z"/>
        </g>
      </g>
    </g>
  </g>
</svg>