<?xml version="1.0" encoding="UTF-8"?>
<svg id="Layer_2" xmlns="http://www.w3.org/2000/svg" viewBox="0 0 518.5 403.88">
  <defs>
    <style>
      .cls-1 {
        fill: #00b2ca;
      }
    </style>
  </defs>
  <g id="Layer_2-2" data-name="Layer_2">
    <g id="earpods">
      <g>
        <path class="cls-1" d="M103.6,92.11s-.06,0-.15-.02l-15.81-3.85c-.12-.03-.2-.07-.28-.21-.09-.15-.08-.24-.06-.33.06-.26.3-.38.46-.38l15.97,3.87c.1.02.2.07.3.23.07.11.06.23.03.33-.05.21-.22.35-.44.35Z"/>
        <path d="M87.74,80.83c-3.12,0-5.98,2.14-6.76,5.32-.45,1.81-.15,3.68.81,5.26.96,1.59,2.48,2.71,4.3,3.15l15.85,3.86c.55.13,1.1.2,1.65.2,3.22,0,5.99-2.19,6.76-5.32.44-1.8.15-3.67-.81-5.28-.97-1.58-2.49-2.69-4.29-3.13l-15.87-3.86c-.55-.13-1.09-.2-1.63-.2h0Z"/>
      </g>
      <g>
        <path class="cls-1" d="M55.79,190.24c-3.53,0-6.99-1.04-9.98-3.02-4.12-2.68-6.93-6.77-7.94-11.54-1.01-4.79-.09-9.71,2.61-13.85l7.17-10.94c.12-.19.33-.21.41-.21.1,0,.16.03.21.06.07.04.18.12.22.3.04.19-.04.3-.06.34l-7.17,10.96c-2.56,3.92-3.44,8.59-2.47,13.15.93,4.52,3.61,8.43,7.53,10.96,2.73,1.8,5.98,2.76,9.34,2.76,1.23,0,2.47-.13,3.69-.38,4.56-.94,8.6-3.67,11.08-7.49l17.13-26.33c.08-.12.16-.18.3-.21,0,0,.05,0,.09,0,.09,0,.16.02.24.07.14.09.18.18.2.28.02.1.04.2-.06.36l-17.13,26.35c-2.7,4.15-6.82,6.98-11.61,7.98-1.25.27-2.51.4-3.77.4Z"/>
        <path d="M48.06,144.18c-2.27,0-4.5,1.11-5.84,3.15l-7.19,10.96c-3.64,5.6-4.89,12.24-3.52,18.74,1.36,6.47,5.17,12.03,10.72,15.63,4.07,2.67,8.76,4.08,13.56,4.08,1.71,0,3.42-.18,5.1-.54,6.51-1.36,12.1-5.21,15.73-10.8l17.12-26.34c1.02-1.57,1.37-3.43.98-5.23-.38-1.83-1.45-3.39-3.01-4.4-1.14-.75-2.45-1.13-3.79-1.13-.48,0-.96.05-1.44.15-1.82.39-3.38,1.46-4.39,3.02l-17.13,26.34c-1.53,2.37-4.06,4.06-6.95,4.66-.79.17-1.58.25-2.36.25-2.08,0-4.08-.58-5.81-1.72-2.44-1.58-4.11-4.02-4.7-6.86-.61-2.85-.06-5.77,1.55-8.24l7.18-10.96c2.1-3.21,1.19-7.52-2.02-9.62-1.17-.77-2.48-1.14-3.79-1.14h0Z"/>
      </g>
      <g>
        <path class="cls-1" d="M75.98,136.71c-7.78,0-15.18-1.39-21.99-4.12-.14-.06-.2-.13-.24-.23-.07-.17-.05-.27-.02-.34.07-.17.14-.22.24-.27.08-.04.14-.05.2-.05s.11.01.18.04c6.71,2.69,13.99,4.06,21.64,4.06,3.23,0,6.53-.25,9.79-.75,25.95-3.97,45.51-22.99,45.51-44.23,0-1.79-.13-3.55-.4-5.22-1.68-11.03-8.61-20.62-19.52-27-8.61-5.04-18-7.59-27.89-7.59-5.7,0-10.17.88-12.32,1.3l-.17.03c-.34.06-.6.12-.8.15h-.23s-.35.06-.36.06c-.28,0-.4-.13-.45-.39-.04-.23.13-.47.37-.53l.77-.12c4.2-.78,8.42-1.18,12.57-1.18,10.6,0,20.62,2.58,28.97,7.48,11.15,6.5,18.24,16.33,19.96,27.68,3.57,23.41-17.02,46.05-45.89,50.47-3.29.5-6.63.76-9.92.76Z"/>
        <path d="M82.85,43.82c-4.52,0-9.13.43-13.76,1.29l-.7.11c-3.78.68-6.31,4.28-5.66,8.06.6,3.42,3.46,5.77,6.78,5.77.36,0,.72-.03,1.08-.08.41-.02.9-.12,1.8-.29,2.09-.41,6-1.18,11.07-1.18,6.72,0,15.47,1.36,24.62,6.7,9.17,5.36,15,13.31,16.38,22.39.22,1.39.32,2.81.32,4.21,0,18.07-17.19,34.32-39.99,37.81-2.96.45-5.91.68-8.81.68-6.76,0-13.28-1.21-19.23-3.6-.84-.33-1.71-.5-2.59-.5-.92,0-1.85.19-2.72.56-1.72.73-3.04,2.08-3.74,3.82-.7,1.72-.67,3.61.06,5.31.73,1.72,2.08,3.04,3.81,3.74,7.59,3.05,15.8,4.59,24.41,4.59,3.6,0,7.28-.28,10.9-.83,32.41-4.96,55.44-30.92,51.33-57.88-2.03-13.32-10.23-24.8-23.11-32.31-9.43-5.52-20.56-8.37-32.26-8.37h0Z"/>
      </g>
      <g>
        <path class="cls-1" d="M230.1,390.88c-46.52,0-84.36-37.84-84.36-84.35v-106.53c0-10.91,8.88-19.79,19.79-19.79h53.97l-19.27-12.02c-24.76-15.44-39.54-42.04-39.54-71.17,0-46.33,37.69-84.02,84.02-84.02h161.88c46.33,0,84.02,37.69,84.02,84.02,0,29.1-14.79,55.71-39.56,71.18l-19.24,12.01h53.97c5.25,0,10.2,2.06,13.95,5.81,3.72,3.74,5.78,8.7,5.77,13.97v106.53c0,46.51-37.84,84.35-84.35,84.35h-191.05ZM165.53,182.54c-9.62,0-17.45,7.83-17.45,17.46v106.53c0,45.23,36.8,82.04,82.03,82.04h191.05c45.23,0,82.04-36.8,82.04-82.04v-106.53c0-9.63-7.81-17.46-17.4-17.46H165.53ZM371.31,160.88c.13,0,.36.08.44.28l6.7,19.05h4.6c1.56,0,3.19,0,4.88.01,2.32,0,4.71,0,7.08,0,3.53,0,7.01,0,10.05-.04l9.13-.09-4.83-13.49c-.05-.16.06-.43.26-.53.05-.01.1-.02.15-.02.05,0,.1.01.16.04.14.07.18.16.19.2l4.85,13.62,5.37-.91c39.58-6.67,69.43-41.92,69.43-82,0-45.86-37.32-83.18-83.2-83.18h-161.88c-45.87,0-83.19,37.31-83.19,83.18s37.32,83.19,83.19,83.19h132.87l-6.65-18.78c-.06-.17.09-.48.32-.56-.02,0-.02,0,0,0,.01,0,.04,0,.07,0Z"/>
        <path d="M406.59,6.5h-161.88c-49.91,0-90.52,40.61-90.52,90.52,0,31.36,16.17,60.21,42.6,76.69h-31.26c-14.49,0-26.29,11.8-26.29,26.29v106.53c0,50.09,40.76,90.85,90.86,90.85h191.05c50.09,0,90.85-40.76,90.85-90.85v-106.53c0-7.01-2.71-13.6-7.67-18.58-4.97-4.97-11.55-7.71-18.55-7.71h-31.29c26.44-16.51,42.62-45.36,42.62-76.69,0-49.91-40.61-90.52-90.52-90.52h0ZM244.71,173.71c-42.29,0-76.69-34.4-76.69-76.69S202.42,20.34,244.71,20.34h161.88c42.29,0,76.7,34.4,76.7,76.68,0,37.17-27.42,69.42-64.01,75.59l-3-8.43c-.6-1.73-1.85-3.13-3.53-3.95-.93-.45-1.94-.67-2.96-.67-.78,0-1.56.13-2.33.4-3.55,1.29-5.44,5.26-4.19,8.85l1.75,4.89c-3.01.03-6.45.04-9.93.04-2.39,0-4.8,0-7.1,0-1.7-.01-3.35-.01-4.92-.01l-5.19-14.75c-1.01-2.82-3.7-4.59-6.56-4.59-.76,0-1.54.13-2.3.39-3.55,1.3-5.44,5.26-4.2,8.84l3.58,10.11h-123.67ZM230.1,382.06c-41.64,0-75.53-33.88-75.53-75.54v-106.53c0-6.04,4.91-10.96,10.95-10.96h320.25c6.01,0,10.9,4.92,10.9,10.96v106.53c0,41.65-33.88,75.54-75.54,75.54h-191.05Z"/>
      </g>
      <g>
        <path class="cls-1" d="M366.14,87.7c-.25,0-.47-.22-.47-.47s.22-.46.47-.46h16.32c.25,0,.46.21.46.46s-.21.47-.46.47h-16.32Z"/>
        <path d="M382.46,80.28h-16.32c-3.84,0-6.97,3.12-6.97,6.96s3.13,6.97,6.97,6.97h16.32c3.84,0,6.96-3.13,6.96-6.97s-3.12-6.96-6.96-6.96h0Z"/>
      </g>
      <g>
        <path class="cls-1" d="M396.74,139.29c-8.04,0-16.07-1.62-23.87-4.82-12.61-5.17-23.42-14.46-29.65-25.47-6.43-11.35-7.51-23.58-3.05-34.42,3.93-9.56,11.58-16.77,22.12-20.85,5.91-2.28,12.4-3.44,19.3-3.44,9.27,0,18.66,2.13,27.17,6.17.13.06.2.14.24.26.03.09.05.19-.02.35-.06.14-.13.2-.26.24-.04.01-.09.02-.14.02-.07,0-.14-.02-.21-.05-8.6-4.08-17.87-6.23-26.78-6.23-6.51,0-12.72,1.12-18.44,3.33-10.48,4.05-18.33,11.35-22.12,20.55-4.04,9.83-3.17,21.67,2.38,32.49,5.87,11.43,16.46,20.74,29.83,26.22,7.66,3.15,15.58,4.75,23.53,4.75,2.64,0,5.28-.18,7.85-.54l.14-.02s.09,0,.19.08c.14.1.18.2.19.32.02.14,0,.23-.08.33-.1.13-.18.18-.31.2-2.64.37-5.33.55-7.99.55Z"/>
        <path d="M381.58,43.79c-7.55,0-14.93,1.28-21.65,3.88-12.23,4.74-21.15,13.19-25.78,24.44-5.23,12.72-4.03,26.96,3.41,40.09,6.94,12.26,18.9,22.57,32.84,28.29,8.58,3.52,17.43,5.31,26.34,5.31,2.97,0,5.96-.21,8.9-.62,1.85-.26,3.48-1.22,4.59-2.7,1.12-1.48,1.6-3.31,1.34-5.15-.26-1.87-1.23-3.51-2.74-4.64-1.21-.9-2.63-1.37-4.08-1.37-.34,0-.69.03-1.04.08-2.29.32-4.61.48-6.95.48-7.03,0-14.2-1.44-21.07-4.27-11.94-4.89-21.35-13.12-26.51-23.17-4.68-9.12-5.47-18.98-2.16-27.04,3.1-7.53,9.66-13.56,18.45-16.96,5.01-1.94,10.47-2.89,16.1-2.89,7.9,0,16.15,1.89,24,5.61.95.45,1.97.68,2.99.68.78,0,1.57-.13,2.32-.4,1.76-.63,3.16-1.9,3.96-3.59.8-1.68.89-3.57.27-5.32-.63-1.75-1.9-3.15-3.58-3.95-9.51-4.51-19.88-6.79-29.96-6.79h0Z"/>
      </g>
      <g>
        <path class="cls-1" d="M227.62,339.15c-19.94,0-36.16-16.23-36.16-36.17v-79.64h270.32v79.64c0,19.94-16.23,36.17-36.17,36.17h-197.99Z"/>
        <path d="M455.28,229.85v73.14c0,16.36-13.31,29.67-29.67,29.67h-197.99c-16.36,0-29.66-13.31-29.66-29.67v-73.14h257.32M462.81,216.85H190.43c-3.02,0-5.47,2.45-5.47,5.46v80.67c0,23.53,19.14,42.67,42.66,42.67h197.99c23.53,0,42.67-19.14,42.67-42.67v-80.67c0-3.01-2.45-5.46-5.47-5.46h0Z"/>
      </g>
      <g>
        <path class="cls-1" d="M33.07,122.98c-.21,0-.42-.01-.64-.03-9.98-.94-18.45-8.39-25.17-22.15-.78-1.59-.97-3.47-.55-5.31l6.34-25.89c.39-1.74,1.4-3.28,2.85-4.34,8.75-6.48,16.82-9.77,24.01-9.77,2.92,0,5.77.55,8.46,1.65,3.42,1.4,5.33,5.29,4.42,9.04l-12.35,50.73c-.83,3.47-4,6.07-7.37,6.07Z"/>
        <path d="M39.91,61.99h0c2.11,0,4.08.38,5.97,1.15.36.15.77.8.6,1.49l-12.37,50.79c-.15.65-.77,1.06-1.07,1.06h0c-7.57-.72-14.28-6.95-19.95-18.55-.06-.13-.15-.47-.05-.93l6.3-25.74.03-.11.03-.11c.05-.21.18-.41.39-.57,7.59-5.63,14.36-8.48,20.13-8.48M39.91,48.99c-8.62,0-17.95,3.69-27.87,11.04-2.69,1.99-4.59,4.89-5.33,8.14L.38,94.04c-.76,3.29-.39,6.71,1.04,9.62,7.78,15.92,18,24.59,30.39,25.76.42.04.83.06,1.25.06,6.4,0,12.16-4.64,13.69-11.03l12.35-50.74c1.66-6.84-1.9-13.97-8.3-16.6-3.49-1.42-7.13-2.12-10.9-2.12h0Z"/>
      </g>
      <g>
        <path class="cls-1" d="M431.28,134.68c-1.07,0-2.17-.08-3.3-.25-3.68-.54-6.45-3.86-6.45-7.73v-52.18c0-3.88,2.78-7.22,6.47-7.79,1.06-.16,2.16-.24,3.25-.24,8.74,0,17.61,5.31,26.38,15.79,1.1,1.35,1.74,3.14,1.74,4.97v26.65c0,1.81-.65,3.66-1.74,4.97-8.79,10.48-17.65,15.81-26.34,15.81Z"/>
        <path d="M431.24,73c6.7,0,13.87,4.5,21.31,13.36.19.25.3.58.3.9v26.65c0,.35-.15.7-.21.78-7.5,8.95-14.69,13.49-21.36,13.49-.75,0-1.54-.06-2.37-.18-.36-.05-.88-.58-.88-1.3v-52.18c0-.73.55-1.29.94-1.36.76-.11,1.53-.16,2.28-.16M431.24,60c-1.41,0-2.82.1-4.23.31-6.83,1.04-11.99,7.15-11.99,14.21v52.18c0,7.09,5.17,13.17,12.01,14.16,1.42.21,2.85.32,4.24.32,10.69,0,21.24-6.1,31.33-18.14,2.07-2.48,3.25-5.8,3.25-9.13v-26.65c0-3.32-1.15-6.57-3.25-9.14-10.07-12.04-20.61-18.12-31.36-18.12h0Z"/>
      </g>
    </g>
  </g>
</svg>