<?xml version="1.0" encoding="UTF-8"?>
<svg id="Layer_2" xmlns="http://www.w3.org/2000/svg" viewBox="0 0 321.36 525">
  <defs>
    <style>
      .cls-1 {
        fill: #00b2ca;
      }
    </style>
  </defs>
  <g id="Bottom_navigation">
    <g id="Battery_Life">
      <g>
        <g>
          <path class="cls-1" d="M80.09,342.38c-9.74,0-17.67-7.93-17.67-17.67v-49.33c0-9.74,7.93-17.67,17.67-17.67h161.19c9.71,0,17.6,7.93,17.6,17.67v49.33c0,9.74-7.9,17.67-17.6,17.67H80.09Z"/>
          <path d="M241.28,264.2c6.12,0,11.1,5.01,11.1,11.17v49.34c0,6.16-4.98,11.17-11.1,11.17H80.09c-6.16,0-11.17-5.01-11.17-11.17v-49.34c0-6.16,5.01-11.17,11.17-11.17h161.19M241.28,251.2H80.09c-13.32,0-24.17,10.85-24.17,24.17v49.34c0,13.33,10.85,24.17,24.17,24.17h161.19c13.28,0,24.1-10.84,24.1-24.17v-49.34c0-13.32-10.82-24.17-24.1-24.17h0Z"/>
        </g>
        <g>
          <path class="cls-1" d="M40.86,512c-15.36,0-27.86-12.53-27.86-27.94V108.67c0-15.4,12.5-27.94,27.86-27.94h54.12V31.97c0-10.46,8.51-18.97,18.97-18.97h93.39c10.46,0,18.97,8.51,18.97,18.97v48.76h54.11c7.46,0,14.48,2.91,19.76,8.18,5.28,5.27,8.18,12.28,8.18,19.76v375.39c0,15.4-12.53,27.94-27.94,27.94H40.86ZM40.86,81.75c-14.8,0-26.84,12.08-26.84,26.92v375.39c0,14.84,12.04,26.92,26.84,26.92h239.57c14.84,0,26.92-12.08,26.92-26.92V108.67c0-14.84-12.08-26.92-26.92-26.92H40.86Z"/>
          <path d="M207.34,19.5c6.88,0,12.47,5.6,12.47,12.47v43.27h-118.34V31.97c0-6.88,5.6-12.47,12.47-12.47h93.39M207.34,6.5h-93.39c-14.06,0-25.47,11.43-25.47,25.47v42.26h-47.62c-18.95,0-34.36,15.45-34.36,34.44v375.39c0,18.99,15.41,34.44,34.36,34.44h239.57c18.99,0,34.44-15.45,34.44-34.44V108.67c0-9.2-3.58-17.86-10.09-24.35-6.51-6.51-15.15-10.09-24.35-10.09h-47.61V31.97c0-14.05-11.43-25.47-25.47-25.47h0ZM40.86,504.48c-11.21,0-20.34-9.16-20.34-20.42V108.67c0-11.26,9.13-20.42,20.34-20.42h239.57c11.26,0,20.42,9.16,20.42,20.42v375.39c0,11.26-9.16,20.42-20.42,20.42H40.86Z"/>
        </g>
        <g>
          <path class="cls-1" d="M80.09,461.89c-9.74,0-17.67-7.92-17.67-17.66v-49.34c0-9.74,7.93-17.67,17.67-17.67h161.19c4.68,0,9.1,1.84,12.42,5.17,3.34,3.35,5.18,7.79,5.18,12.5v49.34c0,9.74-7.9,17.66-17.6,17.66H80.09Z"/>
          <path d="M241.28,383.71c2.99,0,5.69,1.13,7.82,3.26,2.15,2.15,3.28,4.89,3.28,7.91v49.34c0,6.15-4.98,11.16-11.1,11.16H80.09c-6.16,0-11.17-5.01-11.17-11.16v-49.34c0-6.16,5.01-11.17,11.17-11.17h161.19M241.28,370.71H80.09c-13.32,0-24.17,10.85-24.17,24.17v49.34c0,13.32,10.85,24.16,24.17,24.16h161.19c13.28,0,24.1-10.84,24.1-24.16v-49.34c0-6.46-2.52-12.52-7.08-17.09-4.55-4.56-10.6-7.08-17.02-7.08h0Z"/>
        </g>
      </g>
    </g>
  </g>
</svg>