<?xml version="1.0" encoding="UTF-8"?>
<svg id="Layer_2" xmlns="http://www.w3.org/2000/svg" viewBox="0 0 321.37 525">
  <defs>
    <style>
      .cls-1 {
        fill: #00b2ca;
      }
    </style>
  </defs>
  <g id="Layer_2-2" data-name="Layer_2">
    <g id="Battery_Life">
      <g>
        <g>
          <path class="cls-1" d="M80.1,342.39c-9.75,0-17.69-7.93-17.69-17.68v-49.34c0-9.75,7.94-17.68,17.69-17.68h161.18c9.71,0,17.61,7.93,17.61,17.68v49.34c0,9.75-7.9,17.68-17.61,17.68H80.1Z"/>
          <path d="M241.28,264.19c6.13,0,11.11,5.02,11.11,11.18v49.34c0,6.16-4.98,11.18-11.11,11.18H80.1c-6.17,0-11.19-5.02-11.19-11.18v-49.34c0-6.16,5.02-11.18,11.19-11.18h161.18M241.28,251.19H80.1c-13.33,0-24.19,10.85-24.19,24.18v49.34c0,13.33,10.86,24.18,24.19,24.18h161.18c13.29,0,24.11-10.85,24.11-24.18v-49.34c0-13.33-10.82-24.18-24.11-24.18h0Z"/>
        </g>
        <g>
          <path class="cls-1" d="M40.88,512c-15.37,0-27.88-12.54-27.88-27.95V108.67c0-15.41,12.5-27.96,27.88-27.96h54.1V31.98c0-10.47,8.52-18.98,18.98-18.98h93.39c10.47,0,18.98,8.52,18.98,18.98v48.73h54.1c7.46,0,14.48,2.91,19.77,8.19,5.28,5.28,8.18,12.29,8.18,19.76v375.38c0,15.41-12.54,27.95-27.95,27.95H40.88ZM40.88,81.77c-14.79,0-26.82,12.07-26.82,26.9v375.37c0,14.84,12.03,26.91,26.82,26.91h239.55c14.83,0,26.9-12.07,26.9-26.91V108.67c0-14.83-12.07-26.9-26.9-26.9H40.88Z"/>
          <path d="M207.35,19.5c6.88,0,12.48,5.6,12.48,12.48v43.29h-118.36V31.98c0-6.88,5.6-12.48,12.48-12.48h93.39M207.35,6.5h-93.39c-14.04,0-25.48,11.44-25.48,25.48v42.23h-47.6c-18.96,0-34.38,15.46-34.38,34.46v375.38c0,18.99,15.42,34.45,34.38,34.45h239.55c19,0,34.45-15.46,34.45-34.45V108.67c0-9.2-3.58-17.85-10.09-24.36-6.51-6.51-15.16-10.09-24.36-10.09h-47.6V31.98c0-14.05-11.43-25.48-25.48-25.48h0ZM40.88,504.45c-11.21,0-20.32-9.15-20.32-20.41V108.67c0-11.25,9.11-20.4,20.32-20.4h239.55c11.25,0,20.4,9.15,20.4,20.4v375.37c0,11.26-9.15,20.41-20.4,20.41H40.88Z"/>
        </g>
        <g>
          <path class="cls-1" d="M80.1,461.9c-9.75,0-17.69-7.93-17.69-17.68v-49.33c0-9.75,7.94-17.69,17.69-17.69h161.18c4.69,0,9.1,1.84,12.43,5.17,3.34,3.35,5.18,7.79,5.18,12.52v49.33c0,9.75-7.9,17.68-17.61,17.68H80.1Z"/>
          <path d="M241.28,383.69c2.99,0,5.7,1.13,7.83,3.26,2.15,2.15,3.28,4.89,3.28,7.93v49.33c0,6.16-4.98,11.18-11.11,11.18H80.1c-6.17,0-11.19-5.02-11.19-11.18v-49.33c0-6.17,5.02-11.19,11.19-11.19h161.18M241.28,370.69H80.1c-13.33,0-24.19,10.85-24.19,24.19v49.33c0,13.33,10.86,24.18,24.19,24.18h161.18c13.29,0,24.11-10.85,24.11-24.18v-49.33c0-6.47-2.52-12.54-7.08-17.11-4.55-4.56-10.61-7.08-17.03-7.08h0Z"/>
        </g>
      </g>
    </g>
  </g>
</svg>