<?xml version="1.0" encoding="UTF-8"?>
<svg id="Layer_2" xmlns="http://www.w3.org/2000/svg" viewBox="0 0 463.87 518.5">
  <defs>
    <style>
      .cls-1 {
        fill: #00b2ca;
      }
    </style>
  </defs>
  <g id="Layer_2-2" data-name="Layer_2">
    <g id="Features">
      <g>
        <g>
          <path class="cls-1" d="M63.8,505.5c-28.01,0-50.8-22.79-50.8-50.8V172.24c0-28.06,22.79-50.88,50.8-50.88h217.16c28.06,0,50.88,22.83,50.88,50.88v282.45c0,28.01-22.83,50.8-50.88,50.8H63.8ZM63.8,122.41c-27.43,0-49.75,22.35-49.75,49.83v282.45c0,27.43,22.32,49.75,49.75,49.75h217.16c27.48,0,49.83-22.32,49.83-49.75V172.24c0-27.48-22.35-49.83-49.83-49.83H63.8Z"/>
          <path d="M280.96,114.86H63.8c-31.6,0-57.3,25.74-57.3,57.38v282.45c0,31.59,25.7,57.3,57.3,57.3h217.16c31.64,0,57.38-25.71,57.38-57.3V172.24c0-31.64-25.74-57.38-57.38-57.38h0ZM63.8,497.95c-23.85,0-43.25-19.41-43.25-43.25V172.24c0-23.89,19.4-43.33,43.25-43.33h217.16c23.89,0,43.33,19.44,43.33,43.33v282.45c0,23.84-19.44,43.25-43.33,43.25H63.8Z"/>
        </g>
        <g>
          <path class="cls-1" d="M74.45,323.54c-6.14,0-11.14-5-11.14-11.14v-16.12c0-6.14,5-11.14,11.14-11.14s11.14,5,11.14,11.14v16.12c0,6.14-5,11.14-11.14,11.14Z"/>
          <path d="M74.45,291.64c2.56,0,4.64,2.08,4.64,4.64v16.12c0,2.56-2.08,4.64-4.64,4.64s-4.64-2.08-4.64-4.64v-16.12c0-2.56,2.08-4.64,4.64-4.64M74.45,278.64c-9.73,0-17.64,7.91-17.64,17.64v16.12c0,9.73,7.91,17.64,17.64,17.64s17.64-7.91,17.64-17.64v-16.12c0-9.73-7.91-17.64-17.64-17.64h0Z"/>
        </g>
        <g>
          <path class="cls-1" d="M74.45,209.95c-6.14,0-11.14-5-11.14-11.14v-16.12c0-6.14,5-11.14,11.14-11.14s11.14,5,11.14,11.14v16.12c0,6.14-5,11.14-11.14,11.14Z"/>
          <path d="M74.45,178.05c2.56,0,4.64,2.08,4.64,4.64v16.12c0,2.56-2.08,4.64-4.64,4.64s-4.64-2.08-4.64-4.64v-16.12c0-2.56,2.08-4.64,4.64-4.64M74.45,165.05c-9.73,0-17.64,7.91-17.64,17.64v16.12c0,9.73,7.91,17.64,17.64,17.64s17.64-7.91,17.64-17.64v-16.12c0-9.73-7.91-17.64-17.64-17.64h0Z"/>
        </g>
        <g>
          <path class="cls-1" d="M74.45,266.75c-6.14,0-11.14-5-11.14-11.14v-16.12c0-6.14,5-11.14,11.14-11.14s11.14,5,11.14,11.14v16.12c0,6.14-5,11.14-11.14,11.14Z"/>
          <path d="M74.45,234.85c2.56,0,4.64,2.08,4.64,4.64v16.12c0,2.56-2.08,4.64-4.64,4.64s-4.64-2.08-4.64-4.64v-16.12c0-2.56,2.08-4.64,4.64-4.64M74.45,221.85c-9.73,0-17.64,7.91-17.64,17.64v16.12c0,9.73,7.91,17.64,17.64,17.64s17.64-7.91,17.64-17.64v-16.12c0-9.73-7.91-17.64-17.64-17.64h0Z"/>
        </g>
        <g>
          <path class="cls-1" d="M120.51,323.54c-6.14,0-11.14-5-11.14-11.14v-16.12c0-6.14,5-11.14,11.14-11.14s11.14,5,11.14,11.14v16.12c0,6.14-5,11.14-11.14,11.14Z"/>
          <path d="M120.51,291.64c2.56,0,4.64,2.08,4.64,4.64v16.12c0,2.56-2.08,4.64-4.64,4.64s-4.64-2.08-4.64-4.64v-16.12c0-2.56,2.08-4.64,4.64-4.64M120.51,278.64c-9.73,0-17.64,7.91-17.64,17.64v16.12c0,9.73,7.91,17.64,17.64,17.64s17.64-7.91,17.64-17.64v-16.12c0-9.73-7.91-17.64-17.64-17.64h0Z"/>
        </g>
        <g>
          <path class="cls-1" d="M120.51,209.95c-6.14,0-11.14-5-11.14-11.14v-16.12c0-6.14,5-11.14,11.14-11.14s11.14,5,11.14,11.14v16.12c0,6.14-5,11.14-11.14,11.14Z"/>
          <path d="M120.51,178.05c2.56,0,4.64,2.08,4.64,4.64v16.12c0,2.56-2.08,4.64-4.64,4.64s-4.64-2.08-4.64-4.64v-16.12c0-2.56,2.08-4.64,4.64-4.64M120.51,165.05c-9.73,0-17.64,7.91-17.64,17.64v16.12c0,9.73,7.91,17.64,17.64,17.64s17.64-7.91,17.64-17.64v-16.12c0-9.73-7.91-17.64-17.64-17.64h0Z"/>
        </g>
        <g>
          <path class="cls-1" d="M120.51,266.75c-6.14,0-11.14-5-11.14-11.14v-16.12c0-6.14,5-11.14,11.14-11.14s11.14,5,11.14,11.14v16.12c0,6.14-5,11.14-11.14,11.14Z"/>
          <path d="M120.51,234.85c2.56,0,4.64,2.08,4.64,4.64v16.12c0,2.56-2.08,4.64-4.64,4.64s-4.64-2.08-4.64-4.64v-16.12c0-2.56,2.08-4.64,4.64-4.64M120.51,221.85c-9.73,0-17.64,7.91-17.64,17.64v16.12c0,9.73,7.91,17.64,17.64,17.64s17.64-7.91,17.64-17.64v-16.12c0-9.73-7.91-17.64-17.64-17.64h0Z"/>
        </g>
        <g>
          <path class="cls-1" d="M165.68,323.54c-6.14,0-11.14-5-11.14-11.14v-16.12c0-6.14,5-11.14,11.14-11.14s11.14,5,11.14,11.14v16.12c0,6.14-5,11.14-11.14,11.14Z"/>
          <path d="M165.68,291.64c2.56,0,4.64,2.08,4.64,4.64v16.12c0,2.56-2.08,4.64-4.64,4.64s-4.64-2.08-4.64-4.64v-16.12c0-2.56,2.08-4.64,4.64-4.64M165.68,278.64c-9.73,0-17.64,7.91-17.64,17.64v16.12c0,9.73,7.91,17.64,17.64,17.64s17.64-7.91,17.64-17.64v-16.12c0-9.73-7.91-17.64-17.64-17.64h0Z"/>
        </g>
        <g>
          <path class="cls-1" d="M120.51,381.9c-6.14,0-11.14-5-11.14-11.14v-16.12c0-6.14,5-11.14,11.14-11.14s11.14,5,11.14,11.14v16.12c0,6.14-5,11.14-11.14,11.14Z"/>
          <path d="M120.51,350c2.56,0,4.64,2.08,4.64,4.64v16.12c0,2.56-2.08,4.64-4.64,4.64s-4.64-2.08-4.64-4.64v-16.12c0-2.56,2.08-4.64,4.64-4.64M120.51,337c-9.73,0-17.64,7.91-17.64,17.64v16.12c0,9.73,7.91,17.64,17.64,17.64s17.64-7.91,17.64-17.64v-16.12c0-9.73-7.91-17.64-17.64-17.64h0Z"/>
        </g>
        <g>
          <path class="cls-1" d="M165.68,381.9c-6.14,0-11.14-5-11.14-11.14v-16.12c0-6.14,5-11.14,11.14-11.14s11.14,5,11.14,11.14v16.12c0,6.14-5,11.14-11.14,11.14Z"/>
          <path d="M165.68,350c2.56,0,4.64,2.08,4.64,4.64v16.12c0,2.56-2.08,4.64-4.64,4.64s-4.64-2.08-4.64-4.64v-16.12c0-2.56,2.08-4.64,4.64-4.64M165.68,337c-9.73,0-17.64,7.91-17.64,17.64v16.12c0,9.73,7.91,17.64,17.64,17.64s17.64-7.91,17.64-17.64v-16.12c0-9.73-7.91-17.64-17.64-17.64h0Z"/>
        </g>
        <g>
          <path class="cls-1" d="M165.68,209.95c-6.14,0-11.14-5-11.14-11.14v-16.12c0-6.14,5-11.14,11.14-11.14s11.14,5,11.14,11.14v16.12c0,6.14-5,11.14-11.14,11.14Z"/>
          <path d="M165.68,178.05c2.56,0,4.64,2.08,4.64,4.64v16.12c0,2.56-2.08,4.64-4.64,4.64s-4.64-2.08-4.64-4.64v-16.12c0-2.56,2.08-4.64,4.64-4.64M165.68,165.05c-9.73,0-17.64,7.91-17.64,17.64v16.12c0,9.73,7.91,17.64,17.64,17.64s17.64-7.91,17.64-17.64v-16.12c0-9.73-7.91-17.64-17.64-17.64h0Z"/>
        </g>
        <g>
          <path class="cls-1" d="M165.68,266.75c-6.14,0-11.14-5-11.14-11.14v-16.12c0-6.14,5-11.14,11.14-11.14s11.14,5,11.14,11.14v16.12c0,6.14-5,11.14-11.14,11.14Z"/>
          <path d="M165.68,234.85c2.56,0,4.64,2.08,4.64,4.64v16.12c0,2.56-2.08,4.64-4.64,4.64s-4.64-2.08-4.64-4.64v-16.12c0-2.56,2.08-4.64,4.64-4.64M165.68,221.85c-9.73,0-17.64,7.91-17.64,17.64v16.12c0,9.73,7.91,17.64,17.64,17.64s17.64-7.91,17.64-17.64v-16.12c0-9.73-7.91-17.64-17.64-17.64h0Z"/>
        </g>
        <g>
          <path class="cls-1" d="M211.29,381.9c-6.14,0-11.14-5-11.14-11.14v-16.12c0-6.14,5-11.14,11.14-11.14s11.14,5,11.14,11.14v16.12c0,6.14-5,11.14-11.14,11.14Z"/>
          <path d="M211.29,350c2.56,0,4.64,2.08,4.64,4.64v16.12c0,2.56-2.08,4.64-4.64,4.64s-4.64-2.08-4.64-4.64v-16.12c0-2.56,2.08-4.64,4.64-4.64M211.29,337c-9.73,0-17.64,7.91-17.64,17.64v16.12c0,9.73,7.91,17.64,17.64,17.64s17.64-7.91,17.64-17.64v-16.12c0-9.73-7.91-17.64-17.64-17.64h0Z"/>
        </g>
        <g>
          <path class="cls-1" d="M211.29,266.75c-6.14,0-11.14-5-11.14-11.14v-16.12c0-6.14,5-11.14,11.14-11.14s11.14,5,11.14,11.14v16.12c0,6.14-5,11.14-11.14,11.14Z"/>
          <path d="M211.29,234.85c2.56,0,4.64,2.08,4.64,4.64v16.12c0,2.56-2.08,4.64-4.64,4.64s-4.64-2.08-4.64-4.64v-16.12c0-2.56,2.08-4.64,4.64-4.64M211.29,221.85c-9.73,0-17.64,7.91-17.64,17.64v16.12c0,9.73,7.91,17.64,17.64,17.64s17.64-7.91,17.64-17.64v-16.12c0-9.73-7.91-17.64-17.64-17.64h0Z"/>
        </g>
        <g>
          <path class="cls-1" d="M211.29,323.54c-6.14,0-11.14-5-11.14-11.14v-16.12c0-6.14,5-11.14,11.14-11.14s11.14,5,11.14,11.14v16.12c0,6.14-5,11.14-11.14,11.14Z"/>
          <path d="M211.29,291.64c2.56,0,4.64,2.08,4.64,4.64v16.12c0,2.56-2.08,4.64-4.64,4.64s-4.64-2.08-4.64-4.64v-16.12c0-2.56,2.08-4.64,4.64-4.64M211.29,278.64c-9.73,0-17.64,7.91-17.64,17.64v16.12c0,9.73,7.91,17.64,17.64,17.64s17.64-7.91,17.64-17.64v-16.12c0-9.73-7.91-17.64-17.64-17.64h0Z"/>
        </g>
        <g>
          <path class="cls-1" d="M456.84,117.51c-.29,0-.53-.24-.53-.53,0-60.34-49.09-109.43-109.42-109.43-.29,0-.53-.24-.53-.53s.24-.53.53-.53c60.92,0,110.48,49.56,110.48,110.49,0,.29-.24.53-.53.53Z"/>
          <path d="M346.89,0c-3.88,0-7.03,3.15-7.03,7.03s3.15,7.03,7.03,7.03c56.75,0,102.92,46.17,102.92,102.93,0,3.88,3.15,7.03,7.03,7.03s7.03-3.15,7.03-7.03C463.87,52.48,411.39,0,346.89,0h0Z"/>
        </g>
        <g>
          <path class="cls-1" d="M407.03,117.51c-.29,0-.53-.24-.53-.53,0-32.88-26.74-59.63-59.62-59.63-.29,0-.53-.24-.53-.53s.24-.53.53-.53c33.46,0,60.67,27.22,60.67,60.68,0,.29-.24.53-.53.53Z"/>
          <path d="M346.89,49.8c-3.88,0-7.03,3.15-7.03,7.03s3.15,7.03,7.03,7.03c29.28,0,53.12,23.83,53.12,53.13,0,3.88,3.15,7.03,7.03,7.03s7.03-3.15,7.03-7.03c0-37.04-30.14-67.18-67.17-67.18h0Z"/>
        </g>
        <g>
          <path class="cls-1" d="M357.22,117.51c-.29,0-.53-.24-.53-.53,0-5.41-4.4-9.81-9.8-9.81-.29,0-.53-.24-.53-.53s.24-.53.53-.53c5.99,0,10.86,4.88,10.86,10.87,0,.29-.24.53-.53.53Z"/>
          <path d="M346.89,99.62c-3.88,0-7.03,3.15-7.03,7.03s3.15,7.03,7.03,7.03c1.86,0,3.3,1.46,3.3,3.31,0,3.88,3.15,7.03,7.03,7.03s7.03-3.15,7.03-7.03c0-9.58-7.79-17.37-17.36-17.37h0Z"/>
        </g>
      </g>
    </g>
  </g>
</svg>