<?xml version="1.0" encoding="UTF-8"?>
<svg id="Layer_2" xmlns="http://www.w3.org/2000/svg" viewBox="0 0 431.38 522.9">
  <defs>
    <style>
      .cls-1 {
        fill: #00b2ca;
      }
    </style>
  </defs>
  <g id="Layer_2-2" data-name="Layer_2">
    <g id="Features">
      <g>
        <g>
          <path class="cls-1" d="M81.89,509.9c-37.99,0-68.89-30.86-68.89-68.8V151.15c0-18.23,7.42-36.05,20.34-48.91L103.17,32.99c13.03-12.89,30.25-19.99,48.46-19.99h197.87c37.98,0,68.88,30.9,68.88,68.89v359.21c0,37.94-30.9,68.8-68.88,68.8H81.89ZM151.63,14.03c-18,0-34.95,6.99-47.73,19.69L34.07,102.97c-12.75,12.66-20.05,30.21-20.05,48.18v289.95c0,37.37,30.44,67.78,67.86,67.78h267.62c37.42,0,67.86-30.41,67.86-67.78V81.89c0-37.42-30.44-67.86-67.86-67.86h-197.87Z"/>
          <path d="M349.5,6.5h-197.87c-19.94,0-38.78,7.77-53.04,21.87L28.76,97.63c-14.15,14.07-22.26,33.58-22.26,53.52v289.95c0,41.52,33.82,75.3,75.39,75.3h267.61c41.57,0,75.38-33.78,75.38-75.3V81.89c0-41.57-33.82-75.39-75.38-75.39h0ZM81.88,502.38c-33.83,0-61.36-27.49-61.36-61.28V151.15c0-16.24,6.61-32.12,18.13-43.56L108.48,38.33c11.56-11.48,26.89-17.8,43.15-17.8h197.87c33.83,0,61.36,27.53,61.36,61.36v359.21c0,33.79-27.53,61.28-61.36,61.28H81.88Z"/>
        </g>
        <g>
          <path class="cls-1" d="M96.88,452.5c-14.55,0-26.39-11.84-26.39-26.4v-133.6c0-14.56,11.84-26.4,26.39-26.4h237.62c14.6,0,26.47,11.84,26.47,26.4v133.6c0,14.56-11.88,26.4-26.47,26.4H96.88ZM176.54,306.88c-28.88,0-52.38,23.53-52.38,52.46s23.5,52.38,52.38,52.38h78.3c28.93,0,52.46-23.5,52.46-52.38s-23.53-52.46-52.46-52.46h-78.3Z"/>
          <path d="M334.5,272.6c11.01,0,19.97,8.93,19.97,19.9v133.6c0,10.97-8.96,19.9-19.97,19.9H96.88c-10.97,0-19.89-8.93-19.89-19.9v-133.6c0-10.97,8.92-19.9,19.89-19.9h237.62M176.54,418.22h78.3c32.51,0,58.96-26.41,58.96-58.88s-26.45-58.96-58.96-58.96h-78.3c-32.47,0-58.88,26.45-58.88,58.96s26.41,58.88,58.88,58.88M334.5,259.6H96.88c-18.14,0-32.89,14.76-32.89,32.9v133.6c0,18.14,14.75,32.9,32.89,32.9h237.62c18.18,0,32.97-14.76,32.97-32.9v-133.6c0-18.14-14.79-32.9-32.97-32.9h0ZM176.54,405.22c-25.3,0-45.88-20.58-45.88-45.88s20.58-45.96,45.88-45.96h78.3c25.34,0,45.96,20.62,45.96,45.96s-20.62,45.88-45.96,45.88h-78.3Z"/>
        </g>
        <g>
          <path class="cls-1" d="M176.54,380.49c-11.66,0-21.15-9.49-21.15-21.15s9.49-21.24,21.15-21.24h78.3c11.71,0,21.23,9.53,21.23,21.24s-9.52,21.15-21.23,21.15h-78.3Z"/>
          <path d="M254.84,344.6c8.12,0,14.73,6.61,14.73,14.74s-6.61,14.65-14.73,14.65h-78.3c-8.08,0-14.65-6.57-14.65-14.65s6.57-14.74,14.65-14.74h78.3M254.84,331.6h-78.3c-15.24,0-27.65,12.45-27.65,27.74s12.41,27.65,27.65,27.65h78.3c15.29,0,27.73-12.4,27.73-27.65s-12.44-27.74-27.73-27.74h0Z"/>
        </g>
        <g>
          <path class="cls-1" d="M342.81,89c-.27,0-.51-.24-.51-.51v-27.71c0-.27.24-.51.51-.51s.52.24.52.51v27.71c0,.27-.24.51-.52.51Z"/>
          <path d="M342.81,53.77c-3.86,0-7.01,3.15-7.01,7.01v27.71c0,3.86,3.15,7.01,7.01,7.01s7.02-3.15,7.02-7.01v-27.71c0-3.86-3.15-7.01-7.02-7.01h0Z"/>
        </g>
        <g>
          <path class="cls-1" d="M279.98,89c-.27,0-.51-.24-.51-.51v-27.71c0-.27.24-.51.51-.51s.52.24.52.51v27.71c0,.27-.24.51-.52.51Z"/>
          <path d="M279.98,53.77c-3.86,0-7.01,3.15-7.01,7.01v27.71c0,3.86,3.15,7.01,7.01,7.01s7.02-3.15,7.02-7.01v-27.71c0-3.86-3.15-7.01-7.02-7.01h0Z"/>
        </g>
        <g>
          <path class="cls-1" d="M217.15,89c-.15,0-.25-.05-.36-.16-.1-.1-.15-.21-.15-.35v-27.71c0-.27.24-.51.51-.51s.52.24.52.51v27.71c0,.27-.24.51-.52.51Z"/>
          <path d="M217.15,53.77c-3.86,0-7.01,3.15-7.01,7.01v27.71c0,1.87.73,3.63,2.05,4.95,1.33,1.33,3.09,2.06,4.96,2.06,3.87,0,7.02-3.15,7.02-7.01v-27.71c0-3.86-3.15-7.01-7.02-7.01h0Z"/>
        </g>
        <g>
          <path class="cls-1" d="M154.32,89c-.28,0-.51-.23-.51-.51v-27.71c0-.28.23-.51.51-.51s.51.23.51.51v27.71c0,.28-.23.51-.51.51Z"/>
          <path d="M154.32,53.77c-3.87,0-7.01,3.15-7.01,7.01v27.71c0,3.86,3.14,7.01,7.01,7.01s7.01-3.15,7.01-7.01v-27.71c0-3.86-3.14-7.01-7.01-7.01h0Z"/>
        </g>
      </g>
    </g>
  </g>
</svg>