<?xml version="1.0" encoding="UTF-8"?>
<svg id="Layer_2" xmlns="http://www.w3.org/2000/svg" viewBox="0 0 422 525">
  <defs>
    <style>
      .cls-1 {
        fill: #00b2ca;
      }
    </style>
  </defs>
  <g id="Bottom_navigation">
    <g id="Condition">
      <g>
        <path class="cls-1" d="M47.91,512c-19.25,0-34.91-15.66-34.91-34.9V47.91c0-19.25,15.66-34.91,34.91-34.91h240.34c19.25,0,34.91,15.66,34.91,34.91v69.71l4.7,2.13c49.29,22.34,81.14,71.63,81.14,125.58s-31.85,103.23-81.13,125.58l-4.7,2.14v104.04c0,19.25-15.66,34.9-34.91,34.9H47.91ZM150.92,469.09c-9.15,0-16.6,7.44-16.6,16.59s7.45,16.59,16.6,16.59h34.33c9.15,0,16.59-7.44,16.59-16.59s-7.44-16.59-16.59-16.59h-34.33ZM47.91,48.48c-18.62,0-33.76,15.14-33.76,33.76v343.35c0,18.62,15.14,33.76,33.76,33.76h240.34c18.62,0,33.76-15.14,33.76-33.76v-51.81l-10.43,3.31c-12.88,4.08-26.51,6.14-40.5,6.14-20.88,0-41.02-4.61-59.86-13.71l-3.53-1.71-47.91,23.91c-.14.07-.28.1-.32.1-.15,0-.3-.07-.34-.1-.18-.14-.27-.42-.21-.71l11.52-51.53-2.7-3.07c-22.29-25.2-34.56-57.55-34.56-91.09,0-76.05,61.86-137.92,137.91-137.92,13.97,0,27.6,2.07,40.51,6.15l10.42,3.26v-34.6c0-18.62-15.14-33.76-33.76-33.76H47.91ZM271.08,108.58c-75.41,0-136.76,61.35-136.76,136.76,0,34.79,13.2,68,37.18,93.53,0,.01.16.18.08.58l-11.28,50.8,47.25-23.68s.1-.04.2-.04.17.02.19.03c19.81,10.32,41.03,15.53,63.15,15.53,8.81,0,17.59-.84,26.09-2.5,8.51-1.65,16.95-4.15,25.07-7.43,24.98-10.13,46.27-27.25,61.59-49.52,15.71-22.83,24.01-49.56,24.01-77.31s-8.3-54.49-24.01-77.32c-15.31-22.26-36.61-39.38-61.59-49.5-16.3-6.6-33.51-9.94-51.17-9.94Z"/>
        <path d="M288.25,19.5c15.67,0,28.41,12.75,28.41,28.41v5.83c-7.29-7.27-17.33-11.76-28.41-11.76H47.91c-11.08,0-21.13,4.5-28.41,11.76v-5.83c0-15.67,12.75-28.41,28.41-28.41h240.34M316.66,454.09v23.01c0,15.66-12.75,28.4-28.41,28.4h-91.17c6.74-4.04,11.26-11.41,11.26-19.82s-4.52-15.78-11.26-19.82h91.17c11.08,0,21.13-4.5,28.41-11.76M19.5,454.09c7.29,7.26,17.33,11.76,28.41,11.76h91.17c-6.74,4.04-11.26,11.41-11.26,19.82s4.52,15.79,11.26,19.82H47.91c-15.67,0-28.41-12.74-28.41-28.4v-23.01M288.25,6.5H47.91C25.08,6.5,6.5,25.08,6.5,47.91v429.18c0,22.83,18.58,41.4,41.41,41.4h240.34c22.83,0,41.41-18.57,41.41-41.4v-99.86l.89-.4c51.6-23.4,84.95-75.01,84.95-131.5s-33.35-108.11-84.95-131.5l-.89-.4V47.91c0-22.83-18.58-41.41-41.41-41.41h0ZM47.91,452.86c-15.04,0-27.26-12.23-27.26-27.26V82.24c0-15.03,12.22-27.26,27.26-27.26h240.34c15.03,0,27.26,12.23,27.26,27.26v25.75l-1.96-.61c-13.54-4.28-27.82-6.46-42.47-6.46-79.63,0-144.41,64.78-144.41,144.42,0,35.13,12.85,69,36.18,95.39l.51.58-10.81,48.38c-.56,2.7.41,5.45,2.57,7.16,1.21.95,2.78,1.48,4.38,1.48,1.05,0,2.17-.28,3.19-.78l45.04-22.48.66.32c19.74,9.53,40.82,14.35,62.69,14.35,14.65,0,28.93-2.16,42.47-6.45l1.96-.62v42.92c0,15.03-12.23,27.26-27.26,27.26H47.91ZM169.61,378.32l8.33-37.52c.49-2.32-.12-4.66-1.7-6.38-22.83-24.31-35.42-55.95-35.42-89.08,0-71.83,58.44-130.26,130.26-130.26,16.81,0,33.19,3.18,48.73,9.47,23.79,9.65,44.08,25.95,58.67,47.17,14.96,21.74,22.86,47.2,22.86,73.63s-7.91,51.88-22.86,73.62c-14.6,21.21-34.88,37.53-58.67,47.18-7.77,3.14-15.74,5.5-23.88,7.08-8.14,1.59-16.44,2.38-24.85,2.38-21.06,0-41.28-4.97-60.09-14.77-.99-.53-2.12-.8-3.25-.8s-2.15.24-3.11.73l-35.03,17.55h0ZM150.92,495.77c-5.57,0-10.1-4.53-10.1-10.09s4.53-10.09,10.1-10.09h34.33c5.56,0,10.09,4.53,10.09,10.09s-4.53,10.09-10.09,10.09h-34.33Z"/>
      </g>
      <g>
        <path class="cls-1" d="M262.5,314.58c-.31,0-.57-.27-.57-.58s.26-.57.57-.57h25.75c18.62,0,33.76-15.14,33.76-33.76v-60.08c0-28.08-22.85-50.93-50.93-50.93s-50.92,22.85-50.92,50.93v60.08c0,.31-.27.57-.58.57h-17.16c-9.78,0-17.74-7.96-17.74-17.74v-17.16c0-9.78,7.96-17.74,17.74-17.74h16.59v-8.01c0-28.72,23.36-52.08,52.07-52.08s52.08,23.36,52.08,52.08v8.01h16.59c9.78,0,17.74,7.96,17.74,17.74v17.16c0,9.78-7.96,17.74-17.74,17.74h-15.96l-1.33,6.38c-3.34,16.21-17.72,27.96-34.21,27.96h-25.75Z"/>
        <path d="M339.75,234.1c6.2,0,11.24,5.04,11.24,11.24v17.16c0,6.2-5.04,11.24-11.24,11.24h-11.24v-39.64h11.24M213.66,234.1v39.64h-11.24c-6.2,0-11.24-5.04-11.24-11.24v-17.16c0-6.2,5.04-11.24,11.24-11.24h11.24M271.08,161.01c-32.3,0-58.57,26.28-58.57,58.58v1.51h-10.09c-13.37,0-24.24,10.87-24.24,24.24v17.16c0,13.37,10.87,24.24,24.24,24.24h17.16c3.9,0,7.08-3.17,7.08-7.07v-60.08c0-24.5,19.93-44.43,44.42-44.43s44.43,19.93,44.43,44.43v60.08c0,15.03-12.23,27.26-27.26,27.26h-25.75c-3.9,0-7.07,3.18-7.07,7.07s3.17,7.08,7.07,7.08h25.75c19.55,0,36.62-13.93,40.58-33.13l.25-1.21h10.67c13.37,0,24.24-10.87,24.24-24.24v-17.16c0-13.37-10.87-24.24-24.24-24.24h-10.09v-1.51c0-32.3-26.28-58.58-58.58-58.58h0Z"/>
      </g>
    </g>
  </g>
</svg>