<?xml version="1.0" encoding="UTF-8"?>
<svg id="Layer_2" xmlns="http://www.w3.org/2000/svg" viewBox="0 0 525 429.67">
  <defs>
    <style>
      .cls-1 {
        fill: #00b2ca;
      }
    </style>
  </defs>
  <g id="Layer_2-2" data-name="Layer_2">
    <g id="Type">
      <g>
        <g>
          <g>
            <path class="cls-1" d="M224.1,416.67c-4.22,0-7.65-3.41-7.65-7.6v-76.87h-15.9c-10.53,0-19.1-8.54-19.1-19.04v-19.6h-46.89c-10.26,0-18.61-8.32-18.61-18.56V112.93c0-10.23,8.35-18.55,18.61-18.55h58.95v-30.05c.6,1.02.95,2.21.95,3.48v26.57h31.03v-26.57c0-20.91-17.04-37.93-37.98-37.93h-59.21l1.36,7.64c.87,4.91.47,10.02-1.17,14.78l-2.97,8.62h61.99c1.42,0,2.75.43,3.85,1.16l-68.07-.17-1.91,1.89c-5.68,5.63-13.15,8.73-21.04,8.73h-57.57c-16.41,0-29.76-13.35-29.76-29.76s13.35-29.75,29.76-29.75h57.57c9.89,0,19.08,4.88,24.59,13.07l1.93,2.87h60.64c21.46,0,38.92,17.44,38.92,38.88v26.57h137.3c10.25,0,18.6,8.32,18.6,18.55v25.32h38.63l.79-5.59c.95-6.74,6.55-11.64,13.31-11.64h19.91l.99-5.31c1.12-5.99,6.12-10.18,12.17-10.18h31.43c3.33,0,6.47,1.3,8.83,3.66,2.34,2.35,3.64,5.49,3.64,8.82v151.91c0,6.88-5.6,12.47-12.47,12.47h-31.43c-6.04,0-11.05-4.19-12.17-10.18l-.99-5.31h-19.92c-6.75,0-12.34-4.92-13.3-11.7l-.79-5.59h-38.63v25.38c0,10.23-8.35,18.56-18.61,18.56h-46.89v19.6c0,10.5-8.57,19.04-19.09,19.04h-15.91v76.87c0,4.19-3.43,7.6-7.65,7.6h-50.05ZM217.4,409.07c0,3.67,3,6.65,6.7,6.65h50.05c3.69,0,6.7-2.98,6.7-6.65v-76.87h-63.45v76.87ZM134.55,95.33c-9.74,0-17.66,7.89-17.66,17.6v162.07c0,9.71,7.92,17.61,17.66,17.61h229.15c9.74,0,17.66-7.9,17.66-17.61V112.93c0-9.7-7.92-17.6-17.65-17.6h-229.16ZM435.03,121.97c-6.94,0-12.58,5.64-12.58,12.57v118.84c0,6.93,5.64,12.57,12.58,12.57h20.59V121.97h-20.59Z"/>
            <path d="M100.34,19.5c7.72,0,14.9,3.81,19.2,10.2l2.89,4.28.83,4.67c.68,3.82.36,7.81-.92,11.53l-1.83,5.33-3.7,3.67c-4.45,4.41-10.3,6.84-16.46,6.84h-57.57c-12.83,0-23.26-10.44-23.26-23.26s10.44-23.25,23.26-23.25h57.57M499.53,112.04c1.62,0,3.09.61,4.22,1.73,1.15,1.15,1.76,2.62,1.76,4.24v151.91c0,3.29-2.68,5.97-5.97,5.97h-31.43c-2.86,0-5.24-2-5.78-4.87l-.2-1.06V117.97l.2-1.06c.54-2.87,2.91-4.87,5.78-4.87h31.43M415.95,144.75v98.37h-28.09v-98.37h28.09M310.31,299.1v14.05c0,6.92-5.65,12.54-12.59,12.54h-97.17c-6.95,0-12.6-5.63-12.6-12.54v-14.05h122.37M100.34,6.5h-57.57C22.77,6.5,6.5,22.76,6.5,42.75s16.27,36.26,36.26,36.26h57.57c9.63,0,18.72-3.77,25.61-10.61l61.05.15v19.32h-52.45c-13.84,0-25.11,11.24-25.11,25.05v162.06c0,13.82,11.27,25.06,25.11,25.06h40.39v13.1c0,14.09,11.49,25.54,25.6,25.54h9.4v70.37c0,7.78,6.35,14.1,14.15,14.1h50.05c7.8,0,14.15-6.32,14.15-14.1v-70.37h9.41c14.12,0,25.59-11.46,25.59-25.54v-13.1h40.39c13.85,0,25.11-11.24,25.11-25.06v-18.88h26.48c1.4,9.9,9.76,17.29,19.73,17.29h14.52c1.69,9.01,9.39,15.48,18.56,15.48h31.43c10.47,0,18.97-8.5,18.97-18.97V118.01c0-5.07-1.97-9.83-5.55-13.42-3.59-3.58-8.36-5.55-13.42-5.55h-31.43c-9.16,0-16.87,6.47-18.56,15.48h-14.51c-9.97,0-18.35,7.36-19.74,17.23h-26.48v-18.82c0-13.81-11.26-25.05-25.1-25.05h-130.8v-20.07c0-25.03-20.37-45.38-45.42-45.38h-57.18c-6.73-9.99-17.91-15.93-29.98-15.93h0ZM134.62,54.41c2-5.82,2.49-12.02,1.43-18.03h51.45c17.36,0,31.48,14.1,31.48,31.43v20.07h-18.03v-20.07c0-7.39-6.04-13.4-13.45-13.4h-52.88ZM134.55,286.1c-6.15,0-11.16-4.98-11.16-11.11V112.93c0-6.12,5.01-11.1,11.16-11.1h229.16c6.15,0,11.15,4.98,11.15,11.1v162.06c0,6.13-5.01,11.11-11.16,11.11h-229.15ZM435.03,259.46c-3.35,0-6.08-2.72-6.08-6.07v-118.84c0-3.35,2.73-6.07,6.08-6.07h14.09v130.99h-14.09ZM224.1,409.22c-.1,0-.2-.08-.2-.15v-70.37h50.45v70.37c0,.07-.09.15-.2.15h-50.05Z"/>
          </g>
          <g>
            <path class="cls-1" d="M248.76,263.72c-5.78,0-10.49-4.7-10.49-10.48v-118.59c0-5.75,4.71-10.43,10.49-10.43h100.31c5.78,0,10.48,4.68,10.48,10.43v118.59c0,5.78-4.7,10.48-10.48,10.48h-100.31ZM248.76,125.15c-5.26,0-9.54,4.26-9.54,9.49v118.59c0,5.26,4.28,9.53,9.54,9.53h100.31c5.26,0,9.54-4.28,9.54-9.53v-118.59c0-5.23-4.28-9.49-9.54-9.49h-100.31Z"/>
            <path d="M349.07,117.71h-100.31c-9.37,0-16.99,7.6-16.99,16.93v118.59c0,9.36,7.62,16.98,16.99,16.98h100.31c9.36,0,16.98-7.62,16.98-16.98v-118.59c0-9.33-7.62-16.93-16.98-16.93h0ZM248.76,256.27c-1.68,0-3.04-1.37-3.04-3.03v-118.59c0-1.65,1.37-2.99,3.04-2.99h100.31c1.68,0,3.04,1.35,3.04,2.99v118.59c0,1.67-1.37,3.03-3.04,3.03h-100.31Z"/>
          </g>
          <g>
            <path class="cls-1" d="M154,211.89c-.26,0-.48-.22-.48-.47s.22-.48.48-.48h46.46c.26,0,.48.22.48.48s-.22.47-.48.47h-46.46Z"/>
            <path d="M200.46,204.44h-46.46c-3.85,0-6.98,3.13-6.98,6.98s3.13,6.97,6.98,6.97h46.46c3.85,0,6.98-3.13,6.98-6.97s-3.13-6.98-6.98-6.98h0Z"/>
          </g>
          <g>
            <path class="cls-1" d="M139.41,188.71c-.26,0-.48-.22-.48-.47s.22-.48.48-.48h75.65c.25,0,.47.22.47.48s-.22.47-.47.47h-75.65Z"/>
            <path d="M215.06,181.26h-75.65c-3.85,0-6.98,3.13-6.98,6.98s3.13,6.97,6.98,6.97h75.65c3.84,0,6.97-3.13,6.97-6.97s-3.13-6.98-6.97-6.98h0Z"/>
          </g>
        </g>
        <g>
          <path class="cls-1" d="M200.44,165.51c-8.3,0-15.06-6.74-15.06-15.02s6.75-15.07,15.06-15.07,15.07,6.76,15.07,15.07-6.76,15.02-15.07,15.02Z"/>
          <path d="M200.44,141.92c4.72,0,8.57,3.84,8.57,8.57s-3.84,8.52-8.57,8.52-8.56-3.82-8.56-8.52,3.84-8.57,8.56-8.57M200.44,128.92c-11.89,0-21.56,9.67-21.56,21.57s9.67,21.52,21.56,21.52,21.57-9.66,21.57-21.52-9.67-21.57-21.57-21.57h0Z"/>
        </g>
        <g>
          <path class="cls-1" d="M153.98,165.51c-8.31,0-15.07-6.74-15.07-15.02s6.76-15.07,15.07-15.07,15.07,6.76,15.07,15.07-6.76,15.02-15.07,15.02Z"/>
          <path d="M153.98,141.92c4.72,0,8.57,3.84,8.57,8.57s-3.84,8.52-8.57,8.52-8.57-3.82-8.57-8.52,3.84-8.57,8.57-8.57M153.98,128.92c-11.9,0-21.57,9.67-21.57,21.57s9.67,21.52,21.57,21.52,21.57-9.66,21.57-21.52-9.67-21.57-21.57-21.57h0Z"/>
        </g>
      </g>
    </g>
  </g>
</svg>