<?xml version="1.0" encoding="UTF-8"?>
<svg id="Layer_2" xmlns="http://www.w3.org/2000/svg" viewBox="0 0 525.06 525">
  <defs>
    <style>
      .cls-1 {
        fill: #00b2ca;
      }
    </style>
  </defs>
  <g id="Layer_2-2" data-name="Layer_2">
    <g id="USB_Port">
      <g>
        <g>
          <path class="cls-1" d="M154.15,512c-11.75,0-22.79-4.56-31.07-12.85l-97.23-97.24c-8.29-8.28-12.85-19.31-12.85-31.07s4.56-22.79,12.85-31.07L284.14,81.48c3.02-3.02,7.44-4.75,12.12-4.75s9.14,1.74,12.2,4.77l14,14,77.54-77.54c3.22-3.19,7.54-4.96,12.15-4.96s8.93,1.77,12.17,4.98l82.73,82.73c3.24,3.24,5.02,7.55,5.02,12.15s-1.78,8.91-5.02,12.15l-77.54,77.54,14.02,14.02c6.63,6.69,6.63,17.6-.02,24.31L185.23,499.15c-8.29,8.29-19.32,12.85-31.08,12.85ZM296.31,77.52c-4.37.02-8.45,1.7-11.48,4.73L26.54,340.54c-16.73,16.74-16.73,43.97,0,60.69l97.23,97.23c8.12,8.08,18.91,12.52,30.37,12.52s22.24-4.45,30.31-12.52L442.74,240.17c3.09-3.09,4.77-7.19,4.74-11.55-.02-4.28-1.71-8.31-4.77-11.32-56.35-56.42-113.17-113.24-135.05-135.04-2.95-3.01-6.98-4.72-11.3-4.73h-.05ZM451.52,98.61c-3.95,0-7.67,1.54-10.46,4.33l-22.22,22.22c-2.81,2.81-4.35,6.54-4.35,10.51,0,3.97,1.55,7.69,4.35,10.49,2.8,2.8,6.52,4.35,10.45,4.35s7.63-1.53,10.48-4.31l22.21-22.28c5.77-5.79,5.77-15.21,0-20.99-2.79-2.79-6.51-4.33-10.46-4.33ZM411.56,58.68c-3.98,0-7.72,1.55-10.51,4.35l-22.21,22.2c-5.75,5.77-5.75,15.15,0,20.92,2.82,2.8,6.55,4.34,10.51,4.34s7.69-1.53,10.49-4.32l22.23-22.24c2.8-2.8,4.34-6.51,4.34-10.45s-1.54-7.66-4.34-10.46c-2.78-2.79-6.51-4.34-10.5-4.34Z"/>
          <path d="M412.14,19.5c2.87,0,5.56,1.09,7.57,3.08l82.73,82.73c2.04,2.04,3.12,4.65,3.12,7.55s-1.08,5.51-3.12,7.55l-72.48,72.48-.46.46-.76.76c-37.81-37.85-74.04-74.09-97.85-97.86l.75-.75,72.92-72.92c2.01-1.99,4.7-3.08,7.57-3.08M389.34,116.99c5.69,0,11.04-2.2,15.1-6.24l22.21-22.22c4.03-4.03,6.24-9.37,6.24-15.05s-2.22-11.03-6.21-15.03c-4.02-4.05-9.39-6.27-15.13-6.27s-11.1,2.23-15.09,6.24l-22.24,22.23c-8.27,8.29-8.27,21.79,0,30.09l.02.02.02.02c4.03,4,9.38,6.2,15.07,6.2M429.3,157.01c5.62,0,10.95-2.19,15.02-6.15l.06-.06.06-.06,22.15-22.22c8.3-8.33,8.3-21.86-.01-30.17-4.02-4.02-9.37-6.24-15.06-6.24s-11.04,2.21-15.06,6.24l-22.22,22.22c-4.04,4.04-6.26,9.4-6.25,15.11,0,5.71,2.23,11.06,6.25,15.07,4.04,4.04,9.39,6.27,15.06,6.27M412.14,6.5c-6.06,0-12.13,2.29-16.74,6.86l-72.95,72.95-9.42-9.42c-4.48-4.44-10.63-6.66-16.77-6.66s-12.27,2.22-16.71,6.66L21.25,335.18c-19.67,19.67-19.67,51.67,0,71.33l97.23,97.24c9.84,9.83,22.75,14.75,35.67,14.75s25.84-4.92,35.67-14.75L448.11,245.46c9.15-9.23,9.15-24.25,0-33.49l-9.42-9.42.46-.46,72.49-72.49c4.47-4.47,6.93-10.42,6.93-16.74s-2.46-12.27-6.93-16.74L428.88,13.36c-4.62-4.58-10.68-6.86-16.74-6.86h0ZM389.34,103.99c-2.24,0-4.33-.86-5.91-2.43-3.23-3.24-3.23-8.49,0-11.73l22.23-22.22c1.56-1.57,3.66-2.44,5.9-2.44s4.34.86,5.91,2.44c1.56,1.56,2.44,3.65,2.44,5.86s-.87,4.29-2.44,5.86l-22.22,22.23c-1.57,1.56-3.67,2.43-5.91,2.43h0ZM154.14,504.48c-9.32,0-18.66-3.54-25.78-10.62l-97.23-97.23c-14.2-14.2-14.2-37.29,0-51.5L289.43,86.84c1.84-1.84,4.25-2.82,6.91-2.83,2.57,0,4.96,1.02,6.74,2.84,22.44,22.36,80.51,80.43,135.08,135.08,1.8,1.77,2.82,4.17,2.83,6.74.02,2.62-.99,5.06-2.84,6.91L179.86,493.86c-7.08,7.08-16.39,10.62-25.72,10.62h0ZM429.3,144.01c-2.12,0-4.23-.82-5.86-2.46-3.26-3.25-3.26-8.54,0-11.8l22.22-22.22c1.62-1.62,3.74-2.43,5.87-2.43s4.25.81,5.86,2.43c3.25,3.25,3.25,8.54,0,11.8l-22.15,22.22c-1.67,1.63-3.81,2.46-5.94,2.46h0Z"/>
        </g>
        <g>
          <path class="cls-1" d="M221.45,348.15c-11.94,0-23.14-4.63-31.56-13.04-8.42-8.41-13.05-19.62-13.04-31.57.02-11.94,4.67-23.15,13.11-31.55l63.61-63.61c8.43-8.43,19.62-13.07,31.5-13.07,11.92,0,23.09,4.65,31.48,13.07,8.49,8.46,13.16,19.69,13.16,31.63s-4.61,23.08-12.99,31.43l-63.68,63.68c-8.4,8.4-19.6,13.04-31.54,13.04h-.04Z"/>
          <path d="M285.11,201.79c10.14,0,19.67,3.97,26.87,11.19,7.24,7.21,11.23,16.81,11.23,27.01s-3.94,19.7-11.1,26.84l-63.67,63.67c-7.18,7.18-16.75,11.13-26.98,11.14-10.2,0-19.78-3.96-26.96-11.15-7.19-7.18-11.14-16.76-11.14-26.96.01-10.21,3.99-19.78,11.21-26.98l63.6-63.6c7.2-7.2,16.76-11.17,26.9-11.17h.04M285.12,188.79h-.05c-13.61,0-26.43,5.31-36.09,14.98l-63.6,63.6c-9.66,9.64-15,22.48-15.02,36.15-.01,13.67,5.29,26.53,14.95,36.17,9.64,9.64,22.48,14.95,36.15,14.95h.04c13.66-.01,26.5-5.31,36.13-14.95l63.67-63.67c9.61-9.57,14.91-22.37,14.91-36.03s-5.34-26.55-15.06-36.22c-9.61-9.65-22.41-14.97-36.03-14.98h0Z"/>
        </g>
      </g>
    </g>
  </g>
</svg>