<?xml version="1.0" encoding="UTF-8"?>
<svg id="Layer_2" xmlns="http://www.w3.org/2000/svg" viewBox="0 0 433.12 525">
  <defs>
    <style>
      .cls-1 {
        fill: #00b2ca;
      }
    </style>
  </defs>
  <g id="Bottom_navigation">
    <g id="Storage_Capacity">
      <g>
        <g>
          <path class="cls-1" d="M82.23,512c-38.17,0-69.23-31.02-69.23-69.15V151.77c0-18.31,7.45-36.23,20.45-49.15L103.54,33.09c13.1-12.95,30.4-20.09,48.71-20.09h198.64c38.18,0,69.24,31.06,69.24,69.24v360.62c0,38.13-31.06,69.15-69.24,69.15H82.23ZM152.25,14.19c-18.05,0-35.05,7.01-47.87,19.75L34.29,103.46c-12.78,12.68-20.11,30.29-20.11,48.3v291.09c0,37.48,30.53,67.97,68.05,67.97h268.66c37.53,0,68.06-30.49,68.06-67.97V82.24c0-37.52-30.54-68.05-68.06-68.05h-198.64Z"/>
          <path d="M350.89,6.5h-198.64c-20.04,0-38.96,7.81-53.29,21.98L28.87,98.01c-14.22,14.14-22.37,33.73-22.37,53.76v291.09c0,41.71,33.97,75.65,75.73,75.65h268.66c41.76,0,75.74-33.93,75.74-75.65V82.24c0-41.76-33.97-75.74-75.74-75.74h0ZM82.23,504.32c-33.94,0-61.55-27.58-61.55-61.47V151.77c0-16.29,6.63-32.22,18.19-43.69L108.96,38.55c11.6-11.52,26.98-17.86,43.29-17.86h198.64c33.94,0,61.55,27.61,61.55,61.55v360.62c.01,33.89-27.61,61.47-61.55,61.47H82.23Z"/>
        </g>
        <g>
          <path class="cls-1" d="M97.28,454.37c-14.66,0-26.58-11.92-26.58-26.57v-134.12c0-14.66,11.92-26.58,26.58-26.58h238.55c14.69,0,26.65,11.92,26.65,26.58v134.12c0,14.65-11.96,26.57-26.65,26.57H97.28ZM177.26,308.18c-28.95,0-52.51,23.59-52.51,52.59s23.56,52.51,52.51,52.51h78.6c29,0,52.59-23.56,52.59-52.51s-23.59-52.59-52.59-52.59h-78.6Z"/>
          <path d="M335.84,273.59c11.11,0,20.15,9.01,20.15,20.08v134.12c0,11.07-9.04,20.07-20.15,20.07H97.28c-11.07,0-20.08-9-20.08-20.07v-134.12c0-11.07,9.01-20.08,20.08-20.08h238.55M177.26,419.78h78.6c32.58,0,59.09-26.47,59.09-59.01s-26.51-59.09-59.09-59.09h-78.6c-32.54,0-59.01,26.51-59.01,59.09s26.47,59.01,59.01,59.01M335.84,260.59H97.28c-18.24,0-33.08,14.84-33.08,33.08v134.12c0,18.24,14.84,33.07,33.08,33.07h238.55c18.28,0,33.15-14.83,33.15-33.07v-134.12c0-18.24-14.87-33.08-33.15-33.08h0ZM177.26,406.78c-25.37,0-46.01-20.64-46.01-46.01s20.64-46.09,46.01-46.09h78.6c25.42,0,46.09,20.67,46.09,46.09s-20.67,46.01-46.09,46.01h-78.6Z"/>
        </g>
        <g>
          <path class="cls-1" d="M177.26,382.08c-11.75,0-21.31-9.56-21.31-21.31s9.56-21.4,21.31-21.4h78.6c11.8,0,21.4,9.6,21.4,21.4s-9.6,21.31-21.4,21.31h-78.6Z"/>
          <path d="M255.85,345.87c8.22,0,14.9,6.68,14.9,14.9s-6.68,14.81-14.9,14.81h-78.6c-8.17,0-14.81-6.64-14.81-14.81s6.64-14.9,14.81-14.9h78.6M255.85,332.87h-78.6c-15.33,0-27.81,12.52-27.81,27.9s12.48,27.81,27.81,27.81h78.6c15.38,0,27.9-12.48,27.9-27.81s-12.52-27.9-27.9-27.9h0Z"/>
        </g>
        <g>
          <path class="cls-1" d="M344.18,89.45c-.32,0-.59-.27-.59-.6v-27.81c0-.31.27-.59.59-.59s.59.27.59.59v27.81c0,.33-.26.6-.59.6Z"/>
          <path d="M344.18,53.96c-3.91,0-7.09,3.18-7.09,7.09v27.81c0,3.92,3.18,7.1,7.09,7.1s7.09-3.18,7.09-7.1v-27.81c0-3.91-3.17-7.09-7.09-7.09h0Z"/>
        </g>
        <g>
          <path class="cls-1" d="M281.1,89.45c-.32,0-.59-.27-.59-.6v-27.81c0-.31.27-.59.59-.59s.59.27.59.59v27.81c0,.33-.26.6-.59.6Z"/>
          <path d="M281.1,53.96c-3.91,0-7.09,3.18-7.09,7.09v27.81c0,3.92,3.18,7.1,7.09,7.1s7.09-3.18,7.09-7.1v-27.81c0-3.91-3.17-7.09-7.09-7.09h0Z"/>
        </g>
        <g>
          <path class="cls-1" d="M218.03,89.45c-.17,0-.29-.05-.41-.17-.13-.13-.18-.25-.18-.42v-27.81c0-.31.27-.59.59-.59s.59.27.59.59v27.81c0,.32-.27.6-.59.6Z"/>
          <path d="M218.03,53.96c-3.91,0-7.09,3.18-7.09,7.09v27.81c0,1.9.73,3.67,2.08,5.02,1.34,1.33,3.11,2.08,5.01,2.08,3.91,0,7.09-3.18,7.09-7.1v-27.81c0-3.91-3.18-7.09-7.09-7.09h0Z"/>
        </g>
        <g>
          <path class="cls-1" d="M154.95,89.45c-.32,0-.6-.27-.6-.6v-27.81c0-.32.27-.59.6-.59s.59.27.59.59v27.81c0,.32-.27.6-.59.6Z"/>
          <path d="M154.95,53.96c-3.92,0-7.1,3.18-7.1,7.09v27.81c0,3.92,3.18,7.1,7.1,7.1s7.09-3.18,7.09-7.1v-27.81c0-3.91-3.18-7.09-7.09-7.09h0Z"/>
        </g>
      </g>
    </g>
  </g>
</svg>