<?xml version="1.0" encoding="UTF-8"?>
<svg id="Layer_2" xmlns="http://www.w3.org/2000/svg" viewBox="0 0 435.29 525">
  <defs>
    <style>
      .cls-1 {
        fill: #00b2ca;
      }
    </style>
  </defs>
  <g id="Layer_2-2" data-name="Layer_2">
    <g id="Features">
      <g>
        <g>
          <path class="cls-1" d="M71.84,512c-32.44,0-58.84-26.39-58.84-58.84V71.84c0-32.44,26.39-58.84,58.84-58.84h291.62c32.44,0,58.84,26.39,58.84,58.84v381.33c0,32.44-26.39,58.84-58.84,58.84H71.84ZM71.84,14.05c-31.86,0-57.78,25.92-57.78,57.78v381.33c0,31.86,25.92,57.78,57.78,57.78h291.62c31.86,0,57.78-25.92,57.78-57.78V71.84c0-31.86-25.92-57.78-57.78-57.78h-45.57v42.92c0,13.09-10.61,23.74-23.66,23.74h-153.08c-13.09,0-23.74-10.65-23.74-23.74V14.05h-45.57Z"/>
          <path d="M311.38,19.5v37.48c0,9.5-7.7,17.24-17.16,17.24h-153.08c-9.51,0-17.24-7.73-17.24-17.24V19.5h187.47M363.45,6.5H71.84C35.81,6.5,6.5,35.8,6.5,71.84v381.33c0,36.02,29.31,65.33,65.34,65.33h291.62c36.03,0,65.34-29.31,65.34-65.33V71.84c0-36.03-29.3-65.34-65.34-65.34h0ZM141.15,87.22h153.08c16.64,0,30.16-13.56,30.16-30.24V20.55h39.07c28.28,0,51.28,23,51.28,51.28v381.33c0,28.27-23,51.28-51.28,51.28H71.84c-28.27,0-51.28-23.01-51.28-51.28V71.84c0-28.28,23.01-51.28,51.28-51.28h39.07v36.42c0,16.68,13.56,30.24,30.24,30.24h0Z"/>
        </g>
        <g>
          <path class="cls-1" d="M183.11,282.98c-1.79,0-3.53-.58-5.04-1.67-2.9-2.14-4.22-5.8-3.31-9.28l9.1-34.2-27.44-22.5c-2.8-2.25-3.88-5.87-2.8-9.27,1.07-3.44,4.08-5.82,7.68-6.1l35.47-1.86,12.83-33.2c1.29-3.33,4.4-5.48,7.94-5.48.29,0,.59-.02.88-.05,3.27.27,6.1,2.37,7.3,5.47l12.82,33.17,35.37,1.96c3.66.28,6.72,2.64,7.79,6.02,1.13,3.44.07,7.09-2.69,9.38l-27.47,22.27,9.01,34.4c.9,3.52-.41,7.16-3.36,9.26-1.54,1.11-3.26,1.68-5.03,1.68-1.63,0-3.22-.49-4.62-1.42l-29.84-19.21-29.96,19.23c-1.39.93-2.99,1.42-4.63,1.42Z"/>
          <path d="M218.24,165.89c.65.16,1.15.61,1.41,1.26l11.31,29.27,3.03,7.83,8.38.46,31.09,1.72c1.01.09,1.77.65,2.04,1.5l.02.07.02.07c.28.84.04,1.66-.66,2.25l-24.19,19.61-6.52,5.28,2.13,8.11,7.94,30.29c.24.96-.06,1.82-.82,2.36l-.03.02-.03.02c-.39.28-.8.43-1.2.43-.35,0-.69-.11-1.02-.33l-.08-.05-.08-.05-26.24-16.9-7.03-4.52-7.03,4.51-26.34,16.91-.1.06-.1.06c-.32.22-.67.33-1.02.33-.4,0-.8-.13-1.19-.4-.78-.6-1.11-1.49-.88-2.39l8.02-30.14,2.15-8.09-6.47-5.31-24.2-19.85-.06-.05-.06-.04c-.67-.53-.89-1.33-.62-2.19v-.03s.02-.03.02-.03c.27-.86.98-1.42,1.91-1.51l31.16-1.64,8.41-.44,3.04-7.85,11.32-29.28c.33-.85.99-1.32,1.88-1.32.24,0,.47,0,.71-.02M217.94,152.83c-.15.06-.3.08-.41.08-6.25,0-11.75,3.78-14,9.64l-11.31,29.27-31.33,1.65c-6.29.45-11.6,4.62-13.46,10.62-1.9,5.98.02,12.37,4.88,16.26l24.2,19.85-8.03,30.19c-1.59,6.08.7,12.44,5.8,16.19,2.67,1.93,5.76,2.89,8.84,2.89,2.86,0,5.72-.83,8.24-2.51l26.34-16.91,26.24,16.9c2.52,1.67,5.37,2.51,8.22,2.51,3.07,0,6.14-.96,8.8-2.88,5.16-3.66,7.47-10.02,5.88-16.2l-7.95-30.34,24.27-19.68c4.83-4.01,6.69-10.42,4.74-16.34-1.89-5.96-7.21-10.1-13.57-10.55l-31.23-1.73-11.31-29.27c-2.25-5.77-7.67-9.54-13.83-9.64h0Z"/>
        </g>
        <g>
          <path class="cls-1" d="M114.71,357.54c-.29,0-.53-.24-.53-.53s.24-.53.53-.53h205.89c.28,0,.53.25.53.53s-.25.53-.53.53H114.71Z"/>
          <path d="M320.61,349.98H114.71c-3.88,0-7.03,3.15-7.03,7.03s3.15,7.03,7.03,7.03h205.89c3.87,0,7.03-3.15,7.03-7.03s-3.16-7.03-7.03-7.03h0Z"/>
        </g>
        <g>
          <path class="cls-1" d="M114.71,432.12c-.29,0-.53-.24-.53-.53s.24-.53.53-.53h205.89c.28,0,.53.25.53.53s-.25.53-.53.53H114.71Z"/>
          <path d="M320.61,424.56H114.71c-3.88,0-7.03,3.15-7.03,7.03s3.15,7.03,7.03,7.03h205.89c3.87,0,7.03-3.15,7.03-7.03s-3.16-7.03-7.03-7.03h0Z"/>
        </g>
      </g>
    </g>
  </g>
</svg>