<?xml version="1.0" encoding="UTF-8"?>
<svg id="Layer_2" xmlns="http://www.w3.org/2000/svg" viewBox="0 0 454.32 525">
  <defs>
    <style>
      .cls-1 {
        fill: #00b2ca;
      }
    </style>
  </defs>
  <g id="Bottom_navigation">
    <g id="Model">
      <g>
        <path class="cls-1" d="M47.53,512c-17.18-.04-34.53-9.23-34.53-29.64V68.7c0-18.59,15.13-33.71,33.72-33.71h78.68c-.67,3.92-1,7.8-1,11.72v417.77c0,22.78,10.45,37.52,22.81,47.51H47.53ZM57.7,36.46c-23.84,0-43.24,19.4-43.24,43.24v65.96c0,23.84,19.4,43.24,43.24,43.24s43.24-19.4,43.24-43.24v-65.96c0-23.84-19.4-43.24-43.24-43.24Z"/>
        <path d="M118.08,41.49c-.12,1.74-.18,3.48-.18,5.22v417.77c0,17.67,5.6,30.91,13.58,41.01H47.56c-8.32-.02-15.69-2.4-20.77-6.7-4.84-4.1-7.3-9.64-7.3-16.45V177.49c9.13,10.94,22.87,17.92,38.2,17.92,27.43,0,49.74-22.31,49.74-49.74v-65.96c0-15.34-6.98-29.07-17.92-38.2h28.55M133.55,28.49H46.72c-22.18,0-40.22,18.04-40.22,40.21v413.66c0,22.17,18.04,36.08,41.03,36.14h122.43c-23.48-11.58-39.05-26.89-39.05-54.01V46.72c0-6,.87-12.01,2.65-18.22h0ZM57.7,182.41c-20.25,0-36.74-16.48-36.74-36.74v-65.96c0-20.26,16.49-36.74,36.74-36.74s36.74,16.48,36.74,36.74v65.96c0,20.26-16.48,36.74-36.74,36.74h0Z"/>
      </g>
      <g>
        <path class="cls-1" d="M57.7,80.43c-.39,0-.73-.34-.73-.74s.33-.74.73-.74.74.34.74.74-.34.74-.74.74Z"/>
        <path d="M57.7,72.46c-3.99,0-7.23,3.25-7.23,7.24s3.24,7.24,7.23,7.24,7.24-3.25,7.24-7.24-3.25-7.24-7.24-7.24h0Z"/>
      </g>
      <g>
        <path class="cls-1" d="M57.7,146.4c-.39,0-.73-.34-.73-.74s.33-.74.73-.74.74.34.74.74-.34.74-.74.74Z"/>
        <path d="M57.7,138.43c-3.99,0-7.23,3.25-7.23,7.24s3.24,7.24,7.23,7.24,7.24-3.25,7.24-7.24-3.25-7.24-7.24-7.24h0Z"/>
      </g>
      <g>
        <path class="cls-1" d="M57.7,113.42c-.39,0-.73-.34-.73-.74s.33-.74.73-.74.74.34.74.74-.34.74-.74.74Z"/>
        <path d="M57.7,105.45c-3.99,0-7.23,3.25-7.23,7.24s3.24,7.24,7.23,7.24,7.24-3.25,7.24-7.24-3.25-7.24-7.24-7.24h0Z"/>
      </g>
      <g>
        <path class="cls-1" d="M187.72,498.2c-18.59,0-33.72-15.13-33.72-33.72V46.72c0-18.59,15.13-33.72,33.72-33.72h219.88c18.59,0,33.72,15.13,33.72,33.72v417.77c0,18.59-15.13,33.72-33.72,33.72h-219.88ZM187.72,14.47c-17.78,0-32.25,14.47-32.25,32.25v417.77c0,17.79,14.47,32.26,32.25,32.26h219.88c17.79,0,32.26-14.47,32.26-32.26V46.72c0-17.78-14.47-32.25-32.26-32.25h-10.99c-11.72,0-21.26,9.53-21.26,21.25v11c0,6.46-5.26,11.72-11.72,11.72h-131.93c-6.47,0-11.73-5.26-11.73-11.72v-11c0-11.72-9.53-21.25-21.25-21.25h-11Z"/>
        <path d="M374.1,19.5c-3.3,4.56-5.25,10.17-5.25,16.22v11c0,2.88-2.34,5.22-5.22,5.22h-131.93c-2.89,0-5.23-2.34-5.23-5.22v-11c0-6.05-1.95-11.65-5.25-16.22h152.88M407.6,6.5h-219.88c-22.17,0-40.22,18.05-40.22,40.22v417.77c0,22.18,18.05,40.22,40.22,40.22h219.88c22.18,0,40.22-18.04,40.22-40.22V46.72c0-22.17-18.04-40.22-40.22-40.22h0ZM231.7,64.94h131.93c10.05,0,18.22-8.17,18.22-18.22v-11c0-8.13,6.62-14.75,14.76-14.75h10.99c14.2,0,25.76,11.54,25.76,25.75v417.77c0,14.2-11.55,25.76-25.76,25.76h-219.88c-14.2,0-25.75-11.55-25.75-25.76V46.72c0-14.2,11.54-25.75,25.75-25.75h11c8.13,0,14.75,6.62,14.75,14.75v11c0,10.05,8.18,18.22,18.23,18.22h0Z"/>
      </g>
    </g>
  </g>
</svg>