<?xml version="1.0" encoding="UTF-8"?>
<svg id="Layer_2" xmlns="http://www.w3.org/2000/svg" viewBox="0 0 524.92 525">
  <defs>
    <style>
      .cls-1 {
        fill: #00b2ca;
      }
    </style>
  </defs>
  <g id="Layer_2-2" data-name="Layer_2">
    <g id="Model">
      <g>
        <g>
          <path class="cls-1" d="M121.42,232.58c-8.88,0-17.25-3.49-23.59-9.83L22.9,147.81c-6.73-6.72-10.32-16.04-9.86-25.58.4-9.33,4.73-18.05,11.9-23.96C91.51,43.28,175.86,13,262.46,13c42.64,0,84.56,7.17,124.6,21.32,41.18,14.54,79.17,36.06,112.92,63.95,7.17,5.92,11.51,14.65,11.9,23.94.46,9.5-3.15,18.83-9.88,25.63l-74.91,74.91c-6.33,6.34-14.71,9.83-23.58,9.83h0c-7.46,0-14.66-2.44-20.81-7.06-34.23-25.63-76.91-39.74-120.2-39.74s-85.99,14.11-120.26,39.73c-6.16,4.64-13.35,7.08-20.82,7.08ZM255.54,54.79c-4.4,0-8.75,1.13-12.56,3.27-8.19,4.49-13.32,13.2-13.32,22.69l-.08,43.52c0,9.41,5.1,18.1,13.31,22.7,3.86,2.15,8.22,3.28,12.63,3.28,4.86,0,9.62-1.36,13.77-3.92l34.96-21.78c7.65-4.81,12.21-13.04,12.21-22.03s-4.56-17.22-12.19-22.02l-34.97-21.78c-4.16-2.58-8.92-3.94-13.78-3.94Z"/>
          <path d="M262.46,19.5c41.9,0,83.09,7.05,122.43,20.95,40.45,14.29,77.78,35.43,110.95,62.83,5.75,4.75,9.23,11.75,9.55,19.2v.04s0,.04,0,.04c.37,7.64-2.54,15.18-7.99,20.69l-74.91,74.91c-5.1,5.11-11.85,7.92-18.98,7.92-6.04,0-11.89-1.99-16.92-5.77-35.34-26.46-79.41-41.03-124.09-41.03s-88.77,14.57-124.19,41.05c-5.01,3.77-10.85,5.76-16.89,5.76-7.14,0-13.88-2.82-18.99-7.93L27.49,143.21c-5.43-5.42-8.33-12.96-7.96-20.66v-.04s0-.04,0-.04c.32-7.45,3.79-14.44,9.55-19.19,33.17-27.4,70.5-48.54,110.95-62.83,39.35-13.9,80.54-20.95,122.43-20.95M239.84,52.37c-10.29,5.67-16.68,16.54-16.68,28.36l-.08,43.55c0,11.74,6.37,22.61,16.67,28.38,4.81,2.67,10.26,4.09,15.78,4.09,6.06,0,12.01-1.69,17.19-4.89h.02s.02-.03.02-.03l34.98-21.79c9.54-5.99,15.23-16.28,15.23-27.52s-5.69-21.53-15.27-27.55l-34.97-21.78c-5.18-3.21-11.12-4.9-17.19-4.9-5.5,0-10.92,1.41-15.69,4.08M262.46,6.5c-85.82,0-171.65,28.92-241.66,86.76-8.59,7.09-13.78,17.54-14.26,28.66-.55,11.36,3.73,22.48,11.76,30.49l74.93,74.93c7.77,7.78,17.91,11.74,28.19,11.74,8.58,0,17.25-2.76,24.71-8.38,34.27-25.62,75.33-38.44,116.37-38.44s82.07,12.81,116.29,38.44c7.46,5.61,16.14,8.37,24.72,8.37,10.27,0,20.41-3.96,28.18-11.73l74.93-74.93c8.01-8.09,12.3-19.2,11.76-30.48-.47-11.13-5.66-21.57-14.26-28.67-35.01-28.92-73.97-50.61-114.9-65.06-40.94-14.47-83.85-21.69-126.76-21.69h0ZM255.53,143.75c-3.25,0-6.52-.81-9.46-2.45-6.16-3.45-9.99-9.98-9.99-17.02l.08-43.53c0-7.12,3.82-13.64,10-17.03,2.9-1.63,6.14-2.44,9.38-2.44,3.58,0,7.17.99,10.34,2.95l34.95,21.76c5.72,3.59,9.15,9.77,9.15,16.51s-3.42,12.92-9.15,16.51l-34.94,21.76c-3.17,1.96-6.77,2.95-10.36,2.95h0Z"/>
        </g>
        <g>
          <path class="cls-1" d="M208.17,512c-14.77,0-26.79-12.02-26.79-26.79v-15.58c0-41.52,33.81-75.3,75.38-75.3h11.4c41.56,0,75.38,33.78,75.38,75.3v15.58c0,14.77-12.02,26.79-26.79,26.79h-108.58ZM256.76,395.39c-40.98,0-74.32,33.31-74.32,74.24v15.58c0,14.19,11.54,25.73,25.74,25.73h108.58c14.19,0,25.73-11.54,25.73-25.73v-15.58c0-40.94-33.34-74.24-74.32-74.24h-11.4Z"/>
          <path d="M268.16,387.83h-11.4c-45.15,0-81.88,36.69-81.88,81.8v15.58c0,18.35,14.93,33.29,33.29,33.29h108.58c18.35,0,33.29-14.94,33.29-33.29v-15.58c0-45.11-36.73-81.8-81.88-81.8h0ZM208.17,504.45c-10.61,0-19.23-8.63-19.23-19.23v-15.58c0-37.36,30.42-67.74,67.82-67.74h11.4c37.4,0,67.82,30.39,67.82,67.74v15.58c0,10.6-8.63,19.23-19.23,19.23h-108.58Z"/>
        </g>
        <g>
          <path class="cls-1" d="M262.46,360.29c-24.12,0-43.74-19.62-43.74-43.74s19.62-43.66,43.74-43.66,43.74,19.58,43.74,43.66-19.62,43.74-43.74,43.74Z"/>
          <path d="M262.46,279.4c20.53,0,37.24,16.67,37.24,37.15s-16.7,37.24-37.24,37.24-37.24-16.7-37.24-37.24,16.7-37.15,37.24-37.15M262.46,266.4c-27.7,0-50.24,22.5-50.24,50.15s22.54,50.24,50.24,50.24,50.24-22.54,50.24-50.24-22.54-50.15-50.24-50.15h0Z"/>
        </g>
      </g>
    </g>
  </g>
</svg>