<?xml version="1.0" encoding="UTF-8"?>
<svg id="Layer_2" xmlns="http://www.w3.org/2000/svg" viewBox="0 0 492.87 525">
  <defs>
    <style>
      .cls-1 {
        fill: #00b2ca;
      }
    </style>
  </defs>
  <g id="Bottom_navigation">
    <g id="Color">
      <g>
        <g>
          <path class="cls-1" d="M113.07,225.75c-17.54,0-31.81-14.06-31.81-31.34s14.27-31.24,31.81-31.24,31.7,14.01,31.7,31.24-14.22,31.34-31.7,31.34ZM113.07,163.4c-17.41,0-31.57,13.91-31.57,31.01s14.16,31.11,31.57,31.11,31.47-13.96,31.47-31.11-14.12-31.01-31.47-31.01Z"/>
          <path d="M113.07,156.67c-21.13,0-38.3,16.93-38.3,37.74s17.18,37.84,38.3,37.84,38.2-16.98,38.2-37.84-17.13-37.74-38.2-37.74h0ZM113.07,219.02c-13.83,0-25.07-11.04-25.07-24.61s11.25-24.51,25.07-24.51,24.97,10.99,24.97,24.51-11.2,24.61-24.97,24.61h0Z"/>
        </g>
        <g>
          <path class="cls-1" d="M405.19,511.65s-.08-.01-.15-.08c-28.18-27.05-75.97-81.52-76.17-113.92-.15-22.66,10.15-43.7,28.25-57.73l3.89-3.03-.12-.5,8.82-4.41c10.5-5.18,21.84-7.81,33.67-7.81h.57c11.82.04,23.27,2.82,33.99,8.26l9.03,4.55,1.97-9.9c6.74-33.76,10.15-73.68,9.86-115.44-.12-13.27-.55-26.06-1.3-38.18.98,14.39,1.46,27.53,1.53,38.19.3,44.4-3.5,86.31-11,121.2l-1.04,4.71,3.84,2.97c18.3,14.32,28.89,35.5,29.03,58.09.23,32.42-46.81,86.27-74.65,112.97l-.04.05ZM359.89,332.12c-7.91-35.2-12.42-78.26-12.69-121.18-.07-10.13.18-21.62.8-33.86-.47,11.36-.67,22.69-.57,33.86.29,42.07,4.21,82.11,11.34,115.77l1.28,6.11-.17-.7ZM349.64,153.12c.18-2.07.36-4.15.56-6.24v6.06l105.68.67c0,.08.01.15.02.23l-106.26-.72ZM454.47,140.21c-1.33-10.21-4.87-34.86-10.83-59.22-11.02-45.07-24.67-67.11-41.72-67.37-.18,0-.36-.01-.54-.01-15.21,0-27.61,18.73-37.91,57.27-4.94,18.49-8.49,38.14-10.72,53.23,5.73-43.8,16.26-86.14,33.24-103.24,5-5.03,10.15-7.48,15.77-7.48,18.18.11,34.03,27.11,44.58,76.03,3.5,16.24,6.17,33.72,8.13,50.79Z"/>
          <path d="M403.9,330.68c10.82.04,21.29,2.58,31.13,7.58l1.38.7,5,2.52,4.85,3.76.55.43c16.74,13.11,26.42,32.43,26.54,53.03.1,14.41-11.43,37.08-32.47,63.84-13.88,17.65-28.35,32.66-35.76,40.05-7.49-7.47-22.21-22.71-36.38-40.6-21.45-27.08-33.31-49.94-33.39-64.37-.13-20.62,9.25-39.77,25.75-52.56l.59-.46,4.77-3.71,4.77-2.39,1.32-.66c9.62-4.74,19.98-7.14,30.79-7.14h.53M401.77,6.9c-7.33,0-14.18,3.16-20.38,9.4-34.24,34.48-40.97,152.22-40.68,194.68.26,43.38,4.83,86.93,12.86,122.62l.17.73-.59.46c-19.71,15.28-30.93,38.2-30.77,62.91.26,42.49,70.21,110.94,78.19,118.6,1.31,1.24,2.97,1.87,4.63,1.87s3.28-.62,4.54-1.86c7.89-7.57,76.95-75.16,76.65-117.7-.15-24.59-11.65-47.62-31.55-63.19l-.58-.45.16-.73c7.59-35.35,11.44-77.75,11.14-122.61-.39-56.84-12.59-204.42-63.77-204.72h0ZM448.74,147.07l-92.05-.58v-1.65c2.51-26.44,17.41-124.72,44.69-124.72.1,0,.21,0,.31,0,32.61.18,46.77,124.38,46.91,125.63l.13,1.31h0ZM365.45,326.85l-.31-1.49c-7.04-33.2-10.92-72.79-11.2-114.48-.14-16.46.35-33.33,1.46-50.12l.08-1.1,94.55.64.09,1.06c1.29,15.6,2.02,32.53,2.19,50.33.28,41.3-3.08,80.76-9.74,114.12l-.3,1.52-1.38-.7c-11.64-5.91-24.06-8.92-36.93-8.97h-.57c-12.83,0-25.13,2.85-36.57,8.5l-1.36.68h0Z"/>
        </g>
        <g>
          <path class="cls-1" d="M217.04,512c-5.42,0-10.84-.77-16.12-2.29C90.27,477.82,13,376.15,13,262.47S90.27,47.21,200.92,15.33c5.36-1.54,10.82-2.33,16.25-2.33,12.35,0,24.17,3.95,34.22,11.42l.42.32c14.52,10.9,22.85,27.49,22.85,45.5v384.55c0,17.97-8.33,34.56-22.86,45.51-10.21,7.65-22.24,11.7-34.75,11.7h0ZM217.09,13.24c-5.41,0-10.83.77-16.1,2.29C90.44,47.39,13.23,148.93,13.23,262.47s77.2,215.13,187.75,247.04c5.27,1.51,10.66,2.27,16.04,2.27,12.51,0,24.48-4.04,34.6-11.67,14.48-10.83,22.8-27.35,22.8-45.31V70.24c0-17.92-8.31-34.46-22.79-45.36-10.1-7.61-22.05-11.64-34.54-11.64Z"/>
          <path d="M217.16,6.5c-6.01,0-12.07.86-18.05,2.58C85.71,41.76,6.5,145.96,6.5,262.47s79.21,220.81,192.62,253.49c5.92,1.71,11.95,2.55,17.92,2.55,13.75,0,27.24-4.45,38.67-13.01,16.17-12.19,25.45-30.68,25.45-50.7V70.24c0-20.08-9.28-38.56-25.45-50.7h0c-11.34-8.59-24.78-13.04-38.53-13.04h0ZM217.02,505.27c-4.75,0-9.53-.67-14.24-2.02-107.78-31.11-183.05-130.13-183.05-240.79S95.01,52.84,202.78,21.78c4.74-1.36,9.54-2.04,14.3-2.04,10.92,0,21.61,3.53,30.63,10.33,12.84,9.66,20.2,24.3,20.2,40.17v384.55c0,15.89-7.37,30.52-20.21,40.12-9.04,6.82-19.75,10.36-30.69,10.36h0Z"/>
        </g>
        <g>
          <path class="cls-1" d="M193.91,146.1c-17.54,0-31.8-14.04-31.8-31.29s14.27-31.29,31.8-31.29,31.76,14.04,31.76,31.29-14.25,31.29-31.76,31.29Z"/>
          <path d="M193.91,90.03c13.93,0,25.26,11.12,25.26,24.79s-11.33,24.79-25.26,24.79-25.3-11.12-25.3-24.79,11.35-24.79,25.3-24.79M193.91,77.03c-21.13,0-38.3,16.95-38.3,37.79s17.18,37.79,38.3,37.79,38.26-16.94,38.26-37.79-17.16-37.79-38.26-37.79h0Z"/>
        </g>
        <g>
          <path class="cls-1" d="M193.91,454.23c-17.54,0-31.8-14.06-31.8-31.34s14.27-31.29,31.8-31.29c8.46,0,16.44,3.28,22.46,9.23,6,5.92,9.3,13.76,9.3,22.06,0,17.28-14.25,31.34-31.76,31.34ZM193.91,391.84c-17.41,0-31.58,13.93-31.58,31.05s14.17,31.11,31.58,31.11,31.52-13.96,31.52-31.11-14.14-31.05-31.52-31.05Z"/>
          <path d="M193.91,385.1c-21.13,0-38.3,16.95-38.3,37.79s17.18,37.84,38.3,37.84,38.26-16.97,38.26-37.84c0-10.06-3.99-19.53-11.23-26.68-7.24-7.16-16.84-11.1-27.03-11.1h0ZM193.91,447.5c-13.83,0-25.08-11.04-25.08-24.61s11.26-24.55,25.08-24.55,25.02,11.02,25.02,24.55-11.23,24.61-25.02,24.61h0Z"/>
        </g>
        <g>
          <path class="cls-1" d="M113.07,347.42c-17.54,0-31.81-14.04-31.81-31.29s14.27-31.29,31.81-31.29,31.7,14.04,31.7,31.29-14.22,31.29-31.7,31.29Z"/>
          <path d="M113.07,291.35c13.9,0,25.2,11.12,25.2,24.79s-11.31,24.79-25.2,24.79-25.3-11.12-25.3-24.79,11.35-24.79,25.3-24.79M113.07,278.35c-21.13,0-38.3,16.95-38.3,37.79s17.18,37.79,38.3,37.79,38.2-16.95,38.2-37.79-17.13-37.79-38.2-37.79h0Z"/>
        </g>
      </g>
    </g>
  </g>
</svg>