<?xml version="1.0" encoding="UTF-8"?>
<svg id="Layer_2" xmlns="http://www.w3.org/2000/svg" viewBox="0 0 525 495.28">
  <defs>
    <style>
      .cls-1 {
        fill: #00b2ca;
      }
    </style>
  </defs>
  <g id="Layer_2-2" data-name="Layer_2">
    <g id="Model">
      <g>
        <g>
          <path class="cls-1" d="M373.77,482.28c-11.91,0-21.59-9.73-21.59-21.69v-41.64h-179.4v41.64c0,11.96-9.68,21.69-21.58,21.69h-49.29c-11.9,0-21.58-9.73-21.58-21.69v-41.64h-19.24c-26.52,0-48.09-21.69-48.09-48.35v-134.49c0-26.66,21.57-48.35,48.09-48.35h86.94l.38-6.85c3.79-60.31,53.9-107.58,114.08-107.58s110.26,47.27,114.09,107.62l.48,6.8h86.8c12.84,0,24.92,5.03,34.02,14.16,9.11,9.15,14.12,21.29,14.12,34.19v134.49c0,26.66-21.6,48.35-48.14,48.35h-19.19v41.64c0,11.96-9.68,21.69-21.58,21.69h-49.33ZM14.06,370.6c0,26.08,21.1,47.3,47.03,47.3h402.77c25.96,0,47.09-21.22,47.09-47.3v-15.3H14.06v15.3ZM61.09,188.8c-25.93,0-47.03,21.22-47.03,47.3v118.15h496.89v-118.15c0-26.08-21.12-47.3-47.09-47.3h-86.79l-.48,6.74c-3.83,60.38-53.94,107.63-114.09,107.63s-110.3-47.25-114.09-107.58l-.39-6.8H61.09ZM262.5,117.17c-39.06,0-70.84,31.9-70.84,71.1s31.78,71.11,70.84,71.11,70.8-31.9,70.8-71.11-31.76-71.1-70.8-71.1Z"/>
          <path d="M262.5,79.83c56.73,0,103.99,44.6,107.6,101.54v.05s0,.04,0,.04l.05.71.43,6.15-.43,6.06-.05.7v.05s0,.05,0,.05c-3.61,56.91-50.87,101.5-107.6,101.5s-104.01-44.56-107.6-101.46l-.04-.66-.36-6.24.36-6.34.04-.66c3.59-56.92,50.84-101.5,107.6-101.5M262.5,265.88c42.62,0,77.3-34.82,77.3-77.61s-34.68-77.6-77.3-77.6-77.34,34.81-77.34,77.6,34.69,77.61,77.34,77.61M438.17,424.4v36.19c0,8.38-6.77,15.19-15.08,15.19h-49.32c-8.32,0-15.09-6.82-15.09-15.19v-36.19h79.5M166.28,424.4v36.19c0,8.38-6.77,15.19-15.08,15.19h-49.28c-8.32,0-15.08-6.82-15.08-15.19v-36.19h79.45M262.5,66.83c-63.61,0-116.57,49.95-120.57,113.71l-.04.71H61.09c-30.1,0-54.59,24.6-54.59,54.85v134.49c0,30.25,24.49,54.85,54.59,54.85h12.74v35.14c0,15.55,12.6,28.19,28.08,28.19h49.28c15.49,0,28.08-12.65,28.08-28.19v-35.14h166.4v35.14c0,15.55,12.6,28.19,28.09,28.19h49.32c15.49,0,28.08-12.65,28.08-28.19v-35.14h12.69c30.13,0,54.64-24.6,54.64-54.85v-134.49c0-14.63-5.69-28.39-16.02-38.77-10.33-10.37-24.05-16.08-38.62-16.08h-80.74l-.05-.71c-4.04-63.77-57.01-113.71-120.57-113.71h0ZM262.5,252.88c-35.47,0-64.34-28.98-64.34-64.61s28.86-64.6,64.34-64.6,64.3,28.99,64.3,64.6-28.84,64.61-64.3,64.61h0ZM262.5,309.68c63.57,0,116.53-49.93,120.57-113.67l.05-.7h80.74c22.39,0,40.59,18.3,40.59,40.8v111.65H20.56v-111.65c0-22.5,18.18-40.8,40.53-40.8h80.8l.04.7c4,63.75,56.96,113.67,120.57,113.67h0ZM61.09,411.4c-22.35,0-40.53-18.3-40.53-40.8v-8.8h483.89v8.8c0,22.5-18.21,40.8-40.59,40.8H61.09Z"/>
        </g>
        <g>
          <path class="cls-1" d="M350.71,66.72c-.14,0-.24-.05-.29-.1-.05-.04-.18-.13-.21-.34-.02-.15,0-.28.09-.4l17.75-24.56c.14-.19.36-.22.45-.22.1,0,.19.03.26.08.16.11.21.21.24.34.03.18,0,.3-.1.44l-17.75,24.54c-.14.19-.34.22-.44.22Z"/>
          <path d="M368.49,34.61c-2.18,0-4.33,1.01-5.72,2.91l-17.75,24.56c-2.27,3.14-1.56,7.54,1.57,9.81,1.24.9,2.68,1.33,4.11,1.33,2.18,0,4.33-1.01,5.71-2.91l17.76-24.56c1.09-1.52,1.53-3.38,1.23-5.23-.29-1.85-1.29-3.48-2.82-4.57-1.23-.9-2.68-1.33-4.1-1.33h0Z"/>
        </g>
        <g>
          <path class="cls-1" d="M405.24,142.17c-.07,0-.14-.02-.22-.06-.18-.09-.24-.2-.27-.3-.09-.27.07-.58.34-.67l28.73-9.38c.11-.04.16-.04.18-.04.08,0,.14.02.22.05.17.08.23.21.26.3.05.16.04.29-.03.44-.06.11-.15.2-.3.24l-28.73,9.38c-.06.02-.12.03-.18.03Z"/>
          <path d="M434,125.22c-.73,0-1.47.12-2.2.36l-28.73,9.38c-3.68,1.2-5.71,5.18-4.5,8.87.58,1.78,1.83,3.23,3.5,4.08,1,.51,2.08.76,3.17.76.74,0,1.48-.12,2.2-.35l28.73-9.38c1.78-.58,3.23-1.83,4.08-3.5.84-1.68.99-3.58.41-5.37-.58-1.8-1.84-3.25-3.51-4.1-.99-.5-2.07-.75-3.15-.75h0Z"/>
        </g>
        <g>
          <path class="cls-1" d="M119.71,142.16c-.05,0-.1,0-.16-.03l-28.73-9.38c-.27-.09-.43-.4-.34-.67.09-.28.37-.36.51-.36.06,0,.1,0,.12.02l28.76,9.39c.27.09.43.4.34.69-.09.26-.37.34-.5.34Z"/>
          <path d="M91,125.23c-2.96,0-5.72,1.89-6.69,4.84-1.2,3.69.82,7.66,4.5,8.87l28.72,9.38c.72.24,1.46.35,2.18.35,2.96,0,5.71-1.88,6.69-4.84,1.19-3.69-.82-7.66-4.5-8.87l-28.72-9.38c-.72-.24-1.45-.35-2.18-.35h0Z"/>
        </g>
        <g>
          <path class="cls-1" d="M174.26,66.72c-.1,0-.3-.03-.44-.22l-17.75-24.55c-.17-.24-.11-.58.12-.75.13-.09.25-.09.29-.09.02,0,.06,0,.12.01.12.02.24.09.33.22l17.75,24.56c.04.05.09.15.09.3,0,.12-.04.3-.21.42-.06.05-.16.1-.31.1Z"/>
          <path d="M156.48,34.6c-1.46,0-2.89.46-4.1,1.33-3.14,2.28-3.85,6.68-1.57,9.82l17.75,24.56c1.38,1.9,3.52,2.9,5.7,2.9,1.43,0,2.86-.43,4.11-1.33,1.91-1.37,2.91-3.52,2.91-5.7,0-1.43-.43-2.87-1.32-4.11l-17.75-24.56c-1.1-1.52-2.74-2.53-4.58-2.83-.38-.06-.76-.09-1.13-.09h0Z"/>
        </g>
        <g>
          <path class="cls-1" d="M262.48,37.91c-.28,0-.52-.24-.52-.53V7.02c0-.28.24-.52.52-.52s.53.24.53.52v30.36c0,.16-.05.27-.15.38-.11.11-.22.15-.37.15h-.01Z"/>
          <path d="M262.48,0c-3.87,0-7.02,3.15-7.02,7.02v30.36c0,3.88,3.15,7.03,7.02,7.03h.01c1.88,0,3.64-.73,4.96-2.06,1.32-1.32,2.06-3.09,2.06-4.97V7.02c0-3.87-3.15-7.02-7.03-7.02h0Z"/>
        </g>
        <g>
          <path class="cls-1" d="M262.5,229.31c-22.49,0-40.78-18.41-40.78-41.04s18.29-41.04,40.78-41.04,40.73,18.41,40.73,41.04-18.27,41.04-40.73,41.04Z"/>
          <path d="M262.5,153.73c18.87,0,34.23,15.49,34.23,34.54s-15.35,34.54-34.23,34.54-34.28-15.49-34.28-34.54,15.38-34.54,34.28-34.54M262.5,140.73c-26.07,0-47.28,21.33-47.28,47.54s21.21,47.54,47.28,47.54,47.23-21.32,47.23-47.54-21.18-47.54-47.23-47.54h0Z"/>
        </g>
      </g>
    </g>
  </g>
</svg>