<?xml version="1.0" encoding="UTF-8"?>
<svg id="Layer_2" xmlns="http://www.w3.org/2000/svg" viewBox="0 0 666.33 525">
  <defs>
    <style>
      .cls-1 {
        fill: #00b2ca;
      }
    </style>
  </defs>
  <g id="Layer_2-2" data-name="Layer_2">
    <g id="Resolution_Types">
      <g>
        <g>
          <path class="cls-1" d="M55.92,512c-23.66,0-42.92-19.16-42.92-42.71v-84.18c0-.27.22-.49.49-.49h39.34V41.2c0-15.55,12.65-28.2,28.2-28.2h504.28c15.58,0,28.26,12.65,28.26,28.2v343.43h39.28c.27,0,.49.22.49.49v84.18c0,23.55-19.25,42.71-42.92,42.71H55.92ZM53.81,384.62h169c.27,0,.49.22.49.49v57.58h219.79v-57.58c0-.27.22-.49.49-.49h169V94.1H53.81v290.52ZM534.25,93.12h78.34v-51.92c0-15.01-12.24-27.21-27.28-27.21h-51.05v79.14ZM431.81,93.12h101.46V13.98h-101.46v79.14ZM329.53,93.12h101.32V13.98h-101.32v79.14ZM227.16,93.12h101.39V13.98h-101.39v79.14ZM124.8,93.12h101.39V13.98h-101.39v79.14ZM81.02,13.98c-15.01,0-27.21,12.21-27.21,27.21v51.92h70.01V13.98h-42.79Z"/>
          <path d="M646.83,391.12v78.17c0,19.96-16.34,36.21-36.42,36.21H55.92c-20.08,0-36.42-16.24-36.42-36.21v-78.17h197.3v58.08h232.79v-58.08h197.23M585.3,6.5H81.02c-19.14,0-34.7,15.57-34.7,34.7v336.93H13.49c-3.85,0-6.99,3.14-6.99,6.99v84.18c0,27.14,22.17,49.21,49.42,49.21h554.5c27.24,0,49.42-22.07,49.42-49.21v-84.18c0-3.86-3.14-6.99-6.99-6.99h-32.78V41.2c0-19.13-15.59-34.7-34.76-34.7h0ZM540.75,86.62V20.48h44.55c11.46,0,20.78,9.29,20.78,20.71v45.42h-65.34ZM438.31,86.62V20.48h88.46v66.13h-88.46ZM336.03,86.62V20.48h88.32v66.13h-88.32ZM233.66,86.62V20.48h88.39v66.13h-88.39ZM131.3,86.62V20.48h88.39v66.13h-88.39ZM60.31,86.62v-45.42c0-11.43,9.29-20.71,20.71-20.71h36.29v66.13h-57.01ZM60.31,378.12V100.6h545.78v277.52h-162.5c-3.85,0-6.99,3.14-6.99,6.99v51.08h-206.79v-51.08c0-3.86-3.14-6.99-6.99-6.99H60.31Z"/>
        </g>
        <g>
          <path class="cls-1" d="M307.48,294.48c-.26,0-.48-.22-.48-.48v-53.43h-74.96v53.43c0,.26-.23.48-.49.48s-.49-.22-.49-.48v-101.67c0-.27.22-.49.49-.49s.49.22.49.49v47.27h74.96v-47.27c0-.26.22-.49.48-.49s.49.22.49.49v101.67c0,.26-.23.48-.49.48Z"/>
          <path d="M307.48,185.34c-3.85,0-6.98,3.14-6.98,6.99v40.77h-61.96v-40.77c0-3.85-3.14-6.99-6.99-6.99s-6.99,3.14-6.99,6.99v101.67c0,3.85,3.14,6.98,6.99,6.98s6.99-3.14,6.99-6.98v-46.93h61.96v46.93c0,3.85,3.14,6.98,6.98,6.98s6.99-3.14,6.99-6.98v-101.67c0-3.85-3.14-6.99-6.99-6.99h0Z"/>
        </g>
        <g>
          <path class="cls-1" d="M348.81,294.69c-.26,0-.48-.22-.48-.49v-102.69c0-.27.22-.49.48-.49h34.44c28.73,0,52.1,23.25,52.1,51.83s-23.37,51.83-52.1,51.83h-34.44ZM349.3,293.72h33.94c28.19,0,51.12-22.82,51.12-50.86s-22.93-50.85-51.12-50.85h-33.94v101.72Z"/>
          <path d="M383.24,184.52h-34.44c-3.85,0-6.98,3.14-6.98,6.99v102.69c0,3.86,3.13,6.99,6.98,6.99h34.44c32.31,0,58.6-26.17,58.6-58.33s-26.3-58.33-58.6-58.33h0ZM355.8,287.22v-88.72h27.44c24.61,0,44.62,19.89,44.62,44.35s-20.01,44.36-44.62,44.36h-27.44Z"/>
        </g>
      </g>
    </g>
  </g>
</svg>