<?xml version="1.0" encoding="UTF-8"?>
<svg id="Layer_2" xmlns="http://www.w3.org/2000/svg" viewBox="0 0 401.32 525">
  <defs>
    <style>
      .cls-1 {
        fill: #00b2ca;
      }
    </style>
  </defs>
  <g id="Layer_2-2" data-name="Layer_2">
    <g id="Type">
      <g>
        <g>
          <path class="cls-1" d="M126.85,512c-14.64,0-26.55-11.91-26.55-26.55v-66.58c0-2.59-1.36-5.03-3.57-6.38-52.44-32.58-83.74-88.68-83.74-150.07s31.31-117.42,83.74-149.91c2.16-1.3,3.56-3.76,3.56-6.38V39.55c0-14.64,11.91-26.55,26.55-26.55h125.13c14.59,0,26.47,11.91,26.47,26.55v66.58c0,2.62,1.33,5,3.55,6.38,49.75,30.8,80.97,83.96,83.52,142.21.15,4.01,3.44,7.18,7.5,7.18h14.78c.29,0,.53.24.53.53s-.24.53-.53.53h-14.78c-4.05,0-7.35,3.17-7.5,7.21-2.54,58.25-33.77,111.44-83.52,142.26-2.22,1.38-3.55,3.76-3.55,6.38v66.66c0,14.64-11.87,26.55-26.47,26.55h-125.13ZM189.33,87.22c-96.65,0-175.28,78.59-175.28,175.2s78.63,175.36,175.28,175.36,175.28-78.67,175.28-175.36-78.63-175.2-175.28-175.2Z"/>
          <path d="M251.98,19.5c11.01,0,19.97,8.99,19.97,20.05v61.04c-24.8-12.7-52.89-19.87-82.61-19.87s-57.75,7.16-82.53,19.83v-61c0-11.06,8.99-20.05,20.05-20.05h125.13M271.95,424.39v61.06c0,11.05-8.96,20.05-19.97,20.05h-125.13c-11.06,0-20.05-8.99-20.05-20.05v-61.02c24.78,12.69,52.84,19.85,82.53,19.85s57.81-7.18,82.61-19.89M251.98,6.5h-125.13c-18.23,0-33.05,14.83-33.05,33.05v66.58c0,.34-.18.67-.48.85C38.96,140.66,6.5,198.78,6.5,262.42s32.46,121.83,86.82,155.6c.3.18.48.5.48.85v66.58c0,18.22,14.82,33.05,33.05,33.05h125.13c18.17,0,32.97-14.83,32.97-33.05v-66.66c0-.35.18-.67.47-.85,51.58-31.95,83.95-87.09,86.59-147.54.02-.53.46-.95,1-.95h14.78c3.88,0,7.03-3.15,7.03-7.03s-3.15-7.03-7.03-7.03h-14.78c-.54,0-.98-.42-1-.96-2.64-60.39-35.01-115.51-86.59-147.45-.29-.18-.47-.5-.47-.85V39.55c0-18.22-14.8-33.05-32.97-33.05h0ZM189.33,431.28c-93.07,0-168.78-75.76-168.78-168.86S96.26,93.72,189.33,93.72s168.78,75.68,168.78,168.7-75.72,168.86-168.78,168.86h0Z"/>
        </g>
        <g>
          <path class="cls-1" d="M189.38,357.91c-.14,0-.21-.05-.24-.07-2.57-1.7-62.74-41.8-88.72-92.28-1.29-2.51-3.85-4.07-6.67-4.07h-5.86c-.28,0-.52-.25-.52-.53,0-.11,0-.37.45-.42,2.27-.29,4.23-1.53,5.43-3.41l.06-.1c1.19-1.93,1.45-4.27.71-6.4-3.46-9.74-5.21-19.16-5.21-28.05,0-30.63,24.95-55.54,55.62-55.54,14.99,0,29.06,5.93,39.61,16.7,1.47,1.47,3.36,2.25,5.37,2.25s4.02-.85,5.42-2.33c10.25-10.56,24.63-16.62,39.46-16.62,30.63,0,55.55,24.92,55.55,55.54,0,9.36-1.87,19.25-5.57,29.4-.8,2.1-.54,4.59.71,6.58l.06.1c1.29,1.97,3.46,3.23,5.82,3.38.29.02.5.21.5.44,0,.3-.24.55-.53.55h-6.75c-2.82,0-5.38,1.56-6.66,4.06-24.66,46.7-77.36,83.74-87.67,90.7l-.08.05c-.12.06-.22.08-.29.08ZM175.45,226.94c.15.01.27.1.31.22l14.5,48.03c.88,3.02,3.64,5.18,6.84,5.33h.15s.15,0,.15,0c3.12,0,5.94-1.93,7.04-4.81l5.28-13.43c.06-.15.27-.31.49-.31h63.85c3.03,0,5.73-1.79,6.9-4.57,5.2-12.05,7.83-23.76,7.83-34.81,0-30.04-24.44-54.49-54.49-54.49-17.78,0-34.4,8.68-44.48,23.22-.16.23-.32.23-.42.23-.13,0-.28-.02-.46-.27-10.23-14.52-26.88-23.18-44.52-23.18-30.09,0-54.57,24.44-54.57,54.49,0,10.5,2.4,21.67,7.14,33.21l.05.11c1.19,2.76,3.9,4.54,6.9,4.54h50.04c2.86,0,5.43-1.59,6.72-4.15l14.17-29.06c.15-.32.25-.32.35-.32l.22.02Z"/>
          <path d="M174.01,243.86l10.02,33.19c1.7,5.69,6.83,9.69,12.78,9.97h.34s.3.01.3.01c5.72,0,10.95-3.57,13.04-8.9l3.79-9.65h54.96c-22.76,39.61-65.33,71.52-79.85,81.67-12.69-8.86-57.87-42.22-80.85-83.2h45.45c5.34,0,10.14-2.97,12.53-7.74l.03-.06.03-.06,7.42-15.22M234.3,160.54c-16.61,0-32.71,6.8-44.17,18.64-.18.2-.44.31-.71.31-.31,0-.53-.11-.72-.3-11.79-12.03-27.51-18.65-44.25-18.65-34.26,0-62.12,27.83-62.12,62.04,0,9.62,1.87,19.78,5.56,30.18.1.29.06.61-.1.87-.16.25-.42.42-.73.46-3.57.43-6.17,3.32-6.17,6.88,0,3.88,3.15,7.03,7.02,7.03h5.86c.38,0,.72.21.89.54,26.82,52.11,88.29,92.99,90.9,94.71,1.16.77,2.5,1.16,3.84,1.16s2.7-.39,3.9-1.16l.11-.08c10.53-7.1,64.38-44.94,89.82-93.11.17-.33.51-.53.88-.53h6.75c3.88,0,7.03-3.15,7.03-7.03.01-3.68-2.89-6.74-6.6-6.95-.32-.02-.61-.19-.78-.45-.17-.27-.21-.6-.1-.89,3.96-10.86,5.96-21.5,5.96-31.62,0-34.21-27.84-62.04-62.05-62.04h0ZM189.41,198.05c2.31,0,4.41-1.1,5.76-3.03,8.85-12.78,23.48-20.42,39.13-20.42,26.45,0,47.99,21.52,47.99,47.99,0,10.16-2.46,21.02-7.32,32.28-.15.37-.51.61-.91.61h-63.85c-2.87,0-5.49,1.78-6.54,4.43l-5.3,13.48c-.15.39-.52.64-.93.64h-.04c-.43-.02-.8-.3-.92-.71l-14.46-47.87c-.76-2.79-3.21-4.78-6.1-4.99-.23-.02-.47-.03-.7-.03-2.66,0-4.99,1.48-6.19,3.97l-14.14,28.99c-.17.34-.52.56-.9.56h-50.04c-.41,0-.77-.25-.93-.62-4.42-10.75-6.66-21.09-6.66-30.74,0-26.46,21.56-47.99,48.07-47.99,15.53,0,30.19,7.63,39.2,20.42,1.36,1.93,3.46,3.03,5.77,3.03h0Z"/>
        </g>
      </g>
    </g>
  </g>
</svg>