<?xml version="1.0" encoding="UTF-8"?>
<svg id="Layer_2" xmlns="http://www.w3.org/2000/svg" viewBox="0 0 556.69 525">
  <defs>
    <style>
      .cls-1 {
        fill: #00b2ca;
      }
    </style>
  </defs>
  <g id="Layer_2-2" data-name="Layer_2">
    <g id="Screen_Type">
      <g>
        <path class="cls-1" d="M133.31,512c-.3,0-.56-.26-.56-.56s.26-.56.56-.56h57.33l46.88-82.08H59.6c-25.69,0-46.6-20.9-46.6-46.6V59.68c0-25.74,20.9-46.68,46.6-46.68h437.41c25.74,0,46.69,20.94,46.69,46.68v322.53c0,25.69-20.94,46.6-46.69,46.6h-177.92l46.87,82.08h57.33c.3,0,.56.26.56.56s-.26.56-.56.56H133.31ZM59.6,14.11c-25.07,0-45.47,20.44-45.47,45.57v289.94h528.45V59.68c0-25.12-20.44-45.57-45.56-45.57H59.6Z"/>
        <path d="M537.19,356.12v26.09c0,22.11-18.03,40.1-40.19,40.1h-189.11l11.1,19.45,36.41,63.75h-154.2l36.41-63.75,11.11-19.45H59.6c-22.11,0-40.1-17.99-40.1-40.1v-26.09h517.69M497.01,6.5H59.6C30.32,6.5,6.5,30.36,6.5,59.68v322.53c0,29.28,23.82,53.1,53.1,53.1h166.73l-39.46,69.08h-53.56c-3.89,0-7.06,3.17-7.06,7.06s3.17,7.06,7.06,7.06h289.98c3.89,0,7.06-3.17,7.06-7.06s-3.17-7.06-7.06-7.06h-53.56l-39.45-69.08h166.72c29.33,0,53.19-23.82,53.19-53.1V59.68c0-29.32-23.86-53.18-53.19-53.18h0ZM20.62,343.12V59.68c0-21.53,17.48-39.07,38.97-39.07h437.41c21.54,0,39.06,17.53,39.06,39.07v283.44H20.62Z"/>
      </g>
    </g>
  </g>
</svg>