<?xml version="1.0" encoding="UTF-8"?>
<svg id="Layer_2" xmlns="http://www.w3.org/2000/svg" viewBox="0 0 512 512">
  <defs>
    <style>
      .cls-1 {
        fill: #00b2ca;
      }
    </style>
  </defs>
  <g id="Layer_2-2" data-name="Layer_2">
    <g id="Megapixels">
      <g>
        <g>
          <path class="cls-1" d="M7.02,505.5c-.28,0-.52-.24-.52-.51v-145.88c0-.28.24-.52.52-.52s.52.24.52.52v145.36h145.35c.29,0,.52.23.52.52s-.23.51-.52.51H7.02Z"/>
          <path d="M7.02,352.09c-3.87,0-7.02,3.15-7.02,7.02v145.88c0,3.87,3.15,7.01,7.02,7.01h145.87c3.88,0,7.02-3.14,7.02-7.01s-3.14-7.02-7.02-7.02H14.04v-138.86c0-3.87-3.15-7.02-7.02-7.02h0Z"/>
        </g>
        <g>
          <path class="cls-1" d="M7.02,153.42c-.28,0-.52-.24-.52-.52V7.02c0-.28.24-.52.52-.52h145.87c.28,0,.52.24.52.52s-.23.52-.52.52H7.54v145.36c0,.28-.24.52-.52.52Z"/>
          <path d="M152.89,0H7.02C3.15,0,0,3.15,0,7.02v145.88c0,3.87,3.15,7.02,7.02,7.02s7.02-3.15,7.02-7.02V14.04h138.85c3.88,0,7.02-3.14,7.02-7.02s-3.14-7.02-7.02-7.02h0Z"/>
        </g>
        <g>
          <path class="cls-1" d="M504.98,153.41c-.28,0-.52-.24-.52-.51V7.54h-145.35c-.29,0-.52-.23-.52-.52s.24-.52.52-.52h145.87c.17,0,.29.08.37.16.1.1.15.22.15.36v145.88c0,.28-.23.51-.52.51Z"/>
          <path d="M504.98,0h-145.87c-3.88,0-7.02,3.15-7.02,7.02s3.14,7.02,7.02,7.02h138.85v138.86c0,3.87,3.15,7.01,7.02,7.01s7.02-3.14,7.02-7.01V7.02c0-1.93-.78-3.69-2.06-4.96-1.26-1.27-3.02-2.06-4.96-2.06h0Z"/>
        </g>
        <g>
          <path class="cls-1" d="M359.11,505.5c-.29,0-.52-.23-.52-.52s.23-.51.52-.51h145.35v-145.36c0-.28.24-.52.52-.52s.52.24.52.52v145.88c0,.14-.05.26-.15.36-.08.08-.17.14-.36.14h-145.87Z"/>
          <path d="M504.98,352.09c-3.87,0-7.02,3.15-7.02,7.02v138.86h-138.85c-3.88,0-7.02,3.14-7.02,7.01s3.14,7.02,7.02,7.02h145.87c1.88,0,3.64-.72,4.96-2.05,1.33-1.33,2.06-3.09,2.06-4.96v-145.88c0-3.87-3.14-7.02-7.02-7.02h0Z"/>
        </g>
        <g>
          <path class="cls-1" d="M256.11,424.7c-92.99,0-168.65-75.69-168.65-168.73s75.66-168.65,168.65-168.65,168.49,75.66,168.49,168.65-75.58,168.73-168.49,168.73ZM256.11,88.35c-92.42,0-167.61,75.19-167.61,167.62s75.19,167.69,167.61,167.69,167.45-75.23,167.45-167.69-75.12-167.62-167.45-167.62Z"/>
          <path d="M256.11,80.82c-96.58,0-175.15,78.57-175.15,175.15s78.57,175.23,175.15,175.23,174.99-78.61,174.99-175.23-78.5-175.15-174.99-175.15h0ZM256.11,417.16c-88.83,0-161.11-72.31-161.11-161.19s72.28-161.12,161.11-161.12,160.95,72.28,160.95,161.12-72.2,161.19-160.95,161.19h0Z"/>
        </g>
        <g>
          <path class="cls-1" d="M256.03,338.58c-45.55,0-82.61-37.06-82.61-82.61s37.06-82.53,82.61-82.53,82.53,37.02,82.53,82.53-37.02,82.61-82.53,82.61ZM256.03,212.66c-8.62,0-15.63,7.01-15.63,15.63s6.86,15.63,15.63,15.63c6.65,0,12.07,5.41,12.07,12.06,0,8.76,6.86,15.63,15.62,15.63s15.63-7.01,15.63-15.63c0-23.88-19.43-43.31-43.31-43.31Z"/>
          <path d="M256.03,179.94c41.92,0,76.03,34.1,76.03,76.03s-34.1,76.11-76.03,76.11-76.1-34.14-76.1-76.11,34.14-76.03,76.1-76.03M283.71,278.1c12.2,0,22.13-9.93,22.13-22.13,0-27.47-22.35-49.81-49.81-49.81-12.2,0-22.13,9.93-22.13,22.13s9.93,22.13,22.13,22.13c3.07,0,5.57,2.49,5.57,5.56,0,12.2,9.92,22.13,22.12,22.13M256.03,166.94c-49.13,0-89.1,39.93-89.1,89.03s39.97,89.11,89.1,89.11,89.03-39.97,89.03-89.11-39.93-89.03-89.03-89.03h0ZM283.71,265.1c-5.11,0-9.12-4.01-9.12-9.13,0-10.23-8.33-18.56-18.57-18.56-5.11,0-9.13-4.02-9.13-9.13s4.1-9.13,9.13-9.13c20.3,0,36.81,16.52,36.81,36.81,0,5.03-4.1,9.13-9.13,9.13h0Z"/>
        </g>
      </g>
    </g>
  </g>
</svg>