<?xml version="1.0" encoding="UTF-8"?>
<svg id="Layer_2" xmlns="http://www.w3.org/2000/svg" viewBox="0 0 420.48 518.5">
  <defs>
    <style>
      .cls-1 {
        fill: #00b2ca;
      }
    </style>
  </defs>
  <g id="Layer_2-2" data-name="Layer_2">
    <g id="Condition">
      <g>
        <g>
          <path class="cls-1" d="M13.53,505.5c-.29,0-.53-.24-.53-.53v-241.65c0-.35.17-.53.53-.53h74.76c9.19,0,17.57,5.86,20.85,14.57l1.96,5.28,5.65-.45c46.06-3.66,102.8-47.87,111.14-160.42v-.14c.53-10.09,9.52-18.29,20.03-18.29,4.05,0,8.03,1.31,11.51,3.79,19.74,13.86,32.63,38.94,36.31,70.63,3.48,29.93-1.6,61.94-13.93,87.8l-5.18,10.73h11.95c.23,0,90.26-.08,90.75-.08,12.93,0,23.53,8.12,27.02,20.68,3.48,12.54-1.46,24.96-12.58,31.64l-8.01,4.79,6.43,6.8c7.18,7.5,9.62,17.87,6.56,27.78-3.09,9.96-10.96,17.18-21.05,19.31l-11.13,2.33,6.53,9.32c5.38,7.69,6.59,17.18,3.32,26.04-3.27,8.83-10.36,15.24-19.44,17.56l-10.8,2.7,6.61,9.01c6.5,8.84,7.43,20.45,2.44,30.3-5.03,9.95-14.67,15.89-25.78,15.89h-120.87c-19.21,0-30.35-7.74-41.11-15.23-6.2-4.31-12.56-8.73-19.97-11.27-9.84-3.51-18.17-3.91-23.58-3.91-1.18,0-2.25.02-3.19.04-.67.02-1.23.03-1.71.03-.21,0-.41,0-.58-.01l-7.8-.3v13.34c0,12.38-10.04,22.45-22.37,22.45H13.53ZM124.07,468.94c5.5,0,13.95.41,23.76,3.98l.14.05c7.81,2.65,13.69,6.8,19.91,11.2,10.54,7.44,21.43,15.13,40.73,15.13h120.87c18.23,0,27.77-14.09,27.77-28,0-7.19-2.47-13.95-6.95-19.03-5.14-5.84-12.34-8.94-20.83-8.94-.19,0-.31-.02-.38-.03-.04-.1-.1-.28-.1-.51,0-.21.05-.38.09-.47.07-.02.19-.03.39-.03h20.48c17.78,0,27.08-13.69,27.08-27.22s-9.3-27.21-27.08-27.21c-.17,0-.29-.02-.35-.03-.04-.1-.09-.28-.09-.5s.05-.4.09-.5c.07-.01.18-.03.36-.03h21.93c8.24,0,15.23-3,20.23-8.67,4.34-4.92,6.73-11.47,6.73-18.43,0-13.18-9.45-27.18-26.96-27.18-.17,0-.29-.02-.35-.03-.04-.1-.09-.28-.09-.5s.05-.4.09-.5c.07-.01.18-.03.35-.03h7.47c17.64,0,26.9-13.61,26.93-27.05.01-13.46-9.23-27.1-26.92-27.15-51.25.08-76.54.08-90.12.08h-14.14c-.18,0-.32-.05-.45-.28-.11-.2-.11-.37.01-.57,14.69-23.68,22.28-57.32,20.27-89.97-2.17-35.3-15.35-63.9-36.17-78.48-3.24-2.34-7.08-3.61-11.02-3.61-9.83,0-18.23,7.78-18.77,17.36-3.71,49.7-17.65,91.2-40.32,120-19.25,24.44-44.52,39.19-71.13,41.51l-6.86.6v184.58l7.03.45c.5.03,1.04.04,1.73.04.47,0,1,0,1.58-.02h.32c.8-.01,1.72-.02,2.75-.02Z"/>
          <path d="M88.29,269.29c6.49,0,12.42,4.15,14.76,10.34l.25.67.86,2.32v200.42c0,8.8-7.12,15.95-15.87,15.95H19.5v-229.71h68.79M247.92,96.84c-13.92,0-25.81,10.97-26.51,24.46-8.03,108.45-61.67,150.97-105.17,154.42l-.75.06-.26-.7c-4.23-11.23-15.05-18.78-26.94-18.78H13.53c-3.95,0-7.03,3.08-7.03,7.03v241.65c0,3.88,3.15,7.03,7.03,7.03h74.76c15.92,0,28.87-12.99,28.87-28.95v-6.59l1.04.04c.25.01.53.02.83.02.54,0,1.16,0,1.86-.03.89-.02,1.92-.04,3.04-.04,4.92,0,12.51.37,21.47,3.56,6.58,2.25,12.3,6.23,18.36,10.45,11.04,7.68,23.57,16.39,44.83,16.39h120.87c13.6,0,25.42-7.27,31.58-19.46,6.1-12.06,4.95-26.26-3-37.08l-.88-1.21,1.45-.36c11.17-2.86,19.9-10.74,23.92-21.6,4.03-10.89,2.53-22.56-4.1-32.03l-.87-1.24,1.49-.31c12.44-2.62,22.13-11.5,25.92-23.75,3.76-12.19.76-24.96-8.05-34.16l-.86-.91,1.07-.64c13.69-8.23,19.78-23.51,15.49-38.95-4.29-15.45-17.35-25.44-33.28-25.44-.49,0-23.94.02-46.88.04-21.96.02-43.44.04-43.87.04h-1.6l.69-1.44c12.84-26.94,18.13-60.24,14.52-91.35-3.91-33.56-17.76-60.26-39-75.17-4.59-3.26-9.87-4.99-15.28-4.99h0ZM119.42,462.48c-.54,0-.96-.01-1.32-.03l-.94-.06v-172.52l.92-.08c28.43-2.48,55.31-18.1,75.68-43.96,23.48-29.83,37.91-72.56,41.7-123.6.32-6.21,5.82-11.28,12.29-11.28,2.56,0,5.09.84,7.29,2.43,41.74,29.23,42.66,113.67,14.08,159.72-1.36,2.21-1.41,4.89-.14,7.16,1.26,2.25,3.54,3.59,6.11,3.59h14.14c13.58,0,38.87,0,90.1-.08,14.06.04,20.45,10.73,20.44,20.64-.02,9.9-6.42,20.56-20.43,20.56h-7.47c-4.78,0-6.95,3.64-6.95,7.03s2.17,7.03,6.95,7.03c13.43,0,20.46,10.4,20.46,20.68,0,5.38-1.82,10.4-5.11,14.13-3.72,4.23-9.04,6.47-15.35,6.47h-21.93c-4.78,0-6.95,3.63-6.95,7.03s2.17,7.03,6.95,7.03c14.14,0,20.58,10.73,20.58,20.71s-6.45,20.72-20.58,20.72h-20.48c-4.8,0-6.98,3.63-6.98,7.01s2.18,7.05,6.98,7.05c6.56,0,12.08,2.33,15.95,6.74,3.43,3.9,5.32,9.13,5.32,14.73,0,10.36-6.66,21.5-21.27,21.5h-120.87c-17.23,0-26.81-6.77-36.96-13.93-6.33-4.48-12.88-9.1-21.58-12.06-10.78-3.92-20-4.38-25.98-4.38-1.05,0-2,.01-2.84.02-.67,0-1.27.02-1.81.02h0Z"/>
        </g>
        <g>
          <path class="cls-1" d="M265.79,21.12c-.29,0-.53-.24-.53-.53V7.03c0-.29.24-.53.53-.53s.53.24.53.53v13.56c0,.29-.24.53-.53.53Z"/>
          <path d="M265.79,0c-3.88,0-7.03,3.15-7.03,7.03v13.56c0,3.88,3.15,7.03,7.03,7.03s7.03-3.15,7.03-7.03V7.03c0-3.88-3.15-7.03-7.03-7.03h0Z"/>
        </g>
        <g>
          <path class="cls-1" d="M376.25,66.87c-.15,0-.27-.05-.37-.15s-.15-.23-.15-.37.05-.27.15-.37l9.59-9.59c.11-.11.22-.15.37-.15s.27.05.37.15c.2.2.2.54,0,.75l-9.59,9.58c-.11.11-.22.16-.37.16Z"/>
          <path d="M385.84,49.72c-1.88,0-3.64.73-4.97,2.06l-9.59,9.59c-2.74,2.74-2.74,7.2,0,9.94,1.33,1.33,3.09,2.06,4.97,2.06s3.63-.73,4.96-2.06l9.6-9.59c2.74-2.74,2.74-7.2,0-9.94-1.33-1.33-3.09-2.06-4.97-2.06h0Z"/>
        </g>
        <g>
          <path class="cls-1" d="M155.35,66.87c-.11,0-.24-.02-.39-.17l-9.57-9.57c-.2-.2-.2-.54,0-.75.11-.11.22-.15.37-.15.11,0,.24.02.39.17l9.57,9.57c.2.2.2.54,0,.75-.11.11-.22.15-.37.15Z"/>
          <path d="M145.76,49.72c-1.88,0-3.64.73-4.97,2.06-2.74,2.74-2.74,7.2,0,9.94l9.59,9.59c1.34,1.33,3.09,2.06,4.97,2.06s3.64-.73,4.97-2.06c2.74-2.74,2.74-7.2,0-9.94l-9.59-9.59c-1.34-1.33-3.09-2.06-4.97-2.06h0Z"/>
        </g>
      </g>
    </g>
  </g>
</svg>