<?xml version="1.0" encoding="UTF-8"?>
<svg id="Layer_2" xmlns="http://www.w3.org/2000/svg" viewBox="0 0 525 524.99">
  <defs>
    <style>
      .cls-1 {
        fill: #00b2ca;
      }
    </style>
  </defs>
  <g id="Layer_2-2" data-name="Layer_2">
    <g id="Brand">
      <g>
        <path class="cls-1" d="M262.53,511.99c-137.59,0-249.53-111.94-249.53-249.54S124.94,13,262.53,13c57.79,0,114.2,20.3,158.84,57.17,44.65,36.87,75.23,88.37,86.09,145.02,14.11,73.46-5.03,148.54-52.51,206.01-47.68,57.7-117.81,90.8-192.41,90.8ZM181.85,497.51l5.22,1.66c24.49,7.8,49.88,11.76,75.46,11.76,53.88,0,107.15-17.92,150.01-50.45l8.87-6.69-239.56-143.45v187.17ZM181.85,215.88v93.24l80.68,46.58,80.76-46.58v-93.26l-80.93-46.48-80.51,46.5ZM94.91,79.14C43.52,126.07,14.06,192.88,14.06,262.45c0,12.14.87,24.16,2.57,35.72l1.57,10.92,9.58-5.51c15.95-9.17,194.24-112.09,222.28-128.28l11.25-6.53L98.95,75.47l-4.05,3.67ZM344.35,308.46l157.36-90.75,4.71-2.77-1.12-5.29c-8.58-39.47-26.99-76.7-53.26-107.69-26.21-30.93-59.9-55.2-97.41-70.18l-10.29-4.13v280.81Z"/>
        <path d="M262.53,19.5c25.73,0,51.02,4.02,75.32,11.96v173.77l-63.53-36.49h0s-19.52-11.22-19.52-11.22L109.36,73.95c41.83-34.03,95.16-54.45,153.17-54.45M502.53,224.74c10.81,68.86-8.14,138.52-52.59,192.32-8.76,10.6-18.29,20.34-28.49,29.18l-4.97-2.98-143.63-86.01,70.44-40.63,6.5-3.75v-.05l7.55-4.35,145.19-83.73M175.35,225.93v263.4c-75.85-29.24-133.46-95.49-150.6-176.5l5-2.88,1.27-.73c10.07-5.79,83.82-48.36,144.33-83.28M262.53,6.5C121.35,6.5,6.5,121.32,6.5,262.45s114.85,256.04,256.03,256.04c76.56,0,148.51-33.96,197.42-93.15,48.73-58.97,68.37-136.01,53.89-211.37-11.53-60.11-43.72-111.97-88.34-148.81C380.89,28.31,323.82,6.5,262.53,6.5h0ZM350.85,297.21V37.26l1.38.55c36.51,14.58,69.32,38.2,94.86,68.35,25.58,30.18,43.52,66.43,51.86,104.83l.15.71-.63.37-147.61,85.13h0ZM23.27,298.68l-.21-1.46c-1.67-11.3-2.5-22.99-2.5-34.77,0-67.75,28.69-132.8,78.72-178.5l.54-.49,148.5,85.33-1.51.87c-27.79,16.06-206.53,119.23-222.26,128.28l-1.28.73h0ZM262.53,348.2l-74.18-42.83v-85.74l74.02-42.75,74.42,42.74v85.75l-74.26,42.83h0ZM262.53,504.43c-24.91,0-49.63-3.86-73.49-11.46l-.69-.22v-170.95l221.44,132.6-1.18.89c-41.73,31.68-93.61,49.13-146.08,49.13h0Z"/>
      </g>
    </g>
  </g>
</svg>