<?xml version="1.0" encoding="UTF-8"?>
<svg id="Layer_2" xmlns="http://www.w3.org/2000/svg" viewBox="0 0 500.49 525">
  <defs>
    <style>
      .cls-1 {
        fill: #00b2ca;
      }
    </style>
  </defs>
  <g id="Layer_2-2" data-name="Layer_2">
    <g id="Tv_Warranty">
      <g>
        <g>
          <path class="cls-1" d="M250.25,512c-5.81,0-11.51-1.51-16.5-4.36C92.97,426.85,16.64,293.71,13.01,122.61c-.17-8.5,3.03-16.54,9-22.63,6.1-6.22,14.61-9.79,23.32-9.79.57,0,1.14.02,1.72.04,6.44.3,12.76.45,18.78.45,72.52,0,121.85-20.48,159.95-66.4,5.99-7.16,14.91-11.28,24.46-11.28s18.52,4.12,24.52,11.3c38.1,45.9,87.43,66.38,159.93,66.38,6.02,0,12.34-.15,18.8-.45.54-.03,1.09-.04,1.63-.04,8.78,0,17.31,3.57,23.41,9.79,5.96,6.09,9.15,14.14,8.98,22.64-3.62,171.09-79.95,304.23-220.74,385.02-4.99,2.85-10.69,4.36-16.49,4.36ZM45.66,91.23c-8.68,0-17.05,3.48-22.97,9.54-5.75,5.89-8.81,13.65-8.62,21.85,3.69,173.12,77.79,302.36,220.25,384.11,4.81,2.77,10.32,4.23,15.93,4.23s11.13-1.47,15.94-4.24c142.45-81.74,216.55-210.97,220.24-384.11.15-8.25-2.94-16.02-8.72-21.9-5.98-6.11-14.11-9.48-22.87-9.48-.46,0-.92,0-1.39.03-6.74.31-13.29.47-19.37.47-36.58,0-67.07-5.33-93.21-16.28-25.84-10.84-47.75-27.35-66.97-50.47-5.79-6.94-14.42-10.91-23.68-10.91s-17.92,3.99-23.64,10.93c-19.21,23.1-41.11,39.61-66.93,50.45-26.12,10.96-56.62,16.28-93.22,16.28-6.15,0-12.7-.16-19.45-.48h-.12c-.4-.02-.8-.02-1.19-.02Z"/>
          <path d="M250.27,6.5h-.05c-11.48,0-22.22,4.97-29.46,13.63-36.75,44.29-84.54,64.05-154.94,64.05-5.96,0-12.19-.15-18.49-.44-.67-.03-1.34-.05-2.01-.05-10.45,0-20.64,4.28-27.96,11.74-7.2,7.35-11.05,17.06-10.85,27.32,3.68,173.51,81.15,308.54,224.02,390.52,5.97,3.42,12.79,5.23,19.73,5.23s13.75-1.81,19.73-5.23c142.87-81.98,220.34-217.02,224.01-390.52.21-10.27-3.64-19.97-10.83-27.32-7.31-7.46-17.54-11.74-28.05-11.74-.63,0-1.28.02-1.93.05-6.32.29-12.55.44-18.5.44-70.4,0-118.19-19.76-154.94-64.05-7.23-8.66-17.97-13.63-29.46-13.63h0ZM66.42,98.23c37.49,0,68.81-5.5,95.74-16.79,26.81-11.25,49.51-28.36,69.43-52.31,4.48-5.45,11.27-8.56,18.62-8.56s14.14,3.12,18.68,8.56c19.91,23.95,42.62,41.06,69.45,52.31,26.94,11.29,58.25,16.79,95.72,16.79,6.36,0,13.01-.17,19.75-.48.34-.02.68-.02,1.01-.02,6.99,0,13.47,2.67,18.23,7.53,4.54,4.62,6.98,10.74,6.86,17.21-3.64,170.7-76.64,298.08-217,378.62-3.82,2.21-8.21,3.37-12.69,3.37s-8.87-1.16-12.7-3.37C97.21,420.55,24.21,293.17,20.57,122.47c-.15-6.45,2.26-12.54,6.77-17.16,4.71-4.82,11.39-7.58,18.32-7.58.33,0,.66,0,1,0,6.75.32,13.4.49,19.76.49h0Z"/>
        </g>
        <g>
          <path class="cls-1" d="M148.55,349.81c-7.16,0-12.98-5.73-12.98-12.77v-126.98c0-7.04,5.82-12.77,12.98-12.77h26.1c5.62,0,10.56,3.64,12.28,9.05l2.42,7.72,7.43-3.29c14.53-6.54,26.65-16.2,36.06-28.73,15.51-20.64,25.04-37.95,29.99-54.46,2.84-9.6,11.8-16.3,21.79-16.3,2.24,0,4.46.33,6.62.98,11.42,3.42,18.12,15.44,15.27,27.37-2.88,12.1-9.43,25.32-20.04,40.41l-8.04,11.42h71.96c10.59,0,19.65,7.77,20.64,17.69.41,4.55-.77,9.14-3.33,12.86l-4.36,6.4,6.64,3.95c6.08,3.55,9.84,10.02,9.84,16.9,0,9.17-6.6,17.25-15.7,19.21l-9.12,1.92,4.14,8.38c1.65,3.28,2.33,6.94,1.98,10.64-.62,6.54-4.98,12.53-11.38,15.61l-7.36,3.49,4.38,6.92c2.25,3.57,3.27,7.89,2.85,12.13-.95,9.94-10.01,17.72-20.64,17.72h-50.63c-27.66,0-55.3-3.65-82.15-10.85l-7.28-1.95-1.67,7.33c-1.36,5.86-6.54,9.97-12.59,9.97h-26.1ZM284.57,112.38c-9.64,0-17.98,6.21-20.76,15.46-4.96,16.67-14.53,34.09-30.12,54.84-10.63,14.13-24.58,24.61-41.48,31.15l-4.64,1.83v115.32l5.3,1.47c27.74,7.82,56.5,11.78,85.45,11.78h50.63c10.11,0,18.7-7.35,19.57-16.74.51-5.25-1.16-10.3-4.69-14.19-3.34-3.67-8.05-5.89-13.03-6.16-.37-.06-.74-.09-1.12-.09h-57.68c-.28,0-.52-.24-.52-.52,0-.22.31-.53.52-.53l68.52.05c10.08,0,18.66-7.38,19.53-16.81.51-5.25-1.16-10.3-4.7-14.19-3.55-3.92-8.65-6.17-13.99-6.17h-59.75c-.29,0-.53-.24-.53-.53s.25-.53.53-.53h78.33c10.38,0,18.82-8.32,18.82-18.56s-8.44-18.56-18.82-18.56h-72.83c-.28,0-.52-.24-.52-.52s.24-.53.52-.53h64.12c5.35,0,10.47-2.26,14.04-6.21,3.54-3.91,5.2-8.95,4.69-14.2-.95-9.38-9.54-16.71-19.57-16.71h-73.56c-.18,0-.38-.13-.46-.3-.08-.18-.05-.43.06-.58,15.76-19.87,25.52-37.45,29.04-52.28,2.71-11.19-3.81-22.9-14.55-26.06-2.03-.62-4.19-.95-6.35-.95Z"/>
          <path d="M174.65,203.8c2.81,0,5.2,1.76,6.08,4.5l.24.76.62,1.99-.51.2v124.68l.36.1-.37,1.62-.16.71c-.7,2.96-3.21,4.95-6.26,4.95h-26.1c-3.57,0-6.48-2.81-6.48-6.27v-126.98c0-3.46,2.91-6.27,6.48-6.27h26.1M284.61,104.8c-12.84,0-24.36,8.61-28.01,20.93-4.72,15.76-13.93,32.41-28.96,52.42-8.75,11.65-20.02,20.63-33.49,26.69l-.77.34-.25-.8c-2.59-8.12-10.01-13.58-18.47-13.58h-26.1c-10.74,0-19.48,8.65-19.48,19.27v126.98c0,10.62,8.74,19.27,19.48,19.27h26.1c9.09,0,16.87-6.18,18.93-15.03l.17-.75.75.2c27.42,7.35,55.62,11.07,83.84,11.07h50.63c13.94,0,25.85-10.36,27.11-23.59.55-5.69-.81-11.44-3.83-16.24l-.45-.71.76-.36c8.44-4.07,14.2-12.06,15.03-20.87.45-4.89-.45-9.78-2.63-14.11l-.43-.87.95-.2c12.07-2.61,20.83-13.36,20.83-25.57,0-9.18-4.98-17.79-13.02-22.49l-.69-.41.45-.66c3.42-4.98,4.99-11.08,4.44-17.19-1.31-13.2-13.22-23.55-27.11-23.55h-59.43l.83-1.18c11.09-15.79,17.97-29.74,21.04-42.63,3.65-15.28-5.01-30.71-19.71-35.1-2.78-.84-5.65-1.26-8.5-1.26h0ZM278.33,337.74c-28.34,0-56.52-3.88-83.72-11.54l-.54-.15v-105.96l.48-.19c18.04-6.98,32.96-18.18,44.33-33.31,16.07-21.38,25.97-39.46,31.15-56.88,1.95-6.48,7.78-10.83,14.53-10.83,1.52,0,3.04.23,4.51.68,7.46,2.2,11.98,10.42,10.06,18.32-3.29,13.88-12.64,30.62-27.79,49.73-1.67,2.1-2.02,5.02-.84,7.45,1.16,2.42,3.64,3.98,6.32,3.98h73.56c6.74,0,12.49,4.76,13.1,10.84.33,3.41-.75,6.68-3.04,9.21-2.35,2.59-5.71,4.07-9.23,4.07h-64.12c-3.87,0-7.02,3.15-7.02,7.03s3.15,7.02,7.02,7.02h72.83c6.79,0,12.32,5.42,12.32,12.06s-5.53,12.06-12.32,12.06h-78.33c-3.87,0-7.03,3.16-7.03,7.03s3.16,7.03,7.03,7.03h59.76c3.5,0,6.85,1.47,9.18,4.04,2.3,2.53,3.37,5.81,3.04,9.23-.56,6.11-6.29,10.9-13.05,10.9-57.58-.04-66.42-.05-68.05-.05h-.47c-3.8,0-7.02,3.22-7.02,7.03s3.15,7.02,7.02,7.02h57.68c.09,0,.19.01.3.06,3.46.05,6.75,1.52,9.05,4.05,2.29,2.52,3.36,5.79,3.03,9.22-.56,6.08-6.31,10.84-13.1,10.84h-50.63Z"/>
        </g>
      </g>
    </g>
  </g>
</svg>