<?xml version="1.0" encoding="UTF-8"?>
<svg id="Layer_2" xmlns="http://www.w3.org/2000/svg" viewBox="0 0 428 525">
  <defs>
    <style>
      .cls-1 {
        fill: #00b2ca;
      }
    </style>
  </defs>
  <g id="Layer_2-2" data-name="Layer_2">
    <g id="Brand">
      <g>
        <g>
          <path class="cls-1" d="M213.88,512c-77.9-.01-147.25-42-180.98-109.59-24.75-49.38-26.48-106.96-4.75-157.97,22.74-53.37,68.12-94,124.49-111.47l5.05-1.61v-59.17c0-.09,0-.18,0-.25.51-.17,1.7-.44,4.23-.44,1.32,0,2.76.07,4.14.14l.51.03c1.45.07,2.94.15,4.35.15s2.56-.07,3.6-.23l6.11-.96v-29.36c0-10.37,6.38-19.54,17.07-24.54,5.22-2.44,11-3.73,16.69-3.73,8.63,0,16.86,2.91,23.18,8.19,10.6,9.07,10.2,18.95,9.73,30.39-.18,4.49-.37,9.05.11,13.65l.53,5.5,5.52.85c1.08.16,2.26.23,3.64.23s2.9-.08,4.35-.15h.15c1.52-.09,3.07-.17,4.52-.17,2.5,0,3.69.26,4.2.43,0,.07,0,.16,0,.25v59.13l5,1.59c56.4,17.47,101.76,58.08,124.5,111.45,21.76,51.05,20.02,108.66-4.75,158.05-33.72,67.6-103.14,109.59-181.18,109.6h-.03ZM215.23,124.38c-19.01,0-38.16,2.67-56.91,7.93-57.63,16.12-104.32,56.22-128.11,110.02-22.75,51.45-21.42,109.62,3.65,159.58,17.22,34.5,43.77,62.8,76.77,81.82,30.9,17.8,66.62,27.22,103.3,27.22s72.5-9.42,103.43-27.23c33.05-19.03,59.6-47.31,76.79-81.77,17.3-34.49,23.69-72.2,18.49-109.05-4.85-34.44-19.53-67.34-42.48-95.16-24.16-29.29-55.85-51.11-91.64-63.09-20.32-6.81-41.62-10.26-63.3-10.26ZM214.04,123.72c15.94,0,31.57,1.74,46.45,5.18l8.79,2.01v-58.2h-110.56v58.2l8.78-2.01c14.94-3.44,30.59-5.18,46.53-5.18Z"/>
          <path d="M214.4,19.5c7.08,0,13.81,2.36,18.96,6.63,7.84,6.73,7.95,13.27,7.46,25.18v.09c-.18,4.4-.38,9.4.13,14.44l.04.37h-53.85v-24.95c0-7.89,4.85-14.69,13.31-18.65,4.37-2.04,9.2-3.12,13.95-3.12h0M214.4,6.5c-6.55,0-13.2,1.43-19.45,4.34-13.03,6.1-20.81,17.46-20.81,30.43v23.8l-.57.09c-.78.12-1.67.16-2.64.16-1.28,0-2.7-.07-4.15-.15-1.59-.08-3.24-.17-4.85-.17-3.6,0-6.98.43-8.94,2.3-1.2,1.14-1.79,2.75-1.79,4.89v54.43l-.47.15c-58.21,18.04-105.05,60-128.54,115.13C-.32,294.68,1.47,354.24,27.08,405.32c34.85,69.82,106.43,113.17,186.8,113.18h.03c80.52-.01,152.17-43.38,186.99-113.18,25.63-51.1,27.43-110.7,4.92-163.51-23.49-55.13-70.33-97.07-128.5-115.09l-.47-.15v-54.38c0-2.16-.59-3.76-1.79-4.9-1.95-1.85-5.33-2.29-8.92-2.29-1.61,0-3.26.09-4.85.17-1.47.07-2.89.15-4.17.15-.97,0-1.87-.04-2.65-.16l-.52-.08-.05-.52c-.43-4.16-.25-8.51-.08-12.71.49-12.04.99-24.48-12.06-35.64-7.66-6.4-17.38-9.71-27.35-9.71h0ZM165.24,122.75v-43.54h97.56v43.54l-.83-.19c-15.44-3.56-31.67-5.35-47.92-5.35s-32.5,1.78-47.98,5.35l-.83.19h0ZM213.94,504.44c-35.55,0-70.15-9.11-100.05-26.35-31.89-18.39-57.56-45.75-74.21-79.11-24.2-48.22-25.48-104.36-3.52-154.04,23-52.01,68.16-90.79,123.92-106.39,18.27-5.13,36.81-7.69,55.15-7.69,20.87,0,41.5,3.31,61.23,9.92,34.64,11.6,65.3,32.71,88.69,61.06,22.17,26.88,36.37,58.67,41.05,91.93,5.01,35.54-1.17,71.94-17.88,105.25-16.62,33.32-42.3,60.65-74.22,79.04-29.95,17.25-64.58,26.37-100.16,26.37h-.02Z"/>
        </g>
        <g>
          <path class="cls-1" d="M255.25,390.45c-6.1,0-12.85-3.88-19.99-7.99l-.21-.12c-4.46-2.56-9.07-5.21-13.88-7.06-2.03-.98-4.26-1.47-6.62-1.47-6.56,0-13.08,3.84-19.98,7.9-7.23,4.26-14.7,8.66-21.66,8.66-3.42,0-6.59-1.1-9.69-3.37-8.83-6.49-7.52-14.72-4.44-28.7,1.13-5.12,2.27-10.31,2.61-15.52,1.39-9.4-6.61-16.32-14.36-23.01-11.25-9.7-18.35-16.83-14.96-27.34,3.44-10.65,12.65-12.07,27.39-13.51,4.99-.48,10.15-.98,14.88-2.18,8.79-1.37,11.74-7.78,15.81-16.6,1.97-4.29,4.43-9.62,8.35-16.66l.13-.25c3-5.99,8.6-9.43,15.37-9.44,6.61,0,12.53,3.62,15.46,9.44l12.42,24.89c4.43,8.82,15.26,9.78,25.72,10.71,14.91,1.33,24.92,3,28.35,13.61,3.37,10.48-3.18,16.91-14.14,26.54l-.1.08c-3.91,3.42-7.6,6.66-10.73,10.38-6.85,6.97-4.42,17.3-2.07,27.29,3.39,14.48,4.81,23.74-4.11,30.28-3.22,2.36-6.26,3.46-9.55,3.46Z"/>
          <path d="M214.02,240.26c4.12,0,7.81,2.25,9.61,5.83l12.45,24.95c6.05,12.04,19.86,13.27,30.97,14.25,15.28,1.37,20.7,2.88,22.72,9.11,1.94,6.05-1.02,9.83-12.25,19.69l-.07.06c-3.86,3.38-7.85,6.88-11.27,10.9-9.15,9.5-6.07,22.59-3.59,33.14,1.32,5.62,2.68,11.44,2.4,15.98-.22,3.53-1.31,5.58-4.02,7.57-2.67,1.95-4.46,2.21-5.72,2.21-4.37,0-10.38-3.46-16.76-7.13l-.2-.11c-4.39-2.52-9.35-5.37-14.54-7.4-2.85-1.33-5.94-2-9.2-2-8.33,0-15.59,4.27-23.28,8.79-6.48,3.81-13.17,7.76-18.36,7.76-1.38,0-3.29-.24-5.83-2.09-4.99-3.67-5.28-6.97-1.96-22.09l.02-.1c1.09-4.94,2.31-10.52,2.71-16.13,1.75-12.78-8.4-21.54-16.61-28.65-11.48-9.91-14.97-14.25-13-20.38,2.01-6.21,6.71-7.57,21.82-9.05,5.15-.5,10.46-1.01,15.59-2.28,11.99-2.02,16.26-11.28,20.4-20.26,1.93-4.18,4.32-9.39,8.12-16.22l.14-.25.13-.25c1.89-3.77,5.28-5.85,9.55-5.85h.03M214.02,227.26h-.03c-9.18.01-17.09,4.88-21.17,13.03-4,7.19-6.54,12.68-8.57,17.1-3.86,8.37-5.62,12.19-11.2,12.94-4.29,1.13-9.12,1.6-14.23,2.1-13.78,1.34-28.01,2.74-32.94,17.99-4.95,15.38,6.64,25.39,16.87,34.23,7.09,6.13,13.22,11.42,12.17,17.4-.28,4.83-1.4,9.92-2.49,14.84-2.95,13.38-5.72,26.03,6.95,35.35,4.54,3.32,9.07,4.62,13.53,4.62,8.72,0,17.18-4.98,24.96-9.55,6.29-3.7,11.9-7,16.68-7,1.41,0,2.75.28,4.01.93,4.5,1.7,9.05,4.33,13.45,6.86,7.84,4.51,15.39,8.86,23.24,8.86,4.35,0,8.78-1.33,13.4-4.72,13.03-9.55,9.61-24.14,6.6-37.01-2.15-9.12-3.99-17,.54-21.4,2.87-3.45,6.48-6.61,10.3-9.95,10.28-9.02,20.91-18.35,16.06-33.44-5.01-15.51-20.39-16.87-33.97-18.09-9.49-.84-17.68-1.57-20.48-7.14l-12.43-24.91c-4.04-8.03-12.18-13.02-21.24-13.02h0Z"/>
        </g>
      </g>
    </g>
  </g>
</svg>