<?xml version="1.0" encoding="UTF-8"?>
<svg id="Layer_2" xmlns="http://www.w3.org/2000/svg" viewBox="0 0 554.39 518.5">
  <defs>
    <style>
      .cls-1 {
        fill: #00b2ca;
      }
    </style>
  </defs>
  <g id="Layer_2-2" data-name="Layer_2">
    <g id="Connectivity_Options">
      <g>
        <g>
          <path class="cls-1" d="M468.29,389.81c-.16,0-.29-.05-.4-.16-.2-.2-.2-.57.02-.79,50.86-50.86,78.87-118.59,78.87-190.7,0-72.12-28.01-139.85-78.87-190.71-.22-.22-.22-.57,0-.79.04-.04.16-.16.39-.16.16,0,.29.05.4.16,51.07,51.07,79.19,119.07,79.19,191.49,0,72.43-28.14,140.44-79.2,191.5-.1.1-.23.15-.39.15Z"/>
          <path d="M468.3.01c-1.81,0-3.61.68-4.98,2.06-2.75,2.75-2.75,7.23,0,9.98,102.62,102.62,102.62,269.6-.01,372.23-2.74,2.75-2.74,7.23,0,9.98,1.38,1.37,3.18,2.06,4.99,2.06s3.61-.69,4.99-2.06c52.3-52.3,81.1-121.94,81.11-196.1,0-74.15-28.8-143.79-81.1-196.09-1.38-1.38-3.19-2.06-4.99-2.06h0Z"/>
        </g>
        <g>
          <path class="cls-1" d="M211.96,505.5c-7.37,0-14.1-3.4-18.45-9.32-4.35-5.92-5.6-13.33-3.41-20.34l61.42-197.42,2.11-6.7-6.49-2.74c-28.48-12.09-46.89-39.89-46.89-70.82,0-42.43,34.52-76.95,76.95-76.95s76.94,34.52,76.94,76.95c0,30.91-18.44,58.71-46.97,70.82l-6.46,2.73,63.51,204.12c2.19,7.01.95,14.42-3.4,20.35-4.35,5.92-11.08,9.32-18.45,9.32h-130.42ZM277.21,122.33c-41.81,0-75.83,34.02-75.83,75.83s34.02,75.83,75.83,75.83,75.83-34.02,75.83-75.83-34.02-75.83-75.83-75.83Z"/>
          <path d="M258.38,278.31c6.05,1.42,12.35,2.17,18.83,2.17s12.73-.75,18.76-2.16l.29.94,61.77,198.51c1.59,5.08.72,10.25-2.43,14.55-3.17,4.3-7.86,6.67-13.21,6.67h-130.42c-5.36,0-10.05-2.37-13.21-6.67-3.16-4.3-4.02-9.46-2.43-14.56l61.41-197.37.34-1.08.31-.99M277.21,114.71c-46.01,0-83.45,37.43-83.45,83.45,0,33.53,19.97,63.69,50.86,76.81l1.05.44-.34,1.09-61.42,197.41c-2.81,9-1.22,18.53,4.37,26.13,5.59,7.61,14.23,11.97,23.69,11.97h130.42c9.46,0,18.09-4.36,23.69-11.97,5.59-7.61,7.19-17.12,4.37-26.13l-61.76-198.5,1.05-.44c30.94-13.13,50.93-43.29,50.93-76.81,0-46.01-37.43-83.45-83.44-83.45h0ZM277.21,267.49c-38.23,0-69.33-31.1-69.33-69.33s31.1-69.33,69.33-69.33,69.33,31.1,69.33,69.33-31.1,69.33-69.33,69.33h0Z"/>
        </g>
        <g>
          <path class="cls-1" d="M86.08,389.81c-.16,0-.28-.05-.41-.17-105.57-105.57-105.57-277.38.02-382.98.15-.15.29-.17.39-.17.11,0,.25.02.42.18.19.19.19.56-.03.78C35.62,58.31,7.61,126.04,7.61,198.16s28.01,139.85,78.87,190.71c.21.21.21.58,0,.8-.1.1-.22.15-.39.15Z"/>
          <path d="M86.08,0c-1.88,0-3.65.74-4.98,2.07-108.13,108.13-108.13,284.06,0,392.19,1.34,1.33,3.11,2.06,4.98,2.06s3.66-.73,4.99-2.06c2.74-2.75,2.74-7.23,0-9.98C-11.55,281.66-11.55,114.67,91.07,12.05c2.74-2.75,2.74-7.23,0-9.98-1.34-1.33-3.11-2.07-4.99-2.07h0Z"/>
        </g>
        <g>
          <path class="cls-1" d="M422.59,344.12c-.16,0-.28-.05-.4-.17-.11-.11-.17-.24-.17-.39,0-.11.02-.25.18-.42,79.94-79.94,79.94-210.04,0-290.01-.12-.12-.17-.24-.17-.39,0-.16.05-.28.17-.4.11-.11.23-.16.39-.16s.28.05.39.16c38.88,38.88,60.29,90.66,60.29,145.8,0,27.44-5.24,54.02-15.57,79-10.31,24.95-25.36,47.42-44.73,66.79-.12.12-.23.17-.39.17Z"/>
          <path d="M422.59,45.7c-1.88,0-3.66.73-4.98,2.06-1.34,1.34-2.07,3.1-2.07,4.99s.73,3.66,2.07,4.98c77.42,77.43,77.42,203.4-.01,280.83-1.33,1.34-2.07,3.11-2.07,4.99s.74,3.66,2.07,4.98c1.34,1.34,3.11,2.07,4.99,2.07s3.65-.73,4.98-2.07c20.05-20.06,35.6-43.43,46.14-68.91,10.53-25.47,16.06-53.05,16.06-81.49,0-56.88-22.09-110.29-62.19-150.39-1.33-1.33-3.1-2.06-4.98-2.06h0Z"/>
        </g>
        <g>
          <path class="cls-1" d="M131.79,344.12c-.15,0-.29-.05-.39-.16-80.39-80.39-80.39-211.2,0-291.59.1-.1.23-.16.39-.16.24,0,.36.12.4.16.22.22.22.57,0,.79-38.68,38.68-59.98,90.17-59.98,145s21.3,106.34,59.98,145.01c.22.22.22.57,0,.79-.11.11-.24.16-.39.16Z"/>
          <path d="M131.78,45.71c-1.8,0-3.61.68-4.98,2.06-82.93,82.93-82.93,217.85,0,300.78,1.38,1.38,3.18,2.06,4.99,2.06s3.61-.69,4.99-2.06c2.75-2.75,2.75-7.23,0-9.98-37.44-37.44-58.07-87.31-58.07-140.42s20.63-102.96,58.07-140.41c2.75-2.75,2.75-7.23,0-9.98-1.38-1.38-3.19-2.06-4.99-2.06h0Z"/>
        </g>
        <g>
          <path class="cls-1" d="M376.89,298.42c-.2,0-.31-.08-.37-.15-.14-.14-.18-.25-.18-.41,0-.16.05-.28.17-.4,26.48-26.48,41.06-61.75,41.06-99.31s-14.58-72.83-41.06-99.31c-.12-.12-.17-.23-.17-.4,0-.16.05-.27.17-.39.12-.12.23-.17.39-.17.16,0,.28.05.4.17,26.7,26.7,41.4,62.24,41.4,100.09s-14.71,73.4-41.41,100.09c-.12.12-.23.17-.39.17Z"/>
          <path d="M376.89,91.4c-1.88,0-3.65.73-4.98,2.07s-2.07,3.1-2.07,4.98.73,3.66,2.07,4.99c25.25,25.25,39.16,58.89,39.16,94.71s-13.91,69.46-39.16,94.71c-1.34,1.34-2.07,3.11-2.07,4.99s.73,3.66,2.07,4.98c1.33,1.34,3.1,2.07,4.98,2.07s3.66-.73,4.98-2.07c27.93-27.92,43.31-65.1,43.31-104.69s-15.38-76.76-43.3-104.69c-1.34-1.34-3.11-2.07-4.99-2.07h0Z"/>
        </g>
        <g>
          <path class="cls-1" d="M177.49,298.41c-.15,0-.28-.05-.38-.15-26.7-26.69-41.41-62.24-41.41-100.1s14.7-73.4,41.4-100.09c.13-.13.28-.16.39-.16s.26.03.39.16c.12.12.17.23.17.4,0,.2-.08.31-.15.37-26.5,26.51-41.08,61.78-41.08,99.33s14.58,72.84,41.07,99.31c.22.22.22.57,0,.79-.11.11-.24.16-.39.16Z"/>
          <path d="M177.49,91.41c-1.81,0-3.62.69-4.98,2.06-27.93,27.93-43.3,65.11-43.3,104.69s15.38,76.77,43.3,104.69c1.37,1.38,3.18,2.07,4.98,2.07s3.61-.69,4.98-2.07c2.75-2.75,2.75-7.23,0-9.98-25.25-25.24-39.16-58.89-39.16-94.71s13.91-69.45,39.16-94.71c1.34-1.33,2.07-3.1,2.07-4.98s-.73-3.66-2.07-4.99-3.18-2.06-4.98-2.06h0Z"/>
        </g>
      </g>
    </g>
  </g>
</svg>