<?xml version="1.0" encoding="UTF-8"?>
<svg id="Layer_2" xmlns="http://www.w3.org/2000/svg" viewBox="0 0 516.38 518.5">
  <defs>
    <style>
      .cls-1 {
        fill: #00b2ca;
      }
    </style>
  </defs>
  <g id="Layer_2-2" data-name="Layer_2">
    <g id="Brand">
      <g>
        <g>
          <path class="cls-1" d="M356.06,505.5c-8.29,0-15.04-6.75-15.04-15.05v-24.73h-165.65v24.73c0,8.3-6.75,15.05-15.05,15.05h-59.13c-8.3,0-15.05-6.75-15.05-15.05v-24.73h-34.89c-21.09,0-38.24-17.15-38.24-38.23v-91.5c0-21.08,17.15-38.23,38.24-38.23h217.11V46.46c0-14.59,11.87-26.47,26.47-26.47s26.41,11.87,26.41,26.47v251.3h143.87c10.24,0,19.85,3.98,27.08,11.2,7.23,7.22,11.22,16.82,11.22,27.03v91.5c0,21.08-17.18,38.23-38.29,38.23h-34.84v24.73c0,8.3-6.75,15.05-15.05,15.05h-59.13ZM51.24,298.8c-20.5,0-37.18,16.68-37.18,37.18v91.5c0,20.5,16.68,37.18,37.18,37.18h413.85c20.53,0,37.23-16.68,37.23-37.18v-91.5c0-20.5-16.7-37.18-37.23-37.18-117.04.04-163.17.05-185.63.05-12.1,0-17.33,0-23.08,0h-2.26c-16.17-.02-43.86-.04-202.88-.04ZM269.41,297.75h50.76V102.64h-50.76v195.11Z"/>
          <path d="M294.81,26.49c10.98,0,19.91,8.96,19.91,19.97v49.68h-39.87v-49.68c0-11.01,8.96-19.97,19.97-19.97M423.75,471.16v19.28c0,4.72-3.84,8.55-8.55,8.55h-59.13c-4.71,0-8.54-3.84-8.54-8.55v-19.28h76.23M168.87,471.16v19.28c0,4.72-3.84,8.55-8.55,8.55h-59.13c-4.72,0-8.55-3.84-8.55-8.55v-19.28h76.24M294.81,13.49c-18.17,0-32.97,14.79-32.97,32.97v244.8H51.24c-24.67,0-44.74,20.07-44.74,44.73v91.5c0,24.66,20.07,44.73,44.74,44.73h28.39v18.23c0,11.88,9.67,21.55,21.55,21.55h59.13c11.88,0,21.55-9.67,21.55-21.55v-18.23h152.65v18.23c0,11.88,9.67,21.55,21.54,21.55h59.13c11.88,0,21.55-9.67,21.55-21.55v-18.23h28.34c24.7,0,44.79-20.07,44.79-44.73v-91.5c0-11.95-4.66-23.18-13.12-31.62-8.45-8.46-19.71-13.11-31.67-13.11h-137.37V46.46c0-18.17-14.76-32.97-32.91-32.97h0ZM275.91,291.25V109.14h37.76v182.11h-37.76ZM279.46,305.35c22.46,0,68.59-.01,185.63-.05,16.95,0,30.74,13.76,30.74,30.68v91.5c-.01,16.92-13.79,30.68-30.74,30.68H51.24c-16.92,0-30.68-13.76-30.68-30.68v-91.5c0-16.92,13.76-30.68,30.68-30.68,161.84,0,187.53.02,202.87.04,6.78,0,11.68,0,25.34,0h0Z"/>
        </g>
        <g>
          <path class="cls-1" d="M136.77,418.83c-20.48,0-37.15-16.64-37.15-37.1s16.67-37.04,37.15-37.04,37.04,16.61,37.04,37.04-16.62,37.1-37.04,37.1Z"/>
          <path d="M136.77,351.19c16.84,0,30.54,13.7,30.54,30.54s-13.7,30.6-30.54,30.6-30.65-13.73-30.65-30.6,13.75-30.54,30.65-30.54M136.77,338.19c-24.07,0-43.65,19.54-43.65,43.54s19.58,43.6,43.65,43.6,43.54-19.56,43.54-43.6-19.53-43.54-43.54-43.54h0Z"/>
        </g>
        <g>
          <path class="cls-1" d="M258.25,418.83c-20.48,0-37.15-16.64-37.15-37.1s16.66-37.04,37.15-37.04,37.04,16.61,37.04,37.04-16.62,37.1-37.04,37.1Z"/>
          <path d="M258.25,351.19c16.84,0,30.54,13.7,30.54,30.54s-13.7,30.6-30.54,30.6-30.65-13.73-30.65-30.6,13.75-30.54,30.65-30.54M258.25,338.19c-24.07,0-43.65,19.54-43.65,43.54s19.58,43.6,43.65,43.6,43.54-19.56,43.54-43.6-19.53-43.54-43.54-43.54h0Z"/>
        </g>
        <g>
          <path class="cls-1" d="M379.72,418.83c-20.48,0-37.15-16.64-37.15-37.1s16.66-37.04,37.15-37.04,37.04,16.61,37.04,37.04-16.62,37.1-37.04,37.1Z"/>
          <path d="M379.72,351.19c16.84,0,30.54,13.7,30.54,30.54s-13.7,30.6-30.54,30.6-30.65-13.73-30.65-30.6,13.75-30.54,30.65-30.54M379.72,338.19c-24.07,0-43.65,19.54-43.65,43.54s19.58,43.6,43.65,43.6,43.54-19.56,43.54-43.6-19.53-43.54-43.54-43.54h0Z"/>
        </g>
        <g>
          <path class="cls-1" d="M144.59,223.65c-.22,0-.33-.11-.37-.15-28.92-28.91-44.84-67.42-44.84-108.43s15.92-79.51,44.84-108.43c.13-.13.29-.15.37-.15.23,0,.35.13.4.17.11.11.14.23.14.36,0,.15-.05.26-.15.37-59.37,59.38-59.37,155.99,0,215.36.1.1.15.22.15.38s-.05.26-.15.37c-.1.1-.23.15-.38.15Z"/>
          <path d="M144.58,0c-1.8,0-3.6.69-4.96,2.06-62.32,62.32-62.32,163.72,0,226.04,1.37,1.37,3.17,2.05,4.97,2.05s3.6-.68,4.97-2.05c1.32-1.32,2.06-3.09,2.06-4.96s-.73-3.64-2.06-4.97c-56.84-56.84-56.84-149.32,0-206.16,1.32-1.32,2.06-3.09,2.06-4.96s-.73-3.64-2.06-4.97c-1.37-1.36-3.17-2.06-4.97-2.06h0Z"/>
        </g>
        <g>
          <path class="cls-1" d="M175.3,192.94c-.22,0-.33-.11-.37-.15-20.73-20.72-32.14-48.32-32.14-77.71s11.42-56.99,32.15-77.72c.13-.13.29-.15.37-.15.23,0,.35.13.4.17.08.09.13.2.13.36s-.05.26-.15.37c-20.53,20.52-31.83,47.85-31.83,76.97s11.3,56.45,31.83,76.97c.1.1.15.22.15.38s-.05.26-.15.37c-.1.1-.23.15-.38.15Z"/>
          <path d="M175.29,30.71c-1.8,0-3.6.69-4.96,2.06-21.95,21.95-34.05,51.18-34.05,82.31s12.1,60.37,34.05,82.31c1.37,1.37,3.17,2.05,4.97,2.05s3.6-.68,4.97-2.05c1.32-1.32,2.06-3.09,2.06-4.96s-.73-3.64-2.06-4.97c-19.31-19.3-29.93-45-29.93-72.37s10.62-53.08,29.93-72.37c1.32-1.32,2.06-3.09,2.06-4.96s-.73-3.64-2.06-4.97c-1.37-1.36-3.17-2.06-4.97-2.06h0Z"/>
        </g>
        <g>
          <path class="cls-1" d="M206.01,162.24c-.15,0-.27-.05-.37-.15-12.54-12.53-19.45-29.23-19.45-47.01s6.91-34.47,19.45-47c.13-.13.29-.15.37-.15.23,0,.35.13.4.17.08.08.14.21.14.36s-.05.26-.15.37c-12.34,12.34-19.13,28.77-19.13,46.26s6.79,33.93,19.13,46.27c.11.11.15.22.15.37s-.05.26-.15.37c-.04.04-.15.15-.37.15Z"/>
          <path d="M206,61.42c-1.8,0-3.6.69-4.96,2.06-13.77,13.76-21.35,32.09-21.35,51.6s7.58,37.84,21.35,51.6c1.37,1.37,3.17,2.06,4.97,2.06s3.6-.68,4.97-2.06c1.32-1.32,2.06-3.09,2.06-4.96s-.73-3.64-2.06-4.96c-11.11-11.11-17.23-25.92-17.23-41.67s6.12-30.55,17.23-41.66c1.32-1.32,2.06-3.09,2.06-4.96s-.73-3.64-2.06-4.97c-1.37-1.36-3.17-2.06-4.97-2.06h0Z"/>
        </g>
        <g>
          <path class="cls-1" d="M236.71,131.52c-.15,0-.28-.05-.39-.16-4.34-4.35-6.74-10.15-6.72-16.29,0-6.16,2.39-11.94,6.74-16.29.04-.04.15-.15.38-.15.1,0,.24.02.35.14.14.13.18.24.18.38,0,.15-.04.26-.15.36-4.17,4.18-6.45,9.7-6.45,15.55s2.29,11.41,6.44,15.56c.11.11.16.23.16.38s-.04.25-.15.35c-.12.12-.24.17-.39.17Z"/>
          <path d="M236.71,92.13c-1.8,0-3.6.68-4.97,2.06-5.58,5.58-8.65,12.99-8.65,20.87-.02,7.9,3.06,15.32,8.65,20.92,1.37,1.36,3.17,2.04,4.97,2.04s3.6-.68,4.97-2.05c1.33-1.32,2.07-3.09,2.07-4.96s-.73-3.64-2.07-4.97c-2.93-2.93-4.53-6.82-4.53-10.96s1.61-8.01,4.53-10.94c1.33-1.32,2.07-3.09,2.07-4.98s-.73-3.64-2.07-4.96c-1.36-1.37-3.17-2.06-4.96-2.06h0Z"/>
        </g>
        <g>
          <path class="cls-1" d="M444.95,223.65c-.15,0-.27-.05-.37-.15-.12-.12-.16-.22-.16-.37,0-.13.03-.24.16-.38,28.72-28.73,44.53-66.97,44.53-107.68s-15.81-78.95-44.53-107.68c-.12-.12-.16-.22-.16-.37s.05-.26.16-.38c.13-.13.29-.15.37-.15.15,0,.28.06.4.17,28.89,28.9,44.82,67.41,44.82,108.41,0,20.41-3.89,40.18-11.57,58.76-7.67,18.56-18.86,35.27-33.26,49.67-.1.1-.22.15-.37.15Z"/>
          <path d="M444.94,0c-1.8,0-3.6.69-4.96,2.06-1.33,1.33-2.07,3.1-2.07,4.97s.73,3.64,2.07,4.96c27.48,27.49,42.62,64.1,42.62,103.08s-15.14,75.59-42.62,103.08c-1.33,1.33-2.07,3.09-2.07,4.97s.73,3.64,2.07,4.96c1.37,1.37,3.17,2.05,4.97,2.05s3.6-.68,4.97-2.05c15.06-15.06,26.76-32.64,34.67-51.78,7.91-19.15,12.07-39.87,12.07-61.24,0-42.74-16.6-82.87-46.74-113.02-1.37-1.36-3.17-2.06-4.97-2.06h0Z"/>
        </g>
        <g>
          <path class="cls-1" d="M414.24,192.94c-.15,0-.27-.05-.37-.15-.1-.1-.15-.22-.15-.37s.05-.28.17-.4c20.51-20.51,31.82-47.84,31.82-76.95s-11.31-56.44-31.83-76.97c-.1-.1-.15-.22-.15-.37,0-.14.03-.25.17-.4,0,0,.13-.13.36-.13.08,0,.24.02.37.15,42.85,42.86,42.85,112.58,0,155.43-.1.1-.22.15-.37.15Z"/>
          <path d="M414.24,30.71c-1.81,0-3.6.69-4.97,2.06-1.32,1.33-2.06,3.09-2.06,4.97s.73,3.64,2.06,4.96c39.91,39.91,39.91,104.84,0,144.74-1.32,1.33-2.06,3.1-2.06,4.97s.73,3.64,2.06,4.96,3.17,2.05,4.97,2.05,3.6-.68,4.97-2.05c45.38-45.38,45.38-119.23,0-164.62-1.36-1.36-3.17-2.06-4.96-2.06h0Z"/>
        </g>
        <g>
          <path class="cls-1" d="M383.52,162.24c-.21,0-.33-.12-.37-.16-.11-.11-.15-.22-.15-.37s.05-.26.15-.37c12.34-12.34,19.13-28.77,19.13-46.27s-6.79-33.92-19.13-46.26c-.11-.11-.15-.22-.15-.37s.05-.28.17-.4c0,0,.14-.14.36-.14.1,0,.25.03.39.17,12.52,12.52,19.42,29.21,19.42,46.99s-6.9,34.47-19.44,47c-.04.04-.16.16-.38.16Z"/>
          <path d="M383.53,61.42c-1.81,0-3.6.69-4.97,2.06-1.32,1.33-2.06,3.1-2.06,4.97s.73,3.64,2.06,4.96c11.11,11.11,17.23,25.91,17.23,41.66s-6.12,30.56-17.23,41.67c-1.32,1.32-2.06,3.09-2.06,4.96s.73,3.64,2.06,4.96,3.17,2.07,4.96,2.07,3.6-.69,4.97-2.07c13.76-13.76,21.34-32.08,21.34-51.6s-7.58-37.84-21.34-51.6c-1.37-1.36-3.17-2.06-4.96-2.06h0Z"/>
        </g>
        <g>
          <path class="cls-1" d="M352.82,131.52c-.23,0-.34-.11-.38-.15-.1-.1-.15-.22-.15-.37,0-.16.05-.27.15-.38,4.14-4.14,6.43-9.66,6.45-15.52,0-5.89-2.29-11.42-6.45-15.57-.11-.11-.15-.22-.15-.38,0-.15.05-.26.15-.37.04-.04.15-.15.37-.15s.34.11.38.15c4.36,4.36,6.76,10.15,6.75,16.31,0,6.16-2.41,11.95-6.75,16.29-.12.12-.28.14-.37.14Z"/>
          <path d="M352.81,92.13c-1.8,0-3.59.68-4.96,2.06s-2.06,3.09-2.06,4.96.73,3.65,2.06,4.98c2.93,2.93,4.54,6.82,4.54,10.96-.01,4.14-1.62,8.02-4.54,10.94-1.32,1.32-2.06,3.09-2.06,4.97s.73,3.64,2.06,4.96c1.37,1.37,3.17,2.06,4.97,2.06s3.6-.68,4.96-2.05c5.58-5.58,8.65-12.99,8.66-20.88s-3.07-15.32-8.66-20.91c-1.37-1.37-3.17-2.06-4.97-2.06h0Z"/>
        </g>
      </g>
    </g>
  </g>
</svg>