<?xml version="1.0" encoding="UTF-8"?>
<svg id="Layer_2" xmlns="http://www.w3.org/2000/svg" viewBox="0 0 525 491.51">
  <defs>
    <style>
      .cls-1 {
        fill: #00b2ca;
      }
    </style>
  </defs>
  <g id="Layer_2-2" data-name="Layer_2">
    <g id="CCTV_Systems">
      <g>
        <g>
          <path class="cls-1" d="M434.12,130.79c-11.93,0-21.63-9.8-21.63-21.84s9.7-21.84,21.63-21.84c5.75,0,11.17,2.27,15.24,6.38,4.09,4.13,6.35,9.62,6.35,15.46,0,12.04-9.68,21.84-21.58,21.84ZM434.12,88.16c-11.35,0-20.58,9.33-20.58,20.79s9.23,20.79,20.58,20.79,20.53-9.33,20.53-20.79-9.21-20.79-20.53-20.79Z"/>
          <path d="M434.12,80.61c-15.52,0-28.13,12.72-28.13,28.34,0-15.63,12.62-28.34,28.13-28.34,7.49,0,14.55,2.95,19.86,8.31,5.31,5.36,8.22,12.48,8.22,20.03,0-7.55-2.92-14.67-8.22-20.03-5.31-5.37-12.37-8.31-19.86-8.31h0ZM434.12,80.61c-15.52,0-28.13,12.72-28.13,28.34,0-15.63,12.62-28.34,28.13-28.34,7.49,0,14.55,2.95,19.86,8.31,5.31,5.36,8.22,12.48,8.22,20.03,0-7.55-2.92-14.67-8.22-20.03-5.31-5.37-12.37-8.31-19.86-8.31h0ZM434.12,80.61c-15.52,0-28.13,12.72-28.13,28.34,0-15.63,12.62-28.34,28.13-28.34,7.49,0,14.55,2.95,19.86,8.31,5.31,5.36,8.22,12.48,8.22,20.03,0-7.55-2.92-14.67-8.22-20.03-5.31-5.37-12.37-8.31-19.86-8.31h0ZM434.12,80.61c-15.52,0-28.13,12.72-28.13,28.34,0-15.63,12.62-28.34,28.13-28.34,7.49,0,14.55,2.95,19.86,8.31,5.31,5.36,8.22,12.48,8.22,20.03,0-7.55-2.92-14.67-8.22-20.03-5.31-5.37-12.37-8.31-19.86-8.31h0ZM434.12,80.61c-15.52,0-28.13,12.72-28.13,28.34,0-15.63,12.62-28.34,28.13-28.34,7.49,0,14.55,2.95,19.86,8.31,5.31,5.36,8.22,12.48,8.22,20.03,0-7.55-2.92-14.67-8.22-20.03-5.31-5.37-12.37-8.31-19.86-8.31h0ZM434.12,80.61c-15.52,0-28.13,12.72-28.13,28.34,0-15.63,12.62-28.34,28.13-28.34,7.49,0,14.55,2.95,19.86,8.31,5.31,5.36,8.22,12.48,8.22,20.03,0-7.55-2.92-14.67-8.22-20.03-5.31-5.37-12.37-8.31-19.86-8.31h0ZM434.12,80.61c-15.52,0-28.13,12.72-28.13,28.34,0-15.63,12.62-28.34,28.13-28.34,7.49,0,14.55,2.95,19.86,8.31,5.31,5.36,8.22,12.48,8.22,20.03,0-7.55-2.92-14.67-8.22-20.03-5.31-5.37-12.37-8.31-19.86-8.31h0ZM434.12,80.61c-15.52,0-28.13,12.72-28.13,28.34,0-15.63,12.62-28.34,28.13-28.34,7.49,0,14.55,2.95,19.86,8.31,5.31,5.36,8.22,12.48,8.22,20.03,0-7.55-2.92-14.67-8.22-20.03-5.31-5.37-12.37-8.31-19.86-8.31h0ZM434.12,80.61c-15.52,0-28.13,12.72-28.13,28.34,0-15.63,12.62-28.34,28.13-28.34,7.49,0,14.55,2.95,19.86,8.31,5.31,5.36,8.22,12.48,8.22,20.03,0-7.55-2.92-14.67-8.22-20.03-5.31-5.37-12.37-8.31-19.86-8.31h0ZM434.12,94.66c-7.76,0-14.08,6.41-14.08,14.29,0-7.88,6.32-14.29,14.08-14.29s14.03,6.41,14.03,14.29c0-7.88-6.29-14.29-14.03-14.29h0ZM434.12,94.66c-7.76,0-14.08,6.41-14.08,14.29,0-7.88,6.32-14.29,14.08-14.29s14.03,6.41,14.03,14.29c0-7.88-6.29-14.29-14.03-14.29h0ZM434.12,94.66c-7.76,0-14.08,6.41-14.08,14.29,0-7.88,6.32-14.29,14.08-14.29s14.03,6.41,14.03,14.29c0-7.88-6.29-14.29-14.03-14.29h0ZM434.12,94.66c-7.76,0-14.08,6.41-14.08,14.29,0-7.88,6.32-14.29,14.08-14.29s14.03,6.41,14.03,14.29c0-7.88-6.29-14.29-14.03-14.29h0ZM434.12,94.66c-7.76,0-14.08,6.41-14.08,14.29,0-7.88,6.32-14.29,14.08-14.29s14.03,6.41,14.03,14.29c0-7.88-6.29-14.29-14.03-14.29h0ZM434.12,94.66c-7.76,0-14.08,6.41-14.08,14.29,0-7.88,6.32-14.29,14.08-14.29s14.03,6.41,14.03,14.29c0-7.88-6.29-14.29-14.03-14.29h0ZM434.12,94.66c-7.76,0-14.08,6.41-14.08,14.29,0-7.88,6.32-14.29,14.08-14.29s14.03,6.41,14.03,14.29c0-7.88-6.29-14.29-14.03-14.29h0ZM434.12,94.66c-7.76,0-14.08,6.41-14.08,14.29,0-7.88,6.32-14.29,14.08-14.29s14.03,6.41,14.03,14.29c0-7.88-6.29-14.29-14.03-14.29h0ZM434.12,94.66c-7.76,0-14.08,6.41-14.08,14.29,0-7.88,6.32-14.29,14.08-14.29s14.03,6.41,14.03,14.29c0-7.88-6.29-14.29-14.03-14.29h0ZM462.2,108.95c0,15.64-12.6,28.34-28.08,28.34s-28.13-12.71-28.13-28.34c0,15.64,12.62,28.34,28.13,28.34s28.08-12.71,28.08-28.34h0ZM462.2,108.95c0,15.64-12.6,28.34-28.08,28.34s-28.13-12.71-28.13-28.34c0,15.64,12.62,28.34,28.13,28.34s28.08-12.71,28.08-28.34h0ZM462.2,108.95c0,15.64-12.6,28.34-28.08,28.34s-28.13-12.71-28.13-28.34c0,15.64,12.62,28.34,28.13,28.34s28.08-12.71,28.08-28.34h0ZM462.2,108.95c0,15.64-12.6,28.34-28.08,28.34s-28.13-12.71-28.13-28.34c0,15.64,12.62,28.34,28.13,28.34s28.08-12.71,28.08-28.34h0ZM462.2,108.95c0,15.64-12.6,28.34-28.08,28.34s-28.13-12.71-28.13-28.34c0,15.64,12.62,28.34,28.13,28.34s28.08-12.71,28.08-28.34h0ZM462.2,108.95c0,15.64-12.6,28.34-28.08,28.34s-28.13-12.71-28.13-28.34c0,15.64,12.62,28.34,28.13,28.34s28.08-12.71,28.08-28.34h0ZM462.2,108.95c0,15.64-12.6,28.34-28.08,28.34s-28.13-12.71-28.13-28.34c0,15.64,12.62,28.34,28.13,28.34s28.08-12.71,28.08-28.34h0ZM462.2,108.95c0,15.64-12.6,28.34-28.08,28.34s-28.13-12.71-28.13-28.34c0,15.64,12.62,28.34,28.13,28.34s28.08-12.71,28.08-28.34h0ZM462.2,108.95c0,15.64-12.6,28.34-28.08,28.34s-28.13-12.71-28.13-28.34c0,15.64,12.62,28.34,28.13,28.34s28.08-12.71,28.08-28.34h0ZM448.15,108.95c0,7.88-6.29,14.29-14.03,14.29s-14.08-6.41-14.08-14.29c0,7.88,6.32,14.29,14.08,14.29s14.03-6.41,14.03-14.29h0ZM448.15,108.95c0,7.88-6.29,14.29-14.03,14.29s-14.08-6.41-14.08-14.29c0,7.88,6.32,14.29,14.08,14.29s14.03-6.41,14.03-14.29h0ZM448.15,108.95c0,7.88-6.29,14.29-14.03,14.29s-14.08-6.41-14.08-14.29c0,7.88,6.32,14.29,14.08,14.29s14.03-6.41,14.03-14.29h0ZM448.15,108.95c0,7.88-6.29,14.29-14.03,14.29s-14.08-6.41-14.08-14.29c0,7.88,6.32,14.29,14.08,14.29s14.03-6.41,14.03-14.29h0ZM448.15,108.95c0,7.88-6.29,14.29-14.03,14.29s-14.08-6.41-14.08-14.29c0,7.88,6.32,14.29,14.08,14.29s14.03-6.41,14.03-14.29h0ZM448.15,108.95c0,7.88-6.29,14.29-14.03,14.29s-14.08-6.41-14.08-14.29c0,7.88,6.32,14.29,14.08,14.29s14.03-6.41,14.03-14.29h0ZM448.15,108.95c0,7.88-6.29,14.29-14.03,14.29s-14.08-6.41-14.08-14.29c0,7.88,6.32,14.29,14.08,14.29s14.03-6.41,14.03-14.29h0ZM448.15,108.95c0,7.88-6.29,14.29-14.03,14.29s-14.08-6.41-14.08-14.29c0,7.88,6.32,14.29,14.08,14.29s14.03-6.41,14.03-14.29h0ZM448.15,108.95c0,7.88-6.29,14.29-14.03,14.29s-14.08-6.41-14.08-14.29c0,7.88,6.32,14.29,14.08,14.29s14.03-6.41,14.03-14.29h0Z"/>
        </g>
        <g>
          <path class="cls-1" d="M45.26,478.51c-17.79,0-32.26-14.57-32.26-32.47v-130.91c0-17.91,14.47-32.48,32.26-32.48h18.05c17.76,0,32.21,14.57,32.21,32.48v29.3h115.34v-121.46l-61.56-8.43c-17.51-2.41-29.83-18.74-27.46-36.4l.75-5.56q.67-4.92,7.16-53.53l10.45-78.16c1.21-8.61,5.7-16.24,12.64-21.46,5.58-4.2,12.17-6.42,19.06-6.42,1.51,0,3.04.11,4.54.32l307.95,43.47c17.5,2.5,29.74,18.89,27.29,36.53l-6.74,48.77c-1.8,12.98-10.77,23.18-23.4,26.61l-6.16,1.73.88,6.27c2.53,18.31-4.69,35.82-19.33,46.84-8.64,6.5-18.85,9.94-29.53,9.94,0,0,0,0,0,0-3.74,0-7.48-.43-11.13-1.29l-4.43-1.06-2.87,3.56c-6.12,7.47-15.13,11.77-24.7,11.77-1.45,0-2.92-.1-4.37-.3l-97.39-13.37v147.79c0,19.94-16.08,36.17-35.85,36.17H95.54v29.3c0,17.91-14.46,32.47-32.22,32.47h-18.05ZM211.93,380.58c0,19.36,15.58,35.11,34.73,35.11,20.81,0,34.79-18.16,34.79-35.11v-147.92s-69.53-9.51-69.53-9.51v157.43ZM95.54,415.69h133.57l-9.85-11.88c-5.41-6.53-8.39-14.79-8.39-23.23v-35.1h-115.33v70.22ZM122.94,178.26c-1.15,8.29,1.02,16.55,6.1,23.24,5.02,6.62,12.28,10.88,20.44,11.99l230.6,31.64c1.34.19,2.73.28,4.12.28,15.45,0,28.67-11.64,30.75-27.08l7.45-55.23-291.92-41.25-7.55,56.41ZM171.93,15.12c-6.79,0-13.25,2.19-18.67,6.33-6.63,5.05-10.9,12.43-12.02,20.78l-10.61,78.6,338.26,47.74c1.41.21,2.91.31,4.41.31,6.66,0,13.03-2.13,18.4-6.16,6.69-5.03,11.02-12.4,12.2-20.76l6.75-48.77c2.35-17.05-9.48-32.91-26.38-35.36-33.42-4.56-307.02-42.27-308.12-42.43-1.42-.19-2.83-.29-4.22-.29Z"/>
          <path d="M428.12,169.38l39.84,5.62c.51.07,1.02.14,1.53.19l.24,1.75.09.65c2.2,15.95-4.07,31.18-16.79,40.76-7.51,5.65-16.37,8.63-25.62,8.63-2.57,0-5.15-.24-7.67-.71.77-2.26,1.33-4.63,1.66-7.07l6.59-48.82.13-.99M63.32,289.14c14.18,0,25.71,11.66,25.71,25.98v35.8h.01v95.12c0,14.32-11.54,25.97-25.72,25.97h-18.05c-14.21,0-25.76-11.65-25.76-25.97v-130.91c0-14.33,11.56-25.98,25.76-25.98h18.05M171.91,6.5c-8.24,0-16.24,2.66-22.96,7.72-8.32,6.26-13.72,15.43-15.17,25.8l-10.45,78.16q-6.49,48.59-7.16,53.52l-.75,5.57c-2.85,21.2,11.97,40.81,33.02,43.71l55.94,7.66v109.29h-102.34v-22.8c0-21.49-17.36-38.98-38.71-38.98h-18.05c-21.37,0-38.76,17.49-38.76,38.98v130.91c0,21.49,17.39,38.97,38.76,38.97h18.05c21.35,0,38.72-17.48,38.72-38.97v-22.8h144.62c23.36,0,42.35-19.14,42.35-42.67v-140.33l90.01,12.36c1.75.24,3.5.35,5.24.35,11.47,0,22.32-5.1,29.76-14.19l.29-.36.46.11c4.18.98,8.41,1.46,12.62,1.46,11.91,0,23.63-3.87,33.44-11.24,16.55-12.46,24.71-32.24,21.85-52.93l-.09-.65.64-.18c15.18-4.12,25.97-16.38,28.13-31.99l6.74-48.76c2.95-21.17-11.77-40.85-32.82-43.86L177.37,6.89c-1.83-.26-3.65-.39-5.46-.39h0ZM473.3,162.39c-1.16,0-2.34-.08-3.5-.25l-331.87-46.84,9.75-72.21c.88-6.62,4.26-12.47,9.52-16.47,4.29-3.27,9.42-5,14.73-5,1.1,0,2.21.07,3.32.22.56.08,273.57,37.71,308.1,42.42,13.38,1.94,22.74,14.5,20.87,28.03l-6.75,48.75c-.93,6.64-4.36,12.49-9.66,16.47-4.25,3.19-9.31,4.86-14.5,4.86h0ZM384.2,238.91c-1.07,0-2.16-.07-3.24-.22l-230.61-31.64c-6.43-.87-12.17-4.24-16.14-9.48-4.03-5.31-5.75-11.85-4.83-18.44l6.68-49.92,279.04,39.43-6.59,48.82c-1.68,12.4-12.25,21.45-24.31,21.45h0ZM246.67,409.19c-15.57,0-28.23-12.84-28.23-28.61v-149.98l56.54,7.73v142.25c-.01,13.82-11.37,28.61-28.3,28.61h0ZM102.04,409.19v-57.22h102.33v28.6c0,9.96,3.51,19.68,9.89,27.38l1.02,1.23h-113.24Z"/>
        </g>
        <g>
          <path class="cls-1" d="M434.12,130.79c-11.93,0-21.63-9.8-21.63-21.84s9.7-21.84,21.63-21.84c5.75,0,11.17,2.27,15.24,6.38,4.09,4.13,6.35,9.62,6.35,15.46,0,12.04-9.68,21.84-21.58,21.84ZM434.12,88.16c-11.35,0-20.58,9.33-20.58,20.79s9.23,20.79,20.58,20.79,20.53-9.33,20.53-20.79-9.21-20.79-20.53-20.79Z"/>
          <path d="M434.12,80.61c-15.52,0-28.13,12.72-28.13,28.34s12.62,28.34,28.13,28.34,28.08-12.71,28.08-28.34c0-7.55-2.92-14.67-8.22-20.03-5.31-5.37-12.37-8.31-19.86-8.31h0ZM434.12,123.24c-7.76,0-14.08-6.41-14.08-14.29s6.32-14.29,14.08-14.29,14.03,6.41,14.03,14.29-6.29,14.29-14.03,14.29h0Z"/>
        </g>
      </g>
    </g>
  </g>
</svg>