<?xml version="1.0" encoding="UTF-8"?>
<svg id="Layer_2" xmlns="http://www.w3.org/2000/svg" viewBox="0 0 616.93 525">
  <defs>
    <style>
      .cls-1 {
        fill: #00b2ca;
      }
    </style>
  </defs>
  <g id="Layer_2-2" data-name="Layer_2">
    <g id="Type">
      <g>
        <g>
          <path class="cls-1" d="M176.73,512c-27.87,0-50.55-22.73-50.55-50.68V63.67c0-27.94,22.68-50.67,50.55-50.67h263.08c27.88,0,50.56,22.73,50.56,50.67v397.65c0,27.94-22.68,50.68-50.56,50.68H176.73ZM330.47,440.56c-6.61,0-11.98,5.37-11.98,11.98v6.49c0,6.61,5.37,11.98,11.98,11.98h29.96c6.61,0,11.98-5.37,11.98-11.98v-6.49c0-6.61-5.37-11.98-11.98-11.98h-29.96ZM256.12,440.56c-6.6,0-11.97,5.37-11.97,11.98v6.49c0,6.61,5.37,11.98,11.97,11.98h29.97c6.61,0,11.98-5.37,11.98-11.98v-6.49c0-6.61-5.37-11.98-11.98-11.98h-29.97ZM176.73,14.14c-27.24,0-49.41,22.22-49.41,49.53v341.88h361.9V63.67c0-27.31-22.17-49.53-49.41-49.53H176.73Z"/>
          <path d="M483.87,412.05v49.27c0,24.36-19.77,44.18-44.06,44.18H176.73c-24.29,0-44.05-19.82-44.05-44.18v-49.27h351.19M330.47,477.51h29.96c10.19,0,18.48-8.29,18.48-18.48v-6.49c0-10.19-8.29-18.48-18.48-18.48h-29.96c-10.19,0-18.48,8.29-18.48,18.48v6.49c0,10.19,8.29,18.48,18.48,18.48M256.12,477.51h29.97c10.19,0,18.48-8.29,18.48-18.48v-6.49c0-10.19-8.29-18.48-18.48-18.48h-29.97c-10.18,0-18.47,8.29-18.47,18.48v6.49c0,10.19,8.29,18.48,18.47,18.48M439.81,6.5H176.73c-31.46,0-57.05,25.65-57.05,57.17v397.65c0,31.52,25.59,57.18,57.05,57.18h263.08c31.46,0,57.06-25.66,57.06-57.18V63.67c0-31.52-25.6-57.17-57.06-57.17h0ZM133.82,399.05V63.67c0-23.72,19.25-43.03,42.91-43.03h263.08c23.67,0,42.91,19.31,42.91,43.03v335.38H133.82ZM330.47,464.51c-3.02,0-5.48-2.46-5.48-5.48v-6.49c0-3.02,2.46-5.48,5.48-5.48h29.96c3.03,0,5.48,2.46,5.48,5.48v6.49c0,3.02-2.45,5.48-5.48,5.48h-29.96ZM256.12,464.51c-3.02,0-5.47-2.46-5.47-5.48v-6.49c0-3.02,2.45-5.48,5.47-5.48h29.97c3.02,0,5.48,2.46,5.48,5.48v6.49c0,3.02-2.46,5.48-5.48,5.48h-29.97Z"/>
        </g>
        <g>
          <path class="cls-1" d="M544,295.18c-.14,0-.27-.05-.39-.17-.12-.12-.17-.24-.17-.41,0-.16.05-.27.16-.38,8.49-8.48,13.16-19.73,13.16-31.7s-4.67-23.23-13.16-31.7c-.11-.11-.16-.23-.16-.39,0-.22.07-.32.15-.39.15-.15.25-.19.4-.19.19,0,.32.06.45.18,8.69,8.67,13.48,20.21,13.48,32.49s-4.79,23.81-13.49,32.5c-.11.11-.25.17-.41.17h0Z"/>
          <path d="M544.01,223.33h-.02c-1.89,0-3.65.74-4.98,2.08-1.34,1.33-2.07,3.11-2.07,5.01s.74,3.66,2.07,5c7.26,7.24,11.25,16.85,11.25,27.1s-4,19.85-11.24,27.09c-1.34,1.33-2.08,3.11-2.08,5s.73,3.66,2.07,5.01c1.33,1.33,3.1,2.07,4.99,2.08h.01c1.89,0,3.66-.74,5.01-2.07,9.93-9.91,15.4-23.08,15.4-37.1s-5.47-27.2-15.4-37.11c-1.34-1.33-3.12-2.07-5.01-2.07h0Z"/>
        </g>
        <g>
          <path class="cls-1" d="M584.01,325.32c-.23,0-.36-.12-.4-.16-.12-.12-.17-.25-.17-.41,0-.14.06-.28.17-.4,16.55-16.52,25.67-38.48,25.67-61.85s-9.12-45.32-25.67-61.84c-.04-.04-.16-.16-.16-.4,0-.16.06-.3.17-.42.11-.11.22-.16.38-.16.13,0,.27.02.43.18,16.75,16.73,25.99,38.97,26,62.63,0,23.66-9.24,45.92-26.01,62.66-.11.11-.25.17-.41.17Z"/>
          <path d="M584.01,193.18h-.01c-1.89,0-3.66.74-5,2.08-1.37,1.38-2.06,3.19-2.06,5s.69,3.62,2.07,5.01c15.33,15.3,23.77,35.62,23.77,57.24s-8.44,41.95-23.77,57.25c-1.33,1.33-2.07,3.11-2.08,5,0,1.89.74,3.66,2.07,5,1.38,1.38,3.19,2.08,5,2.08s3.62-.69,5-2.06c18-17.96,27.92-41.85,27.92-67.26-.01-25.39-9.92-49.27-27.92-67.24-1.34-1.33-3.11-2.07-5-2.07h0Z"/>
        </g>
        <g>
          <path class="cls-1" d="M72.92,295.18c-.16,0-.28-.05-.39-.17-8.7-8.69-13.5-20.23-13.5-32.5s4.79-23.82,13.49-32.51c.12-.12.24-.17.4-.17s.29.05.41.18c.11.11.17.24.17.4,0,.11-.02.26-.19.43-8.46,8.44-13.14,19.7-13.14,31.68s4.67,23.22,13.16,31.69c.11.11.17.25.17.43,0,.13-.06.26-.18.39-.1.1-.23.16-.4.16Z"/>
          <path d="M72.92,223.33c-1.89,0-3.66.74-5,2.07-9.93,9.91-15.4,23.08-15.4,37.11s5.47,27.19,15.4,37.1c1.33,1.33,3.11,2.07,5,2.07h.02c1.88,0,3.65-.75,4.99-2.08,1.33-1.34,2.07-3.12,2.07-5.01-.01-1.89-.75-3.66-2.08-5-7.26-7.24-11.25-16.85-11.25-27.09s4-19.86,11.25-27.1c1.33-1.34,2.08-3.11,2.08-5.01s-.74-3.66-2.07-5c-1.34-1.34-3.12-2.08-5.01-2.08h0Z"/>
        </g>
        <g>
          <path class="cls-1" d="M32.93,325.32c-.16,0-.3-.06-.42-.17-16.77-16.74-26.01-38.99-26.01-62.66,0-23.66,9.25-45.91,26.01-62.64.15-.15.29-.17.4-.17.17,0,.28.05.39.16.23.23.23.6,0,.83-16.55,16.53-25.67,38.49-25.67,61.84s9.12,45.33,25.67,61.85c.12.12.17.24.17.39s-.05.28-.17.4l-.07.07c-.09.07-.2.1-.33.1Z"/>
          <path d="M32.93,193.18h-.01c-1.89,0-3.65.74-5,2.07C9.92,213.21.01,237.1,0,262.49c0,25.41,9.92,49.3,27.92,67.26,1.38,1.38,3.19,2.07,5,2.07s3.62-.69,5-2.07h0c1.33-1.34,2.07-3.12,2.07-5.01s-.74-3.66-2.08-5c-15.33-15.3-23.77-35.62-23.77-57.25s8.45-41.94,23.77-57.24c2.75-2.75,2.77-7.24.01-10-1.33-1.34-3.11-2.08-5-2.08h0Z"/>
        </g>
        <g>
          <path class="cls-1" d="M308.48,318.23c-54.95,0-99.65-44.81-99.65-99.9s44.7-99.85,99.65-99.85,99.65,44.79,99.65,99.85-44.7,99.9-99.65,99.9ZM308.48,119.62c-54.32,0-98.51,44.28-98.51,98.71s44.19,98.76,98.51,98.76,98.52-44.3,98.52-98.76-44.2-98.71-98.52-98.71Z"/>
          <path d="M308.48,111.98c-58.53,0-106.15,47.71-106.15,106.35s47.62,106.4,106.15,106.4,106.15-47.73,106.15-106.4-47.62-106.35-106.15-106.35h0ZM308.48,310.59c-50.73,0-92.01-41.39-92.01-92.26s41.28-92.21,92.01-92.21,92.02,41.37,92.02,92.21-41.28,92.26-92.02,92.26h0Z"/>
        </g>
        <g>
          <path class="cls-1" d="M308.48,254.24c-19.74,0-35.79-16.11-35.79-35.92s16.06-35.86,35.79-35.86,35.79,16.09,35.79,35.86-16.06,35.92-35.79,35.92Z"/>
          <path d="M308.48,188.96c16.15,0,29.29,13.17,29.29,29.36s-13.14,29.41-29.29,29.41-29.29-13.2-29.29-29.41,13.14-29.36,29.29-29.36M308.48,175.96c-23.32,0-42.29,19-42.29,42.36s18.97,42.41,42.29,42.41,42.29-19.02,42.29-42.41-18.97-42.36-42.29-42.36h0Z"/>
        </g>
      </g>
    </g>
  </g>
</svg>