<?xml version="1.0" encoding="UTF-8"?>
<svg id="Layer_2" xmlns="http://www.w3.org/2000/svg" viewBox="0 0 306.71 525">
  <defs>
    <style>
      .cls-1 {
        fill: #00b2ca;
      }
    </style>
  </defs>
  <g id="Bottom_navigation">
    <g id="Brand">
      <g>
        <g>
          <path class="cls-1" d="M37.62,512c-13.58,0-24.62-11.04-24.62-24.62V37.62c0-13.58,11.05-24.62,24.62-24.62h231.46c13.58,0,24.62,11.04,24.62,24.62v449.76c0,6.53-2.57,12.73-7.23,17.46-4.61,4.61-10.79,7.16-17.39,7.16H37.62ZM153.43,439.32c-16.45,0-29.83,13.38-29.83,29.83s13.38,29.67,29.83,29.67,29.67-13.31,29.67-29.67-13.31-29.83-29.67-29.83ZM37.62,14.05c-12.99,0-23.57,10.57-23.57,23.57v364.95c0,12.99,10.57,23.57,23.57,23.57h231.46c6.38,0,12.31-2.49,16.7-7,4.41-4.41,6.87-10.31,6.87-16.57V37.62c0-12.99-10.57-23.57-23.57-23.57H37.62Z"/>
          <path d="M19.5,426.54c5.04,3.82,11.32,6.09,18.12,6.09h231.46c6.68,0,12.97-2.14,18.12-6.09v60.83c0,4.8-1.89,9.36-5.33,12.86-3.41,3.39-7.95,5.26-12.8,5.26H37.62c-9.99,0-18.12-8.13-18.12-18.12v-60.83M153.43,505.32c19.94,0,36.17-16.23,36.17-36.17s-16.23-36.33-36.17-36.33-36.33,16.3-36.33,36.33,16.3,36.17,36.33,36.17M269.09,6.5H37.62c-17.16,0-31.12,13.96-31.12,31.12v449.76c0,17.17,13.96,31.12,31.12,31.12h231.46c8.33,0,16.15-3.23,22.02-9.1,5.87-5.95,9.11-13.77,9.11-22.03V37.62c0-17.16-13.96-31.12-31.12-31.12h0ZM37.62,419.63c-9.41,0-17.07-7.65-17.07-17.07V37.62c0-9.41,7.66-17.07,17.07-17.07h231.46c9.41,0,17.07,7.66,17.07,17.07v364.95c0,4.52-1.79,8.79-5.03,12.04-3.15,3.24-7.43,5.03-12.04,5.03H37.62ZM153.43,492.32c-12.86,0-23.33-10.39-23.33-23.17s10.47-23.33,23.33-23.33,23.17,10.47,23.17,23.33-10.39,23.17-23.17,23.17h0Z"/>
        </g>
        <g>
          <path class="cls-1" d="M114.83,54.21c-.29,0-.53-.24-.53-.53s.24-.53.53-.53h77.05c.29,0,.53.24.53.53s-.24.53-.53.53h-77.05Z"/>
          <path d="M191.88,46.66h-77.05c-3.88,0-7.03,3.15-7.03,7.03s3.15,7.03,7.03,7.03h77.05c3.88,0,7.03-3.15,7.03-7.03s-3.15-7.03-7.03-7.03h0Z"/>
        </g>
        <g>
          <path class="cls-1" d="M80.85,54.21c-.29,0-.53-.24-.53-.53s.24-.53.53-.53h5.18c.29,0,.53.24.53.53s-.24.53-.53.53h-5.18Z"/>
          <path d="M86.03,46.66h-5.18c-3.88,0-7.03,3.15-7.03,7.03s3.15,7.03,7.03,7.03h5.18c3.88,0,7.03-3.15,7.03-7.03s-3.15-7.03-7.03-7.03h0Z"/>
        </g>
        <g>
          <path class="cls-1" d="M220.68,54.21c-.29,0-.53-.24-.53-.53s.24-.53.53-.53h5.18c.29,0,.53.24.53.53s-.24.53-.53.53h-5.18Z"/>
          <path d="M225.86,46.66h-5.18c-3.88,0-7.03,3.15-7.03,7.03s3.15,7.03,7.03,7.03h5.18c3.88,0,7.03-3.15,7.03-7.03s-3.15-7.03-7.03-7.03h0Z"/>
        </g>
        <g>
          <path class="cls-1" d="M74.68,383.11c-.28,0-.53-.25-.53-.54s.24-.53.53-.53h14.4c.29,0,.53.24.53.53s-.25.54-.53.54h-14.4Z"/>
          <path d="M89.07,375.54h-14.4c-3.88,0-7.03,3.15-7.03,7.03s3.15,7.04,7.03,7.04h14.4c3.88,0,7.03-3.16,7.03-7.04s-3.15-7.03-7.03-7.03h0Z"/>
        </g>
        <g>
          <path class="cls-1" d="M146.16,383.11c-.29,0-.53-.24-.53-.53s.24-.53.53-.53h14.4c.29,0,.53.24.53.53s-.24.53-.53.53h-14.4Z"/>
          <path d="M160.55,375.55h-14.4c-3.88,0-7.03,3.15-7.03,7.03s3.15,7.03,7.03,7.03h14.4c3.88,0,7.03-3.15,7.03-7.03s-3.15-7.03-7.03-7.03h0Z"/>
        </g>
        <g>
          <path class="cls-1" d="M217.62,383.11c-.28,0-.53-.25-.53-.54s.24-.53.53-.53h14.41c.29,0,.53.24.53.53s-.25.54-.53.54h-14.41Z"/>
          <path d="M232.03,375.54h-14.41c-3.88,0-7.03,3.15-7.03,7.03s3.15,7.04,7.03,7.04h14.41c3.88,0,7.03-3.16,7.03-7.04s-3.15-7.03-7.03-7.03h0Z"/>
        </g>
      </g>
    </g>
  </g>
</svg>