<?xml version="1.0" encoding="UTF-8"?>
<svg id="Layer_2" xmlns="http://www.w3.org/2000/svg" viewBox="0 0 520.23 525">
  <defs>
    <style>
      .cls-1 {
        fill: #00b2ca;
      }
    </style>
  </defs>
  <g id="Bottom_navigation">
    <g id="MFD">
      <g>
        <g>
          <path class="cls-1" d="M74.57,512c-33.95,0-61.57-27.55-61.57-61.42V125.67c0-33.87,27.62-61.42,61.57-61.42h34.38v-21.46c0-16.42,13.38-29.79,29.84-29.79s29.89,13.36,29.89,29.79v21.46h61.55v-21.46c0-16.42,13.41-29.79,29.89-29.79s29.83,13.36,29.83,29.79v21.46h61.6v-21.46c0-16.42,13.38-29.79,29.84-29.79s29.89,13.36,29.89,29.79v21.46h34.43c33.93,0,61.53,27.55,61.53,61.42v324.91c0,33.87-27.6,61.42-61.53,61.42H74.57ZM14.05,450.58c0,33.29,27.15,60.37,60.52,60.37h371.13c33.34,0,60.47-27.08,60.47-60.37V188.8H14.05v261.78ZM381.38,14.06c-15.87,0-28.78,12.89-28.78,28.72v40.1c0,15.84,12.91,28.73,28.78,28.73s28.83-12.89,28.83-28.73v-40.1c0-15.84-12.94-28.72-28.83-28.72ZM260.11,14.06c-15.9,0-28.84,12.89-28.84,28.72v40.1c0,15.84,12.94,28.73,28.84,28.73s28.78-12.89,28.78-28.73v-40.1c0-15.84-12.91-28.72-28.78-28.72ZM138.79,14.06c-15.87,0-28.78,12.89-28.78,28.72v40.1c0,15.84,12.91,28.73,28.78,28.73s28.84-12.89,28.84-28.73v-40.1c0-15.84-12.94-28.72-28.84-28.72Z"/>
          <path d="M445.7,70.75c30.34,0,55.03,24.64,55.03,54.92v56.63H19.5v-56.63c0-30.28,24.7-54.92,55.07-54.92h28.94v12.13c0,19.42,15.82,35.23,35.28,35.23s35.34-15.8,35.34-35.23v-12.13h50.65v12.13c0,19.42,15.85,35.23,35.34,35.23s35.28-15.8,35.28-35.23v-12.13h50.71v12.13c0,19.42,15.82,35.23,35.28,35.23s35.33-15.8,35.33-35.23v-12.13h28.98M381.38,6.5c-20.04,0-36.34,16.28-36.34,36.29v14.96h-48.6v-14.96c0-20.01-16.3-36.29-36.33-36.29s-36.39,16.28-36.39,36.29v14.96h-48.55v-14.96c0-20.01-16.32-36.29-36.39-36.29s-36.34,16.28-36.34,36.29v14.96h-27.88c-37.53,0-68.07,30.47-68.07,67.92v324.91c0,37.45,30.54,67.92,68.07,67.92h371.13c37.51,0,68.03-30.47,68.03-67.92V125.67c0-37.45-30.52-67.92-68.03-67.92h-27.93v-14.96c0-20.01-16.32-36.29-36.39-36.29h0ZM381.38,105.11c-12.29,0-22.28-9.97-22.28-22.23v-40.1c0-12.26,9.99-22.23,22.28-22.23s22.33,9.97,22.33,22.23v40.1c0,12.26-10.02,22.23-22.33,22.23h0ZM260.11,105.11c-12.32,0-22.34-9.97-22.34-22.23v-40.1c0-12.26,10.02-22.23,22.34-22.23s22.28,9.97,22.28,22.23v40.1c0,12.26-9.99,22.23-22.28,22.23h0ZM138.79,105.11c-12.29,0-22.28-9.97-22.28-22.23v-40.1c0-12.26,9.99-22.23,22.28-22.23s22.34,9.97,22.34,22.23v40.1c0,12.26-10.02,22.23-22.34,22.23h0ZM74.57,504.45c-29.79,0-54.02-24.17-54.02-53.87v-255.28h479.11v255.28c0,29.7-24.21,53.87-53.97,53.87H74.57Z"/>
        </g>
        <g>
          <path class="cls-1" d="M260.06,438.46c-48.97,0-88.81-39.72-88.81-88.55s39.84-88.61,88.81-88.61,88.91,39.75,88.91,88.61-39.88,88.55-88.91,88.55ZM172.47,354.16c2.27,46.67,40.75,83.23,87.59,83.23s85.35-36.57,87.64-83.25l.39-7.6h-176.01l.39,7.61Z"/>
          <path d="M260.06,267.8c42.09,0,76.92,31.6,81.82,72.25h-163.54c4.9-40.64,39.68-72.25,81.72-72.25M260.06,254.8c-52.55,0-95.31,42.67-95.31,95.11s42.75,95.05,95.31,95.05,95.41-42.65,95.41-95.05-42.81-95.11-95.41-95.11h0ZM260.06,430.89c-43.37,0-78.99-33.85-81.1-77.07l-.04-.78h162.33l-.04.78c-2.12,43.22-37.76,77.07-81.15,77.07h0Z"/>
        </g>
      </g>
    </g>
  </g>
</svg>