<?xml version="1.0" encoding="UTF-8"?>
<svg id="Layer_2" xmlns="http://www.w3.org/2000/svg" viewBox="0 0 379.09 518.5">
  <defs>
    <style>
      .cls-1 {
        fill: #00b2ca;
      }
    </style>
  </defs>
  <g id="Bottom_navigation">
    <g id="Accessories_Included">
      <g>
        <g>
          <path class="cls-1" d="M314.02,362.3c-.17,0-.25-.07-.31-.12-.11-.11-.16-.22-.16-.35,0-.08.02-.21.14-.32l3.1-3.1s.13-.13.33-.13.3.1.33.14c.17.17.17.49,0,.67l-3.09,3.08c-.1.1-.18.15-.33.15Z"/>
          <path d="M317.12,351.77c-1.78,0-3.57.68-4.93,2.04l-3.1,3.1c-1.36,1.36-2.04,3.15-2.04,4.92s.68,3.57,2.04,4.93c1.31,1.32,3.07,2.04,4.92,2.04s3.61-.72,4.92-2.04l3.11-3.1c2.71-2.72,2.71-7.13,0-9.85-1.36-1.36-3.14-2.04-4.93-2.04h0Z"/>
        </g>
        <g>
          <path class="cls-1" d="M296.26,344.53c-.09,0-.23-.03-.35-.15-.07-.07-.11-.17-.11-.32,0-.14.04-.24.15-.34l3.08-3.07s.14-.14.33-.14.29.1.32.13c.05.05.14.14.14.33s-.1.29-.13.32l-3.11,3.12c-.1.1-.24.12-.32.12Z"/>
          <path d="M299.35,334.01c-1.78,0-3.57.68-4.92,2.04l-3.11,3.1c-1.31,1.32-2.03,3.07-2.03,4.92s.72,3.61,2.03,4.93c1.36,1.35,3.15,2.03,4.93,2.03s3.56-.68,4.92-2.03l3.1-3.11c2.72-2.71,2.72-7.13,0-9.84-1.35-1.36-3.14-2.04-4.92-2.04h0Z"/>
        </g>
        <g>
          <path class="cls-1" d="M338.88,64.96c-.17,0-.25-.07-.31-.12-.05-.05-.15-.15-.15-.35s.1-.3.14-.33l7.02-7.02s.14-.14.33-.14.3.1.33.13c.1.1.14.19.14.33,0,.14-.04.23-.14.33l-7.03,7.03c-.1.1-.19.14-.34.14Z"/>
          <path d="M345.91,50.5c-1.78,0-3.57.68-4.93,2.04l-7.02,7.03c-2.72,2.72-2.72,7.13,0,9.85,1.31,1.32,3.07,2.04,4.92,2.04s3.61-.72,4.93-2.04l7.03-7.03c1.32-1.32,2.04-3.07,2.04-4.93s-.72-3.6-2.04-4.92-3.14-2.04-4.93-2.04h0Z"/>
        </g>
        <g>
          <path class="cls-1" d="M314.69,40.75c-.2,0-.3-.1-.33-.13-.09-.09-.13-.2-.13-.33,0-.2.1-.3.13-.33l7.03-7.02s.14-.14.33-.14.3.1.33.14c.11.11.13.23.13.32,0,.14-.04.25-.15.35l-7.01,7s-.13.13-.33.13Z"/>
          <path d="M321.72,26.3c-1.78,0-3.57.68-4.93,2.04l-7.03,7.03c-1.36,1.36-2.03,3.15-2.03,4.93s.68,3.56,2.03,4.92,3.15,2.03,4.93,2.03,3.56-.67,4.92-2.03l7.03-7.02c1.31-1.32,2.03-3.07,2.03-4.93s-.72-3.6-2.03-4.92c-1.36-1.36-3.14-2.04-4.93-2.04h0Z"/>
        </g>
        <g>
          <path class="cls-1" d="M112.1,505.5c-26.49,0-51.37-10.29-70.05-28.98-18.74-18.73-29.05-43.6-29.05-70.05s10.32-51.32,29.05-70.06l124.66-124.66-2.38-4.29c-4.08-7.34-2.8-16.58,3.1-22.48l37.31-37.27-20.08-20.13c-2.43-2.42-3.76-5.62-3.76-9.04s1.33-6.62,3.75-9.02l71.04-71.09c2.41-2.39,5.63-3.71,9.06-3.71s6.62,1.32,9.02,3.71l66.9,66.9c4.96,4.96,4.96,13.07,0,18.08l-71.08,71.07c-2.41,2.41-5.62,3.74-9.03,3.74s-6.63-1.33-9.04-3.74l-20.07-20.13-37.32,37.32c-3.58,3.58-8.28,5.55-13.25,5.55-3.19,0-6.38-.84-9.22-2.43l-4.29-2.41-124.68,124.67c-38.22,38.28-38.22,100.56,0,138.84,18.5,18.51,43.15,28.71,69.41,28.71s50.91-10.19,69.42-28.71l18-18.06-1.83-4.08c-2.23-4.96-1.18-10.84,2.61-14.62l20.82-20.83-13.75-13.75c-1.7-1.69-2.63-3.93-2.63-6.32s.93-4.63,2.62-6.31l48.98-49.03c1.63-1.62,3.9-2.52,6.37-2.52s4.7.9,6.33,2.52l46.12,46.12c1.68,1.68,2.6,3.93,2.6,6.33s-.92,4.64-2.6,6.33l-49.01,49.01c-1.68,1.67-3.95,2.6-6.37,2.6s-4.65-.92-6.33-2.6l-13.76-13.75-20.77,20.78c-2.46,2.46-5.71,3.82-9.14,3.82-1.88,0-3.72-.4-5.46-1.19l-4.1-1.86-18.06,18.06c-18.69,18.69-43.57,28.98-70.06,28.98ZM262.71,341.21c-2.11,0-4.1.81-5.62,2.27l-49.19,49.18c-2.97,3.12-2.96,8.02.03,11.16l46.22,46.22c.92.92,2.55,2.07,5.04,2.3l.39.04h.39c2.08-.07,4.02-.9,5.48-2.37l49.03-48.99c1.53-1.52,2.37-3.54,2.37-5.68s-.84-4.16-2.37-5.69l-46.13-46.12c-1.5-1.5-3.51-2.33-5.64-2.33ZM264.75,35.67c-3.17,0-6.14,1.23-8.37,3.45l-71.08,71.09c-4.57,4.57-4.59,12.07-.03,16.71l66.93,66.88c2.21,2.22,5.18,3.45,8.35,3.45s6.12-1.21,8.37-3.42l71.06-71.06c2.25-2.25,3.49-5.23,3.49-8.4s-1.24-6.15-3.49-8.4l-66.85-66.85c-2.26-2.23-5.22-3.45-8.38-3.45Z"/>
          <path d="M205.42,156.24l17.48,17.47-.66.66-32.71,32.71c-2.35,2.35-5.42,3.64-8.65,3.64-2.08,0-4.17-.55-6.04-1.6l-3.12-1.75-1.7-3.06c-2.63-4.74-1.79-10.93,2.01-14.72l32.71-32.67.68-.68M221.77,426.85l9.4,9.4-.67.67-16.17,16.18c-1.24,1.24-2.85,1.92-4.55,1.92-.95,0-1.88-.21-2.77-.61l-2.38-1.08-1-2.24c-1.11-2.47-.59-5.5,1.28-7.37l16.22-16.23.64-.64M264.75,28.23c-4.94,0-9.88,1.87-13.66,5.62l-71.03,71.07c-3.65,3.63-5.67,8.47-5.67,13.63s2.01,10.01,5.66,13.63l15.49,15.53-32.71,32.67c-7.98,7.97-9.62,20.45-4.19,30.23l-121.19,121.19c-19.96,19.96-30.96,46.48-30.96,74.66s10.99,54.69,30.96,74.65c20.58,20.58,47.62,30.88,74.65,30.88s54.08-10.3,74.66-30.88l14.87-14.87c2.62,1.19,5.4,1.78,8.15,1.78,5.03,0,9.97-1.96,13.74-5.72l16.17-16.18,9.16,9.16c3,3,6.96,4.5,10.92,4.5s7.94-1.5,10.97-4.5l49.02-49.02c2.9-2.91,4.49-6.79,4.49-10.91s-1.6-8.02-4.5-10.92l-46.12-46.12c-2.95-2.95-6.93-4.43-10.92-4.43s-7.99,1.48-10.97,4.43l-48.96,49.01c-2.93,2.91-4.54,6.79-4.54,10.92s1.62,8.02,4.53,10.91l9.16,9.16-16.22,16.23c-5.73,5.72-7.25,14.52-3.95,21.88l-14.83,14.88c-17.87,17.87-41.35,26.8-64.82,26.8s-46.95-8.93-64.81-26.8c-35.7-35.75-35.7-93.91-.01-129.65l121.19-121.19c3.9,2.19,8.17,3.26,12.4,3.26,6.5,0,12.93-2.54,17.84-7.45l32.71-32.71,15.48,15.53c3.76,3.76,8.7,5.64,13.64,5.64s9.87-1.88,13.63-5.64l71.09-71.08c7.48-7.54,7.48-19.77-.01-27.26l-66.9-66.9c-3.75-3.75-8.67-5.62-13.61-5.62h0ZM260.55,190.75c-1.37,0-2.73-.52-3.76-1.55l-66.89-66.84c-2.06-2.1-2.07-5.5-.01-7.56l71.08-71.08c.99-.99,2.34-1.55,3.77-1.55s2.78.56,3.78,1.55l66.85,66.85c1.02,1.02,1.59,2.38,1.59,3.81s-.57,2.78-1.59,3.8l-71.01,71.02c-1.06,1.04-2.44,1.56-3.81,1.56h0ZM259.79,445.87c-.43-.04-.77-.15-1.05-.43l-46.11-46.11c-.6-.63-.59-1.6-.02-2.19l49-48.99c.31-.3.7-.45,1.1-.45s.76.14,1.05.43l46.13,46.12c.3.3.47.68.47,1.09s-.17.78-.47,1.08l-49.04,49c-.28.28-.65.44-1.05.45h0Z"/>
        </g>
        <g>
          <path class="cls-1" d="M350.86,88.52c-.2,0-.3-.1-.34-.13-.16-.16-.17-.47.01-.65l15.73-15.89c3.47-3.45,5.39-8.08,5.39-13.01s-1.93-9.55-5.45-13.03l-32.92-32.97c-3.5-3.48-8.13-5.39-13.05-5.39s-9.59,1.93-13.08,5.43l-15.64,15.8c-.08.08-.2.13-.33.13-.2,0-.3-.1-.34-.13-.16-.16-.17-.47,0-.64l15.64-15.8c3.65-3.67,8.52-5.71,13.71-5.71,5.2,0,10.08,2.01,13.76,5.67l32.92,32.98c3.69,3.67,5.71,8.52,5.71,13.67,0,5.17-2,10.03-5.66,13.68l-15.74,15.89c-.08.08-.2.13-.33.13Z"/>
          <path d="M320.23,0h-.04c-6.93.01-13.44,2.73-18.32,7.64l-15.64,15.8c-2.7,2.72-2.68,7.14.05,9.85,1.36,1.34,3.13,2,4.9,2s3.59-.68,4.95-2.05l15.63-15.79c2.33-2.34,5.4-3.51,8.47-3.51,3.06,0,6.12,1.16,8.46,3.48l32.94,32.99c2.27,2.25,3.52,5.24,3.52,8.41s-1.24,6.17-3.51,8.43l-15.74,15.9c-2.7,2.73-2.68,7.14.05,9.85,1.36,1.34,3.13,2,4.9,2s3.59-.68,4.95-2.05l15.72-15.87c4.88-4.88,7.57-11.37,7.56-18.28,0-6.91-2.71-13.4-7.61-18.27l-32.94-32.99c-4.9-4.87-11.4-7.56-18.31-7.56h0Z"/>
        </g>
        <g>
          <path class="cls-1" d="M326.45,373.25c-.13,0-.22-.04-.32-.14-.18-.18-.18-.48,0-.66l6.47-6.52c4.88-4.92,4.88-12.9,0-17.78l-22.71-22.71c-2.31-2.31-5.56-3.63-8.93-3.63s-6.64,1.32-8.94,3.63l-6.42,6.48c-.11.11-.21.13-.29.13h-.14c-.08-.02-.16-.06-.23-.13-.03-.03-.14-.13-.14-.33,0-.19.1-.29.13-.33l6.43-6.48c2.41-2.42,5.91-3.81,9.6-3.81,1.82,0,3.66.35,5.31,1.02,1.63.66,3.11,1.62,4.29,2.8l22.71,22.7c5.23,5.24,5.23,13.8,0,19.09l-6.48,6.52c-.08.08-.16.14-.33.15h0Z"/>
          <path d="M300.95,314.47c-5.39,0-10.57,2.08-14.21,5.74l-6.43,6.48c-2.71,2.73-2.69,7.14.04,9.85,1.31,1.3,3.06,2.02,4.9,2.02.01,0,.03,0,.04-.01,1.86,0,3.6-.73,4.91-2.05l6.4-6.46c1.1-1.1,2.68-1.73,4.34-1.73h.01c1.65,0,3.23.63,4.34,1.73l22.71,22.71c2.35,2.35,2.34,6.22-.02,8.6l-6.47,6.52c-2.71,2.73-2.69,7.14.04,9.85,1.31,1.3,3.05,2.02,4.9,2.02h.03c1.87-.01,3.61-.74,4.91-2.06l6.49-6.53c7.73-7.82,7.72-20.5-.03-28.26l-22.71-22.7c-1.82-1.82-4.02-3.25-6.44-4.23-2.42-.98-5.06-1.5-7.75-1.5h0Z"/>
        </g>
      </g>
    </g>
  </g>
</svg>