<?xml version="1.0" encoding="UTF-8"?>
<svg id="Layer_2" xmlns="http://www.w3.org/2000/svg" viewBox="0 0 601.47 525">
  <defs>
    <style>
      .cls-1 {
        fill: #00b2ca;
      }
    </style>
  </defs>
  <g id="Layer_2-2" data-name="Layer_2">
    <g id="Sound_Technology">
      <g>
        <g>
          <path class="cls-1" d="M160.43,512c-19.42,0-35.22-15.84-35.22-35.3V48.22c0-19.42,15.8-35.22,35.22-35.22h280.62c19.42,0,35.22,15.8,35.22,35.22v428.47c0,19.47-15.8,35.3-35.22,35.3H160.43ZM160.43,14.05c-18.84,0-34.17,15.33-34.17,34.17v428.47c0,18.88,15.33,34.25,34.17,34.25h280.62c18.84,0,34.17-15.36,34.17-34.25V48.22c0-18.84-15.33-34.17-34.17-34.17H160.43Z"/>
          <path d="M441.04,6.5H160.43c-23,0-41.72,18.72-41.72,41.72v428.47c0,23.05,18.72,41.8,41.72,41.8h280.62c23.01,0,41.72-18.75,41.72-41.8V48.22c0-23-18.71-41.72-41.72-41.72h0ZM160.43,504.45c-15.25,0-27.67-12.45-27.67-27.75V48.22c0-15.25,12.42-27.67,27.67-27.67h280.62c15.26,0,27.67,12.42,27.67,27.67v428.47c0,15.3-12.41,27.75-27.67,27.75H160.43Z"/>
        </g>
        <g>
          <path class="cls-1" d="M300.82,309.05c-65.83,0-119.38-53.56-119.38-119.39s53.55-119.31,119.38-119.31,119.23,53.52,119.23,119.31-53.49,119.39-119.23,119.39ZM300.74,129.14c-33.37,0-60.51,27.15-60.51,60.51s27.15,60.59,60.51,60.59,60.51-27.18,60.51-60.59-27.15-60.51-60.51-60.51Z"/>
          <path d="M300.82,76.84c62.16,0,112.73,50.61,112.73,112.81s-50.57,112.89-112.73,112.89-112.88-50.64-112.88-112.89,50.64-112.81,112.88-112.81M300.73,256.75c36.95,0,67.01-30.1,67.01-67.09s-30.06-67.01-67.01-67.01-67.01,30.06-67.01,67.01,30.06,67.09,67.01,67.09M300.82,63.84c-69.41,0-125.88,56.44-125.88,125.81s56.47,125.89,125.88,125.89,125.73-56.47,125.73-125.89-56.4-125.81-125.73-125.81h0ZM300.73,243.75c-29.78,0-54.01-24.26-54.01-54.09s24.23-54.01,54.01-54.01,54.01,24.23,54.01,54.01-24.22,54.09-54.01,54.09h0Z"/>
        </g>
        <g>
          <path class="cls-1" d="M300.74,219.18c-16.23,0-29.44-13.24-29.44-29.52s13.21-29.44,29.44-29.44,29.44,13.21,29.44,29.44-13.21,29.52-29.44,29.52Z"/>
          <path d="M300.73,166.72c12.65,0,22.94,10.29,22.94,22.94s-10.29,23.02-22.94,23.02-22.94-10.33-22.94-23.02,10.29-22.94,22.94-22.94M300.73,153.72c-19.82,0-35.94,16.12-35.94,35.94s16.12,36.02,35.94,36.02,35.94-16.15,35.94-36.02-16.12-35.94-35.94-35.94h0Z"/>
        </g>
        <g>
          <path class="cls-1" d="M300.74,460.28c-27.13,0-49.2-22.07-49.2-49.2s22.07-49.28,49.2-49.28,49.2,22.11,49.2,49.28-22.07,49.2-49.2,49.2Z"/>
          <path d="M300.73,368.3c23.54,0,42.7,19.19,42.7,42.78s-19.15,42.7-42.7,42.7-42.7-19.15-42.7-42.7,19.15-42.78,42.7-42.78M300.73,355.3c-30.71,0-55.7,25.03-55.7,55.78s24.99,55.7,55.7,55.7,55.7-24.99,55.7-55.7-24.98-55.78-55.7-55.78h0Z"/>
        </g>
        <g>
          <path class="cls-1" d="M553.24,362.55c-.15,0-.27-.05-.37-.15-.1-.1-.15-.23-.15-.37,0-.21.11-.32.14-.36,26.48-26.47,41.06-61.69,41.06-99.19s-14.58-72.71-41.05-99.17c-.12-.12-.15-.27-.15-.37,0-.14.06-.28.17-.39.07-.07.21-.13.36-.13.23,0,.35.12.39.16,26.65,26.65,41.34,62.14,41.34,99.9s-14.69,73.24-41.35,99.91c-.1.1-.23.15-.37.15Z"/>
          <path d="M553.24,155.92c-1.8,0-3.59.68-4.97,2.05-1.37,1.38-2.06,3.17-2.06,4.97s.69,3.59,2.06,4.97c25.24,25.23,39.14,58.82,39.14,94.57s-13.89,69.35-39.14,94.59c-2.74,2.73-2.74,7.19,0,9.93,1.37,1.37,3.17,2.06,4.97,2.06s3.6-.69,4.97-2.06c27.9-27.9,43.26-65.01,43.26-104.51s-15.36-76.62-43.26-104.52c-1.38-1.37-3.17-2.05-4.97-2.05h0Z"/>
        </g>
        <g>
          <path class="cls-1" d="M514.98,324.3c-.15,0-.27-.05-.37-.15-.2-.2-.2-.54,0-.75,16.25-16.25,25.2-37.89,25.2-60.92s-8.95-44.68-25.19-60.93c-.1-.1-.15-.23-.15-.37s.05-.27.15-.37c.13-.13.29-.14.37-.14.23,0,.35.12.39.16,33.98,33.99,33.98,89.32-.03,123.32-.1.1-.23.15-.37.15Z"/>
          <path d="M514.99,194.17c-1.8,0-3.6.68-4.97,2.05-2.74,2.74-2.74,7.2,0,9.94,15.02,15.02,23.29,35.03,23.29,56.33s-8.28,41.3-23.3,56.32c-2.74,2.74-2.74,7.2,0,9.94,1.37,1.37,3.17,2.06,4.97,2.06s3.6-.69,4.97-2.06c36.54-36.54,36.54-95.98.01-132.53-1.38-1.37-3.17-2.05-4.97-2.05h0Z"/>
        </g>
        <g>
          <path class="cls-1" d="M48.24,362.55c-.15,0-.27-.05-.37-.15-26.67-26.67-41.36-62.15-41.37-99.91,0-37.76,14.69-73.25,41.37-99.92.13-.13.29-.14.37-.14.15,0,.28.05.39.16.02.02.14.14.14.36s-.12.33-.15.37c-26.47,26.47-41.05,61.69-41.05,99.19s14.58,72.7,41.05,99.16c.2.2.2.54,0,.75-.1.1-.23.15-.37.15Z"/>
          <path d="M48.24,155.92c-1.8,0-3.6.68-4.97,2.05C15.37,185.87,0,223,0,262.49c.01,39.49,15.37,76.61,43.27,104.51,1.37,1.37,3.17,2.06,4.97,2.06s3.6-.69,4.97-2.06c2.74-2.74,2.74-7.2,0-9.94-25.24-25.23-39.14-58.81-39.14-94.56s13.9-69.35,39.14-94.59c1.38-1.38,2.06-3.17,2.06-4.97s-.68-3.59-2.06-4.97c-1.38-1.37-3.17-2.05-4.97-2.05h0Z"/>
        </g>
        <g>
          <path class="cls-1" d="M86.49,324.3c-.15,0-.27-.05-.37-.15-16.44-16.44-25.49-38.34-25.49-61.66s9.06-45.23,25.5-61.67c.13-.13.29-.14.37-.14.23,0,.35.12.39.16.08.08.14.21.14.36s-.05.27-.15.37c-16.25,16.24-25.21,37.88-25.21,60.93s8.95,44.67,25.19,60.92c.2.2.2.54,0,.75-.1.1-.23.15-.37.15Z"/>
          <path d="M86.5,194.17c-1.8,0-3.6.68-4.97,2.05-17.68,17.68-27.41,41.21-27.41,66.27s9.73,48.59,27.4,66.26c1.37,1.37,3.17,2.06,4.97,2.06s3.6-.69,4.97-2.06c2.74-2.74,2.74-7.2,0-9.94-15.02-15.02-23.29-35.02-23.29-56.32s8.27-41.31,23.3-56.33c2.74-2.74,2.74-7.2,0-9.94-1.38-1.37-3.17-2.05-4.97-2.05h0Z"/>
        </g>
      </g>
    </g>
  </g>
</svg>