<?xml version="1.0" encoding="UTF-8"?>
<svg id="Layer_2" xmlns="http://www.w3.org/2000/svg" viewBox="0 0 524.93 525">
  <defs>
    <style>
      .cls-1 {
        fill: #00b2ca;
      }
    </style>
  </defs>
  <g id="Layer_2-2" data-name="Layer_2">
    <g id="model">
      <g>
        <g>
          <path class="cls-1" d="M262.5,512c-19.72,0-35.77-16.08-35.77-35.84,0-17.26,12.37-32.06,29.4-35.19l5.86-1.11v-77.67l-6.58-.54c-21.64-1.55-41.65-9.85-57.95-24.01l-5.03-4.38-40.94,40.94,3.34,4.89c8.34,12.51,6.66,29.41-4.05,40.13-5.99,5.99-13.98,9.29-22.49,9.29s-16.5-3.3-22.5-9.3c-6.02-5.98-9.33-13.95-9.33-22.46-.02-8.54,3.3-16.56,9.33-22.6,5.98-5.98,13.98-9.27,22.52-9.27,6.32,0,12.43,1.84,17.66,5.33l4.83,3.3,40.94-40.94-4.38-5.04c-14.18-16.41-22.48-36.43-24.01-57.88l-.55-6.65h-77.87l-.99,5.98c-3.06,16.92-17.85,29.27-35.17,29.27-19.72,0-35.77-16.04-35.77-35.76s16.04-35.77,35.77-35.77c17.32,0,32.12,12.35,35.19,29.37l.99,5.88h77.84l.55-6.56c1.54-21.64,9.82-41.63,23.94-57.9l4.31-5.08-40.77-40.87-4.95,3.19c-5.19,3.46-11.26,5.3-17.54,5.3-8.54,0-16.55-3.31-22.56-9.31-6.03-6-9.34-13.99-9.34-22.49s3.32-16.49,9.34-22.48c6.04-6.03,14.03-9.35,22.5-9.35s16.47,3.32,22.51,9.35c10.73,10.67,12.41,27.57,4.01,40.18l-3.3,4.83,40.94,40.94,5.04-4.38c16.31-14.17,36.3-22.47,57.82-24.02l6.64-.44v-77.84l-5.83-1.1c-17.03-3.06-29.35-17.86-29.35-35.2,0-19.72,16.05-35.76,35.77-35.76s35.77,16.04,35.77,35.76c0,17.33-12.38,32.13-29.44,35.19l-5.89,1.11v77.84l6.67.45c21.53,1.53,41.55,9.84,57.87,24.02l5.03,4.38,40.87-40.88-3.21-4.87c-8.37-12.62-6.69-29.53,3.99-40.21,6.03-6.03,14.03-9.34,22.53-9.34s16.5,3.32,22.54,9.35c12.4,12.4,12.4,32.58,0,44.98-6.01,6.01-14.03,9.32-22.59,9.32-6.3,0-12.38-1.84-17.6-5.31l-4.89-3.22-41.02,40.92,4.48,5.04c14.12,16.19,22.43,36.18,23.97,57.76l.44,6.65h77.87l1.08-5.86c3.12-16.99,17.92-29.32,35.19-29.32,19.71,0,35.76,16.05,35.77,35.77,0,19.71-16.05,35.75-35.77,35.75-17.33,0-32.13-12.38-35.19-29.44l-1.11-5.88h-77.84l-.44,6.67c-1.53,21.58-9.81,41.6-23.94,57.87l-4.43,4.97,40.93,40.93,4.87-3.21c5.23-3.47,11.33-5.29,17.64-5.29,8.57,0,16.58,3.3,22.57,9.29,12.39,12.44,12.39,32.67,0,45.07-6.02,6.02-14.02,9.33-22.53,9.33s-16.51-3.32-22.54-9.34c-10.73-10.74-12.41-27.59-3.99-40.09l3.42-4.86-41-41-5.04,4.38c-16.41,14.18-36.44,22.48-57.89,24.01l-6.64.55v77.66l5.82,1.1c17.06,3.14,29.43,17.94,29.43,35.2,0,19.76-16.04,35.84-35.77,35.84ZM128.27,365.9c-8.24,0-15.98,3.2-21.8,9.01-11.97,11.97-11.98,31.53-.01,43.59,5.84,5.79,13.55,8.96,21.73,8.96,4.07,0,7.98-.76,11.68-2.26,3.81-1.53,7.25-3.81,10.2-6.75,12.01-12.01,12.01-31.54,0-43.54-5.82-5.82-13.56-9.02-21.8-9.02ZM396.69,365.87c-8.25,0-15.98,3.22-21.78,9.07-5.81,5.76-9.03,13.5-9.03,21.75s3.22,15.98,9.07,21.78c5.59,5.59,13.53,8.8,21.77,8.8,8.31-.03,16.21-3.25,21.75-8.84,5.81-5.76,9.03-13.49,9.03-21.74s-3.22-15.98-9.06-21.78c-5.78-5.82-13.52-9.04-21.75-9.04ZM262.43,164c-54.28,0-98.43,44.19-98.43,98.5s44.16,98.5,98.43,98.5,98.49-44.19,98.49-98.5-44.18-98.5-98.49-98.5ZM396.58,97.45c-8.2.04-15.88,3.24-21.65,9.03-5.85,5.84-9.07,13.6-9.07,21.83s3.19,15.97,8.99,21.77c5.85,5.8,13.59,8.98,21.83,8.98s15.98-3.19,21.77-8.98c5.82-5.77,9.04-13.49,9.05-21.72.01-8.27-3.2-16.04-9.05-21.89-5.82-5.82-13.55-9.02-21.77-9.02h-.1ZM128.27,97.45c-8.24,0-15.98,3.2-21.8,9.01-11.98,12.08-11.97,31.64,0,43.61,5.85,5.8,13.59,8.98,21.82,8.98s16-3.2,21.78-9c11.96-11.96,11.97-31.51.01-43.58-5.84-5.83-13.58-9.04-21.82-9.04Z"/>
          <path d="M262.5,19.5c16.14,0,29.27,13.12,29.27,29.26,0,14.18-10.13,26.29-24.09,28.79h-.06s-.06.02-.06.02l-.53.1-4.61.87-4.61-.87-.53-.1h-.05s-.05-.02-.05-.02c-13.88-2.5-23.95-14.6-23.95-28.79,0-16.13,13.13-29.26,29.27-29.26M476.16,233.23c16.13,0,29.26,13.13,29.27,29.27,0,16.13-13.13,29.26-29.27,29.26-14.18,0-26.28-10.13-28.79-24.08v-.06s-.02-.06-.02-.06l-.1-.53-.86-4.56.87-4.69.1-.56c2.55-13.9,14.67-23.99,28.8-23.99M48.77,233.23c14.15,0,26.25,10.08,28.78,23.97l.08.45.81,4.79-.82,4.92-.07.45c-2.54,13.88-14.63,23.94-28.78,23.94-16.14,0-29.27-13.12-29.27-29.26s13.13-29.27,29.27-29.27M262.5,446.39l4.61.87.53.1h.03s.03,0,.03,0c13.95,2.57,24.07,14.68,24.07,28.8,0,16.18-13.13,29.34-29.27,29.34s-29.27-13.16-29.27-29.34c0-14.12,10.13-26.23,24.08-28.8h.03s.03,0,.03,0l.53-.1,4.61-.87M262.5,6.5c-23.3,0-42.27,18.96-42.27,42.26,0,20.48,14.58,37.98,34.65,41.59l.53.1v66.37l-.6.04c-22.92,1.64-44.22,10.49-61.62,25.59l-.46.4-32.84-32.84.3-.44c10.13-15.19,8.09-35.54-4.82-48.38-7.26-7.25-16.88-11.25-27.1-11.25s-19.83,4-27.09,11.25c-7.25,7.22-11.25,16.83-11.25,27.09s4,19.87,11.25,27.09c7.39,7.39,17.25,11.21,27.15,11.21,7.34,0,14.72-2.1,21.15-6.39l.45-.29,32.83,32.91-.39.46c-15.06,17.33-23.88,38.65-25.51,61.62l-.05.6h-66.37l-.09-.53c-3.63-20.12-21.11-34.72-41.59-34.72-23.31,0-42.27,18.96-42.27,42.27s18.96,42.26,42.27,42.26c20.47,0,37.96-14.6,41.59-34.71l.09-.54h66.37l.05.61c1.62,22.87,10.48,44.2,25.58,61.69l.4.46-32.84,32.84-.44-.3c-6.47-4.31-13.89-6.42-21.27-6.42-9.91,0-19.74,3.8-27.11,11.17-7.26,7.26-11.26,16.92-11.24,27.2.01,10.25,4,19.85,11.24,27.05,7.47,7.47,17.29,11.2,27.1,11.2s19.62-3.73,27.09-11.19c12.88-12.89,14.92-33.24,4.82-48.38l-.3-.44,32.84-32.84.46.4c17.37,15.1,38.71,23.94,61.69,25.58l.61.05v66.29l-.53.1c-20.12,3.7-34.73,21.18-34.73,41.59,0,23.34,18.97,42.34,42.27,42.34s42.27-19,42.27-42.34c0-20.4-14.61-37.89-34.72-41.59l-.53-.1v-66.29l.6-.05c22.87-1.62,44.2-10.48,61.7-25.58l.46-.4,32.84,32.84-.31.44c-10.2,15.08-8.2,35.42,4.75,48.38,7.26,7.25,16.89,11.24,27.13,11.24s19.88-3.99,27.13-11.24c14.92-14.93,14.92-39.27,0-54.26-7.38-7.38-17.24-11.19-27.17-11.19-7.36,0-14.75,2.09-21.21,6.37l-.44.29-32.84-32.84.4-.45c15.06-17.34,23.88-38.68,25.51-61.7l.04-.6h66.37l.1.53c3.62,20.16,21.1,34.79,41.59,34.79,23.3,0,42.27-18.96,42.27-42.26,0-23.31-18.97-42.27-42.27-42.27-20.4,0-37.9,14.57-41.59,34.64l-.1.54h-66.37l-.04-.61c-1.64-23.01-10.5-44.31-25.6-61.62l-.4-.45,32.92-32.84.44.29c6.45,4.3,13.84,6.4,21.2,6.4,9.92,0,19.78-3.82,27.18-11.22,14.94-14.94,14.94-39.24,0-54.18-7.26-7.25-16.89-11.25-27.13-11.25s-19.88,4-27.13,11.25c-12.86,12.86-14.89,33.2-4.82,48.38l.29.44-32.83,32.84-.46-.4c-17.38-15.11-38.72-23.96-61.7-25.59l-.6-.04v-66.37l.53-.1c20.16-3.61,34.8-21.1,34.8-41.59,0-23.3-18.96-42.26-42.27-42.26h0ZM396.68,152.56c-6.23,0-12.47-2.36-17.23-7.08-4.57-4.57-7.09-10.68-7.09-17.17s2.55-12.62,7.17-17.24c4.55-4.56,10.62-7.09,17.07-7.12h.08c6.53,0,12.57,2.51,17.18,7.12,4.62,4.62,7.16,10.76,7.15,17.28,0,6.49-2.55,12.57-7.15,17.13-4.72,4.72-10.94,7.08-17.17,7.08h0ZM128.3,152.56c-6.23,0-12.46-2.36-17.22-7.08-9.45-9.45-9.45-24.89-.01-34.42,4.75-4.74,10.98-7.11,17.21-7.11s12.46,2.37,17.21,7.11c9.44,9.52,9.44,24.96,0,34.41-4.72,4.73-10.95,7.09-17.18,7.09h0ZM262.43,354.5c-50.69,0-91.93-41.27-91.93-92s41.24-92,91.93-92,91.99,41.27,91.99,92-41.26,92-91.99,92h0ZM396.72,420.77c-6.54,0-12.8-2.53-17.19-6.92-4.61-4.57-7.15-10.67-7.15-17.16s2.54-12.6,7.15-17.17c4.56-4.6,10.67-7.15,17.16-7.15s12.6,2.55,17.17,7.15c4.6,4.57,7.14,10.67,7.14,17.17s-2.54,12.59-7.15,17.16c-4.34,4.38-10.57,6.9-17.08,6.92h-.05ZM128.19,420.97c-6.19,0-12.39-2.36-17.12-7.04-9.45-9.53-9.45-24.97-.01-34.42,4.75-4.74,10.98-7.11,17.21-7.11s12.46,2.37,17.21,7.11c9.46,9.46,9.46,24.87,0,34.34-2.38,2.37-5.12,4.15-8.06,5.33-2.94,1.19-6.07,1.78-9.19,1.78h-.04Z"/>
        </g>
        <g>
          <path class="cls-1" d="M224.21,237.44c-.27,0-.51-.23-.51-.51s.24-.52.51-.52h76.52c.28,0,.52.24.52.52s-.24.51-.52.51h-76.52Z"/>
          <path d="M300.74,229.92h-76.52c-3.86,0-7.01,3.15-7.01,7.02s3.15,7.01,7.01,7.01h76.52c3.87,0,7.02-3.14,7.02-7.01s-3.15-7.02-7.02-7.02h0Z"/>
        </g>
        <g>
          <path class="cls-1" d="M224.21,288.56c-.27,0-.51-.24-.51-.52s.23-.51.51-.51h38.27c.28,0,.52.23.52.51s-.24.52-.52.52h-38.27Z"/>
          <path d="M262.48,281.04h-38.27c-3.86,0-7.01,3.14-7.01,7.01s3.15,7.02,7.01,7.02h38.27c3.87,0,7.02-3.15,7.02-7.02s-3.15-7.01-7.02-7.01h0Z"/>
        </g>
      </g>
    </g>
  </g>
</svg>