<?xml version="1.0" encoding="UTF-8"?>
<svg id="Layer_2" xmlns="http://www.w3.org/2000/svg" viewBox="0 0 525 478.69">
  <defs>
    <style>
      .cls-1 {
        fill: #00b2ca;
      }
    </style>
  </defs>
  <g id="Layer_2-2" data-name="Layer_2">
    <g id="Model">
      <g>
        <g>
          <path class="cls-1" d="M64.47,465.69c-28.38,0-51.47-23.08-51.47-51.46v-225.48c0-28.42,23.09-51.55,51.47-51.55h36.37v-22.86c0-7.62,6.17-13.81,13.74-13.81h18.79c7.62,0,13.81,6.2,13.81,13.81v22.86h205.86v-46.36h-33.55c-10.3,0-18.67-8.38-18.67-18.68V31.6c0-10.26,8.38-18.6,18.67-18.6h137.07c10.3,0,18.68,8.35,18.68,18.6v40.56c0,10.3-8.38,18.68-18.68,18.68h-33.54v46.36h37.43c28.42,0,51.55,23.12,51.55,51.55v225.48c0,28.37-23.12,51.46-51.55,51.46H64.47ZM64.47,138.29c-27.78,0-50.38,22.64-50.38,50.46v225.47c0,27.79,22.6,50.39,50.38,50.39h395.98c27.82,0,50.46-22.6,50.46-50.39v-225.47c0-27.82-22.64-50.46-50.46-50.46H64.47ZM354.12,137.2h67.82v-46.36h-67.82v46.36ZM374.39,36.27c-8.63,0-15.65,7.02-15.65,15.65s7.02,15.66,15.65,15.66h27.28c8.63,0,15.66-7.02,15.66-15.66s-7.02-15.65-15.66-15.65h-27.28Z"/>
          <path d="M456.57,19.5c6.72,0,12.18,5.43,12.18,12.1v40.56c0,6.72-5.47,12.18-12.18,12.18h-137.07c-6.71,0-12.17-5.47-12.17-12.18V31.6c0-6.67,5.46-12.1,12.17-12.1h137.07M374.39,74.07h27.28c12.22,0,22.16-9.94,22.16-22.16s-9.94-22.15-22.16-22.15h-27.28c-12.21,0-22.15,9.94-22.15,22.15s9.94,22.16,22.15,22.16M133.37,107.03c4.03,0,7.31,3.28,7.31,7.31v17.44h-33.34v-17.44c0-4.03,3.25-7.31,7.24-7.31h18.79M456.57,6.5h-137.07c-13.88,0-25.17,11.27-25.17,25.1v40.56c0,13.89,11.3,25.18,25.17,25.18h27.05v33.36h-192.86v-16.36c0-11.21-9.12-20.31-20.31-20.31h-18.79c-11.16,0-20.24,9.11-20.24,20.31v16.36h-29.87c-31.96,0-57.97,26.04-57.97,58.05v225.48c0,31.96,26.01,57.96,57.97,57.96h395.98c32.01,0,58.05-26,58.05-57.96v-225.48c0-32.01-26.04-58.05-58.05-58.05h-30.93v-33.36h27.04c13.89,0,25.18-11.3,25.18-25.18V31.6c0-13.84-11.3-25.1-25.18-25.1h0ZM374.39,61.07c-5.04,0-9.15-4.11-9.15-9.16s4.11-9.15,9.15-9.15h27.28c5.05,0,9.16,4.11,9.16,9.15s-4.11,9.16-9.16,9.16h-27.28ZM360.62,130.7v-33.36h54.81v33.36h-54.81ZM64.47,458.11c-24.2,0-43.88-19.69-43.88-43.89v-225.47c0-24.24,19.68-43.96,43.88-43.96h395.98c24.24,0,43.96,19.72,43.96,43.96v225.47c0,24.2-19.72,43.89-43.96,43.89H64.47Z"/>
        </g>
        <g>
          <path class="cls-1" d="M262.5,425.94c-68.69,0-124.58-55.84-124.58-124.49s55.88-124.5,124.58-124.5,124.5,55.85,124.5,124.5-55.85,124.49-124.5,124.49ZM262.5,206.94c-52.16,0-94.59,42.4-94.59,94.51s42.43,94.5,94.59,94.5,94.51-42.39,94.51-94.5-42.4-94.51-94.51-94.51Z"/>
          <path d="M262.5,183.45c65.06,0,118,52.93,118,118s-52.93,117.99-118,117.99-118.08-52.93-118.08-117.99,52.97-118,118.08-118M262.5,402.45c55.7,0,101.01-45.31,101.01-101s-45.31-101.01-101.01-101.01-101.09,45.31-101.09,101.01,45.35,101,101.09,101M262.5,170.45c-72.28,0-131.08,58.76-131.08,131s58.8,130.99,131.08,130.99,131-58.76,131-130.99-58.76-131-131-131h0ZM262.5,389.45c-48.57,0-88.09-39.47-88.09-88s39.52-88.01,88.09-88.01,88.01,39.48,88.01,88.01-39.48,88-88.01,88h0Z"/>
        </g>
        <g>
          <path class="cls-1" d="M262.5,364.65c-34.9,0-63.29-28.35-63.29-63.2s28.39-63.21,63.29-63.21,63.21,28.36,63.21,63.21-28.36,63.2-63.21,63.2ZM264.03,278.03c12.72,0,23.06,10.34,23.06,23.06,0,.77-.04,1.53-.12,2.26-.47,4.98,3.15,9.38,8.05,9.88.28.03.59.04.91.04,4.64,0,8.49-3.48,8.96-8.1.14-1.4.2-2.77.2-4.09,0-22.64-18.42-41.06-41.06-41.06-1.73,0-3.5.12-5.26.34-2.36.29-4.49,1.51-5.97,3.42-1.47,1.91-2.11,4.28-1.8,6.67.59,4.46,4.42,7.83,8.92,7.83.39,0,.79-.03,1.17-.08.99-.12,2-.18,2.93-.18Z"/>
          <path d="M262.5,244.74c31.27,0,56.71,25.44,56.71,56.71s-25.44,56.7-56.71,56.7-56.79-25.44-56.79-56.7,25.48-56.71,56.79-56.71M257.96,253.93c-4.11.52-7.76,2.61-10.29,5.89-2.54,3.29-3.64,7.37-3.1,11.49,1.01,7.69,7.61,13.49,15.36,13.49.64,0,1.28-.04,1.92-.12.79-.09,1.53-.14,2.19-.14,9.13,0,16.56,7.43,16.56,16.56,0,.55-.03,1.08-.08,1.59v.06s-.01.06-.01.06c-.79,8.43,5.39,15.99,13.8,16.88.7.08,1.26.08,1.63.08,7.99,0,14.62-6,15.43-13.99.15-1.58.23-3.16.23-4.7,0-26.22-21.34-47.56-47.56-47.56-2,0-4.05.13-6.07.4M262.5,231.74c-38.48,0-69.79,31.27-69.79,69.71s31.31,69.7,69.79,69.7,69.71-31.27,69.71-69.7-31.27-69.71-69.71-69.71h0ZM259.92,271.79c-1.24,0-2.31-.92-2.47-2.18-.18-1.37.79-2.62,2.16-2.79,1.46-.19,2.94-.29,4.42-.29,19.06,0,34.56,15.51,34.56,34.56,0,1.15-.06,2.31-.17,3.44-.13,1.29-1.22,2.25-2.49,2.25-.08,0-.16,0-.25-.01-1.37-.14-2.37-1.36-2.24-2.74.1-.96.15-1.95.15-2.94,0-16.3-13.26-29.56-29.56-29.56-1.26,0-2.54.09-3.78.24-.11.01-.22.02-.33.02h0Z"/>
        </g>
      </g>
    </g>
  </g>
</svg>