<?xml version="1.0" encoding="UTF-8"?>
<svg id="Layer_2" xmlns="http://www.w3.org/2000/svg" viewBox="0 0 439.3 518.5">
  <defs>
    <style>
      .cls-1 {
        fill: #00b2ca;
      }
    </style>
  </defs>
  <g id="Layer_2-2" data-name="Layer_2">
    <g id="Compatibility">
      <g>
        <g>
          <path class="cls-1" d="M73.88,505.5c-33.57,0-60.88-27.32-60.88-60.89v-251.09c0-33.53,27.28-60.8,60.8-60.8h251.09c33.58,0,60.9,27.28,60.9,60.8v251.09c0,33.58-27.28,60.89-60.82,60.89H73.88ZM14.03,444.61c0,33,26.85,59.85,59.85,59.85h251.09c32.96,0,59.77-26.85,59.77-59.85v-215H14.03v215ZM164.59,169.69c-6.17,0-11.2,5.02-11.2,11.2,0,2.99,1.17,5.8,3.28,7.91,2.11,2.11,4.92,3.27,7.92,3.27s5.8-1.16,7.92-3.27c2.12-2.12,3.28-4.93,3.28-7.91s-1.16-5.77-3.26-7.9c-2.17-2.15-4.97-3.3-7.94-3.3ZM122.8,169.69c-6.17,0-11.2,5.02-11.2,11.2,0,3.01,1.18,5.83,3.31,7.94,2.05,2.07,4.87,3.25,7.89,3.25s5.8-1.16,7.92-3.27c2.12-2.14,3.27-4.95,3.27-7.91s-1.14-5.75-3.22-7.87l-.08-.08c-2.12-2.09-4.92-3.25-7.89-3.25ZM81.34,169.69c-6.17,0-11.2,5.02-11.2,11.2,0,3.01,1.18,5.83,3.31,7.94,2.05,2.07,4.87,3.25,7.89,3.25s5.8-1.16,7.92-3.27c2.12-2.14,3.27-4.95,3.27-7.91s-1.14-5.75-3.22-7.87l-.08-.08c-2.12-2.09-4.92-3.25-7.89-3.25Z"/>
          <path d="M324.89,139.22c30,0,54.4,24.36,54.4,54.3v29.59H19.5v-29.59c0-29.94,24.36-54.3,54.3-54.3h251.09M164.59,198.58c4.73,0,9.17-1.84,12.51-5.18,3.35-3.34,5.19-7.79,5.19-12.51s-1.82-9.12-5.14-12.47l-.05-.05-.05-.05c-3.34-3.3-7.77-5.12-12.46-5.12-9.76,0-17.7,7.94-17.7,17.7,0,4.72,1.84,9.17,5.19,12.51,3.34,3.34,7.78,5.18,12.51,5.18M110.27,193.39c3.33,3.35,7.78,5.19,12.53,5.19s9.17-1.84,12.51-5.18l.03-.03.03-.03c3.3-3.34,5.12-7.77,5.12-12.46s-1.8-9.07-5.07-12.41l-.08-.08-.08-.08c-3.34-3.3-7.77-5.12-12.46-5.12-9.76,0-17.7,7.94-17.7,17.7,0,4.73,1.84,9.16,5.17,12.5M68.81,193.39c3.33,3.35,7.77,5.19,12.52,5.19s9.17-1.84,12.51-5.18l.03-.03.03-.03c3.3-3.34,5.12-7.77,5.12-12.46s-1.8-9.07-5.07-12.41l-.08-.08-.08-.08c-3.34-3.3-7.77-5.12-12.46-5.12-9.76,0-17.7,7.94-17.7,17.7,0,4.73,1.84,9.17,5.17,12.5M324.89,126.22H73.8c-37.1,0-67.3,30.19-67.3,67.3v251.09c0,37.16,30.23,67.39,67.38,67.39h251.09c37.12,0,67.32-30.23,67.32-67.39v-251.09c0-37.11-30.24-67.3-67.4-67.3h0ZM164.59,185.58c-1.29,0-2.47-.52-3.32-1.37s-1.38-2.03-1.38-3.32c0-2.6,2.11-4.7,4.7-4.7,1.29,0,2.47.53,3.32,1.37.85.86,1.38,2.03,1.38,3.33s-.53,2.47-1.38,3.32-2.03,1.37-3.32,1.37h0ZM122.8,185.58c-1.3,0-2.48-.52-3.32-1.37-.86-.85-1.38-2.03-1.38-3.32,0-2.6,2.1-4.7,4.7-4.7,1.3,0,2.47.53,3.32,1.37.84.86,1.37,2.03,1.37,3.33s-.53,2.47-1.37,3.32c-.85.85-2.02,1.37-3.32,1.37h0ZM81.34,185.58c-1.3,0-2.48-.52-3.32-1.37-.86-.85-1.38-2.03-1.38-3.32,0-2.6,2.1-4.7,4.7-4.7,1.3,0,2.47.53,3.32,1.37.84.86,1.37,2.03,1.37,3.33s-.53,2.47-1.37,3.32c-.85.85-2.02,1.37-3.32,1.37h0ZM73.88,497.96c-29.41,0-53.35-23.93-53.35-53.35v-208.5h357.71v208.5c0,29.42-23.89,53.35-53.27,53.35H73.88Z"/>
        </g>
        <g>
          <path class="cls-1" d="M199.69,455.59c-48.93,0-88.74-39.85-88.74-88.82s39.81-88.74,88.74-88.74,88.82,39.81,88.82,88.74-39.85,88.82-88.82,88.82ZM199.69,279.06c-48.35,0-87.69,39.34-87.69,87.7s39.34,87.77,87.69,87.77,87.78-39.37,87.78-87.77-39.38-87.7-87.78-87.7Z"/>
          <path d="M199.69,271.52c-52.51,0-95.24,42.72-95.24,95.24s42.73,95.32,95.24,95.32,95.32-42.76,95.32-95.32-42.76-95.24-95.32-95.24h0ZM199.69,448.04c-44.77,0-81.19-36.46-81.19-81.27s36.43-81.2,81.19-81.2,81.28,36.43,81.28,81.2-36.47,81.27-81.28,81.27h0Z"/>
        </g>
        <g>
          <path class="cls-1" d="M199.69,414.16c-26.09,0-47.32-21.26-47.32-47.4,0-.28.24-.52.51-.52h93.69c.28,0,.52.24.52.52,0,26.14-21.27,47.4-47.41,47.4ZM154.39,376.37c4.46,21.28,23.52,36.75,45.3,36.75s40.91-15.47,45.4-36.79l1.88-9.04h-94.54l1.97,9.08Z"/>
          <path d="M246.57,359.74h-93.69c-3.86,0-7.01,3.15-7.01,7.02,0,29.72,24.14,53.9,53.82,53.9s53.91-24.17,53.91-53.9c0-3.87-3.15-7.02-7.02-7.02h0ZM199.69,406.62c-18.72,0-35.1-13.31-38.95-31.63l-.26-1.2h78.49l-.25,1.2c-3.85,18.32-20.27,31.63-39.04,31.63h0Z"/>
        </g>
        <g>
          <path class="cls-1" d="M301.33,34.64c-.11,0-.24-.02-.39-.17-.09-.09-.14-.2-.14-.35,0-.14.05-.26.15-.36,17.57-17.58,40.95-27.26,65.85-27.26s48.27,9.68,65.84,27.26c.11.11.15.22.15.36s-.05.26-.15.37c-.1.1-.23.15-.37.15s-.27-.05-.37-.15c-17.37-17.37-40.49-26.94-65.1-26.94s-47.73,9.57-65.11,26.94c-.11.11-.22.15-.37.15Z"/>
          <path d="M366.81,0c-26.63,0-51.65,10.36-70.45,29.16-1.32,1.32-2.06,3.09-2.06,4.96s.73,3.64,2.06,4.97c1.33,1.33,3.09,2.06,4.97,2.06s3.64-.73,4.97-2.06c16.15-16.15,37.63-25.04,60.51-25.04s44.35,8.89,60.5,25.04c1.37,1.37,3.17,2.05,4.97,2.05s3.6-.68,4.97-2.05c1.32-1.32,2.06-3.09,2.06-4.97s-.73-3.63-2.06-4.96C418.45,10.36,393.43,0,366.81,0h0Z"/>
        </g>
        <g>
          <path class="cls-1" d="M402.92,64.01c-.15,0-.27-.05-.37-.15-9.52-9.54-22.22-14.79-35.73-14.79s-26.22,5.25-35.75,14.79c-.04.04-.15.15-.36.15-.15,0-.27-.05-.37-.15-.09-.09-.15-.18-.15-.37s.06-.28.14-.35c9.74-9.74,22.7-15.1,36.5-15.1s26.76,5.36,36.49,15.08c.19.19.19.55,0,.75-.13.12-.25.14-.36.14Z"/>
          <path d="M366.81,41.53c-14.88,0-29.75,5.66-41.07,16.99-1.33,1.32-2.06,3.09-2.06,4.97s.72,3.64,2.06,4.97c1.37,1.37,3.17,2.05,4.97,2.05s3.59-.69,4.96-2.05c8.31-8.31,19.37-12.89,31.15-12.89h.01c11.78,0,22.84,4.58,31.14,12.89,1.32,1.32,3.09,2.06,4.97,2.06s3.63-.73,4.97-2.06c2.73-2.74,2.73-7.2,0-9.93-11.33-11.32-26.21-16.99-41.08-16.99h0Z"/>
        </g>
        <g>
          <path class="cls-1" d="M373.52,93.36c-.08,0-.19-.02-.32-.14-1.76-1.72-4.01-2.65-6.39-2.65s-4.67.94-6.38,2.65c-.07.07-.17.14-.37.14-.15,0-.27-.05-.37-.15-.11-.11-.15-.22-.15-.37s.05-.26.15-.37c1.9-1.89,4.42-2.94,7.12-2.94s5.23,1.04,7.12,2.94c.05.05.16.16.16.37,0,.15-.05.28-.16.39-.08.08-.17.14-.37.14h-.04Z"/>
          <path d="M366.8,83.03c-4.24,0-8.48,1.61-11.72,4.84-1.32,1.32-2.06,3.09-2.06,4.97s.73,3.64,2.06,4.97c1.32,1.32,3.09,2.06,4.97,2.06s3.64-.72,4.97-2.05c.49-.49,1.13-.74,1.79-.74s1.29.25,1.8.74c1.32,1.32,3.06,2.05,4.91,2.05.03,0,.05,0,.08,0,1.88,0,3.62-.73,4.95-2.06,2.73-2.75,2.73-7.21-.02-9.93-3.23-3.23-7.47-4.84-11.72-4.84h0Z"/>
        </g>
      </g>
    </g>
  </g>
</svg>