<?xml version="1.0" encoding="UTF-8"?>
<svg id="Layer_2" xmlns="http://www.w3.org/2000/svg" viewBox="0 0 385.93 525">
  <defs>
    <style>
      .cls-1 {
        fill: #00b2ca;
      }
    </style>
  </defs>
  <g id="Layer_2-2" data-name="Layer_2">
    <g id="brand">
      <g>
        <g>
          <path class="cls-1" d="M101.52,512c-23.31,0-42.27-18.9-42.27-42.12l.06-53.4-22.11,11.6c-.89.47-1.82.7-2.79.7-1.27,0-2.51-.41-3.58-1.19-1.88-1.36-2.75-3.51-2.35-5.79l4.17-24.49-17.82-17.34c-1.63-1.61-2.23-3.99-1.53-6.16.71-2.17,2.58-3.74,4.87-4.07l24.68-3.62,11.08-22.34c.45-.94,1.2-1.77,2.19-2.4l3.33-2.16.16-146.12c.04-12.31,5.45-23.99,14.84-32.05l91.89-78.31c6.84-5.84,15.12-9.34,23.95-10.13l6.61-.58v-32.73c0-14.51,11.92-26.31,26.57-26.31s26.51,11.8,26.51,26.31v67.61l63.18,53.84c9.39,7.98,14.78,19.65,14.78,32.03l-.22,146.95,2.67,2.18c.84.69,1.41,1.34,1.72,1.97l10.96,22.23,24.68,3.6c1.13.16,2.17.63,3.04,1.35.85.71,1.5,1.68,1.87,2.79.69,2.14.1,4.46-1.59,6.12l-17.8,17.31,4.18,24.46c.41,2.3-.47,4.46-2.35,5.82-1.08.79-2.31,1.2-3.56,1.2h0c-.97,0-1.91-.24-2.79-.71l-21.11-11.08-.06,52.55c-.04,23.24-19.08,42.19-42.45,42.23l-183.52.21h-.09ZM60.28,469.92c0,11,4.3,21.32,12.1,29.07,7.79,7.71,18.15,11.96,29.18,11.96l183.58-.2c22.82-.07,41.38-18.55,41.38-41.18l.08-52.98-21.95,11.48c-.9.48-1.85.71-2.83.71-1.27,0-2.51-.4-3.58-1.17-1.83-1.34-2.72-3.54-2.32-5.81l4.24-24.48-17.84-17.35c-1.69-1.64-2.26-3.92-1.54-6.09.73-2.29,2.53-3.81,4.84-4.14l24.67-3.6,11.03-22.24c.5-.99,1.21-1.8,2.19-2.46l3.18-2.12.21-146.57c0-12.01-5.26-23.37-14.42-31.17l-91.65-78.12c-3.97-3.35-8.4-5.88-13.22-7.55l-9.64-3.37v101.02l5.3,1.47c3.72,1.06,7.22,2.86,10.36,5.35,6.3,5.01,10.27,12.17,11.15,20.15.86,7.93-1.44,15.75-6.49,21.99-5.77,7.17-14.4,11.28-23.68,11.28-6.92,0-13.42-2.26-18.8-6.54-6.33-5.03-10.3-12.21-11.18-20.2-.88-7.97,1.41-15.8,6.46-22.05,4.82-6.03,11.75-9.89,19.51-10.9l6.32-.87v-100.33l-8.19,1.06c-8.12,1.06-15.63,4.36-21.73,9.57l-91.86,78.32c-9.21,7.88-14.48,19.27-14.48,31.25l-.15,146.64,2.58,2.28c.74.62,1.22,1.2,1.52,1.81l11.05,22.29,24.67,3.61c2.32.34,4.12,1.85,4.82,4.06.75,2.25.18,4.53-1.51,6.17l-17.83,17.36,4.22,24.47c.41,2.29-.47,4.44-2.33,5.79-1.09.79-2.33,1.2-3.61,1.2-.96,0-1.89-.23-2.76-.69l-20.96-10.96-.06,52.79ZM194.66,174.81c-8.91,0-17.22,3.94-22.79,10.82-4.88,6.03-7.1,13.59-6.26,21.28.86,7.73,4.69,14.66,10.8,19.51,5.12,4.08,11.58,6.34,18.18,6.34,8.93,0,17.28-3.96,22.89-10.87,4.88-6.08,7.09-13.63,6.23-21.3-.43-3.81-1.58-7.43-3.43-10.77-1.83-3.3-4.29-6.2-7.32-8.62-5.17-4.13-11.67-6.4-18.29-6.4ZM223.47,14.05c-14.07,0-25.52,11.33-25.52,25.26v33.02l5.59,1.33c6.59,1.5,12.78,4.62,17.97,9.04l27.43,23.36V39.31c0-13.93-11.42-25.26-25.47-25.26Z"/>
          <path d="M326.71,347.64l9.02,18.3,3.02,6.13,6.76.99,20.33,2.97-14.65,14.25-4.9,4.77,1.15,6.74,3.43,20.08-10.71-5.62-7.06-3.7v-6.69s-6.38,3.34-6.38,3.34l-5.57-2.92v5.84s-7.09,3.71-7.09,3.71l-11.56,6.04,3.47-20.05,1.17-6.76-4.92-4.78-14.65-14.25,20.28-2.96,6.74-.98,3.03-6.1,9.09-18.33M59.25,347.68l9.06,18.28,3.03,6.1,6.74.99,20.28,2.97-14.65,14.26-4.91,4.78,1.17,6.75,3.46,20.05-10.56-5.52-7.05-3.68v-6.93s-6.61,3.48-6.61,3.48l-5.34-2.79v5.59s-7.11,3.73-7.11,3.73l-11.69,6.14,3.42-20.08,1.15-6.74-4.9-4.77-14.64-14.24,20.33-2.98,6.74-.99,3.02-6.1,9.07-18.29M223.47,6.5c-18.23,0-33.07,14.71-33.07,32.81v26.78l-.68.06c-10.18.9-19.72,4.92-27.59,11.65l-91.91,78.32c-10.82,9.29-17.06,22.77-17.11,36.98l-.16,142.59-.34.22c-2.01,1.28-3.58,3.04-4.55,5.08l-9.52,19.2-21.29,3.12c-4.74.68-8.63,3.94-10.13,8.5-1.46,4.53-.24,9.44,3.18,12.82l15.38,14.95-3.59,21.08c-.83,4.71,1.05,9.38,4.93,12.18,2.22,1.61,4.81,2.43,7.4,2.43,1.98,0,3.97-.48,5.81-1.45l12.58-6.6-.05,42.65c0,26.81,21.87,48.62,48.77,48.62h.1l183.52-.21c26.93-.05,48.88-21.9,48.93-48.72l.05-41.81,11.58,6.08c1.85.98,3.85,1.46,5.84,1.46,2.59,0,5.17-.82,7.37-2.43,3.88-2.81,5.78-7.47,4.94-12.18l-3.6-21.09,15.38-14.95c3.43-3.38,4.64-8.28,3.19-12.82-.76-2.28-2.11-4.24-3.85-5.71-1.76-1.47-3.91-2.47-6.28-2.81l-21.3-3.11-9.46-19.19c-.73-1.47-1.86-2.82-3.43-4.11l-.28-.23.21-143.87c0-14.29-6.22-27.77-17.06-36.98l-60.9-51.89V39.31c0-18.09-14.8-32.81-33.01-32.81h0ZM242.43,91.98l-16.71-14.23c-5.99-5.1-13.15-8.71-20.68-10.42l-.59-.14v-27.88c0-10.34,8.53-18.75,19.02-18.75s18.97,8.42,18.97,18.75v52.68h0ZM84.07,435.28c2.6,0,5.18-.82,7.41-2.43,3.88-2.8,5.77-7.46,4.93-12.17l-3.64-21.09,15.38-14.96c3.47-3.37,4.69-8.27,3.18-12.81-1.45-4.56-5.32-7.82-10.07-8.52l-21.3-3.12-9.51-19.18c-.7-1.45-1.75-2.75-3.19-3.96l-.26-.23.15-143.71c0-10.08,4.44-19.67,12.2-26.31l91.86-78.32c5.14-4.38,11.48-7.17,18.34-8.06l.85-.11v87.27l-.65.09c-9.45,1.22-17.87,5.94-23.73,13.26-6.15,7.61-8.94,17.15-7.86,26.85,1.07,9.73,5.91,18.45,13.6,24.57,6.74,5.35,14.82,7.96,22.85,7.96,10.79,0,21.48-4.69,28.73-13.69,6.15-7.6,8.95-17.11,7.89-26.79-1.07-9.71-5.89-18.42-13.58-24.53-3.82-3.02-8.07-5.21-12.66-6.51l-.54-.15v-86.92l1,.35c4.04,1.4,7.79,3.54,11.13,6.36l91.66,78.12c7.71,6.56,12.14,16.11,12.14,26.21l-.2,143.09-.33.22c-1.9,1.28-3.36,2.95-4.36,4.95l-9.52,19.19-21.29,3.11c-4.76.69-8.62,3.95-10.07,8.52-1.51,4.53-.3,9.44,3.17,12.81l15.39,14.96-3.65,21.08c-.83,4.7,1.06,9.39,4.94,12.24,2.21,1.58,4.78,2.38,7.36,2.38,2,0,4-.48,5.84-1.45l12.43-6.5-.06,42.23c0,19.07-15.65,34.62-34.88,34.68l-183.57.2c-9.31,0-18.04-3.57-24.6-10.07-6.56-6.52-10.18-15.2-10.18-24.45l.05-42.07,11.43,5.98c1.83.97,3.82,1.45,5.8,1.45h0ZM194.59,226.26c-4.97,0-9.97-1.6-14.13-4.92-4.74-3.77-7.72-9.16-8.38-15.13-.65-5.95,1.06-11.8,4.84-16.48,4.49-5.54,11.09-8.41,17.74-8.41,5,0,10.04,1.63,14.23,4.97,2.36,1.89,4.28,4.15,5.7,6.7,1.41,2.55,2.33,5.38,2.66,8.33.66,5.93-1.04,11.78-4.81,16.48-4.52,5.57-11.16,8.47-17.84,8.47h0Z"/>
        </g>
        <g>
          <path class="cls-1" d="M156.81,421.14c-1.81,0-3.55-.58-5.03-1.66-2.69-1.95-3.99-5.17-3.43-8.43l6.19-36.12-26.42-25.9c-2.39-2.33-3.23-5.72-2.22-8.87,1.04-3.14,3.7-5.39,6.94-5.83l36.43-5.32,16.58-33.06c1.48-2.98,4.43-4.81,7.73-4.81s6.3,1.83,7.75,4.77l16.26,32.91,36.65,5.49c3.35.46,6.01,2.69,7.02,5.83,1.01,3.15.17,6.55-2.21,8.88l-23.95,23.27-.74.99-.23.42c-.2.36-.34.71-.45,1l-.81,1.7,6,34.64c.53,3.24-.78,6.48-3.44,8.4-1.51,1.1-3.28,1.68-5.11,1.68-1.41,0-2.77-.34-4.05-1l-32.46-17.04-32.93,17.04c-1.28.66-2.69,1.01-4.08,1.01Z"/>
          <path d="M193.59,297.63c.87,0,1.56.41,1.92,1.15l14.75,29.87,3.01,6.09,6.72,1.01,33.29,4.98h.08s.08.02.08.02c.82.11,1.39.59,1.64,1.37.26.81.06,1.63-.54,2.21l-23.6,22.93-.73.71-.61.82-.15.2-.58.77-.46.85c-.27.5-.5,1-.71,1.52l-1.59,3.32.71,4.09,5.63,32.52c.13.86-.17,1.63-.86,2.12-.39.28-.82.43-1.27.43-.35,0-.7-.09-1.04-.26l-29.45-15.46-6-3.15-6.02,3.12-29.92,15.48c-.37.19-.73.28-1.09.28-.42,0-.82-.13-1.18-.4l-.04-.03-.04-.03c-.66-.48-.94-1.2-.8-2.04l5.62-32.76,1.15-6.71-4.86-4.77-24.01-23.54c-.6-.59-.81-1.38-.57-2.17.17-.49.61-1.29,1.65-1.43h.06s.06-.02.06-.02l33.02-4.82,6.7-.98,3.04-6.05,15.06-30.03v-.03s.03-.03.03-.03c.37-.76,1.05-1.17,1.89-1.17M193.59,284.63c-5.79,0-10.97,3.22-13.54,8.4l-15.06,30.03-33.02,4.82c-5.72.78-10.41,4.72-12.25,10.28-1.78,5.51-.3,11.45,3.85,15.51l23.99,23.52-5.62,32.76c-.98,5.72,1.3,11.37,5.98,14.76,2.64,1.95,5.75,2.93,8.89,2.93,2.4,0,4.82-.58,7.07-1.74l29.92-15.49,29.5,15.49c2.23,1.15,4.64,1.72,7.03,1.72,3.14,0,6.26-.98,8.92-2.92,4.66-3.38,6.97-9.05,6.03-14.77l-5.65-32.6.11-.23c.02-.07.04-.18.11-.31l.15-.2,23.6-22.93c4.14-4.05,5.63-10,3.85-15.52-1.79-5.55-6.48-9.48-12.25-10.27l-33.29-4.98-14.75-29.87c-2.56-5.18-7.76-8.4-13.58-8.4h0Z"/>
        </g>
      </g>
    </g>
  </g>
</svg>