<?xml version="1.0" encoding="UTF-8"?>
<svg id="Layer_2" xmlns="http://www.w3.org/2000/svg" viewBox="0 0 328.71 525">
  <defs>
    <style>
      .cls-1 {
        fill: #00b2ca;
      }
    </style>
  </defs>
  <g id="Layer_2-2" data-name="Layer_2">
    <g id="Brand">
      <g>
        <g>
          <path class="cls-1" d="M91.19,512c-24.69,0-44.78-20.09-44.78-44.78v-65.32l-5.22-1.66c-16.84-5.5-28.19-21.16-28.19-38.95v-197.49c0-17.78,11.36-33.47,28.26-39.05l5.16-1.72V57.78c0-24.69,20.09-44.78,44.78-44.78h123.36c24.69,0,44.78,20.09,44.78,44.78v65.22l5.1,1.72c16.95,5.6,28.31,21.29,28.31,39.07v98.18h22.44c.29,0,.53.24.53.53s-.24.53-.53.53h-22.44v98.26c0,17.79-11.35,33.45-28.24,38.97l-5.17,1.65v65.32c0,24.69-20.09,44.78-44.78,44.78h-123.36ZM54.09,123.68c-22.07,0-40.03,17.99-40.03,40.11v197.49c0,22.07,17.96,40.03,40.03,40.03h197.57c22.07,0,40.03-17.96,40.03-40.03v-197.49c0-22.12-17.96-40.11-40.03-40.11H54.09Z"/>
          <path d="M214.55,19.5c21.11,0,38.28,17.17,38.28,38.28v59.42c-.39,0-.78-.01-1.18-.01H54.09c-.39,0-.78,0-1.18.01v-59.42c0-21.11,17.17-38.28,38.28-38.28h123.36M52.91,407.8c.39,0,.78.01,1.18.01h197.57c.39,0,.78,0,1.18-.01v59.42c0,21.11-17.17,38.28-38.28,38.28h-123.36c-21.11,0-38.28-17.17-38.28-38.28v-59.42M214.55,6.5h-123.36c-28.28,0-51.28,23-51.28,51.28v60.56l-.69.23c-19.58,6.47-32.72,24.65-32.72,45.23v197.49c0,20.61,13.14,38.75,32.72,45.15l.69.22v60.57c0,28.27,23,51.28,51.28,51.28h123.36c28.27,0,51.28-23.01,51.28-51.28v-60.57l.69-.22c19.57-6.4,32.72-24.54,32.72-45.15v-91.76h15.94c3.88,0,7.03-3.15,7.03-7.03s-3.15-7.03-7.03-7.03h-15.94v-91.68c0-20.58-13.15-38.76-32.73-45.23l-.68-.23v-60.56c0-28.28-23.01-51.28-51.28-51.28h0ZM54.09,394.82c-18.49,0-33.53-15.05-33.53-33.53v-197.49c0-18.53,15.04-33.61,33.53-33.61h197.57c18.48,0,33.53,15.08,33.53,33.61v197.49c0,18.48-15.05,33.53-33.53,33.53H54.09Z"/>
        </g>
        <g>
          <path class="cls-1" d="M73.11,246.79c-.15,0-.27-.05-.37-.15-.2-.2-.2-.54,0-.75,21.38-21.38,49.85-33.15,80.19-33.16,30.29,0,58.72,11.76,80.06,33.11.12.12.17.23.17.37,0,.12-.03.24-.17.37-.04.04-.15.15-.36.15-.15,0-.27-.05-.37-.15-21.15-21.15-49.34-32.8-79.37-32.8-14.94,0-29.41,2.86-43.02,8.5-13.61,5.63-25.85,13.82-36.38,24.36-.1.1-.23.15-.37.15Z"/>
          <path d="M152.92,206.23c-32.1,0-62.18,12.47-84.78,35.07-2.74,2.74-2.74,7.2,0,9.94,1.37,1.37,3.17,2.06,4.97,2.06s3.6-.69,4.97-2.06c9.97-9.97,21.6-17.71,34.27-22.95,12.67-5.25,26.38-8,40.53-8,28.31,0,54.84,10.97,74.77,30.9,1.37,1.37,3.17,2.06,4.97,2.06s3.6-.69,4.96-2.06c1.34-1.34,2.07-3.09,2.07-4.97s-.73-3.64-2.07-4.97c-22.57-22.58-52.65-35.02-84.66-35.02h0Z"/>
        </g>
        <g>
          <path class="cls-1" d="M103.22,276.91c-.22,0-.33-.11-.37-.15-.09-.09-.15-.18-.15-.37,0-.16.04-.26.16-.37,13.34-13.34,31.11-20.69,50.02-20.7,18.93,0,36.68,7.34,50.01,20.66.11.1.15.22.15.37s-.05.27-.15.37c-.14.13-.26.15-.37.15-.15,0-.27-.05-.37-.15-13.12-13.12-30.61-20.35-49.26-20.35-18.63.01-36.13,7.25-49.27,20.4-.1.1-.23.15-.38.15Z"/>
          <path d="M152.92,248.81h-.05c-20.65.01-40.05,8.04-54.61,22.61-1.34,1.33-2.06,3.09-2.06,4.97s.72,3.64,2.06,4.97c1.37,1.37,3.17,2.06,4.97,2.06s3.6-.69,4.97-2.06c11.92-11.92,27.78-18.48,44.67-18.49,16.93,0,32.77,6.55,44.66,18.44,1.33,1.33,3.09,2.06,4.97,2.06s3.63-.73,4.97-2.06c1.33-1.33,2.06-3.09,2.06-4.97s-.73-3.64-2.06-4.97c-14.56-14.55-33.92-22.56-54.55-22.56h0Z"/>
        </g>
        <g>
          <path class="cls-1" d="M133.35,307.03c-.15,0-.27-.05-.37-.15-.09-.09-.15-.18-.15-.37,0-.16.04-.26.15-.37,5.32-5.32,12.4-8.25,19.94-8.25s14.56,2.91,19.85,8.2c.11.11.15.21.15.36s-.05.27-.16.37c-.11.11-.21.15-.37.15-.19,0-.29-.07-.36-.14-5.11-5.1-11.89-7.9-19.11-7.9s-14.08,2.82-19.2,7.95c-.1.1-.23.15-.37.15Z"/>
          <path d="M152.91,291.38c-8.88,0-17.77,3.38-24.54,10.15-1.34,1.33-2.06,3.09-2.06,4.97s.72,3.64,2.06,4.97c1.37,1.37,3.17,2.06,4.97,2.06s3.6-.69,4.97-2.06c4.03-4.03,9.32-6.04,14.6-6.04,5.26,0,10.51,1.99,14.5,5.98,1.33,1.33,3.09,2.06,4.97,2.06s3.63-.72,4.97-2.06c1.33-1.33,2.06-3.09,2.06-4.97s-.73-3.63-2.06-4.96c-6.75-6.74-15.59-10.1-24.45-10.1h0Z"/>
        </g>
      </g>
    </g>
  </g>
</svg>