<svg xmlns="http://www.w3.org/2000/svg" width="50" height="50" viewBox="0 0 50 50">
  <g id="dummy_placeholder" transform="translate(10921 -16040)">
    <rect id="Rectangle_1230" data-name="Rectangle 1230" width="50" height="50" transform="translate(-10921 16040)" fill="#fff"/>
    <g id="logo" transform="translate(-10910.231 16046.679)">
      <path id="Path_304" data-name="Path 304" d="M2.034,229.344a2.034,2.034,0,0,1-1.585-3.307l3.613-4.5a2.034,2.034,0,1,1,3.173,2.545l-3.613,4.5a2.03,2.03,0,0,1-1.588.762Z" transform="translate(-0.001 -192.702)" fill="#00b2ca"/>
      <path id="Path_305" data-name="Path 305" d="M82.474,76.259a7.154,7.154,0,1,1,5.448-11.791,1.526,1.526,0,0,1-.117,2.1l-2.826,2.655A1.526,1.526,0,0,1,82.89,67l1.578-1.482a4.1,4.1,0,1,0,1.139,6.236,1.525,1.525,0,0,1,2.328,1.972,7.145,7.145,0,0,1-5.462,2.533Z" transform="translate(-65.744 -54.074)" fill="#fb6f55"/>
      <path id="Path_306" data-name="Path 306" d="M27.607,29.914A14.957,14.957,0,1,1,39,5.262,2.035,2.035,0,0,1,35.9,7.9a10.889,10.889,0,1,0,.019,14.089,2.034,2.034,0,1,1,3.1,2.629,14.936,14.936,0,0,1-11.417,5.294Z" transform="translate(-11.042)" fill="#00b2ca"/>
    </g>
  </g>
</svg>
