<?xml version="1.0" encoding="UTF-8"?>
<svg id="Layer_2" data-name="Layer 2" xmlns="http://www.w3.org/2000/svg" viewBox="0 0 525 434.65">
  <defs>
    <style>
      .cls-1 {
        fill: #00b2ca;
      }
    </style>
  </defs>
  <g id="Bottom_navigation" data-name="Bottom navigation">
    <g id="Brand">
      <g>
        <g>
          <path class="cls-1" d="M303.24,421.65c-5.08,0-10.04-1.45-14.32-4.19-1.07-.69-2.29-1.02-3.5-1.02-1.64,0-3.27.62-4.52,1.82-2.26,2.18-5.23,3.38-8.37,3.38h-113.44c-6.66,0-12.07-5.42-12.07-12.07,0-15.24,12.4-27.63,27.63-27.63h3.51c3.59,0,6.5-2.91,6.5-6.5v-22.59c0-3.59-2.91-6.5-6.5-6.5h-113.95c-28.25,0-51.23-22.98-51.23-51.23V64.23c0-28.25,22.98-51.23,51.23-51.23h421.06c14.73,0,26.71,11.98,26.71,26.71v355.22c0,14.73-11.98,26.71-26.71,26.71h-182.05ZM285.09,384c-3.59,0-6.5,2.91-6.5,6.5v4.43c0,13.59,11.06,24.65,24.65,24.65h182.05c13.59,0,24.65-11.06,24.65-24.65v-4.43c0-3.59-2.91-6.5-6.5-6.5h-218.35ZM174.66,384c-16.52,0-25.66,14.39-25.66,24.34,0,2.77.72,5.25,2.09,7.18,1.84,2.59,4.76,4.07,8.01,4.07h113.44c2.46,0,4.82-.9,6.66-2.54,2.35-2.09,2.86-5.56,1.22-8.24-2.43-3.98-3.77-8.57-3.88-13.27-.04-1.74-.77-3.39-2.04-4.59-4.76-4.48-10.99-6.95-17.53-6.95h-82.32ZM253.46,346.35c-3.59,0-6.5,2.91-6.5,6.5v22.59c0,3.59,2.91,6.5,6.5,6.5h3.51c3.65,0,7.21.7,10.57,2.09.8.33,1.64.49,2.48.49,1.27,0,2.53-.37,3.61-1.1,1.8-1.21,2.89-3.23,2.89-5.4v-25.17c0-3.59-2.91-6.5-6.5-6.5h-16.56ZM285.09,346.35c-3.59,0-6.5,2.91-6.5,6.5v22.59c0,3.59,2.91,6.5,6.5,6.5h218.35c3.59,0,6.5-2.91,6.5-6.5v-22.59c0-3.59-2.91-6.5-6.5-6.5h-218.35ZM193.23,346.35c-3.59,0-6.5,2.91-6.5,6.5v22.59c0,3.59,2.91,6.5,6.5,6.5h45.18c3.59,0,6.5-2.91,6.5-6.5v-22.59c0-3.59-2.91-6.5-6.5-6.5h-45.18ZM303.24,15.06c-13.59,0-24.65,11.06-24.65,24.65v298.08c0,3.59,2.91,6.5,6.5,6.5h218.35c3.59,0,6.5-2.91,6.5-6.5V39.71c0-13.59-11.06-24.65-24.65-24.65h-182.05ZM64.23,15.06c-27.11,0-49.17,22.06-49.17,49.17v230.9c0,27.11,22.06,49.17,49.17,49.17h205.8c3.59,0,6.5-2.91,6.5-6.5v-75.29c0-3.59-2.91-6.5-6.5-6.5H64.23c-11.64,0-21.11-9.47-21.11-21.11V64.23c0-11.64,9.47-21.11,21.11-21.11h205.95c3.36,0,6.16-2.56,6.47-5.9.4-4.29,1.86-8.48,4.24-12.1,1.31-2,1.42-4.55.28-6.65-1.14-2.1-3.33-3.41-5.72-3.41H64.23Z"/>
          <path d="M272.09,49.48v200.18c-.67-.11-1.36-.16-2.06-.16H64.23c-8.05,0-14.61-6.55-14.61-14.61V64.23c0-8.05,6.55-14.61,14.61-14.61h205.95c.65,0,1.29-.05,1.91-.14M485.29,6.5H64.23c-31.83,0-57.73,25.9-57.73,57.73v230.9c0,31.83,25.9,57.73,57.73,57.73h113.94v22.59h-3.51c-18.87,0-34.13,15.26-34.13,34.13,0,10.24,8.33,18.57,18.57,18.57h113.44c5.04,0,9.56-2,12.88-5.21,5.15,3.29,11.27,5.21,17.82,5.21h182.04c18.31,0,33.21-14.9,33.21-33.21V39.71c0-18.31-14.9-33.21-33.21-33.21h0ZM285.09,337.79V39.71c0-10.01,8.14-18.15,18.15-18.15h182.04c10.01,0,18.15,8.14,18.15,18.15v298.08h-218.35ZM64.23,337.79c-23.53,0-42.67-19.14-42.67-42.67V64.23c0-23.53,19.14-42.67,42.67-42.67h211.23c-2.89,4.41-4.76,9.54-5.27,15.06H64.23c-15.22,0-27.61,12.39-27.61,27.61v170.67c0,15.22,12.39,27.61,27.61,27.61h205.8v75.29H64.23ZM285.09,375.44v-22.59h218.35v22.59h-218.35ZM253.46,375.44v-22.59h16.56v25.17c-4.08-1.69-8.5-2.59-13.05-2.59h-3.51ZM193.23,375.44v-22.59h45.18v22.59h-45.18ZM303.24,413.09c-10.01,0-18.15-8.14-18.15-18.15v-2.21h0v-2.23h218.35v4.43c0,10.01-8.14,18.15-18.15,18.15h-182.04ZM159.1,413.09c-8.2,0-2.13-22.59,15.56-22.59h82.32c4.91,0,9.55,1.87,13.07,5.19.13,6.03,1.88,11.68,4.83,16.51-.62.55-1.43.89-2.34.89h-113.44Z"/>
        </g>
        <g>
          <path class="cls-1" d="M385.35,82.82c-6.03,0-10.94-4.91-10.94-10.94v-10.29c0-6.03,4.91-10.94,10.94-10.94h17.82c6.03,0,10.94,4.91,10.94,10.94v10.29c0,6.03-4.91,10.94-10.94,10.94h-17.82ZM385.35,52.71c-4.9,0-8.88,3.99-8.88,8.88v10.29c0,4.9,3.99,8.88,8.88,8.88h17.82c4.9,0,8.88-3.99,8.88-8.88v-10.29c0-4.9-3.99-8.88-8.88-8.88h-17.82Z"/>
          <path d="M403.17,44.15h-17.82c-9.62,0-17.44,7.82-17.44,17.44v10.29c0,9.62,7.82,17.44,17.44,17.44h17.82c9.62,0,17.44-7.82,17.44-17.44v-10.29c0-9.62-7.82-17.44-17.44-17.44h0ZM385.35,74.26c-1.32,0-2.38-1.07-2.38-2.38v-10.29c0-1.32,1.07-2.38,2.38-2.38h17.82c1.32,0,2.38,1.07,2.38,2.38v10.29c0,1.31-1.07,2.38-2.38,2.38h-17.82Z"/>
        </g>
        <g>
          <path class="cls-1" d="M453.12,82.82c-6.03,0-10.94-4.91-10.94-10.94v-10.29c0-6.03,4.91-10.94,10.94-10.94h17.82c6.03,0,10.94,4.91,10.94,10.94v10.29c0,6.03-4.91,10.94-10.94,10.94h-17.82ZM453.12,52.71c-4.9,0-8.88,3.99-8.88,8.88v10.29c0,4.9,3.99,8.88,8.88,8.88h17.82c4.9,0,8.88-3.99,8.88-8.88v-10.29c0-4.9-3.99-8.88-8.88-8.88h-17.82Z"/>
          <path d="M470.94,44.15h-17.82c-9.62,0-17.44,7.82-17.44,17.44v10.29c0,9.62,7.82,17.44,17.44,17.44h17.82c9.62,0,17.44-7.82,17.44-17.44v-10.29c0-9.62-7.82-17.44-17.44-17.44h0ZM453.12,74.26c-1.31,0-2.38-1.07-2.38-2.38v-10.29c0-1.32,1.07-2.38,2.38-2.38h17.82c1.31,0,2.38,1.07,2.38,2.38v10.29c0,1.31-1.07,2.38-2.38,2.38h-17.82Z"/>
        </g>
        <g>
          <path class="cls-1" d="M317.59,82.82c-6.03,0-10.94-4.91-10.94-10.94v-10.29c0-6.03,4.91-10.94,10.94-10.94h17.82c6.03,0,10.94,4.91,10.94,10.94v10.29c0,6.03-4.91,10.94-10.94,10.94h-17.82ZM317.59,52.71c-4.9,0-8.88,3.99-8.88,8.88v10.29c0,4.9,3.99,8.88,8.88,8.88h17.82c4.9,0,8.88-3.99,8.88-8.88v-10.29c0-4.9-3.99-8.88-8.88-8.88h-17.82Z"/>
          <path d="M335.41,44.15h-17.82c-9.62,0-17.44,7.82-17.44,17.44v10.29c0,9.62,7.82,17.44,17.44,17.44h17.82c9.62,0,17.44-7.82,17.44-17.44v-10.29c0-9.62-7.82-17.44-17.44-17.44h0ZM317.59,74.26c-1.32,0-2.38-1.07-2.38-2.38v-10.29c0-1.32,1.07-2.38,2.38-2.38h17.82c1.32,0,2.38,1.07,2.38,2.38v10.29c0,1.31-1.07,2.38-2.38,2.38h-17.82Z"/>
        </g>
        <g>
          <path class="cls-1" d="M322.74,150.59c-8.87,0-16.09-7.22-16.09-16.09s7.22-16.09,16.09-16.09h143.06c8.87,0,16.09,7.22,16.09,16.09s-7.22,16.09-16.09,16.09h-143.06ZM322.74,120.47c-7.74,0-14.03,6.29-14.03,14.03s6.29,14.03,14.03,14.03h143.06c7.74,0,14.03-6.29,14.03-14.03s-6.29-14.03-14.03-14.03h-143.06Z"/>
          <path d="M465.79,111.91h-143.06c-12.45,0-22.59,10.13-22.59,22.59s10.13,22.59,22.59,22.59h143.06c12.46,0,22.59-10.13,22.59-22.59s-10.13-22.59-22.59-22.59h0ZM322.74,142.03c-4.15,0-7.53-3.38-7.53-7.53s3.38-7.53,7.53-7.53h143.06c4.15,0,7.53,3.38,7.53,7.53s-3.38,7.53-7.53,7.53h-143.06Z"/>
        </g>
        <g>
          <path class="cls-1" d="M322.74,210.82c-8.87,0-16.09-7.22-16.09-16.09s7.22-16.09,16.09-16.09h143.06c8.87,0,16.09,7.22,16.09,16.09s-7.22,16.09-16.09,16.09h-143.06ZM322.74,180.71c-7.74,0-14.03,6.29-14.03,14.03s6.29,14.03,14.03,14.03h143.06c7.74,0,14.03-6.29,14.03-14.03s-6.29-14.03-14.03-14.03h-143.06Z"/>
          <path d="M465.79,172.15h-143.06c-12.45,0-22.59,10.13-22.59,22.59s10.13,22.59,22.59,22.59h143.06c12.46,0,22.59-10.13,22.59-22.59s-10.13-22.59-22.59-22.59h0ZM322.74,202.26c-4.15,0-7.53-3.38-7.53-7.53s3.38-7.53,7.53-7.53h143.06c4.15,0,7.53,3.38,7.53,7.53s-3.38,7.53-7.53,7.53h-143.06Z"/>
        </g>
        <g>
          <path class="cls-1" d="M394.26,308.71c-17.17,0-31.15-13.97-31.15-31.15s13.97-31.15,31.15-31.15,31.15,13.97,31.15,31.15-13.97,31.15-31.15,31.15Z"/>
          <path d="M394.26,252.91c13.59,0,24.65,11.06,24.65,24.65s-11.06,24.65-24.65,24.65-24.65-11.06-24.65-24.65,11.06-24.65,24.65-24.65M394.26,239.91c-20.76,0-37.65,16.89-37.65,37.65s16.89,37.65,37.65,37.65,37.65-16.89,37.65-37.65-16.89-37.65-37.65-37.65h0Z"/>
        </g>
      </g>
    </g>
  </g>
</svg>