<?xml version="1.0" encoding="UTF-8"?>
<svg id="Layer_2" data-name="Layer 2" xmlns="http://www.w3.org/2000/svg" viewBox="0 0 498.65 525">
  <defs>
    <style>
      .cls-1 {
        fill: #00b2ca;
      }
    </style>
  </defs>
  <g id="Bottom_navigation" data-name="Bottom navigation">
    <g id="Ports">
      <g>
        <g>
          <path class="cls-1" d="M40.88,512c-15.38,0-27.88-12.51-27.88-27.88V183.94c0-15.38,12.51-27.88,27.88-27.88h10.79c3.59,0,6.5-2.91,6.5-6.5v-16.82c0-7.9,6.43-14.33,14.33-14.33h9.29c3.59,0,6.5-2.91,6.5-6.5v-3.77c0-52.46,42.68-95.15,95.15-95.15s95.15,42.68,95.15,95.15v248.47c0,34.72,28.25,62.97,62.97,62.97s62.97-28.25,62.97-62.97v-132.08c0-3.13-2.24-5.82-5.32-6.39-5.64-1.04-9.74-5.96-9.74-11.69v-19.33c0-3.41-2.63-6.24-6.04-6.48-11.39-.82-20.32-10.41-20.32-21.84v-77.01c0-.57.46-1.03,1.03-1.03h7.53c3.59,0,6.5-2.91,6.5-6.5V30.97c0-9.91,8.06-17.97,17.97-17.97h56.47c9.91,0,17.97,8.06,17.97,17.97v43.29c0,3.59,2.91,6.5,6.5,6.5h7.53c.57,0,1.03.46,1.03,1.03v77.01c0,11.43-8.92,21.02-20.32,21.84-3.4.24-6.04,3.07-6.04,6.48v19.33c0,5.73-4.1,10.65-9.74,11.69-3.08.57-5.32,3.26-5.32,6.39v132.08c0,56.62-46.06,102.68-102.68,102.68s-102.68-46.06-102.68-102.68V108.15c0-30.57-24.87-55.44-55.44-55.44s-55.44,24.87-55.44,55.44v3.77c0,3.59,2.91,6.5,6.5,6.5h9.29c7.9,0,14.33,6.43,14.33,14.33v16.82c0,3.59,2.91,6.5,6.5,6.5h10.79c15.38,0,27.88,12.51,27.88,27.88v300.17c0,15.38-12.51,27.88-27.88,27.88H40.88ZM40.88,158.12c-14.24,0-25.83,11.59-25.83,25.83v300.17c0,14.24,11.59,25.83,25.83,25.83h134.53c14.24,0,25.83-11.59,25.83-25.83V183.94c0-14.24-11.59-25.83-25.83-25.83H40.88ZM183.44,50.65c31.71,0,57.5,25.79,57.5,57.5v248.47c0,55.48,45.14,100.62,100.62,100.62s100.62-45.14,100.62-100.62v-131.76c0-3.59-2.91-6.5-6.5-6.5h-22.59c-3.59,0-6.5,2.91-6.5,6.5v131.76c0,35.86-29.17,65.03-65.03,65.03s-65.03-29.17-65.03-65.03V108.15c0-51.33-41.76-93.09-93.09-93.09s-93.09,41.76-93.09,93.09v3.77c0,3.59,2.91,6.5,6.5,6.5h22.59c3.59,0,6.5-2.91,6.5-6.5v-3.77c0-31.71,25.79-57.5,57.5-57.5ZM398.03,180.71c-3.59,0-6.5,2.91-6.5,6.5v19.24c0,5.43,4.42,9.85,9.85,9.85h46.01c5.43,0,9.85-4.42,9.85-9.85v-19.24c0-3.59-2.91-6.5-6.5-6.5h-52.71ZM72.51,120.47c-6.77,0-12.27,5.51-12.27,12.27v16.82c0,3.59,2.91,6.5,6.5,6.5h82.82c3.59,0,6.5-2.91,6.5-6.5v-16.82c0-6.77-5.51-12.27-12.27-12.27h-71.28ZM396.15,15.06c-8.77,0-15.91,7.14-15.91,15.91v43.29c0,3.59,2.91,6.5,6.5,6.5h75.29c3.59,0,6.5-2.91,6.5-6.5V30.97c0-8.77-7.14-15.91-15.91-15.91h-56.47Z"/>
          <path d="M379.21,84.86c2.12,1.51,4.72,2.4,7.53,2.4h75.29c2.81,0,5.4-.89,7.53-2.4,2.12,1.51,4.72,2.4,7.53,2.4h2.06v71.54c0,8.04-6.27,14.78-14.28,15.35-2.48.18-4.76,1.05-6.66,2.41-2.11-1.49-4.69-2.36-7.47-2.36h-52.71c-2.78,0-5.36.87-7.47,2.36-1.89-1.36-4.17-2.23-6.66-2.41-8.01-.57-14.28-7.32-14.28-15.35v-71.54h2.06c2.81,0,5.4-.89,7.53-2.4M452.62,6.5h-56.47c-13.49,0-24.47,10.98-24.47,24.47v43.29h-7.53c-4.16,0-7.53,3.37-7.53,7.53v77.01c0,14.97,11.65,27.27,26.35,28.32v19.32c0,9,6.5,16.51,15.06,18.08v132.08c0,31.14-25.33,56.47-56.47,56.47s-56.47-25.33-56.47-56.47V108.15c0-56.05-45.6-101.65-101.65-101.65s-101.65,45.6-101.65,101.65v3.76h-9.29c-11.49,0-20.83,9.35-20.83,20.83v16.82h-10.79c-18.96,0-34.38,15.42-34.38,34.38v300.17c0,18.96,15.42,34.38,34.38,34.38h134.53c18.96,0,34.38-15.42,34.38-34.38V183.94c0-18.96-15.42-34.38-34.38-34.38h-10.79v-16.82c0-11.49-9.35-20.83-20.83-20.83h-9.29v-3.76c0-26.99,21.95-48.94,48.94-48.94s48.94,21.96,48.94,48.94v248.47c0,60.2,48.98,109.18,109.18,109.18s109.18-48.98,109.18-109.18v-132.08c8.55-1.58,15.06-9.08,15.06-18.08v-19.32c14.71-1.06,26.35-13.35,26.35-28.32v-77.01c0-4.16-3.37-7.53-7.53-7.53h-7.53V30.97c0-13.49-10.98-24.47-24.47-24.47h0ZM386.74,74.26V30.97c0-5.19,4.22-9.41,9.41-9.41h56.47c5.19,0,9.41,4.22,9.41,9.41v43.29h-75.29ZM96.85,111.91v-3.76c0-47.75,38.84-86.59,86.59-86.59s86.59,38.84,86.59,86.59v248.47c0,39.44,32.09,71.53,71.53,71.53s71.53-32.09,71.53-71.53v-131.76h22.59v131.76c0,51.9-42.22,94.12-94.12,94.12s-94.12-42.22-94.12-94.12V108.15c0-35.29-28.71-64-64-64s-64,28.71-64,64v3.76h-22.59ZM66.74,149.56v-16.82c0-3.18,2.59-5.77,5.77-5.77h71.28c3.18,0,5.77,2.59,5.77,5.77v16.82h-82.82ZM40.88,503.44c-10.66,0-19.33-8.67-19.33-19.33V183.94c0-10.66,8.67-19.33,19.33-19.33h134.53c10.66,0,19.33,8.67,19.33,19.33v300.17c0,10.66-8.67,19.33-19.33,19.33H40.88ZM401.38,209.79c-1.85,0-3.35-1.5-3.35-3.35v-19.24h52.71v19.24c0,1.85-1.5,3.35-3.35,3.35h-46.01Z"/>
        </g>
        <g>
          <path class="cls-1" d="M409.32,52.71c-.57,0-1.03-.46-1.03-1.03v-7.53c0-.57.46-1.03,1.03-1.03s1.03.46,1.03,1.03v7.53c0,.57-.46,1.03-1.03,1.03Z"/>
          <path d="M409.32,36.62c-4.16,0-7.53,3.37-7.53,7.53v7.53c0,4.16,3.37,7.53,7.53,7.53s7.53-3.37,7.53-7.53v-7.53c0-4.16-3.37-7.53-7.53-7.53h0Z"/>
        </g>
        <g>
          <path class="cls-1" d="M439.44,52.71c-.57,0-1.03-.46-1.03-1.03v-7.53c0-.57.46-1.03,1.03-1.03s1.03.46,1.03,1.03v7.53c0,.57-.46,1.03-1.03,1.03Z"/>
          <path d="M439.44,36.62c-4.16,0-7.53,3.37-7.53,7.53v7.53c0,4.16,3.37,7.53,7.53,7.53s7.53-3.37,7.53-7.53v-7.53c0-4.16-3.37-7.53-7.53-7.53h0Z"/>
        </g>
        <g>
          <path class="cls-1" d="M52.81,259.76c-5.34,0-9.69-4.35-9.69-9.69v-42.92c0-5.34,4.35-9.69,9.69-9.69h110.68c5.34,0,9.69,4.35,9.69,9.69v42.92c0,5.34-4.35,9.69-9.69,9.69H52.81ZM45.18,249.97c-.11,2.61.97,4.31,1.9,5.29,2.4,2.52,5.07,2.53,12.96,2.53h.09c2.81,0,6.53-.02,11.49-.05,9.69-.06,24.33-.14,46.02-.14,14.14,0,29.56.04,45.82.11,4.24,0,7.66-3.42,7.66-7.63v-42.83c.11-2.6-.97-4.29-1.9-5.27-2.41-2.53-5.09-2.53-13.05-2.53-2.81,0-6.53.02-11.49.05-9.69.06-24.34.14-46.04.14h-.01c-14.14,0-29.55-.04-45.8-.11h-.03c-2.68,0-4.39,1.17-5.36,2.14-2.45,2.49-2.43,4.48-2.3,14.04.08,6.29.23,16.83.03,34.25Z"/>
          <path d="M163.49,190.97H52.81c-8.93,0-16.19,7.26-16.19,16.19v42.92c0,8.93,7.26,16.19,16.19,16.19h110.68c8.93,0,16.19-7.26,16.19-16.19v-42.92c0-8.93-7.26-16.19-16.19-16.19h0ZM98.62,206.14c32.69,0,49.21-.2,57.55-.2,9.12,0,8.45.23,8.45,1.21v42.92c0,.62-.51,1.13-1.13,1.13-18.02-.08-33.13-.11-45.82-.11-32.7,0-49.21.2-57.55.2-9.12,0-8.45-.23-8.45-1.21.49-42.62-1.05-44.05,1.13-44.05,18.02.08,33.14.11,45.82.11h0Z"/>
        </g>
        <g>
          <rect class="cls-1" x="43.12" y="302.88" width="130.06" height="62.29" rx="9.69" ry="9.69"/>
          <path d="M163.49,309.38c1.76,0,3.19,1.43,3.19,3.19v42.92c0,1.76-1.43,3.19-3.19,3.19H52.81c-1.76,0-3.19-1.43-3.19-3.19v-42.92c0-1.76,1.43-3.19,3.19-3.19h110.68M163.49,296.38H52.81c-8.93,0-16.19,7.26-16.19,16.19v42.92c0,8.93,7.26,16.19,16.19,16.19h110.68c8.93,0,16.19-7.26,16.19-16.19v-42.92c0-8.93-7.26-16.19-16.19-16.19h0Z"/>
        </g>
        <g>
          <path class="cls-1" d="M52.81,470.59c-5.34,0-9.69-4.35-9.69-9.69v-42.92c0-5.34,4.35-9.69,9.69-9.69h110.68c5.34,0,9.69,4.35,9.69,9.69v42.92c0,5.34-4.35,9.69-9.69,9.69H52.81ZM45.18,460.81c-.11,2.6.97,4.29,1.9,5.27,2.4,2.52,5.07,2.53,12.96,2.53h.09c2.81,0,6.53-.02,11.49-.05,9.69-.06,24.34-.14,46.05-.14,14.13,0,29.54.04,45.8.11,4.24,0,7.66-3.42,7.66-7.63-.2-17.54-.06-28.08.02-34.38.13-9.55.16-11.54-2.3-14.03-.96-.98-2.68-2.14-5.36-2.14-16.31.07-31.73.11-45.88.11-21.73,0-36.38-.09-46.08-.14-4.95-.03-8.67-.05-11.46-.05-7.93,0-10.6,0-13.01,2.54-.93.98-2.01,2.69-1.89,5.28v42.73Z"/>
          <path d="M163.49,401.79H52.81c-8.93,0-16.19,7.26-16.19,16.19v42.92c0,8.93,7.26,16.19,16.19,16.19h110.68c8.93,0,16.19-7.26,16.19-16.19v-42.92c0-8.93-7.26-16.19-16.19-16.19h0ZM60.12,462.11c-9.12,0-8.45-.23-8.45-1.21v-42.92c0-.98-.7-1.21,8.39-1.21,8.32,0,24.84.2,57.59.2,12.69,0,27.8-.03,45.83-.11,2.18,0,.64,1.39,1.13,44.05,0,.62-.51,1.13-1.13,1.13-18.02-.08-33.14-.11-45.82-.11-32.69,0-49.21.2-57.55.2h0Z"/>
        </g>
      </g>
    </g>
  </g>
</svg>