<?xml version="1.0" encoding="UTF-8"?>
<svg id="Layer_2" data-name="Layer 2" xmlns="http://www.w3.org/2000/svg" viewBox="0 0 419.59 525">
  <defs>
    <style>
      .cls-1 {
        fill: #00b2ca;
      }
    </style>
  </defs>
  <g id="Bottom_navigation" data-name="Bottom navigation">
    <g id="Storage_Capacity" data-name="Storage Capacity">
      <g>
        <g>
          <path class="cls-1" d="M45,512c-17.65,0-32-14.36-32-32V45c0-17.65,14.36-32,32-32h249.91c14.33,0,27.81,5.58,37.94,15.71l58.02,58.02c10.13,10.13,15.71,23.61,15.71,37.94v355.33c0,17.64-14.36,32-32,32H45ZM284.34,457.24c13.44,0,24.37,10.93,24.37,24.37v21.83c0,3.59,2.91,6.5,6.5,6.5h59.38c16.51,0,29.94-13.43,29.94-29.94V124.68c0-13.78-5.37-26.74-15.11-36.48l-58.02-58.02c-8.32-8.32-18.87-13.42-30.51-14.76-.25-.03-.5-.04-.74-.04-1.59,0-3.13.58-4.33,1.65-1.38,1.23-2.17,3-2.17,4.85v71.72c0,10.67-8.68,19.35-19.35,19.35H115.17c-10.67,0-19.35-8.68-19.35-19.35V21.56c0-3.59-2.91-6.5-6.5-6.5h-44.32c-16.51,0-29.94,13.43-29.94,29.94v435c0,16.51,13.43,29.94,29.94,29.94h59.38c3.59,0,6.5-2.91,6.5-6.5v-21.83c0-13.44,10.93-24.37,24.37-24.37h149.08ZM104.38,15.06c-3.59,0-6.5,2.91-6.5,6.5v72.03c0,9.54,7.76,17.29,17.29,17.29h159.12c9.53,0,17.29-7.76,17.29-17.29V21.56c0-3.59-2.91-6.5-6.5-6.5h-22.59c-3.59,0-6.5,2.91-6.5,6.5v37.65c0,8.87-7.22,16.09-16.09,16.09s-16.09-7.22-16.09-16.09V21.56c0-3.59-2.91-6.5-6.5-6.5h-112.94Z"/>
          <path d="M249.66,19.5c-.11.67-.16,1.36-.16,2.06v37.65c0,5.29-4.3,9.59-9.59,9.59s-9.59-4.3-9.59-9.59V21.56c0-.7-.06-1.39-.16-2.06h19.5M284.34,463.74c9.85,0,17.87,8.02,17.87,17.87v21.84c0,.7.06,1.39.16,2.06H117.22c.11-.67.16-1.36.16-2.06v-21.84c0-9.85,8.02-17.87,17.87-17.87h149.08M294.91,6.5H45C23.77,6.5,6.5,23.77,6.5,45v435c0,21.23,17.27,38.5,38.5,38.5h329.59c21.23,0,38.5-17.27,38.5-38.5V124.67c0-16.07-6.26-31.17-17.62-42.54l-58.02-58.02c-11.36-11.36-26.47-17.62-42.54-17.62h0ZM239.91,81.79c12.45,0,22.59-10.13,22.59-22.59V21.56h22.59v72.03c0,5.95-4.84,10.79-10.79,10.79H115.17c-5.95,0-10.79-4.84-10.79-10.79V21.56h112.94v37.65c0,12.45,10.13,22.59,22.59,22.59h0ZM45,503.44c-12.93,0-23.44-10.52-23.44-23.44V45c0-12.93,10.52-23.44,23.44-23.44h44.32v72.03c0,14.25,11.6,25.85,25.85,25.85h159.12c14.25,0,25.85-11.6,25.85-25.85V21.87c10.06,1.16,19.38,5.63,26.65,12.9l58.02,58.02c8.52,8.52,13.21,19.84,13.21,31.89v355.32c0,12.93-10.52,23.44-23.44,23.44h-59.38v-21.84c0-17.02-13.85-30.87-30.87-30.87h-149.08c-17.02,0-30.87,13.85-30.87,30.87v21.84h-59.38Z"/>
        </g>
        <g>
          <path class="cls-1" d="M209.79,421.65c-58.69,0-106.44-47.75-106.44-106.44s47.75-106.44,106.44-106.44,106.44,47.75,106.44,106.44-47.75,106.44-106.44,106.44ZM209.79,210.82c-57.56,0-104.38,46.83-104.38,104.38s46.83,104.38,104.38,104.38,104.38-46.83,104.38-104.38-46.83-104.38-104.38-104.38Z"/>
          <path d="M209.79,202.26c-62.28,0-112.94,50.66-112.94,112.94s50.66,112.94,112.94,112.94,112.94-50.67,112.94-112.94-50.67-112.94-112.94-112.94h0ZM209.79,413.09c-53.97,0-97.88-43.91-97.88-97.88s43.91-97.88,97.88-97.88,97.88,43.91,97.88,97.88-43.91,97.88-97.88,97.88h0Z"/>
        </g>
        <g>
          <path class="cls-1" d="M209.79,346.35c-17.17,0-31.15-13.97-31.15-31.15s13.97-31.15,31.15-31.15,31.15,13.97,31.15,31.15-13.97,31.15-31.15,31.15Z"/>
          <path d="M209.79,290.56c13.59,0,24.65,11.06,24.65,24.65s-11.06,24.65-24.65,24.65-24.65-11.06-24.65-24.65,11.06-24.65,24.65-24.65M209.79,277.56c-20.76,0-37.65,16.89-37.65,37.65s16.89,37.65,37.65,37.65,37.65-16.89,37.65-37.65-16.89-37.65-37.65-37.65h0Z"/>
        </g>
      </g>
    </g>
  </g>
</svg>