<?xml version="1.0" encoding="UTF-8"?>
<svg id="Layer_2" data-name="Layer 2" xmlns="http://www.w3.org/2000/svg" viewBox="0 0 525 525">
  <defs>
    <style>
      .cls-1 {
        fill: #00b2ca;
      }
    </style>
  </defs>
  <g id="Bottom_navigation" data-name="Bottom navigation">
    <g id="Number_of_Ports" data-name="Number of Ports">
      <g>
        <g>
          <path class="cls-1" d="M29.39,512c-4.38,0-8.49-1.7-11.59-4.8-3.1-3.1-4.8-7.21-4.8-11.59s1.7-8.49,4.8-11.59c56.83-56.36,89.43-89.33,108.9-109.02,9.65-9.75,16.02-16.2,20.18-20.27,2.42-2.37,2.62-6.2.46-8.8-6.07-7.3-5.56-18.27,1.15-24.98l9.26-9.26c1.22-1.22,1.9-2.87,1.9-4.6s-.68-3.38-1.9-4.6l-7.25-7.25c-20.25-20.25-20.25-53.2,0-73.45l154.78-154.78c4.06-4.05,9.44-6.29,15.17-6.29s11.11,2.23,15.17,6.29l1.82,1.82c1.27,1.27,2.93,1.9,4.6,1.9s3.33-.63,4.6-1.9l52.55-52.55c2.13-2.13,4.96-3.3,7.98-3.3s5.85,1.17,7.98,3.3l93.57,93.56c2.13,2.13,3.3,4.96,3.3,7.98s-1.17,5.85-3.3,7.98l-52.55,52.55c-2.54,2.54-2.54,6.65,0,9.19l1.82,1.82c8.36,8.36,8.36,21.97,0,30.34l-154.78,154.78c-9.79,9.79-22.84,15.18-36.72,15.18,0,0,0,0,0,0-13.89,0-26.93-5.39-36.73-15.19l-7.25-7.25c-1.22-1.22-2.87-1.9-4.6-1.9s-3.38.68-4.6,1.9l-9.26,9.26c-3.5,3.49-8.15,5.42-13.11,5.42-4.38,0-8.62-1.54-11.95-4.34-1.21-1.02-2.7-1.52-4.18-1.52-1.67,0-3.33.64-4.6,1.9L40.98,507.2c-3.1,3.1-7.21,4.8-11.59,4.8ZM153.14,354.55c-1.72,0-3.38.68-4.6,1.9L19.39,485.62c-2.67,2.67-4.14,6.22-4.14,10s1.47,7.33,4.14,10c2.67,2.67,6.22,4.14,10,4.14s7.33-1.47,10-4.14l129.16-129.16c1.22-1.22,1.9-2.87,1.9-4.6s-.68-3.38-1.9-4.6l-10.81-10.81c-1.22-1.22-2.87-1.9-4.6-1.9ZM174.75,203.41c-1.66,0-3.33.63-4.6,1.9l-18.06,18.06c-9.37,9.37-14.53,21.85-14.53,35.14s5.16,25.77,14.53,35.14l79.25,79.25c9.37,9.37,21.85,14.54,35.14,14.54s25.77-5.16,35.14-14.54l17.95-17.95c1.23-1.23,1.91-2.9,1.9-4.64-.01-1.74-.72-3.4-1.96-4.61-4.48-4.37-11.56-11.53-22.28-22.35-21.09-21.31-56.4-56.99-117.91-118.05-1.27-1.26-2.92-1.89-4.58-1.89ZM320.45,62.99c-5.13,0-9.96,2-13.58,5.62l-89.39,89.39c-1.22,1.22-1.9,2.87-1.9,4.6s.68,3.38,1.9,4.6l140.33,140.33c1.27,1.27,2.93,1.9,4.6,1.9s3.33-.63,4.6-1.9l89.39-89.39c3.62-3.62,5.62-8.45,5.62-13.58s-2-9.96-5.62-13.58l-122.37-122.37c-3.62-3.62-8.44-5.62-13.58-5.62ZM407.16,15.24c-2.42,0-4.69.94-6.4,2.65l-52.54,52.54c-1.22,1.22-1.9,2.87-1.9,4.6s.68,3.38,1.9,4.6l97.16,97.16c1.22,1.22,2.87,1.9,4.6,1.9s3.38-.68,4.6-1.9l52.55-52.55c1.71-1.71,2.65-3.98,2.65-6.39,0-2.42-.94-4.69-2.65-6.39l-93.56-93.56c-1.7-1.71-3.97-2.65-6.39-2.65Z"/>
          <path d="M211.43,170.06c.43.61.91,1.19,1.45,1.73l140.33,140.33c.54.54,1.11,1.02,1.73,1.45l-29.32,29.32c-.46-.66-.98-1.27-1.56-1.84-4.44-4.34-11.52-11.48-22.22-22.3-21.1-21.32-56.42-57-117.92-118.06-.53-.53-1.1-1-1.69-1.42l29.21-29.21M163.8,314.56l46.64,46.64c-.61.43-1.19.91-1.73,1.45l-9.26,9.26c-2.27,2.27-5.29,3.52-8.52,3.52-2.85,0-5.61-1-7.77-2.81-1.89-1.59-4.11-2.55-6.4-2.9-.44-2.65-1.7-5.12-3.63-7.04l-10.81-10.81c-1.95-1.94-4.44-3.21-7.12-3.64-.33-2.3-1.28-4.53-2.87-6.44-3.94-4.74-3.61-11.87.75-16.23l9.26-9.26c.54-.54,1.02-1.11,1.45-1.73M407.16,6.5c-4.55,0-9.11,1.73-12.58,5.2l-52.55,52.55-1.82-1.82c-5.46-5.46-12.61-8.19-19.76-8.19-7.15,0-14.3,2.73-19.76,8.19l-154.78,154.78c-22.78,22.79-22.78,59.86,0,82.65l7.25,7.25-9.26,9.26c-9.22,9.22-9.73,23.9-1.55,33.73-12.51,12.22-43.54,44.45-129.14,129.34-4.32,4.32-6.7,10.07-6.7,16.18s2.38,11.86,6.7,16.18h0c4.32,4.32,10.07,6.7,16.18,6.7s11.86-2.38,16.18-6.7l129.24-129.24c4.65,3.91,10.39,5.86,16.13,5.86,6.41,0,12.82-2.44,17.71-7.32l9.26-9.26,7.25,7.25c11.39,11.39,26.36,17.09,41.32,17.09s29.93-5.7,41.32-17.09l154.78-154.78c10.92-10.92,10.92-28.6,0-39.53l-1.82-1.82,52.55-52.55c6.93-6.93,6.93-18.22,0-25.15L419.73,11.7c-3.47-3.47-8.02-5.2-12.58-5.2h0ZM449.97,172.19l-97.16-97.16,52.55-52.55c.5-.5,1.15-.74,1.8-.74s1.3.25,1.8.74l93.56,93.56c.99.99.99,2.6,0,3.59l-52.55,52.55h0ZM362.41,302.93l-140.33-140.33,89.39-89.39c2.48-2.48,5.73-3.71,8.98-3.71,3.25,0,6.51,1.24,8.98,3.71l7.22,7.21,107.94,107.94,7.21,7.22c4.95,4.95,4.95,13.01,0,17.97l-89.39,89.39h0ZM266.48,380.94c-11.06,0-22.12-4.21-30.54-12.63l-12.64-12.64-53.97-53.97-12.64-12.64c-16.84-16.84-16.84-44.24,0-61.09l18.06-18.06c93.69,93.01,127.07,127.61,140.22,140.44l-17.95,17.95c-8.42,8.42-19.48,12.63-30.54,12.63h0ZM29.39,503.25c-2.04,0-3.96-.79-5.4-2.24h0c-1.44-1.44-2.24-3.36-2.24-5.4s.79-3.96,2.24-5.4l129.16-129.16,10.81,10.81L34.79,501.02c-1.44,1.44-3.36,2.24-5.4,2.24h0Z"/>
        </g>
        <g>
          <path class="cls-1" d="M449.97,137.96c-2.21,0-4.27-.85-5.83-2.41l-11.52-11.52c-3.21-3.21-3.21-8.44,0-11.65l11.53-11.53c1.55-1.55,3.62-2.4,5.83-2.4s4.27.85,5.82,2.4l11.53,11.53c3.21,3.21,3.21,8.44,0,11.65l-11.53,11.53c-1.55,1.55-3.62,2.41-5.82,2.41h0ZM449.97,100.89c-1.72,0-3.38.68-4.6,1.9l-10.81,10.81c-2.54,2.54-2.54,6.65,0,9.19l10.81,10.81c1.22,1.22,2.87,1.9,4.6,1.9s3.38-.68,4.6-1.9l10.81-10.81c2.54-2.54,2.54-6.65,0-9.19l-10.81-10.81c-1.22-1.22-2.87-1.9-4.6-1.9Z"/>
          <path d="M449.98,91.95c-3.77,0-7.55,1.44-10.42,4.31l-11.53,11.53c-5.74,5.75-5.74,15.09,0,20.84l11.53,11.53c2.87,2.87,6.65,4.31,10.42,4.31s7.55-1.44,10.42-4.31l11.53-11.53c5.74-5.75,5.74-15.1,0-20.84l-11.53-11.53c-2.87-2.87-6.65-4.31-10.42-4.31h0ZM449.97,129.01l-10.81-10.81,10.81-10.81,10.81,10.81-10.81,10.81h0Z"/>
        </g>
        <g>
          <path class="cls-1" d="M406.8,94.78c-2.21,0-4.27-.85-5.83-2.41l-11.53-11.53c-3.21-3.21-3.21-8.44,0-11.65l11.53-11.52c1.55-1.55,3.62-2.4,5.82-2.4s4.27.85,5.83,2.4l11.52,11.53c3.21,3.21,3.21,8.44,0,11.65l-11.53,11.53c-1.55,1.55-3.62,2.41-5.82,2.41h0ZM406.8,57.72c-1.66,0-3.33.63-4.6,1.9l-10.81,10.81c-1.22,1.22-1.9,2.87-1.9,4.6s.69,3.38,1.9,4.6l10.81,10.81c1.27,1.27,2.93,1.9,4.6,1.9s3.33-.63,4.6-1.9l10.81-10.81c1.22-1.22,1.9-2.87,1.9-4.6s-.69-3.38-1.9-4.6l-10.81-10.81c-1.27-1.27-2.93-1.9-4.6-1.9Z"/>
          <path d="M406.8,48.77c-3.77,0-7.55,1.44-10.42,4.31l-11.53,11.53c-5.75,5.75-5.75,15.1,0,20.84l11.53,11.53s0,0,0,0c2.87,2.87,6.65,4.31,10.42,4.31s7.55-1.44,10.42-4.31l11.53-11.53c5.74-5.75,5.74-15.09,0-20.84l-11.53-11.53c-2.87-2.87-6.65-4.31-10.42-4.31h0ZM406.8,85.83l-10.81-10.81,10.81-10.81,10.81,10.81-10.81,10.81h0Z"/>
        </g>
      </g>
    </g>
  </g>
</svg>