<?xml version="1.0" encoding="UTF-8"?>
<svg id="Layer_2" data-name="Layer 2" xmlns="http://www.w3.org/2000/svg" viewBox="0 0 525 509.32">
  <defs>
    <style>
      .cls-1 {
        fill: #00b2ca;
      }
    </style>
  </defs>
  <g id="Bottom_navigation" data-name="Bottom navigation">
    <g id="Ergonomics">
      <g>
        <g>
          <path class="cls-1" d="M450.74,496.32c-.57,0-1.03-.46-1.03-1.03v-15.06c0-3.59-2.91-6.5-6.5-6.5h-173.18c-.57,0-1.03-.46-1.03-1.03v-143.06c0-3.59-2.91-6.5-6.5-6.5H81.79c-3.59,0-6.5,2.91-6.5,6.5v165.65c0,.57-.46,1.03-1.03,1.03h-37.65c-.57,0-1.03-.46-1.03-1.03v-165.65c0-3.59-2.91-6.5-6.5-6.5h-15.06c-.57,0-1.03-.46-1.03-1.03v-45.18c0-.57.46-1.03,1.03-1.03h37.65c3.59,0,6.5-2.91,6.5-6.5v-4.92c0-10.31,8.39-18.7,18.7-18.7h.29c2.63,0,5-1.58,6.01-4.01,1.01-2.43.45-5.22-1.41-7.08l-23.28-23.28c-1.23-1.23-2.89-1.9-4.6-1.9-.49,0-.99.06-1.47.17-1.51.35-3.04.53-4.55.53-10.92,0-19.8-8.91-19.8-19.86s8.91-19.88,19.86-19.88c2.72,0,5.39.57,7.96,1.7.84.37,1.73.55,2.62.55,1.69,0,3.35-.66,4.6-1.9l65.2-65.21c2.54-2.54,2.54-6.65,0-9.19l-15.97-15.97c-.4-.4-.4-1.06,0-1.46l42.59-42.59c.25-.25.53-.3.73-.3s.48.05.73.3l18.71,18.71c1.24,1.24,2.91,1.9,4.6,1.9.84,0,1.68-.16,2.49-.5,2.43-1.01,4.01-3.38,4.01-6v-3.43c0-18.8,15.29-34.09,34.09-34.09h235.06c18.8,0,34.09,15.29,34.09,34.09v129.02c0,18.8-15.29,34.09-34.09,34.09h-70.21c-3.59,0-6.5,2.91-6.5,6.5v19.55c0,1.68.65,3.3,1.82,4.51l31.93,33.15c1.23,1.27,2.92,1.99,4.68,1.99h93.92c.57,0,1.03.46,1.03,1.03v45.18c0,.57-.46,1.03-1.03,1.03h-15.06c-3.59,0-6.5,2.91-6.5,6.5v165.65c0,.57-.46,1.03-1.03,1.03h-37.65ZM458.26,323.14c-3.59,0-6.5,2.91-6.5,6.5v158.12c0,3.59,2.91,6.5,6.5,6.5h22.59c3.59,0,6.5-2.91,6.5-6.5v-158.12c0-3.59-2.91-6.5-6.5-6.5h-22.59ZM44.15,323.14c-3.59,0-6.5,2.91-6.5,6.5v158.12c0,3.59,2.91,6.5,6.5,6.5h22.59c3.59,0,6.5-2.91,6.5-6.5v-158.12c0-3.59-2.91-6.5-6.5-6.5h-22.59ZM277.56,398.44c-3.59,0-6.5,2.91-6.5,6.5v60.24c0,3.59,2.91,6.5,6.5,6.5h165.65c3.59,0,6.5-2.91,6.5-6.5v-60.24c0-3.59-2.91-6.5-6.5-6.5h-165.65ZM277.56,323.14c-3.59,0-6.5,2.91-6.5,6.5v60.24c0,3.59,2.91,6.5,6.5,6.5h165.65c3.59,0,6.5-2.91,6.5-6.5v-60.24c0-3.59-2.91-6.5-6.5-6.5h-165.65ZM21.56,277.97c-3.59,0-6.5,2.91-6.5,6.5v30.12c0,3.59,2.91,6.5,6.5,6.5h481.88c3.59,0,6.5-2.91,6.5-6.5v-30.12c0-3.59-2.91-6.5-6.5-6.5H21.56ZM128.59,110.92c-1.7,0-3.36.66-4.6,1.9l-58.58,58.59c-2.17,2.17-2.53,5.57-.85,8.14,4.93,7.57,4.1,17.52-2.02,24.2-2.35,2.56-2.27,6.53.19,8.99l31.14,31.14c1.22,1.22,2.87,1.9,4.6,1.9h18.36c10.31,0,18.7,8.39,18.7,18.7v4.92c0,3.59,2.91,6.5,6.5,6.5h114.5c1.77,0,3.46-.72,4.68-1.99l31.94-33.15c1.17-1.21,1.82-2.83,1.82-4.51v-19.55c0-3.59-2.91-6.5-6.5-6.5h-68.2c-18.8,0-34.09-15.29-34.09-34.09v-56.54c0-2.63-1.58-5-4.01-6-.8-.33-1.65-.5-2.49-.5-1.69,0-3.35.66-4.6,1.9l-34.68,34.69c-.21.21-.41.3-.67.3,0,0-.98-.01-1.09-.92l-3.59-32.35c-.28-2.48-1.95-4.59-4.31-5.42-.7-.25-1.43-.37-2.15-.37ZM303.52,210.2c-3.59,0-6.5,2.91-6.5,6.5v15.06c0,3.59,2.91,6.5,6.5,6.5h66.53c3.59,0,6.5-2.91,6.5-6.5v-15.06c0-3.59-2.91-6.5-6.5-6.5h-66.53ZM47.91,172.56c-9.81,0-17.79,7.98-17.79,17.79s7.98,17.79,17.79,17.79,17.79-7.98,17.79-17.79-7.98-17.79-17.79-17.79ZM220.26,15.06c-17.66,0-32.03,14.37-32.03,32.03v5.74c0,3.31,2.49,6.09,5.78,6.46l30.95,3.44c.16.02.63.07.85.69.22.61-.12.96-.24,1.07l-35.44,35.44c-1.22,1.22-1.9,2.87-1.9,4.6v51.95c0,3.59,2.91,6.5,6.5,6.5h286.12c3.59,0,6.5-2.91,6.5-6.5V47.09c0-17.66-14.37-32.03-32.03-32.03h-235.06ZM179.7,59.81c-1.71,0-3.37.68-4.6,1.9l-37.48,37.47c-1.4,1.4-2.08,3.35-1.86,5.31l3.19,28.75c.28,2.48,1.95,4.59,4.31,5.42.7.25,1.43.37,2.15.37,1.7,0,3.36-.66,4.6-1.9l63.03-63.03c1.77-1.77,2.36-4.39,1.54-6.75-.83-2.36-2.93-4.03-5.42-4.31l-28.75-3.19c-.24-.03-.48-.04-.72-.04Z"/>
          <path d="M155.64,44.87l13.56,13.56-16.26,16.26-18.71,18.71c-.4-.55-.85-1.08-1.34-1.57l-12.1-12.1,34.86-34.86M482.91,169.31v6.81c0,15.21-12.38,27.59-27.59,27.59h-70.21c-2.81,0-5.4.89-7.53,2.4-2.12-1.51-4.72-2.4-7.53-2.4h-66.53c-2.81,0-5.41.89-7.53,2.4-2.12-1.51-4.72-2.4-7.53-2.4h-68.2c-15.21,0-27.59-12.38-27.59-27.59v-6.81c.67.11,1.36.16,2.06.16h286.12c.7,0,1.39-.06,2.06-.16M374.63,243.94c.34.47.72.92,1.13,1.34l25.23,26.19h-128.38l25.23-26.19c.41-.42.78-.87,1.13-1.34,1.42.53,2.96.83,4.57.83h66.53c1.61,0,3.15-.29,4.57-.83M87.7,246.91l1.57,1.57c2.44,2.44,5.74,3.81,9.19,3.81h18.36c6.73,0,12.2,5.47,12.2,12.2v4.92c0,.7.06,1.39.16,2.06h-64.68c.11-.67.16-1.36.16-2.06v-4.92c0-6.73,5.47-12.2,12.2-12.2h.29c4.23,0,8.12-2.05,10.53-5.38M455.32,6.5h-235.06c-22.38,0-40.59,18.21-40.59,40.59v3.43l-18.71-18.71c-1.47-1.47-3.4-2.2-5.32-2.2s-3.85.73-5.32,2.2l-42.59,42.59c-2.94,2.94-2.94,7.71,0,10.65l15.97,15.97-65.2,65.21c-3.5-1.54-7.08-2.25-10.58-2.25-13.9,0-26.36,11.26-26.36,26.38s12.14,26.36,26.3,26.36c1.98,0,4-.23,6.03-.7l23.28,23.28h-.29c-13.89,0-25.2,11.3-25.2,25.2v4.92H14.03c-4.16,0-7.53,3.37-7.53,7.53v45.18c0,4.16,3.37,7.53,7.53,7.53h15.06v165.65c0,4.16,3.37,7.53,7.53,7.53h37.65c4.16,0,7.53-3.37,7.53-7.53v-165.65h180.71v143.06c0,4.16,3.37,7.53,7.53,7.53h173.18v15.06c0,4.16,3.37,7.53,7.53,7.53h37.65c4.16,0,7.53-3.37,7.53-7.53v-165.65h15.06c4.16,0,7.53-3.37,7.53-7.53v-45.18c0-4.16-3.37-7.53-7.53-7.53h-93.92l-31.93-33.15v-19.55h70.21c22.38,0,40.59-18.21,40.59-40.59V47.09c0-22.38-18.21-40.59-40.59-40.59h0ZM194.74,156.47v-51.95l35.44-35.44c4.46-4.46,1.77-12.11-4.49-12.81l-30.95-3.44v-5.74c0-14.08,11.45-25.53,25.53-25.53h235.06c14.08,0,25.53,11.45,25.53,25.53v109.38H194.74ZM145.42,132.54l-3.19-28.75c12.5-12.5,24.98-24.98,37.48-37.47l28.75,3.19-63.03,63.03h0ZM98.47,239.29l-31.14-31.14c8.18-8.92,9.2-22.12,2.68-32.14l58.58-58.59,3.6,32.35c.46,4.11,3.94,6.7,7.55,6.7,1.86,0,3.74-.69,5.26-2.21l34.68-34.68v56.54c0,22.38,18.21,40.59,40.59,40.59h68.2v19.55l-31.93,33.15h-114.5v-4.92c0-13.89-11.3-25.2-25.2-25.2h-18.36ZM47.91,201.64c-6.23,0-11.29-5.07-11.29-11.29s5.07-11.29,11.29-11.29,11.29,5.07,11.29,11.29-5.07,11.29-11.29,11.29h0ZM303.52,231.76v-15.06h66.53v15.06h-66.53ZM21.56,314.58v-30.12h481.88v30.12H21.56ZM458.26,487.76v-158.12h22.59v158.12h-22.59ZM277.56,389.88v-60.24h165.65v60.24h-165.65ZM44.15,487.76v-158.12h22.59v158.12h-22.59ZM277.56,465.17v-60.24h165.65v60.24h-165.65Z"/>
        </g>
        <g>
          <path class="cls-1" d="M352.85,360.79c-.57,0-1.03-.46-1.03-1.03s.46-1.03,1.03-1.03h15.06c.57,0,1.03.46,1.03,1.03s-.46,1.03-1.03,1.03h-15.06Z"/>
          <path d="M367.91,352.23h-15.06c-4.16,0-7.53,3.37-7.53,7.53s3.37,7.53,7.53,7.53h15.06c4.16,0,7.53-3.37,7.53-7.53s-3.37-7.53-7.53-7.53h0Z"/>
        </g>
        <g>
          <path class="cls-1" d="M352.85,436.08c-.57,0-1.03-.46-1.03-1.03s.46-1.03,1.03-1.03h15.06c.57,0,1.03.46,1.03,1.03s-.46,1.03-1.03,1.03h-15.06Z"/>
          <path d="M367.91,427.53h-15.06c-4.16,0-7.53,3.37-7.53,7.53s3.37,7.53,7.53,7.53h15.06c4.16,0,7.53-3.37,7.53-7.53s-3.37-7.53-7.53-7.53h0Z"/>
        </g>
        <g>
          <path class="cls-1" d="M315.21,119.85c-.57,0-1.03-.46-1.03-1.03s.46-1.03,1.03-1.03h97.88c.57,0,1.03.46,1.03,1.03s-.46,1.03-1.03,1.03h-97.88Z"/>
          <path d="M413.09,111.29h-97.88c-4.16,0-7.53,3.37-7.53,7.53s3.37,7.53,7.53,7.53h97.88c4.16,0,7.53-3.37,7.53-7.53s-3.37-7.53-7.53-7.53h0Z"/>
        </g>
        <g>
          <path class="cls-1" d="M315.21,89.73c-.57,0-1.03-.46-1.03-1.03s.46-1.03,1.03-1.03h97.88c.57,0,1.03.46,1.03,1.03s-.46,1.03-1.03,1.03h-97.88Z"/>
          <path d="M413.09,81.17h-97.88c-4.16,0-7.53,3.37-7.53,7.53s3.37,7.53,7.53,7.53h97.88c4.16,0,7.53-3.37,7.53-7.53s-3.37-7.53-7.53-7.53h0Z"/>
        </g>
        <g>
          <path class="cls-1" d="M382.97,59.61c-.57,0-1.03-.46-1.03-1.03s.46-1.03,1.03-1.03h30.12c.57,0,1.03.46,1.03,1.03s-.46,1.03-1.03,1.03h-30.12Z"/>
          <path d="M413.09,51.06h-30.12c-4.16,0-7.53,3.37-7.53,7.53s3.37,7.53,7.53,7.53h30.12c4.16,0,7.53-3.37,7.53-7.53s-3.37-7.53-7.53-7.53h0Z"/>
        </g>
      </g>
    </g>
  </g>
</svg>