<?xml version="1.0" encoding="UTF-8"?>
<svg id="Layer_2" data-name="Layer 2" xmlns="http://www.w3.org/2000/svg" viewBox="0 0 509.94 525">
  <defs>
    <style>
      .cls-1 {
        fill: #00b2ca;
      }
    </style>
  </defs>
  <g id="Bottom_navigation" data-name="Bottom navigation">
    <g id="Brand">
      <g>
        <path class="cls-1" d="M157.09,512c-62.84,0-113.97-51.13-113.97-113.97v-240.97c0-3.48-2.74-6.35-6.22-6.49-4.95-.21-8.83-4.25-8.83-9.2v-6.95c0-7.47-4.34-11.52-7.21-14.19-.73-.68-1.43-1.33-1.89-1.88-.13-.15-.26-.3-.4-.44-3.59-3.59-5.56-8.35-5.56-13.42v-37.07c0-4.95,3.88-8.99,8.83-9.2,3.48-.15,6.22-3.01,6.22-6.49v-24.63c0-7.76,6.32-14.08,14.08-14.08h34.13c7.76,0,14.08,6.32,14.08,14.08v24.63c0,3.48,2.74,6.35,6.22,6.49,4.95.21,8.83,4.25,8.83,9.2v37.07c0,8.29-4.85,12.86-8.05,15.89-.88.83-1.66,1.57-2.32,2.35-5.01,5.22-4.8,11.08-4.66,14.99.04,1.13.08,2.19,0,3.09-.02.19-.02.38-.02.57,0,4.95-3.88,8.99-8.83,9.2-3.48.15-6.22,3.01-6.22,6.49v240.97c0,45.1,36.69,81.79,81.79,81.79h30.12c42.21,0,77.2-31.65,81.38-73.62.18-1.83-.42-3.65-1.65-5.01s-2.98-2.14-4.82-2.14h-72.41c-22.71,0-41.19-18.48-41.19-41.19V54.19c0-22.71,18.48-41.19,41.19-41.19h266.04c22.71,0,41.19,18.48,41.19,41.19v303.69c0,22.71-18.48,41.19-41.19,41.19h-148.32c-3.43,0-6.28,2.67-6.49,6.1-3.71,59.91-53.67,106.84-113.74,106.84h-30.12ZM51.68,150.59c-3.59,0-6.5,2.91-6.5,6.5v240.94c0,61.71,50.2,111.91,111.91,111.91h30.12c58.46,0,107.49-45.65,111.63-103.92.13-1.8-.5-3.57-1.73-4.89-1.23-1.32-2.95-2.07-4.76-2.07h-15.1c-3.38,0-6.2,2.59-6.48,5.96-1.73,20.86-11.2,40.23-26.67,54.54-15.55,14.39-35.76,22.32-56.9,22.32h-30.12c-46.24,0-83.85-37.62-83.85-83.85v-240.94c0-3.59-2.91-6.5-6.5-6.5h-15.06ZM157.09,331.29c-3.59,0-6.5,2.91-6.5,6.5v20.08c0,21.57,17.55,39.13,39.13,39.13h266.04c21.57,0,39.13-17.55,39.13-39.13v-20.08c0-3.59-2.91-6.5-6.5-6.5H157.09ZM157.09,195.76c-3.59,0-6.5,2.91-6.5,6.5v52.71c0,3.59,2.91,6.5,6.5,6.5h331.29c3.59,0,6.5-2.91,6.5-6.5v-52.71c0-3.59-2.91-6.5-6.5-6.5H157.09ZM189.72,15.06c-21.57,0-39.13,17.55-39.13,39.13v133.02c0,3.59,2.91,6.5,6.5,6.5h331.29c3.59,0,6.5-2.91,6.5-6.5V54.19c0-21.57-17.55-39.13-39.13-39.13H189.72ZM42.14,15.06c-6.63,0-12.02,5.39-12.02,12.02v24.6c0,3.59,2.91,6.5,6.5,6.5h45.18c3.59,0,6.5-2.91,6.5-6.5v-24.6c0-6.63-5.39-12.02-12.02-12.02h-34.13Z"/>
        <path d="M29.11,62.29c2.12,1.5,4.71,2.38,7.51,2.38h45.18c2.8,0,5.39-.88,7.51-2.38,1.99,1.42,4.39,2.3,7,2.41,1.44.06,2.61,1.28,2.61,2.71v37.07c0,5.1-2.49,7.84-6.01,11.16-.95.89-1.85,1.74-2.71,2.75-6.75,7.15-6.47,15.19-6.31,19.56.03.88.06,1.79.02,2.29-.03.38-.05.76-.05,1.14,0,1.43-1.17,2.65-2.61,2.71-2.61.11-5.02.99-7,2.41-2.12-1.5-4.71-2.38-7.51-2.38h-15.06c-2.8,0-5.39.88-7.51,2.38-1.99-1.42-4.39-2.3-7-2.41-1.44-.06-2.61-1.27-2.61-2.71v-6.95c0-10.3-6.04-15.93-9.28-18.95-.47-.44-1.12-1.05-1.32-1.28-.25-.3-.52-.6-.8-.88-2.39-2.39-3.66-5.45-3.66-8.83v-37.07c0-1.43,1.17-2.65,2.61-2.71,2.61-.11,5.02-.99,7-2.41M155.03,267.81c.67.11,1.36.16,2.06.16h331.29c.7,0,1.39-.06,2.06-.16v57.15c-.67-.11-1.36-.16-2.06-.16H157.09c-.7,0-1.39.06-2.06.16v-57.15M455.76,6.5H189.72c-26.29,0-47.69,21.39-47.69,47.69v303.69c0,26.29,21.39,47.69,47.69,47.69h72.41c-3.79,38-35.94,67.76-74.92,67.76h-30.12c-41.52,0-75.29-33.78-75.29-75.29v-240.98c8.36-.35,15.06-7.25,15.06-15.69.43-4.88-1.42-9.86,3.05-14.33,2.06-2.7,12-8.85,12-22.56v-37.07c0-8.45-6.7-15.34-15.06-15.69v-24.63c0-11.35-9.23-20.58-20.58-20.58h-34.13c-11.35,0-20.58,9.23-20.58,20.58v24.63c-8.36.35-15.06,7.25-15.06,15.69v37.07c0,6.81,2.65,13.21,7.47,18.02,2.8,3.37,7.59,5.65,7.59,11.91v6.95c0,8.45,6.7,15.34,15.06,15.69v240.97c0,66.43,54.04,120.47,120.47,120.47h30.12c63.9,0,116.33-50.01,120.23-112.94h148.32c26.29,0,47.69-21.39,47.69-47.69V54.19c0-26.29-21.39-47.69-47.69-47.69h0ZM157.09,187.21V54.19c0-17.99,14.64-32.63,32.63-32.63h266.04c17.99,0,32.63,14.64,32.63,32.63v133.02H157.09ZM36.62,51.68v-24.6c0-3.04,2.48-5.52,5.52-5.52h34.13c3.04,0,5.52,2.48,5.52,5.52v24.6h-45.18ZM157.09,503.44c-58.12,0-105.41-47.29-105.41-105.41v-240.94h15.06v240.94c0,49.82,40.53,90.35,90.35,90.35h30.12c47.28,0,86.2-36.51,90.04-82.82h15.1c-3.88,54.62-49.55,97.88-105.15,97.88h-30.12ZM157.09,254.97v-52.71h331.29v52.71H157.09ZM189.72,390.5c-17.99,0-32.63-14.64-32.63-32.63v-20.08h331.29v20.08c0,17.99-14.64,32.63-32.63,32.63H189.72Z"/>
      </g>
    </g>
  </g>
</svg>