<?xml version="1.0" encoding="UTF-8"?>
<svg id="Layer_2" data-name="Layer 2" xmlns="http://www.w3.org/2000/svg" viewBox="0 0 525 464.76">
  <defs>
    <style>
      .cls-1 {
        fill: #00b2ca;
      }
    </style>
  </defs>
  <g id="Bottom_navigation" data-name="Bottom navigation">
    <g id="Panel_Type" data-name="Panel Type">
      <g>
        <g>
          <path class="cls-1" d="M142.03,451.76c-.57,0-1.03-.46-1.03-1.03,0-25.48,20.73-46.21,46.21-46.21h2.1c2.8,0,5.28-1.79,6.17-4.44l10.04-30.12c.66-1.98.33-4.16-.89-5.86-1.22-1.69-3.18-2.7-5.27-2.7H68.94c-30.85,0-55.94-25.1-55.94-55.94V68.94c0-30.85,25.1-55.94,55.94-55.94h387.11c30.85,0,55.94,25.1,55.94,55.94v236.52c0,30.85-25.1,55.94-55.94,55.94h-130.4c-2.09,0-4.05,1-5.27,2.7-1.22,1.7-1.55,3.87-.89,5.86l10.04,30.12c.88,2.65,3.37,4.44,6.17,4.44h2.1c25.48,0,46.21,20.73,46.21,46.21,0,.57-.46,1.03-1.03,1.03h-240.94ZM187.21,406.59c-20.89,0-39.09,14.85-43.26,35.32-.39,1.91.1,3.9,1.33,5.41,1.23,1.51,3.08,2.39,5.03,2.39h224.37c1.95,0,3.8-.88,5.03-2.39s1.72-3.5,1.33-5.41c-4.17-20.47-22.37-35.32-43.26-35.32h-150.59ZM215.22,361.41c-2.8,0-5.28,1.79-6.17,4.44l-10.04,30.12c-.66,1.98-.33,4.16.89,5.86,1.22,1.69,3.18,2.7,5.27,2.7h114.64c2.09,0,4.05-1,5.27-2.7,1.22-1.7,1.55-3.87.89-5.86l-10.04-30.12c-.88-2.65-3.37-4.44-6.17-4.44h-94.56ZM68.94,15.06c-29.71,0-53.89,24.17-53.89,53.88v216.14c0,3.59,2.91,6.5,6.5,6.5h481.88c3.59,0,6.5-2.91,6.5-6.5V68.94c0-29.71-24.17-53.88-53.89-53.88H68.94Z"/>
          <path d="M505.5,297.93v7.54c0,27.26-22.18,49.44-49.44,49.44h-130.4c-2.91,0-5.69.97-7.94,2.7-2.22-1.71-4.99-2.7-7.94-2.7h-94.56c-2.94,0-5.71.99-7.94,2.7-2.25-1.73-5.03-2.7-7.94-2.7H68.94c-27.26,0-49.44-22.18-49.44-49.44v-7.54c.67.11,1.36.16,2.06.16h481.88c.7,0,1.39-.06,2.06-.16M456.06,6.5H68.94C34.51,6.5,6.5,34.51,6.5,68.94v236.52c0,34.43,28.01,62.44,62.44,62.44h130.4l-10.04,30.12h-2.1c-29.06,0-52.71,23.64-52.71,52.71,0,4.16,3.37,7.53,7.53,7.53h240.94c4.16,0,7.53-3.37,7.53-7.53,0-29.06-23.64-52.71-52.71-52.71h-2.1l-10.04-30.12h130.4c34.43,0,62.44-28.01,62.44-62.44V68.94c0-34.43-28.01-62.44-62.44-62.44h0ZM21.56,285.09V68.94c0-26.13,21.26-47.39,47.39-47.39h387.11c26.13,0,47.38,21.26,47.38,47.39v216.14H21.56ZM205.18,398.03l10.04-30.12h94.56l10.04,30.12h-114.64ZM150.31,443.21c3.5-17.16,18.71-30.12,36.89-30.12h150.59c18.18,0,33.39,12.95,36.89,30.12h-224.37Z"/>
        </g>
        <g>
          <path class="cls-1" d="M149.56,210.82c-7.73,0-14.75-3.63-19.25-9.97-4.48-6.32-5.6-14.12-3.05-21.41.98-2.8-.06-5.91-2.53-7.55l-19.26-12.84c-1.1-.73-2.35-1.09-3.6-1.09-1.56,0-3.11.56-4.34,1.66-4.34,3.89-9.93,6.03-15.73,6.03-13.02,0-23.62-10.59-23.62-23.62s10.59-23.62,23.62-23.62c5.81,0,11.39,2.14,15.73,6.03,1.23,1.1,2.78,1.66,4.34,1.66,1.25,0,2.51-.36,3.6-1.09l19.26-12.84c2.47-1.64,3.51-4.75,2.53-7.55-2.55-7.29-1.43-15.09,3.05-21.41,4.5-6.34,11.51-9.97,19.25-9.97,13.02,0,23.62,10.59,23.62,23.62s-10.59,23.62-23.62,23.62c-5.81,0-11.39-2.14-15.73-6.03-1.23-1.1-2.78-1.66-4.34-1.66-1.25,0-2.51.36-3.6,1.09l-19.26,12.84c-2.47,1.65-3.51,4.75-2.53,7.55,1.75,5.01,1.75,10.52,0,15.53-.98,2.8.06,5.91,2.53,7.55l19.26,12.84c1.1.73,2.35,1.09,3.6,1.09,1.56,0,3.11-.56,4.34-1.66,4.34-3.89,9.93-6.03,15.73-6.03,13.02,0,23.62,10.59,23.62,23.62s-10.59,23.62-23.62,23.62Z"/>
          <path d="M149.56,79.74c9.44,0,17.12,7.68,17.12,17.12s-7.68,17.12-17.12,17.12c-4.2,0-8.25-1.55-11.4-4.37-1.21-1.09-2.59-1.91-4.04-2.46.05-1.55-.19-3.13-.72-4.66-1.84-5.27-1.04-10.92,2.22-15.5,3.26-4.6,8.35-7.23,13.95-7.23M81.79,124.91c4.2,0,8.25,1.55,11.4,4.37,1.21,1.09,2.59,1.91,4.04,2.46-.05,1.55.19,3.13.72,4.67,1.27,3.62,1.27,7.61,0,11.24-.54,1.53-.77,3.11-.72,4.66-1.46.55-2.83,1.38-4.04,2.46-3.15,2.82-7.2,4.37-11.4,4.37-9.44,0-17.12-7.68-17.12-17.12s7.68-17.12,17.12-17.12M149.56,170.09c9.44,0,17.12,7.68,17.12,17.12s-7.68,17.12-17.12,17.12c-5.6,0-10.68-2.64-13.95-7.24-3.25-4.58-4.06-10.23-2.21-15.5.54-1.53.77-3.11.72-4.66,1.46-.55,2.83-1.38,4.04-2.46,3.15-2.82,7.2-4.37,11.4-4.37M149.56,66.74c-20.65,0-35.27,20.46-28.44,40.03l-19.26,12.84c-5.33-4.78-12.37-7.69-20.07-7.69-16.61,0-30.12,13.51-30.12,30.12s13.51,30.12,30.12,30.12c7.71,0,14.74-2.91,20.07-7.69l19.26,12.84c-6.84,19.57,7.8,40.03,28.44,40.03,16.61,0,30.12-13.51,30.12-30.12s-13.51-30.12-30.12-30.12c-7.71,0-14.74,2.91-20.07,7.69l-19.26-12.84c2.24-6.42,2.25-13.39,0-19.82l19.26-12.84c5.33,4.78,12.37,7.69,20.07,7.69,16.61,0,30.12-13.51,30.12-30.12s-13.51-30.12-30.12-30.12h0Z"/>
        </g>
        <g>
          <path class="cls-1" d="M224.85,165.65c-.57,0-1.03-.46-1.03-1.03v-90.35c0-.57.46-1.03,1.03-1.03h240.94c.57,0,1.03.46,1.03,1.03v90.35c0,.57-.46,1.03-1.03,1.03h-240.94ZM232.38,75.29c-3.59,0-6.5,2.91-6.5,6.5v75.29c0,3.59,2.91,6.5,6.5,6.5h225.88c3.59,0,6.5-2.91,6.5-6.5v-75.29c0-3.59-2.91-6.5-6.5-6.5h-225.88Z"/>
          <path d="M465.79,66.74h-240.94c-4.16,0-7.53,3.37-7.53,7.53v90.35c0,4.16,3.37,7.53,7.53,7.53h240.94c4.16,0,7.53-3.37,7.53-7.53v-90.35c0-4.16-3.37-7.53-7.53-7.53h0ZM232.38,157.09v-75.29h225.88v75.29h-225.88Z"/>
        </g>
        <g>
          <path class="cls-1" d="M224.85,203.29c-.57,0-1.03-.46-1.03-1.03s.46-1.03,1.03-1.03h180.71c.57,0,1.03.46,1.03,1.03s-.46,1.03-1.03,1.03h-180.71Z"/>
          <path d="M405.56,194.74h-180.71c-4.16,0-7.53,3.37-7.53,7.53s3.37,7.53,7.53,7.53h180.71c4.16,0,7.53-3.37,7.53-7.53s-3.37-7.53-7.53-7.53h0Z"/>
        </g>
        <g>
          <path class="cls-1" d="M224.85,240.94c-.57,0-1.03-.46-1.03-1.03s.46-1.03,1.03-1.03h67.76c.57,0,1.03.46,1.03,1.03s-.46,1.03-1.03,1.03h-67.76Z"/>
          <path d="M292.62,232.38h-67.76c-4.16,0-7.53,3.37-7.53,7.53s3.37,7.53,7.53,7.53h67.76c4.16,0,7.53-3.37,7.53-7.53s-3.37-7.53-7.53-7.53h0Z"/>
        </g>
      </g>
    </g>
  </g>
</svg>