<?xml version="1.0" encoding="UTF-8"?>
<svg id="Layer_2" data-name="Layer 2" xmlns="http://www.w3.org/2000/svg" viewBox="0 0 525 525">
  <defs>
    <style>
      .cls-1 {
        fill: #00b2ca;
      }
    </style>
  </defs>
  <g id="Bottom_navigation" data-name="Bottom navigation">
    <g id="Refresh_Rate" data-name="Refresh Rate">
      <g>
        <g>
          <path class="cls-1" d="M193.23,512c-8.04,0-14.58-6.54-14.58-14.58,0-15.19,10.33-28.26,25.12-31.76,2.93-.7,5-3.31,5-6.32v-23.65c0-3.59-2.91-6.5-6.5-6.5H64.23c-28.25,0-51.23-22.98-51.23-51.23V64.23c0-28.25,22.98-51.23,51.23-51.23h396.55c28.25,0,51.23,22.98,51.23,51.23v313.73c0,28.25-22.98,51.23-51.23,51.23h-138.04c-3.59,0-6.5,2.91-6.5,6.5v23.65c0,3.01,2.07,5.63,5,6.32,14.79,3.51,25.12,16.57,25.12,31.76,0,8.04-6.54,14.58-14.58,14.58h-138.54ZM217.32,429.18c-3.59,0-6.5,2.91-6.5,6.5v22.59c0,3.59,2.91,6.5,6.5,6.5h90.35c3.59,0,6.5-2.91,6.5-6.5v-22.59c0-3.59-2.91-6.5-6.5-6.5h-90.35ZM64.23,15.06c-27.11,0-49.17,22.06-49.17,49.17v313.73c0,27.11,22.06,49.17,49.17,49.17h396.55c27.11,0,49.17-22.06,49.17-49.17V64.23c0-27.11-22.06-49.17-49.17-49.17H64.23Z"/>
          <path d="M314.46,469.36c1.5,1.24,3.29,2.15,5.27,2.62,11.85,2.81,20.12,13.27,20.12,25.44,0,4.46-3.63,8.08-8.08,8.08h-138.54c-4.46,0-8.08-3.63-8.08-8.08,0-12.17,8.27-22.63,20.12-25.44,1.99-.47,3.78-1.38,5.27-2.62,1.98,1.21,4.3,1.91,6.78,1.91h90.35c2.49,0,4.81-.7,6.78-1.91M460.77,6.5H64.23c-31.83,0-57.73,25.9-57.73,57.73v313.73c0,31.83,25.9,57.73,57.73,57.73h138.04v23.65c-17.25,4.09-30.12,19.61-30.12,38.09,0,11.62,9.46,21.08,21.08,21.08h138.54c11.62,0,21.08-9.46,21.08-21.08,0-18.48-12.87-34-30.12-38.09v-23.65h138.04c31.83,0,57.73-25.9,57.73-57.73V64.23c0-31.83-25.9-57.73-57.73-57.73h0ZM64.23,420.62c-23.53,0-42.67-19.14-42.67-42.67V64.23c0-23.53,19.14-42.67,42.67-42.67h396.55c23.53,0,42.67,19.14,42.67,42.67v313.73c0,23.53-19.14,42.67-42.67,42.67H64.23ZM217.32,458.26v-22.59h90.35v22.59h-90.35Z"/>
        </g>
        <g>
          <path class="cls-1" d="M64.23,338.82c-11.64,0-21.11-9.47-21.11-21.11V64.23c0-11.64,9.47-21.11,21.11-21.11h396.55c11.64,0,21.11,9.47,21.11,21.11v253.49c0,11.64-9.47,21.11-21.11,21.11H64.23ZM64.23,45.18c-10.5,0-19.05,8.54-19.05,19.05v253.49c0,10.5,8.55,19.05,19.05,19.05h396.55c10.5,0,19.05-8.54,19.05-19.05V64.23c0-10.5-8.55-19.05-19.05-19.05H64.23Z"/>
          <path d="M460.77,36.62H64.23c-15.22,0-27.61,12.39-27.61,27.61v253.49c0,15.22,12.39,27.61,27.61,27.61h396.55c15.22,0,27.61-12.39,27.61-27.61V64.23c0-15.22-12.39-27.61-27.61-27.61h0ZM64.23,330.26c-6.92,0-12.55-5.63-12.55-12.55V64.23c0-6.92,5.63-12.55,12.55-12.55h396.55c6.92,0,12.55,5.63,12.55,12.55v253.49c0,6.92-5.63,12.55-12.55,12.55H64.23Z"/>
        </g>
        <g>
          <path class="cls-1" d="M443.21,399.06c-8.87,0-16.09-7.22-16.09-16.09s7.22-16.09,16.09-16.09,16.09,7.22,16.09,16.09-7.22,16.09-16.09,16.09ZM443.21,368.94c-7.74,0-14.03,6.29-14.03,14.03s6.29,14.03,14.03,14.03,14.03-6.29,14.03-14.03-6.29-14.03-14.03-14.03Z"/>
          <path d="M443.21,360.38c-12.46,0-22.59,10.13-22.59,22.59s10.13,22.59,22.59,22.59,22.59-10.13,22.59-22.59-10.13-22.59-22.59-22.59h0ZM443.21,390.5c-4.15,0-7.53-3.38-7.53-7.53s3.38-7.53,7.53-7.53,7.53,3.38,7.53,7.53-3.38,7.53-7.53,7.53h0Z"/>
        </g>
        <g>
          <path class="cls-1" d="M367.91,399.06c-8.87,0-16.09-7.22-16.09-16.09s7.22-16.09,16.09-16.09h15.06c8.87,0,16.09,7.22,16.09,16.09s-7.22,16.09-16.09,16.09h-15.06Z"/>
          <path d="M382.97,373.38c5.29,0,9.59,4.3,9.59,9.59s-4.3,9.59-9.59,9.59h-15.06c-5.29,0-9.59-4.3-9.59-9.59s4.3-9.59,9.59-9.59h15.06M382.97,360.38h-15.06c-12.45,0-22.59,10.13-22.59,22.59s10.13,22.59,22.59,22.59h15.06c12.45,0,22.59-10.13,22.59-22.59s-10.13-22.59-22.59-22.59h0Z"/>
        </g>
        <g>
          <path class="cls-1" d="M292.62,399.06c-8.87,0-16.09-7.22-16.09-16.09s7.22-16.09,16.09-16.09h15.06c8.87,0,16.09,7.22,16.09,16.09s-7.22,16.09-16.09,16.09h-15.06Z"/>
          <path d="M307.68,373.38c5.29,0,9.59,4.3,9.59,9.59s-4.3,9.59-9.59,9.59h-15.06c-5.29,0-9.59-4.3-9.59-9.59s4.3-9.59,9.59-9.59h15.06M307.68,360.38h-15.06c-12.45,0-22.59,10.13-22.59,22.59s10.13,22.59,22.59,22.59h15.06c12.46,0,22.59-10.13,22.59-22.59s-10.13-22.59-22.59-22.59h0Z"/>
        </g>
        <g>
          <path class="cls-1" d="M224.85,399.06c-8.87,0-16.09-7.22-16.09-16.09s7.22-16.09,16.09-16.09h15.06c8.87,0,16.09,7.22,16.09,16.09s-7.22,16.09-16.09,16.09h-15.06ZM224.85,368.94c-7.74,0-14.03,6.29-14.03,14.03s6.29,14.03,14.03,14.03h15.06c7.74,0,14.03-6.29,14.03-14.03s-6.29-14.03-14.03-14.03h-15.06Z"/>
          <path d="M239.91,360.38h-15.06c-12.45,0-22.59,10.13-22.59,22.59s10.13,22.59,22.59,22.59h15.06c12.45,0,22.59-10.13,22.59-22.59s-10.13-22.59-22.59-22.59h0ZM224.85,390.5c-4.15,0-7.53-3.38-7.53-7.53s3.38-7.53,7.53-7.53h15.06c4.15,0,7.53,3.38,7.53,7.53s-3.38,7.53-7.53,7.53h-15.06Z"/>
        </g>
        <g>
          <path class="cls-1" d="M262.62,267.68c-10.53,0-20.84-2.16-30.64-6.41-.32-.14-.48-.38-.55-.57-.07-.18-.13-.46.01-.79.2-.46.64-.62.95-.62.14,0,.27.03.41.09,9.71,4.22,19.79,6.36,29.94,6.36h0c21.66,0,42.34-9.78,56.73-26.83,14.16-16.78,20.22-38.56,16.61-59.74-.46-2.72-2.6-4.85-5.32-5.32-.36-.06-.73-.09-1.09-.09-2.34,0-4.53,1.26-5.69,3.36l-1.1,2c-.27.49-.76.53-.91.53-.17,0-.33-.04-.49-.13-.5-.28-.68-.9-.41-1.4l9.66-17.48c.04-.06.17-.27.17-.27l.07-.08.14-.12s.08-.05.1-.06c.05-.02.09-.04.12-.06.03,0,.06-.02.09-.03.03,0,.08-.02.11-.03.02,0,.19-.02.19-.02l.19.02.09.02s.12.04.12.04c0,0,.19.1.22.11l17.48,9.66c.5.27.68.9.4,1.4-.27.49-.76.53-.91.53-.17,0-.33-.04-.49-.13l-1.45-.8c-.98-.54-2.06-.81-3.14-.81-1.33,0-2.66.41-3.79,1.22-2.04,1.46-3.05,3.97-2.61,6.44,4.44,24.51-3.51,49.75-21.27,67.5-14.5,14.5-33.66,22.49-53.94,22.49h0Z"/>
          <path d="M331.7,153.48c-.11,0-.22,0-.34.01-.13,0-.26,0-.38.02-.12.01-.25.03-.37.05-.12.02-.24.03-.35.06-.12.02-.24.06-.36.09-.12.03-.24.06-.36.1-.11.03-.22.07-.33.11-.13.04-.25.09-.38.14-.04.02-.08.03-.12.04-.07.03-.13.07-.2.1-.12.06-.24.12-.36.18-.1.06-.21.12-.31.18-.11.07-.22.13-.32.2-.1.07-.21.14-.3.22-.1.07-.19.14-.28.22-.1.08-.2.17-.3.26-.08.08-.16.15-.25.23-.1.1-.19.2-.28.3-.07.08-.14.16-.21.24-.09.11-.18.23-.27.35-.06.08-.12.16-.17.24-.09.13-.17.27-.25.4-.03.05-.06.1-.09.15l-9.73,17.61c-2.01,3.64-.69,8.22,2.95,10.23,1.15.64,2.4.94,3.63.94,2.65,0,5.22-1.4,6.6-3.89l1.1-2c7.06,41.42-26.48,78.98-66.93,78.98-8.91,0-18.14-1.82-27.36-5.82-.98-.42-1.99-.62-3-.62-2.91,0-5.68,1.69-6.91,4.53-1.66,3.81.09,8.25,3.91,9.9,10.76,4.67,22.05,6.95,33.23,6.95h0c21.51,0,42.57-8.43,58.54-24.4,19.61-19.61,27.84-46.9,23.07-73.26l1.45.8c1.15.64,2.4.94,3.64.94,2.65,0,5.22-1.4,6.6-3.89,2.01-3.64.69-8.22-2.95-10.23l-17.61-9.73s-.07-.03-.11-.05c-.11-.06-.23-.12-.35-.17-.12-.05-.23-.11-.35-.16-.1-.04-.19-.07-.29-.11-.14-.05-.28-.1-.42-.14-.08-.02-.16-.04-.24-.06-.16-.04-.32-.08-.48-.11-.08-.01-.15-.02-.23-.04-.16-.03-.33-.05-.49-.07-.09,0-.18-.01-.27-.02-.15,0-.3-.02-.44-.02h0Z"/>
        </g>
        <g>
          <path class="cls-1" d="M193.09,221.93s-.07-.02-.08-.02c-.02,0-.13-.05-.14-.05,0,0-.19-.09-.23-.12l-17.46-9.64c-.31-.17-.44-.43-.49-.62s-.08-.47.09-.78c.27-.5.76-.54.91-.54.17,0,.33.04.49.13l1.35.75c.98.54,2.07.81,3.14.81,1.34,0,2.67-.41,3.8-1.23,2.04-1.47,3.05-3.99,2.59-6.46-4.08-21.85,1.92-44.43,16.47-61.95,14.84-17.87,36.22-28.12,58.66-28.12,10.41,0,20.78,2.21,30.83,6.57.52.23.76.83.54,1.36-.2.46-.64.62-.95.62-.14,0-.27-.03-.41-.09-9.72-4.22-19.79-6.36-29.95-6.36-21.66,0-42.33,9.78-56.72,26.83-14.17,16.79-20.22,38.56-16.61,59.75.46,2.72,2.6,4.86,5.32,5.32.36.06.73.09,1.09.09,2.34,0,4.53-1.26,5.69-3.36l1.1-2c.27-.5.76-.54.91-.54.17,0,.33.04.49.13.5.28.68.9.41,1.4l-9.65,17.46c-.04.07-.09.15-.13.22l-.06.08s-.08.08-.09.09l-.14.11s-.14.08-.14.08c0,0-.13.04-.13.04,0,0-.05.01-.1.02h-.1s-.09.02-.09.02c0,0-.2-.02-.2-.02ZM193.61,221.91h0Z"/>
          <path d="M262.19,107.6c-49.83,0-91.07,46.65-81.52,97.76l-1.35-.75c-1.15-.64-2.4-.94-3.64-.94-2.65,0-5.22,1.41-6.6,3.89-2.01,3.64-.69,8.22,2.95,10.23l17.61,9.73s.07.03.1.05c.12.06.24.12.36.18.11.05.22.1.33.15.11.04.21.08.32.12.13.05.25.09.38.13.1.03.2.05.3.08.14.04.27.07.41.1.1.02.21.03.31.05.13.02.26.04.4.06.12.01.25.02.37.02.11,0,.23.01.34.01.14,0,.29,0,.43-.02.1,0,.19,0,.29-.02.15-.01.29-.04.44-.06.1-.01.19-.03.29-.04.14-.03.27-.06.41-.1.11-.03.21-.05.32-.08.12-.04.24-.08.36-.12.12-.04.24-.09.36-.13.04-.02.08-.03.12-.05.07-.03.13-.07.2-.1.12-.06.24-.11.36-.18.1-.06.21-.12.31-.17.11-.07.22-.13.33-.2.1-.07.2-.14.3-.21.1-.07.19-.15.29-.22.1-.08.19-.17.29-.25.09-.08.17-.16.25-.24.1-.1.19-.19.28-.3.07-.08.14-.16.21-.24.09-.11.18-.23.27-.35.06-.08.12-.16.17-.24.09-.13.17-.27.25-.4.03-.05.06-.1.09-.15l9.73-17.61c2.01-3.64.69-8.22-2.95-10.23-1.15-.64-2.4-.94-3.63-.94-2.65,0-5.22,1.4-6.6,3.89l-1.1,2c-7.06-41.42,26.48-78.98,66.92-78.98,8.91,0,18.14,1.82,27.36,5.82.98.42,1.99.62,2.99.62,2.91,0,5.68-1.69,6.91-4.53,1.66-3.81-.09-8.25-3.91-9.9-11.25-4.89-22.54-7.11-33.42-7.11h0Z"/>
        </g>
        <g>
          <path class="cls-1" d="M262.5,308.71c-64.92,0-117.74-52.82-117.74-117.74s52.82-117.74,117.74-117.74,117.74,52.82,117.74,117.74-52.82,117.74-117.74,117.74ZM262.5,75.29c-63.78,0-115.68,51.89-115.68,115.68s51.89,115.68,115.68,115.68,115.68-51.89,115.68-115.68-51.89-115.68-115.68-115.68Z"/>
          <path d="M262.5,66.74c-68.5,0-124.24,55.73-124.24,124.23s55.73,124.24,124.24,124.24,124.24-55.73,124.24-124.24-55.73-124.23-124.24-124.23h0ZM262.5,300.15c-60.2,0-109.18-48.98-109.18-109.18s48.98-109.18,109.18-109.18,109.18,48.98,109.18,109.18-48.98,109.18-109.18,109.18h0Z"/>
        </g>
      </g>
    </g>
  </g>
</svg>