<?xml version="1.0" encoding="UTF-8"?>
<svg id="Layer_2" data-name="Layer 2" xmlns="http://www.w3.org/2000/svg" viewBox="0 0 525 418.33">
  <defs>
    <style>
      .cls-1 {
        fill: #00b2ca;
      }
    </style>
  </defs>
  <g id="Bottom_navigation" data-name="Bottom navigation">
    <g id="Speed_Bandwidth" data-name="Speed Bandwidth">
      <g>
        <g>
          <path class="cls-1" d="M73.7,405.33c-33.47,0-60.7-27.23-60.7-60.7v-28.8c0-2.3,1.87-4.17,4.17-4.17h10.67c3.59,0,6.5-2.91,6.5-6.5V67.83c0-30.24,24.6-54.83,54.83-54.83h346.67c30.24,0,54.83,24.6,54.83,54.83v237.33c0,3.59,2.91,6.5,6.5,6.5h10.67c2.3,0,4.17,1.87,4.17,4.17v28.8c0,33.47-27.23,60.7-60.7,60.7H73.7ZM27.83,320c-3.59,0-6.5,2.91-6.5,6.5v18.13c0,28.88,23.49,52.37,52.37,52.37h377.6c28.88,0,52.37-23.49,52.37-52.37v-18.13c0-3.59-2.91-6.5-6.5-6.5h-170.67c-3.59,0-6.5,2.91-6.5,6.5v32c0,2.3-1.87,4.17-4.17,4.17h-106.67c-2.3,0-4.17-1.87-4.17-4.17v-32c0-3.59-2.91-6.5-6.5-6.5H27.83ZM89.17,21.33c-25.64,0-46.5,20.86-46.5,46.5v237.33c0,3.59,2.91,6.5,6.5,6.5h426.67c3.59,0,6.5-2.91,6.5-6.5V67.83c0-25.64-20.86-46.5-46.5-46.5H89.17Z"/>
          <path d="M486.5,312.6c.22.31.45.61.69.9h-1.38c.24-.29.47-.59.69-.9M38.5,312.6c.22.31.45.61.69.9h-1.38c.24-.29.47-.59.69-.9M316.52,318.17c-1.89,2.26-3.02,5.16-3.02,8.33v29.67h-102v-29.67c0-3.17-1.14-6.08-3.02-8.33h108.04M435.83,6.5H89.17c-33.82,0-61.33,27.51-61.33,61.33v237.33h-10.67c-5.89,0-10.67,4.78-10.67,10.67v28.8c0,37.05,30.15,67.2,67.2,67.2h377.6c37.05,0,67.2-30.15,67.2-67.2v-28.8c0-5.89-4.78-10.67-10.67-10.67h-10.67V67.83c0-33.82-27.51-61.33-61.33-61.33h0ZM49.17,305.17V67.83c0-22.06,17.94-40,40-40h346.67c22.06,0,40,17.94,40,40v237.33H49.17ZM209.17,369.17h106.67c5.89,0,10.67-4.78,10.67-10.67v-32h170.67v18.13c0,25.29-20.58,45.87-45.87,45.87H73.7c-25.29,0-45.87-20.58-45.87-45.87v-18.13h170.67v32c0,5.89,4.78,10.67,10.67,10.67h0Z"/>
        </g>
        <g>
          <path class="cls-1" d="M262.5,277.33c-10.77,0-20.43-6.83-24.04-17.01-.92-2.59-3.37-4.33-6.13-4.33H91.83c-2.3,0-4.17-1.87-4.17-4.17,0-96.4,78.43-174.83,174.83-174.83s174.83,78.43,174.83,174.83c0,2.3-1.87,4.17-4.17,4.17h-140.5c-2.75,0-5.21,1.73-6.13,4.33-3.61,10.17-13.27,17.01-24.04,17.01ZM262.5,234.67c-9.47,0-17.17,7.7-17.17,17.17s7.7,17.17,17.17,17.17,17.17-7.7,17.17-17.17-7.7-17.17-17.17-17.17ZM155.99,196.15c-.66,0-1.32.1-1.96.3-1.74.55-3.17,1.81-3.94,3.46-5.96,12.85-9.63,26.53-10.91,40.66-.16,1.82.44,3.62,1.67,4.97,1.23,1.35,2.97,2.12,4.8,2.12h86.68c2.75,0,5.21-1.73,6.13-4.33,2.55-7.19,8.36-13,15.55-15.54,2.59-.92,4.33-3.37,4.33-6.13v-33.83c0-2.3,1.87-4.17,4.17-4.17s4.17,1.87,4.17,4.17v33.83c0,2.75,1.73,5.21,4.33,6.13,7.19,2.55,13,8.36,15.55,15.54.92,2.59,3.37,4.33,6.13,4.33h86.68c1.83,0,3.57-.77,4.8-2.12,1.23-1.35,1.84-3.15,1.67-4.97-1.28-14.13-4.95-27.81-10.9-40.66-.77-1.66-2.2-2.91-3.94-3.46-.64-.2-1.3-.3-1.96-.3-1.13,0-2.25.29-3.25.87l-8.81,5.08c-.64.37-1.34.56-2.08.56-1.51,0-2.86-.78-3.62-2.08-.56-.96-.7-2.09-.42-3.16.29-1.08.98-1.97,1.94-2.53l8.78-5.07c1.58-.91,2.71-2.45,3.1-4.24.39-1.79.01-3.65-1.04-5.15-8.18-11.55-18.18-21.55-29.73-29.73-1.11-.78-2.42-1.2-3.76-1.2-.46,0-.93.05-1.39.15-1.79.39-3.32,1.52-4.24,3.1l-5.07,8.78c-.75,1.31-2.11,2.08-3.62,2.08-.73,0-1.43-.19-2.07-.56-.96-.56-1.65-1.46-1.94-2.53-.29-1.07-.14-2.2.42-3.16l5.08-8.81c.91-1.58,1.12-3.47.57-5.21-.55-1.74-1.81-3.17-3.46-3.94-12.85-5.96-26.53-9.62-40.66-10.9-.2-.02-.39-.03-.59-.03-1.62,0-3.18.6-4.38,1.7-1.35,1.23-2.12,2.97-2.12,4.8v10.18c0,2.3-1.87,4.17-4.17,4.17s-4.17-1.87-4.17-4.17v-10.18c0-1.83-.77-3.57-2.12-4.8-1.2-1.1-2.77-1.7-4.38-1.7-.19,0-.39,0-.59.03-14.13,1.28-27.81,4.95-40.66,10.91-1.66.77-2.91,2.2-3.46,3.94-.55,1.74-.34,3.63.57,5.21l5.08,8.8c1.15,1.99.46,4.54-1.53,5.69-.64.37-1.34.56-2.07.56-1.51,0-2.86-.78-3.62-2.08l-5.07-8.78c-.91-1.58-2.45-2.71-4.24-3.1-.46-.1-.93-.15-1.39-.15-1.33,0-2.65.41-3.76,1.2-11.55,8.18-21.55,18.18-29.73,29.73-1.06,1.49-1.44,3.36-1.04,5.15.39,1.79,1.52,3.32,3.1,4.24l8.78,5.07c.96.56,1.65,1.46,1.94,2.53.29,1.07.14,2.2-.42,3.16-.75,1.31-2.11,2.09-3.62,2.09-.73,0-1.43-.19-2.08-.56l-8.8-5.08c-1-.58-2.12-.87-3.25-.87Z"/>
          <path d="M262.5,83.5c92.04,0,167.06,74.26,168.32,166h-41.5c2.21-2.64,3.28-6.06,2.97-9.51-1.35-14.88-5.21-29.28-11.48-42.81-1.54-3.31-4.39-5.82-7.87-6.93-.93-.29-1.88-.48-2.84-.56.4-.86.71-1.78.92-2.72.78-3.57.02-7.31-2.09-10.29-8.6-12.15-19.13-22.68-31.28-31.28-2.21-1.57-4.84-2.39-7.51-2.39-.93,0-1.86.1-2.78.3-.95.21-1.86.52-2.72.92-.08-.96-.27-1.91-.56-2.84-1.1-3.48-3.62-6.34-6.93-7.87-13.53-6.27-27.93-10.13-42.81-11.48-.39-.04-.78-.05-1.17-.05-3.23,0-6.36,1.2-8.77,3.4-.72.66-1.35,1.38-1.9,2.17-.55-.78-1.18-1.51-1.9-2.17-2.41-2.2-5.54-3.4-8.77-3.4-.39,0-.78.02-1.17.05-14.88,1.35-29.28,5.21-42.81,11.48-3.31,1.54-5.82,4.39-6.93,7.87-.29.93-.48,1.88-.56,2.84-.86-.4-1.78-.71-2.72-.92-.92-.2-1.85-.3-2.78-.3-2.67,0-5.3.82-7.51,2.39-12.15,8.6-22.68,19.13-31.28,31.28-2.11,2.98-2.87,6.72-2.09,10.29.21.95.52,1.86.92,2.72-.96.08-1.91.27-2.84.56-3.48,1.1-6.34,3.62-7.87,6.93-6.27,13.53-10.14,27.93-11.48,42.81-.31,3.44.76,6.86,2.97,9.51h-41.5c1.26-91.74,76.28-166,168.32-166M262.5,70.5c-99.99,0-181.33,81.35-181.33,181.33,0,5.89,4.78,10.67,10.67,10.67h140.5c4.4,12.42,16.26,21.33,30.17,21.33s25.76-8.92,30.17-21.33h140.5c5.89,0,10.67-4.78,10.67-10.67,0-99.99-81.35-181.33-181.33-181.33h0ZM262.5,155.83c5.89,0,10.67-4.78,10.67-10.67v-10.18c13.64,1.24,26.61,4.81,38.51,10.33l-5.08,8.81c-2.95,5.1-1.2,11.62,3.9,14.57,1.68.97,3.51,1.43,5.32,1.43,3.68,0,7.27-1.91,9.25-5.33l5.07-8.78c10.91,7.73,20.46,17.27,28.18,28.18l-8.78,5.07c-5.1,2.95-6.85,9.47-3.9,14.57,1.98,3.43,5.57,5.33,9.25,5.33,1.81,0,3.65-.46,5.33-1.43l8.81-5.08c5.52,11.9,9.09,24.87,10.33,38.51h-86.68c-3.22-9.08-10.42-16.28-19.5-19.5v-33.83c0-5.89-4.78-10.67-10.67-10.67s-10.67,4.78-10.67,10.67v33.83c-9.08,3.22-16.28,10.42-19.5,19.5h-86.68c1.23-13.64,4.81-26.61,10.33-38.51l8.81,5.08c1.68.97,3.51,1.43,5.33,1.43,3.68,0,7.27-1.91,9.25-5.33,2.95-5.1,1.2-11.62-3.9-14.57l-8.78-5.07c7.73-10.91,17.27-20.46,28.18-28.18l5.07,8.78c1.98,3.43,5.57,5.33,9.24,5.33,1.81,0,3.65-.46,5.33-1.43,5.1-2.95,6.85-9.47,3.9-14.57l-5.08-8.81c11.9-5.52,24.87-9.09,38.51-10.33v10.18c0,5.89,4.78,10.67,10.67,10.67h0ZM262.5,262.5c-5.88,0-10.67-4.78-10.67-10.67s4.79-10.67,10.67-10.67,10.67,4.78,10.67,10.67-4.79,10.67-10.67,10.67h0Z"/>
        </g>
      </g>
    </g>
  </g>
</svg>