<?xml version="1.0" encoding="UTF-8"?>
<svg id="Layer_2" xmlns="http://www.w3.org/2000/svg" viewBox="0 0 525 277.08">
  <defs>
    <style>
      .cls-1 {
        fill: #00b2ca;
      }
    </style>
  </defs>
  <g id="Layer_2-2" data-name="Layer_2">
    <g id="HDMI_Ports">
      <g>
        <g>
          <path class="cls-1" d="M69.34,264.08c-31.06,0-56.34-25.25-56.34-56.28V69.33c0-31.06,25.27-56.33,56.34-56.33h386.39c31.03,0,56.28,25.27,56.28,56.33v138.48c0,31.03-25.25,56.28-56.28,56.28H69.34ZM69.34,13.88c-30.58,0-55.45,24.87-55.45,55.44v138.48c0,30.54,24.88,55.39,55.45,55.39h386.39c30.54,0,55.39-24.85,55.39-55.39V69.33c0-30.57-24.85-55.44-55.39-55.44H69.34Z"/>
          <path d="M455.72,6.5H69.34C34.69,6.5,6.5,34.68,6.5,69.33v138.48c0,34.61,28.19,62.78,62.84,62.78h386.39c34.61,0,62.78-28.16,62.78-62.78V69.33c0-34.64-28.16-62.83-62.78-62.83h0ZM69.34,256.7c-26.99,0-48.95-21.93-48.95-48.89V69.33c0-26.98,21.96-48.94,48.95-48.94h386.39c26.96,0,48.89,21.96,48.89,48.94v138.48c0,26.96-21.93,48.89-48.89,48.89H69.34Z"/>
        </g>
        <g>
          <path class="cls-1" d="M352.76,163.22c-.23,0-.44-.21-.44-.45v-16.29h-35.24v16.29c0,.24-.2.45-.44.45s-.44-.2-.44-.45v-16.29h-35.19v16.29c0,.24-.2.45-.44.45s-.45-.2-.45-.45v-16.29h-35.23v16.29c0,.24-.2.45-.44.45s-.45-.2-.45-.45v-16.29h-35.23v16.29c0,.24-.2.45-.45.45s-.44-.21-.44-.45v-16.29h-35.18v16.29c0,.24-.2.45-.45.45s-.44-.21-.44-.45v-16.29h-18.34c-8.98,0-16.28-7.3-16.28-16.28s7.31-16.27,16.28-16.27h217.98c8.97,0,16.27,7.3,16.27,16.27s-7.3,16.28-16.27,16.28h-18.29v16.29c0,.24-.2.45-.45.45Z"/>
          <path d="M371.49,120.42c5.39,0,9.77,4.38,9.77,9.77s-4.38,9.78-9.77,9.78h-217.98c-5.4,0-9.78-4.39-9.78-9.78s4.39-9.77,9.78-9.77h217.98M371.49,107.42h-217.98c-12.56,0-22.78,10.21-22.78,22.77s10.22,22.78,22.78,22.78h11.84v9.79c0,3.83,3.12,6.95,6.94,6.95s6.95-3.12,6.95-6.95v-9.79h22.18v9.79c0,3.83,3.12,6.95,6.94,6.95s6.95-3.12,6.95-6.95v-9.79h22.23v9.79c0,3.83,3.12,6.95,6.95,6.95s6.94-3.12,6.94-6.95v-9.79h22.23v9.79c0,3.83,3.12,6.95,6.95,6.95s6.94-3.12,6.94-6.95v-9.79h22.19v9.79c0,3.83,3.11,6.95,6.94,6.95s6.94-3.12,6.94-6.95v-9.79h22.24v9.79c0,3.83,3.12,6.95,6.94,6.95s6.95-3.12,6.95-6.95v-9.79h11.79c12.55,0,22.77-10.22,22.77-22.78s-10.22-22.77-22.77-22.77h0Z"/>
        </g>
        <g>
          <path class="cls-1" d="M161.84,217.19c-9.75,0-18.62-5.36-23.13-14l-17.57-33.57c-4.37-8.35-12.94-13.53-22.35-13.53-14.4,0-26.11-11.71-26.11-26.11v-43.95c0-14.4,11.71-26.11,26.11-26.11h327.43c.23,0,.44.21.44.45s-.2.44-.44.44H98.8c-13.91,0-25.23,11.32-25.23,25.23v43.95c0,13.91,11.32,25.23,25.23,25.23,9.74,0,18.6,5.37,23.13,14.01l17.56,33.56c4.37,8.35,12.94,13.53,22.35,13.53h201.35c9.41,0,17.98-5.18,22.35-13.53l17.57-33.56c4.52-8.64,13.38-14.01,23.13-14.01,13.91,0,25.23-11.32,25.23-25.23v-43.95c0-.24.2-.44.44-.44s.44.2.44.44v43.95c0,14.4-11.71,26.11-26.1,26.11-9.41,0-17.98,5.18-22.35,13.53l-17.57,33.57c-4.52,8.63-13.38,14-23.13,14h-201.35Z"/>
          <path d="M426.23,53.43H98.8c-17.98,0-32.61,14.63-32.61,32.61v43.95c0,17.98,14.63,32.61,32.61,32.61,7,0,13.35,3.85,16.59,10.04l17.56,33.57c5.64,10.79,16.71,17.49,28.89,17.49h201.35c12.18,0,23.24-6.7,28.89-17.49l17.56-33.57c3.25-6.19,9.6-10.04,16.59-10.04,17.97,0,32.6-14.63,32.6-32.61v-43.95c0-3.83-3.11-6.94-6.94-6.94s-6.94,3.11-6.94,6.94v43.95c0,10.33-8.41,18.73-18.73,18.73-12.18,0-23.25,6.71-28.89,17.49l-17.56,33.56c-3.24,6.19-9.6,10.04-16.59,10.04h-201.35c-7,0-13.35-3.85-16.59-10.04l-17.56-33.56c-5.65-10.79-16.71-17.49-28.89-17.49-10.32,0-18.73-8.4-18.73-18.73v-43.95c0-10.32,8.41-18.73,18.73-18.73h327.43c3.82,0,6.94-3.12,6.94-6.94s-3.12-6.95-6.94-6.95h0Z"/>
        </g>
      </g>
    </g>
  </g>
</svg>