<?xml version="1.0" encoding="UTF-8"?>
<svg id="Layer_2" data-name="Layer 2" xmlns="http://www.w3.org/2000/svg" viewBox="0 0 461 525">
  <defs>
    <style>
      .cls-1 {
        fill: #00b2ca;
      }
    </style>
  </defs>
  <g id="Bottom_navigation" data-name="Bottom navigation">
    <g id="Print_Speed_PPM_" data-name="Print Speed (PPM)">
      <g>
        <g>
          <path class="cls-1" d="M230.5,512c-119.93,0-217.5-97.57-217.5-217.5,0-64.42,28.43-125.19,78.01-166.73,2.54-2.13,3.07-5.82,1.24-8.58l-16.25-24.5c-.95-1.44-2.44-2.44-4.13-2.78-.43-.09-.86-.13-1.29-.13-1.27,0-2.52.37-3.59,1.08l-8.89,5.9c-.69.46-1.48.7-2.29.7-1.41,0-2.71-.7-3.49-1.87-1.27-1.91-.74-4.5,1.17-5.78l71.11-47.18c.69-.46,1.48-.7,2.29-.7,1.41,0,2.71.7,3.48,1.86,1.27,1.92.75,4.51-1.17,5.78l-8.89,5.9c-1.44.95-2.44,2.44-2.78,4.13-.34,1.69,0,3.45.95,4.88l17.35,26.16c1.24,1.86,3.3,2.91,5.42,2.91.87,0,1.75-.18,2.6-.54,14.49-6.32,29.7-11.04,45.21-14.05,3.06-.59,5.26-3.27,5.26-6.38V27.83c0-3.59-2.91-6.5-6.5-6.5h-10.67c-2.3,0-4.17-1.87-4.17-4.17s1.87-4.17,4.17-4.17h106.67c2.3,0,4.17,1.87,4.17,4.17s-1.87,4.17-4.17,4.17h-10.67c-3.59,0-6.5,2.91-6.5,6.5v46.76c0,3.11,2.21,5.79,5.26,6.38,15.51,3,30.72,7.73,45.21,14.05.84.37,1.72.54,2.6.54,2.12,0,4.18-1.04,5.42-2.91l17.35-26.16c.95-1.44,1.3-3.19.95-4.88-.34-1.69-1.34-3.17-2.78-4.13l-8.89-5.9c-.93-.62-1.56-1.56-1.78-2.65s0-2.2.61-3.13c.77-1.17,2.08-1.87,3.48-1.87.81,0,1.61.24,2.29.7l71.11,47.18c.93.62,1.56,1.55,1.78,2.65.22,1.09,0,2.2-.61,3.13-.77,1.17-2.08,1.86-3.49,1.86-.81,0-1.6-.24-2.29-.7l-8.89-5.9c-1.07-.71-2.32-1.08-3.59-1.08-.43,0-.86.04-1.29.13-1.69.34-3.17,1.34-4.13,2.78l-16.25,24.5c-1.83,2.76-1.29,6.45,1.24,8.57,49.57,41.54,78.01,102.32,78.01,166.73,0,119.93-97.57,217.5-217.5,217.5ZM230.5,85.33c-115.33,0-209.17,93.83-209.17,209.17s93.83,209.17,209.17,209.17,209.17-93.83,209.17-209.17-93.83-209.17-209.17-209.17ZM106.13,68.2c-1.23,0-2.48.35-3.59,1.08l-17.77,11.79c-1.44.95-2.44,2.44-2.78,4.13-.34,1.69,0,3.45.95,4.88l15.49,23.35c.96,1.45,2.47,2.46,4.18,2.79.41.08.82.12,1.23.12,1.31,0,2.59-.39,3.68-1.15,5.67-3.9,11.59-7.57,17.61-10.92,1.58-.88,2.73-2.38,3.16-4.14.43-1.76.1-3.62-.9-5.13l-15.85-23.9c-1.25-1.89-3.32-2.91-5.42-2.91ZM354.87,68.2c-2.11,0-4.17,1.02-5.42,2.91l-15.85,23.9c-1,1.51-1.33,3.37-.9,5.13.43,1.76,1.57,3.26,3.16,4.14,6.02,3.35,11.95,7.03,17.61,10.92,1.09.75,2.38,1.15,3.69,1.15.41,0,.82-.04,1.23-.12,1.71-.33,3.22-1.34,4.18-2.79l15.49-23.35c.95-1.44,1.3-3.19.95-4.88-.34-1.69-1.34-3.17-2.78-4.13l-17.78-11.79c-1.11-.73-2.35-1.08-3.59-1.08Z"/>
          <path d="M263.19,19.5c-1.89,2.26-3.02,5.16-3.02,8.33v46.76c0,2.36.63,4.59,1.75,6.52-10.26-1.5-20.75-2.28-31.42-2.28s-21.16.78-31.42,2.28c1.12-1.93,1.75-4.16,1.75-6.52V27.83c0-3.17-1.14-6.08-3.02-8.33h65.38M350.01,61.48l1.15.76c-.36.11-.72.23-1.07.37,0-.38-.03-.76-.08-1.13M110.99,61.48c-.04.38-.07.75-.08,1.13-.35-.14-.71-.26-1.07-.37.39-.26.77-.51,1.15-.76M385.56,85.07l1.15.76c-.36.11-.72.23-1.07.37,0-.38-.03-.75-.08-1.13M75.44,85.07c-.04.38-.07.75-.08,1.13-.35-.14-.71-.26-1.07-.37.38-.25.76-.5,1.15-.76M326.14,100.38c.04.31.1.61.16.92-.33-.16-.66-.33-.99-.49.28-.13.56-.28.83-.43M134.86,100.38c.27.15.55.3.83.43-.33.16-.66.32-.99.49.06-.31.12-.61.16-.92M361.18,122.21c-.01.28-.02.55-.01.83-.26-.2-.52-.4-.78-.59.27-.07.53-.15.79-.23M99.82,122.21c.26.08.52.16.79.23-.26.2-.52.4-.78.59,0-.27,0-.55,0-.82M283.83,6.5h-106.67c-5.89,0-10.67,4.78-10.67,10.67s4.78,10.67,10.67,10.67h10.67v46.76c-16.21,3.14-31.8,8.03-46.57,14.47l-17.35-26.16,8.89-5.9c4.91-3.26,6.25-9.88,2.99-14.78-2.05-3.1-5.44-4.77-8.9-4.77-2.03,0-4.07.58-5.89,1.78-7.59,5.04-61.4,40.74-71.11,47.18-4.91,3.26-6.25,9.88-2.99,14.78,2.04,3.08,5.44,4.77,8.9,4.77,2.02,0,4.06-.57,5.88-1.78l8.89-5.9,16.25,24.5C37.76,163.91,6.5,225.62,6.5,294.5c0,123.51,100.49,224,224,224s224-100.49,224-224c0-68.88-31.26-130.59-80.33-171.72l16.25-24.5,8.89,5.9c1.82,1.21,3.86,1.78,5.88,1.78,3.46,0,6.86-1.69,8.9-4.77,3.26-4.91,1.92-11.53-2.99-14.79-22.37-14.84-50.08-33.23-71.11-47.18-1.81-1.2-3.86-1.78-5.89-1.78-3.46,0-6.85,1.68-8.9,4.77-3.26,4.91-1.92,11.53,2.99,14.79l8.89,5.9-17.35,26.16c-14.77-6.44-30.36-11.33-46.57-14.47V27.83h10.67c5.89,0,10.67-4.78,10.67-10.67s-4.78-10.67-10.67-10.67h0ZM357.15,109.85c-5.85-4.03-11.9-7.78-18.14-11.25l15.85-23.9,17.77,11.79-15.49,23.35h0ZM103.85,109.85l-15.49-23.35,17.77-11.79,15.85,23.9c-6.23,3.47-12.29,7.22-18.14,11.25h0ZM230.5,497.17c-111.75,0-202.67-90.92-202.67-202.67S118.75,91.83,230.5,91.83s202.67,90.92,202.67,202.67-90.92,202.67-202.67,202.67h0Z"/>
        </g>
        <g>
          <path class="cls-1" d="M230.5,458.67c-90.52,0-164.17-73.64-164.17-164.17s73.64-164.17,164.17-164.17,164.17,73.64,164.17,164.17-73.64,164.17-164.17,164.17ZM230.5,138.67c-85.93,0-155.83,69.91-155.83,155.83s69.91,155.83,155.83,155.83,155.83-69.91,155.83-155.83-69.91-155.83-155.83-155.83Z"/>
          <path d="M230.5,123.83c-94.11,0-170.67,76.56-170.67,170.67s76.56,170.67,170.67,170.67,170.67-76.56,170.67-170.67-76.56-170.67-170.67-170.67h0ZM230.5,443.83c-82.34,0-149.33-66.99-149.33-149.33s66.99-149.33,149.33-149.33,149.33,66.99,149.33,149.33-66.99,149.33-149.33,149.33h0Z"/>
        </g>
        <g>
          <path class="cls-1" d="M177.18,206.29c-1.51,0-2.86-.78-3.62-2.08l-5.33-9.24c-.56-.96-.7-2.09-.42-3.16.29-1.07.98-1.97,1.94-2.53.65-.37,1.34-.56,2.08-.56,1.49,0,2.87.8,3.62,2.08l5.33,9.24c.56.96.7,2.09.42,3.16s-.98,1.97-1.94,2.53c-.64.37-1.34.56-2.07.56h0Z"/>
          <path d="M171.82,182.22c-1.81,0-3.64.46-5.32,1.43-5.1,2.95-6.85,9.47-3.9,14.57l5.33,9.24c1.98,3.44,5.57,5.33,9.25,5.33,1.81,0,3.65-.46,5.33-1.43,5.1-2.95,6.85-9.47,3.9-14.57l-5.33-9.24c-1.98-3.42-5.56-5.34-9.25-5.34h0Z"/>
        </g>
        <g>
          <path class="cls-1" d="M138.11,245.33c-.73,0-1.43-.19-2.08-.56l-9.24-5.33c-.96-.56-1.65-1.46-1.94-2.53-.29-1.08-.14-2.2.42-3.16.74-1.29,2.13-2.08,3.62-2.08.73,0,1.43.19,2.07.56l9.24,5.33c.96.56,1.65,1.46,1.94,2.53.29,1.08.14,2.2-.42,3.16-.75,1.31-2.11,2.09-3.62,2.09h0Z"/>
          <path d="M128.9,225.17c-3.69,0-7.27,1.91-9.25,5.33-2.95,5.1-1.2,11.63,3.9,14.57l9.24,5.33c1.68.97,3.51,1.43,5.32,1.43,3.68,0,7.27-1.9,9.25-5.33,2.95-5.1,1.2-11.63-3.9-14.57l-9.24-5.33c-1.68-.97-3.51-1.43-5.32-1.43h0Z"/>
        </g>
        <g>
          <path class="cls-1" d="M113.17,298.67c-2.3,0-4.17-1.87-4.17-4.17s1.87-4.17,4.17-4.17h10.67c2.3,0,4.17,1.87,4.17,4.17s-1.87,4.17-4.17,4.17h-10.67Z"/>
          <path d="M123.83,283.83h-10.67c-5.89,0-10.67,4.78-10.67,10.67s4.78,10.67,10.67,10.67h10.67c5.89,0,10.67-4.78,10.67-10.67s-4.78-10.67-10.67-10.67h0Z"/>
        </g>
        <g>
          <path class="cls-1" d="M128.89,357.33c-1.51,0-2.86-.78-3.62-2.08-1.15-1.99-.46-4.54,1.53-5.69l9.24-5.33c.64-.37,1.34-.56,2.07-.56,1.49,0,2.88.8,3.62,2.08,1.15,1.99.46,4.54-1.53,5.69l-9.24,5.33c-.64.37-1.34.56-2.08.56h0Z"/>
          <path d="M138.11,337.16c-1.81,0-3.64.46-5.32,1.43l-9.24,5.33c-5.1,2.95-6.85,9.47-3.9,14.57,1.98,3.43,5.57,5.33,9.25,5.33,1.81,0,3.65-.46,5.33-1.43l9.24-5.33c5.1-2.95,6.85-9.47,3.9-14.57-1.98-3.42-5.56-5.34-9.25-5.34h0Z"/>
        </g>
        <g>
          <path class="cls-1" d="M171.82,400.28c-.73,0-1.43-.19-2.07-.56-.96-.56-1.65-1.46-1.94-2.53-.29-1.07-.14-2.2.42-3.16l5.33-9.24c.74-1.29,2.13-2.08,3.62-2.08.73,0,1.43.19,2.07.56,1.99,1.15,2.67,3.7,1.53,5.69l-5.33,9.24c-.75,1.31-2.11,2.08-3.62,2.08h0Z"/>
          <path d="M177.18,376.21c-3.69,0-7.27,1.91-9.25,5.33l-5.33,9.24c-2.95,5.1-1.2,11.62,3.9,14.57,1.68.97,3.51,1.43,5.32,1.43,3.68,0,7.27-1.91,9.25-5.34l5.33-9.24c2.95-5.1,1.2-11.62-3.9-14.57-1.68-.97-3.51-1.43-5.32-1.43h0Z"/>
        </g>
        <g>
          <path class="cls-1" d="M230.5,416c-2.3,0-4.17-1.87-4.17-4.17v-10.67c0-2.3,1.87-4.17,4.17-4.17s4.17,1.87,4.17,4.17v10.67c0,2.3-1.87,4.17-4.17,4.17Z"/>
          <path d="M230.5,390.5c-5.89,0-10.67,4.78-10.67,10.67v10.67c0,5.89,4.78,10.67,10.67,10.67s10.67-4.78,10.67-10.67v-10.67c0-5.89-4.78-10.67-10.67-10.67h0Z"/>
        </g>
        <g>
          <path class="cls-1" d="M289.18,400.28c-1.51,0-2.86-.78-3.62-2.08l-5.33-9.24c-1.15-1.99-.46-4.54,1.53-5.69.64-.37,1.34-.56,2.07-.56,1.49,0,2.88.8,3.62,2.09l5.33,9.24c1.15,1.99.46,4.54-1.53,5.69-.64.37-1.34.56-2.07.56h0Z"/>
          <path d="M283.82,376.21c-1.81,0-3.64.46-5.32,1.43-5.1,2.95-6.85,9.47-3.9,14.57l5.33,9.24c1.98,3.43,5.57,5.33,9.25,5.33,1.81,0,3.65-.46,5.32-1.43,5.1-2.95,6.85-9.47,3.9-14.57l-5.33-9.24c-1.98-3.42-5.56-5.33-9.25-5.33h0Z"/>
        </g>
        <g>
          <path class="cls-1" d="M332.11,357.33c-.73,0-1.43-.19-2.08-.56l-9.24-5.33c-1.99-1.15-2.67-3.7-1.53-5.69.74-1.29,2.13-2.08,3.62-2.08.73,0,1.43.19,2.07.56l9.24,5.33c1.99,1.15,2.67,3.7,1.53,5.69-.75,1.31-2.11,2.09-3.62,2.09h0Z"/>
          <path d="M322.89,337.17c-3.69,0-7.27,1.91-9.25,5.33-2.95,5.1-1.2,11.62,3.9,14.57l9.24,5.33c1.68.97,3.51,1.43,5.33,1.43,3.68,0,7.27-1.91,9.25-5.33,2.95-5.1,1.2-11.62-3.9-14.57l-9.24-5.33c-1.68-.97-3.51-1.43-5.32-1.43h0Z"/>
        </g>
        <g>
          <path class="cls-1" d="M230.5,298.67c-2.3,0-4.17-1.87-4.17-4.17v-117.33c0-2.3,1.87-4.17,4.17-4.17,67,0,121.5,54.5,121.5,121.5,0,2.3-1.87,4.17-4.17,4.17h-117.33Z"/>
          <path d="M232.83,179.52c61.57,1.23,111.41,51.08,112.64,112.64h-112.64v-112.64M230.5,166.5c-5.89,0-10.67,4.78-10.67,10.67v117.33c0,5.89,4.78,10.67,10.67,10.67h117.33c5.89,0,10.67-4.78,10.67-10.67,0-70.58-57.42-128-128-128h0Z"/>
        </g>
      </g>
    </g>
  </g>
</svg>