<?xml version="1.0" encoding="UTF-8"?>
<svg id="Layer_2" data-name="Layer 2" xmlns="http://www.w3.org/2000/svg" viewBox="0 0 525 487.35">
  <defs>
    <style>
      .cls-1 {
        fill: #00b2ca;
      }
    </style>
  </defs>
  <g id="Bottom_navigation" data-name="Bottom navigation">
    <g id="Brand">
      <g>
        <g>
          <path class="cls-1" d="M171.14,474.35c-12.47,0-22.61-10.14-22.61-22.61v-46.18c0-3.59-2.91-6.5-6.5-6.5H54.7c-22.99,0-41.7-18.71-41.7-41.7v-204.78c0-22.99,18.71-41.7,41.7-41.7h42.15c3.59,0,6.5-2.91,6.5-6.5v-13.8c0-9.56,7.78-17.34,17.34-17.34h21.33c3.59,0,6.5-2.91,6.5-6.5v-33.13c0-11.36,9.24-20.61,20.61-20.61h186.73c11.36,0,20.61,9.24,20.61,20.61v33.13c0,3.59,2.91,6.5,6.5,6.5h21.33c9.56,0,17.34,7.78,17.34,17.34v13.8c0,3.59,2.91,6.5,6.5,6.5h42.15c22.99,0,41.7,18.71,41.7,41.7v204.78c0,22.99-18.71,41.7-41.7,41.7h-87.33c-3.59,0-6.5,2.91-6.5,6.5v46.18c0,12.47-10.14,22.61-22.61,22.61h-182.71ZM382.97,321.71c11.57,0,18.82,7.56,21.75,14.63,2.92,7.06,3.13,17.51-5.05,25.69-5.97,5.97-12.49,6.82-16.88,6.94-3.52.1-6.32,2.98-6.32,6.5v15.04c0,3.59,2.91,6.5,6.5,6.5h87.33c21.86,0,39.64-17.78,39.64-39.64v-57.21c0-3.59-2.91-6.5-6.5-6.5H21.56c-3.59,0-6.5,2.91-6.5,6.5v57.21c0,21.86,17.78,39.64,39.64,39.64h87.33c3.59,0,6.5-2.91,6.5-6.5v-15.06c0-3.59-2.91-6.5-6.5-6.5-13.02,0-23.62-10.59-23.62-23.62s10.59-23.62,23.62-23.62h240.94ZM375.44,351.82c.57,0,1.03.46,1.03,1.03v7.53c0,3.59,2.91,6.5,6.5,6.5,11.89,0,21.56-9.67,21.56-21.56s-9.67-21.56-21.56-21.56h-240.94c-11.89,0-21.56,9.67-21.56,21.56s9.67,21.56,21.56,21.56c3.59,0,6.5-2.91,6.5-6.5v-7.53c0-.57.46-1.03,1.03-1.03h225.88ZM54.7,112.94c-21.86,0-39.64,17.78-39.64,39.64v132.51c0,3.59,2.91,6.5,6.5,6.5h481.88c3.59,0,6.5-2.91,6.5-6.5v-132.51c0-21.86-17.78-39.64-39.64-39.64H54.7ZM382.97,75.29c-3.59,0-6.5,2.91-6.5,6.5v22.59c0,3.59,2.91,6.5,6.5,6.5h30.12c3.59,0,6.5-2.91,6.5-6.5v-13.8c0-8.43-6.86-15.28-15.28-15.28h-21.33ZM169.14,15.06c-10.23,0-18.55,8.32-18.55,18.55v70.78c0,3.59,2.91,6.5,6.5,6.5h210.82c3.59,0,6.5-2.91,6.5-6.5V33.61c0-10.23-8.32-18.55-18.55-18.55h-186.73ZM120.7,75.29c-8.43,0-15.28,6.86-15.28,15.28v13.8c0,3.59,2.91,6.5,6.5,6.5h30.12c3.59,0,6.5-2.91,6.5-6.5v-22.59c0-3.59-2.91-6.5-6.5-6.5h-21.33Z"/>
          <path d="M369.97,358.32v2.06c0,2.81.89,5.41,2.41,7.54-1.52,2.13-2.41,4.73-2.41,7.54v15.04c0,2.81.89,5.4,2.4,7.53-1.51,2.12-2.4,4.72-2.4,7.53v46.18c0,8.89-7.23,16.11-16.11,16.11h-182.71c-8.89,0-16.11-7.23-16.11-16.11v-46.18c0-2.81-.89-5.4-2.4-7.53,1.51-2.12,2.4-4.72,2.4-7.53v-15.06c0-2.81-.89-5.4-2.4-7.53,1.51-2.12,2.4-4.72,2.4-7.53v-2.06h214.94M355.86,6.5h-186.73c-14.95,0-27.11,12.16-27.11,27.11v33.13h-21.33c-13.15,0-23.84,10.7-23.84,23.84v13.8h-42.15c-26.58,0-48.2,21.62-48.2,48.2v204.78c0,26.58,21.62,48.2,48.2,48.2h87.33v46.18c0,16.05,13.06,29.11,29.11,29.11h182.71c16.05,0,29.11-13.06,29.11-29.11v-46.18h87.33c26.58,0,48.2-21.62,48.2-48.2v-204.78c0-26.58-21.62-48.2-48.2-48.2h-42.15v-13.8c0-13.15-10.7-23.84-23.84-23.84h-21.33v-33.13c0-14.95-12.16-27.11-27.11-27.11h0ZM157.09,104.38V33.61c0-6.64,5.4-12.05,12.05-12.05h186.73c6.64,0,12.05,5.4,12.05,12.05v70.78h-210.82ZM382.97,104.38v-22.59h21.33c4.84,0,8.78,3.94,8.78,8.78v13.8h-30.12ZM111.91,104.38v-13.8c0-4.84,3.94-8.78,8.78-8.78h21.33v22.59h-30.12ZM21.56,285.09v-132.51c0-18.27,14.87-33.14,33.14-33.14h415.6c18.27,0,33.14,14.87,33.14,33.14v132.51H21.56ZM54.7,390.5c-18.27,0-33.14-14.87-33.14-33.14v-57.21h481.88v57.21c0,18.27-14.87,33.14-33.14,33.14h-87.33v-15.04c5.92-.16,13.99-1.54,21.3-8.84,18.92-18.92,5.36-51.41-21.3-51.41h-240.94c-16.65,0-30.12,13.47-30.12,30.12s13.51,30.12,30.12,30.12v15.06H54.7ZM142.03,360.38c-8.3,0-15.06-6.76-15.06-15.06s6.74-15.06,15.06-15.06h240.94c8.3,0,15.06,6.76,15.06,15.06s-6.74,15.06-15.06,15.06v-7.53c0-4.16-3.37-7.53-7.53-7.53h-225.88c-4.16,0-7.53,3.37-7.53,7.53v7.53h0Z"/>
        </g>
        <g>
          <path class="cls-1" d="M432.41,188.24c-10.95,0-19.85-8.91-19.85-19.85s8.91-19.85,19.85-19.85,19.85,8.91,19.85,19.85-8.91,19.85-19.85,19.85Z"/>
          <path d="M432.41,155.03c7.36,0,13.35,5.99,13.35,13.35s-5.99,13.35-13.35,13.35-13.35-5.99-13.35-13.35,5.99-13.35,13.35-13.35M432.41,142.03c-14.53,0-26.35,11.82-26.35,26.35s11.82,26.35,26.35,26.35,26.35-11.82,26.35-26.35-11.82-26.35-26.35-26.35h0Z"/>
        </g>
        <g>
          <path class="cls-1" d="M432.41,256c-10.95,0-19.85-8.91-19.85-19.85s8.91-19.85,19.85-19.85,19.85,8.91,19.85,19.85-8.91,19.85-19.85,19.85Z"/>
          <path d="M432.41,222.79c7.36,0,13.35,5.99,13.35,13.35s-5.99,13.35-13.35,13.35-13.35-5.99-13.35-13.35,5.99-13.35,13.35-13.35M432.41,209.79c-14.53,0-26.35,11.82-26.35,26.35s11.82,26.35,26.35,26.35,26.35-11.82,26.35-26.35-11.82-26.35-26.35-26.35h0Z"/>
        </g>
      </g>
    </g>
  </g>
</svg>