<?xml version="1.0" encoding="UTF-8"?>
<svg id="Layer_2" data-name="Layer 2" xmlns="http://www.w3.org/2000/svg" viewBox="0 0 524.97 525">
  <defs>
    <style>
      .cls-1 {
        fill: #00b2ca;
      }
    </style>
  </defs>
  <g id="Bottom_navigation" data-name="Bottom navigation">
    <g id="Connectivity_Type" data-name="Connectivity Type">
      <g>
        <g>
          <path class="cls-1" d="M114.42,512c-10.25,0-18.6-8.34-18.6-18.6v-12.55c0-3.59-2.91-6.5-6.5-6.5h-7.03c-38.21,0-69.29-31.08-69.29-69.29,0,0,0-89.87,0-89.88,0,0,.02-.15.03-.17,0,0,.02-.09.03-.11l.07-.16s.06-.09.06-.09c.02-.02.1-.14.1-.14,0,0,285.48-285.49,285.48-285.49,10.33-10.33,24.09-16.02,38.74-16.02s28.41,5.69,38.74,16.02c4.26,4.26,6.61,9.93,6.61,15.96s-2.35,11.7-6.61,15.96l-242.16,242.15c-1.86,1.86-2.42,4.66-1.41,7.08s3.38,4.01,6.01,4.01h69.6c3.59,0,6.5-2.91,6.5-6.5v-32.15c0-.57.46-1.03,1.03-1.03h233.4c.57,0,1.03.46,1.03,1.03v32.15c0,3.59,2.91,6.5,6.5,6.5h25.35c16.48,0,29.89,13.41,29.89,29.89v60.99c0,38.21-31.08,69.29-69.29,69.29h-7.03c-3.59,0-6.5,2.91-6.5,6.5v12.55c0,10.25-8.34,18.6-18.6,18.6H114.42ZM21.56,316.25c-3.59,0-6.5,2.91-6.5,6.5v82.32c0,37.07,30.16,67.23,67.23,67.23h360.39c37.07,0,67.23-30.16,67.23-67.23v-60.99c0-15.35-12.49-27.83-27.83-27.83H21.56ZM337.5,15.05c-14.1,0-27.34,5.48-37.29,15.42L27.61,303.09c-1.86,1.86-2.42,4.65-1.41,7.08s3.38,4.01,6.01,4.01h85.18c1.72,0,3.38-.68,4.6-1.9L374.79,59.48c3.87-3.87,6-9.02,6-14.5,0-5.48-2.13-10.63-6-14.5-9.94-9.95-23.19-15.42-37.29-15.42Z"/>
          <path d="M443.74,281.01v26.68c0,.7.06,1.39.16,2.06h-222.78c.11-.67.16-1.36.16-2.06v-26.68h222.46M422.82,478.8c-.11.67-.16,1.36-.16,2.06v12.55c0,6.67-5.43,12.1-12.1,12.1H114.42c-6.67,0-12.1-5.43-12.1-12.1v-12.55c0-.7-.06-1.39-.16-2.06h320.66M337.5,6.5c-15.7,0-31.39,5.97-43.34,17.92L8.71,309.89c-.18.18-.35.36-.51.56-.06.08-.12.16-.18.24-.09.12-.18.23-.26.35-.07.1-.13.21-.19.31-.06.1-.13.21-.19.32-.06.11-.11.22-.16.34-.05.11-.11.22-.15.33s-.08.23-.13.34c-.04.12-.09.23-.12.35-.04.12-.06.23-.09.35-.03.12-.06.24-.09.36-.03.14-.04.28-.06.42-.01.1-.03.2-.04.31-.02.25-.04.5-.04.75v89.84c0,41.79,34,75.79,75.79,75.79h7.03v12.55c0,13.84,11.26,25.1,25.1,25.1h296.14c13.84,0,25.1-11.26,25.1-25.1v-12.55h7.03c41.79,0,75.79-34,75.79-75.79v-60.99c0-20.07-16.32-36.39-36.39-36.39h-25.35v-32.15c0-4.16-3.37-7.53-7.53-7.53h-233.4c-4.16,0-7.53,3.37-7.53,7.53v32.15h-69.6l242.16-242.15c5.49-5.49,8.51-12.79,8.51-20.56s-3.02-15.06-8.51-20.56c-11.95-11.95-27.64-17.92-43.34-17.92h0ZM32.21,307.69L304.81,35.07c9.01-9.01,20.85-13.52,32.69-13.52,11.84,0,23.68,4.51,32.69,13.52,5.46,5.46,5.46,14.35,0,19.81l-252.81,252.8H32.21ZM82.29,465.8c-33.49,0-60.73-27.25-60.73-60.73v-82.32h460.53c11.76,0,21.33,9.57,21.33,21.33v60.99c0,33.49-27.25,60.73-60.73,60.73H82.29Z"/>
        </g>
        <g>
          <path class="cls-1" d="M443.18,412.09c-8.87,0-16.09-7.22-16.09-16.09s7.22-16.09,16.09-16.09,16.09,7.22,16.09,16.09-7.22,16.09-16.09,16.09ZM443.18,381.97c-7.74,0-14.03,6.29-14.03,14.03s6.29,14.03,14.03,14.03,14.03-6.29,14.03-14.03-6.29-14.03-14.03-14.03Z"/>
          <path d="M443.18,373.41c-12.45,0-22.59,10.13-22.59,22.59s10.13,22.59,22.59,22.59,22.59-10.13,22.59-22.59-10.13-22.59-22.59-22.59h0ZM443.18,403.53c-4.15,0-7.53-3.38-7.53-7.53s3.38-7.53,7.53-7.53,7.53,3.38,7.53,7.53-3.38,7.53-7.53,7.53h0Z"/>
        </g>
        <g>
          <path class="cls-1" d="M381.45,412.09c-8.87,0-16.09-7.22-16.09-16.09s7.22-16.09,16.09-16.09,16.09,7.22,16.09,16.09-7.22,16.09-16.09,16.09ZM381.45,381.97c-7.74,0-14.03,6.29-14.03,14.03s6.29,14.03,14.03,14.03,14.03-6.29,14.03-14.03-6.29-14.03-14.03-14.03Z"/>
          <path d="M381.45,373.41c-12.45,0-22.59,10.13-22.59,22.59s10.13,22.59,22.59,22.59,22.59-10.13,22.59-22.59-10.13-22.59-22.59-22.59h0ZM381.45,403.53c-4.15,0-7.53-3.38-7.53-7.53s3.38-7.53,7.53-7.53,7.53,3.38,7.53,7.53-3.38,7.53-7.53,7.53h0Z"/>
        </g>
        <g>
          <path class="cls-1" d="M319.71,412.09c-8.87,0-16.09-7.22-16.09-16.09s7.22-16.09,16.09-16.09,16.09,7.22,16.09,16.09-7.22,16.09-16.09,16.09ZM319.71,381.97c-7.74,0-14.03,6.29-14.03,14.03s6.29,14.03,14.03,14.03,14.03-6.29,14.03-14.03-6.29-14.03-14.03-14.03Z"/>
          <path d="M319.71,373.41c-12.45,0-22.59,10.13-22.59,22.59s10.13,22.59,22.59,22.59,22.59-10.13,22.59-22.59-10.13-22.59-22.59-22.59h0ZM319.71,403.53c-4.15,0-7.53-3.38-7.53-7.53s3.38-7.53,7.53-7.53,7.53,3.38,7.53,7.53-3.38,7.53-7.53,7.53h0Z"/>
        </g>
      </g>
    </g>
  </g>
</svg>