<?xml version="1.0" encoding="UTF-8"?>
<svg id="Layer_2" data-name="Layer 2" xmlns="http://www.w3.org/2000/svg" viewBox="0 0 525 427.12">
  <defs>
    <style>
      .cls-1 {
        fill: #00b2ca;
      }
    </style>
  </defs>
  <g id="Bottom_navigation" data-name="Bottom navigation">
    <g id="Graphics_Card" data-name="Graphics Card">
      <g>
        <g>
          <path class="cls-1" d="M281.07,414.12c-6.66,0-12.07-5.42-12.07-12.07v-26.6c0-3.59-2.91-6.5-6.5-6.5h-30.12c-3.59,0-6.5,2.91-6.5,6.5v25.73c0,7.14-5.81,12.95-12.95,12.95h-51.45c-7.14,0-12.95-5.81-12.95-12.95v-25.73c0-3.59-2.91-6.5-6.5-6.5h-30.12c-3.59,0-6.5,2.91-6.5,6.5v18.82c0,10.95-8.91,19.85-19.85,19.85s-19.85-8.91-19.85-19.85v-56.47c0-3.59-2.91-6.5-6.5-6.5h-29.36c-5.13,0-9.31-4.18-9.31-9.31v-51.2c0-5.13,4.18-9.31,9.31-9.31h29.36c3.59,0,6.5-2.91,6.5-6.5v-22.59c0-3.59-2.91-6.5-6.5-6.5h-27.36c-6.24,0-11.32-5.08-11.32-11.32v-107.42c0-6.24,5.08-11.32,11.32-11.32h27.36c3.59,0,6.5-2.91,6.5-6.5v-26.27c0-5.71-4.64-10.35-10.35-10.35h-22.5c-10.95,0-19.85-8.91-19.85-19.85s8.91-19.85,19.85-19.85h37.56c19.3,0,35,15.7,35,35v3.68c0,3.59,2.91,6.5,6.5,6.5h375.47c13.58,0,24.62,11.04,24.62,24.62v261.52c0,13.37-10.47,24.17-23.83,24.6-3.51.11-6.29,2.99-6.29,6.5v26.63c0,6.66-5.42,12.07-12.07,12.07h-188.74ZM435.68,368.94c-3.59,0-6.5,2.91-6.5,6.5v30.12c0,3.59,2.91,6.5,6.5,6.5h34.13c5.52,0,10.01-4.49,10.01-10.01v-26.6c0-3.59-2.91-6.5-6.5-6.5h-37.65ZM382.97,368.94c-3.59,0-6.5,2.91-6.5,6.5v30.12c0,3.59,2.91,6.5,6.5,6.5h37.65c3.59,0,6.5-2.91,6.5-6.5v-30.12c0-3.59-2.91-6.5-6.5-6.5h-37.65ZM330.26,368.94c-3.59,0-6.5,2.91-6.5,6.5v30.12c0,3.59,2.91,6.5,6.5,6.5h37.65c3.59,0,6.5-2.91,6.5-6.5v-30.12c0-3.59-2.91-6.5-6.5-6.5h-37.65ZM277.56,368.94c-3.59,0-6.5,2.91-6.5,6.5v26.6c0,5.52,4.49,10.01,10.01,10.01h34.13c3.59,0,6.5-2.91,6.5-6.5v-30.12c0-3.59-2.91-6.5-6.5-6.5h-37.65ZM194.74,368.94c-3.59,0-6.5,2.91-6.5,6.5v30.12c0,3.59,2.91,6.5,6.5,6.5h18.2c6.01,0,10.89-4.89,10.89-10.89v-25.73c0-3.59-2.91-6.5-6.5-6.5h-22.59ZM157.09,368.94c-3.59,0-6.5,2.91-6.5,6.5v25.73c0,6.01,4.89,10.89,10.89,10.89h18.2c3.59,0,6.5-2.91,6.5-6.5v-30.12c0-3.59-2.91-6.5-6.5-6.5h-22.59ZM111.91,150.59c-3.59,0-6.5,2.91-6.5,6.5v112.94c0,3.59,2.91,6.5,6.5,6.5h100.21c13.34,0,25.88,5.19,35.31,14.63l73.82,73.82c1.22,1.22,2.87,1.9,4.6,1.9h161.52c12.44,0,22.56-10.12,22.56-22.56V82.8c0-12.44-10.12-22.56-22.56-22.56h-161.52c-1.72,0-3.38.68-4.6,1.9l-73.82,73.82c-9.43,9.43-21.97,14.63-35.31,14.63h-100.21ZM111.91,278.59c-3.59,0-6.5,2.91-6.5,6.5v75.29c0,3.59,2.91,6.5,6.5,6.5h192.65c2.63,0,5-1.58,6.01-4.01,1.01-2.43.45-5.22-1.41-7.08l-63.17-63.17c-9.04-9.04-21.07-14.02-33.85-14.02h-100.21ZM29.84,263.53c-4,0-7.25,3.25-7.25,7.25v51.2c0,4,3.25,7.25,7.25,7.25h29.36c3.59,0,6.5-2.91,6.5-6.5v-52.71c0-3.59-2.91-6.5-6.5-6.5h-29.36ZM29.09,195.76c-3.59,0-6.5,2.91-6.5,6.5v12.3c0,5.11,4.15,9.26,9.26,9.26h27.36c3.59,0,6.5-2.91,6.5-6.5v-15.06c0-3.59-2.91-6.5-6.5-6.5h-30.12ZM29.09,128c-3.59,0-6.5,2.91-6.5,6.5v52.71c0,3.59,2.91,6.5,6.5,6.5h30.12c3.59,0,6.5-2.91,6.5-6.5v-52.71c0-3.59-2.91-6.5-6.5-6.5h-30.12ZM111.91,60.24c-3.59,0-6.5,2.91-6.5,6.5v75.29c0,3.59,2.91,6.5,6.5,6.5h100.21c12.79,0,24.81-4.98,33.85-14.02l63.17-63.17c1.86-1.86,2.42-4.65,1.41-7.08-1.01-2.43-3.38-4.01-6.01-4.01H111.91ZM31.85,97.88c-5.11,0-9.26,4.15-9.26,9.26v12.3c0,3.59,2.91,6.5,6.5,6.5h30.12c3.59,0,6.5-2.91,6.5-6.5v-15.06c0-3.59-2.91-6.5-6.5-6.5h-27.36Z"/>
          <path d="M70.42,19.5c15.71,0,28.5,12.78,28.5,28.5v3.68c0,2.81.89,5.4,2.4,7.53-1.51,2.12-2.4,4.72-2.4,7.53v75.29c0,2.81.89,5.4,2.4,7.53-1.51,2.12-2.4,4.72-2.4,7.53v112.94c0,2.81.89,5.4,2.4,7.53-1.51,2.12-2.4,4.72-2.4,7.53v75.29c0,2.81.89,5.4,2.4,7.53-1.51,2.12-2.4,4.72-2.4,7.53v18.82c0,7.36-5.99,13.35-13.35,13.35s-13.35-5.99-13.35-13.35v-56.47c0-2.81-.89-5.4-2.4-7.53,1.51-2.12,2.4-4.72,2.4-7.53v-52.71c0-2.81-.89-5.4-2.4-7.53,1.51-2.12,2.4-4.72,2.4-7.53v-22.59c0-2.81-.89-5.4-2.4-7.53,1.51-2.12,2.4-4.72,2.4-7.53v-15.06c0-2.81-.89-5.4-2.4-7.53,1.51-2.12,2.4-4.72,2.4-7.53v-52.71c0-2.81-.89-5.4-2.4-7.53,1.51-2.12,2.4-4.72,2.4-7.53v-15.06c0-2.81-.89-5.4-2.4-7.53,1.51-2.12,2.4-4.72,2.4-7.53v-26.27c0-9.29-7.56-16.85-16.85-16.85h-22.5c-7.36,0-13.35-5.99-13.35-13.35s5.99-13.35,13.35-13.35h37.56M70.42,6.5h-37.56c-14.53,0-26.35,11.82-26.35,26.35s11.82,26.35,26.35,26.35h22.5c2.12,0,3.85,1.73,3.85,3.85v26.27h-27.36c-9.83,0-17.82,7.99-17.82,17.82v107.42c0,9.83,7.99,17.82,17.82,17.82h27.36v22.59h-29.36c-8.72,0-15.81,7.09-15.81,15.81v51.2c0,8.72,7.09,15.81,15.81,15.81h29.36v56.47c0,14.53,11.82,26.35,26.35,26.35s26.35-11.82,26.35-26.35v-18.82h30.12v25.73c0,10.73,8.73,19.45,19.45,19.45h51.45c10.73,0,19.45-8.73,19.45-19.45v-25.73h30.12v26.6c0,10.24,8.33,18.57,18.57,18.57h188.74c10.24,0,18.57-8.33,18.57-18.57v-26.63c16.7-.53,30.12-14.27,30.12-31.1V82.8c0-17.16-13.96-31.12-31.12-31.12H111.91v-3.68c0-22.88-18.61-41.5-41.5-41.5h0ZM111.91,270.03v-112.94h100.21c15.07,0,29.25-5.87,39.91-16.53l73.82-73.82h161.52c8.86,0,16.06,7.21,16.06,16.06v261.52c0,8.86-7.21,16.06-16.06,16.06h-161.52l-73.82-73.82c-10.66-10.66-24.83-16.53-39.91-16.53h-100.21ZM111.91,142.03v-75.29h192.65l-63.17,63.17c-7.81,7.82-18.21,12.12-29.26,12.12h-100.21ZM29.09,119.44v-12.3c0-1.52,1.24-2.76,2.76-2.76h27.36v15.06h-30.12ZM29.09,187.21v-52.71h30.12v52.71h-30.12ZM31.85,217.32c-1.52,0-2.76-1.24-2.76-2.76v-12.3h30.12v15.06h-27.36ZM29.84,322.74c-.41,0-.75-.34-.75-.75v-51.2c0-.41.34-.75.75-.75h29.36v52.71h-29.36ZM111.91,360.38v-75.29h100.21c11.05,0,21.44,4.3,29.26,12.12l63.17,63.17H111.91ZM435.68,405.56v-30.12h37.65v26.6c0,1.94-1.58,3.51-3.51,3.51h-34.13ZM382.97,405.56v-30.12h37.65v30.12h-37.65ZM330.26,405.56v-30.12h37.65v30.12h-37.65ZM281.07,405.56c-1.94,0-3.51-1.58-3.51-3.51v-26.6h37.65v30.12h-34.13ZM194.74,405.56v-30.12h22.59v25.73c0,2.42-1.97,4.39-4.39,4.39h-18.2ZM161.48,405.56c-2.42,0-4.39-1.97-4.39-4.39v-25.73h22.59v30.12h-18.2Z"/>
        </g>
        <g>
          <path class="cls-1" d="M398.03,297.41c-14.19,0-28.23-3.63-40.6-10.51-.04-.02-.08-.04-.12-.06-26.62-14.88-43.14-42.95-43.14-73.28s15.62-56.78,40.77-71.91c13.02-7.82,27.91-11.94,43.08-11.94,14.23,0,28.29,3.65,40.68,10.55.03.02.06.03.07.04,26.59,14.86,43.1,42.93,43.1,73.26s-15.62,56.78-40.77,71.91c-.02,0-.06.04-.07.04-12.96,7.78-27.84,11.9-43.02,11.9ZM416.27,229.41c-1.45,0-2.91.48-4.11,1.47-2.95,2.41-6.48,4.03-10.22,4.7-2.46.44-4.46,2.25-5.13,4.66-4.37,15.71-14.03,29.63-27.22,39.2-1.96,1.42-2.97,3.82-2.61,6.21s2.01,4.4,4.3,5.19c8.63,3,17.63,4.52,26.76,4.52,13.12,0,26.2-3.22,37.82-9.3,2.23-1.17,3.59-3.53,3.48-6.05l-.21-4.62c-.72-16.17-7.12-31.73-18.03-43.83-1.28-1.42-3.05-2.15-4.83-2.15ZM324.11,221.31c-1.44,0-2.87.48-4.04,1.41-1.9,1.5-2.8,3.94-2.34,6.32,4.22,21.92,17.5,41.42,36.43,53.5,1.07.68,2.28,1.02,3.5,1.02s2.43-.34,3.5-1.02l3.88-2.48c13.64-8.72,23.92-22.05,28.95-37.52,1.07-3.29-.63-6.85-3.87-8.08-3.54-1.35-6.71-3.6-9.17-6.52-1.25-1.48-3.08-2.31-4.97-2.31-.54,0-1.09.07-1.62.21-5.9,1.52-11.97,2.29-18.06,2.29-10.13,0-20.35-2.17-29.53-6.26-.85-.38-1.75-.56-2.65-.56ZM439.82,201.05c-4.92,0-9.85.52-14.65,1.54-3.39.72-5.62,3.98-5.06,7.4.19,1.19.29,2.39.29,3.58,0,2.62-.45,5.18-1.34,7.62-.86,2.35-.28,4.99,1.47,6.78,11.42,11.63,18.64,26.95,20.33,43.12.25,2.41,1.82,4.48,4.08,5.37.77.31,1.58.45,2.38.45,1.54,0,3.06-.55,4.26-1.59,16.94-14.71,27.21-35.94,28.15-58.25.11-2.52-1.26-4.88-3.5-6.04l-4.12-2.14c-9.88-5.13-21.05-7.83-32.3-7.83ZM398.03,193.25c-11.2,0-20.3,9.11-20.3,20.3s9.11,20.3,20.3,20.3,20.3-9.11,20.3-20.3-9.11-20.3-20.3-20.3ZM348.74,150.21c-1.54,0-3.06.55-4.26,1.59-16.94,14.71-27.21,35.94-28.15,58.25-.11,2.52,1.26,4.88,3.5,6.04l4.12,2.14c9.88,5.13,21.05,7.83,32.3,7.83,4.92,0,9.85-.52,14.65-1.54,3.39-.72,5.62-3.98,5.06-7.4-.19-1.19-.29-2.39-.29-3.58,0-2.62.45-5.18,1.34-7.62.86-2.35.28-4.99-1.47-6.78-11.42-11.63-18.64-26.94-20.33-43.12-.25-2.41-1.82-4.48-4.08-5.37-.77-.31-1.58-.45-2.38-.45ZM439.8,199c10.13,0,20.33,2.16,29.5,6.25.85.38,1.75.56,2.65.56,1.44,0,2.87-.48,4.04-1.41,1.9-1.5,2.8-3.94,2.34-6.32-4.22-21.93-17.5-41.43-36.44-53.52-1.07-.68-2.28-1.02-3.5-1.02s-2.43.34-3.5,1.02l-3.87,2.47c-13.64,8.72-23.92,22.05-28.95,37.52-1.07,3.29.63,6.85,3.87,8.08,3.54,1.35,6.72,3.61,9.18,6.53,1.25,1.49,3.08,2.31,4.97,2.31.54,0,1.09-.07,1.62-.21,5.88-1.52,11.96-2.29,18.07-2.29ZM398.03,131.76c-13.12,0-26.2,3.22-37.82,9.3-2.24,1.17-3.59,3.53-3.48,6.05l.21,4.62c.72,16.17,7.12,31.74,18.03,43.83,1.28,1.42,3.05,2.15,4.83,2.15,1.45,0,2.91-.48,4.11-1.47,2.95-2.41,6.48-4.03,10.22-4.7,2.46-.44,4.46-2.25,5.13-4.66,4.37-15.71,14.03-29.63,27.22-39.2,1.96-1.42,2.97-3.82,2.61-6.21s-2.01-4.4-4.3-5.19c-8.63-3-17.63-4.52-26.76-4.52Z"/>
          <path d="M398.03,123.21c-16.95,0-32.82,4.69-46.39,12.85-.02.01-.03.02-.05.03-26.29,15.82-43.92,44.63-43.92,77.48s18.75,63.47,46.42,78.93c.06.03.12.07.18.1,12.97,7.21,27.89,11.33,43.75,11.33,16.95,0,32.82-4.69,46.39-12.85.02,0,.03-.02.05-.03,26.29-15.82,43.92-44.63,43.92-77.48s-18.76-63.47-46.43-78.93c-.02-.01-.04-.02-.06-.04-13-7.25-27.95-11.38-43.86-11.38h0ZM379.79,191.21c-9.82-10.89-15.71-25.02-16.36-39.77l-.21-4.62c10.42-5.46,22.25-8.56,34.81-8.56,8.62,0,16.91,1.48,24.63,4.16-14.4,10.45-24.92,25.62-29.67,42.72-4.94.88-9.46,3.01-13.2,6.06h0ZM420.1,194.99c-3.14-3.73-7.2-6.65-11.84-8.41,4.52-13.93,13.82-26.09,26.27-34.05l3.87-2.47c17.14,10.94,29.58,28.61,33.55,49.27-10.14-4.53-21.14-6.82-32.15-6.82-6.62,0-13.24.83-19.7,2.49h0ZM356.24,219.57c-10.12,0-20.21-2.39-29.3-7.1l-4.12-2.14c.91-21.37,10.77-40.46,25.92-53.61,1.85,17.66,9.72,34.34,22.16,47-1.12,3.07-1.73,6.39-1.73,9.84,0,1.57.13,3.11.37,4.62-4.38.93-8.84,1.4-13.3,1.4h0ZM398.03,227.36c-7.61,0-13.8-6.19-13.8-13.8s6.19-13.8,13.8-13.8,13.8,6.19,13.8,13.8-6.19,13.8-13.8,13.8h0ZM447.32,270.4c-1.85-17.66-9.72-34.34-22.16-47,1.12-3.07,1.73-6.39,1.73-9.84,0-1.57-.13-3.11-.37-4.62,4.38-.93,8.85-1.4,13.3-1.4,10.12,0,20.21,2.39,29.3,7.1l4.12,2.14c-.91,21.37-10.77,40.46-25.92,53.61h0ZM357.65,277.06c-17.14-10.94-29.57-28.6-33.55-49.25,10.15,4.53,21.15,6.83,32.18,6.83,6.61,0,13.23-.84,19.68-2.5,3.14,3.72,7.2,6.64,11.83,8.4-4.52,13.93-13.82,26.09-26.26,34.05l-3.88,2.48h0ZM398.03,288.85c-8.62,0-16.91-1.48-24.63-4.16,14.4-10.45,24.92-25.62,29.67-42.72,4.94-.88,9.46-3.01,13.2-6.06,9.82,10.89,15.71,25.02,16.36,39.77l.21,4.62c-10.42,5.46-22.25,8.56-34.81,8.56h0Z"/>
        </g>
        <g>
          <path class="cls-1" d="M149.56,120.47c-8.87,0-16.09-7.22-16.09-16.09s7.22-16.09,16.09-16.09,16.09,7.22,16.09,16.09-7.22,16.09-16.09,16.09ZM149.56,90.35c-7.74,0-14.03,6.29-14.03,14.03s6.29,14.03,14.03,14.03,14.03-6.29,14.03-14.03-6.29-14.03-14.03-14.03Z"/>
          <path d="M149.56,81.79c-12.45,0-22.59,10.13-22.59,22.59s10.13,22.59,22.59,22.59,22.59-10.13,22.59-22.59-10.13-22.59-22.59-22.59h0ZM149.56,111.91c-4.15,0-7.53-3.38-7.53-7.53s3.38-7.53,7.53-7.53,7.53,3.38,7.53,7.53-3.38,7.53-7.53,7.53h0Z"/>
        </g>
        <g>
          <path class="cls-1" d="M465.79,120.47c-8.87,0-16.09-7.22-16.09-16.09s7.22-16.09,16.09-16.09,16.09,7.22,16.09,16.09-7.22,16.09-16.09,16.09Z"/>
          <path d="M465.79,94.79c5.29,0,9.59,4.3,9.59,9.59s-4.3,9.59-9.59,9.59-9.59-4.3-9.59-9.59,4.3-9.59,9.59-9.59M465.79,81.79c-12.45,0-22.59,10.13-22.59,22.59s10.13,22.59,22.59,22.59,22.59-10.13,22.59-22.59-10.13-22.59-22.59-22.59h0Z"/>
        </g>
        <g>
          <path class="cls-1" d="M149.56,338.82c-8.87,0-16.09-7.22-16.09-16.09s7.22-16.09,16.09-16.09,16.09,7.22,16.09,16.09-7.22,16.09-16.09,16.09ZM149.56,308.71c-7.74,0-14.03,6.29-14.03,14.03s6.29,14.03,14.03,14.03,14.03-6.29,14.03-14.03-6.29-14.03-14.03-14.03Z"/>
          <path d="M149.56,300.15c-12.45,0-22.59,10.13-22.59,22.59s10.13,22.59,22.59,22.59,22.59-10.13,22.59-22.59-10.13-22.59-22.59-22.59h0ZM149.56,330.26c-4.15,0-7.53-3.38-7.53-7.53s3.38-7.53,7.53-7.53,7.53,3.38,7.53,7.53-3.38,7.53-7.53,7.53h0Z"/>
        </g>
        <g>
          <path class="cls-1" d="M465.79,338.82c-8.87,0-16.09-7.22-16.09-16.09s7.22-16.09,16.09-16.09,16.09,7.22,16.09,16.09-7.22,16.09-16.09,16.09Z"/>
          <path d="M465.79,313.15c5.29,0,9.59,4.3,9.59,9.59s-4.3,9.59-9.59,9.59-9.59-4.3-9.59-9.59,4.3-9.59,9.59-9.59M465.79,300.15c-12.45,0-22.59,10.13-22.59,22.59s10.13,22.59,22.59,22.59,22.59-10.13,22.59-22.59-10.13-22.59-22.59-22.59h0Z"/>
        </g>
      </g>
    </g>
  </g>
</svg>