<?xml version="1.0" encoding="UTF-8"?>
<svg id="Layer_2" data-name="Layer 2" xmlns="http://www.w3.org/2000/svg" viewBox="0 0 525 525">
  <defs>
    <style>
      .cls-1 {
        fill: #00b2ca;
      }
    </style>
  </defs>
  <g id="Bottom_navigation" data-name="Bottom navigation">
    <g id="Additional_Features" data-name="Additional Features">
      <g>
        <g>
          <path class="cls-1" d="M74.26,82.82c-8.87,0-16.09-7.22-16.09-16.09s7.22-16.09,16.09-16.09,16.09,7.22,16.09,16.09-7.22,16.09-16.09,16.09Z"/>
          <path d="M74.26,57.15c5.29,0,9.59,4.3,9.59,9.59s-4.3,9.59-9.59,9.59-9.59-4.3-9.59-9.59,4.3-9.59,9.59-9.59M74.26,44.15c-12.45,0-22.59,10.13-22.59,22.59s10.13,22.59,22.59,22.59,22.59-10.13,22.59-22.59-10.13-22.59-22.59-22.59h0Z"/>
        </g>
        <g>
          <path class="cls-1" d="M134.5,82.82c-8.87,0-16.09-7.22-16.09-16.09s7.22-16.09,16.09-16.09,16.09,7.22,16.09,16.09-7.22,16.09-16.09,16.09Z"/>
          <path d="M134.5,57.15c5.29,0,9.59,4.3,9.59,9.59s-4.3,9.59-9.59,9.59-9.59-4.3-9.59-9.59,4.3-9.59,9.59-9.59M134.5,44.15c-12.45,0-22.59,10.13-22.59,22.59s10.13,22.59,22.59,22.59,22.59-10.13,22.59-22.59-10.13-22.59-22.59-22.59h0Z"/>
        </g>
        <g>
          <path class="cls-1" d="M194.74,82.82c-8.87,0-16.09-7.22-16.09-16.09s7.22-16.09,16.09-16.09,16.09,7.22,16.09,16.09-7.22,16.09-16.09,16.09Z"/>
          <path d="M194.74,57.15c5.29,0,9.59,4.3,9.59,9.59s-4.3,9.59-9.59,9.59-9.59-4.3-9.59-9.59,4.3-9.59,9.59-9.59M194.74,44.15c-12.45,0-22.59,10.13-22.59,22.59s10.13,22.59,22.59,22.59,22.59-10.13,22.59-22.59-10.13-22.59-22.59-22.59h0Z"/>
        </g>
        <g>
          <path class="cls-1" d="M270.03,82.82c-8.87,0-16.09-7.22-16.09-16.09s7.22-16.09,16.09-16.09h180.71c8.87,0,16.09,7.22,16.09,16.09s-7.22,16.09-16.09,16.09h-180.71Z"/>
          <path d="M450.74,57.15c5.29,0,9.59,4.3,9.59,9.59s-4.3,9.59-9.59,9.59h-180.71c-5.29,0-9.59-4.3-9.59-9.59s4.3-9.59,9.59-9.59h180.71M450.74,44.15h-180.71c-12.45,0-22.59,10.13-22.59,22.59s10.13,22.59,22.59,22.59h180.71c12.45,0,22.59-10.13,22.59-22.59s-10.13-22.59-22.59-22.59h0Z"/>
        </g>
        <g>
          <g>
            <path class="cls-1" d="M62.72,512c-27.42,0-49.72-22.3-49.72-49.72V62.72c0-27.42,22.3-49.72,49.72-49.72h399.56c27.42,0,49.72,22.3,49.72,49.72v399.56c0,27.42-22.3,49.72-49.72,49.72H62.72ZM21.56,120.47c-3.59,0-6.5,2.91-6.5,6.5v335.31c0,26.28,21.38,47.66,47.66,47.66h399.56c26.28,0,47.66-21.38,47.66-47.66V126.97c0-3.59-2.91-6.5-6.5-6.5H21.56ZM62.72,15.06c-26.28,0-47.66,21.38-47.66,47.66v49.19c0,3.59,2.91,6.5,6.5,6.5h481.88c3.59,0,6.5-2.91,6.5-6.5v-49.19c0-26.28-21.38-47.66-47.66-47.66H62.72Z"/>
            <path d="M462.28,6.5H62.72C31.72,6.5,6.5,31.72,6.5,62.72v399.56c0,31,25.22,56.22,56.22,56.22h399.56c31,0,56.22-25.22,56.22-56.22V62.72c0-31-25.22-56.22-56.22-56.22h0ZM21.56,111.91v-49.19c0-22.7,18.46-41.16,41.16-41.16h399.56c22.7,0,41.16,18.47,41.16,41.16v49.19H21.56ZM62.72,503.44c-22.7,0-41.16-18.46-41.16-41.16V126.97h481.88v335.31c0,22.7-18.47,41.16-41.16,41.16H62.72Z"/>
          </g>
          <g>
            <rect class="cls-1" x="73.24" y="156.06" width="92.41" height="84.88" rx="1.03" ry="1.03"/>
            <path d="M159.15,162.56v71.88h-79.41v-71.88h79.41M164.62,149.56h-90.35c-4.16,0-7.53,3.37-7.53,7.53v82.82c0,4.16,3.37,7.53,7.53,7.53h90.35c4.16,0,7.53-3.37,7.53-7.53v-82.82c0-4.16-3.37-7.53-7.53-7.53h0Z"/>
          </g>
          <g>
            <rect class="cls-1" x="216.29" y="156.06" width="92.41" height="84.88" rx="1.03" ry="1.03"/>
            <path d="M302.21,162.56v71.88h-79.41v-71.88h79.41M307.68,149.56h-90.35c-4.16,0-7.53,3.37-7.53,7.53v82.82c0,4.16,3.37,7.53,7.53,7.53h90.35c4.16,0,7.53-3.37,7.53-7.53v-82.82c0-4.16-3.37-7.53-7.53-7.53h0Z"/>
          </g>
          <g>
            <rect class="cls-1" x="359.35" y="156.06" width="92.41" height="84.88" rx="1.03" ry="1.03"/>
            <path d="M445.26,162.56v71.88h-79.41v-71.88h79.41M450.74,149.56h-90.35c-4.16,0-7.53,3.37-7.53,7.53v82.82c0,4.16,3.37,7.53,7.53,7.53h90.35c4.16,0,7.53-3.37,7.53-7.53v-82.82c0-4.16-3.37-7.53-7.53-7.53h0Z"/>
          </g>
        </g>
        <g>
          <path class="cls-1" d="M74.26,353.88c-.57,0-1.03-.46-1.03-1.03v-82.82c0-.57.46-1.03,1.03-1.03h90.35c.57,0,1.03.46,1.03,1.03v82.82c0,.57-.46,1.03-1.03,1.03h-90.35ZM81.79,271.06c-3.59,0-6.5,2.91-6.5,6.5v67.76c0,3.59,2.91,6.5,6.5,6.5h75.29c3.59,0,6.5-2.91,6.5-6.5v-67.76c0-3.59-2.91-6.5-6.5-6.5h-75.29Z"/>
          <path d="M164.62,262.5h-90.35c-4.16,0-7.53,3.37-7.53,7.53v82.82c0,4.16,3.37,7.53,7.53,7.53h90.35c4.16,0,7.53-3.37,7.53-7.53v-82.82c0-4.16-3.37-7.53-7.53-7.53h0ZM81.79,345.32v-67.76h75.29v67.76h-75.29Z"/>
        </g>
        <g>
          <path class="cls-1" d="M104.38,301.18c-.57,0-1.03-.46-1.03-1.03s.46-1.03,1.03-1.03h30.12c.57,0,1.03.46,1.03,1.03s-.46,1.03-1.03,1.03h-30.12Z"/>
          <path d="M134.5,292.62h-30.12c-4.16,0-7.53,3.37-7.53,7.53s3.37,7.53,7.53,7.53h30.12c4.16,0,7.53-3.37,7.53-7.53s-3.37-7.53-7.53-7.53h0Z"/>
        </g>
        <g>
          <path class="cls-1" d="M217.32,353.88c-.57,0-1.03-.46-1.03-1.03v-82.82c0-.57.46-1.03,1.03-1.03h90.35c.57,0,1.03.46,1.03,1.03v82.82c0,.57-.46,1.03-1.03,1.03h-90.35ZM224.85,271.06c-3.59,0-6.5,2.91-6.5,6.5v67.76c0,3.59,2.91,6.5,6.5,6.5h75.29c3.59,0,6.5-2.91,6.5-6.5v-67.76c0-3.59-2.91-6.5-6.5-6.5h-75.29Z"/>
          <path d="M307.68,262.5h-90.35c-4.16,0-7.53,3.37-7.53,7.53v82.82c0,4.16,3.37,7.53,7.53,7.53h90.35c4.16,0,7.53-3.37,7.53-7.53v-82.82c0-4.16-3.37-7.53-7.53-7.53h0ZM224.85,345.32v-67.76h75.29v67.76h-75.29Z"/>
        </g>
        <g>
          <path class="cls-1" d="M247.44,301.18c-.57,0-1.03-.46-1.03-1.03s.46-1.03,1.03-1.03h30.12c.57,0,1.03.46,1.03,1.03s-.46,1.03-1.03,1.03h-30.12Z"/>
          <path d="M277.56,292.62h-30.12c-4.16,0-7.53,3.37-7.53,7.53s3.37,7.53,7.53,7.53h30.12c4.16,0,7.53-3.37,7.53-7.53s-3.37-7.53-7.53-7.53h0Z"/>
        </g>
        <g>
          <path class="cls-1" d="M74.26,466.82c-.57,0-1.03-.46-1.03-1.03v-82.82c0-.57.46-1.03,1.03-1.03h90.35c.57,0,1.03.46,1.03,1.03v82.82c0,.57-.46,1.03-1.03,1.03h-90.35ZM81.79,384c-3.59,0-6.5,2.91-6.5,6.5v67.76c0,3.59,2.91,6.5,6.5,6.5h75.29c3.59,0,6.5-2.91,6.5-6.5v-67.76c0-3.59-2.91-6.5-6.5-6.5h-75.29Z"/>
          <path d="M164.62,375.44h-90.35c-4.16,0-7.53,3.37-7.53,7.53v82.82c0,4.16,3.37,7.53,7.53,7.53h90.35c4.16,0,7.53-3.37,7.53-7.53v-82.82c0-4.16-3.37-7.53-7.53-7.53h0ZM81.79,458.26v-67.76h75.29v67.76h-75.29Z"/>
        </g>
        <g>
          <path class="cls-1" d="M104.38,414.12c-.57,0-1.03-.46-1.03-1.03s.46-1.03,1.03-1.03h30.12c.57,0,1.03.46,1.03,1.03s-.46,1.03-1.03,1.03h-30.12Z"/>
          <path d="M134.5,405.56h-30.12c-4.16,0-7.53,3.37-7.53,7.53s3.37,7.53,7.53,7.53h30.12c4.16,0,7.53-3.37,7.53-7.53s-3.37-7.53-7.53-7.53h0Z"/>
        </g>
      </g>
    </g>
  </g>
</svg>