<?xml version="1.0" encoding="UTF-8"?>
<svg id="Layer_2" data-name="Layer 2" xmlns="http://www.w3.org/2000/svg" viewBox="0 0 525 464.77">
  <defs>
    <style>
      .cls-1 {
        fill: #00b2ca;
      }
    </style>
  </defs>
  <g id="Bottom_navigation" data-name="Bottom navigation">
    <g id="Software">
      <g>
        <g>
          <path class="cls-1" d="M49.36,451.77c-20.05,0-36.36-16.32-36.36-36.37v-39.96c0-.57.46-1.03,1.02-1.03h15.06c3.59,0,6.5-2.91,6.5-6.5v-214.28c0-36.02,29.31-65.33,65.33-65.33h26.06c3.59,0,6.5-2.91,6.5-6.5v-32.08c0-20.25,16.47-36.72,36.71-36.72h184.63c20.24,0,36.71,16.47,36.71,36.72v32.08c0,3.59,2.91,6.5,6.5,6.5h26.06c36.02,0,65.33,29.31,65.33,65.33v214.28c0,3.59,2.91,6.5,6.5,6.5h15.06c.57,0,1.03.46,1.03,1.03v39.96c0,20.05-16.32,36.37-36.37,36.37H49.36ZM21.55,376.47c-3.59,0-6.5,2.91-6.5,6.5v32.43c0,18.92,15.39,34.31,34.31,34.31h426.27c18.92,0,34.31-15.39,34.31-34.31v-32.43c0-3.59-2.91-6.5-6.5-6.5h-188.24c-3.59,0-6.5,2.91-6.5,6.5v6.03c0,13.85-11.27,25.12-25.12,25.12h-42.17c-13.85,0-25.12-11.27-25.12-25.12v-6.03c0-3.59-2.91-6.5-6.5-6.5H21.55ZM224.85,376.47c-3.59,0-6.5,2.91-6.5,6.5v6.03c0,12.71,10.34,23.06,23.06,23.06h42.17c12.72,0,23.06-10.34,23.06-23.06v-6.03c0-3.59-2.91-6.5-6.5-6.5h-75.29ZM398.02,90.36c-3.59,0-6.5,2.91-6.5,6.5v22.58c0,3.59,2.91,6.5,6.5,6.5h23.25c16.81,0,30.49,13.68,30.49,30.5v211.47c0,3.59,2.91,6.5,6.5,6.5h22.59c3.59,0,6.5-2.91,6.5-6.5v-214.28c0-34.89-28.38-63.27-63.27-63.27h-26.06ZM103.73,128c-15.68,0-28.44,12.76-28.44,28.44v211.47c0,3.59,2.91,6.5,6.5,6.5h361.41c3.59,0,6.5-2.91,6.5-6.5v-211.47c0-15.68-12.75-28.44-28.43-28.44h-23.25c-3.59,0-6.5,2.91-6.5,6.5v129.96c0,20.25-16.47,36.72-36.71,36.72h-184.63c-20.24,0-36.71-16.47-36.71-36.72v-129.96c0-3.59-2.91-6.5-6.5-6.5h-23.24ZM100.91,90.36c-34.89,0-63.27,28.38-63.27,63.27v214.28c0,3.59,2.91,6.5,6.5,6.5h22.59c3.59,0,6.5-2.91,6.5-6.5v-211.47c0-16.82,13.68-30.5,30.5-30.5h23.24c3.59,0,6.5-2.91,6.5-6.5v-22.58c0-3.59-2.91-6.5-6.5-6.5h-26.06ZM262.5,240.94c-7.74,0-14.03,6.29-14.03,14.03s6.29,14.03,14.03,14.03h90.35c7.74,0,14.03-6.29,14.03-14.03s-6.29-14.03-14.03-14.03h-90.35ZM172.14,240.94c-7.74,0-14.03,6.29-14.03,14.03s6.29,14.03,14.03,14.03h30.12c7.74,0,14.03-6.29,14.03-14.03s-6.29-14.03-14.03-14.03h-30.12ZM277.56,188.24c-7.74,0-14.03,6.29-14.03,14.03s6.29,14.03,14.03,14.03h30.11c7.74,0,14.03-6.29,14.03-14.03s-6.29-14.03-14.03-14.03h-30.11ZM172.14,188.24c-7.74,0-14.03,6.29-14.03,14.03s6.29,14.03,14.03,14.03h60.24c7.74,0,14.03-6.29,14.03-14.03s-6.29-14.03-14.03-14.03h-60.24ZM277.56,90.35c-4.7,0-9.07,2.33-11.68,6.25l-30.12,45.17c-4.28,6.44-2.54,15.17,3.89,19.46,2.32,1.54,5,2.36,7.78,2.36,4.71,0,9.07-2.34,11.68-6.25l30.12-45.18c4.29-6.43,2.55-15.15-3.89-19.45-2.31-1.54-5-2.36-7.78-2.36ZM317.6,132.12c-2.65,2.65-4.11,6.17-4.11,9.92s1.46,7.27,4.11,9.92c2.65,2.65,6.17,4.11,9.92,4.11s7.26-1.46,9.92-4.1l15.06-15.07c5.47-5.47,5.47-14.37,0-19.84l-15.05-15.06c-2.65-2.65-6.17-4.11-9.92-4.11s-7.27,1.46-9.92,4.11c-5.47,5.47-5.47,14.37,0,19.84l5.14,5.14-5.14,5.14ZM198.49,97.89c-3.75,0-7.27,1.46-9.92,4.11l-15.06,15.06c-5.47,5.47-5.47,14.37,0,19.84l15.06,15.06c2.66,2.65,6.18,4.1,9.92,4.1s7.26-1.46,9.91-4.11c2.65-2.65,4.11-6.17,4.11-9.92s-1.46-7.27-4.11-9.92l-5.14-5.14,5.14-5.13c5.47-5.47,5.47-14.37,0-19.84-2.65-2.65-6.17-4.11-9.92-4.11ZM170.18,15.06c-19.11,0-34.66,15.55-34.66,34.66v17.02c0,3.59,2.91,6.5,6.5,6.5h240.95c3.59,0,6.5-2.91,6.5-6.5v-17.02c0-19.11-15.55-34.66-34.66-34.66h-184.63Z"/>
          <path d="M385.02,79.58v2.22c0,2.81.89,5.41,2.4,7.53-1.51,2.12-2.4,4.72-2.4,7.53v22.58c0,2.81.89,5.41,2.4,7.53-1.51,2.12-2.4,4.72-2.4,7.53v129.96c0,16.66-13.55,30.22-30.21,30.22h-184.63c-16.66,0-30.21-13.56-30.21-30.22v-129.96c0-2.81-.89-5.41-2.4-7.53,1.51-2.12,2.4-4.72,2.4-7.53v-22.58c0-2.81-.89-5.41-2.4-7.53,1.51-2.12,2.4-4.72,2.4-7.53v-2.22c.67.11,1.35.16,2.05.16h240.95c.7,0,1.38-.06,2.05-.16M247.43,170.09c6.89,0,13.28-3.42,17.09-9.14l30.11-45.17c3.05-4.57,4.13-10.04,3.05-15.43-1.08-5.37-4.18-10-8.74-13.04-3.39-2.26-7.32-3.46-11.39-3.46-6.88,0-13.27,3.42-17.09,9.14l-30.13,45.19c-6.26,9.42-3.7,22.18,5.7,28.46,3.38,2.26,7.32,3.45,11.38,3.45M313.55,126.98l-.54.54c-3.88,3.88-6.01,9.03-6.01,14.52s2.14,10.64,6.01,14.52c3.88,3.88,9.03,6.01,14.51,6.01s10.62-2.13,14.52-6.02l15.05-15.06c8-8,8.01-21.03,0-29.03l-15.05-15.06c-3.88-3.88-9.03-6.01-14.52-6.01s-10.64,2.14-14.52,6.01c-3.88,3.88-6.01,9.03-6.01,14.52s2.14,10.64,6.01,14.52l.54.54M198.5,162.56c5.48,0,10.63-2.13,14.51-6.01,3.88-3.88,6.01-9.03,6.01-14.52s-2.14-10.64-6.01-14.51l-.55-.55.54-.54c3.88-3.88,6.01-9.03,6.01-14.52s-2.14-10.64-6.01-14.52c-3.88-3.88-9.03-6.01-14.51-6.01s-10.64,2.14-14.51,6.01l-15.06,15.06c-8,8.01-8,21.03,0,29.03l15.08,15.08c3.88,3.86,9.03,5.99,14.5,5.99M277.56,222.8h30.11c11.32,0,20.53-9.21,20.53-20.53s-9.21-20.53-20.53-20.53h-30.11c-11.32,0-20.53,9.21-20.53,20.53s9.21,20.53,20.53,20.53M172.14,222.8h60.24c11.32,0,20.53-9.21,20.53-20.53s-9.21-20.53-20.53-20.53h-60.24c-11.32,0-20.53,9.21-20.53,20.53s9.21,20.53,20.53,20.53M262.5,275.5h90.35c11.32,0,20.53-9.21,20.53-20.53s-9.21-20.53-20.53-20.53h-90.35c-11.32,0-20.53,9.21-20.53,20.53s9.21,20.53,20.53,20.53M172.14,275.5h30.12c11.32,0,20.53-9.21,20.53-20.53s-9.21-20.53-20.53-20.53h-30.12c-11.32,0-20.53,9.21-20.53,20.53s9.21,20.53,20.53,20.53M354.81,6.5h-184.63c-23.83,0-43.21,19.39-43.21,43.22v32.08h-26.06c-39.6,0-71.83,32.22-71.83,71.83v214.28h-15.06c-4.15,0-7.52,3.37-7.52,7.53v39.96c0,23.64,19.23,42.87,42.86,42.87h426.27c23.64,0,42.87-19.23,42.87-42.87v-39.96c0-4.16-3.37-7.53-7.53-7.53h-15.06v-214.28c0-39.61-32.23-71.83-71.83-71.83h-26.06v-32.08c0-23.83-19.38-43.22-43.21-43.22h0ZM142.02,66.74v-17.02c0-15.53,12.64-28.16,28.16-28.16h184.63c15.52,0,28.16,12.63,28.16,28.16v17.02h-240.95ZM247.43,157.09c-1.44,0-2.89-.41-4.17-1.26-3.46-2.31-4.39-6.99-2.09-10.45l30.12-45.17c1.45-2.18,3.84-3.36,6.27-3.36,1.43,0,2.88.41,4.17,1.27,3.46,2.31,4.4,6.98,2.09,10.44l-30.12,45.18c-1.45,2.18-3.84,3.35-6.27,3.35h0ZM398.02,119.44v-22.58h26.06c31.3,0,56.77,25.46,56.77,56.77v214.28h-22.59v-211.47c0-20.4-16.59-37-36.99-37h-23.25ZM44.14,367.91v-214.28c0-31.31,25.47-56.77,56.77-56.77h26.06v22.58h-23.24c-20.4,0-37,16.6-37,37v211.47h-22.59ZM327.52,149.57c-1.93,0-3.85-.74-5.32-2.21-2.94-2.94-2.94-7.71,0-10.65l9.73-9.74-9.73-9.73c-2.94-2.94-2.94-7.71,0-10.65,1.47-1.47,3.4-2.21,5.32-2.21s3.85.74,5.33,2.21l15.05,15.06c2.94,2.94,2.94,7.71,0,10.65l-15.05,15.06c-1.48,1.47-3.4,2.21-5.33,2.21h0ZM198.5,149.56c-1.93,0-3.85-.73-5.32-2.2l-15.06-15.06c-2.94-2.94-2.94-7.71,0-10.65l15.06-15.06c1.47-1.47,3.4-2.21,5.32-2.21s3.85.74,5.32,2.21c2.94,2.94,2.94,7.71,0,10.65l-9.73,9.73,9.73,9.74c2.94,2.94,2.94,7.71,0,10.65-1.47,1.47-3.39,2.2-5.31,2.2h0ZM170.18,307.68h184.63c23.83,0,43.21-19.39,43.21-43.22v-129.96h23.25c12.09,0,21.93,9.84,21.93,21.94v211.47H81.79v-211.47c0-12.1,9.84-21.94,21.94-21.94h23.24v129.96c0,23.83,19.38,43.22,43.21,43.22h0ZM277.56,209.8c-4.16,0-7.53-3.37-7.53-7.53s3.37-7.53,7.53-7.53h30.11c4.16,0,7.53,3.37,7.53,7.53s-3.37,7.53-7.53,7.53h-30.11ZM172.14,209.8c-4.16,0-7.53-3.37-7.53-7.53s3.37-7.53,7.53-7.53h60.24c4.16,0,7.53,3.37,7.53,7.53s-3.37,7.53-7.53,7.53h-60.24ZM262.5,262.5c-4.16,0-7.53-3.37-7.53-7.53s3.37-7.53,7.53-7.53h90.35c4.16,0,7.53,3.37,7.53,7.53s-3.37,7.53-7.53,7.53h-90.35ZM172.14,262.5c-4.16,0-7.53-3.37-7.53-7.53s3.37-7.53,7.53-7.53h30.12c4.16,0,7.53,3.37,7.53,7.53s-3.37,7.53-7.53,7.53h-30.12ZM241.41,420.62h42.17c17.43,0,31.62-14.19,31.62-31.62v-6.03h188.24v32.43c0,15.33-12.48,27.81-27.81,27.81H49.36c-15.33,0-27.81-12.48-27.81-27.81v-32.43h188.24v6.03c0,17.43,14.19,31.62,31.62,31.62h0ZM241.41,405.56c-9.13,0-16.56-7.43-16.56-16.56v-6.03h75.29v6.03c0,9.13-7.43,16.56-16.56,16.56h-42.17Z"/>
        </g>
        <g>
          <path class="cls-1" d="M172.14,45.18c-.57,0-1.03-.46-1.03-1.03s.46-1.03,1.03-1.03h7.53c.57,0,1.03.46,1.03,1.03s-.46,1.03-1.03,1.03h-7.53Z"/>
          <path d="M179.67,36.62h-7.53c-4.16,0-7.53,3.37-7.53,7.53s3.37,7.53,7.53,7.53h7.53c4.16,0,7.53-3.37,7.53-7.53s-3.37-7.53-7.53-7.53h0Z"/>
        </g>
        <g>
          <path class="cls-1" d="M209.79,45.18c-.57,0-1.03-.46-1.03-1.03s.46-1.03,1.03-1.03h7.53c.57,0,1.03.46,1.03,1.03s-.46,1.03-1.03,1.03h-7.53Z"/>
          <path d="M217.32,36.62h-7.53c-4.16,0-7.53,3.37-7.53,7.53s3.37,7.53,7.53,7.53h7.53c4.16,0,7.53-3.37,7.53-7.53s-3.37-7.53-7.53-7.53h0Z"/>
        </g>
      </g>
    </g>
  </g>
</svg>