<?xml version="1.0" encoding="UTF-8"?>
<svg id="Layer_2" data-name="Layer 2" xmlns="http://www.w3.org/2000/svg" viewBox="0 0 381.94 525">
  <defs>
    <style>
      .cls-1 {
        fill: #00b2ca;
      }
    </style>
  </defs>
  <g id="Bottom_navigation" data-name="Bottom navigation">
    <g id="License_Type" data-name="License Type">
      <g>
        <g>
          <path class="cls-1" d="M85.66,512c-40.06,0-72.66-32.59-72.66-72.66V85.66C13,45.59,45.59,13,85.66,13h210.63c40.06,0,72.66,32.59,72.66,72.66v353.69c0,40.06-32.59,72.66-72.66,72.66H85.66ZM85.66,15.06C46.73,15.06,15.06,46.73,15.06,85.66v353.69c0,38.93,31.67,70.6,70.6,70.6h210.63c38.93,0,70.6-31.67,70.6-70.6V85.66c0-38.93-31.67-70.6-70.6-70.6H85.66Z"/>
          <path d="M296.28,6.5H85.66C42.01,6.5,6.5,42.01,6.5,85.66v353.69c0,43.65,35.51,79.16,79.16,79.16h210.63c43.65,0,79.16-35.51,79.16-79.16V85.66c0-43.65-35.51-79.16-79.16-79.16h0ZM85.66,503.44c-35.34,0-64.1-28.75-64.1-64.1V85.66c0-35.34,28.75-64.1,64.1-64.1h210.63c35.34,0,64.1,28.75,64.1,64.1v353.69h0c0,35.34-28.75,64.1-64.1,64.1H85.66Z"/>
        </g>
        <g>
          <path class="cls-1" d="M190.97,380.72c-29.63,0-53.74-24.11-53.74-53.74s24.11-53.73,53.74-53.73,53.73,24.11,53.73,53.73-24.11,53.74-53.73,53.74ZM190.97,275.3c-28.49,0-51.68,23.18-51.68,51.68s23.18,51.68,51.68,51.68,51.68-23.18,51.68-51.68-23.18-51.68-51.68-51.68Z"/>
          <path d="M190.97,266.75c-33.21,0-60.24,27.02-60.24,60.24s27.02,60.23,60.24,60.23,60.24-27.02,60.24-60.23-27.02-60.24-60.24-60.24h0ZM190.97,372.16c-24.91,0-45.18-20.27-45.18-45.18s20.27-45.18,45.18-45.18,45.18,20.27,45.18,45.18-20.27,45.18-45.18,45.18h0Z"/>
        </g>
        <g>
          <path class="cls-1" d="M237.68,481.88c-4.39,0-9.97-2.21-12.44-8.39l-21.65-54.11c-.79-1.98-2.5-3.44-4.57-3.92-3.37-.78-5.71-1.1-8.05-1.1s-4.67.32-8.05,1.1c-2.07.48-3.78,1.94-4.57,3.92l-21.65,54.11c-2.47,6.19-8.04,8.39-12.43,8.39-4.93,0-9.15-2.47-11.59-6.77-4.82-8.5-13.83-13.78-23.52-13.78-2.66,0-5.34.39-7.96,1.16-1.38.42-2.72.62-4.04.62-4.35,0-8.46-2.23-10.99-5.97-2.49-3.68-2.96-8.2-1.29-12.38l25.7-64.27c.51-1.27.6-2.67.27-4-.86-3.41-1.09-7.14-1.32-10.74-.26-4.19-.51-8.15-1.69-11.77-1.11-3.41-3.18-6.64-5.37-10.05-3.4-5.3-6.92-10.78-6.92-16.96s3.52-11.66,6.92-16.96c2.19-3.41,4.26-6.63,5.36-10.05,1.17-3.61,1.42-7.57,1.68-11.76.39-6.17.79-12.56,4.25-17.31,3.5-4.81,9.48-7.17,15.27-9.44,3.88-1.53,7.54-2.97,10.56-5.17,2.99-2.18,5.47-5.2,8.08-8.39,3.95-4.82,8.03-9.81,13.79-11.68,1.64-.53,3.39-.79,5.34-.79,3.95,0,8.1,1.06,12.11,2.09,5.06,1.3,8.4,2.08,12.03,2.08s6.97-.79,12.03-2.08c4.01-1.03,8.15-2.09,12.11-2.09,1.96,0,3.71.26,5.35.79,5.72,1.86,9.8,6.82,13.74,11.62,6.88,8.37,8.63,9.65,18.79,13.66,5.74,2.26,11.68,4.61,15.17,9.4,3.45,4.74,3.85,11.08,4.24,17.21.7,10.97,1.36,13.02,7.12,22.01,3.37,5.26,6.86,10.71,6.86,16.86s-3.52,11.66-6.92,16.96c-2.19,3.41-4.26,6.63-5.36,10.05-1.17,3.61-1.42,7.57-1.69,11.76-.23,3.61-.46,7.34-1.32,10.75-.33,1.33-.24,2.73.27,4l25.7,64.27c1.67,4.18,1.19,8.71-1.31,12.41-2.5,3.7-6.6,5.91-10.96,5.91h0c-1.35,0-2.72-.21-4.1-.61-2.54-.76-5.2-1.16-7.87-1.16-9.71,0-18.74,5.29-23.56,13.79-2.44,4.3-6.66,6.77-11.57,6.77ZM166.97,237.49c-8.05,0-12.28,5.15-17.64,11.67-7.11,8.65-9.13,10.12-19.62,14.26-14.74,5.82-17.11,9.07-18.11,24.83-.75,11.76-1.72,14.05-7.44,22.99-8.67,13.53-8.67,17.95,0,31.49,5.96,9.3,6.72,11.66,7.44,22.99,1,15.77,3.37,19.01,18.11,24.83,10.5,4.14,12.52,5.61,19.62,14.26,5.35,6.52,9.58,11.67,17.64,11.67,3.31,0,6.99-.88,11.83-2.12.02,0,.06-.01.06-.02,5.94-1.51,9.1-2.04,12.1-2.04s6.18.53,12.12,2.04c.07.02.13.03.2.05.47.1,1.04.25,1.69.42,2.74.7,6.49,1.67,10.11,1.67,1.77,0,3.33-.23,4.76-.69,5.1-1.66,8.78-6.12,12.68-10.85,2.69-3.27,5.48-6.65,8.6-8.92,3.19-2.32,7.31-3.95,11.29-5.53,5.64-2.23,10.97-4.34,14.09-8.63,3.1-4.25,3.46-10.02,3.85-16.13.72-11.32,1.48-13.69,7.44-22.99,8.67-13.54,8.67-17.95,0-31.49-5.96-9.3-6.72-11.67-7.44-22.99-1-15.77-3.37-19.02-18.11-24.83-10.49-4.14-12.51-5.6-19.62-14.26-5.36-6.52-9.59-11.67-17.64-11.67-3.26,0-6.81.84-11.46,2.04-6.22,1.59-9.5,2.16-12.54,2.16s-6.33-.56-12.55-2.16c-4.65-1.19-8.19-2.04-11.46-2.04Z"/>
          <path d="M113.97,389.56c3.19,2.57,7.5,4.72,13.36,7.03,9.47,3.74,10.58,4.54,16.98,12.34,5.67,6.9,11.53,14.04,22.66,14.04,1,0,2-.06,3.01-.17l-19.31,48.27c-1.6,4-5.3,4.31-6.39,4.31-1.48,0-4.22-.45-5.93-3.47-5.97-10.54-17.15-17.08-29.18-17.08-3.28,0-6.58.48-9.79,1.43-.04.01-.07.02-.11.03-.71.22-1.42.33-2.1.33-2.19,0-4.29-1.16-5.61-3.11-.91-1.34-1.76-3.53-.64-6.32l23.04-57.62M268,389.63l23.01,57.55c1.18,2.94.09,5.24-.66,6.35-1.29,1.91-3.38,3.05-5.58,3.05-.72,0-1.47-.11-2.24-.34-3.17-.95-6.44-1.43-9.72-1.43-12.05,0-23.25,6.55-29.22,17.09-1.71,3.02-4.44,3.48-5.92,3.48-1.1,0-4.81-.31-6.41-4.31l-19.31-48.28c1.02.11,2.06.17,3.11.17,2.44,0,4.72-.34,6.76-1.01,6.92-2.24,11.38-7.66,15.7-12.9,2.44-2.96,4.95-6.01,7.41-7.8,2.53-1.84,6.25-3.31,9.85-4.74,4.62-1.83,9.35-3.7,13.21-6.89M215.11,228.94c-4.77,0-9.43,1.19-13.72,2.29-4.9,1.25-7.66,1.88-10.42,1.88s-5.52-.63-10.42-1.88c-4.29-1.1-8.95-2.29-13.72-2.29-2.44,0-4.9.31-7.35,1.11-11.74,3.81-17.17,16.25-23.68,20.99-6.57,4.78-20.07,6.16-27.26,16.04-7.14,9.81-4.3,23.03-6.86,30.89-2.41,7.43-12.6,16.55-12.6,29.01s10.19,21.57,12.6,29.01c1.85,5.68.88,14.13,2.88,22.09l-25.7,64.27c-5.41,13.54,4.98,27.26,18.32,27.26,1.91,0,3.88-.28,5.88-.89,2.07-.61,4.13-.9,6.12-.9,7.52,0,14.23,4.07,17.87,10.49,3.84,6.77,10.55,10.07,17.24,10.07,7.6,0,15.17-4.25,18.46-12.48l21.65-54.11c2.68-.62,4.63-.93,6.58-.93s3.9.31,6.59.93l21.65,54.11c3.29,8.22,10.87,12.48,18.48,12.48,6.68,0,13.39-3.29,17.23-10.07,3.76-6.64,10.63-10.5,17.91-10.5,2,0,4.03.29,6.03.89,2.02.6,4.01.87,5.93.87,13.58,0,23.64-13.9,18.31-27.23l-25.7-64.27c2-7.96,1.04-16.41,2.88-22.08,2.41-7.43,12.6-16.55,12.6-29.01,0-8.05-4.19-14.59-7.88-20.36-5.11-7.98-5.47-8.95-6.11-18.92-.43-6.73-.91-14.36-5.47-20.63-4.6-6.32-11.74-9.14-18.04-11.62-9.17-3.62-9.99-4.23-16.15-11.73-4.32-5.26-9.23-11.23-16.76-13.68-2.45-.8-4.92-1.11-7.36-1.11h0ZM190.98,248.18c4.01,0,8.01-.79,14.15-2.36,4.4-1.13,7.42-1.83,9.85-1.83,4.55,0,7.02,2.48,12.62,9.3,7.79,9.48,10.61,11.59,22.26,16.18,12.44,4.91,13.16,5.9,14.01,19.19.8,12.68,1.99,15.99,8.45,26.08,7.31,11.42,7.34,13.02,0,24.48-6.47,10.1-7.65,13.4-8.45,26.08-.33,5.14-.63,9.99-2.62,12.72-3.75,5.15-15.64,6.68-23.95,12.73-8.22,5.98-13.33,16.85-19.47,18.84-.81.26-1.75.37-2.74.37-3.63,0-8.08-1.42-10.39-1.93-5.89-1.5-9.81-2.24-13.72-2.24s-7.83.75-13.71,2.24c-.02,0-.05.01-.08.02-4.6,1.18-7.73,1.92-10.22,1.92-4.58,0-7.03-2.49-12.61-9.29-7.78-9.48-10.62-11.59-22.26-16.18-12.46-4.92-13.17-6.01-14.01-19.19-.8-12.68-1.99-15.99-8.45-26.08-7.33-11.44-7.32-13.04,0-24.48,6.46-10.1,7.65-13.4,8.45-26.08.84-13.26,1.54-14.27,14.01-19.19,11.62-4.58,14.45-6.68,22.26-16.18,5.6-6.81,8.06-9.3,12.61-9.3,2.43,0,5.44.7,9.85,1.83,6.15,1.57,10.16,2.36,14.16,2.36h0Z"/>
        </g>
        <g>
          <path class="cls-1" d="M74.26,143.06c-8.87,0-16.09-7.22-16.09-16.09s7.22-16.09,16.09-16.09h233.41c8.87,0,16.09,7.22,16.09,16.09s-7.22,16.09-16.09,16.09H74.26Z"/>
          <path d="M307.68,117.38c5.29,0,9.59,4.3,9.59,9.59s-4.3,9.59-9.59,9.59H74.26c-5.29,0-9.59-4.3-9.59-9.59s4.3-9.59,9.59-9.59h233.41M307.68,104.38H74.26c-12.45,0-22.59,10.13-22.59,22.59s10.13,22.59,22.59,22.59h233.41c12.45,0,22.59-10.13,22.59-22.59s-10.13-22.59-22.59-22.59h0Z"/>
        </g>
        <g>
          <path class="cls-1" d="M74.26,203.29c-8.87,0-16.09-7.22-16.09-16.09s7.22-16.09,16.09-16.09h233.41c8.87,0,16.09,7.22,16.09,16.09s-7.22,16.09-16.09,16.09H74.26Z"/>
          <path d="M307.68,177.62c5.29,0,9.59,4.3,9.59,9.59s-4.3,9.59-9.59,9.59H74.26c-5.29,0-9.59-4.3-9.59-9.59s4.3-9.59,9.59-9.59h233.41M307.68,164.62H74.26c-12.45,0-22.59,10.13-22.59,22.59s10.13,22.59,22.59,22.59h233.41c12.45,0,22.59-10.13,22.59-22.59s-10.13-22.59-22.59-22.59h0Z"/>
        </g>
      </g>
    </g>
  </g>
</svg>