<?xml version="1.0" encoding="UTF-8"?>
<svg id="Layer_2" data-name="Layer 2" xmlns="http://www.w3.org/2000/svg" viewBox="0 0 344.33 518.5">
  <defs>
    <style>
      .cls-1 {
        fill: #00b2ca;
      }
    </style>
  </defs>
  <g id="Bottom_navigation" data-name="Bottom navigation">
    <g id="Frequency_Bands" data-name="Frequency Bands">
      <g>
        <g>
          <path class="cls-1" d="M194.3,101.15c-.19,0-.48-.05-.73-.3-5.71-5.71-13.31-8.85-21.41-8.85s-15.7,3.14-21.41,8.85c-.25.25-.53.3-.73.3s-.48-.05-.73-.3c-.25-.25-.3-.53-.3-.73s.05-.48.3-.73c6.1-6.1,14.22-9.45,22.86-9.45s16.77,3.36,22.86,9.45c.25.25.3.53.3.73s-.05.48-.3.73c-.25.25-.53.3-.73.3Z"/>
          <path d="M172.17,83.44c-9.94,0-19.89,3.79-27.46,11.36-2.94,2.94-2.94,7.71,0,10.65,1.47,1.47,3.4,2.21,5.33,2.21s3.85-.74,5.33-2.21c4.63-4.63,10.72-6.95,16.81-6.95s12.18,2.32,16.81,6.95c1.47,1.47,3.4,2.21,5.32,2.21s3.85-.74,5.32-2.21c2.94-2.94,2.94-7.71,0-10.65-7.57-7.57-17.52-11.36-27.46-11.36h0Z"/>
        </g>
        <g>
          <path class="cls-1" d="M223.81,71.63c-.19,0-.48-.05-.73-.3-13.58-13.58-31.66-21.06-50.92-21.06s-37.34,7.48-50.92,21.06c-.25.25-.53.3-.73.3s-.48-.05-.73-.3c-.25-.25-.3-.53-.3-.73s.05-.48.3-.73c13.97-13.97,32.57-21.66,52.38-21.66s38.41,7.69,52.38,21.66c.25.25.3.53.3.73s-.05.48-.3.73-.53.3-.73.3Z"/>
          <path d="M172.17,41.72c-20.63,0-41.27,7.85-56.97,23.56-2.94,2.94-2.94,7.71,0,10.65,1.47,1.47,3.4,2.21,5.33,2.21s3.85-.74,5.32-2.21c12.77-12.77,29.55-19.16,46.32-19.16s33.55,6.39,46.32,19.16c1.47,1.47,3.4,2.21,5.33,2.21s3.85-.74,5.33-2.21c2.94-2.94,2.94-7.71,0-10.65-15.71-15.71-36.34-23.56-56.97-23.56h0Z"/>
        </g>
        <g>
          <path class="cls-1" d="M253.33,42.12c-.19,0-.48-.05-.73-.3-21.45-21.45-50.02-33.26-80.43-33.26s-58.98,11.81-80.43,33.26c-.25.25-.53.3-.73.3s-.48-.05-.73-.3c-.25-.25-.3-.53-.3-.73s.05-.48.3-.73C112.11,18.53,141.19,6.5,172.17,6.5s60.05,12.03,81.89,33.86c.25.25.3.53.3.73s-.05.48-.3.73c-.25.25-.53.3-.73.3Z"/>
          <path d="M172.17,0c-31.32,0-62.64,11.92-86.49,35.77-2.94,2.94-2.94,7.71,0,10.65,1.47,1.47,3.4,2.21,5.33,2.21s3.85-.74,5.33-2.21c20.91-20.91,48.37-31.36,75.84-31.36s54.93,10.45,75.84,31.36c1.47,1.47,3.4,2.21,5.33,2.21s3.85-.74,5.32-2.21c2.94-2.94,2.94-7.71,0-10.65C234.81,11.92,203.49,0,172.17,0h0Z"/>
        </g>
        <g>
          <path class="cls-1" d="M172.17,505.5c-87.76,0-159.17-71.4-159.17-159.17v-193.68c0-14.19,11.54-25.73,25.73-25.73h40.96c14.19,0,25.73,11.54,25.73,25.73v193.68c0,36.8,29.94,66.74,66.74,66.74s66.74-29.94,66.74-66.74v-193.68c0-14.19,11.54-25.73,25.73-25.73h40.96c14.19,0,25.73,11.54,25.73,25.73v193.68c0,87.76-71.4,159.17-159.17,159.17ZM247.47,234.41c-3.59,0-6.5,2.91-6.5,6.5v105.42c0,17.14-6.37,33.58-17.94,46.28-11.49,12.62-27.11,20.49-43.98,22.18-3.32.33-5.85,3.13-5.85,6.47v75.49c0,1.78.73,3.48,2.02,4.71,1.21,1.15,2.82,1.79,4.48,1.79.11,0,.21,0,.32,0,83.69-4.14,149.25-73.07,149.25-156.91v-105.42c0-3.59-2.91-6.5-6.5-6.5h-75.3ZM21.56,234.41c-3.59,0-6.5,2.91-6.5,6.5v105.42c0,83.84,65.56,152.77,149.25,156.91.11,0,.21,0,.32,0,1.66,0,3.27-.64,4.48-1.79,1.29-1.23,2.02-2.93,2.02-4.71v-75.49c0-3.34-2.53-6.14-5.85-6.47-16.86-1.68-32.48-9.56-43.98-22.18-11.57-12.7-17.94-29.14-17.94-46.28v-105.42c0-3.59-2.91-6.5-6.5-6.5H21.56ZM264.64,128.99c-13.05,0-23.67,10.62-23.67,23.67v28.01c0,3.59,2.91,6.5,6.5,6.5h75.3c3.59,0,6.5-2.91,6.5-6.5v-28.01c0-13.05-10.62-23.67-23.67-23.67h-40.96ZM38.73,128.99c-13.05,0-23.67,10.62-23.67,23.67v28.01c0,3.59,2.91,6.5,6.5,6.5h75.3c3.59,0,6.5-2.91,6.5-6.5v-28.01c0-13.05-10.62-23.67-23.67-23.67h-40.96Z"/>
          <path d="M245.41,193.51c.67.11,1.36.16,2.06.16h75.3c.7,0,1.39-.06,2.06-.16v34.57c-.67-.11-1.36-.16-2.06-.16h-75.3c-.7,0-1.39.06-2.06.16v-34.57M98.92,193.51v34.57c-.67-.11-1.36-.16-2.06-.16H21.56c-.7,0-1.39.06-2.06.16v-34.57c.67.11,1.36.16,2.06.16h75.3c.7,0,1.39-.06,2.06-.16M305.6,120.43h-40.96c-17.77,0-32.23,14.46-32.23,32.23v193.68c0,33.22-27.02,60.24-60.24,60.24s-60.24-27.02-60.24-60.24v-193.68c0-17.77-14.46-32.23-32.23-32.23h-40.96c-17.77,0-32.23,14.46-32.23,32.23v193.68c0,91.35,74.32,165.67,165.67,165.67s165.67-74.32,165.67-165.67v-193.68c0-17.77-14.46-32.23-32.23-32.23h0ZM247.47,180.67v-28.01c0-9.47,7.7-17.17,17.17-17.17h40.96c9.47,0,17.17,7.7,17.17,17.17v28.01h-75.3ZM21.56,180.67v-28.01c0-9.47,7.7-17.17,17.17-17.17h40.96c9.47,0,17.17,7.7,17.17,17.17v28.01H21.56ZM164.64,496.75c-79.56-3.94-143.08-69.9-143.08-150.42v-105.42h75.3v105.42c0,38.98,29.77,71.14,67.77,74.93v75.49h0ZM179.7,496.75v-75.49c38-3.79,67.77-35.94,67.77-74.93v-105.42h75.3v105.42c0,80.52-63.52,146.48-143.07,150.42h0Z"/>
        </g>
        <g>
          <path class="cls-1" d="M149.57,279.59c-.12,0-.24-.02-.36-.07-.45-.17-.72-.62-.66-1.09l6.76-54.12c.38-3.08-1.45-5.99-4.39-6.97l-16.73-5.58c-.5-.17-.79-.68-.68-1.2l15.06-67.77c.11-.48.52-.81,1.01-.81h37.65c.35,0,.63.14.83.43.21.28.25.6.14.93l-11.76,35.27c-.66,1.98-.33,4.16.89,5.86s3.18,2.7,5.27,2.7h27.2c.15,0,.61,0,.9.55.29.55.04.93-.05,1.05l-60.24,90.36c-.19.29-.51.46-.86.46Z"/>
          <path d="M179.64,148.49l-9.36,28.07c-1.32,3.96-.66,8.32,1.79,11.71s6.37,5.4,10.55,5.4h16.98l-41.72,62.58,3.89-31.12c.77-6.15-2.91-11.99-8.79-13.95l-12.05-4.02,13.04-58.67h25.67M187.23,135.49h-37.65c-3.53,0-6.59,2.45-7.35,5.9l-15.06,67.77c-.84,3.77,1.31,7.56,4.97,8.78l16.73,5.58-6.76,54.12c-.43,3.47,1.57,6.77,4.85,7.99.86.32,1.75.47,2.62.47,2.47,0,4.84-1.22,6.27-3.35l60.24-90.36c3.33-5-.27-11.71-6.27-11.71h-27.2l11.76-35.27c1.63-4.87-2.01-9.91-7.14-9.91h0Z"/>
        </g>
      </g>
    </g>
  </g>
</svg>