<?xml version="1.0" encoding="UTF-8"?>
<svg id="Layer_2" data-name="Layer 2" xmlns="http://www.w3.org/2000/svg" viewBox="0 0 525 525">
  <defs>
    <style>
      .cls-1 {
        fill: #00b2ca;
      }
    </style>
  </defs>
  <g id="Bottom_navigation" data-name="Bottom navigation">
    <g id="Brand">
      <g>
        <g>
          <path class="cls-1" d="M435.67,512c-14.74,0-27.58-10.48-30.52-24.92-.62-3.03-3.28-5.2-6.37-5.2h-99.4c-3.09,0-5.75,2.17-6.37,5.2-2.94,14.44-15.78,24.92-30.52,24.92s-27.58-10.48-30.52-24.92c-.62-3.03-3.28-5.2-6.37-5.2h-99.4c-3.09,0-5.75,2.17-6.37,5.2-2.94,14.44-15.78,24.92-30.52,24.92-17.17,0-31.15-13.97-31.15-31.15s13.97-31.15,31.15-31.15c14.74,0,27.58,10.48,30.52,24.92.62,3.03,3.28,5.2,6.37,5.2h99.4c3.09,0,5.75-2.17,6.37-5.2,2.5-12.26,12.03-21.79,24.29-24.29,3.03-.62,5.2-3.28,5.2-6.37v-76.05c0-3.59-2.91-6.5-6.5-6.5H49.37c-20.05,0-36.37-16.31-36.37-36.37v-79.91c0-20.05,16.31-36.37,36.37-36.37h9.84c3.59,0,6.5-2.91,6.5-6.5v-30.12c0-3.59-2.91-6.5-6.5-6.5h-9.84c-20.05,0-36.37-16.31-36.37-36.37V49.37c0-20.05,16.31-36.37,36.37-36.37h426.26c20.05,0,36.37,16.31,36.37,36.37v79.91c0,20.05-16.31,36.37-36.37,36.37h-9.84c-3.59,0-6.5,2.91-6.5,6.5v30.12c0,3.59,2.91,6.5,6.5,6.5h9.84c20.05,0,36.37,16.31,36.37,36.37v79.91c0,20.05-16.31,36.37-36.37,36.37h-205.6c-3.59,0-6.5,2.91-6.5,6.5v76.05c0,3.09,2.17,5.75,5.2,6.37,12.26,2.5,21.79,12.03,24.29,24.29.62,3.03,3.28,5.2,6.37,5.2h99.4c3.09,0,5.75-2.17,6.37-5.2,2.94-14.44,15.78-24.92,30.52-24.92,17.17,0,31.15,13.97,31.15,31.15s-13.97,31.15-31.15,31.15ZM435.68,451.76c-16.04,0-29.09,13.05-29.09,29.09s13.05,29.09,29.09,29.09,29.09-13.05,29.09-29.09-13.05-29.09-29.09-29.09ZM262.5,451.76c-16.04,0-29.09,13.05-29.09,29.09s13.05,29.09,29.09,29.09,29.09-13.05,29.09-29.09-13.05-29.09-29.09-29.09ZM89.32,451.76c-16.04,0-29.09,13.05-29.09,29.09s13.05,29.09,29.09,29.09,29.09-13.05,29.09-29.09-13.05-29.09-29.09-29.09ZM49.37,210.82c-18.92,0-34.31,15.39-34.31,34.31v79.91c0,18.92,15.39,34.31,34.31,34.31h426.26c18.92,0,34.31-15.39,34.31-34.31v-79.91c0-18.92-15.39-34.31-34.31-34.31H49.37ZM49.37,15.06c-18.92,0-34.31,15.39-34.31,34.31v79.91c0,18.92,15.39,34.31,34.31,34.31h426.26c18.92,0,34.31-15.39,34.31-34.31V49.37c0-18.92-15.39-34.31-34.31-34.31H49.37Z"/>
          <path d="M452.96,170.09c-.11.67-.16,1.36-.16,2.06v30.12c0,.7.06,1.39.16,2.06H72.04c.11-.67.16-1.36.16-2.06v-30.12c0-.7-.06-1.39-.16-2.06h380.91M475.63,6.5H49.37C25.73,6.5,6.5,25.73,6.5,49.37v79.91c0,23.64,19.23,42.87,42.87,42.87h9.84v30.12h-9.84c-23.64,0-42.87,19.23-42.87,42.87v79.91c0,23.64,19.23,42.87,42.87,42.87h205.6v76.05c-14.73,3-26.36,14.63-29.36,29.36h-99.4c-3.5-17.16-18.71-30.12-36.89-30.12-20.76,0-37.65,16.89-37.65,37.65s16.89,37.65,37.65,37.65c18.18,0,33.39-12.95,36.89-30.12h99.4c3.5,17.16,18.71,30.12,36.89,30.12s33.39-12.95,36.89-30.12h99.4c3.5,17.16,18.71,30.12,36.89,30.12,20.76,0,37.65-16.89,37.65-37.65s-16.89-37.65-37.64-37.65c-18.18,0-33.39,12.95-36.89,30.12h-99.4c-3-14.73-14.63-26.36-29.36-29.36v-76.05h205.6c23.64,0,42.87-19.23,42.87-42.87v-79.91c0-23.64-19.23-42.87-42.87-42.87h-9.84v-30.12h9.84c23.64,0,42.87-19.23,42.87-42.87V49.37c0-23.64-19.23-42.87-42.87-42.87h0ZM49.37,157.09c-15.33,0-27.81-12.47-27.81-27.81V49.37c0-15.33,12.48-27.81,27.81-27.81h426.26c15.33,0,27.81,12.47,27.81,27.81v79.91c0,15.33-12.47,27.81-27.81,27.81H49.37ZM49.37,352.85c-15.33,0-27.81-12.48-27.81-27.81v-79.91c0-15.33,12.48-27.81,27.81-27.81h426.26c15.33,0,27.81,12.47,27.81,27.81v79.91c0,15.33-12.47,27.81-27.81,27.81H49.37ZM435.68,503.44c-12.45,0-22.59-10.13-22.59-22.59s10.13-22.59,22.59-22.59,22.59,10.13,22.59,22.59-10.13,22.59-22.59,22.59h0ZM262.5,503.44c-12.45,0-22.59-10.13-22.59-22.59s10.13-22.59,22.59-22.59,22.59,10.13,22.59,22.59-10.13,22.59-22.59,22.59h0ZM89.32,503.44c-12.45,0-22.59-10.13-22.59-22.59s10.13-22.59,22.59-22.59,22.59,10.13,22.59,22.59-10.13,22.59-22.59,22.59h0Z"/>
        </g>
        <g>
          <path class="cls-1" d="M330.26,105.41c-8.87,0-16.09-7.22-16.09-16.09s7.22-16.09,16.09-16.09,16.09,7.22,16.09,16.09-7.22,16.09-16.09,16.09Z"/>
          <path d="M330.26,79.74c5.29,0,9.59,4.3,9.59,9.59s-4.3,9.59-9.59,9.59-9.59-4.3-9.59-9.59,4.3-9.59,9.59-9.59M330.26,66.74c-12.45,0-22.59,10.13-22.59,22.59s10.13,22.59,22.59,22.59,22.59-10.13,22.59-22.59-10.13-22.59-22.59-22.59h0Z"/>
        </g>
        <g>
          <path class="cls-1" d="M390.5,105.41c-8.87,0-16.09-7.22-16.09-16.09s7.22-16.09,16.09-16.09,16.09,7.22,16.09,16.09-7.22,16.09-16.09,16.09Z"/>
          <path d="M390.5,79.74c5.29,0,9.59,4.3,9.59,9.59s-4.3,9.59-9.59,9.59-9.59-4.3-9.59-9.59,4.3-9.59,9.59-9.59M390.5,66.74c-12.45,0-22.59,10.13-22.59,22.59s10.13,22.59,22.59,22.59,22.59-10.13,22.59-22.59-10.13-22.59-22.59-22.59h0Z"/>
        </g>
        <g>
          <path class="cls-1" d="M450.73,105.41c-8.87,0-16.09-7.22-16.09-16.09s7.22-16.09,16.09-16.09,16.09,7.22,16.09,16.09-7.22,16.09-16.09,16.09Z"/>
          <path d="M450.73,79.74c5.29,0,9.59,4.3,9.59,9.59s-4.3,9.59-9.59,9.59-9.59-4.3-9.59-9.59,4.3-9.59,9.59-9.59M450.73,66.74c-12.45,0-22.59,10.13-22.59,22.59s10.13,22.59,22.59,22.59,22.59-10.13,22.59-22.59-10.13-22.59-22.59-22.59h0Z"/>
        </g>
        <g>
          <path class="cls-1" d="M330.26,301.18c-8.87,0-16.09-7.22-16.09-16.09s7.22-16.09,16.09-16.09,16.09,7.22,16.09,16.09-7.22,16.09-16.09,16.09Z"/>
          <path d="M330.26,275.5c5.29,0,9.59,4.3,9.59,9.59s-4.3,9.59-9.59,9.59-9.59-4.3-9.59-9.59,4.3-9.59,9.59-9.59M330.26,262.5c-12.45,0-22.59,10.13-22.59,22.59s10.13,22.59,22.59,22.59,22.59-10.13,22.59-22.59-10.13-22.59-22.59-22.59h0Z"/>
        </g>
        <g>
          <path class="cls-1" d="M390.5,301.18c-8.87,0-16.09-7.22-16.09-16.09s7.22-16.09,16.09-16.09,16.09,7.22,16.09,16.09-7.22,16.09-16.09,16.09Z"/>
          <path d="M390.5,275.5c5.29,0,9.59,4.3,9.59,9.59s-4.3,9.59-9.59,9.59-9.59-4.3-9.59-9.59,4.3-9.59,9.59-9.59M390.5,262.5c-12.45,0-22.59,10.13-22.59,22.59s10.13,22.59,22.59,22.59,22.59-10.13,22.59-22.59-10.13-22.59-22.59-22.59h0Z"/>
        </g>
        <g>
          <path class="cls-1" d="M450.73,301.18c-8.87,0-16.09-7.22-16.09-16.09s7.22-16.09,16.09-16.09,16.09,7.22,16.09,16.09-7.22,16.09-16.09,16.09Z"/>
          <path d="M450.73,275.5c5.29,0,9.59,4.3,9.59,9.59s-4.3,9.59-9.59,9.59-9.59-4.3-9.59-9.59,4.3-9.59,9.59-9.59M450.73,262.5c-12.45,0-22.59,10.13-22.59,22.59s10.13,22.59,22.59,22.59,22.59-10.13,22.59-22.59-10.13-22.59-22.59-22.59h0Z"/>
        </g>
        <g>
          <path class="cls-1" d="M194.74,67.76c-.56,0-1.02-.46-1.02-1.02s.46-1.02,1.02-1.02,1.02.46,1.02,1.02-.46,1.02-1.02,1.02Z"/>
          <path d="M194.74,59.21c-4.16,0-7.52,3.37-7.52,7.52s3.37,7.52,7.52,7.52,7.52-3.37,7.52-7.52-3.37-7.52-7.52-7.52h0Z"/>
        </g>
        <g>
          <circle class="cls-1" cx="149.56" cy="66.74" r="1.02"/>
          <path d="M149.56,59.21c-4.16,0-7.52,3.37-7.52,7.52s3.37,7.52,7.52,7.52,7.52-3.37,7.52-7.52-3.37-7.52-7.52-7.52h0Z"/>
        </g>
        <g>
          <circle class="cls-1" cx="104.38" cy="66.74" r="1.02"/>
          <path d="M104.38,59.21c-4.16,0-7.52,3.37-7.52,7.52s3.37,7.52,7.52,7.52,7.52-3.37,7.52-7.52-3.37-7.52-7.52-7.52h0Z"/>
        </g>
        <g>
          <path class="cls-1" d="M59.24,67.76c-.56,0-1.02-.46-1.02-1.02s.46-1.02,1.02-1.02,1.02.46,1.02,1.02-.46,1.02-1.02,1.02Z"/>
          <path d="M59.24,59.21c-4.16,0-7.52,3.37-7.52,7.52s3.37,7.52,7.52,7.52,7.52-3.37,7.52-7.52-3.37-7.52-7.52-7.52h0Z"/>
        </g>
        <g>
          <path class="cls-1" d="M194.74,112.68c-.56,0-1.02-.46-1.02-1.02s.46-1.02,1.02-1.02,1.02.46,1.02,1.02-.46,1.02-1.02,1.02Z"/>
          <path d="M194.74,104.13c-4.16,0-7.52,3.37-7.52,7.52s3.37,7.52,7.52,7.52,7.52-3.37,7.52-7.52-3.37-7.52-7.52-7.52h0Z"/>
        </g>
        <g>
          <circle class="cls-1" cx="149.56" cy="111.65" r="1.02"/>
          <path d="M149.56,104.13c-4.16,0-7.52,3.37-7.52,7.52s3.37,7.52,7.52,7.52,7.52-3.37,7.52-7.52-3.37-7.52-7.52-7.52h0Z"/>
        </g>
        <g>
          <circle class="cls-1" cx="104.38" cy="111.65" r="1.02"/>
          <path d="M104.38,104.13c-4.16,0-7.52,3.37-7.52,7.52s3.37,7.52,7.52,7.52,7.52-3.37,7.52-7.52-3.37-7.52-7.52-7.52h0Z"/>
        </g>
        <g>
          <path class="cls-1" d="M59.24,112.68c-.56,0-1.02-.46-1.02-1.02s.46-1.02,1.02-1.02,1.02.46,1.02,1.02-.46,1.02-1.02,1.02Z"/>
          <path d="M59.24,104.13c-4.16,0-7.52,3.37-7.52,7.52s3.37,7.52,7.52,7.52,7.52-3.37,7.52-7.52-3.37-7.52-7.52-7.52h0Z"/>
        </g>
        <g>
          <path class="cls-1" d="M194.74,263.65c-.56,0-1.02-.46-1.02-1.02s.46-1.02,1.02-1.02,1.02.46,1.02,1.02-.46,1.02-1.02,1.02Z"/>
          <path d="M194.74,255.1c-4.16,0-7.52,3.37-7.52,7.52s3.37,7.52,7.52,7.52,7.52-3.37,7.52-7.52-3.37-7.52-7.52-7.52h0Z"/>
        </g>
        <g>
          <circle class="cls-1" cx="149.56" cy="262.63" r="1.02"/>
          <path d="M149.56,255.1c-4.16,0-7.52,3.37-7.52,7.52s3.37,7.52,7.52,7.52,7.52-3.37,7.52-7.52-3.37-7.52-7.52-7.52h0Z"/>
        </g>
        <g>
          <circle class="cls-1" cx="104.38" cy="262.63" r="1.02"/>
          <path d="M104.38,255.1c-4.16,0-7.52,3.37-7.52,7.52s3.37,7.52,7.52,7.52,7.52-3.37,7.52-7.52-3.37-7.52-7.52-7.52h0Z"/>
        </g>
        <g>
          <path class="cls-1" d="M59.24,263.65c-.56,0-1.02-.46-1.02-1.02s.46-1.02,1.02-1.02,1.02.46,1.02,1.02-.46,1.02-1.02,1.02Z"/>
          <path d="M59.24,255.1c-4.16,0-7.52,3.37-7.52,7.52s3.37,7.52,7.52,7.52,7.52-3.37,7.52-7.52-3.37-7.52-7.52-7.52h0Z"/>
        </g>
        <g>
          <path class="cls-1" d="M194.74,308.57c-.56,0-1.02-.46-1.02-1.02s.46-1.02,1.02-1.02,1.02.46,1.02,1.02-.46,1.02-1.02,1.02Z"/>
          <path d="M194.74,300.02c-4.16,0-7.52,3.37-7.52,7.52s3.37,7.52,7.52,7.52,7.52-3.37,7.52-7.52-3.37-7.52-7.52-7.52h0Z"/>
        </g>
        <g>
          <circle class="cls-1" cx="149.56" cy="307.55" r="1.02"/>
          <path d="M149.56,300.02c-4.16,0-7.52,3.37-7.52,7.52s3.37,7.52,7.52,7.52,7.52-3.37,7.52-7.52-3.37-7.52-7.52-7.52h0Z"/>
        </g>
        <g>
          <circle class="cls-1" cx="104.38" cy="307.55" r="1.02"/>
          <path d="M104.38,300.02c-4.16,0-7.52,3.37-7.52,7.52s3.37,7.52,7.52,7.52,7.52-3.37,7.52-7.52-3.37-7.52-7.52-7.52h0Z"/>
        </g>
        <g>
          <path class="cls-1" d="M59.24,308.57c-.56,0-1.02-.46-1.02-1.02s.46-1.02,1.02-1.02,1.02.46,1.02,1.02-.46,1.02-1.02,1.02Z"/>
          <path d="M59.24,300.02c-4.16,0-7.52,3.37-7.52,7.52s3.37,7.52,7.52,7.52,7.52-3.37,7.52-7.52-3.37-7.52-7.52-7.52h0Z"/>
        </g>
      </g>
    </g>
  </g>
</svg>