<?xml version="1.0" encoding="UTF-8"?>
<svg id="Layer_2" data-name="Layer 2" xmlns="http://www.w3.org/2000/svg" viewBox="0 0 427.12 525">
  <defs>
    <style>
      .cls-1 {
        fill: #00b2ca;
      }
    </style>
  </defs>
  <g id="Bottom_navigation" data-name="Bottom navigation">
    <g id="Paper_Size_Compatibility" data-name="Paper Size Compatibility">
      <g>
        <g>
          <path class="cls-1" d="M281.32,225.88c-44.16,0-80.09-35.93-80.09-80.09s35.93-80.09,80.09-80.09,80.09,35.93,80.09,80.09-35.93,80.09-80.09,80.09ZM281.32,67.76c-43.03,0-78.03,35-78.03,78.03s35,78.03,78.03,78.03,78.03-35,78.03-78.03-35-78.03-78.03-78.03Z"/>
          <path d="M281.32,59.21c-47.75,0-86.59,38.84-86.59,86.59s38.84,86.59,86.59,86.59,86.59-38.84,86.59-86.59-38.84-86.59-86.59-86.59h0ZM281.32,217.32c-39.44,0-71.53-32.09-71.53-71.53s32.09-71.53,71.53-71.53,71.53,32.09,71.53,71.53-32.09,71.53-71.53,71.53h0Z"/>
        </g>
        <g>
          <path class="cls-1" d="M59.21,105.41c-8.87,0-16.09-7.22-16.09-16.09s7.22-16.09,16.09-16.09h45.18c8.87,0,16.09,7.22,16.09,16.09s-7.22,16.09-16.09,16.09h-45.18Z"/>
          <path d="M104.38,79.74c5.29,0,9.59,4.3,9.59,9.59s-4.3,9.59-9.59,9.59h-45.18c-5.29,0-9.59-4.3-9.59-9.59s4.3-9.59,9.59-9.59h45.18M104.38,66.74h-45.18c-12.45,0-22.59,10.13-22.59,22.59s10.13,22.59,22.59,22.59h45.18c12.45,0,22.59-10.13,22.59-22.59s-10.13-22.59-22.59-22.59h0Z"/>
        </g>
        <g>
          <path class="cls-1" d="M59.21,165.65c-8.87,0-16.09-7.22-16.09-16.09s7.22-16.09,16.09-16.09h45.18c8.87,0,16.09,7.22,16.09,16.09s-7.22,16.09-16.09,16.09h-45.18Z"/>
          <path d="M104.38,139.97c5.29,0,9.59,4.3,9.59,9.59s-4.3,9.59-9.59,9.59h-45.18c-5.29,0-9.59-4.3-9.59-9.59s4.3-9.59,9.59-9.59h45.18M104.38,126.97h-45.18c-12.45,0-22.59,10.13-22.59,22.59s10.13,22.59,22.59,22.59h45.18c12.45,0,22.59-10.13,22.59-22.59s-10.13-22.59-22.59-22.59h0Z"/>
        </g>
        <g>
          <path class="cls-1" d="M59.21,225.88c-8.87,0-16.09-7.22-16.09-16.09s7.22-16.09,16.09-16.09h45.18c8.87,0,16.09,7.22,16.09,16.09s-7.22,16.09-16.09,16.09h-45.18Z"/>
          <path d="M104.38,200.21c5.29,0,9.59,4.3,9.59,9.59s-4.3,9.59-9.59,9.59h-45.18c-5.29,0-9.59-4.3-9.59-9.59s4.3-9.59,9.59-9.59h45.18M104.38,187.21h-45.18c-12.45,0-22.59,10.13-22.59,22.59s10.13,22.59,22.59,22.59h45.18c12.45,0,22.59-10.13,22.59-22.59s-10.13-22.59-22.59-22.59h0Z"/>
        </g>
        <g>
          <path class="cls-1" d="M202.26,301.18c-8.87,0-16.09-7.22-16.09-16.09s7.22-16.09,16.09-16.09h158.12c8.87,0,16.09,7.22,16.09,16.09s-7.22,16.09-16.09,16.09h-158.12Z"/>
          <path d="M360.38,275.5c5.29,0,9.59,4.3,9.59,9.59s-4.3,9.59-9.59,9.59h-158.12c-5.29,0-9.59-4.3-9.59-9.59s4.3-9.59,9.59-9.59h158.12M360.38,262.5h-158.12c-12.45,0-22.59,10.13-22.59,22.59s10.13,22.59,22.59,22.59h158.12c12.45,0,22.59-10.13,22.59-22.59s-10.13-22.59-22.59-22.59h0Z"/>
        </g>
        <g>
          <path class="cls-1" d="M202.26,361.41c-8.87,0-16.09-7.22-16.09-16.09s7.22-16.09,16.09-16.09h158.12c8.87,0,16.09,7.22,16.09,16.09s-7.22,16.09-16.09,16.09h-158.12Z"/>
          <path d="M360.38,335.74c5.29,0,9.59,4.3,9.59,9.59s-4.3,9.59-9.59,9.59h-158.12c-5.29,0-9.59-4.3-9.59-9.59s4.3-9.59,9.59-9.59h158.12M360.38,322.74h-158.12c-12.45,0-22.59,10.13-22.59,22.59s10.13,22.59,22.59,22.59h158.12c12.45,0,22.59-10.13,22.59-22.59s-10.13-22.59-22.59-22.59h0Z"/>
        </g>
        <g>
          <path class="cls-1" d="M71.75,512c-32.4,0-58.75-26.36-58.75-58.75V71.75c0-32.4,26.36-58.75,58.75-58.75h283.61c32.4,0,58.75,26.36,58.75,58.75v301.27c0,11.55-4.5,22.4-12.66,30.57l-95.75,95.75c-8.17,8.16-19.02,12.66-30.57,12.66H71.75ZM157.09,15.06c-3.59,0-6.5,2.91-6.5,6.5v481.88c0,3.59,2.91,6.5,6.5,6.5h118.05c4.01,0,7.99-.58,11.81-1.72,2.76-.82,4.64-3.35,4.64-6.23v-77.11c0-19.53,15.89-35.41,35.41-35.41h77.11c2.87,0,5.41-1.89,6.23-4.64,1.14-3.82,1.72-7.79,1.72-11.81V71.75c0-31.26-25.43-56.7-56.7-56.7h-198.27ZM71.75,15.06c-31.26,0-56.7,25.43-56.7,56.7v381.49c0,31.26,25.43,56.7,56.7,56.7h70.27c3.59,0,6.5-2.91,6.5-6.5V21.56c0-3.59-2.91-6.5-6.5-6.5h-70.27ZM327,391.53c-18.39,0-33.35,14.96-33.35,33.36v67.91c0,2.63,1.58,5,4.01,6,.8.33,1.65.5,2.49.5,1.69,0,3.35-.66,4.6-1.9l94.76-94.76c1.86-1.86,2.42-4.66,1.41-7.08-1.01-2.43-3.38-4.01-6.01-4.01h-67.91Z"/>
          <path d="M355.36,6.5H71.76C35.77,6.5,6.5,35.77,6.5,71.76v381.49c0,35.98,29.27,65.25,65.25,65.25h203.38c13.28,0,25.77-5.17,35.17-14.57l95.75-95.75c9.39-9.39,14.57-21.88,14.57-35.17V71.76c0-35.98-29.27-65.25-65.26-65.25h0ZM157.09,503.44V21.56h198.27c27.68,0,50.2,22.52,50.2,50.2v301.26c0,3.42-.5,6.76-1.45,9.95h-77.11c-23.11,0-41.91,18.8-41.91,41.91v77.11c-3.19.95-6.53,1.45-9.95,1.45h-118.05ZM71.76,503.44c-27.68,0-50.2-22.52-50.2-50.2V71.76c0-27.68,22.52-50.2,50.2-50.2h70.27v481.88h-70.27ZM300.15,492.79v-67.91c0-14.81,12.05-26.85,26.85-26.85h67.91l-94.76,94.76h0Z"/>
        </g>
      </g>
    </g>
  </g>
</svg>