<?xml version="1.0" encoding="UTF-8"?>
<svg id="Layer_2" data-name="Layer 2" xmlns="http://www.w3.org/2000/svg" viewBox="0 0 525 397">
  <defs>
    <style>
      .cls-1 {
        fill: #00b2ca;
      }
    </style>
  </defs>
  <g id="Bottom_navigation" data-name="Bottom navigation">
    <g id="Brand">
      <g>
        <g>
          <path class="cls-1" d="M96.27,278.59c-16.85,0-30.56-13.71-30.56-30.56V73.68c0-16.85,13.71-30.56,30.56-30.56h332.46c16.85,0,30.56,13.71,30.56,30.56v174.35c0,16.85-13.71,30.56-30.56,30.56H96.27ZM96.27,45.18c-15.72,0-28.5,12.79-28.5,28.5v174.35c0,15.72,12.79,28.5,28.5,28.5h332.46c15.72,0,28.5-12.79,28.5-28.5V73.68c0-15.72-12.79-28.5-28.5-28.5H96.27Z"/>
          <path d="M428.73,36.62H96.27c-20.44,0-37.06,16.63-37.06,37.06v174.35c0,20.44,16.63,37.06,37.06,37.06h332.46c20.44,0,37.06-16.63,37.06-37.06V73.68c0-20.44-16.63-37.06-37.06-37.06h0ZM96.27,270.03c-12.13,0-22-9.87-22-22V73.68c0-12.13,9.87-22,22-22h332.46c12.13,0,22,9.87,22,22v174.35c0,12.13-9.87,22-22,22H96.27Z"/>
        </g>
        <g>
          <path class="cls-1" d="M52.35,384c-21.7,0-39.35-17.65-39.35-39.35v-18.15c0-9.81,7.31-18.25,17.01-19.65,3.2-.46,5.58-3.2,5.58-6.43V59.62c0-25.71,20.92-46.62,46.62-46.62h360.57c25.71,0,46.62,20.92,46.62,46.62v240.8c0,3.23,2.38,5.97,5.58,6.43,9.7,1.39,17.01,9.84,17.01,19.65v18.15c0,21.7-17.65,39.35-39.35,39.35H52.35ZM119.61,331.3c-4.29,0-8.46,1.97-11.15,5.26-2.64,3.23-3.62,7.33-2.77,11.54,1.37,7.26,9.3,11.18,14.5,11.18.7,0,1.39-.07,2.03-.2,4.56-.87,8.41-4.05,10.21-8.5,1.78-4.38,1.27-9.26-1.36-13.07-2.63-3.94-6.8-6.2-11.47-6.2ZM59.16,331.29c-2.77,0-5.45.82-7.76,2.38-3.89,2.59-6.22,6.96-6.22,11.67,0,4.7,2.33,9.06,6.24,11.66,3.21,2.16,7.59,2.27,8.43,2.27.8,0,1.5-.06,2.14-.2,6.48-1.24,11.24-7.03,11.24-13.75,0-7.74-6.31-14.03-14.07-14.03ZM89.47,331.25c-4.65,0-9.19,2.42-11.83,6.32-2.61,3.85-3.09,8.61-1.32,13.05.02.04.03.09.05.13,1.08,2.55,2.8,4.64,5.1,6.21,2.12,1.43,4.65,2.17,7.36,2.17,3.89,0,8.04-1.54,10.37-3.85,2.63-2.57,4.13-6.2,4.13-9.97,0-3.78-1.46-7.29-4.1-9.9-2.64-2.69-6.1-4.16-9.77-4.16ZM82.21,15.06c-24.57,0-44.57,19.99-44.57,44.57v240.52c0,3.59,2.91,6.5,6.5,6.5h141.13c6.04,0,11.29,4.09,12.75,9.96l2.94,11.76c1.23,4.94,5.66,8.4,10.76,8.4h101.55c5.1,0,9.52-3.45,10.76-8.4l2.94-11.76c1.47-5.86,6.71-9.96,12.75-9.96h141.13c3.59,0,6.5-2.91,6.5-6.5V59.62c0-24.57-19.99-44.57-44.57-44.57H82.21Z"/>
          <path d="M488.19,310.88c1.68,1.24,3.68,2.09,5.87,2.41,6.52.94,11.44,6.62,11.44,13.21v18.15c0,18.11-14.74,32.85-32.85,32.85H52.35c-18.11,0-32.85-14.73-32.85-32.85v-18.15c0-6.59,4.92-12.27,11.44-13.21,2.19-.31,4.19-1.17,5.87-2.41,2.09,1.43,4.62,2.27,7.34,2.27h141.13c3.05,0,5.71,2.07,6.45,5.03l2.94,11.76c1.96,7.85,8.98,13.32,17.06,13.32h101.55c8.09,0,15.1-5.48,17.06-13.32l2.94-11.77c.74-2.96,3.39-5.03,6.45-5.03h141.13c2.72,0,5.25-.84,7.34-2.27M74.27,331.41c-3.76-4.06-9.14-6.61-15.11-6.61-4.07,0-8.01,1.21-11.35,3.46-5.72,3.82-9.13,10.2-9.13,17.09,0,6.86,3.4,13.23,9.1,17.05,4.54,3.05,9.95,3.38,12.07,3.38,1.2,0,2.3-.1,3.35-.31,4.37-.85,8.2-3.08,11.07-6.18,1.05,1.13,2.23,2.14,3.54,3.04.03.02.05.03.08.05,3.16,2.12,6.94,3.25,10.96,3.25,5.65,0,11.34-2.18,14.91-5.7.29-.28.57-.58.84-.88,4.27,4.29,10.29,6.73,15.6,6.73,1.09,0,2.17-.1,3.21-.31,6.8-1.31,12.43-5.97,15.06-12.45,2.6-6.4,1.85-13.55-2-19.17-3.8-5.67-10.09-9.05-16.85-9.05-5.74,0-11.33,2.43-15.23,6.57-.17-.18-.35-.36-.53-.54-3.87-3.92-8.96-6.08-14.38-6.08-5.71,0-11.29,2.49-15.2,6.66M442.79,6.5H82.21c-29.29,0-53.12,23.83-53.12,53.12v240.8c-12.75,1.83-22.59,12.83-22.59,26.08v18.15c0,25.28,20.57,45.85,45.85,45.85h420.31c25.28,0,45.85-20.57,45.85-45.85v-18.15c0-13.25-9.83-24.25-22.59-26.08h0V59.62c0-29.29-23.83-53.12-53.12-53.12h0ZM44.15,300.15V59.62c0-20.99,17.08-38.07,38.07-38.07h360.57c20.99,0,38.07,17.08,38.07,38.07v240.52h-141.13c-9.03,0-16.87,6.12-19.06,14.88l-2.94,11.76c-.51,2.04-2.34,3.47-4.45,3.47h-101.55c-2.11,0-3.94-1.43-4.45-3.47l-2.94-11.76c-2.19-8.76-10.03-14.88-19.06-14.88H44.15ZM88.84,352.62c-1.29,0-2.59-.29-3.69-1.03-1.25-.86-2.17-1.95-2.78-3.38-2.25-5.63,2.3-10.46,7.11-10.46,1.8,0,3.64.68,5.17,2.26,2.98,2.9,2.88,7.84,0,10.64-.92.92-3.34,1.97-5.8,1.97h0ZM59.85,352.76c-1.35,0-3.58-.34-4.82-1.18-4.49-2.99-4.44-9.57,0-12.53,1.29-.87,2.73-1.27,4.13-1.27,3.89,0,7.57,3.04,7.57,7.53,0,3.67-2.66,6.73-6.05,7.38-.2.04-.49.06-.83.06h0ZM120.19,352.77c-2.74,0-7.46-2.41-8.13-5.97-1.08-5.3,3.21-9,7.54-9,2.27,0,4.55,1.02,6.09,3.35,3,4.29.47,10.55-4.78,11.56-.22.05-.46.07-.73.07h0Z"/>
        </g>
      </g>
    </g>
  </g>
</svg>