<?xml version="1.0" encoding="UTF-8"?>
<svg id="Layer_2" data-name="Layer 2" xmlns="http://www.w3.org/2000/svg" viewBox="0 0 525 525.03">
  <defs>
    <style>
      .cls-1 {
        fill: #00b2ca;
      }
    </style>
  </defs>
  <g id="Bottom_navigation" data-name="Bottom navigation">
    <g id="Connectivity_Type" data-name="Connectivity Type">
      <g>
        <g>
          <path class="cls-1" d="M114.42,512.02c-10.26,0-18.6-8.34-18.6-18.6v-12.55c0-3.59-2.91-6.5-6.5-6.5h-7.03c-38.21,0-69.3-31.09-69.3-69.3,0,0,0-89.87,0-89.88,0,0,.02-.15.03-.17,0,0,.02-.08.03-.11,0,0,.08-.18.08-.19,0,0,.07-.1.07-.1,0,0,.09-.12.09-.12L298.77,29.02c10.33-10.33,24.09-16.02,38.75-16.02s28.41,5.69,38.74,16.02c4.26,4.26,6.61,9.93,6.61,15.96s-2.35,11.7-6.61,15.96l-242.18,242.17c-1.86,1.86-2.42,4.66-1.41,7.08s3.38,4.01,6.01,4.01h69.6c3.59,0,6.5-2.91,6.5-6.5v-32.15c0-.57.46-1.03,1.03-1.03h233.41c.57,0,1.03.46,1.03,1.03v32.15c0,3.59,2.91,6.5,6.5,6.5h25.35c16.48,0,29.89,13.41,29.89,29.89v60.99c0,38.21-31.09,69.3-69.3,69.3h-7.03c-3.59,0-6.5,2.91-6.5,6.5v12.55c0,10.25-8.34,18.6-18.6,18.6H114.42ZM21.56,316.26c-3.59,0-6.5,2.91-6.5,6.5v82.32c0,37.08,30.16,67.24,67.24,67.24h360.41c37.07,0,67.24-30.16,67.24-67.24v-60.99c0-15.35-12.49-27.83-27.83-27.83H21.56ZM337.52,15.05c-14.1,0-27.34,5.48-37.29,15.42L27.61,303.11c-1.86,1.86-2.41,4.65-1.41,7.08,1.01,2.43,3.38,4.01,6.01,4.01h85.18c1.72,0,3.38-.68,4.6-1.9L374.81,59.48c3.87-3.87,6-9.02,6-14.5s-2.13-10.63-6-14.5c-9.94-9.95-23.19-15.42-37.29-15.42Z"/>
          <path d="M443.76,281.02v26.68c0,.7.06,1.39.16,2.06h-222.79c.11-.67.16-1.36.16-2.06v-26.68h222.47M422.84,478.82c-.11.67-.16,1.36-.16,2.06v12.55c0,6.67-5.43,12.1-12.1,12.1H114.42c-6.67,0-12.1-5.43-12.1-12.1v-12.55c0-.7-.06-1.39-.16-2.06h320.68M337.52,6.5c-15.7,0-31.39,5.97-43.34,17.92L8.71,309.9c-.18.18-.35.36-.51.56-.06.08-.12.16-.18.24-.09.12-.18.23-.26.35-.07.1-.13.21-.19.31-.06.1-.13.21-.19.32-.06.11-.11.22-.16.34-.05.11-.11.22-.15.33-.05.11-.08.23-.13.34-.04.12-.09.23-.12.35-.03.12-.06.24-.09.35-.03.12-.06.24-.09.36-.03.14-.05.28-.06.42-.01.1-.03.2-.04.3-.02.25-.04.5-.04.75v89.85c0,41.79,34,75.8,75.8,75.8h7.03v12.55c0,13.84,11.26,25.1,25.1,25.1h296.16c13.84,0,25.1-11.26,25.1-25.1v-12.55h7.03c41.79,0,75.8-34,75.8-75.8v-60.99c0-20.07-16.33-36.39-36.39-36.39h-25.35v-32.15c0-4.16-3.37-7.53-7.53-7.53h-233.41c-4.16,0-7.53,3.37-7.53,7.53v32.15h-69.6l242.18-242.17c5.49-5.49,8.51-12.79,8.51-20.56s-3.02-15.06-8.51-20.56c-11.95-11.95-27.65-17.92-43.34-17.92h0ZM32.21,307.7L304.83,35.07c9.01-9.01,20.85-13.52,32.69-13.52,11.84,0,23.68,4.51,32.69,13.52,5.46,5.46,5.46,14.35,0,19.81l-252.82,252.82H32.21ZM82.3,465.82c-33.49,0-60.74-27.25-60.74-60.74v-82.32h460.55c11.76,0,21.33,9.57,21.33,21.33v60.99c0,33.49-27.25,60.74-60.74,60.74H82.3Z"/>
        </g>
        <g>
          <path class="cls-1" d="M443.21,412.11c-8.87,0-16.09-7.22-16.09-16.09s7.22-16.09,16.09-16.09,16.09,7.22,16.09,16.09-7.22,16.09-16.09,16.09ZM443.21,381.99c-7.74,0-14.03,6.29-14.03,14.03s6.29,14.03,14.03,14.03,14.03-6.29,14.03-14.03-6.29-14.03-14.03-14.03Z"/>
          <path d="M443.21,373.43c-12.45,0-22.59,10.13-22.59,22.59s10.13,22.59,22.59,22.59,22.59-10.13,22.59-22.59-10.13-22.59-22.59-22.59h0ZM443.21,403.55c-4.15,0-7.53-3.38-7.53-7.53s3.38-7.53,7.53-7.53,7.53,3.38,7.53,7.53-3.38,7.53-7.53,7.53h0Z"/>
        </g>
        <g>
          <path class="cls-1" d="M381.46,412.11c-8.87,0-16.09-7.22-16.09-16.09s7.22-16.09,16.09-16.09,16.09,7.22,16.09,16.09-7.22,16.09-16.09,16.09ZM381.46,381.99c-7.74,0-14.03,6.29-14.03,14.03s6.29,14.03,14.03,14.03,14.03-6.29,14.03-14.03-6.29-14.03-14.03-14.03Z"/>
          <path d="M381.46,373.43c-12.45,0-22.59,10.13-22.59,22.59s10.13,22.59,22.59,22.59,22.59-10.13,22.59-22.59-10.13-22.59-22.59-22.59h0ZM381.46,403.55c-4.15,0-7.53-3.38-7.53-7.53s3.38-7.53,7.53-7.53,7.53,3.38,7.53,7.53-3.38,7.53-7.53,7.53h0Z"/>
        </g>
        <g>
          <path class="cls-1" d="M319.72,412.11c-8.87,0-16.09-7.22-16.09-16.09s7.22-16.09,16.09-16.09,16.09,7.22,16.09,16.09-7.22,16.09-16.09,16.09ZM319.72,381.99c-7.74,0-14.03,6.29-14.03,14.03s6.29,14.03,14.03,14.03,14.03-6.29,14.03-14.03-6.29-14.03-14.03-14.03Z"/>
          <path d="M319.72,373.43c-12.45,0-22.59,10.13-22.59,22.59s10.13,22.59,22.59,22.59,22.59-10.13,22.59-22.59-10.13-22.59-22.59-22.59h0ZM319.72,403.55c-4.15,0-7.53-3.38-7.53-7.53s3.38-7.53,7.53-7.53,7.53,3.38,7.53,7.53-3.38,7.53-7.53,7.53h0Z"/>
        </g>
      </g>
    </g>
  </g>
</svg>