<?xml version="1.0" encoding="UTF-8"?>
<svg id="Layer_2" data-name="Layer 2" xmlns="http://www.w3.org/2000/svg" viewBox="0 0 517.47 525">
  <defs>
    <style>
      .cls-1 {
        fill: #00b2ca;
      }
    </style>
  </defs>
  <g id="Bottom_navigation" data-name="Bottom navigation">
    <g id="Model">
      <g>
        <path class="cls-1" d="M449.48,512c-12.33,0-22.36-10.03-22.36-22.36v-32.63c0-12.33,10.03-22.36,22.36-22.36h8.78c3.59,0,6.5-2.91,6.5-6.5v-12.55c0-21.57-17.55-39.13-39.13-39.13h-47.69c-21.57,0-39.13,17.55-39.13,39.13v12.55c0,3.59,2.91,6.5,6.5,6.5h8.78c12.33,0,22.36,10.03,22.36,22.36v32.63c0,12.33-10.03,22.36-22.36,22.36h-32.63c-12.33,0-22.36-10.03-22.36-22.36v-32.63c0-12.33,10.03-22.36,22.36-22.36h8.78c3.59,0,6.5-2.91,6.5-6.5v-12.55c0-22.71,18.48-41.19,41.19-41.19h12.55c3.59,0,6.5-2.91,6.5-6.5v-75.29c0-3.59-2.91-6.5-6.5-6.5H119.44c-3.59,0-6.5,2.91-6.5,6.5v75.29c0,3.59,2.91,6.5,6.5,6.5h20.08c22.71,0,41.19,18.48,41.19,41.19v12.55c0,3.59,2.91,6.5,6.5,6.5h8.78c12.33,0,22.36,10.03,22.36,22.36v32.63c0,12.33-10.03,22.36-22.36,22.36h-32.63c-12.33,0-22.36-10.03-22.36-22.36v-32.63c0-12.33,10.03-22.36,22.36-22.36h8.78c3.59,0,6.5-2.91,6.5-6.5v-12.55c0-21.57-17.55-39.13-39.13-39.13h-47.69c-21.57,0-39.13,17.55-39.13,39.13v12.55c0,3.59,2.91,6.5,6.5,6.5h8.78c12.33,0,22.36,10.03,22.36,22.36v32.63c0,12.33-10.03,22.36-22.36,22.36h-32.63c-12.33,0-22.36-10.03-22.36-22.36v-32.63c0-12.33,10.03-22.36,22.36-22.36h8.78c3.59,0,6.5-2.91,6.5-6.5v-12.55c0-22.71,18.48-41.19,41.19-41.19h12.55c3.59,0,6.5-2.91,6.5-6.5v-75.29c0-3.59-2.91-6.5-6.5-6.5h-33.88c-27.55,0-49.97-22.42-49.97-49.97s22.42-49.97,49.97-49.97h176.94c3.59,0,6.5-2.91,6.5-6.5v-45.18c0-3.59-2.91-6.5-6.5-6.5h-52.14c-21.64,0-39.24-17.6-39.24-39.24v-36.53c0-21.64,17.6-39.24,39.24-39.24h119.35c21.64,0,39.24,17.6,39.24,39.24v36.53c0,21.64-17.6,39.24-39.24,39.24h-52.14c-3.59,0-6.5,2.91-6.5,6.5v45.18c0,3.59,2.91,6.5,6.5,6.5h176.94c27.55,0,49.97,22.42,49.97,49.97s-22.42,49.97-49.97,49.97h-33.88c-3.59,0-6.5,2.91-6.5,6.5v75.29c0,3.59,2.91,6.5,6.5,6.5h20.08c22.71,0,41.19,18.48,41.19,41.19v12.55c0,3.59,2.91,6.5,6.5,6.5h8.78c12.33,0,22.36,10.03,22.36,22.36v32.63c0,12.33-10.03,22.36-22.36,22.36h-32.63ZM449.48,436.71c-11.2,0-20.3,9.11-20.3,20.3v32.63c0,11.2,9.11,20.3,20.3,20.3h32.63c11.2,0,20.3-9.11,20.3-20.3v-32.63c0-11.2-9.11-20.3-20.3-20.3h-32.63ZM321.48,436.71c-11.2,0-20.3,9.11-20.3,20.3v32.63c0,11.2,9.11,20.3,20.3,20.3h32.63c11.2,0,20.3-9.11,20.3-20.3v-32.63c0-11.2-9.11-20.3-20.3-20.3h-32.63ZM163.36,436.71c-11.2,0-20.3,9.11-20.3,20.3v32.63c0,11.2,9.11,20.3,20.3,20.3h32.63c11.2,0,20.3-9.11,20.3-20.3v-32.63c0-11.2-9.11-20.3-20.3-20.3h-32.63ZM35.36,436.71c-11.2,0-20.3,9.11-20.3,20.3v32.63c0,11.2,9.11,20.3,20.3,20.3h32.63c11.2,0,20.3-9.11,20.3-20.3v-32.63c0-11.2-9.11-20.3-20.3-20.3h-32.63ZM195.3,15.06c-20.5,0-37.18,16.68-37.18,37.18v36.53c0,20.5,16.68,37.18,37.18,37.18h119.35c20.5,0,37.18-16.68,37.18-37.18v-36.53c0-20.5-16.68-37.18-37.18-37.18h-119.35Z"/>
        <path d="M254.97,190.28c2.12,1.51,4.72,2.4,7.53,2.4h176.94c23.97,0,43.47,19.5,43.47,43.47s-19.5,43.47-43.47,43.47h-33.88c-2.81,0-5.4.89-7.53,2.4-2.12-1.51-4.72-2.4-7.53-2.4H119.44c-2.81,0-5.4.89-7.53,2.4-2.12-1.51-4.72-2.4-7.53-2.4h-33.88c-23.97,0-43.47-19.5-43.47-43.47s19.5-43.47,43.47-43.47h176.94c2.81,0,5.41-.89,7.53-2.4M314.64,6.5h-119.35c-25.22,0-45.74,20.52-45.74,45.74v36.53c0,25.22,20.52,45.74,45.74,45.74h52.15v45.18H70.5c-31.14,0-56.47,25.33-56.47,56.47s25.33,56.47,56.47,56.47h33.88v75.29h-12.55c-26.29,0-47.69,21.39-47.69,47.69v12.55h-8.78c-15.92,0-28.86,12.95-28.86,28.86v32.63c0,15.92,12.95,28.86,28.86,28.86h32.63c15.92,0,28.86-12.95,28.86-28.86v-32.63c0-15.92-12.95-28.86-28.86-28.86h-8.78v-12.55c0-17.99,14.64-32.63,32.63-32.63h47.69c17.99,0,32.63,14.64,32.63,32.63v12.55h-8.78c-15.92,0-28.86,12.95-28.86,28.86v32.63c0,15.92,12.95,28.86,28.86,28.86h32.63c15.92,0,28.86-12.95,28.86-28.86v-32.63c0-15.92-12.95-28.86-28.86-28.86h-8.78v-12.55c0-26.29-21.39-47.69-47.69-47.69h-20.08v-75.29h271.06v75.29h-12.55c-26.29,0-47.69,21.39-47.69,47.69v12.55h-8.78c-15.92,0-28.86,12.95-28.86,28.86v32.63c0,15.92,12.95,28.86,28.86,28.86h32.63c15.92,0,28.86-12.95,28.86-28.86v-32.63c0-15.92-12.95-28.86-28.86-28.86h-8.78v-12.55c0-17.99,14.64-32.63,32.63-32.63h47.69c17.99,0,32.63,14.64,32.63,32.63v12.55h-8.78c-15.92,0-28.86,12.95-28.86,28.86v32.63c0,15.92,12.95,28.86,28.86,28.86h32.63c15.92,0,28.86-12.95,28.86-28.86v-32.63c0-15.92-12.95-28.86-28.86-28.86h-8.78v-12.55c0-26.29-21.39-47.69-47.69-47.69h-20.08v-75.29h33.88c31.14,0,56.47-25.33,56.47-56.47s-25.33-56.47-56.47-56.47h-176.94v-45.18h52.15c25.22,0,45.74-20.52,45.74-45.74v-36.52c0-25.22-20.52-45.74-45.74-45.74h0ZM195.3,119.44c-16.92,0-30.68-13.76-30.68-30.68v-36.52c0-16.92,13.76-30.68,30.68-30.68h119.35c16.92,0,30.68,13.76,30.68,30.68v36.53c0,16.92-13.76,30.68-30.68,30.68h-119.35ZM449.48,503.44c-7.61,0-13.8-6.19-13.8-13.8v-32.63c0-7.61,6.19-13.8,13.8-13.8h32.63c7.61,0,13.8,6.19,13.8,13.8v32.63c0,7.61-6.19,13.8-13.8,13.8h-32.63ZM321.48,503.44c-7.61,0-13.8-6.19-13.8-13.8v-32.63c0-7.61,6.19-13.8,13.8-13.8h32.63c7.61,0,13.8,6.19,13.8,13.8v32.63c0,7.61-6.19,13.8-13.8,13.8h-32.63ZM163.36,503.44c-7.61,0-13.8-6.19-13.8-13.8v-32.63c0-7.61,6.19-13.8,13.8-13.8h32.63c7.61,0,13.8,6.19,13.8,13.8v32.63c0,7.61-6.19,13.8-13.8,13.8h-32.63ZM35.36,503.44c-7.61,0-13.8-6.19-13.8-13.8v-32.63c0-7.61,6.19-13.8,13.8-13.8h32.63c7.61,0,13.8,6.19,13.8,13.8v32.63c0,7.61-6.19,13.8-13.8,13.8h-32.63Z"/>
      </g>
    </g>
  </g>
</svg>