<?xml version="1.0" encoding="UTF-8"?>
<svg id="Layer_2" data-name="Layer 2" xmlns="http://www.w3.org/2000/svg" viewBox="0 0 404.53 525">
  <defs>
    <style>
      .cls-1 {
        fill: #00b2ca;
      }
    </style>
  </defs>
  <g id="Bottom_navigation" data-name="Bottom navigation">
    <g id="Storage_Capacity" data-name="Storage Capacity">
      <g>
        <g>
          <path class="cls-1" d="M55.45,512c-23.41,0-42.45-19.04-42.45-42.45V55.45c0-23.41,19.04-42.45,42.45-42.45h293.63c23.41,0,42.45,19.04,42.45,42.45v414.1c0,23.41-19.04,42.45-42.45,42.45H55.45ZM55.45,15.06c-22.27,0-40.39,18.12-40.39,40.39v414.1c0,22.27,18.12,40.39,40.39,40.39h293.63c22.27,0,40.39-18.12,40.39-40.39V55.45c0-22.27-18.12-40.39-40.39-40.39H55.45Z"/>
          <path d="M349.08,6.5H55.45C28.46,6.5,6.5,28.46,6.5,55.45v414.1c0,26.99,21.96,48.95,48.95,48.95h293.63c26.99,0,48.95-21.96,48.95-48.95V55.45c0-26.99-21.96-48.95-48.95-48.95h0ZM55.45,503.44c-18.69,0-33.89-15.2-33.89-33.89V55.45c0-18.69,15.2-33.89,33.89-33.89h293.63c18.69,0,33.89,15.2,33.89,33.89v414.1c0,18.69-15.2,33.89-33.89,33.89H55.45Z"/>
        </g>
        <g>
          <path class="cls-1" d="M62.97,82.82c-10.95,0-19.85-8.91-19.85-19.85s8.91-19.85,19.85-19.85,19.85,8.91,19.85,19.85-8.91,19.85-19.85,19.85Z"/>
          <path d="M62.97,49.62c7.36,0,13.35,5.99,13.35,13.35s-5.99,13.35-13.35,13.35-13.35-5.99-13.35-13.35,5.99-13.35,13.35-13.35M62.97,36.62c-14.53,0-26.35,11.82-26.35,26.35s11.82,26.35,26.35,26.35,26.35-11.82,26.35-26.35-11.82-26.35-26.35-26.35h0Z"/>
        </g>
        <g>
          <path class="cls-1" d="M341.56,82.82c-10.95,0-19.85-8.91-19.85-19.85s8.91-19.85,19.85-19.85,19.85,8.91,19.85,19.85-8.91,19.85-19.85,19.85Z"/>
          <path d="M341.56,49.62c7.36,0,13.35,5.99,13.35,13.35s-5.99,13.35-13.35,13.35-13.35-5.99-13.35-13.35,5.99-13.35,13.35-13.35M341.56,36.62c-14.53,0-26.35,11.82-26.35,26.35s11.82,26.35,26.35,26.35,26.35-11.82,26.35-26.35-11.82-26.35-26.35-26.35h0Z"/>
        </g>
        <g>
          <path class="cls-1" d="M62.97,481.88c-10.95,0-19.85-8.91-19.85-19.85s8.91-19.85,19.85-19.85,19.85,8.91,19.85,19.85-8.91,19.85-19.85,19.85Z"/>
          <path d="M62.97,448.68c7.36,0,13.35,5.99,13.35,13.35s-5.99,13.35-13.35,13.35-13.35-5.99-13.35-13.35,5.99-13.35,13.35-13.35M62.97,435.68c-14.53,0-26.35,11.82-26.35,26.35s11.82,26.35,26.35,26.35,26.35-11.82,26.35-26.35-11.82-26.35-26.35-26.35h0Z"/>
        </g>
        <g>
          <path class="cls-1" d="M190.97,481.88c-10.95,0-19.85-8.91-19.85-19.85s8.91-19.85,19.85-19.85h143.06c10.95,0,19.85,8.91,19.85,19.85s-8.91,19.85-19.85,19.85h-143.06Z"/>
          <path d="M334.03,448.68c7.36,0,13.35,5.99,13.35,13.35s-5.99,13.35-13.35,13.35h-143.06c-7.36,0-13.35-5.99-13.35-13.35s5.99-13.35,13.35-13.35h143.06M334.03,435.68h-143.06c-14.53,0-26.35,11.82-26.35,26.35s11.82,26.35,26.35,26.35h143.06c14.53,0,26.35-11.82,26.35-26.35s-11.82-26.35-26.35-26.35h0Z"/>
        </g>
        <g>
          <path class="cls-1" d="M90.01,414.11c-8.15,0-15.81-3.17-21.56-8.93-6.24-6.24-9.47-14.87-8.86-23.69.61-8.81,5.01-16.92,12.05-22.23l15.66-12.13c2.71-2.1,3.32-5.93,1.41-8.77-14.29-21.23-22.23-45.78-22.97-70.99-.7-23.87,4.97-47.82,16.38-69.26,24.06-45.2,68.97-72.18,120.13-72.18,75.3,0,136.56,61.26,136.56,136.56,0,37.78-14.9,72.72-41.94,98.38-25.61,24.3-60.35,38.24-95.29,38.24h-.01c-22.84,0-44.7-5.68-64.97-16.87-.99-.55-2.07-.81-3.14-.81-1.96,0-3.87.88-5.14,2.52l-13.97,18.04c-5.83,7.72-14.68,12.11-24.35,12.11ZM185.73,313.94c-1.98,0-3.89.9-5.14,2.52l-42.93,55.45c-1.18,1.52-1.62,3.48-1.21,5.35.41,1.88,1.62,3.48,3.32,4.37,19.35,10.23,40.16,15.42,61.83,15.42h.02c74.53,0,135.16-60.37,135.16-134.55s-60.34-134.5-134.5-134.5c-50.18,0-94.33,26.4-118.1,70.63-23.62,43.96-21.45,96.72,5.68,137.71,1,1.51,2.58,2.53,4.36,2.83.35.06.71.09,1.06.09,1.43,0,2.83-.47,3.98-1.36l53.94-41.76c2.52-1.95,3.25-5.45,1.73-8.25-9.02-16.58-8.52-36.37,1.34-52.95,9.74-16.39,26.94-26.17,46.02-26.17,29.63,0,53.74,24.11,53.74,53.74s-24.12,53.78-53.76,53.78c-4.95,0-9.9-.7-14.71-2.09-.6-.17-1.2-.25-1.8-.25ZM182.42,277.24c3.77,0,7.28,1.44,9.91,4.07,4.91,4.91,5.46,12.8,1.28,18.35l-2.8,3.61c-1.42,1.83-1.75,4.27-.89,6.42.87,2.14,2.81,3.67,5.1,4,2.39.34,4.81.52,7.22.52,28.51,0,51.7-23.19,51.7-51.7s-23.18-51.68-51.68-51.68c-17.76,0-34.02,8.94-43.5,23.91-9.61,15.18-10.85,33.75-3.32,49.66.84,1.78,2.45,3.08,4.36,3.54.5.12,1.01.18,1.51.18,1.43,0,2.83-.47,3.98-1.36l8.67-6.71c2.4-1.81,5.35-2.8,8.45-2.8Z"/>
          <path d="M182.42,283.74c2.03,0,3.91.77,5.31,2.16,2.58,2.58,2.89,6.86.72,9.79l-2.79,3.6c-1.9,2.45-2.83,5.45-2.71,8.45-2.92.64-5.59,2.28-7.5,4.74l-42.93,55.45c-1.69,2.19-2.63,4.83-2.71,7.54-2.55.75-4.89,2.28-6.62,4.52l-13.97,18.04s-.07.09-.1.13c-4.54,6.01-11.5,9.46-19.11,9.46-6.41,0-12.44-2.5-16.97-7.02-4.91-4.91-7.45-11.7-6.97-18.64.48-6.94,3.94-13.31,9.48-17.49.04-.03.09-.07.13-.1l15.6-12.08c2.22-1.72,3.73-4.02,4.49-6.53,2.68-.11,5.29-1.04,7.45-2.71l53.94-41.76c2.25-1.74,3.79-4.1,4.53-6.67,2.73-.08,5.39-1.01,7.59-2.72l8.59-6.65c1.67-1.24,3.39-1.5,4.55-1.5M202.26,119.44c-115.73,0-181.44,129.7-118.94,222.56l-15.6,12.08c-17.92,13.52-19.77,39.81-3.88,55.7h0c7.28,7.28,16.75,10.83,26.16,10.83,11.13,0,22.19-4.97,29.49-14.63l13.97-18.04c21.94,12.11,45.27,17.68,68.11,17.68,74.41,0,143.75-59.04,143.75-143.12,0-78.88-64.18-143.06-143.06-143.06h0ZM95.26,332.76c-54.93-83.01,3.81-198.26,107-198.26,70.58,0,128,57.42,128,128,0,75.34-62.13,128.05-128.66,128.05-19.72,0-39.81-4.62-58.81-14.67l42.93-55.45c5.52,1.59,11.07,2.35,16.51,2.35,31.86,0,60.26-25.8,60.26-60.28s-27.02-60.24-60.24-60.24c-46.44,0-74.19,49.9-53.07,88.73l-53.94,41.76h0ZM161.32,281.61c-13.58-28.69,6.94-64.29,40.95-64.29,24.91,0,45.18,20.27,45.18,45.18s-21.33,45.2-45.2,45.2c-2.08,0-4.19-.15-6.3-.45l2.85-3.68c6.13-8.12,5.33-19.67-1.87-26.86-3.95-3.95-9.21-5.97-14.5-5.97-4.36,0-8.74,1.37-12.43,4.16l-8.67,6.71h0Z"/>
        </g>
      </g>
    </g>
  </g>
</svg>