<?xml version="1.0" encoding="UTF-8"?>
<svg id="Layer_2" data-name="Layer 2" xmlns="http://www.w3.org/2000/svg" viewBox="0 0 525 365">
  <defs>
    <style>
      .cls-1 {
        fill: #00b2ca;
      }
    </style>
  </defs>
  <g id="Bottom_navigation" data-name="Bottom navigation">
    <g id="Type">
      <g>
        <path class="cls-1" d="M17.17,352c-2.3,0-4.17-1.87-4.17-4.17v-137.47c0-23.92,9.27-46.51,26.11-63.6,16.82-17.07,39.22-26.69,63.1-27.08.04,0,.39-.01.48-.02h21.15c3.59,0,6.5-2.91,6.5-6.5v-27.73c0-28.18,22.92-51.1,51.1-51.1h17.07c3.59,0,6.5-2.91,6.5-6.5v-10.67c0-2.3,1.87-4.17,4.17-4.17h106.67c2.3,0,4.17,1.87,4.17,4.17v10.67c0,3.59,2.91,6.5,6.5,6.5h17.07c28.18,0,51.1,22.92,51.1,51.1v27.73c0,3.59,2.91,6.5,6.5,6.5h21.46c.06.02.12.02.18.02,23.87.39,46.28,10,63.1,27.08,16.84,17.09,26.11,39.68,26.11,63.6v137.47c0,2.3-1.87,4.17-4.17,4.17H17.17ZM433.17,128.93c-1.54,0-3.04.55-4.22,1.56-1.44,1.24-2.28,3.04-2.28,4.94v201.73c0,3.59,2.91,6.5,6.5,6.5h64c3.59,0,6.5-2.91,6.5-6.5v-126.8c0-40.13-29.87-75.1-69.49-81.35-.34-.05-.68-.08-1.01-.08ZM334.68,194.33c27.2,0,49.32,22.12,49.32,49.32v93.51c0,3.59,2.91,6.5,6.5,6.5h21.33c3.59,0,6.5-2.91,6.5-6.5v-202.67c0-3.59-2.91-6.5-6.5-6.5H113.17c-3.59,0-6.5,2.91-6.5,6.5v202.67c0,3.59,2.91,6.5,6.5,6.5h21.33c3.59,0,6.5-2.91,6.5-6.5v-93.51c0-27.2,22.13-49.32,49.32-49.32h144.36ZM155.83,309.33c-3.59,0-6.5,2.91-6.5,6.5v21.33c0,3.59,2.91,6.5,6.5,6.5h213.33c3.59,0,6.5-2.91,6.5-6.5v-21.33c0-3.59-2.91-6.5-6.5-6.5h-213.33ZM91.83,128.93c-.34,0-.68.03-1.01.08-39.61,6.25-69.49,41.22-69.49,81.35v126.8c0,3.59,2.91,6.5,6.5,6.5h64c3.59,0,6.5-2.91,6.5-6.5v-201.73c0-1.9-.83-3.71-2.28-4.94-1.19-1.01-2.69-1.56-4.22-1.56ZM219.83,245.33c-9.47,0-17.17,7.7-17.17,17.17s7.7,17.17,17.17,17.17h85.33c9.47,0,17.17-7.7,17.17-17.17s-7.7-17.17-17.17-17.17h-85.33ZM181.43,42.67c-23.58,0-42.77,19.18-42.77,42.77v27.73c0,3.59,2.91,6.5,6.5,6.5h234.67c3.59,0,6.5-2.91,6.5-6.5v-27.73c0-23.58-19.19-42.77-42.77-42.77h-17.07c-3.59,0-6.5,2.91-6.5,6.5v10.67c0,2.3-1.87,4.17-4.17,4.17h-106.67c-2.3,0-4.17-1.87-4.17-4.17v-10.67c0-3.59-2.91-6.5-6.5-6.5h-17.07Z"/>
        <path d="M313.5,19.5v8.33c0,4.42,2.2,8.32,5.57,10.67-3.37,2.35-5.57,6.25-5.57,10.67v8.33h-102v-8.33c0-4.42-2.2-8.32-5.57-10.67,3.37-2.35,5.57-6.25,5.57-10.67v-8.33h102M134.5,120.6c.22.31.45.61.69.9h-1.38c.24-.29.47-.59.69-.9M390.5,120.6c.22.31.45.61.69.9h-1.38c.24-.29.47-.59.69-.9M103.18,126.17h0c-.37.44-.71.9-1.02,1.39-.36-.47-.75-.92-1.17-1.34.44-.01.87-.02,1.31-.03.09,0,.18,0,.26,0,.09,0,.19,0,.3-.01h.31M422.17,126.17c.07,0,.14,0,.21,0,.1,0,.21,0,.31,0,.44,0,.87.02,1.31.03-.42.42-.82.87-1.17,1.34-.31-.49-.65-.95-1.01-1.39h.36M334.68,200.83c23.61,0,42.82,19.21,42.82,42.82v62.2c-2.26-1.89-5.16-3.02-8.33-3.02h-213.33c-3.17,0-6.08,1.14-8.33,3.02v-62.2c0-23.61,19.21-42.82,42.82-42.82h144.36M219.83,286.17h85.33c13.05,0,23.67-10.62,23.67-23.67s-10.62-23.67-23.67-23.67h-85.33c-13.05,0-23.67,10.62-23.67,23.67s10.62,23.67,23.67,23.67M422.5,344.6c.22.31.45.61.69.9h-1.38c.24-.29.47-.59.69-.9M145.17,344.6c.22.31.45.61.69.9h-1.38c.24-.29.47-.59.69-.9M102.5,344.6c.22.31.45.61.69.9h-1.38c.24-.29.47-.59.69-.9M379.83,344.6c.22.31.45.61.69.9h-1.38c.24-.29.47-.59.69-.9M315.83,6.5h-106.67c-5.89,0-10.67,4.78-10.67,10.67v10.67h-17.07c-31.76,0-57.6,25.84-57.6,57.6v27.73c-4.23,0-7.62,0-10.34,0-6.52,0-9.19,0-10.31,0-1.21,0-.61,0-1.09.02-52.86.86-95.6,44.12-95.6,97.18v137.47c0,5.89,4.78,10.67,10.67,10.67h490.67c5.89,0,10.67-4.78,10.67-10.67v-137.47c0-53.06-42.74-96.32-95.6-97.18-.13,0-.27-.02-.4-.02-8.11,0-11.08,0-14.7,0-1.81,0-3.78,0-6.63,0v-27.73c0-31.76-25.84-57.6-57.6-57.6h-17.07v-10.67c0-5.89-4.78-10.67-10.67-10.67h0ZM209.17,70.5h106.67c5.89,0,10.67-4.78,10.67-10.67v-10.67h17.07c20,0,36.27,16.27,36.27,36.27v27.73h-234.67v-27.73c0-20,16.27-36.27,36.27-36.27h17.07v10.67c0,5.89,4.78,10.67,10.67,10.67h0ZM113.17,337.17v-202.67h298.67v202.67h-21.33v-93.51c0-30.78-25.04-55.82-55.82-55.82h-144.36c-30.78,0-55.82,25.04-55.82,55.82v93.51h-21.33ZM433.17,337.17v-201.73c36.22,5.71,64,37.14,64,74.93v126.8h-64ZM27.83,337.17v-126.8c0-37.8,27.78-69.22,64-74.93v201.73H27.83ZM219.83,273.17c-5.89,0-10.67-4.78-10.67-10.67s4.78-10.67,10.67-10.67h85.33c5.89,0,10.67,4.78,10.67,10.67s-4.78,10.67-10.67,10.67h-85.33ZM155.83,337.17v-21.33h213.33v21.33h-213.33Z"/>
      </g>
    </g>
  </g>
</svg>