<?xml version="1.0" encoding="UTF-8"?>
<svg id="Layer_2" xmlns="http://www.w3.org/2000/svg" viewBox="0 0 536.72 512">
  <defs>
    <style>
      .cls-1 {
        fill: #00b2ca;
      }
    </style>
  </defs>
  <g id="Layer_2-2" data-name="Layer_2">
    <g id="Screen_Size">
      <g id="Layer_2_copy_13">
        <g id="_37">
          <g>
            <path class="cls-1" d="M176.95,505.5c16.79-2.06,31.26-13.46,37.08-29.68l.06-.13,9.31-28.64h89.92l9.04,27.81c.14.42.28.79.43,1.15,5.78,16.1,20.19,27.42,36.89,29.48h-182.73Z"/>
            <path d="M308.6,453.55l7.58,23.32v.03s.02.03.02.03c.16.47.33.93.52,1.41,2.93,8.09,7.76,15.12,13.88,20.65h-124.53c6.11-5.51,10.96-12.51,13.92-20.56l.12-.23.31-.95,7.7-23.7h80.48M318.05,440.55h-99.37l-10.62,32.68s-.03.08-.05.12c-5.46,15.58-20.13,25.98-36.56,25.98-.1,0-.2,0-.29,0h-64.52c-3.55,0-6.59,2.61-6.76,5.82-.23,3.52,2.27,6.5,5.61,6.84h325c3.49,0,6.33-2.85,6.33-6.34v-.67c-.27-3.19-3.2-5.66-6.75-5.66h-64.58c-.11,0-.21,0-.32,0-16.28,0-30.87-10.26-36.32-25.66-.11-.27-.22-.54-.31-.82l-10.5-32.31h0Z"/>
          </g>
          <path d="M500.14,0H36.68C20.04,0,6.5,13.53,6.5,30.18v276.58h523.82V30.28c0-16.7-13.53-30.28-30.18-30.28ZM515.87,30.67v264.05H20.96V29.94c0-7.24,6.05-14.44,15.6-14.44h464.15c8.38,0,15.16,6.79,15.16,15.16Z"/>
          <g>
            <path class="cls-1" d="M36.68,403.77c-13.06,0-23.68-10.62-23.68-23.68v-50.55h510.72v50.55c0,13.06-10.62,23.68-23.68,23.68H36.68ZM263.04,356.93c-4.39,0-8.94.26-12.02,3.35-1.69,1.7-2.61,3.99-2.6,6.47.02,4.18,2.31,7.54,6.12,8.98,2.23.84,4.61.91,7.06.91h12.07c9.7,0,14.61-3.34,14.61-9.92,0-9.79-11-9.79-14.61-9.79h-10.64Z"/>
            <path d="M517.21,336.04v44.05c0,9.47-7.71,17.18-17.18,17.18H36.68c-9.47,0-17.18-7.71-17.18-17.18v-44.05h497.71M261.6,383.14h.74s.7,0,.7,0h10.64c19.06,0,21.11-11.48,21.11-16.42s-2.06-16.29-21.11-16.29h-10.64c-4.26,0-11.39,0-16.63,5.27-2.92,2.93-4.51,6.87-4.49,11.09.02,3.84,1.5,16.36,19.67,16.36M530.21,323.04H6.5v57.05c0,16.64,13.54,30.18,30.18,30.18h463.35c16.64,0,30.18-13.54,30.18-30.18v-57.05h0ZM261.6,370.14c-3.8,0-6.66-.18-6.67-3.42-.02-3,3.66-3.29,8.11-3.29h10.64c4.5,0,8.11.28,8.11,3.29s-3.66,3.42-8.11,3.42h-10.64c-.49,0-.97,0-1.44,0h0Z"/>
          </g>
        </g>
        <path d="M352.97,77.02v75.58c0,3.59-2.91,6.5-6.5,6.5s-6.5-2.91-6.5-6.5v-59.94l-133.44,133.44h59.94c3.59,0,6.5,2.91,6.5,6.5s-2.91,6.5-6.5,6.5h-75.57c-3.59,0-6.5-2.91-6.5-6.5v-75.58c0-3.59,2.91-6.5,6.5-6.5s6.5,2.91,6.5,6.5v59.82l133.33-133.32h-59.83c-3.59,0-6.5-2.91-6.5-6.5s2.91-6.5,6.5-6.5h75.57c3.59,0,6.5,2.91,6.5,6.5Z"/>
      </g>
    </g>
  </g>
</svg>