<?xml version="1.0" encoding="UTF-8"?>
<svg id="Layer_2" data-name="Layer 2" xmlns="http://www.w3.org/2000/svg" viewBox="0 0 525 525.01">
  <defs>
    <style>
      .cls-1 {
        fill: #00b2ca;
      }
    </style>
  </defs>
  <g id="Bottom_navigation" data-name="Bottom navigation">
    <g id="Brand">
      <g>
        <g>
          <path class="cls-1" d="M43.14,512.01c-16.62,0-30.14-13.52-30.14-30.14V186.21c0-16.62,13.52-30.14,30.14-30.14h196.7c1.76,0,3.44-.71,4.66-1.97,1.22-1.26,1.89-2.96,1.83-4.72-1.4-46.75-31.82-89-75.69-105.13-8.2-3.01-12.53-12.18-9.65-20.43,2.26-6.47,8.37-10.82,15.2-10.82,1.88,0,3.74.33,5.52.98,28.07,10.23,52.07,28.47,69.43,52.75,17.39,24.33,26.87,53.01,27.41,82.95.06,3.54,2.95,6.38,6.5,6.38h196.8c8.04,0,15.6,3.14,21.3,8.84s8.84,13.27,8.84,21.3v295.66c0,16.62-13.52,30.14-30.14,30.14H43.14ZM43.14,158.12c-15.49,0-28.08,12.6-28.08,28.08v295.66c0,15.49,12.6,28.08,28.08,28.08h438.71c15.49,0,28.08-12.6,28.08-28.08V186.21c0-15.49-12.6-28.08-28.08-28.08H43.14ZM176.21,15.07c-5.97,0-11.3,3.79-13.26,9.43-2.51,7.19,1.27,15.19,8.42,17.82,44.84,16.48,75.81,59.66,77.07,107.43.09,3.52,2.97,6.33,6.5,6.33h15.07c1.75,0,3.42-.7,4.64-1.95,1.22-1.25,1.89-2.93,1.86-4.68-1.21-59.5-39.58-113.15-95.48-133.52-1.55-.57-3.17-.85-4.81-.85Z"/>
          <path d="M176.2,6.5c-9.34,0-18.08,5.83-21.34,15.17-4.04,11.58,2.04,24.44,13.55,28.67,41.75,15.35,70.11,54.96,71.44,99.22H43.14c-20.21,0-36.64,16.44-36.64,36.64v295.66c0,20.21,16.44,36.64,36.64,36.64h438.71c20.21,0,36.64-16.44,36.64-36.64V186.21c0-20.21-16.44-36.64-36.64-36.64h0s-196.8,0-196.8,0c-1.15-63.77-41.46-119.96-101.11-141.69-2.56-.93-5.18-1.38-7.75-1.38h0ZM254.93,149.57c-1.33-50.55-33.67-95.84-81.32-113.36-3.84-1.41-5.87-5.71-4.52-9.57,1.09-3.12,4.01-5.07,7.13-5.07.86,0,1.73.15,2.59.46,53.69,19.56,90.05,70.58,91.2,127.54h-15.07ZM43.14,503.45c-11.9,0-21.58-9.68-21.58-21.58V186.21c0-11.9,9.68-21.58,21.58-21.58h438.71c11.9,0,21.58,9.68,21.58,21.58v295.66c0,11.9-9.68,21.58-21.58,21.58H43.14Z"/>
        </g>
        <g>
          <path class="cls-1" d="M64.23,233.42c-7.49,0-13.58-6.09-13.58-13.58v-20.08c0-7.49,6.09-13.58,13.58-13.58h20.08c7.49,0,13.58,6.09,13.58,13.58v20.08c0,7.49-6.09,13.58-13.58,13.58h-20.08ZM64.23,188.24c-6.35,0-11.52,5.17-11.52,11.52v20.08c0,6.35,5.17,11.52,11.52,11.52h20.08c6.35,0,11.52-5.17,11.52-11.52v-20.08c0-6.35-5.17-11.52-11.52-11.52h-20.08Z"/>
          <path d="M84.3,179.68h-20.08c-11.07,0-20.08,9.01-20.08,20.08v20.08c0,11.07,9.01,20.08,20.08,20.08h20.08c11.07,0,20.08-9.01,20.08-20.08v-20.08c0-11.07-9.01-20.08-20.08-20.08h0ZM64.23,224.86c-2.77,0-5.02-2.25-5.02-5.02v-20.08c0-2.77,2.25-5.02,5.02-5.02h20.08c2.77,0,5.02,2.25,5.02,5.02v20.08c0,2.77-2.25,5.02-5.02,5.02h-20.08Z"/>
        </g>
        <g>
          <rect class="cls-1" x="125.94" y="186.18" width="47.24" height="47.24" rx="13.58" ry="13.58"/>
          <path d="M159.6,192.68c3.9,0,7.08,3.17,7.08,7.08v20.08c0,3.9-3.18,7.08-7.08,7.08h-20.08c-3.9,0-7.08-3.17-7.08-7.08v-20.08c0-3.9,3.18-7.08,7.08-7.08h20.08M159.6,179.68h-20.08c-11.07,0-20.08,9.01-20.08,20.08v20.08c0,11.07,9.01,20.08,20.08,20.08h20.08c11.07,0,20.08-9.01,20.08-20.08v-20.08c0-11.07-9.01-20.08-20.08-20.08h0Z"/>
        </g>
        <g>
          <path class="cls-1" d="M214.81,233.42c-7.49,0-13.58-6.09-13.58-13.58v-20.08c0-7.49,6.09-13.58,13.58-13.58h20.08c7.49,0,13.58,6.09,13.58,13.58v20.08c0,7.49-6.09,13.58-13.58,13.58h-20.08ZM214.81,188.24c-6.35,0-11.52,5.17-11.52,11.52v20.08c0,6.35,5.17,11.52,11.52,11.52h20.08c6.35,0,11.52-5.17,11.52-11.52v-20.08c0-6.35-5.17-11.52-11.52-11.52h-20.08Z"/>
          <path d="M234.89,179.68h-20.08c-11.07,0-20.08,9.01-20.08,20.08v20.08c0,11.07,9.01,20.08,20.08,20.08h20.08c11.07,0,20.08-9.01,20.08-20.08v-20.08c0-11.07-9.01-20.08-20.08-20.08h0ZM214.81,224.86c-2.77,0-5.02-2.25-5.02-5.02v-20.08c0-2.77,2.25-5.02,5.02-5.02h20.08c2.77,0,5.02,2.25,5.02,5.02v20.08c0,2.77-2.25,5.02-5.02,5.02h-20.08Z"/>
        </g>
        <g>
          <path class="cls-1" d="M290.11,233.42c-7.49,0-13.58-6.09-13.58-13.58v-20.08c0-7.49,6.09-13.58,13.58-13.58h20.08c7.49,0,13.58,6.09,13.58,13.58v20.08c0,7.49-6.09,13.58-13.58,13.58h-20.08ZM290.11,188.24c-6.35,0-11.52,5.17-11.52,11.52v20.08c0,6.35,5.17,11.52,11.52,11.52h20.08c6.35,0,11.52-5.17,11.52-11.52v-20.08c0-6.35-5.17-11.52-11.52-11.52h-20.08Z"/>
          <path d="M310.19,179.68h-20.08c-11.07,0-20.08,9.01-20.08,20.08v20.08c0,11.07,9.01,20.08,20.08,20.08h20.08c11.07,0,20.08-9.01,20.08-20.08v-20.08c0-11.07-9.01-20.08-20.08-20.08h0ZM290.11,224.86c-2.77,0-5.02-2.25-5.02-5.02v-20.08c0-2.77,2.25-5.02,5.02-5.02h20.08c2.77,0,5.02,2.25,5.02,5.02v20.08c0,2.77-2.25,5.02-5.02,5.02h-20.08Z"/>
        </g>
        <g>
          <path class="cls-1" d="M365.4,233.42c-7.49,0-13.58-6.09-13.58-13.58v-20.08c0-7.49,6.09-13.58,13.58-13.58h20.08c7.49,0,13.58,6.09,13.58,13.58v20.08c0,7.49-6.09,13.58-13.58,13.58h-20.08ZM365.4,188.24c-6.35,0-11.52,5.17-11.52,11.52v20.08c0,6.35,5.17,11.52,11.52,11.52h20.08c6.35,0,11.52-5.17,11.52-11.52v-20.08c0-6.35-5.17-11.52-11.52-11.52h-20.08Z"/>
          <path d="M385.48,179.68h-20.08c-11.07,0-20.08,9.01-20.08,20.08v20.08c0,11.07,9.01,20.08,20.08,20.08h20.08c11.07,0,20.08-9.01,20.08-20.08v-20.08c0-11.07-9.01-20.08-20.08-20.08h0ZM365.4,224.86c-2.77,0-5.02-2.25-5.02-5.02v-20.08c0-2.77,2.25-5.02,5.02-5.02h20.08c2.77,0,5.02,2.25,5.02,5.02v20.08c0,2.77-2.25,5.02-5.02,5.02h-20.08Z"/>
        </g>
        <g>
          <path class="cls-1" d="M440.7,233.42c-7.49,0-13.58-6.09-13.58-13.58v-20.08c0-7.49,6.09-13.58,13.58-13.58h20.08c7.49,0,13.58,6.09,13.58,13.58v20.08c0,7.49-6.09,13.58-13.58,13.58h-20.08ZM440.7,188.24c-6.35,0-11.52,5.17-11.52,11.52v20.08c0,6.35,5.17,11.52,11.52,11.52h20.08c6.35,0,11.52-5.17,11.52-11.52v-20.08c0-6.35-5.17-11.52-11.52-11.52h-20.08Z"/>
          <path d="M460.77,179.68h-20.08c-11.07,0-20.08,9.01-20.08,20.08v20.08c0,11.07,9.01,20.08,20.08,20.08h20.08c11.07,0,20.08-9.01,20.08-20.08v-20.08c0-11.07-9.01-20.08-20.08-20.08h0ZM440.7,224.86c-2.77,0-5.02-2.25-5.02-5.02v-20.08c0-2.77,2.25-5.02,5.02-5.02h20.08c2.77,0,5.02,2.25,5.02,5.02v20.08c0,2.77-2.25,5.02-5.02,5.02h-20.08Z"/>
        </g>
        <g>
          <path class="cls-1" d="M64.23,316.24c-7.49,0-13.58-6.09-13.58-13.58v-20.08c0-7.49,6.09-13.58,13.58-13.58h20.08c7.49,0,13.58,6.09,13.58,13.58v20.08c0,7.49-6.09,13.58-13.58,13.58h-20.08ZM64.23,271.07c-6.35,0-11.52,5.17-11.52,11.52v20.08c0,6.35,5.17,11.52,11.52,11.52h20.08c6.35,0,11.52-5.17,11.52-11.52v-20.08c0-6.35-5.17-11.52-11.52-11.52h-20.08Z"/>
          <path d="M84.3,262.51h-20.08c-11.07,0-20.08,9.01-20.08,20.08v20.08c0,11.07,9.01,20.08,20.08,20.08h20.08c11.07,0,20.08-9.01,20.08-20.08v-20.08c0-11.07-9.01-20.08-20.08-20.08h0ZM64.23,307.68c-2.77,0-5.02-2.25-5.02-5.02v-20.08c0-2.77,2.25-5.02,5.02-5.02h20.08c2.77,0,5.02,2.25,5.02,5.02v20.08c0,2.77-2.25,5.02-5.02,5.02h-20.08Z"/>
        </g>
        <g>
          <path class="cls-1" d="M139.52,316.24c-7.49,0-13.58-6.09-13.58-13.58v-20.08c0-7.49,6.09-13.58,13.58-13.58h20.08c7.49,0,13.58,6.09,13.58,13.58v20.08c0,7.49-6.09,13.58-13.58,13.58h-20.08ZM139.52,271.07c-6.35,0-11.52,5.17-11.52,11.52v20.08c0,6.35,5.17,11.52,11.52,11.52h20.08c6.35,0,11.52-5.17,11.52-11.52v-20.08c0-6.35-5.17-11.52-11.52-11.52h-20.08Z"/>
          <path d="M159.6,262.51h-20.08c-11.07,0-20.08,9.01-20.08,20.08v20.08c0,11.07,9.01,20.08,20.08,20.08h20.08c11.07,0,20.08-9.01,20.08-20.08v-20.08c0-11.07-9.01-20.08-20.08-20.08h0ZM139.52,307.68c-2.77,0-5.02-2.25-5.02-5.02v-20.08c0-2.77,2.25-5.02,5.02-5.02h20.08c2.77,0,5.02,2.25,5.02,5.02v20.08c0,2.77-2.25,5.02-5.02,5.02h-20.08Z"/>
        </g>
        <g>
          <path class="cls-1" d="M214.81,316.24c-7.49,0-13.58-6.09-13.58-13.58v-20.08c0-7.49,6.09-13.58,13.58-13.58h20.08c7.49,0,13.58,6.09,13.58,13.58v20.08c0,7.49-6.09,13.58-13.58,13.58h-20.08ZM214.81,271.07c-6.35,0-11.52,5.17-11.52,11.52v20.08c0,6.35,5.17,11.52,11.52,11.52h20.08c6.35,0,11.52-5.17,11.52-11.52v-20.08c0-6.35-5.17-11.52-11.52-11.52h-20.08Z"/>
          <path d="M234.89,262.51h-20.08c-11.07,0-20.08,9.01-20.08,20.08v20.08c0,11.07,9.01,20.08,20.08,20.08h20.08c11.07,0,20.08-9.01,20.08-20.08v-20.08c0-11.07-9.01-20.08-20.08-20.08h0ZM214.81,307.68c-2.77,0-5.02-2.25-5.02-5.02v-20.08c0-2.77,2.25-5.02,5.02-5.02h20.08c2.77,0,5.02,2.25,5.02,5.02v20.08c0,2.77-2.25,5.02-5.02,5.02h-20.08Z"/>
        </g>
        <g>
          <path class="cls-1" d="M290.11,269.01h20.08c7.49,0,13.58,6.08,13.58,13.58v20.08c0,7.49-6.08,13.58-13.58,13.58h-20.08c-7.49,0-13.58-6.08-13.58-13.58v-20.08c0-7.49,6.08-13.58,13.58-13.58Z"/>
          <path d="M310.19,275.51c3.9,0,7.08,3.18,7.08,7.08v20.08c0,3.9-3.18,7.08-7.08,7.08h-20.08c-3.9,0-7.08-3.17-7.08-7.08v-20.08c0-3.9,3.18-7.08,7.08-7.08h20.08M310.19,262.51h-20.08c-11.07,0-20.08,9.01-20.08,20.08v20.08c0,11.07,9.01,20.08,20.08,20.08h20.08c11.07,0,20.08-9.01,20.08-20.08v-20.08c0-11.07-9.01-20.08-20.08-20.08h0Z"/>
        </g>
        <g>
          <path class="cls-1" d="M365.4,316.24c-7.49,0-13.58-6.09-13.58-13.58v-20.08c0-7.49,6.09-13.58,13.58-13.58h20.08c7.49,0,13.58,6.09,13.58,13.58v20.08c0,7.49-6.09,13.58-13.58,13.58h-20.08ZM365.4,271.07c-6.35,0-11.52,5.17-11.52,11.52v20.08c0,6.35,5.17,11.52,11.52,11.52h20.08c6.35,0,11.52-5.17,11.52-11.52v-20.08c0-6.35-5.17-11.52-11.52-11.52h-20.08Z"/>
          <path d="M385.48,262.51h-20.08c-11.07,0-20.08,9.01-20.08,20.08v20.08c0,11.07,9.01,20.08,20.08,20.08h20.08c11.07,0,20.08-9.01,20.08-20.08v-20.08c0-11.07-9.01-20.08-20.08-20.08h0ZM365.4,307.68c-2.77,0-5.02-2.25-5.02-5.02v-20.08c0-2.77,2.25-5.02,5.02-5.02h20.08c2.77,0,5.02,2.25,5.02,5.02v20.08c0,2.77-2.25,5.02-5.02,5.02h-20.08Z"/>
        </g>
        <g>
          <path class="cls-1" d="M440.95,399.07c-7.63,0-13.83-6.2-13.83-13.83v-102.4c0-7.63,6.2-13.83,13.83-13.83h19.58c7.63,0,13.83,6.2,13.83,13.83v102.4c0,7.63-6.2,13.83-13.83,13.83h-19.58ZM440.95,271.07c-6.49,0-11.77,5.28-11.77,11.77v102.4c0,6.49,5.28,11.77,11.77,11.77h19.58c6.49,0,11.77-5.28,11.77-11.77v-102.4c0-6.49-5.28-11.77-11.77-11.77h-19.58Z"/>
          <path d="M460.52,262.51h-19.58c-11.21,0-20.33,9.12-20.33,20.33v102.4c0,11.21,9.12,20.33,20.33,20.33h19.58c11.21,0,20.33-9.12,20.33-20.33v-102.4c0-11.21-9.12-20.33-20.33-20.33h0ZM440.95,390.51c-2.91,0-5.27-2.36-5.27-5.27v-102.4c0-2.91,2.36-5.27,5.27-5.27h19.58c2.91,0,5.27,2.36,5.27,5.27v102.4c0,2.91-2.36,5.27-5.27,5.27h-19.58Z"/>
        </g>
        <g>
          <path class="cls-1" d="M64.23,399.07c-7.49,0-13.58-6.09-13.58-13.58v-20.08c0-7.49,6.09-13.58,13.58-13.58h20.08c7.49,0,13.58,6.09,13.58,13.58v20.08c0,7.49-6.09,13.58-13.58,13.58h-20.08ZM64.23,353.89c-6.35,0-11.52,5.17-11.52,11.52v20.08c0,6.35,5.17,11.52,11.52,11.52h20.08c6.35,0,11.52-5.17,11.52-11.52v-20.08c0-6.35-5.17-11.52-11.52-11.52h-20.08Z"/>
          <path d="M84.3,345.33h-20.08c-11.07,0-20.08,9.01-20.08,20.08v20.08c0,11.07,9.01,20.08,20.08,20.08h20.08c11.07,0,20.08-9.01,20.08-20.08v-20.08c0-11.07-9.01-20.08-20.08-20.08h0ZM64.23,390.51c-2.77,0-5.02-2.25-5.02-5.02v-20.08c0-2.77,2.25-5.02,5.02-5.02h20.08c2.77,0,5.02,2.25,5.02,5.02v20.08c0,2.77-2.25,5.02-5.02,5.02h-20.08Z"/>
        </g>
        <g>
          <path class="cls-1" d="M139.52,399.07c-7.49,0-13.58-6.09-13.58-13.58v-20.08c0-7.49,6.09-13.58,13.58-13.58h20.08c7.49,0,13.58,6.09,13.58,13.58v20.08c0,7.49-6.09,13.58-13.58,13.58h-20.08ZM139.52,353.89c-6.35,0-11.52,5.17-11.52,11.52v20.08c0,6.35,5.17,11.52,11.52,11.52h20.08c6.35,0,11.52-5.17,11.52-11.52v-20.08c0-6.35-5.17-11.52-11.52-11.52h-20.08Z"/>
          <path d="M159.6,345.33h-20.08c-11.07,0-20.08,9.01-20.08,20.08v20.08c0,11.07,9.01,20.08,20.08,20.08h20.08c11.07,0,20.08-9.01,20.08-20.08v-20.08c0-11.07-9.01-20.08-20.08-20.08h0ZM139.52,390.51c-2.77,0-5.02-2.25-5.02-5.02v-20.08c0-2.77,2.25-5.02,5.02-5.02h20.08c2.77,0,5.02,2.25,5.02,5.02v20.08c0,2.77-2.25,5.02-5.02,5.02h-20.08Z"/>
        </g>
        <g>
          <path class="cls-1" d="M214.81,399.07c-7.49,0-13.58-6.09-13.58-13.58v-20.08c0-7.49,6.09-13.58,13.58-13.58h20.08c7.49,0,13.58,6.09,13.58,13.58v20.08c0,7.49-6.09,13.58-13.58,13.58h-20.08ZM214.81,353.89c-6.35,0-11.52,5.17-11.52,11.52v20.08c0,6.35,5.17,11.52,11.52,11.52h20.08c6.35,0,11.52-5.17,11.52-11.52v-20.08c0-6.35-5.17-11.52-11.52-11.52h-20.08Z"/>
          <path d="M234.89,345.33h-20.08c-11.07,0-20.08,9.01-20.08,20.08v20.08c0,11.07,9.01,20.08,20.08,20.08h20.08c11.07,0,20.08-9.01,20.08-20.08v-20.08c0-11.07-9.01-20.08-20.08-20.08h0ZM214.81,390.51c-2.77,0-5.02-2.25-5.02-5.02v-20.08c0-2.77,2.25-5.02,5.02-5.02h20.08c2.77,0,5.02,2.25,5.02,5.02v20.08c0,2.77-2.25,5.02-5.02,5.02h-20.08Z"/>
        </g>
        <g>
          <path class="cls-1" d="M290.11,399.07c-7.49,0-13.58-6.09-13.58-13.58v-20.08c0-7.49,6.09-13.58,13.58-13.58h20.08c7.49,0,13.58,6.09,13.58,13.58v20.08c0,7.49-6.09,13.58-13.58,13.58h-20.08ZM290.11,353.89c-6.35,0-11.52,5.17-11.52,11.52v20.08c0,6.35,5.17,11.52,11.52,11.52h20.08c6.35,0,11.52-5.17,11.52-11.52v-20.08c0-6.35-5.17-11.52-11.52-11.52h-20.08Z"/>
          <path d="M310.19,345.33h-20.08c-11.07,0-20.08,9.01-20.08,20.08v20.08c0,11.07,9.01,20.08,20.08,20.08h20.08c11.07,0,20.08-9.01,20.08-20.08v-20.08c0-11.07-9.01-20.08-20.08-20.08h0ZM290.11,390.51c-2.77,0-5.02-2.25-5.02-5.02v-20.08c0-2.77,2.25-5.02,5.02-5.02h20.08c2.77,0,5.02,2.25,5.02,5.02v20.08c0,2.77-2.25,5.02-5.02,5.02h-20.08Z"/>
        </g>
        <g>
          <path class="cls-1" d="M365.4,399.07c-7.49,0-13.58-6.09-13.58-13.58v-20.08c0-7.49,6.09-13.58,13.58-13.58h20.08c7.49,0,13.58,6.09,13.58,13.58v20.08c0,7.49-6.09,13.58-13.58,13.58h-20.08ZM365.4,353.89c-6.35,0-11.52,5.17-11.52,11.52v20.08c0,6.35,5.17,11.52,11.52,11.52h20.08c6.35,0,11.52-5.17,11.52-11.52v-20.08c0-6.35-5.17-11.52-11.52-11.52h-20.08Z"/>
          <path d="M385.48,345.33h-20.08c-11.07,0-20.08,9.01-20.08,20.08v20.08c0,11.07,9.01,20.08,20.08,20.08h20.08c11.07,0,20.08-9.01,20.08-20.08v-20.08c0-11.07-9.01-20.08-20.08-20.08h0ZM365.4,390.51c-2.77,0-5.02-2.25-5.02-5.02v-20.08c0-2.77,2.25-5.02,5.02-5.02h20.08c2.77,0,5.02,2.25,5.02,5.02v20.08c0,2.77-2.25,5.02-5.02,5.02h-20.08Z"/>
        </g>
        <g>
          <path class="cls-1" d="M64.23,481.89c-7.49,0-13.58-6.09-13.58-13.58v-20.08c0-7.49,6.09-13.58,13.58-13.58h20.08c7.49,0,13.58,6.09,13.58,13.58v20.08c0,7.49-6.09,13.58-13.58,13.58h-20.08ZM64.23,436.71c-6.35,0-11.52,5.17-11.52,11.52v20.08c0,6.35,5.17,11.52,11.52,11.52h20.08c6.35,0,11.52-5.17,11.52-11.52v-20.08c0-6.35-5.17-11.52-11.52-11.52h-20.08Z"/>
          <path d="M84.3,428.15h-20.08c-11.07,0-20.08,9.01-20.08,20.08v20.08c0,11.07,9.01,20.08,20.08,20.08h20.08c11.07,0,20.08-9.01,20.08-20.08v-20.08c0-11.07-9.01-20.08-20.08-20.08h0ZM64.23,473.33c-2.77,0-5.02-2.25-5.02-5.02v-20.08c0-2.77,2.25-5.02,5.02-5.02h20.08c2.77,0,5.02,2.25,5.02,5.02v20.08c0,2.77-2.25,5.02-5.02,5.02h-20.08Z"/>
        </g>
        <g>
          <path class="cls-1" d="M139.77,434.65h245.46c7.63,0,13.83,6.2,13.83,13.83v19.58c0,7.63-6.2,13.83-13.83,13.83h-245.46c-7.63,0-13.83-6.2-13.83-13.83v-19.58c0-7.63,6.2-13.83,13.83-13.83Z"/>
          <path d="M385.23,441.15c4.04,0,7.33,3.29,7.33,7.33v19.58c0,4.04-3.29,7.33-7.33,7.33h-245.46c-4.04,0-7.33-3.29-7.33-7.33v-19.58c0-4.04,3.29-7.33,7.33-7.33h245.46M385.23,428.15h-245.46c-11.21,0-20.33,9.12-20.33,20.33v19.58c0,11.21,9.12,20.33,20.33,20.33h245.46c11.21,0,20.33-9.12,20.33-20.33v-19.58c0-11.21-9.12-20.33-20.33-20.33h0Z"/>
        </g>
        <g>
          <path class="cls-1" d="M440.7,481.89c-7.49,0-13.58-6.09-13.58-13.58v-20.08c0-7.49,6.09-13.58,13.58-13.58h20.08c7.49,0,13.58,6.09,13.58,13.58v20.08c0,7.49-6.09,13.58-13.58,13.58h-20.08ZM440.7,436.71c-6.35,0-11.52,5.17-11.52,11.52v20.08c0,6.35,5.17,11.52,11.52,11.52h20.08c6.35,0,11.52-5.17,11.52-11.52v-20.08c0-6.35-5.17-11.52-11.52-11.52h-20.08Z"/>
          <path d="M460.77,428.15h-20.08c-11.07,0-20.08,9.01-20.08,20.08v20.08c0,11.07,9.01,20.08,20.08,20.08h20.08c11.07,0,20.08-9.01,20.08-20.08v-20.08c0-11.07-9.01-20.08-20.08-20.08h0ZM440.7,473.33c-2.77,0-5.02-2.25-5.02-5.02v-20.08c0-2.77,2.25-5.02,5.02-5.02h20.08c2.77,0,5.02,2.25,5.02,5.02v20.08c0,2.77-2.25,5.02-5.02,5.02h-20.08Z"/>
        </g>
      </g>
    </g>
  </g>
</svg>