<?xml version="1.0" encoding="UTF-8"?>
<svg id="Layer_2" data-name="Layer 2" xmlns="http://www.w3.org/2000/svg" viewBox="0 0 525 464.76">
  <defs>
    <style>
      .cls-1 {
        fill: #00b2ca;
      }
    </style>
  </defs>
  <g id="Bottom_navigation" data-name="Bottom navigation">
    <g id="Resolution">
      <g>
        <g>
          <path class="cls-1" d="M142.03,451.76c-.57,0-1.03-.46-1.03-1.03,0-25.48,20.73-46.21,46.21-46.21h2.1c2.8,0,5.28-1.79,6.17-4.44l10.04-30.12c.66-1.98.33-4.16-.89-5.86-1.22-1.69-3.18-2.7-5.27-2.7H68.94c-30.85,0-55.94-25.1-55.94-55.94V68.94c0-30.85,25.1-55.94,55.94-55.94h387.11c30.85,0,55.94,25.1,55.94,55.94v236.52c0,30.85-25.1,55.94-55.94,55.94h-130.4c-2.09,0-4.05,1-5.27,2.7-1.22,1.7-1.55,3.87-.89,5.86l10.04,30.12c.88,2.65,3.37,4.44,6.17,4.44h2.1c25.48,0,46.21,20.73,46.21,46.21,0,.57-.46,1.03-1.03,1.03h-240.94ZM187.21,406.59c-20.89,0-39.09,14.85-43.26,35.32-.39,1.91.1,3.9,1.33,5.41,1.23,1.51,3.08,2.39,5.03,2.39h224.37c1.95,0,3.8-.88,5.03-2.39s1.72-3.5,1.33-5.41c-4.17-20.47-22.37-35.32-43.26-35.32h-150.59ZM68.94,15.06c-29.71,0-53.89,24.17-53.89,53.89v236.52c0,29.71,24.17,53.88,53.89,53.88h387.11c29.71,0,53.89-24.17,53.89-53.88V68.94c0-29.71-24.17-53.89-53.89-53.89H68.94Z"/>
          <path d="M312.82,365.85c-.33,2.04-.17,4.16.5,6.17l9.36,28.07h-120.35l9.36-28.07c.67-2.01.83-4.13.5-6.17h100.63M456.06,6.5H68.94C34.51,6.5,6.5,34.51,6.5,68.94v236.52c0,34.43,28.01,62.44,62.44,62.44h130.4l-10.04,30.12h-2.1c-29.06,0-52.71,23.64-52.71,52.71,0,4.16,3.37,7.53,7.53,7.53h240.94c4.16,0,7.53-3.37,7.53-7.53,0-29.06-23.64-52.71-52.71-52.71h-2.1l-10.04-30.12h130.4c34.43,0,62.44-28.01,62.44-62.44V68.94c0-34.43-28.01-62.44-62.44-62.44h0ZM68.94,352.85c-26.13,0-47.39-21.26-47.39-47.39V68.94c0-26.13,21.26-47.39,47.39-47.39h387.11c26.13,0,47.39,21.26,47.39,47.39v236.52c0,26.13-21.26,47.39-47.39,47.39H68.94ZM150.31,443.21c3.5-17.16,18.71-30.12,36.89-30.12h150.59c18.18,0,33.39,12.95,36.89,30.12h-224.37Z"/>
        </g>
        <g>
          <path class="cls-1" d="M78.58,331.29c-19.55,0-35.46-15.91-35.46-35.46V78.58c0-19.55,15.91-35.46,35.46-35.46h367.84c19.55,0,35.46,15.91,35.46,35.46v217.25c0,19.55-15.91,35.46-35.46,35.46H78.58ZM78.58,45.18c-18.42,0-33.41,14.99-33.41,33.41v217.25c0,18.42,14.99,33.41,33.41,33.41h367.84c18.42,0,33.41-14.99,33.41-33.41V78.58c0-18.42-14.99-33.41-33.41-33.41H78.58Z"/>
          <path d="M446.42,36.62H78.58c-23.14,0-41.96,18.82-41.96,41.96v217.25c0,23.14,18.82,41.96,41.96,41.96h367.84c23.14,0,41.96-18.82,41.96-41.96V78.58c0-23.14-18.82-41.96-41.96-41.96h0ZM78.58,322.74c-14.84,0-26.9-12.07-26.9-26.91V78.58c0-14.84,12.07-26.91,26.9-26.91h367.84c14.83,0,26.91,12.07,26.91,26.91v217.25c0,14.83-12.07,26.91-26.91,26.91H78.58Z"/>
        </g>
        <g>
          <path class="cls-1" d="M89.32,286.12c-.57,0-1.03-.46-1.03-1.03V89.32c0-.57.46-1.03,1.03-1.03h195.76c.57,0,1.03.46,1.03,1.03v195.76c0,.57-.46,1.03-1.03,1.03H89.32ZM96.85,150.59c-3.59,0-6.5,2.91-6.5,6.5v120.47c0,3.59,2.91,6.5,6.5,6.5h120.47c3.59,0,6.5-2.91,6.5-6.5v-120.47c0-3.59-2.91-6.5-6.5-6.5h-120.47Z"/>
          <path d="M279.62,94.79v184.82h-49.46c.11-.67.16-1.36.16-2.06v-120.47c0-7.18-5.82-13-13-13h-120.47c-.7,0-1.39.06-2.06.16v-49.46h184.82M285.09,81.79H89.32c-4.16,0-7.53,3.37-7.53,7.53v195.76c0,4.16,3.37,7.53,7.53,7.53h195.76c4.16,0,7.53-3.37,7.53-7.53V89.32c0-4.16-3.37-7.53-7.53-7.53h0ZM96.85,277.56v-120.47h120.47v120.47h-120.47Z"/>
        </g>
        <g>
          <path class="cls-1" d="M149.56,225.88c-.19,0-.48-.05-.73-.3-.4-.4-.4-1.05,0-1.45l32.32-32.32c1.86-1.86,2.42-4.65,1.41-7.08s-3.38-4.01-6.01-4.01h-4.41c-.57,0-1.03-.46-1.03-1.03s.46-1.03,1.03-1.03h18.51c1.42,0,3.49,0,4.17,0,.02,0,.04,0,.06,0,.65.1.88.66.88,1.01v22.59c0,.57-.46,1.03-1.03,1.03s-1.03-.46-1.03-1.03v-4.41c0-2.63-1.58-5-4.01-6-.8-.33-1.65-.5-2.49-.5-1.69,0-3.35.66-4.6,1.9l-32.32,32.32c-.25.25-.53.3-.73.3Z"/>
          <path d="M190.51,172.14c-2.9,0-7.52,0-14.97,0-1.07,0-2.2,0-3.39,0-4.16,0-7.53,3.37-7.53,7.53s3.37,7.53,7.53,7.53h4.41l-32.32,32.32c-2.94,2.94-2.94,7.71,0,10.65,1.47,1.47,3.4,2.21,5.32,2.21s3.85-.73,5.32-2.21l32.32-32.32v4.41c0,4.16,3.37,7.53,7.53,7.53s7.53-3.37,7.53-7.53v-22.58c0-3.63-2.62-6.88-6.43-7.45-.54-.08.12-.09-5.32-.09h0Z"/>
        </g>
        <g>
          <path class="cls-1" d="M315.21,173.18c-.19,0-.48-.05-.73-.3-.25-.25-.3-.53-.3-.73s.05-.48.3-.73l74.54-74.54c.25-.25.53-.3.73-.3s.48.05.73.3c.25.25.3.53.3.73s-.05.48-.3.73l-74.54,74.54c-.25.25-.53.3-.73.3Z"/>
          <path d="M389.74,90.08c-1.93,0-3.85.74-5.32,2.21l-74.54,74.54c-2.94,2.94-2.94,7.71,0,10.65,1.47,1.47,3.4,2.21,5.32,2.21s3.85-.74,5.32-2.21l74.54-74.54c2.94-2.94,2.94-7.71,0-10.65-1.47-1.47-3.4-2.21-5.32-2.21h0Z"/>
        </g>
        <g>
          <path class="cls-1" d="M315.21,130.58c-.19,0-.48-.05-.73-.3-.25-.25-.3-.53-.3-.73s.05-.48.3-.73l31.94-31.95c.25-.25.53-.3.73-.3s.48.05.73.3c.25.25.3.53.3.73s-.05.48-.3.73l-31.94,31.95c-.25.25-.53.3-.73.3Z"/>
          <path d="M347.15,90.08c-1.93,0-3.85.74-5.32,2.21l-31.94,31.94c-2.94,2.94-2.94,7.71,0,10.65,1.47,1.47,3.4,2.21,5.32,2.21s3.85-.73,5.32-2.21l31.94-31.94c2.94-2.94,2.94-7.71,0-10.65-1.47-1.47-3.4-2.21-5.32-2.21h0Z"/>
        </g>
        <g>
          <path class="cls-1" d="M357.8,173.18c-.19,0-.48-.05-.73-.3-.25-.25-.3-.53-.3-.73s.05-.48.3-.73l31.94-31.95c.25-.25.53-.3.73-.3s.48.05.73.3c.25.25.3.53.3.73s-.05.48-.3.73l-31.94,31.95c-.25.25-.53.3-.73.3Z"/>
          <path d="M389.74,132.67c-1.93,0-3.85.73-5.32,2.21l-31.94,31.94c-2.94,2.94-2.94,7.71,0,10.65,1.47,1.47,3.4,2.21,5.32,2.21s3.85-.74,5.32-2.21l31.94-31.94c2.94-2.94,2.94-7.71,0-10.65-1.47-1.47-3.4-2.21-5.32-2.21h0Z"/>
        </g>
      </g>
    </g>
  </g>
</svg>