<?xml version="1.0" encoding="UTF-8"?>
<svg id="Layer_2" data-name="Layer 2" xmlns="http://www.w3.org/2000/svg" viewBox="0 0 525 457.24">
  <defs>
    <style>
      .cls-1 {
        fill: #00b2ca;
      }
    </style>
  </defs>
  <g id="Bottom_navigation" data-name="Bottom navigation">
    <g id="Version">
      <g>
        <g>
          <path class="cls-1" d="M61.41,444.24c-26.7,0-48.41-21.72-48.41-48.42V99.06c0-26.7,21.72-48.42,48.41-48.42h35.44c3.59,0,6.5-2.91,6.5-6.5v-7.53c0-13.02,10.59-23.62,23.62-23.62s23.62,10.59,23.62,23.62v7.53c0,3.59,2.91,6.5,6.5,6.5h210.82c3.59,0,6.5-2.91,6.5-6.5v-7.53c0-13.02,10.59-23.62,23.62-23.62s23.62,10.59,23.62,23.62v7.53c0,3.59,2.91,6.5,6.5,6.5h35.44c26.7,0,48.41,21.72,48.41,48.42v296.76c0,26.7-21.72,48.42-48.41,48.42H61.41ZM21.56,143.06c-3.59,0-6.5,2.91-6.5,6.5v246.26c0,25.56,20.79,46.36,46.36,46.36h402.17c25.56,0,46.36-20.79,46.36-46.36v-246.26c0-3.59-2.91-6.5-6.5-6.5H21.56ZM61.41,52.71c-25.56,0-46.36,20.8-46.36,46.36v35.44c0,3.59,2.91,6.5,6.5,6.5h481.88c3.59,0,6.5-2.91,6.5-6.5v-35.44c0-25.56-20.8-46.36-46.36-46.36h-35.44c-3.59,0-6.5,2.91-6.5,6.5v37.65c0,3.59,2.91,6.5,6.5,6.5h7.53c.57,0,1.03.46,1.03,1.03s-.46,1.03-1.03,1.03h-75.29c-.57,0-1.03-.46-1.03-1.03s.46-1.03,1.03-1.03h7.53c3.59,0,6.5-2.91,6.5-6.5v-37.65c0-3.59-2.91-6.5-6.5-6.5h-210.82c-3.59,0-6.5,2.91-6.5,6.5v37.65c0,3.59,2.91,6.5,6.5,6.5h7.53c.57,0,1.03.46,1.03,1.03s-.46,1.03-1.03,1.03h-75.29c-.57,0-1.03-.46-1.03-1.03s.46-1.03,1.03-1.03h7.53c3.59,0,6.5-2.91,6.5-6.5v-37.65c0-3.59-2.91-6.5-6.5-6.5h-35.44ZM398.03,15.06c-11.89,0-21.56,9.67-21.56,21.56v60.24c0,3.59,2.91,6.5,6.5,6.5h30.12c3.59,0,6.5-2.91,6.5-6.5v-60.24c0-11.89-9.67-21.56-21.56-21.56ZM126.97,15.06c-11.89,0-21.56,9.67-21.56,21.56v60.24c0,3.59,2.91,6.5,6.5,6.5h30.12c3.59,0,6.5-2.91,6.5-6.5v-60.24c0-11.89-9.67-21.56-21.56-21.56Z"/>
          <path d="M398.03,6.5c-16.61,0-30.12,13.51-30.12,30.12v7.53h-210.82v-7.53c0-16.61-13.51-30.12-30.12-30.12s-30.12,13.51-30.12,30.12v7.53h-35.44c-30.28,0-54.91,24.63-54.91,54.91v296.76c0,30.28,24.63,54.91,54.91,54.91h402.17c30.28,0,54.91-24.63,54.91-54.91V99.06c0-30.28-24.63-54.91-54.91-54.91h-35.44v-7.53c0-16.61-13.51-30.12-30.12-30.12h0ZM382.97,96.85v-60.24c0-8.3,6.76-15.06,15.06-15.06s15.06,6.76,15.06,15.06v60.24h-30.12ZM111.91,96.85v-60.24c0-8.3,6.76-15.06,15.06-15.06s15.06,6.76,15.06,15.06v60.24h-30.12ZM428.15,96.85v-37.65h35.44c21.98,0,39.86,17.88,39.86,39.86v35.44H21.56v-35.44c0-21.98,17.88-39.86,39.86-39.86h35.44v37.65h-7.53c-4.16,0-7.53,3.37-7.53,7.53s3.37,7.53,7.53,7.53h75.29c4.16,0,7.53-3.37,7.53-7.53s-3.37-7.53-7.53-7.53h-7.53v-37.65h210.82v37.65h-7.53c-4.16,0-7.53,3.37-7.53,7.53s3.37,7.53,7.53,7.53h75.29c4.16,0,7.53-3.37,7.53-7.53s-3.37-7.53-7.53-7.53h-7.53ZM61.41,435.68c-21.98,0-39.86-17.88-39.86-39.86v-246.26h481.88v246.26c0,21.98-17.88,39.86-39.86,39.86H61.41Z"/>
        </g>
        <g>
          <path class="cls-1" d="M66.74,399.06c-.57,0-1.03-.46-1.03-1.03v-210.82c0-.57.46-1.03,1.03-1.03h286.12c.57,0,1.03.46,1.03,1.03v210.82c0,.57-.46,1.03-1.03,1.03H66.74ZM345.32,271.95c-.3,0-.61.02-.91.06-9.73,1.37-29.44,5-52.15,13.82-29.17,11.33-70.24,34.1-100.2,78.17-1.69,2.48-1.46,5.8.56,8.02,5.96,6.57,11.32,13.89,15.94,21.77,1.17,1.99,3.3,3.21,5.61,3.21h131.15c3.59,0,6.5-2.91,6.5-6.5v-112.05c0-1.88-.82-3.67-2.24-4.91-1.19-1.03-2.71-1.59-4.26-1.59ZM84.76,330.24c-3.75,0-7.43.12-10.94.36-3.41.23-6.06,3.07-6.06,6.49v53.42c0,3.59,2.91,6.5,6.5,6.5h122.11c2.41,0,4.62-1.33,5.75-3.46,1.13-2.13.98-4.71-.38-6.7-18.58-27.24-45.54-44.94-80.12-52.63-11.85-2.63-24.25-3.97-36.86-3.97ZM74.26,188.24c-3.59,0-6.5,2.91-6.5,6.5v53.05c0,3.41,2.63,6.23,6.03,6.48,8.46.62,25.79,2.58,46.87,8.76,26.51,7.77,64.98,24.2,97.72,58.36,1.27,1.33,2.98,2,4.69,2,1.49,0,2.98-.51,4.2-1.54,32.65-27.67,75.97-46.68,118.86-52.16,3.25-.41,5.68-3.18,5.68-6.45v-68.5c0-3.59-2.91-6.5-6.5-6.5H74.26Z"/>
          <path d="M72.21,260.62c.37.06.74.1,1.11.13,8.2.6,25.01,2.5,45.52,8.51,25.75,7.55,63.11,23.5,94.86,56.62.39.41.8.78,1.23,1.13-9.85,9.42-19.34,20.32-27.95,32.92-17.27-15.7-38.67-26.45-63.94-32.06-12.31-2.74-25.19-4.12-38.27-4.12-3.89,0-7.72.13-11.38.38-.4.03-.79.07-1.17.13v-63.63M352.85,179.68H66.74c-4.16,0-7.53,3.37-7.53,7.53v210.82c0,4.16,3.37,7.53,7.53,7.53h286.12c4.16,0,7.53-3.37,7.53-7.53v-210.82c0-4.16-3.37-7.53-7.53-7.53h0ZM223.08,316.88c-33.55-35-72.89-51.98-100.59-60.09-21.29-6.24-38.8-8.31-48.23-9v-53.05h271.06v68.5c-41.32,5.28-86.82,23.63-122.24,53.65h0ZM214.18,390.5c-4.88-8.32-10.47-15.95-16.74-22.85,28.92-42.52,68.54-64.63,97.18-75.76,21.77-8.46,40.57-12.01,50.7-13.44v112.05h-131.15ZM74.26,390.5v-53.41c2.76-.19,6.32-.35,10.5-.35,9.37,0,21.85.79,35.45,3.81,33.88,7.53,59.05,24.86,76.17,49.95h-122.11Z"/>
        </g>
        <g>
          <path class="cls-1" d="M398.03,186.18h60.23c.57,0,1.03.46,1.03,1.03v45.18c0,.57-.46,1.03-1.03,1.03h-60.24c-.57,0-1.03-.46-1.03-1.03v-45.18c0-.57.46-1.03,1.03-1.03Z"/>
          <path d="M452.79,192.68v34.24h-49.29v-34.24h49.29M458.26,179.68h-60.24c-4.16,0-7.53,3.37-7.53,7.53v45.18c0,4.16,3.37,7.53,7.53,7.53h60.24c4.16,0,7.53-3.37,7.53-7.53v-45.18c0-4.16-3.37-7.53-7.53-7.53h0Z"/>
        </g>
        <g>
          <rect class="cls-1" x="397" y="269" width="62.29" height="47.24" rx="1.03" ry="1.03"/>
          <path d="M452.79,275.5v34.24h-49.29v-34.24h49.29M458.26,262.5h-60.24c-4.16,0-7.53,3.37-7.53,7.53v45.18c0,4.16,3.37,7.53,7.53,7.53h60.24c4.16,0,7.53-3.37,7.53-7.53v-45.18c0-4.16-3.37-7.53-7.53-7.53h0Z"/>
        </g>
        <g>
          <path class="cls-1" d="M398.03,351.82h60.23c.57,0,1.03.46,1.03,1.03v45.18c0,.57-.46,1.03-1.03,1.03h-60.24c-.57,0-1.03-.46-1.03-1.03v-45.18c0-.57.46-1.03,1.03-1.03Z"/>
          <path d="M452.79,358.32v34.24h-49.29v-34.24h49.29M458.26,345.32h-60.24c-4.16,0-7.53,3.37-7.53,7.53v45.18c0,4.16,3.37,7.53,7.53,7.53h60.24c4.16,0,7.53-3.37,7.53-7.53v-45.18c0-4.16-3.37-7.53-7.53-7.53h0Z"/>
        </g>
        <g>
          <path class="cls-1" d="M232.38,263.53c-13.02,0-23.62-10.59-23.62-23.62s10.59-23.62,23.62-23.62,23.62,10.59,23.62,23.62-10.59,23.62-23.62,23.62Z"/>
          <path d="M232.38,222.79c9.44,0,17.12,7.68,17.12,17.12s-7.68,17.12-17.12,17.12-17.12-7.68-17.12-17.12,7.68-17.12,17.12-17.12M232.38,209.79c-16.61,0-30.12,13.51-30.12,30.12s13.51,30.12,30.12,30.12,30.12-13.51,30.12-30.12-13.51-30.12-30.12-30.12h0Z"/>
        </g>
        <g>
          <path class="cls-1" d="M270.03,338.82c-.57,0-1.03-.46-1.03-1.03s.46-1.03,1.03-1.03h37.65c.57,0,1.03.46,1.03,1.03s-.46,1.03-1.03,1.03h-37.65Z"/>
          <path d="M307.68,330.26h-37.65c-4.16,0-7.53,3.37-7.53,7.53s3.37,7.53,7.53,7.53h37.65c4.16,0,7.53-3.37,7.53-7.53s-3.37-7.53-7.53-7.53h0Z"/>
        </g>
        <g>
          <path class="cls-1" d="M239.91,368.94c-.57,0-1.03-.46-1.03-1.03s.46-1.03,1.03-1.03h52.71c.57,0,1.03.46,1.03,1.03s-.46,1.03-1.03,1.03h-52.71Z"/>
          <path d="M292.62,360.38h-52.71c-4.16,0-7.53,3.37-7.53,7.53s3.37,7.53,7.53,7.53h52.71c4.16,0,7.53-3.37,7.53-7.53s-3.37-7.53-7.53-7.53h0Z"/>
        </g>
      </g>
    </g>
  </g>
</svg>