<?xml version="1.0" encoding="UTF-8"?>
<svg id="Layer_2" data-name="Layer 2" xmlns="http://www.w3.org/2000/svg" viewBox="0 0 376.47 518.5">
  <defs>
    <style>
      .cls-1 {
        fill: #00b2ca;
      }
    </style>
  </defs>
  <g id="Bottom_navigation" data-name="Bottom navigation">
    <g id="Mouse_DPI" data-name="Mouse DPI">
      <g>
        <g>
          <path class="cls-1" d="M126.08,309.74c-.16,0-.32-.04-.47-.12-45.6-23.57-73.93-70.08-73.93-121.38,0-75.3,61.26-136.56,136.56-136.56s136.56,61.26,136.56,136.56c0,18.42-3.6,36.28-10.71,53.11-.2.47-.63.63-.95.63-.13,0-.26-.03-.4-.08-.33-.14-.48-.38-.55-.56-.07-.18-.13-.46,0-.79,7-16.57,10.55-34.17,10.55-52.31,0-74.16-60.34-134.5-134.5-134.5S53.74,114.07,53.74,188.24c0,50.53,27.9,96.34,72.82,119.56.31.16.45.42.51.6.06.19.1.47-.07.78-.21.41-.62.56-.92.56Z"/>
          <path d="M188.24,45.18c-78.88,0-143.06,64.18-143.06,143.06,0,53.74,29.68,102.47,77.45,127.16,1.11.57,2.29.84,3.45.84,2.73,0,5.36-1.49,6.69-4.08,1.91-3.69.46-8.24-3.23-10.15-42.75-22.09-69.31-65.69-69.31-113.78,0-70.58,57.42-128,128-128s128,57.42,128,128c0,17.26-3.38,34.01-10.04,49.78-1.62,3.83.17,8.25,4,9.87.96.4,1.95.6,2.93.6,2.94,0,5.72-1.73,6.94-4.6,7.45-17.63,11.23-36.35,11.23-55.64,0-78.88-64.18-143.06-143.06-143.06h0Z"/>
        </g>
        <g>
          <path class="cls-1" d="M97.88,345.79c-.18,0-.35-.05-.51-.14-27.16-15.71-49.93-38.31-65.85-65.35-16.37-27.8-25.02-59.63-25.02-92.06C6.5,88.03,88.03,6.5,188.24,6.5s181.74,81.53,181.74,181.74c0,.57-.46,1.03-1.03,1.03s-1.03-.46-1.03-1.03c0-99.07-80.6-179.68-179.68-179.68S8.56,89.16,8.56,188.24c0,63.95,34.42,123.58,89.84,155.64.31.18.43.44.48.62.05.19.07.48-.1.78-.28.48-.76.52-.9.52Z"/>
          <path d="M188.24,0C84.44,0,0,84.44,0,188.24c0,69.51,37.73,130.43,94.11,163.04,1.19.69,2.48,1.01,3.76,1.01,2.6,0,5.13-1.35,6.52-3.76,2.08-3.6.85-8.21-2.75-10.29C48.24,307.35,15.06,249.87,15.06,188.24,15.06,92.75,92.75,15.06,188.24,15.06s173.18,77.69,173.18,173.18c0,4.16,3.37,7.53,7.53,7.53s7.53-3.37,7.53-7.53C376.47,84.44,292.03,0,188.24,0h0Z"/>
        </g>
        <g>
          <path class="cls-1" d="M217.5,505.5c-12.55,0-22.76-10.21-22.76-22.76v-36.05c0-1.37-.44-2.71-1.24-3.82l-50.78-69.82c-5.11-7.02-5.62-16.43-1.31-23.97l22.36-39.14c.56-.98.86-2.09.86-3.22v-25.33c0-2.82-1.82-5.32-4.51-6.19-37.84-12.19-63.26-47.14-63.26-86.96,0-50.39,40.99-91.38,91.38-91.38s91.38,40.99,91.38,91.38c0,31.58-16.69,61.43-43.57,77.92-2.27,1.4-3.46,4.04-3,6.67s2.48,4.71,5.1,5.24c5.07,1.04,9.56,3.64,12.98,7.51,1.23,1.4,3.01,2.2,4.88,2.2s3.64-.8,4.87-2.2c4.49-5.09,10.95-8.02,17.71-8.02s13.21,2.92,17.71,8.01c1.23,1.4,3.01,2.2,4.87,2.2h0c1.86,0,3.63-.8,4.87-2.19.42-.48.87-.95,1.34-1.39,6.22-6,13.26-6.65,16-6.65.49,0,.82.02.95.03.09,0,.2.01.31.02h0c12.55.45,22.76,11.28,22.76,24.14v112.4c0,14.74-10.48,27.58-24.92,30.52-3.03.62-5.2,3.28-5.2,6.37v31.73c0,12.55-10.21,22.76-22.76,22.76h-77ZM158.12,330.56c-2.29,0-4.47,1.21-5.64,3.28l-9.29,16.26c-3.91,6.84-3.44,15.37,1.19,21.74l52.22,71.8c.13.18.2.39.2.6v38.5c0,11.42,9.29,20.71,20.71,20.71h77c11.42,0,20.71-9.29,20.71-20.71v-38.5c0-.57.46-1.03,1.03-1.03,16.04,0,29.09-13.05,29.09-29.09v-30.12c0-3.59-2.91-6.5-6.5-6.5h-46.47c-2.75,0-5.21,1.73-6.13,4.33-2.28,6.42-8.37,10.73-15.17,10.73-8.87,0-16.09-7.22-16.09-16.09s7.22-16.09,16.09-16.09c6.8,0,12.89,4.31,15.17,10.73.92,2.59,3.37,4.33,6.13,4.33h46.47c3.59,0,6.5-2.91,6.5-6.5v-67.22c0-11.77-9.32-21.68-20.77-22.09-.26,0-.55-.02-.83-.02-11.86,0-21.51,9.67-21.51,21.56v22.59c0,.57-.46,1.03-1.03,1.03s-1.03-.46-1.03-1.03v-22.59c0-11.89-9.67-21.56-21.56-21.56s-21.56,9.67-21.56,21.56v22.59c0,.57-.46,1.03-1.03,1.03s-1.03-.46-1.03-1.03v-22.59c0-11.89-9.67-21.56-21.56-21.56s-21.56,9.67-21.56,21.56v22.59c0,.57-.46,1.03-1.03,1.03s-1.03-.46-1.03-1.03v-119.93c0-11.77-9.32-21.68-20.77-22.09-.26,0-.53-.01-.8-.01-11.88,0-21.55,9.67-21.55,21.56-.06,20.42-.04,48.19-.02,77.59.02,22.11.04,44.86.02,65.46,0,.57-.46,1.04-1.03,1.04s-1.03-.46-1.03-1.03v-9.3c0-2.95-1.98-5.53-4.83-6.28-.55-.15-1.12-.22-1.67-.22ZM188.24,98.91c-49.25,0-89.32,40.07-89.32,89.32,0,36.56,22.85,70.01,56.85,83.24.76.3,1.56.44,2.36.44,1.29,0,2.57-.38,3.67-1.13,1.77-1.21,2.83-3.22,2.83-5.37v-33.93c0-2.12-1.04-4.11-2.78-5.33-12.4-8.66-19.81-22.84-19.81-37.92,0-25.48,20.73-46.21,46.21-46.21s46.21,20.73,46.21,46.21c0,15.08-7.41,29.26-19.81,37.92-1.74,1.22-2.78,3.21-2.78,5.33v33.93c0,2.15,1.06,4.15,2.83,5.37,1.1.75,2.38,1.13,3.67,1.13.8,0,1.59-.15,2.36-.44,34-13.23,56.85-46.68,56.85-83.24,0-49.25-40.07-89.32-89.32-89.32Z"/>
          <path d="M188.24,148.53c21.89,0,39.71,17.81,39.71,39.71,0,10.6-4.26,20.68-11.65,28.08v-12.48c0-15.23-12.13-28.05-27.02-28.58-.35-.01-.7-.02-1.05-.02-15.46,0-28.05,12.59-28.05,28.02-.01,4.07-.02,8.43-.03,13.03-7.37-7.39-11.62-17.46-11.62-28.05,0-21.89,17.81-39.71,39.71-39.71M216.29,278.25c.27.04.54.08.81.1-.27.2-.54.4-.81.6v-.71M271.06,366.88c4.05,0,7.68,2.57,9.04,6.4.41,1.15.97,2.22,1.65,3.18-.68.96-1.24,2.03-1.65,3.18-1.36,3.83-4.99,6.4-9.04,6.4-5.29,0-9.59-4.3-9.59-9.59s4.3-9.59,9.59-9.59M188.24,90.35c-53.97,0-97.88,43.91-97.88,97.88,0,42.72,27.59,80.2,67.76,93.15v25.33l-22.36,39.14c-5.57,9.76-4.91,21.93,1.7,31.02l50.78,69.82v36.05c0,16.14,13.13,29.26,29.26,29.26h77c16.14,0,29.26-13.13,29.26-29.26v-31.73c17.16-3.5,30.12-18.71,30.12-36.89v-112.4c0-16.33-13.02-30.07-29.03-30.64h0c-.06,0-.59-.05-1.48-.05-3.5,0-12.55.78-20.52,8.48-.59.57-1.15,1.16-1.69,1.76-6.01-6.8-14.29-10.21-22.58-10.21s-16.58,3.4-22.59,10.22c-4.5-5.1-10.35-8.31-16.55-9.58,28.42-17.44,46.67-48.72,46.67-83.46,0-53.97-43.91-97.88-97.88-97.88h0ZM158.12,265.42c-31.47-12.24-52.71-42.7-52.71-77.18,0-45.67,37.16-82.82,82.82-82.82s82.82,37.15,82.82,82.82c0,34.48-21.24,64.94-52.71,77.18v-33.93c14.03-9.8,22.59-25.98,22.59-43.25,0-29.06-23.64-52.71-52.71-52.71s-52.71,23.64-52.71,52.71c0,17.26,8.56,33.45,22.59,43.25v33.93h0ZM165.65,353.88c4.16,0,7.53-3.37,7.53-7.53.04-47.76-.11-107.13,0-143.06,0-8.38,6.79-15.06,15.05-15.06.19,0,.38,0,.57.01,8,.28,14.5,7.28,14.5,15.59v119.93c0,4.16,3.37,7.53,7.53,7.53s7.53-3.37,7.53-7.53v-22.59c0-8.3,6.76-15.06,15.06-15.06s15.06,6.76,15.06,15.06v22.59c0,4.16,3.37,7.53,7.53,7.53s7.53-3.37,7.53-7.53v-22.59c0-8.3,6.76-15.06,15.06-15.06s15.06,6.76,15.06,15.06v22.59c0,4.16,3.37,7.53,7.53,7.53s7.53-3.37,7.53-7.53v-22.59c0-8.41,6.84-15.06,15.01-15.06.2,0,.4,0,.6.01,8,.28,14.5,7.28,14.5,15.59v67.22h-46.47c-3.11-8.76-11.48-15.06-21.29-15.06-12.45,0-22.59,10.13-22.59,22.59s10.13,22.59,22.59,22.59c9.82,0,18.19-6.29,21.29-15.06h46.47v30.12c0,12.45-10.13,22.59-22.59,22.59-4.16,0-7.53,3.37-7.53,7.53v38.5c0,7.83-6.37,14.21-14.21,14.21h-77c-7.83,0-14.21-6.37-14.21-14.21v-38.5c0-1.59-.5-3.14-1.44-4.43l-52.22-71.8c-3.13-4.3-3.45-10.07-.81-14.69l9.29-16.26v9.3c0,4.16,3.37,7.53,7.53,7.53h0Z"/>
        </g>
      </g>
    </g>
  </g>
</svg>