<?xml version="1.0" encoding="UTF-8"?>
<svg id="Layer_2" data-name="Layer 2" xmlns="http://www.w3.org/2000/svg" viewBox="0 0 525 525">
  <defs>
    <style>
      .cls-1 {
        fill: #00b2ca;
      }
    </style>
  </defs>
  <g id="Bottom_navigation" data-name="Bottom navigation">
    <g id="Operating_System" data-name="Operating System">
      <g>
        <g>
          <path class="cls-1" d="M193.23,512c-8.04,0-14.58-6.54-14.58-14.58,0-15.19,10.33-28.26,25.12-31.76,2.93-.7,5-3.31,5-6.32v-23.65c0-3.59-2.91-6.5-6.5-6.5H64.23c-28.25,0-51.23-22.98-51.23-51.23V64.23c0-28.25,22.98-51.23,51.23-51.23h396.55c28.25,0,51.23,22.98,51.23,51.23v313.73c0,28.25-22.98,51.23-51.23,51.23h-138.04c-3.59,0-6.5,2.91-6.5,6.5v23.65c0,3.01,2.07,5.63,5,6.32,14.79,3.51,25.12,16.57,25.12,31.76,0,8.04-6.54,14.58-14.58,14.58h-138.54ZM211.3,466.82c-19.7,0-30.6,17.25-30.6,29.18,0,3.61.97,6.81,2.8,9.24,2.29,3.03,5.74,4.71,9.74,4.71h138.54c3.99,0,7.45-1.66,9.74-4.68,1.84-2.42,2.81-5.62,2.81-9.23,0-11.94-10.9-29.21-30.62-29.21h-102.4ZM64.23,15.06c-27.11,0-49.17,22.06-49.17,49.17v313.73c0,27.11,22.06,49.17,49.17,49.17h396.55c27.11,0,49.17-22.06,49.17-49.17V64.23c0-27.11-22.06-49.17-49.17-49.17H64.23Z"/>
          <path d="M309.9,433.62c-.11.67-.16,1.36-.16,2.06v23.65c0,.33.01.67.04.99h-94.55c.03-.33.04-.66.04-.99v-23.65c0-.7-.06-1.39-.16-2.06h94.79M460.77,6.5H64.23c-31.83,0-57.73,25.9-57.73,57.73v313.73c0,31.83,25.9,57.73,57.73,57.73h138.04v23.65c-17.25,4.09-30.12,19.61-30.12,38.09,0,11.62,9.46,21.08,21.08,21.08h138.54c11.62,0,21.08-9.46,21.08-21.08,0-18.48-12.87-34-30.12-38.09v-23.65h138.04c31.83,0,57.73-25.9,57.73-57.73V64.23c0-31.83-25.9-57.73-57.73-57.73h0ZM64.23,420.62c-23.53,0-42.67-19.14-42.67-42.67V64.23c0-23.53,19.14-42.67,42.67-42.67h396.55c23.53,0,42.67,19.14,42.67,42.67v313.73c0,23.53-19.14,42.67-42.67,42.67H64.23ZM193.23,503.44c-12.57,0-5-30.12,18.07-30.12h102.4c22.96,0,30.73,30.12,18.07,30.12h-138.54Z"/>
        </g>
        <g>
          <path class="cls-1" d="M64.23,338.82c-11.64,0-21.11-9.47-21.11-21.11V64.23c0-11.64,9.47-21.11,21.11-21.11h396.55c11.64,0,21.11,9.47,21.11,21.11v253.49c0,11.64-9.47,21.11-21.11,21.11H64.23ZM64.23,45.18c-10.5,0-19.05,8.54-19.05,19.05v253.49c0,10.5,8.55,19.05,19.05,19.05h396.55c10.5,0,19.05-8.54,19.05-19.05V64.23c0-10.5-8.55-19.05-19.05-19.05H64.23Z"/>
          <path d="M460.77,36.62H64.23c-15.22,0-27.61,12.39-27.61,27.61v253.49c0,15.22,12.39,27.61,27.61,27.61h396.55c15.22,0,27.61-12.39,27.61-27.61V64.23c0-15.22-12.39-27.61-27.61-27.61h0ZM64.23,330.26c-6.92,0-12.55-5.63-12.55-12.55V64.23c0-6.92,5.63-12.55,12.55-12.55h396.55c6.92,0,12.55,5.63,12.55,12.55v253.49c0,6.92-5.63,12.55-12.55,12.55H64.23Z"/>
        </g>
        <g>
          <path class="cls-1" d="M443.21,399.06c-8.87,0-16.09-7.22-16.09-16.09s7.22-16.09,16.09-16.09,16.09,7.22,16.09,16.09-7.22,16.09-16.09,16.09ZM443.21,368.94c-7.74,0-14.03,6.29-14.03,14.03s6.29,14.03,14.03,14.03,14.03-6.29,14.03-14.03-6.29-14.03-14.03-14.03Z"/>
          <path d="M443.21,360.38c-12.45,0-22.59,10.13-22.59,22.59s10.13,22.59,22.59,22.59,22.59-10.13,22.59-22.59-10.13-22.59-22.59-22.59h0ZM443.21,390.5c-4.15,0-7.53-3.38-7.53-7.53s3.38-7.53,7.53-7.53,7.53,3.38,7.53,7.53-3.38,7.53-7.53,7.53h0Z"/>
        </g>
        <g>
          <path class="cls-1" d="M367.91,399.06c-8.87,0-16.09-7.22-16.09-16.09s7.22-16.09,16.09-16.09h15.06c8.87,0,16.09,7.22,16.09,16.09s-7.22,16.09-16.09,16.09h-15.06Z"/>
          <path d="M382.97,373.38c5.29,0,9.59,4.3,9.59,9.59s-4.3,9.59-9.59,9.59h-15.06c-5.29,0-9.59-4.3-9.59-9.59s4.3-9.59,9.59-9.59h15.06M382.97,360.38h-15.06c-12.45,0-22.59,10.13-22.59,22.59s10.13,22.59,22.59,22.59h15.06c12.46,0,22.59-10.13,22.59-22.59s-10.13-22.59-22.59-22.59h0Z"/>
        </g>
        <g>
          <path class="cls-1" d="M292.62,399.06c-8.87,0-16.09-7.22-16.09-16.09s7.22-16.09,16.09-16.09h15.06c8.87,0,16.09,7.22,16.09,16.09s-7.22,16.09-16.09,16.09h-15.06Z"/>
          <path d="M307.68,373.38c5.29,0,9.59,4.3,9.59,9.59s-4.3,9.59-9.59,9.59h-15.06c-5.29,0-9.59-4.3-9.59-9.59s4.3-9.59,9.59-9.59h15.06M307.68,360.38h-15.06c-12.46,0-22.59,10.13-22.59,22.59s10.13,22.59,22.59,22.59h15.06c12.45,0,22.59-10.13,22.59-22.59s-10.13-22.59-22.59-22.59h0Z"/>
        </g>
        <g>
          <path class="cls-1" d="M224.85,399.06c-8.87,0-16.09-7.22-16.09-16.09s7.22-16.09,16.09-16.09h15.06c8.87,0,16.09,7.22,16.09,16.09s-7.22,16.09-16.09,16.09h-15.06ZM224.85,368.94c-7.74,0-14.03,6.29-14.03,14.03s6.29,14.03,14.03,14.03h15.06c7.74,0,14.03-6.29,14.03-14.03s-6.29-14.03-14.03-14.03h-15.06Z"/>
          <path d="M239.91,360.38h-15.06c-12.45,0-22.59,10.13-22.59,22.59s10.13,22.59,22.59,22.59h15.06c12.45,0,22.59-10.13,22.59-22.59s-10.13-22.59-22.59-22.59h0ZM224.85,390.5c-4.15,0-7.53-3.38-7.53-7.53s3.38-7.53,7.53-7.53h15.06c4.15,0,7.53,3.38,7.53,7.53s-3.38,7.53-7.53,7.53h-15.06Z"/>
        </g>
        <g>
          <path class="cls-1" d="M89.83,214.84c-.57,0-1.03-.46-1.03-1.03s.46-1.03,1.03-1.03h203.29c.57,0,1.03.46,1.03,1.03s-.46,1.03-1.03,1.03H89.83Z"/>
          <path d="M293.12,206.28H89.83c-4.16,0-7.53,3.37-7.53,7.53s3.37,7.53,7.53,7.53h203.29c4.16,0,7.53-3.37,7.53-7.53s-3.37-7.53-7.53-7.53h0Z"/>
        </g>
        <g>
          <path class="cls-1" d="M89.83,252.49c-.57,0-1.03-.46-1.03-1.03s.46-1.03,1.03-1.03h203.29c.57,0,1.03.46,1.03,1.03s-.46,1.03-1.03,1.03H89.83Z"/>
          <path d="M293.12,243.93H89.83c-4.16,0-7.53,3.37-7.53,7.53s3.37,7.53,7.53,7.53h203.29c4.16,0,7.53-3.37,7.53-7.53s-3.37-7.53-7.53-7.53h0Z"/>
        </g>
        <g>
          <path class="cls-1" d="M89.83,290.13c-.57,0-1.03-.46-1.03-1.03s.46-1.03,1.03-1.03h135.53c.57,0,1.03.46,1.03,1.03s-.46,1.03-1.03,1.03H89.83Z"/>
          <path d="M225.35,281.57H89.83c-4.16,0-7.53,3.37-7.53,7.53s3.37,7.53,7.53,7.53h135.53c4.16,0,7.53-3.37,7.53-7.53s-3.37-7.53-7.53-7.53h0Z"/>
        </g>
      </g>
    </g>
  </g>
</svg>