<?xml version="1.0" encoding="UTF-8"?>
<svg id="Layer_2" data-name="Layer 2" xmlns="http://www.w3.org/2000/svg" viewBox="0 0 525 464.76">
  <defs>
    <style>
      .cls-1 {
        fill: #00b2ca;
      }
    </style>
  </defs>
  <g id="Bottom_navigation" data-name="Bottom navigation">
    <g id="Security_Features" data-name="Security Features">
      <g>
        <g>
          <path class="cls-1" d="M49.37,451.76c-20.05,0-36.37-16.31-36.37-36.37v-39.96c0-.57.46-1.03,1.03-1.03h15.06c3.59,0,6.5-2.91,6.5-6.5v-214.29c0-36.02,29.31-65.33,65.33-65.33h48.64c3.59,0,6.5-2.91,6.5-6.5v-22.32c0-.57.46-1.03,1.03-1.03,24.49,0,44.42-19.92,44.42-44.42,0-.57.46-1.03,1.03-1.03h119.93c.57,0,1.03.46,1.03,1.03,0,24.49,19.92,44.42,44.42,44.42.57,0,1.03.46,1.03,1.03v22.32c0,3.59,2.91,6.5,6.5,6.5h48.64c36.02,0,65.33,29.31,65.33,65.33v214.29c0,3.59,2.91,6.5,6.5,6.5h15.06c.57,0,1.03.46,1.03,1.03v39.96c0,20.05-16.31,36.37-36.37,36.37H49.37ZM21.56,376.47c-3.59,0-6.5,2.91-6.5,6.5v32.43c0,18.92,15.39,34.31,34.31,34.31h426.27c18.92,0,34.31-15.39,34.31-34.31v-32.43c0-3.59-2.91-6.5-6.5-6.5h-188.24c-3.59,0-6.5,2.91-6.5,6.5v6.02c0,13.85-11.27,25.12-25.12,25.12h-42.16c-13.85,0-25.12-11.27-25.12-25.12v-6.02c0-3.59-2.91-6.5-6.5-6.5H21.56ZM103.73,128c-15.68,0-28.44,12.76-28.44,28.44v211.48c0,3.59,2.91,6.5,6.5,6.5h361.41c3.59,0,6.5-2.91,6.5-6.5v-211.48c0-15.68-12.76-28.44-28.44-28.44h-45.83c-3.59,0-6.5,2.91-6.5,6.5v.52c0,64.45-43.67,120.37-106.19,136.01-.08.02-.16.03-.25.03s-.17,0-.26-.03c-62.52-15.63-106.19-71.56-106.19-136.01v-.52c0-3.59-2.91-6.5-6.5-6.5h-45.83ZM209.53,15.06c-3.23,0-5.98,2.38-6.43,5.58-2.9,20.29-19.1,36.5-39.4,39.39-3.2.46-5.58,3.2-5.58,6.43v68.55c0,62.59,42.24,117.49,102.72,133.52.55.14,1.11.22,1.66.22s1.12-.07,1.67-.22c60.48-16.03,102.72-70.93,102.72-133.52v-68.55c0-3.23-2.38-5.98-5.58-6.43-20.29-2.9-36.49-19.1-39.39-39.4-.46-3.2-3.2-5.58-6.43-5.58h-105.94Z"/>
          <path d="M373.38,94.63c.67.11,1.36.16,2.06.16h48.64c32.44,0,58.83,26.39,58.83,58.83v214.29c0,.7.06,1.39.16,2.06h-27.03c.11-.67.16-1.36.16-2.06v-211.48c0-19.26-15.67-34.94-34.94-34.94h-45.83c-.7,0-1.39.06-2.06.16v-27.03M151.62,94.63v27.03c-.67-.11-1.36-.16-2.06-.16h-45.83c-19.26,0-34.94,15.67-34.94,34.94v211.48c0,.7.06,1.39.16,2.06h-27.03c.11-.67.16-1.36.16-2.06v-214.29c0-32.44,26.39-58.83,58.83-58.83h48.64c.7,0,1.39-.06,2.06-.16M302.37,380.91c-.11.67-.16,1.36-.16,2.06v6.02c0,10.27-8.35,18.62-18.62,18.62h-42.17c-10.27,0-18.62-8.35-18.62-18.62v-6.02c0-.7-.06-1.39-.16-2.06h79.74M322.47,6.5h-119.93c-4.16,0-7.53,3.37-7.53,7.53,0,20.91-17.01,37.92-37.92,37.92-4.16,0-7.53,3.37-7.53,7.53v22.32h-48.64c-39.61,0-71.83,32.22-71.83,71.83v214.29h-15.06c-4.16,0-7.53,3.37-7.53,7.53v39.96c0,23.64,19.23,42.87,42.87,42.87h426.27c23.64,0,42.87-19.23,42.87-42.87v-39.96c0-4.16-3.37-7.53-7.53-7.53h-15.06v-214.29c0-39.61-32.22-71.83-71.83-71.83h-48.64v-22.32c0-4.16-3.37-7.53-7.53-7.53-20.91,0-37.92-17.01-37.92-37.92,0-4.16-3.37-7.53-7.53-7.53h0ZM262.5,262.25c-57.73-15.3-97.88-67.35-97.88-127.23v-68.55h0c23.2-3.31,41.6-21.71,44.91-44.91h105.94c3.31,23.2,21.71,41.6,44.91,44.91v68.55c0,59.88-40.15,111.94-97.88,127.23h0ZM262.5,277.56c.62,0,1.23-.07,1.83-.22,65.42-16.36,111.11-74.88,111.11-142.31v-.52h45.83c12.1,0,21.94,9.84,21.94,21.94v211.48H81.79v-211.48c0-12.1,9.84-21.94,21.94-21.94h45.83v.52c0,67.43,45.69,125.96,111.11,142.31.6.15,1.21.22,1.83.22h0ZM241.42,420.62h42.17c17.44,0,31.62-14.19,31.62-31.62v-6.02h188.24v32.43c0,15.33-12.48,27.81-27.81,27.81H49.37c-15.33,0-27.81-12.48-27.81-27.81v-32.43h188.23v6.02c0,17.44,14.19,31.62,31.62,31.62h0Z"/>
        </g>
        <g>
          <path class="cls-1" d="M262.5,239.75c-.11,0-.21-.02-.32-.05-45.46-14.75-76.01-56.82-76.01-104.67v-51.69c0-.41.24-.78.62-.94,17.35-7.57,31.08-21.29,38.65-38.65.16-.38.53-.62.94-.62h72.23c.41,0,.78.24.94.62,7.57,17.35,21.3,31.08,38.65,38.65.38.16.62.53.62.94v51.69c0,47.86-30.54,89.92-76.01,104.67-.1.03-.21.05-.32.05ZM224.85,128c-7.74,0-14.03,6.29-14.03,14.03s6.29,14.03,14.03,14.03h75.29c7.74,0,14.03-6.29,14.03-14.03s-6.29-14.03-14.03-14.03h-75.29ZM239.91,90.35c-7.74,0-14.03,6.29-14.03,14.03s6.29,14.03,14.03,14.03h45.18c7.74,0,14.03-6.29,14.03-14.03s-6.29-14.03-14.03-14.03h-45.18Z"/>
          <path d="M295.12,49.62c7.95,16.23,20.98,29.26,37.21,37.21v48.2c0,44.44-27.98,83.57-69.82,97.93-41.84-14.36-69.82-53.49-69.82-97.93v-48.2c16.23-7.95,29.26-20.98,37.21-37.21h65.23M228.59,121.5h-3.74c-11.32,0-20.53,9.21-20.53,20.53s9.21,20.53,20.53,20.53h75.29c11.32,0,20.53-9.21,20.53-20.53s-9.21-20.53-20.53-20.53h-3.74c5.54-3.68,9.21-9.98,9.21-17.12,0-11.32-9.21-20.53-20.53-20.53h-45.18c-11.32,0-20.53,9.21-20.53,20.53,0,7.14,3.66,13.44,9.21,17.12M298.61,36.62h-72.23c-2.99,0-5.7,1.77-6.9,4.52-6.91,15.84-19.45,28.38-35.29,35.29-2.74,1.2-4.52,3.91-4.52,6.9v51.69c0,50.68,32.35,95.23,80.5,110.86.76.25,1.54.37,2.32.37s1.57-.12,2.32-.37c48.15-15.62,80.5-60.17,80.5-110.86v-51.69c0-2.99-1.77-5.7-4.52-6.9-15.85-6.91-28.38-19.45-35.29-35.29-1.2-2.74-3.91-4.52-6.9-4.52h0ZM239.91,111.91c-4.16,0-7.53-3.37-7.53-7.53s3.37-7.53,7.53-7.53h45.18c4.16,0,7.53,3.37,7.53,7.53s-3.37,7.53-7.53,7.53h-45.18ZM224.85,149.56c-4.16,0-7.53-3.37-7.53-7.53s3.37-7.53,7.53-7.53h75.29c4.16,0,7.53,3.37,7.53,7.53s-3.37,7.53-7.53,7.53h-75.29Z"/>
        </g>
      </g>
    </g>
  </g>
</svg>