<?xml version="1.0" encoding="UTF-8"?>
<svg id="Layer_2" data-name="Layer 2" xmlns="http://www.w3.org/2000/svg" viewBox="0 0 525 479.82">
  <defs>
    <style>
      .cls-1 {
        fill: #00b2ca;
      }
    </style>
  </defs>
  <g id="Bottom_navigation" data-name="Bottom navigation">
    <g id="Backlighting">
      <g>
        <g>
          <path class="cls-1" d="M83.55,466.82c-38.9,0-70.55-31.65-70.55-70.55v-222.37c0-38.9,31.65-70.55,70.55-70.55h142.06c3.09,0,5.75-2.17,6.37-5.2,1.83-9,7.54-16.7,15.65-21.13,2-1.09,3.28-3.15,3.38-5.42s-1-4.43-2.89-5.69L171.58,14.89c-.29-.2-.4-.46-.44-.65s-.04-.48.15-.77c.28-.42.7-.46.86-.46.2,0,.39.06.56.17l86.18,57.45c1.09.73,2.35,1.09,3.61,1.09s2.51-.36,3.61-1.09l86.18-57.45c.17-.11.36-.17.56-.17.17,0,.59.04.86.46.2.29.19.58.15.77-.04.19-.15.46-.44.66l-76.54,51.03c-1.89,1.26-2.99,3.42-2.89,5.69.1,2.27,1.38,4.33,3.38,5.42,8.11,4.43,13.81,12.13,15.65,21.13.62,3.03,3.28,5.2,6.37,5.2h142.06c38.9,0,70.55,31.65,70.55,70.55v222.37c0,38.9-31.65,70.55-70.55,70.55H83.55ZM83.55,105.41c-37.77,0-68.49,30.73-68.49,68.49v222.37c0,37.77,30.73,68.49,68.49,68.49h357.9c37.77,0,68.49-30.73,68.49-68.49v-222.37c0-37.77-30.73-68.49-68.49-68.49H83.55ZM262.5,75.29c-12.29,0-23.31,7.79-27.42,19.39-.71,1.99-.4,4.2.82,5.92,1.22,1.72,3.2,2.75,5.31,2.75h42.59c2.11,0,4.09-1.03,5.31-2.75,1.22-1.72,1.52-3.93.82-5.92-4.11-11.6-15.13-19.39-27.42-19.39Z"/>
          <path d="M172.15,6.5c-2.43,0-4.82,1.18-6.27,3.35-2.31,3.46-1.37,8.13,2.09,10.44l76.54,51.03c-9.58,5.24-16.65,14.52-18.9,25.53H83.55c-42.49,0-77.05,34.56-77.05,77.05v222.37c0,42.49,34.56,77.05,77.05,77.05h357.9c42.49,0,77.05-34.56,77.05-77.05v-222.37c0-42.49-34.56-77.05-77.05-77.05h-142.06c-2.24-11.02-9.32-20.3-18.9-25.53l76.54-51.03c3.46-2.31,4.4-6.98,2.09-10.44-1.45-2.18-3.84-3.35-6.27-3.35-1.44,0-2.89.41-4.17,1.26l-86.18,57.45L176.32,7.77c-1.28-.86-2.73-1.27-4.17-1.27h0ZM241.21,96.85c3.11-8.76,11.48-15.06,21.29-15.06s18.19,6.3,21.29,15.06h-42.59ZM83.55,458.27c-34.18,0-61.99-27.81-61.99-61.99v-222.37c0-34.18,27.81-61.99,61.99-61.99h357.9c34.18,0,61.99,27.81,61.99,61.99v222.37c0,34.18-27.81,61.99-61.99,61.99H83.55Z"/>
        </g>
        <g>
          <path class="cls-1" d="M90.83,421.65c-18,0-32.65-14.65-32.65-32.65v-207.81c0-18,14.65-32.65,32.65-32.65h260.52c18,0,32.65,14.65,32.65,32.65v207.81c0,18-14.65,32.65-32.65,32.65H90.83ZM309.56,150.59c-3.59,0-6.5,2.91-6.5,6.5v256c0,3.59,2.91,6.5,6.5,6.5h41.79c16.87,0,30.59-13.72,30.59-30.59v-207.81c0-16.87-13.72-30.59-30.59-30.59h-41.79ZM147.68,150.59c-3.59,0-6.5,2.91-6.5,6.5v256c0,3.59,2.91,6.5,6.5,6.5h65.88c3.59,0,6.5-2.91,6.5-6.5V157.09c0-3.59-2.91-6.5-6.5-6.5h-65.88Z"/>
          <path d="M296.72,155.03c-.11.67-.16,1.36-.16,2.06v256c0,.7.06,1.39.16,2.06h-70.32c.11-.67.16-1.36.16-2.06V157.09c0-.7-.06-1.39-.16-2.06h70.32M134.84,155.03c-.11.67-.16,1.36-.16,2.06v256c0,.7.06,1.39.16,2.06h-44.01c-14.42,0-26.15-11.73-26.15-26.15v-207.81c0-14.42,11.73-26.15,26.15-26.15h44.01M351.35,142.03H90.83c-21.59,0-39.15,17.56-39.15,39.15v207.81c0,21.59,17.56,39.15,39.15,39.15h260.52c21.59,0,39.15-17.56,39.15-39.15v-207.81c0-21.59-17.56-39.15-39.15-39.15h0ZM309.56,413.09V157.09h41.79c13.28,0,24.09,10.81,24.09,24.09v207.81c0,13.29-10.81,24.09-24.09,24.09h-41.79ZM147.68,413.09V157.09h65.88v256h-65.88Z"/>
        </g>
        <g>
          <path class="cls-1" d="M446.97,421.65c-15.1,0-27.38-12.28-27.38-27.38s12.28-27.38,27.38-27.38,27.38,12.28,27.38,27.38-12.28,27.38-27.38,27.38ZM446.97,368.94c-13.96,0-25.32,11.36-25.32,25.32s11.36,25.32,25.32,25.32,25.32-11.36,25.32-25.32-11.36-25.32-25.32-25.32Z"/>
          <path d="M446.97,360.38c-18.68,0-33.88,15.2-33.88,33.88s15.2,33.88,33.88,33.88,33.88-15.2,33.88-33.88-15.2-33.88-33.88-33.88h0ZM446.97,413.09c-10.38,0-18.82-8.44-18.82-18.82s8.44-18.82,18.82-18.82,18.82,8.44,18.82,18.82-8.44,18.82-18.82,18.82h0Z"/>
        </g>
        <g>
          <path class="cls-1" d="M446.97,331.29c-15.1,0-27.38-12.28-27.38-27.38s12.28-27.38,27.38-27.38,27.38,12.28,27.38,27.38-12.28,27.38-27.38,27.38ZM446.97,278.59c-13.96,0-25.32,11.36-25.32,25.32s11.36,25.32,25.32,25.32,25.32-11.36,25.32-25.32-11.36-25.32-25.32-25.32Z"/>
          <path d="M446.97,270.03c-18.68,0-33.88,15.2-33.88,33.88s15.2,33.88,33.88,33.88,33.88-15.2,33.88-33.88-15.2-33.88-33.88-33.88h0ZM446.97,322.74c-10.38,0-18.82-8.44-18.82-18.82s8.44-18.82,18.82-18.82,18.82,8.44,18.82,18.82-8.44,18.82-18.82,18.82h0Z"/>
        </g>
        <g>
          <path class="cls-1" d="M435.68,148.53h22.59c8.88,0,16.09,7.21,16.09,16.09v60.24c0,8.88-7.21,16.09-16.09,16.09h-22.59c-8.88,0-16.09-7.21-16.09-16.09v-60.23c0-8.88,7.21-16.09,16.09-16.09Z"/>
          <path d="M458.26,155.03c5.29,0,9.59,4.3,9.59,9.59v60.24c0,5.29-4.3,9.59-9.59,9.59h-22.59c-5.29,0-9.59-4.3-9.59-9.59v-60.24c0-5.29,4.3-9.59,9.59-9.59h22.59M458.26,142.03h-22.59c-12.45,0-22.59,10.13-22.59,22.59v60.24c0,12.46,10.13,22.59,22.59,22.59h22.59c12.45,0,22.59-10.13,22.59-22.59v-60.24c0-12.45-10.13-22.59-22.59-22.59h0Z"/>
        </g>
      </g>
    </g>
  </g>
</svg>