<?xml version="1.0" encoding="UTF-8"?>
<svg id="Layer_2" data-name="Layer 2" xmlns="http://www.w3.org/2000/svg" viewBox="0 0 525 494.88">
  <defs>
    <style>
      .cls-1 {
        fill: #00b2ca;
      }
    </style>
  </defs>
  <g id="Bottom_navigation" data-name="Bottom navigation">
    <g id="Wi-Fi_Standard" data-name="Wi-Fi Standard">
      <g>
        <g>
          <path class="cls-1" d="M83.95,481.88c-18.36,0-33.31-14.94-33.31-33.31v-5.58c0-3.34-2.53-6.13-5.85-6.47-18.13-1.82-31.8-16.95-31.8-35.18v-96.98c0-19.5,15.86-35.36,35.36-35.36h10.84c3.59,0,6.5-2.91,6.5-6.5v-30.12c0-.57.46-1.03,1.03-1.03h22.59c3.59,0,6.5-2.91,6.5-6.5V36.62c0-13.02,10.59-23.62,23.62-23.62s23.62,10.59,23.62,23.62v188.24c0,3.59,2.91,6.5,6.5,6.5h22.59c.57,0,1.03.46,1.03,1.03v30.12c0,3.59,2.91,6.5,6.5,6.5h165.65c3.59,0,6.5-2.91,6.5-6.5v-30.12c0-.57.46-1.03,1.03-1.03h22.59c3.59,0,6.5-2.91,6.5-6.5V36.62c0-13.02,10.59-23.62,23.62-23.62s23.62,10.59,23.62,23.62v188.24c0,3.59,2.91,6.5,6.5,6.5h22.59c.57,0,1.03.46,1.03,1.03v30.12c0,3.59,2.91,6.5,6.5,6.5h10.84c19.5,0,35.36,15.86,35.36,35.36v96.98c0,18.24-13.67,33.36-31.8,35.18-3.32.33-5.85,3.13-5.85,6.47v5.58c0,18.37-14.94,33.31-33.31,33.31H83.95ZM48.36,271.06c-18.36,0-33.3,14.94-33.3,33.3v96.98c0,18.36,14.94,33.3,33.3,33.3h428.27c18.36,0,33.3-14.94,33.3-33.3v-96.98c0-18.36-14.94-33.3-33.3-33.3H48.36ZM360.38,233.41c-3.59,0-6.5,2.91-6.5,6.5v22.59c0,3.59,2.91,6.5,6.5,6.5h90.35c3.59,0,6.5-2.91,6.5-6.5v-22.59c0-3.59-2.91-6.5-6.5-6.5h-90.35ZM74.26,233.41c-3.59,0-6.5,2.91-6.5,6.5v22.59c0,3.59,2.91,6.5,6.5,6.5h90.35c3.59,0,6.5-2.91,6.5-6.5v-22.59c0-3.59-2.91-6.5-6.5-6.5h-90.35Z"/>
          <path d="M405.56,19.5c9.44,0,17.12,7.68,17.12,17.12v188.24c0,.7.06,1.39.16,2.06h-34.56c.11-.67.16-1.36.16-2.06V36.62c0-9.44,7.68-17.12,17.12-17.12M119.44,19.5c9.44,0,17.12,7.68,17.12,17.12v188.24c0,.7.06,1.39.16,2.06h-34.56c.11-.67.16-1.36.16-2.06V36.62c0-9.44,7.68-17.12,17.12-17.12M467.98,441.15c-.09.6-.13,1.22-.13,1.85v5.58c0,14.78-12.02,26.81-26.81,26.81H83.95c-14.78,0-26.81-12.02-26.81-26.81v-5.58c0-.63-.04-1.24-.13-1.85h410.97M405.56,6.5c-16.61,0-30.12,13.51-30.12,30.12v188.24h-22.59c-4.16,0-7.53,3.37-7.53,7.53v30.12h-165.65v-30.12c0-4.16-3.37-7.53-7.53-7.53h-22.59V36.62c0-16.61-13.51-30.12-30.12-30.12s-30.12,13.51-30.12,30.12v188.24h-22.59c-4.16,0-7.53,3.37-7.53,7.53v30.12h-10.84c-23.08,0-41.86,18.78-41.86,41.86v96.98c0,21.66,16.54,39.53,37.65,41.65v5.58c0,21.95,17.86,39.81,39.81,39.81h357.09c21.95,0,39.81-17.86,39.81-39.81v-5.58c21.11-2.12,37.65-19.99,37.65-41.65v-96.98c0-23.08-18.78-41.86-41.86-41.86h-10.84v-30.12c0-4.16-3.37-7.53-7.53-7.53h-22.59V36.62c0-16.61-13.51-30.12-30.12-30.12h0ZM360.38,262.5v-22.59h90.35v22.59h-90.35ZM74.26,262.5v-22.59h90.35v22.59h-90.35ZM48.36,428.15c-14.78,0-26.8-12.02-26.8-26.8v-96.98c0-14.78,12.02-26.8,26.8-26.8h428.27c14.78,0,26.8,12.03,26.8,26.8v96.98c0,14.78-12.02,26.8-26.8,26.8H48.36Z"/>
        </g>
        <g>
          <path class="cls-1" d="M278.47,194.85c-.19,0-.48-.05-.73-.3-4.07-4.07-9.48-6.31-15.25-6.31s-11.18,2.24-15.24,6.31c-.25.25-.53.3-.73.3h0c-.2,0-.48-.05-.73-.3-.25-.25-.3-.53-.3-.73s.05-.48.3-.73c4.45-4.45,10.38-6.9,16.7-6.9s12.25,2.45,16.7,6.9c.25.25.3.53.3.73s-.05.48-.3.73c-.25.25-.53.3-.73.3Z"/>
          <path d="M262.5,179.69c-7.71,0-15.42,2.94-21.3,8.81-2.94,2.94-2.94,7.71,0,10.65,1.47,1.47,3.4,2.21,5.33,2.21s3.85-.73,5.32-2.2c2.94-2.94,6.79-4.4,10.65-4.4s7.71,1.47,10.65,4.4c1.47,1.47,3.4,2.21,5.32,2.21s3.85-.74,5.32-2.21c2.94-2.94,2.94-7.71,0-10.65-5.87-5.87-13.58-8.81-21.3-8.81h0Z"/>
        </g>
        <g>
          <path class="cls-1" d="M302.88,170.45c-.2,0-.48-.05-.73-.3-10.57-10.57-24.65-16.4-39.64-16.4s-29.07,5.82-39.65,16.4c-.25.25-.53.3-.73.3s-.48-.05-.73-.3c-.4-.4-.4-1.05,0-1.46,10.96-10.96,25.56-16.99,41.1-16.99s30.14,6.04,41.1,17c.4.4.4,1.06,0,1.46-.25.25-.53.3-.73.3h0Z"/>
          <path d="M262.5,145.2c-16.55,0-33.1,6.3-45.7,18.9-2.94,2.94-2.94,7.71,0,10.65,1.47,1.47,3.4,2.2,5.32,2.2s3.85-.73,5.32-2.2c9.66-9.66,22.36-14.5,35.05-14.5s25.39,4.83,35.05,14.5c1.47,1.47,3.4,2.21,5.33,2.21s3.85-.73,5.32-2.21c2.94-2.94,2.94-7.71,0-10.65-12.6-12.6-29.15-18.9-45.7-18.9h0Z"/>
        </g>
        <g>
          <path class="cls-1" d="M331.71,141.61c-.19,0-.48-.05-.73-.3-18.27-18.27-42.59-28.33-68.49-28.33s-50.22,10.06-68.49,28.33c-.25.25-.53.3-.73.3h0c-.2,0-.48-.05-.73-.3-.4-.4-.4-1.05,0-1.45,18.65-18.65,43.49-28.92,69.94-28.92s51.29,10.27,69.94,28.92c.4.4.4,1.05,0,1.46-.25.25-.53.3-.73.3Z"/>
          <path d="M262.5,104.43c-26.99,0-53.99,10.27-74.54,30.82-2.94,2.94-2.94,7.71,0,10.65,1.47,1.47,3.4,2.2,5.33,2.2s3.85-.73,5.32-2.2c17.62-17.61,40.75-26.42,63.89-26.42s46.28,8.81,63.89,26.42c1.47,1.47,3.4,2.21,5.32,2.21s3.85-.73,5.32-2.21c2.94-2.94,2.94-7.71,0-10.65-20.55-20.55-47.54-30.82-74.54-30.82h0Z"/>
        </g>
        <g>
          <path class="cls-1" d="M74.26,368.94c-8.87,0-16.09-7.22-16.09-16.09s7.22-16.09,16.09-16.09,16.09,7.22,16.09,16.09-7.22,16.09-16.09,16.09Z"/>
          <path d="M74.26,343.26c5.29,0,9.59,4.3,9.59,9.59s-4.3,9.59-9.59,9.59-9.59-4.3-9.59-9.59,4.3-9.59,9.59-9.59M74.26,330.26c-12.45,0-22.59,10.13-22.59,22.59s10.13,22.59,22.59,22.59,22.59-10.13,22.59-22.59-10.13-22.59-22.59-22.59h0Z"/>
        </g>
        <g>
          <path class="cls-1" d="M142.03,368.94c-8.87,0-16.09-7.22-16.09-16.09s7.22-16.09,16.09-16.09,16.09,7.22,16.09,16.09-7.22,16.09-16.09,16.09Z"/>
          <path d="M142.03,343.26c5.29,0,9.59,4.3,9.59,9.59s-4.3,9.59-9.59,9.59-9.59-4.3-9.59-9.59,4.3-9.59,9.59-9.59M142.03,330.26c-12.45,0-22.59,10.13-22.59,22.59s10.13,22.59,22.59,22.59,22.59-10.13,22.59-22.59-10.13-22.59-22.59-22.59h0Z"/>
        </g>
        <g>
          <path class="cls-1" d="M209.79,368.94c-8.87,0-16.09-7.22-16.09-16.09s7.22-16.09,16.09-16.09,16.09,7.22,16.09,16.09-7.22,16.09-16.09,16.09ZM209.79,338.82c-7.74,0-14.03,6.29-14.03,14.03s6.29,14.03,14.03,14.03,14.03-6.29,14.03-14.03-6.29-14.03-14.03-14.03Z"/>
          <path d="M209.79,330.26c-12.46,0-22.59,10.13-22.59,22.59s10.13,22.59,22.59,22.59,22.59-10.13,22.59-22.59-10.13-22.59-22.59-22.59h0ZM209.79,360.38c-4.15,0-7.53-3.38-7.53-7.53s3.38-7.53,7.53-7.53,7.53,3.38,7.53,7.53-3.38,7.53-7.53,7.53h0Z"/>
        </g>
        <g>
          <path class="cls-1" d="M277.56,368.94c-8.87,0-16.09-7.22-16.09-16.09s7.22-16.09,16.09-16.09,16.09,7.22,16.09,16.09-7.22,16.09-16.09,16.09ZM277.56,338.82c-7.74,0-14.03,6.29-14.03,14.03s6.29,14.03,14.03,14.03,14.03-6.29,14.03-14.03-6.29-14.03-14.03-14.03Z"/>
          <path d="M277.56,330.26c-12.45,0-22.59,10.13-22.59,22.59s10.13,22.59,22.59,22.59,22.59-10.13,22.59-22.59-10.13-22.59-22.59-22.59h0ZM277.56,360.38c-4.15,0-7.53-3.38-7.53-7.53s3.38-7.53,7.53-7.53,7.53,3.38,7.53,7.53-3.38,7.53-7.53,7.53h0Z"/>
        </g>
        <g>
          <path class="cls-1" d="M345.32,361.41c-.57,0-1.03-.46-1.03-1.03v-15.06c0-.57.46-1.03,1.03-1.03s1.03.46,1.03,1.03v15.06c0,.57-.46,1.03-1.03,1.03Z"/>
          <path d="M345.32,337.79c-4.16,0-7.53,3.37-7.53,7.53v15.06c0,4.16,3.37,7.53,7.53,7.53s7.53-3.37,7.53-7.53v-15.06c0-4.16-3.37-7.53-7.53-7.53h0Z"/>
        </g>
        <g>
          <path class="cls-1" d="M375.44,361.41c-.57,0-1.03-.46-1.03-1.03v-15.06c0-.57.46-1.03,1.03-1.03s1.03.46,1.03,1.03v15.06c0,.57-.46,1.03-1.03,1.03Z"/>
          <path d="M375.44,337.79c-4.16,0-7.53,3.37-7.53,7.53v15.06c0,4.16,3.37,7.53,7.53,7.53s7.53-3.37,7.53-7.53v-15.06c0-4.16-3.37-7.53-7.53-7.53h0Z"/>
        </g>
        <g>
          <path class="cls-1" d="M405.56,361.41c-.57,0-1.03-.46-1.03-1.03v-15.06c0-.57.46-1.03,1.03-1.03s1.03.46,1.03,1.03v15.06c0,.57-.46,1.03-1.03,1.03Z"/>
          <path d="M405.56,337.79c-4.16,0-7.53,3.37-7.53,7.53v15.06c0,4.16,3.37,7.53,7.53,7.53s7.53-3.37,7.53-7.53v-15.06c0-4.16-3.37-7.53-7.53-7.53h0Z"/>
        </g>
        <g>
          <path class="cls-1" d="M435.68,361.41c-.57,0-1.03-.46-1.03-1.03v-15.06c0-.57.46-1.03,1.03-1.03s1.03.46,1.03,1.03v15.06c0,.57-.46,1.03-1.03,1.03Z"/>
          <path d="M435.68,337.79c-4.16,0-7.53,3.37-7.53,7.53v15.06c0,4.16,3.37,7.53,7.53,7.53s7.53-3.37,7.53-7.53v-15.06c0-4.16-3.37-7.53-7.53-7.53h0Z"/>
        </g>
        <g>
          <path class="cls-1" d="M465.79,361.41c-.57,0-1.03-.46-1.03-1.03v-15.06c0-.57.46-1.03,1.03-1.03s1.03.46,1.03,1.03v15.06c0,.57-.46,1.03-1.03,1.03Z"/>
          <path d="M465.79,337.79c-4.16,0-7.53,3.37-7.53,7.53v15.06c0,4.16,3.37,7.53,7.53,7.53s7.53-3.37,7.53-7.53v-15.06c0-4.16-3.37-7.53-7.53-7.53h0Z"/>
        </g>
      </g>
    </g>
  </g>
</svg>