<?xml version="1.0" encoding="UTF-8"?>
<svg id="Layer_2" data-name="Layer 2" xmlns="http://www.w3.org/2000/svg" viewBox="0 0 525 261.47">
  <defs>
    <style>
      .cls-1 {
        fill: #00b2ca;
      }
    </style>
  </defs>
  <g id="Bottom_navigation" data-name="Bottom navigation">
    <g id="RAM_Size" data-name="RAM Size">
      <g>
        <g>
          <path class="cls-1" d="M241.92,248.47c-9.98,0-18.1-8.12-18.1-18.1v-20.58c0-3.59-2.91-6.5-6.5-6.5h-22.59c-3.59,0-6.5,2.91-6.5,6.5v20.58c0,9.98-8.12,18.1-18.1,18.1H53.68c-9.98,0-18.1-8.12-18.1-18.1v-20.58c0-3.59-2.91-6.5-6.5-6.5h-3.51c-6.93,0-12.57-5.64-12.57-12.57v-84.33c0-5.83,4.74-10.57,10.57-10.57h5.52c11.89,0,21.56-9.67,21.56-21.56s-9.67-21.56-21.56-21.56h-5.52c-5.83,0-10.57-4.74-10.57-10.57v-16.56c0-6.93,5.64-12.57,12.57-12.57h473.85c6.93,0,12.57,5.64,12.57,12.57v16.56c0,5.83-4.74,10.57-10.57,10.57h-5.52c-11.89,0-21.56,9.67-21.56,21.56s9.67,21.56,21.56,21.56h5.52c5.83,0,10.57,4.74,10.57,10.57v84.33c0,6.93-5.64,12.57-12.57,12.57h-3.51c-3.59,0-6.5,2.91-6.5,6.5v20.58c0,9.98-8.12,18.1-18.1,18.1h-229.4ZM458.26,203.29c-3.59,0-6.5,2.91-6.5,6.5v30.12c0,3.59,2.91,6.5,6.5,6.5h13.05c8.84,0,16.04-7.19,16.04-16.04v-20.58c0-3.59-2.91-6.5-6.5-6.5h-22.59ZM420.62,203.29c-3.59,0-6.5,2.91-6.5,6.5v30.12c0,3.59,2.91,6.5,6.5,6.5h22.59c3.59,0,6.5-2.91,6.5-6.5v-30.12c0-3.59-2.91-6.5-6.5-6.5h-22.59ZM382.97,203.29c-3.59,0-6.5,2.91-6.5,6.5v30.12c0,3.59,2.91,6.5,6.5,6.5h22.59c3.59,0,6.5-2.91,6.5-6.5v-30.12c0-3.59-2.91-6.5-6.5-6.5h-22.59ZM345.32,203.29c-3.59,0-6.5,2.91-6.5,6.5v30.12c0,3.59,2.91,6.5,6.5,6.5h22.59c3.59,0,6.5-2.91,6.5-6.5v-30.12c0-3.59-2.91-6.5-6.5-6.5h-22.59ZM307.68,203.29c-3.59,0-6.5,2.91-6.5,6.5v30.12c0,3.59,2.91,6.5,6.5,6.5h22.59c3.59,0,6.5-2.91,6.5-6.5v-30.12c0-3.59-2.91-6.5-6.5-6.5h-22.59ZM270.03,203.29c-3.59,0-6.5,2.91-6.5,6.5v30.12c0,3.59,2.91,6.5,6.5,6.5h22.59c3.59,0,6.5-2.91,6.5-6.5v-30.12c0-3.59-2.91-6.5-6.5-6.5h-22.59ZM232.38,203.29c-3.59,0-6.5,2.91-6.5,6.5v20.58c0,8.84,7.19,16.04,16.04,16.04h13.05c3.59,0,6.5-2.91,6.5-6.5v-30.12c0-3.59-2.91-6.5-6.5-6.5h-22.59ZM157.09,203.29c-3.59,0-6.5,2.91-6.5,6.5v30.12c0,3.59,2.91,6.5,6.5,6.5h13.05c8.84,0,16.04-7.19,16.04-16.04v-20.58c0-3.59-2.91-6.5-6.5-6.5h-22.59ZM119.44,203.29c-3.59,0-6.5,2.91-6.5,6.5v30.12c0,3.59,2.91,6.5,6.5,6.5h22.59c3.59,0,6.5-2.91,6.5-6.5v-30.12c0-3.59-2.91-6.5-6.5-6.5h-22.59ZM81.79,203.29c-3.59,0-6.5,2.91-6.5,6.5v30.12c0,3.59,2.91,6.5,6.5,6.5h22.59c3.59,0,6.5-2.91,6.5-6.5v-30.12c0-3.59-2.91-6.5-6.5-6.5h-22.59ZM44.15,203.29c-3.59,0-6.5,2.91-6.5,6.5v20.58c0,8.84,7.19,16.04,16.04,16.04h13.05c3.59,0,6.5-2.91,6.5-6.5v-30.12c0-3.59-2.91-6.5-6.5-6.5h-22.59ZM23.57,97.88c-4.69,0-8.51,3.82-8.51,8.51v84.33c0,5.8,4.72,10.52,10.52,10.52h473.85c5.8,0,10.52-4.72,10.52-10.52v-84.33c0-4.69-3.82-8.51-8.51-8.51h-5.52c-13.02,0-23.62-10.59-23.62-23.62s10.59-23.62,23.62-23.62h5.52c4.69,0,8.51-3.82,8.51-8.51v-16.56c0-5.8-4.72-10.52-10.52-10.52H25.57c-5.8,0-10.52,4.72-10.52,10.52v16.56c0,4.69,3.82,8.51,8.51,8.51h5.52c13.02,0,23.62,10.59,23.62,23.62s-10.59,23.62-23.62,23.62h-5.52Z"/>
          <path d="M499.43,6.5H25.57C15.06,6.5,6.5,15.06,6.5,25.57v16.56c0,9.41,7.66,17.07,17.07,17.07h5.52c8.3,0,15.06,6.76,15.06,15.06s-6.76,15.06-15.06,15.06h-5.52c-9.41,0-17.07,7.66-17.07,17.07v84.33c0,10.52,8.56,19.07,19.07,19.07h3.51v20.58c0,13.56,11.03,24.6,24.6,24.6h116.45c13.56,0,24.6-11.03,24.6-24.6v-20.58h22.59v20.58c0,13.56,11.03,24.6,24.6,24.6h229.4c13.56,0,24.6-11.03,24.6-24.6v-20.58h3.51c10.52,0,19.07-8.56,19.07-19.07v-84.33c0-9.41-7.66-17.07-17.07-17.07h-5.52c-8.3,0-15.06-6.76-15.06-15.06s6.76-15.06,15.06-15.06h5.52c9.41,0,17.07-7.66,17.07-17.07v-16.56c0-10.52-8.56-19.07-19.07-19.07h0ZM23.57,44.15c-1.11,0-2.01-.9-2.01-2.01v-16.56c0-2.21,1.8-4.02,4.02-4.02h473.85c2.21,0,4.02,1.8,4.02,4.02v16.56c0,1.11-.9,2.01-2.01,2.01h-5.52c-16.61,0-30.12,13.51-30.12,30.12s13.51,30.12,30.12,30.12h5.52c1.11,0,2.01.9,2.01,2.01v84.33c0,2.21-1.8,4.02-4.02,4.02H25.57c-2.21,0-4.02-1.8-4.02-4.02v-84.33c0-1.11.9-2.01,2.01-2.01h5.52c16.61,0,30.12-13.51,30.12-30.12s-13.51-30.12-30.12-30.12h-5.52ZM458.26,239.91v-30.12h22.59v20.58c0,5.26-4.28,9.54-9.54,9.54h-13.05ZM420.62,239.91v-30.12h22.59v30.12h-22.59ZM382.97,239.91v-30.12h22.59v30.12h-22.59ZM345.32,239.91v-30.12h22.59v30.12h-22.59ZM307.68,239.91v-30.12h22.59v30.12h-22.59ZM270.03,239.91v-30.12h22.59v30.12h-22.59ZM241.92,239.91c-5.26,0-9.54-4.28-9.54-9.54v-20.58h22.59v30.12h-13.05ZM157.09,239.91v-30.12h22.59v20.58c0,5.26-4.28,9.54-9.54,9.54h-13.05ZM119.44,239.91v-30.12h22.59v30.12h-22.59ZM81.79,239.91v-30.12h22.59v30.12h-22.59ZM53.68,239.91c-5.26,0-9.54-4.28-9.54-9.54v-20.58h22.59v30.12h-13.05Z"/>
        </g>
        <g>
          <path class="cls-1" d="M105.64,173.18c-13.71,0-24.87-11.16-24.87-24.87v-80.31c0-13.71,11.16-24.87,24.87-24.87h163.14c13.71,0,24.87,11.16,24.87,24.87v80.31c0,13.71-11.16,24.87-24.87,24.87H105.64ZM105.64,45.18c-12.58,0-22.81,10.23-22.81,22.81v80.31c0,12.58,10.23,22.81,22.81,22.81h163.14c12.58,0,22.81-10.23,22.81-22.81v-80.31c0-12.58-10.23-22.81-22.81-22.81H105.64Z"/>
          <path d="M268.77,36.62H105.64c-17.3,0-31.37,14.07-31.37,31.37v80.31c0,17.3,14.07,31.37,31.37,31.37h163.14c17.3,0,31.37-14.07,31.37-31.37v-80.31c0-17.3-14.07-31.37-31.37-31.37h0ZM105.64,164.62c-9,0-16.31-7.32-16.31-16.31v-80.31c0-9,7.32-16.31,16.31-16.31h163.14c9,0,16.31,7.32,16.31,16.31v80.31c0,9-7.32,16.31-16.31,16.31H105.64Z"/>
        </g>
        <g>
          <path class="cls-1" d="M335.54,43.12h27.11c3.48,0,6.3,2.82,6.3,6.3v117.46c0,3.48-2.82,6.3-6.3,6.3h-27.1c-3.48,0-6.3-2.82-6.3-6.3V49.42c0-3.48,2.82-6.3,6.3-6.3Z"/>
          <path d="M362.44,49.62v117.06h-26.71V49.62h26.71M362.64,36.62h-27.11c-7.06,0-12.8,5.74-12.8,12.8v117.46c0,7.06,5.74,12.8,12.8,12.8h27.11c7.06,0,12.8-5.74,12.8-12.8V49.42c0-7.06-5.74-12.8-12.8-12.8h0Z"/>
        </g>
        <g>
          <path class="cls-1" d="M410.83,43.12h27.11c3.48,0,6.3,2.82,6.3,6.3v117.46c0,3.48-2.82,6.3-6.3,6.3h-27.1c-3.48,0-6.3-2.82-6.3-6.3V49.42c0-3.48,2.82-6.3,6.3-6.3Z"/>
          <path d="M437.74,49.62v117.06h-26.71V49.62h26.71M437.94,36.62h-27.11c-7.06,0-12.8,5.74-12.8,12.8v117.46c0,7.06,5.74,12.8,12.8,12.8h27.11c7.06,0,12.8-5.74,12.8-12.8V49.42c0-7.06-5.74-12.8-12.8-12.8h0Z"/>
        </g>
      </g>
    </g>
  </g>
</svg>