<?xml version="1.0" encoding="UTF-8"?>
<svg id="Layer_2" data-name="Layer 2" xmlns="http://www.w3.org/2000/svg" viewBox="0 0 525 525">
  <defs>
    <style>
      .cls-1 {
        fill: #00b2ca;
      }
    </style>
  </defs>
  <g id="Bottom_navigation" data-name="Bottom navigation">
    <g id="Processor_Type" data-name="Processor Type">
      <g>
        <g>
          <path class="cls-1" d="M375.44,512c-.57,0-1.03-.46-1.03-1.03v-22.59c0-3.59-2.91-6.5-6.5-6.5h-15.06c-.57,0-1.03-.46-1.03-1.03v-22.59c0-3.59-2.91-6.5-6.5-6.5h-15.06c-3.59,0-6.5,2.91-6.5,6.5v22.59c0,.57-.46,1.03-1.03,1.03h-15.06c-3.59,0-6.5,2.91-6.5,6.5v22.59c0,.57-.46,1.03-1.03,1.03s-1.03-.46-1.03-1.03v-22.59c0-3.59-2.91-6.5-6.5-6.5h-15.06c-.57,0-1.03-.46-1.03-1.03v-22.59c0-3.59-2.91-6.5-6.5-6.5h-15.06c-3.59,0-6.5,2.91-6.5,6.5v22.59c0,.57-.46,1.03-1.03,1.03h-15.06c-3.59,0-6.5,2.91-6.5,6.5v22.59c0,.57-.46,1.03-1.03,1.03s-1.03-.46-1.03-1.03v-22.59c0-3.59-2.91-6.5-6.5-6.5h-15.06c-.57,0-1.03-.46-1.03-1.03v-22.59c0-3.59-2.91-6.5-6.5-6.5h-15.06c-3.59,0-6.5,2.91-6.5,6.5v22.59c0,.57-.46,1.03-1.03,1.03h-15.06c-3.59,0-6.5,2.91-6.5,6.5v22.59c0,.57-.46,1.03-1.03,1.03s-1.03-.46-1.03-1.03v-22.59c0-3.59-2.91-6.5-6.5-6.5h-15.06c-.57,0-1.03-.46-1.03-1.03v-22.81c0-3.38-2.58-6.19-5.95-6.48-24.86-2.11-44.44-21.69-46.55-46.56-.29-3.36-3.1-5.95-6.48-5.95h-22.81c-.57,0-1.03-.46-1.03-1.03v-15.06c0-3.59-2.91-6.5-6.5-6.5H14.03c-.57,0-1.03-.46-1.03-1.03s.46-1.03,1.03-1.03h22.59c3.59,0,6.5-2.91,6.5-6.5v-15.06c0-.57.46-1.03,1.03-1.03h22.59c3.59,0,6.5-2.91,6.5-6.5v-15.06c0-3.59-2.91-6.5-6.5-6.5h-22.59c-.57,0-1.03-.46-1.03-1.03v-15.06c0-3.59-2.91-6.5-6.5-6.5H14.03c-.57,0-1.03-.46-1.03-1.03s.46-1.03,1.03-1.03h22.59c3.59,0,6.5-2.91,6.5-6.5v-15.06c0-.57.46-1.03,1.03-1.03h22.59c3.59,0,6.5-2.91,6.5-6.5v-15.06c0-3.59-2.91-6.5-6.5-6.5h-22.59c-.57,0-1.03-.46-1.03-1.03v-15.06c0-3.59-2.91-6.5-6.5-6.5H14.03c-.57,0-1.03-.46-1.03-1.03s.46-1.03,1.03-1.03h22.59c3.59,0,6.5-2.91,6.5-6.5v-15.06c0-.57.46-1.03,1.03-1.03h22.59c3.59,0,6.5-2.91,6.5-6.5v-15.06c0-3.59-2.91-6.5-6.5-6.5h-22.59c-.57,0-1.03-.46-1.03-1.03v-15.06c0-3.59-2.91-6.5-6.5-6.5H14.03c-.57,0-1.03-.46-1.03-1.03s.46-1.03,1.03-1.03h22.59c3.59,0,6.5-2.91,6.5-6.5v-15.06c0-.57.46-1.03,1.03-1.03h22.81c3.38,0,6.19-2.58,6.48-5.95,2.11-24.86,21.69-44.44,46.55-46.56,3.36-.29,5.95-3.1,5.95-6.48v-22.81c0-.57.46-1.03,1.03-1.03h15.06c3.59,0,6.5-2.91,6.5-6.5V14.03c0-.57.46-1.03,1.03-1.03s1.03.46,1.03,1.03v22.59c0,3.59,2.91,6.5,6.5,6.5h15.06c.57,0,1.03.46,1.03,1.03v22.59c0,3.59,2.91,6.5,6.5,6.5h15.06c3.59,0,6.5-2.91,6.5-6.5v-22.59c0-.57.46-1.03,1.03-1.03h15.06c3.59,0,6.5-2.91,6.5-6.5V14.03c0-.57.46-1.03,1.03-1.03s1.03.46,1.03,1.03v22.59c0,3.59,2.91,6.5,6.5,6.5h15.06c.57,0,1.03.46,1.03,1.03v22.59c0,3.59,2.91,6.5,6.5,6.5h15.06c3.59,0,6.5-2.91,6.5-6.5v-22.59c0-.57.46-1.03,1.03-1.03h15.06c3.59,0,6.5-2.91,6.5-6.5V14.03c0-.57.46-1.03,1.03-1.03s1.03.46,1.03,1.03v22.59c0,3.59,2.91,6.5,6.5,6.5h15.06c.57,0,1.03.46,1.03,1.03v22.59c0,3.59,2.91,6.5,6.5,6.5h15.06c3.59,0,6.5-2.91,6.5-6.5v-22.59c0-.57.46-1.03,1.03-1.03h15.06c3.59,0,6.5-2.91,6.5-6.5V14.03c0-.57.46-1.03,1.03-1.03s1.03.46,1.03,1.03v22.59c0,3.59,2.91,6.5,6.5,6.5h15.06c.57,0,1.03.46,1.03,1.03v22.81c0,3.38,2.58,6.19,5.95,6.48,24.86,2.11,44.44,21.69,46.55,46.56.29,3.36,3.1,5.95,6.48,5.95h22.81c.57,0,1.03.46,1.03,1.03v15.06c0,3.59,2.91,6.5,6.5,6.5h22.59c.57,0,1.03.46,1.03,1.03s-.46,1.03-1.03,1.03h-22.59c-3.59,0-6.5,2.91-6.5,6.5v15.06c0,.57-.46,1.03-1.03,1.03h-22.59c-3.59,0-6.5,2.91-6.5,6.5v15.06c0,3.59,2.91,6.5,6.5,6.5h22.59c.57,0,1.03.46,1.03,1.03v15.06c0,3.59,2.91,6.5,6.5,6.5h22.59c.57,0,1.03.46,1.03,1.03s-.46,1.03-1.03,1.03h-22.59c-3.59,0-6.5,2.91-6.5,6.5v15.06c0,.57-.46,1.03-1.03,1.03h-22.59c-3.59,0-6.5,2.91-6.5,6.5v15.06c0,3.59,2.91,6.5,6.5,6.5h22.59c.57,0,1.03.46,1.03,1.03v15.06c0,3.59,2.91,6.5,6.5,6.5h22.59c.57,0,1.03.46,1.03,1.03s-.46,1.03-1.03,1.03h-22.59c-3.59,0-6.5,2.91-6.5,6.5v15.06c0,.57-.46,1.03-1.03,1.03h-22.59c-3.59,0-6.5,2.91-6.5,6.5v15.06c0,3.59,2.91,6.5,6.5,6.5h22.59c.57,0,1.03.46,1.03,1.03v15.06c0,3.59,2.91,6.5,6.5,6.5h22.59c.57,0,1.03.46,1.03,1.03s-.46,1.03-1.03,1.03h-22.59c-3.59,0-6.5,2.91-6.5,6.5v15.06c0,.57-.46,1.03-1.03,1.03h-22.81c-3.38,0-6.19,2.58-6.48,5.95-2.11,24.86-21.69,44.44-46.55,46.56-3.36.29-5.95,3.1-5.95,6.48v22.81c0,.57-.46,1.03-1.03,1.03h-15.06c-3.59,0-6.5,2.91-6.5,6.5v22.59c0,.57-.46,1.03-1.03,1.03ZM360.38,451.76c-3.59,0-6.5,2.91-6.5,6.5v15.06c0,3.59,2.91,6.5,6.5,6.5h30.12c3.59,0,6.5-2.91,6.5-6.5v-15.06c0-3.59-2.91-6.5-6.5-6.5h-30.12ZM134.5,451.76c-3.59,0-6.5,2.91-6.5,6.5v15.06c0,3.59,2.91,6.5,6.5,6.5h30.12c3.59,0,6.5-2.91,6.5-6.5v-15.06c0-3.59-2.91-6.5-6.5-6.5h-30.12ZM124.36,75.29c-13.09,0-25.4,5.11-34.68,14.39-9.28,9.28-14.39,21.59-14.38,34.68v276.28c0,27.06,22.01,49.07,49.07,49.07h276.28c27.06,0,49.07-22.01,49.07-49.07V124.36c0-27.06-22.01-49.07-49.07-49.07H124.36ZM458.26,353.88c-3.59,0-6.5,2.91-6.5,6.5v30.12c0,3.59,2.91,6.5,6.5,6.5h15.06c3.59,0,6.5-2.91,6.5-6.5v-30.12c0-3.59-2.91-6.5-6.5-6.5h-15.06ZM51.68,353.88c-3.59,0-6.5,2.91-6.5,6.5v30.12c0,3.59,2.91,6.5,6.5,6.5h15.06c3.59,0,6.5-2.91,6.5-6.5v-30.12c0-3.59-2.91-6.5-6.5-6.5h-15.06ZM458.26,278.59c-3.59,0-6.5,2.91-6.5,6.5v30.12c0,3.59,2.91,6.5,6.5,6.5h15.06c3.59,0,6.5-2.91,6.5-6.5v-30.12c0-3.59-2.91-6.5-6.5-6.5h-15.06ZM51.68,203.29c-3.59,0-6.5,2.91-6.5,6.5v30.12c0,3.59,2.91,6.5,6.5,6.5h15.06c3.59,0,6.5-2.91,6.5-6.5v-30.12c0-3.59-2.91-6.5-6.5-6.5h-15.06ZM458.26,128c-3.59,0-6.5,2.91-6.5,6.5v30.12c0,3.59,2.91,6.5,6.5,6.5h15.06c3.59,0,6.5-2.91,6.5-6.5v-30.12c0-3.59-2.91-6.5-6.5-6.5h-15.06ZM51.68,128c-3.59,0-6.5,2.91-6.5,6.5v30.12c0,3.59,2.91,6.5,6.5,6.5h15.06c3.59,0,6.5-2.91,6.5-6.5v-30.12c0-3.59-2.91-6.5-6.5-6.5h-15.06ZM209.79,45.18c-3.59,0-6.5,2.91-6.5,6.5v15.06c0,3.59,2.91,6.5,6.5,6.5h30.12c3.59,0,6.5-2.91,6.5-6.5v-15.06c0-3.59-2.91-6.5-6.5-6.5h-30.12Z"/>
          <path d="M300.15,47.22c2.12,1.51,4.72,2.4,7.53,2.4h9.59v17.12c0,.7.06,1.39.16,2.06h-34.56c.11-.67.16-1.36.16-2.06v-17.12h9.59c2.81,0,5.4-.89,7.53-2.4M375.44,47.22c2.12,1.51,4.72,2.4,7.53,2.4h9.59v17.34c0,.62.04,1.23.13,1.83h-34.53c.11-.67.16-1.36.16-2.06v-17.12h9.59c2.81,0,5.4-.89,7.53-2.4M149.56,47.22c2.12,1.51,4.72,2.4,7.53,2.4h9.59v17.12c0,.7.06,1.39.16,2.06h-34.53c.08-.6.13-1.21.13-1.83v-17.34h9.59c2.81,0,5.4-.89,7.53-2.4M456.21,207.57c.67.11,1.36.16,2.06.16h17.12v9.59c0,2.81.89,5.4,2.4,7.53-1.51,2.12-2.4,4.72-2.4,7.53v9.59h-17.12c-.7,0-1.39.06-2.06.16v-34.56M68.8,282.87v34.56c-.67-.11-1.36-.16-2.06-.16h-17.12v-9.59c0-2.81-.89-5.4-2.4-7.53,1.51-2.12,2.4-4.72,2.4-7.53v-9.59h17.12c.7,0,1.39-.06,2.06-.16M317.43,456.21c-.11.67-.16,1.36-.16,2.06v17.12h-9.59c-2.81,0-5.4.89-7.53,2.4-2.12-1.51-4.72-2.4-7.53-2.4h-9.59v-17.12c0-.7-.06-1.39-.16-2.06h34.56M242.13,456.21c-.11.67-.16,1.36-.16,2.06v17.12h-9.59c-2.81,0-5.4.89-7.53,2.4-2.12-1.51-4.72-2.4-7.53-2.4h-9.59v-17.12c0-.7-.06-1.39-.16-2.06h34.56M375.44,6.5c-4.16,0-7.53,3.37-7.53,7.53v22.59h-15.06c-4.16,0-7.53,3.37-7.53,7.53v22.59h-15.06v-22.59c0-4.16-3.37-7.53-7.53-7.53h-15.06V14.03c0-4.16-3.37-7.53-7.53-7.53s-7.53,3.37-7.53,7.53v22.59h-15.06c-4.16,0-7.53,3.37-7.53,7.53v22.59h-15.06v-22.59c0-4.16-3.37-7.53-7.53-7.53h-15.06V14.03c0-4.16-3.37-7.53-7.53-7.53s-7.53,3.37-7.53,7.53v22.59h-15.06c-4.16,0-7.53,3.37-7.53,7.53v22.59h-15.06v-22.59c0-4.16-3.37-7.53-7.53-7.53h-15.06V14.03c0-4.16-3.37-7.53-7.53-7.53s-7.53,3.37-7.53,7.53v22.59h-15.06c-4.16,0-7.53,3.37-7.53,7.53v22.81c-27.86,2.37-50.11,24.63-52.48,52.48h-22.81c-4.16,0-7.53,3.37-7.53,7.53v15.06H14.03c-4.16,0-7.53,3.37-7.53,7.53s3.37,7.53,7.53,7.53h22.59v15.06c0,4.16,3.37,7.53,7.53,7.53h22.59v15.06h-22.59c-4.16,0-7.53,3.37-7.53,7.53v15.06H14.03c-4.16,0-7.53,3.37-7.53,7.53s3.37,7.53,7.53,7.53h22.59v15.06c0,4.16,3.37,7.53,7.53,7.53h22.59v15.06h-22.59c-4.16,0-7.53,3.37-7.53,7.53v15.06H14.03c-4.16,0-7.53,3.37-7.53,7.53s3.37,7.53,7.53,7.53h22.59v15.06c0,4.16,3.37,7.53,7.53,7.53h22.59v15.06h-22.59c-4.16,0-7.53,3.37-7.53,7.53v15.06H14.03c-4.16,0-7.53,3.37-7.53,7.53s3.37,7.53,7.53,7.53h22.59v15.06c0,4.16,3.37,7.53,7.53,7.53h22.81c2.37,27.85,24.63,50.11,52.48,52.48v22.81c0,4.16,3.37,7.53,7.53,7.53h15.06v22.59c0,4.16,3.37,7.53,7.53,7.53s7.53-3.37,7.53-7.53v-22.59h15.06c4.16,0,7.53-3.37,7.53-7.53v-22.59h15.06v22.59c0,4.16,3.37,7.53,7.53,7.53h15.06v22.59c0,4.16,3.37,7.53,7.53,7.53s7.53-3.37,7.53-7.53v-22.59h15.06c4.16,0,7.53-3.37,7.53-7.53v-22.59h15.06v22.59c0,4.16,3.37,7.53,7.53,7.53h15.06v22.59c0,4.16,3.37,7.53,7.53,7.53s7.53-3.37,7.53-7.53v-22.59h15.06c4.16,0,7.53-3.37,7.53-7.53v-22.59h15.06v22.59c0,4.16,3.37,7.53,7.53,7.53h15.06v22.59c0,4.16,3.37,7.53,7.53,7.53s7.53-3.37,7.53-7.53v-22.59h15.06c4.16,0,7.53-3.37,7.53-7.53v-22.81c27.85-2.37,50.11-24.63,52.48-52.48h22.81c4.16,0,7.53-3.37,7.53-7.53v-15.06h22.59c4.16,0,7.53-3.37,7.53-7.53s-3.37-7.53-7.53-7.53h-22.59v-15.06c0-4.16-3.37-7.53-7.53-7.53h-22.59v-15.06h22.59c4.16,0,7.53-3.37,7.53-7.53v-15.06h22.59c4.16,0,7.53-3.37,7.53-7.53s-3.37-7.53-7.53-7.53h-22.59v-15.06c0-4.16-3.37-7.53-7.53-7.53h-22.59v-15.06h22.59c4.16,0,7.53-3.37,7.53-7.53v-15.06h22.59c4.16,0,7.53-3.37,7.53-7.53s-3.37-7.53-7.53-7.53h-22.59v-15.06c0-4.16-3.37-7.53-7.53-7.53h-22.59v-15.06h22.59c4.16,0,7.53-3.37,7.53-7.53v-15.06h22.59c4.16,0,7.53-3.37,7.53-7.53s-3.37-7.53-7.53-7.53h-22.59v-15.06c0-4.16-3.37-7.53-7.53-7.53h-22.81c-2.37-27.86-24.63-50.11-52.48-52.48v-22.81c0-4.16-3.37-7.53-7.53-7.53h-15.06V14.03c0-4.16-3.37-7.53-7.53-7.53h0ZM209.79,66.74v-15.06h30.12v15.06h-30.12ZM124.36,443.21c-23.47,0-42.57-19.1-42.57-42.57V124.36c0-23.47,19.09-42.57,42.57-42.57h276.28c23.47,0,42.57,19.1,42.57,42.57,0,139.74,0,50.59,0,276.28,0,23.47-19.1,42.57-42.57,42.57H124.36ZM458.26,164.62v-30.12h15.06v30.12h-15.06ZM51.68,164.62v-30.12h15.06v30.12h-15.06ZM51.68,239.91v-30.12h15.06v30.12h-15.06ZM458.26,315.21v-30.12h15.06v30.12h-15.06ZM458.26,390.5v-30.12h15.06v30.12h-15.06ZM51.68,390.5v-30.12h15.06v30.12h-15.06ZM360.38,473.32v-15.06h30.12v15.06h-30.12ZM134.5,473.32v-15.06h30.12v15.06h-30.12Z"/>
        </g>
        <g>
          <path class="cls-1" d="M126.97,399.06c-.57,0-1.03-.46-1.03-1.03V126.97c0-.57.46-1.03,1.03-1.03h271.06c.57,0,1.03.46,1.03,1.03v271.06c0,.57-.46,1.03-1.03,1.03H126.97ZM360.38,329.24c.57,0,1.03.46,1.03,1.03v60.24c0,3.59,2.91,6.5,6.5,6.5h22.59c3.59,0,6.5-2.91,6.5-6.5V134.5c0-3.59-2.91-6.5-6.5-6.5h-60.24c-3.59,0-6.5,2.91-6.5,6.5v60.24c0,.57-.46,1.03-1.03,1.03s-1.03-.46-1.03-1.03v-60.24c0-3.59-2.91-6.5-6.5-6.5h-15.06c-3.59,0-6.5,2.91-6.5,6.5v37.65c0,.57-.46,1.03-1.03,1.03s-1.03-.46-1.03-1.03v-37.65c0-3.59-2.91-6.5-6.5-6.5h-37.65c-3.59,0-6.5,2.91-6.5,6.5v69.06c0,2.75,1.73,5.21,4.33,6.13,6.42,2.28,10.73,8.37,10.73,15.17,0,8.87-7.22,16.09-16.09,16.09s-16.09-7.22-16.09-16.09c0-6.79,4.31-12.89,10.73-15.17,2.59-.92,4.33-3.37,4.33-6.13v-69.06c0-3.59-2.91-6.5-6.5-6.5h-45.18c-3.59,0-6.5,2.91-6.5,6.5v38.94c0,2.75,1.73,5.21,4.33,6.13,6.42,2.28,10.73,8.37,10.73,15.17,0,8.87-7.22,16.09-16.09,16.09s-16.09-7.22-16.09-16.09c0-6.8,4.31-12.89,10.73-15.17,2.59-.92,4.33-3.37,4.33-6.13v-38.94c0-3.59-2.91-6.5-6.5-6.5h-37.65c-3.59,0-6.5,2.91-6.5,6.5v256c0,3.59,2.91,6.5,6.5,6.5h75.29c3.59,0,6.5-2.91,6.5-6.5v-38.94c0-2.75-1.73-5.21-4.33-6.13-6.42-2.28-10.73-8.37-10.73-15.17,0-8.87,7.22-16.09,16.09-16.09s16.09,7.22,16.09,16.09c0,6.79-4.31,12.89-10.73,15.17-2.59.92-4.33,3.37-4.33,6.13v38.94c0,3.59,2.91,6.5,6.5,6.5h45.18c3.59,0,6.5-2.91,6.5-6.5v-69.06c0-2.75-1.73-5.21-4.33-6.13-6.42-2.28-10.73-8.37-10.73-15.17,0-8.87,7.22-16.09,16.09-16.09s16.09,7.22,16.09,16.09c0,6.8-4.31,12.89-10.73,15.17-2.59.92-4.33,3.37-4.33,6.13v69.06c0,3.59,2.91,6.5,6.5,6.5h37.65c3.59,0,6.5-2.91,6.5-6.5v-37.65c0-.57.46-1.03,1.03-1.03s1.03.46,1.03,1.03v37.65c0,3.59,2.91,6.5,6.5,6.5h15.06c3.59,0,6.5-2.91,6.5-6.5v-60.24c0-.57.46-1.03,1.03-1.03ZM217.32,316.24c-7.74,0-14.03,6.29-14.03,14.03s6.29,14.03,14.03,14.03,14.03-6.29,14.03-14.03-6.29-14.03-14.03-14.03ZM277.56,286.12c-7.74,0-14.03,6.29-14.03,14.03s6.29,14.03,14.03,14.03,14.03-6.29,14.03-14.03-6.29-14.03-14.03-14.03ZM239.91,210.82c-7.74,0-14.03,6.29-14.03,14.03s6.29,14.03,14.03,14.03,14.03-6.29,14.03-14.03-6.29-14.03-14.03-14.03ZM179.68,180.71c-7.74,0-14.03,6.29-14.03,14.03s6.29,14.03,14.03,14.03,14.03-6.29,14.03-14.03-6.29-14.03-14.03-14.03Z"/>
          <path d="M398.03,119.44H126.97c-4.16,0-7.53,3.37-7.53,7.53v271.06c0,4.16,3.37,7.53,7.53,7.53h271.06c4.16,0,7.53-3.37,7.53-7.53V126.97c0-4.16-3.37-7.53-7.53-7.53h0ZM322.74,202.26c4.16,0,7.53-3.37,7.53-7.53v-60.24h60.24v256h-22.59v-60.24c0-4.16-3.37-7.53-7.53-7.53s-7.53,3.37-7.53,7.53v60.24h-15.06v-37.65c0-4.16-3.37-7.53-7.53-7.53s-7.53,3.37-7.53,7.53v37.65h-37.65v-69.06c8.76-3.11,15.06-11.48,15.06-21.29,0-12.45-10.13-22.59-22.59-22.59s-22.59,10.13-22.59,22.59c0,9.82,6.3,18.19,15.06,21.29v69.06h-45.18v-38.94c8.76-3.11,15.06-11.48,15.06-21.29,0-12.45-10.13-22.59-22.59-22.59s-22.59,10.13-22.59,22.59c0,9.82,6.3,18.19,15.06,21.29v38.94h-75.29V134.5h37.65v38.94c-8.76,3.11-15.06,11.48-15.06,21.29,0,12.46,10.13,22.59,22.59,22.59s22.59-10.13,22.59-22.59c0-9.82-6.3-18.19-15.06-21.29v-38.94h45.18v69.06c-8.76,3.11-15.06,11.48-15.06,21.29,0,12.46,10.13,22.59,22.59,22.59s22.59-10.13,22.59-22.59c0-9.82-6.3-18.19-15.06-21.29v-69.06h37.65v37.65c0,4.16,3.37,7.53,7.53,7.53s7.53-3.37,7.53-7.53v-37.65h15.06v60.24c0,4.16,3.37,7.53,7.53,7.53h0ZM179.68,202.26c-4.15,0-7.53-3.38-7.53-7.53s3.38-7.53,7.53-7.53,7.53,3.38,7.53,7.53-3.38,7.53-7.53,7.53h0ZM239.91,232.38c-4.15,0-7.53-3.38-7.53-7.53s3.38-7.53,7.53-7.53,7.53,3.38,7.53,7.53-3.38,7.53-7.53,7.53h0ZM277.56,307.68c-4.15,0-7.53-3.38-7.53-7.53s3.38-7.53,7.53-7.53,7.53,3.38,7.53,7.53-3.38,7.53-7.53,7.53h0ZM217.32,337.79c-4.15,0-7.53-3.38-7.53-7.53s3.38-7.53,7.53-7.53,7.53,3.38,7.53,7.53-3.38,7.53-7.53,7.53h0Z"/>
        </g>
      </g>
    </g>
  </g>
</svg>