<?xml version="1.0" encoding="UTF-8"?>
<svg id="Layer_2" xmlns="http://www.w3.org/2000/svg" viewBox="0 0 433.64 523">
  <defs>
    <style>
      .cls-1 {
        fill: #00b2ca;
      }
    </style>
  </defs>
  <g id="Bottom_navigation">
    <g id="Warranty">
      <g>
        <g>
          <path class="cls-1" d="M71.58,510c-32.3,0-58.58-26.28-58.58-58.58V71.58c0-32.3,26.28-58.58,58.58-58.58h290.48c32.3,0,58.58,26.28,58.58,58.58v379.84c0,32.3-26.28,58.58-58.58,58.58H71.58ZM71.58,14c-31.75,0-57.58,25.83-57.58,57.58v379.84c0,31.75,25.83,57.58,57.58,57.58h290.48c31.75,0,57.58-25.83,57.58-57.58V71.58c0-31.75-25.83-57.58-57.58-57.58h-45.42v42.78c0,13.02-10.56,23.62-23.54,23.62h-152.48c-13.02,0-23.62-10.6-23.62-23.62V14h-45.42Z"/>
          <path d="M310.14,19.5v37.28c0,9.44-7.64,17.12-17.04,17.12h-152.48c-9.44,0-17.12-7.68-17.12-17.12V19.5h186.64M362.06,6.5H71.58C35.69,6.5,6.5,35.7,6.5,71.58v379.84c0,35.89,29.19,65.08,65.08,65.08h290.48c35.88,0,65.08-29.19,65.08-65.08V71.58c0-35.88-29.2-65.08-65.08-65.08h0ZM140.62,86.9h152.48c16.56,0,30.04-13.51,30.04-30.12V20.5h38.92c28.17,0,51.08,22.92,51.08,51.08v379.84c0,28.17-22.91,51.08-51.08,51.08H71.58c-28.16,0-51.08-22.91-51.08-51.08V71.58c0-28.16,22.92-51.08,51.08-51.08h38.92v36.28c0,16.61,13.51,30.12,30.12,30.12h0Z"/>
        </g>
        <g>
          <path class="cls-1" d="M182.4,281.88c-1.77,0-3.5-.57-4.99-1.65-2.89-2.12-4.2-5.76-3.29-9.23l9.07-34.07-27.34-22.44c-2.79-2.23-3.86-5.83-2.79-9.22,1.07-3.4,4.06-5.77,7.63-6.04l35.35-1.85,12.79-33.1c1.28-3.31,4.37-5.44,7.89-5.44.29,0,.57-.02.85-.05,3.25.25,6.08,2.34,7.28,5.43l12.78,33.06,35.24,1.94c3.64.28,6.68,2.63,7.74,5.99,1.12,3.41.06,7.04-2.67,9.31l-27.38,22.19,8.98,34.28c.9,3.5-.41,7.12-3.33,9.19-1.54,1.11-3.25,1.68-5.01,1.68-1.61,0-3.19-.49-4.57-1.41l-29.75-19.14-29.85,19.15c-1.39.92-2.98,1.41-4.61,1.41Z"/>
          <path d="M217.38,165.32c.64.15,1.13.59,1.38,1.23l11.27,29.16,3.03,7.83,8.39.46,30.95,1.7c.99.09,1.73.64,2,1.47l.02.07.02.07c.27.81.03,1.6-.64,2.18l-24.1,19.53-6.52,5.28,2.13,8.11,7.91,30.17c.23.93-.05,1.76-.79,2.28l-.05.03-.05.03c-.38.27-.77.41-1.16.41-.33,0-.65-.1-.96-.31l-.09-.06-.1-.06-26.14-16.82-7.02-4.52-7.03,4.51-26.24,16.83-.1.06-.1.07c-.32.21-.66.32-1,.32-.39,0-.77-.13-1.14-.39-.76-.58-1.08-1.45-.86-2.33l7.99-30.01,2.15-8.09-6.47-5.31-24.11-19.78-.06-.05-.06-.05c-.64-.51-.86-1.29-.58-2.16.27-.85.96-1.4,1.87-1.49l31.03-1.62,8.41-.44,3.04-7.86,11.27-29.17c.32-.83.97-1.28,1.82-1.28.23,0,.46,0,.68-.02M217.11,152.27c-.16.06-.3.07-.41.07-6.23,0-11.7,3.77-13.95,9.6l-11.27,29.17-31.21,1.63c-6.27.45-11.55,4.61-13.42,10.58-1.88,5.97.03,12.33,4.87,16.2l24.11,19.78-8,30.06c-1.58,6.06.69,12.4,5.78,16.14,2.66,1.92,5.73,2.88,8.79,2.88,2.86,0,5.71-.83,8.22-2.51l26.24-16.83,26.14,16.82c2.5,1.67,5.34,2.5,8.18,2.5,3.06,0,6.12-.96,8.77-2.87,5.14-3.64,7.44-9.98,5.86-16.14l-7.92-30.22,24.18-19.6c4.81-3.99,6.66-10.37,4.72-16.27-1.88-5.94-7.18-10.06-13.52-10.52l-31.11-1.71-11.27-29.16c-2.24-5.76-7.64-9.51-13.78-9.6h0Z"/>
        </g>
        <g>
          <path class="cls-1" d="M114.29,356.15c-.27,0-.5-.23-.5-.5s.23-.5.5-.5h205.08c.27,0,.5.23.5.5s-.23.5-.5.5H114.29Z"/>
          <path d="M319.37,348.65H114.29c-3.86,0-7,3.14-7,7s3.14,7,7,7h205.08c3.86,0,7-3.14,7-7s-3.14-7-7-7h0Z"/>
        </g>
        <g>
          <path class="cls-1" d="M114.29,430.44c-.27,0-.5-.23-.5-.5s.23-.5.5-.5h205.08c.27,0,.5.23.5.5s-.23.5-.5.5H114.29Z"/>
          <path d="M319.37,422.94H114.29c-3.86,0-7,3.14-7,7s3.14,7,7,7h205.08c3.86,0,7-3.14,7-7s-3.14-7-7-7h0Z"/>
        </g>
      </g>
    </g>
  </g>
</svg>