<?xml version="1.0" encoding="UTF-8"?>
<svg id="Layer_2" data-name="Layer 2" xmlns="http://www.w3.org/2000/svg" viewBox="0 0 168 149.89">
  <defs>
    <style>
      .cls-1 {
        fill: #00b2ca;
      }
    </style>
  </defs>
  <g id="Bottom_navigation" data-name="Bottom navigation">
    <g id="Fish">
      <path class="cls-1" d="M41,57.89c0-4.42-3.58-8-8-8s-8,3.58-8,8c0,4.42,3.58,8,8,8h0c4.42,0,7.99-3.58,8-8ZM29,57.89c0-2.21,1.79-4,4-4,2.21,0,4,1.79,4,4s-1.79,4-4,4h0c-2.21,0-4-1.79-4-4Z"/>
      <path class="cls-1" d="M26,41.89c3.31,0,6-2.69,6-6,0-3.31-2.69-6-6-6-3.31,0-6,2.69-6,6,0,3.31,2.69,6,6,6ZM26,33.89c1.1,0,2,.9,2,2s-.9,2-2,2-2-.9-2-2h0c0-1.1.9-2,2-2Z"/>
      <path class="cls-1" d="M40,83.39c-2.76,0-5,2.24-5,5,0,2.76,2.24,5,5,5,2.76,0,5-2.24,5-5,0-2.76-2.24-5-5-5ZM40,89.39c-.55,0-1-.45-1-1s.45-1,1-1c.55,0,1,.45,1,1,0,.55-.45,1-1,1Z"/>
      <g>
        <path d="M108,19.17c1.66,0,3-1.34,3-3s-1.34-3-3-3-3,1.34-3,3c0,1.66,1.34,3,3,3ZM108,14.67c.83,0,1.5.67,1.5,1.5s-.67,1.5-1.5,1.5-1.5-.67-1.5-1.5c0-.83.67-1.5,1.5-1.5Z"/>
        <path d="M158.3,61.89c-1.1,0-2,.9-2,2s.9,2,2,2,2-.9,2-2c0-1.1-.9-2-2-2ZM158.3,64.89c-.55,0-1-.45-1-1s.45-1,1-1,1,.45,1,1c0,.55-.45,1-1,1Z"/>
        <path d="M17,3.89c-1.1,0-2,.9-2,2s.9,2,2,2,2-.9,2-2c0-1.1-.9-2-2-2ZM17,6.89c-.55,0-1-.45-1-1s.45-1,1-1,1,.45,1,1c0,.55-.45,1-1,1Z"/>
        <path d="M52,25.89c-1.1,0-2,.9-2,2s.9,2,2,2,2-.9,2-2c0-1.1-.9-2-2-2ZM52,28.89c-.55,0-1-.45-1-1s.45-1,1-1,1,.45,1,1c0,.55-.45,1-1,1Z"/>
        <path d="M101.67,41.58c0-1.1-.9-2-2-2s-2,.9-2,2,.9,2,2,2c1.1,0,2-.9,2-2ZM98.67,41.58c0-.55.45-1,1-1s1,.45,1,1-.45,1-1,1c-.55,0-1-.45-1-1Z"/>
      </g>
      <path class="cls-1" d="M10.89,61.9l1.49-1.96-.94-.53-.95,2.19h-.03l-.97-2.18-.95.55,1.47,1.91v.03l-2.3-.3v1.06l2.32-.3v.03l-1.49,1.91.89.56,1.02-2.21h.03l.94,2.19.99-.56-1.5-1.88v-.03l2.36.28v-1.06l-2.36.31v-.03Z"/>
      <path class="cls-1" d="M74.01,4.05l-.86,1.1.51.32.59-1.27h.02l.54,1.26.57-.32-.86-1.08v-.02l1.36.16v-.61l-1.36.18v-.02l.86-1.13-.54-.31-.55,1.26h-.02l-.56-1.25-.55.31.85,1.1v.02l-1.32-.17v.61l1.33-.17v.02Z"/>
      <path class="cls-1" d="M148.83,39.41v-1.04l-2.32.31v-.03l1.46-1.92-.92-.52-.94,2.15h-.03l-.95-2.13-.94.54,1.44,1.87v.03l-2.26-.29v1.04l2.27-.29v.03l-1.46,1.87.88.55,1-2.16h.03l.92,2.15.97-.55-1.47-1.84v-.03l2.32.28Z"/>
      <path class="cls-1" d="M146.46,2.1l1.26-1.65-.79-.45-.81,1.85h-.03l-.82-1.84-.81.46,1.24,1.61v.03l-1.95-.25v.9l1.96-.25v.03l-1.26,1.61.75.48.86-1.87h.02l.79,1.85.83-.48-1.27-1.59v-.03l2,.24v-.9l-2,.26v-.03Z"/>
      <circle cx="2" cy="133.89" r="2"/>
      <path d="M11,131.89h-3c-1.1,0-2,.9-2,2s.9,2,2,2h3c1.1,0,2-.9,2-2s-.9-2-2-2Z"/>
      <path d="M160,131.89h-3c-1.1,0-2,.9-2,2s.9,2,2,2h3c1.1,0,2-.9,2-2s-.9-2-2-2Z"/>
      <circle cx="166" cy="133.89" r="2"/>
      <path class="cls-1" d="M118.15,139.89h-8.31c-1.1.09-1.93,1.06-1.84,2.16.08.98.86,1.76,1.84,1.84h8.31c1.1-.09,1.93-1.06,1.84-2.16-.08-.98-.86-1.76-1.84-1.84Z"/>
      <path class="cls-1" d="M58.15,139.89h-8.31c-1.1.09-1.93,1.06-1.84,2.16.08.98.86,1.76,1.84,1.84h8.31c1.1-.09,1.93-1.06,1.84-2.16-.08-.98-.86-1.76-1.84-1.84Z"/>
      <path class="cls-1" d="M104,139.89h-40c-1.1,0-2,.9-2,2s.9,2,2,2h15.94v2h-7.94c-1.1,0-2,.9-2,2s.9,2,2,2h25c1.1,0,2-.9,2-2s-.9-2-2-2h-8.94v-2h15.94c1.1,0,2-.9,2-2s-.9-2-2-2Z"/>
      <path d="M150.72,131.89h-43.25c2.24-.98,4.77-2.12,6.14-2.83,1.25-.65,3.57-1.85,3.38-3.91-.06-.67-.46-1.87-2.4-2.46-3.26-1.07-6.38-2.52-9.3-4.31,3.85-1.95,7.56-4.15,11.11-6.6.19-.09.37-.21.52-.36,1.63-1.14,3-2.18,4.08-3.03.7-.55,1.56-.85,2.45-.85,1.01,0,1.99.38,2.74,1.06,5.21,4.72,12.35,7.83,16.57,9.78.77.38,1.61.6,2.47.63,2.33,0,3.35-2.17,2.44-5.45-1.06-3.78-2.08-7.06-2.78-10.17h0c-2.05-2.72-7.76-5.84-10.85-7.39-.5-.25-.69-.86-.44-1.35.1-.2.27-.36.47-.46,3.23-1.46,8.52-4.48,10.78-7.44h0c.54-3.31,1.26-6.57,2.15-9.79.93-3.31-.19-5.64-2.6-5.64-.84.03-1.66.24-2.4.62-5.86,2.77-12.19,7.97-15.79,10.67-.69.51-1.52.79-2.38.79-.9,0-1.78-.31-2.48-.87-2.57-2.07-5.09-3.92-7.59-5.61-.01-.01-.02-.02-.04-.03,0-.01-.02-.01-.03-.02-3.09-2.1-6.29-4.03-9.6-5.77,3.28-2.1,6.81-3.78,10.5-5.02,1.94-.59,2.34-1.79,2.4-2.46.19-2.06-2.13-3.27-3.38-3.91-2.73-1.41-10-4.51-10.51-4.71-6.1-2.4-13.27-3.85-24.36,1.8l-9,6.2c-23.71,1.4-40.55,17.44-47.87,26.74-2.74,3.47-2.4,9.4.57,12.68,16.46,18.1,33.54,24.22,48.88,24.45l7.19,4.97.09.05H17.28c-1.1-.15-2.12.63-2.26,1.74s.63,2.12,1.74,2.26c.17.02.35.02.53,0h133.44c1.1.15,2.12-.63,2.26-1.74s-.63-2.12-1.74-2.26c-.17-.02-.35-.02-.53,0h0ZM112.32,80.78l5.7,4.22c.27.22.55.42.82.64,1.42,1.13,3.18,1.76,4.99,1.76,1.72,0,3.4-.56,4.77-1.59.62-.46,1.31-.99,2.07-1.57,3.46-2.66,8.15-6.26,12.49-8.42,0,.02,0,.04,0,.06-.84,3-1.53,6.04-2.06,9.11-2.58,2.29-5.51,4.16-8.67,5.55-2.52,1.15-3.63,4.12-2.48,6.64.47,1.04,1.28,1.88,2.3,2.39,4.86,2.45,7.74,4.48,8.98,5.69.49,2.06,1.1,4.16,1.74,6.38.26.9.53,1.84.8,2.8l-.2-.1c-4.1-1.87-10.28-4.71-14.68-8.7-2.66-2.43-6.62-2.79-9.67-.87l-5.08,3.72c-1.92,1.32-4.18,2.78-6.74,4.24.38-1.04.69-2.06.99-3.04.34-1.17.73-2.32,1.19-3.44.51-1.18,1.07-2.33,1.61-3.44,1.62-3.32,3.16-6.47,3-9.75-.21-4.39-2.69-7.76-4.68-10.47-.55-.75-1.07-1.46-1.51-2.14-.79-1.2-1.48-2.46-2.08-3.77,2.13,1.25,4.27,2.61,6.41,4.1h0ZM104.63,82.63c.51.77,1.06,1.53,1.65,2.32,1.84,2.52,3.75,5.12,3.91,8.3.1,2.26-1.15,4.83-2.61,7.81-.56,1.15-1.13,2.33-1.68,3.6-.52,1.26-.97,2.55-1.34,3.86-.65,2.63-1.76,5.13-3.27,7.38-1.83.86-3.75,1.69-5.76,2.45l-5.86,1.97c-1.47.42-2.98.8-4.52,1.14,1.2-2.55,2.17-5.19,2.91-7.91.42-1.39.82-2.71,1.27-3.9.43-1.15.89-2.28,1.33-3.37,1.83-4.54,3.55-8.82,3.25-13.07-.39-5.35-3.12-9.46-5.53-13.08-.56-.85-1.11-1.66-1.6-2.47-1.1-1.81-2.09-3.69-2.94-5.63-.65-1.65-1.57-3.18-2.71-4.53,1.56.24,3.13.55,4.7.92l7.63,2.31c1.57.58,3.15,1.22,4.73,1.94,1.69,1.21,2.98,2.91,3.71,4.86.76,1.77,1.68,3.48,2.73,5.1h0ZM80.67,60.3c10.09-5.1,16.11-3.49,20.97-1.58.44.18,6.74,2.86,9.61,4.28-3.99,1.61-7.81,3.64-11.38,6.04-7.28-3.4-15.13-5.44-23.14-6.02l3.94-2.72ZM32.27,106.52c-.83-.74-1.66-1.51-2.48-2.3l5.15-.79-2.67,3.09ZM59.07,121.27c-8.71-2.27-16.82-6.43-23.75-12.17l6.19-7.16c.72-.83.64-2.09-.19-2.81-.44-.39-1.04-.56-1.62-.47l-13.37,2.05c-.31-.33-.62-.64-.93-.98-1.72-2.17-1.88-5.19-.39-7.52,3.41-4.33,13.53-15.81,28.89-21.71,3.42,2.15,3.95,3.21,5.14,5.61.94,1.97,2.02,3.86,3.24,5.67.52.8,1.11,1.6,1.72,2.43,2.25,3.09,4.57,6.28,4.9,10.23.26,3.11-1.24,6.6-2.99,10.65-.43,1-.88,2.03-1.31,3.09-.51,1.25-.93,2.55-1.37,3.94-.87,3.26-2.27,6.35-4.16,9.15ZM69.42,122.8c-2.05-.1-4.09-.32-6.11-.66,1.61-2.77,2.86-5.72,3.73-8.8.42-1.31.81-2.54,1.26-3.65.43-1.03.86-2.04,1.28-3.02,1.88-4.35,3.65-8.46,3.31-12.56-.42-5.07-3.2-8.89-5.66-12.25-.57-.79-1.13-1.55-1.63-2.3-1.11-1.67-2.1-3.41-2.97-5.22-.88-2.11-2.26-3.97-4.03-5.41,2.09-.59,4.21-1.06,6.35-1.4l5.19-.55c.97-.06,1.94-.09,2.93-.09.32,0,.65.02.97.02,3.98,2.63,4.9,4,6.16,6.77.92,2.09,1.98,4.11,3.17,6.06.51.85,1.09,1.71,1.68,2.6,2.24,3.37,4.56,6.86,4.87,11.16.24,3.32-1.25,7.01-2.97,11.28-.45,1.12-.92,2.27-1.36,3.45-.51,1.33-.92,2.71-1.36,4.18-1,3.34-2.04,6.79-4.25,9.95-1.91.25-3.87.42-5.85.49l-4.71-.05ZM80.67,128.47l-2.7-1.86c7.95-.82,15.71-2.9,23-6.18,3.24,2.12,6.68,3.91,10.28,5.34-2.87,1.41-9.17,4.1-9.61,4.27-4.86,1.92-10.88,3.53-20.97-1.57h0Z"/>
      <path class="cls-1" d="M80.64,106.13c-.44,1.06-.88,2.15-1.32,3.28-.45,1.17-.84,2.47-1.26,3.84-.89,3.36-2.21,6.58-3.93,9.6l-4.71-.05c.07-.18.16-.36.27-.52,2.42-3.21,3.5-6.76,4.54-10.2.44-1.44.86-2.8,1.36-4.11.44-1.15.9-2.27,1.35-3.36,1.73-4.22,3.22-7.86,2.98-11.13-.32-4.21-2.64-7.62-4.88-10.92-.6-.88-1.18-1.73-1.69-2.56-1.2-1.91-2.26-3.9-3.19-5.96-1.02-2.66-2.84-4.93-5.21-6.51l5.19-.55c1.61,1.49,2.86,3.33,3.65,5.37.85,1.91,1.84,3.76,2.95,5.54.49.79,1.04,1.59,1.6,2.42,2.42,3.56,5.17,7.6,5.56,12.88.32,4.21-1.42,8.45-3.26,12.94Z"/>
      <path class="cls-1" d="M104.17,92.89c.2,3.93-1.56,7.83-3.42,11.96-.5,1.1-1.01,2.23-1.5,3.4-.48,1.15-.89,2.43-1.34,3.8-.65,2.15-1.44,4.26-2.38,6.3l-5.86,1.97s.02-.04.04-.05c2.29-2.96,3.36-6.26,4.4-9.45.47-1.45.91-2.82,1.45-4.11.51-1.21,1.03-2.37,1.54-3.51,1.73-3.83,3.22-7.15,3.08-10.11-.2-4.03-2.43-7.28-4.59-10.42-.55-.81-1.09-1.59-1.58-2.37-1.14-1.81-2.16-3.69-3.04-5.64-.98-2.59-2.79-4.78-5.14-6.24l7.63,2.31c.39.67.75,1.4,1.14,2.23.81,1.8,1.74,3.54,2.8,5.21.46.73.97,1.47,1.49,2.24,2.24,3.26,5.03,7.32,5.28,12.48Z"/>
      <path class="cls-1" d="M121.07,99.56c-.54.92-1.01,1.89-1.4,2.89-.23.76-.39,1.53-.46,2.32l-5.08,3.72c.64-1.27,1.02-2.67,1.1-4.09.1-1.13.33-2.24.68-3.32.46-1.18,1.01-2.33,1.65-3.43.75-1.39,1.46-2.69,1.4-3.63-.11-1.45-1.18-2.71-2.31-4.05-.66-.74-1.25-1.53-1.78-2.37-.8-1.34-1.37-2.8-1.69-4.33-.11-.88-.41-1.73-.86-2.49l5.7,4.22c.1.19.18.37.3.58.42.64.88,1.24,1.39,1.81,1.35,1.6,3.03,3.59,3.23,6.33.16,2.12-.87,4.01-1.87,5.84Z"/>
    </g>
  </g>
</svg>