<?xml version="1.0" encoding="UTF-8"?>
<svg id="Layer_2" data-name="Layer 2" xmlns="http://www.w3.org/2000/svg" viewBox="0 0 168 155">
  <defs>
    <style>
      .cls-1 {
        fill: #00b2ca;
      }
    </style>
  </defs>
  <g id="Bottom_navigation" data-name="Bottom navigation">
    <g id="Dogs">
      <path d="M89.06,25.8c1.66,0,3-1.34,3-3s-1.34-3-3-3-3,1.34-3,3c0,1.66,1.34,3,3,3ZM89.06,21.3c.83,0,1.5.67,1.5,1.5s-.67,1.5-1.5,1.5-1.5-.67-1.5-1.5c0-.83.67-1.5,1.5-1.5Z"/>
      <path d="M123.06,1c-1.1,0-2,.9-2,2s.9,2,2,2,2-.9,2-2c0-1.1-.9-2-2-2ZM123.06,4c-.55,0-1-.45-1-1s.45-1,1-1,1,.45,1,1c0,.55-.45,1-1,1Z"/>
      <path d="M59,0c-1.1,0-2,.9-2,2s.9,2,2,2,2-.9,2-2c0-1.1-.9-2-2-2ZM59,3c-.55,0-1-.45-1-1s.45-1,1-1,1,.45,1,1c0,.55-.45,1-1,1Z"/>
      <path d="M135.06,27.5c-1.1,0-2,.9-2,2s.9,2,2,2,2-.9,2-2c0-1.1-.9-2-2-2ZM135.06,30.5c-.55,0-1-.45-1-1s.45-1,1-1,1,.45,1,1c0,.55-.45,1-1,1Z"/>
      <path d="M15,62.5c0-1.1-.9-2-2-2s-2,.9-2,2,.9,2,2,2c1.1,0,2-.9,2-2ZM12,62.5c0-.55.45-1,1-1s1,.45,1,1-.45,1-1,1c-.55,0-1-.45-1-1Z"/>
      <path class="cls-1" d="M37.86,31.51l1.49-1.96-.94-.53-.95,2.19h-.03l-.97-2.17-.96.55,1.47,1.91v.03l-2.3-.3v1.06l2.32-.3v.03l-1.49,1.91.89.56,1.02-2.21h.03l.94,2.19.99-.56-1.5-1.88v-.03l2.36.28v-1.06l-2.36.31v-.03Z"/>
      <path class="cls-1" d="M8.83,19.57l-.86,1.1.51.32.59-1.27h.02l.54,1.26.57-.32-.86-1.08v-.02l1.36.16v-.61l-1.36.18v-.02l.86-1.13-.54-.31-.55,1.26h-.02l-.56-1.25-.55.32.85,1.1v.02l-1.32-.17v.61l1.33-.17v.02Z"/>
      <path class="cls-1" d="M159.06,61.02v-1.04l-2.32.31v-.03l1.46-1.92-.92-.52-.94,2.15h-.03l-.95-2.13-.94.54,1.44,1.87v.03l-2.26-.29v1.04l2.27-.29v.03l-1.46,1.87.88.55,1-2.17h.03l.92,2.15.97-.55-1.47-1.84v-.03l2.32.28Z"/>
      <path class="cls-1" d="M158.85,13.19l1.26-1.65-.79-.45-.81,1.85h-.03l-.82-1.84-.81.46,1.24,1.61v.03l-1.95-.25v.9l1.96-.25v.03l-1.26,1.61.75.48.86-1.87h.03l.79,1.85.83-.48-1.27-1.59v-.03l2,.24v-.9l-2,.26v-.03Z"/>
      <circle cx="2" cy="139" r="2"/>
      <path d="M11,137h-3c-1.1,0-2,.9-2,2s.9,2,2,2h3c1.1,0,2-.9,2-2s-.9-2-2-2Z"/>
      <path d="M160,137h-3c-1.1,0-2,.9-2,2s.9,2,2,2h3c1.1,0,2-.9,2-2s-.9-2-2-2Z"/>
      <circle cx="166" cy="139" r="2"/>
      <path class="cls-1" d="M118.15,145h-8.31c-1.1.09-1.93,1.06-1.84,2.16.08.98.86,1.76,1.84,1.84h8.31c1.1-.09,1.93-1.06,1.84-2.16-.08-.98-.86-1.76-1.84-1.84Z"/>
      <path class="cls-1" d="M58.15,145h-8.31c-1.1.09-1.93,1.06-1.84,2.16.08.98.86,1.76,1.84,1.84h8.31c1.1-.09,1.93-1.06,1.84-2.16-.08-.98-.86-1.76-1.84-1.84Z"/>
      <path class="cls-1" d="M104,145h-40c-1.1,0-2,.9-2,2s.9,2,2,2h15.94v2h-7.94c-1.1,0-2,.9-2,2s.9,2,2,2h25c1.1,0,2-.9,2-2s-.9-2-2-2h-8.94v-2h15.94c1.1,0,2-.9,2-2s-.9-2-2-2Z"/>
      <path d="M23.68,96.35l.53.91c1.39,2.54,2.45,5.24,3.17,8.05.08.27.16.55.23.83.33,1.46.88,2.87,1.62,4.17,1.28,2.03,4.11,3.46,6.43,2.23,14.67-7.8,13.41-34.67,13.35-35.81-.06-1.1-1.01-1.95-2.11-1.89-1.1.06-1.94,1-1.89,2.1.01.25,1.19,25.46-11.2,32.06-.21.06-.88-.33-1.19-.82-.54-.85-2.13-6.41-2.59-7.69-.08-2.19.07-7.76,1.68-10.45.57-.94.27-2.17-.67-2.75-.94-.57-2.17-.27-2.75.67,0,0,0,.01-.01.02-.9,1.65-1.51,3.45-1.78,5.31-.9-1.45-1.61-3.01-2.09-4.64-.98-3.69-.25-7.62,1.99-10.71.41-.56.66-1.22.73-1.91.45-4.29,3.68-25.89,23.7-29.2.24-.04.48-.13.69-.25,4.85-2.62,10.02-4.59,15.39-5.86,1.24.99,11.59,9.75,8.48,23.87-.24,1.08.44,2.15,1.52,2.38,1.08.24,2.15-.44,2.38-1.52,2.07-9.3-.79-19.02-7.56-25.72,1.46-.25,2.98-.45,4.54-.59,1.66-.15,13.77-.15,15.42,0,1.56.14,3.08.35,4.54.6-6.78,6.7-9.63,16.42-7.56,25.72.26,1.06,1.31,1.73,2.38,1.52,1.08-.24,1.76-1.3,1.52-2.38-3.13-14.21,7.14-22.81,8.48-23.86,5.36,1.28,10.54,3.25,15.39,5.86.21.13.45.21.69.25,20.02,3.31,23.26,24.9,23.7,29.2.07.69.33,1.35.74,1.91,2.24,3.09,2.97,7.02,1.99,10.7-.48,1.62-1.18,3.18-2.07,4.61-.28-1.85-.89-3.64-1.79-5.28-.57-.95-1.8-1.25-2.74-.68-.95.57-1.25,1.8-.68,2.74,1.65,2.75,1.8,8.34,1.72,10.35-.47,1.32-2.09,6.94-2.62,7.79-.27.42-.68.71-1.16.83-12.42-6.6-11.24-31.81-11.23-32.06.06-1.1-.79-2.04-1.89-2.1-1.1-.06-2.04.79-2.1,1.89-.06,1.14-1.33,28.01,13.35,35.81,2.32,1.23,5.14-.2,6.43-2.24.74-1.3,1.29-2.7,1.62-4.17.08-.28.15-.55.23-.83.72-2.8,1.78-5.51,3.17-8.05l.53-.91c1.36-2.08,2.41-4.34,3.13-6.72,1.29-4.83.32-9.99-2.62-14.03-.5-4.78-4.1-28.7-26.67-32.67-8.1-4.29-16.96-6.94-26.08-7.8-1.89-.18-14.27-.18-16.16,0-9.12.86-17.99,3.51-26.08,7.8-22.56,3.97-26.17,27.89-26.68,32.67-2.93,4.05-3.89,9.2-2.61,14.03.72,2.38,1.77,4.64,3.13,6.72Z"/>
      <path class="cls-1" d="M63,58c-3.31,0-6,2.69-6,6,0,3.31,2.69,6,6,6,3.31,0,6-2.69,6-6h0c0-3.31-2.69-6-6-6ZM63,66c-1.1,0-2-.9-2-2,0-1.1.9-2,2-2,1.1,0,2,.9,2,2h0c0,1.1-.9,2-2,2Z"/>
      <path class="cls-1" d="M99,64c0,3.31,2.69,6,6,6s6-2.69,6-6c0-3.31-2.69-6-6-6-3.31,0-6,2.69-6,6ZM107,64c0,1.1-.9,2-2,2s-2-.9-2-2c0-1.1.9-2,2-2,1.1,0,2,.9,2,2h0Z"/>
      <path d="M43.39,111.52c-.96,1.05-2.02,2-3.16,2.85.57,1.31,1.31,2.55,2.19,3.68.77.98,1.66,1.86,2.65,2.61-.08-1.8-.08-3.72.01-5.75-.7-1.05-1.27-2.19-1.69-3.38Z"/>
      <path d="M125.79,118.05c.85-1.1,1.57-2.3,2.14-3.57-1.14-.83-2.21-1.77-3.17-2.8-.45,1.25-1.06,2.43-1.83,3.51.08,1.98.08,3.86,0,5.62,1.08-.78,2.05-1.71,2.87-2.75Z"/>
      <g>
        <circle class="cls-1" cx="59" cy="118" r="2"/>
        <circle class="cls-1" cx="66.01" cy="120" r="2"/>
        <circle class="cls-1" cx="61.01" cy="125" r="2"/>
        <circle class="cls-1" cx="110.03" cy="118" r="2"/>
        <circle class="cls-1" cx="103.03" cy="120" r="2"/>
        <circle class="cls-1" cx="108.03" cy="125" r="2"/>
        <path class="cls-1" d="M82,125h4c1.1,0,2-.91,1.99-2.01,0-1.1-.89-1.98-1.99-1.99h-4c-1.1,0-2,.91-1.99,2.01,0,1.1.89,1.98,1.99,1.99Z"/>
      </g>
      <path d="M150.72,137h-41.95c.99-.05,1.96-.28,2.86-.68,6.85-3.16,8.97-14.23,6.11-32.21-1.54-9.71-3.62-19.01-11.92-25.92-4.48-3.72-9.87-6.2-15.61-7.18-1.1-.13-2.09.65-2.23,1.74-.13,1.09.64,2.09,1.73,2.23,4.98.9,9.65,3.07,13.55,6.28,7.24,6.03,9.11,14.54,10.53,23.48,2.58,16.24.93,26.5-4.52,28.21-1.43.18-9.52.73-11.91-8.97-.2-1.52-2.08-14.06-11.09-16.95-.08-.03-.18-.05-.28-.07v-6.06c6.39-.56,11-3.77,11-7.9,0-4.56-5.59-8-13-8s-13,3.44-13,8c0,4.14,4.61,7.34,11,7.9v6.06c-.1.02-.21.05-.3.08-8.99,2.91-10.87,15.42-11.07,16.94-2.39,9.72-10.52,9.15-11.91,8.97-5.78-1.81-7.27-12.99-4.09-30.72,1.28-7.12,3.42-15.13,9.62-20.55,3.95-3.49,8.8-5.81,14-6.7,1.1-.12,1.89-1.11,1.76-2.2,0,0,0,0,0,0-.16-1.13-1.21-1.91-2.33-1.75-5.96,1-11.53,3.65-16.07,7.64-7.13,6.23-9.53,15.05-10.93,22.86-2.47,13.77-3.38,30.65,5.67,34.8.88.4,1.82.63,2.78.68H17.28c-1.1-.14-2.12.63-2.26,1.74-.14,1.1.63,2.12,1.74,2.26.17.02.35.02.52,0h133.44c1.1.14,2.12-.63,2.26-1.74s-.63-2.12-1.74-2.26c-.17-.02-.35-.02-.52,0h0ZM75,93c0-1.63,3.51-4,9-4s9,2.37,9,4-3.51,4-9,4-9-2.37-9-4ZM74.55,124.81c.02-.08.03-.16.04-.24.01-.12,1.5-11.51,8.33-13.72.71-.11,1.43-.12,2.14,0,6.94,2.22,8.34,13.62,8.36,13.73,0,.08.02.16.04.24,2.19,9.14,8.83,11.88,13.67,12.19h-10.68s-.04-.03-.05-.04c-2.78-.03-5.43-1.16-7.37-3.14.72-.33,1.42-.71,2.08-1.15.92-.61,1.17-1.85.57-2.77-.61-.92-1.84-1.17-2.76-.57-5.37,3.53-9.43.36-9.63.2-.85-.71-2.11-.59-2.82.26-.71.85-.59,2.11.26,2.82.7.56,1.48,1.03,2.3,1.37-1.98,1.93-4.63,3-7.4,2.99-.01.01-.03.02-.04.03h-10.83c4.85-.27,11.58-2.97,13.79-12.19h0ZM86.57,137h-4.94c.66-.63,1.27-1.31,1.82-2.03.12,0,.23.02.36.02.31,0,.62-.01.94-.04.55.74,1.17,1.42,1.83,2.06Z"/>
    </g>
  </g>
</svg>