<?xml version="1.0" encoding="UTF-8"?>
<svg id="Layer_2" data-name="Layer 2" xmlns="http://www.w3.org/2000/svg" viewBox="0 0 168 164.25">
  <defs>
    <style>
      .cls-1 {
        fill: #00b2ca;
      }
    </style>
  </defs>
  <g id="Bottom_navigation" data-name="Bottom navigation">
    <g id="Color">
      <path d="M110.12,54.27c-1.33.16-2.43,1.12-2.76,2.42-.58,2.45-1.42,4.84-2.5,7.12-1.37,2.39-2.92,4.68-4.62,6.85-2.29,3.08-3.38,5.94-3.24,8.5.12,1.68.84,3.25,2.04,4.43l-1.84,3.71c-.71-.12-1.43.15-1.88.71-.02.03-.06.07-.11.14.67,1.27,1.45,2.47,2.34,3.6.04-.06.09-.13.13-.18l6.94,2.02c-.3,1.27-.61,2.51-.93,3.7,1.16.73,2.37,1.36,3.63,1.88.57-2.06,1.11-4.24,1.63-6.53.17-.76-.12-1.55-.74-2.02l1.54-5.44c2.65-1.26,4.72-3.46,5.82-6.17,1.16-3.22,1.63-6.65,1.39-10.06-.19-4.49-1.4-8.89-3.55-12.84-.62-1.22-1.92-1.95-3.29-1.84ZM104.4,89.36l-3.28-.96,1.34-2.7c.3.11.6.21.92.29.62.15,1.26.23,1.9.24l-.89,3.12ZM111.86,77.51c-.92,2.24-2.82,3.94-5.16,4.58-.78.21-1.6.22-2.38.01h0c-1.58-.38-3.24-1.6-3.32-3.18-.09-1.58.76-3.61,2.45-5.88,2.83-3.8,5.76-7.73,7.2-12.83.02-.09.06-.24.1-.44,1.31,2.91,2.06,6.04,2.21,9.23.21,2.88-.16,5.77-1.11,8.5h0Z"/>
      <path d="M107.6,107.72c.26-1.34.54-2.64.82-3.93-14.91-4.52-23.34-20.26-18.82-35.17,3.15-10.41,12.01-18.08,22.76-19.71,1.77-.26,3-1.91,2.74-3.68-.08-.54-.29-1.05-.62-1.48-3.55-4.82-8.12-8.8-13.39-11.65-9.83-5.3-21.71-6.27-33.45-2.73-15.85,4.78-30.02,17-38.86,33.53-15.97,29.86-9.53,64.63,14.37,77.51,6.03,3.21,12.76,4.87,19.59,4.83,4.7-.02,9.36-.72,13.86-2.09,11.03-3.51,20.89-9.98,28.5-18.7.27-2.55.59-5.03.94-7.44-8.12,10.86-18.87,18.78-30.59,22.31-10.87,3.28-21.38,2.44-30.4-2.42-21.96-11.84-27.67-44.18-12.74-72.1,8.35-15.6,21.65-27.12,36.49-31.59,4.15-1.28,8.46-1.94,12.79-1.96,11.28-.08,21.96,5.06,28.93,13.93-17.47,3.35-28.91,20.23-25.56,37.7,2.28,11.88,11.02,21.48,22.64,24.86h0Z"/>
      <path class="cls-1" d="M79.97,51.85c.33-5.51-3.87-10.25-9.38-10.58s-10.25,3.87-10.58,9.38c-.27,5.58,4.05,10.32,9.63,10.59.12,0,.24,0,.36.01,5.29,0,9.65-4.12,9.98-9.4ZM63.99,50.89c.19-3.17,2.82-5.63,5.99-5.64.12,0,.24,0,.36.01,3.31.2,5.83,3.04,5.63,6.35-.2,3.31-3.04,5.83-6.35,5.63-3.31-.2-5.83-3.04-5.63-6.35h0Z"/>
      <path d="M51.98,82.25c5.52,0,10-4.49,9.99-10.01,0-5.52-4.49-10-10.01-9.99-5.29,0-9.66,4.12-9.97,9.4-.27,5.58,4.05,10.32,9.63,10.59.12,0,.24,0,.36.01ZM45.99,71.89c.19-3.17,2.82-5.63,5.99-5.64.12,0,.24,0,.36.01,3.31.2,5.83,3.04,5.63,6.35s-3.04,5.83-6.35,5.63c-3.31-.2-5.83-3.04-5.63-6.35h0Z"/>
      <path class="cls-1" d="M31.99,96.65c-.27,5.58,4.05,10.32,9.63,10.59.12,0,.24,0,.36.01,5.52,0,10-4.49,9.99-10.01,0-5.52-4.49-10-10.01-9.99-5.29,0-9.66,4.12-9.97,9.4ZM42.33,91.26c3.3.2,5.82,3.05,5.62,6.35-.2,3.3-3.05,5.82-6.35,5.62-3.3-.2-5.82-3.05-5.62-6.35.19-3.16,2.82-5.63,5.99-5.63.12,0,.24,0,.36.01Z"/>
      <path d="M54.98,131.25c5.52,0,10-4.49,9.99-10.01,0-5.52-4.49-10-10.01-9.99-5.29,0-9.66,4.12-9.97,9.4-.27,5.58,4.05,10.32,9.63,10.59.12,0,.24,0,.36.01ZM48.99,120.89c.19-3.17,2.82-5.63,5.99-5.64.12,0,.24,0,.36.01,3.31.2,5.83,3.04,5.63,6.35s-3.04,5.83-6.35,5.63c-3.31-.2-5.83-3.04-5.63-6.35h0Z"/>
      <path class="cls-1" d="M81.99,126.25c5.52,0,10-4.49,9.99-10.01,0-5.52-4.49-10-10.01-9.99-5.29,0-9.66,4.12-9.97,9.4-.27,5.58,4.05,10.32,9.63,10.59.12,0,.24,0,.36.01ZM75.99,115.89c.19-3.17,2.82-5.63,5.99-5.64.12,0,.24,0,.36.01,3.31.2,5.83,3.04,5.63,6.35-.2,3.31-3.04,5.83-6.35,5.63-3.31-.2-5.83-3.04-5.63-6.35h0Z"/>
      <circle cx="2" cy="148.25" r="2"/>
      <path d="M11,146.25h-3c-1.1,0-2,.9-2,2s.9,2,2,2h3c1.1,0,2-.9,2-2s-.9-2-2-2Z"/>
      <path d="M160,146.25h-3c-1.1,0-2,.9-2,2s.9,2,2,2h3c1.1,0,2-.9,2-2s-.9-2-2-2Z"/>
      <circle cx="166" cy="148.25" r="2"/>
      <path class="cls-1" d="M118.15,154.25h-8.31c-1.1.09-1.93,1.06-1.84,2.16.08.98.86,1.76,1.84,1.84h8.31c1.1-.09,1.93-1.06,1.84-2.16-.08-.98-.86-1.76-1.84-1.84Z"/>
      <path class="cls-1" d="M58.15,154.25h-8.31c-1.1.09-1.93,1.06-1.84,2.16.08.98.86,1.76,1.84,1.84h8.31c1.1-.09,1.93-1.06,1.84-2.16-.08-.98-.86-1.76-1.84-1.84Z"/>
      <path class="cls-1" d="M104,154.25h-40c-1.1,0-2,.9-2,2s.9,2,2,2h15.94v2h-7.94c-1.1,0-2,.9-2,2s.9,2,2,2h25c1.1,0,2-.9,2-2s-.9-2-2-2h-8.94v-2h15.94c1.1,0,2-.9,2-2s-.9-2-2-2Z"/>
      <g>
        <path d="M150.72,146.25h-34.69c.97-2.02,1.99-4.07,3.08-6.23,7.21-14.32,16.18-32.14,20.87-67.71.11-.84-.32-1.65-1.07-2.03l.93-5.63c3.58-1.94,6.22-5.25,7.31-9.17,1.25-4.57.94-9.94.17-14.55-1.11-6.39-3.68-12.43-7.5-17.66-.41-.61-1.09-.99-1.83-1.02-.98.02-1.78.78-1.85,1.76-.19,1.13-.34,3.32-.42,3.83-1.18,7.39-4.68,13.46-8.48,19.95-1.97,3.37-3.8,7.7-3.09,11.56.38,1.86,1.45,3.51,2.99,4.62l-1.58,4.32c-.62.1-1.16.49-1.45,1.05-.16.31-16.36,32.03-16.11,76.61,0,.1.02.21.03.32H17.28c-1.1-.14-2.12.63-2.26,1.74-.14,1.1.63,2.12,1.74,2.26.17.02.35.02.52,0h133.44c1.1.14,2.12-.63,2.26-1.74s-.63-2.12-1.74-2.26c-.17-.02-.35-.02-.52,0h0ZM130.7,49.81c3.51-5.99,7.14-12.17,8.68-19.69,1.93,3.52,3.28,7.33,3.98,11.29v.09s.03.09.03.09c.85,5.1.82,9.54-.09,12.84-.95,3.38-3.44,6.11-6.72,7.37-1.07.41-2.22.54-3.36.4-2.61-.31-4.81-1.84-5.13-3.57-.39-2.14.53-5.27,2.61-8.82h0ZM135.54,66.15l-.57,3.43-5.34-.79,1.11-3.03c.66.19,1.33.33,2.01.41.46.05.93.08,1.39.08.47,0,.94-.04,1.4-.1h0ZM127.04,72.44l8.71,1.29c-4.67,33.61-13.28,50.7-20.22,64.49-1.25,2.48-2.43,4.83-3.54,7.17-.11-38.31,12.13-66.73,15.04-72.95Z"/>
        <path d="M51.8,6c1.66,0,3-1.34,3-3s-1.34-3-3-3-3,1.34-3,3c0,1.66,1.34,3,3,3ZM51.8,1.5c.83,0,1.5.67,1.5,1.5s-.67,1.5-1.5,1.5-1.5-.67-1.5-1.5c0-.83.67-1.5,1.5-1.5Z"/>
        <path d="M165,14.5c-1.1,0-2,.9-2,2s.9,2,2,2,2-.9,2-2c0-1.1-.9-2-2-2ZM165,17.5c-.55,0-1-.45-1-1s.45-1,1-1,1,.45,1,1c0,.55-.45,1-1,1Z"/>
        <path d="M34,38c-1.1,0-2,.9-2,2s.9,2,2,2,2-.9,2-2c0-1.1-.9-2-2-2ZM34,41c-.55,0-1-.45-1-1s.45-1,1-1,1,.45,1,1c0,.55-.45,1-1,1Z"/>
        <path d="M154.25,42.25c-1.1,0-2,.9-2,2s.9,2,2,2,2-.9,2-2c0-1.1-.9-2-2-2ZM154.25,45.25c-.55,0-1-.45-1-1s.45-1,1-1,1,.45,1,1c0,.55-.45,1-1,1Z"/>
        <path d="M77.5,22c0-1.1-.9-2-2-2s-2,.9-2,2,.9,2,2,2c1.1,0,2-.9,2-2ZM74.5,22c0-.55.45-1,1-1s1,.45,1,1-.45,1-1,1c-.55,0-1-.45-1-1Z"/>
      </g>
      <path class="cls-1" d="M7.14,54.76l1.49-1.96-.94-.53-.95,2.19h-.03l-.97-2.17-.95.55,1.47,1.91v.03l-2.3-.3v1.06l2.32-.3v.03l-1.49,1.91.89.56,1.02-2.21h.03l.94,2.19.99-.56-1.5-1.88v-.03l2.36.28v-1.06l-2.36.31v-.03Z"/>
      <path class="cls-1" d="M7.08,4.1l-.86,1.1.51.32.59-1.27h.02l.54,1.26.57-.32-.86-1.08v-.02l1.36.16v-.61l-1.36.18v-.02l.86-1.13-.54-.31-.55,1.26h-.02l-.56-1.25-.55.32.85,1.1v.02l-1.33-.17v.61l1.33-.17v.02Z"/>
      <path class="cls-1" d="M146.3,3.71v-1.04l-2.32.31v-.03l1.46-1.92-.92-.52-.94,2.15h-.03l-.95-2.13-.94.54,1.44,1.87v.03l-2.26-.29v1.04l2.27-.29v.03l-1.46,1.87.88.55,1-2.16h.03l.92,2.15.97-.55-1.47-1.84v-.03l2.32.28Z"/>
      <path class="cls-1" d="M105.11,13.59l1.26-1.65-.79-.45-.81,1.85h-.03l-.82-1.84-.81.46,1.25,1.61v.03l-1.95-.25v.9l1.96-.25v.03l-1.26,1.61.75.48.86-1.87h.03l.79,1.85.83-.48-1.27-1.59v-.03l2,.24v-.9l-2,.27v-.03Z"/>
    </g>
  </g>
</svg>