<?xml version="1.0" encoding="UTF-8"?>
<svg id="Layer_2" data-name="Layer 2" xmlns="http://www.w3.org/2000/svg" viewBox="0 0 168 159.5">
  <defs>
    <style>
      .cls-1 {
        fill: #00b2ca;
      }
    </style>
  </defs>
  <g id="Bottom_navigation" data-name="Bottom navigation">
    <g id="Vaccination_Status" data-name="Vaccination Status">
      <g>
        <path d="M29.89,23c1.66,0,3-1.34,3-3s-1.34-3-3-3-3,1.34-3,3c0,1.66,1.34,3,3,3ZM29.89,18.5c.83,0,1.5.67,1.5,1.5s-.67,1.5-1.5,1.5-1.5-.67-1.5-1.5c0-.83.67-1.5,1.5-1.5Z"/>
        <path d="M155,55.31c-1.1,0-2,.9-2,2s.9,2,2,2,2-.9,2-2c0-1.1-.9-2-2-2ZM155,58.31c-.55,0-1-.45-1-1s.45-1,1-1,1,.45,1,1c0,.55-.45,1-1,1Z"/>
        <path d="M6.89,0c-1.1,0-2,.9-2,2s.9,2,2,2,2-.9,2-2c0-1.1-.9-2-2-2ZM6.89,3c-.55,0-1-.45-1-1s.45-1,1-1,1,.45,1,1c0,.55-.45,1-1,1Z"/>
        <path d="M116.89,2c-1.1,0-2,.9-2,2s.9,2,2,2,2-.9,2-2c0-1.1-.9-2-2-2ZM116.89,5c-.55,0-1-.45-1-1s.45-1,1-1,1,.45,1,1c0,.55-.45,1-1,1Z"/>
        <path d="M91.29,37.5c0-1.1-.9-2-2-2s-2,.9-2,2,.9,2,2,2c1.1,0,2-.9,2-2ZM88.29,37.5c0-.55.45-1,1-1s1,.45,1,1-.45,1-1,1c-.55,0-1-.45-1-1Z"/>
      </g>
      <path class="cls-1" d="M18.19,50.15l1.49-1.96-.94-.53-.95,2.19h-.03l-.97-2.17-.96.55,1.47,1.91v.03l-2.3-.3v1.06l2.32-.3v.03l-1.49,1.91.89.56,1.02-2.21h.03l.94,2.19.99-.56-1.5-1.88v-.03l2.36.28v-1.06l-2.36.31v-.03Z"/>
      <path class="cls-1" d="M62.78,5.73l-.86,1.1.51.32.59-1.27h.02l.54,1.26.57-.32-.87-1.08v-.02l1.36.16v-.61l-1.36.18v-.02l.86-1.13-.54-.31-.55,1.26h-.02l-.56-1.25-.55.32.85,1.1v.02l-1.33-.17v.61l1.33-.17v.02Z"/>
      <path class="cls-1" d="M132.03,26.01v-1.04l-2.32.31v-.03l1.46-1.92-.92-.52-.94,2.15h-.03l-.95-2.13-.94.54,1.44,1.87v.03l-2.26-.29v1.04l2.27-.29v.03l-1.46,1.87.87.55,1-2.16h.03l.92,2.15.97-.55-1.47-1.84v-.03l2.32.28Z"/>
      <path class="cls-1" d="M155.35,5.79l1.26-1.65-.79-.45-.81,1.85h-.03l-.82-1.84-.81.46,1.24,1.61v.03l-1.95-.25v.9l1.96-.25v.03l-1.26,1.61.75.48.86-1.87h.03l.79,1.85.83-.48-1.27-1.59v-.03l2,.24v-.9l-2,.26v-.03Z"/>
      <circle cx="2" cy="143.5" r="2"/>
      <path d="M11,141.5h-3c-1.1,0-2,.9-2,2s.9,2,2,2h3c1.1,0,2-.9,2-2s-.9-2-2-2Z"/>
      <path d="M160,141.5h-3c-1.1,0-2,.9-2,2s.9,2,2,2h3c1.1,0,2-.9,2-2s-.9-2-2-2Z"/>
      <circle cx="166" cy="143.5" r="2"/>
      <path class="cls-1" d="M118.15,149.5h-8.31c-1.1.09-1.93,1.06-1.84,2.16.08.98.86,1.76,1.84,1.84h8.31c1.1-.09,1.93-1.06,1.84-2.16-.08-.98-.86-1.76-1.84-1.84Z"/>
      <path class="cls-1" d="M58.15,149.5h-8.31c-1.1.09-1.93,1.06-1.84,2.16.08.98.86,1.76,1.84,1.84h8.31c1.1-.09,1.93-1.06,1.84-2.16-.08-.98-.86-1.76-1.84-1.84Z"/>
      <path class="cls-1" d="M104,149.5h-40c-1.1,0-2,.9-2,2s.9,2,2,2h15.94v2h-7.94c-1.1,0-2,.9-2,2s.9,2,2,2h25c1.1,0,2-.9,2-2s-.9-2-2-2h-8.94v-2h15.94c1.1,0,2-.9,2-2s-.9-2-2-2Z"/>
      <path class="cls-1" d="M65.01,109.5h-2v-2c0-1.1-.9-2-2.01-1.99-1.1,0-1.99.89-1.99,1.99v2h-2c-1.1,0-2,.9-2,2s.9,2,2,2h2v2c0,1.1.9,2,2.01,1.99,1.1,0,1.99-.89,1.99-1.99v-2h2c1.1,0,2-.9,2-2s-.9-2-2-2h0Z"/>
      <path class="cls-1" d="M61.01,97.5c-7.73,0-14,6.27-14,14,0,7.73,6.27,14,14,14,7.73,0,14-6.27,14-14,0-7.73-6.27-13.99-14-14ZM61.01,121.5c-5.52,0-10-4.48-10-10,0-5.52,4.48-10,10-10,5.52,0,10,4.48,10,10,0,5.52-4.48,9.99-10,10Z"/>
      <path d="M150.72,141.5h-30.27c4.17-2.67,9.19-5.87,9.2-5.88,1.38-.92,1.77-2.78.85-4.16,0,0,0-.01-.01-.02l-3.25-4.65c-.93-1.34-2.76-1.69-4.13-.81l-2.14,1.37-6.18-9.36,3.1-2.03c1.3-.86,2.2-2.19,2.51-3.72.3-1.51-.02-3.08-.89-4.35l-.91-1.33c-1.32-1.91-3.63-2.88-5.92-2.46l-40.62-59.97c-1.28-2-3.67-3-5.99-2.51l-5.64-8.55c-.43-.69-1.76-2.19-4.67-1.31-.75.24-1.48.56-2.16.96l-9.95-14.36c-.63-.91-1.88-1.13-2.79-.49-.9.63-1.12,1.87-.5,2.77l9.91,14.3c-.65.47-1.23,1.04-1.73,1.67-1.59,2.22-1.12,3.67-.64,4.58l5.33,8.09c-.22.24-.41.49-.57.77-1.13,1.8-2.01,4.03-.03,6.95l4.4,6.5h4.83l-5.92-8.74c-.64-.94-.7-1.29.12-2.61,1.16-1.4,2.56-2.59,4.14-3.5,1.89-1.29,3.95-2.29,6.13-2.97.86-.46,1.94-.15,2.42.7l7.41,10.93,2.24,3.31,2.11,3.11s-1.65,1.09-1.65,1.09c-.3.21-.54.49-.69.82.96.76,1.78,1.69,2.42,2.74.18-.05.34-.13.49-.23,0,0,1.65-1.1,1.66-1.12l2.12,3.12,2.23,3.3,2.12,3.12h-.01c-.15.11-1.72,1.14-1.72,1.14-.92.61-1.17,1.84-.56,2.76,0,0,0,0,0,.01.63.89,1.84,1.13,2.77.56,0,0,1.69-1.14,1.73-1.18l2.1,3.11,2.25,3.31,2.09,3.09-1.77,1.23c-.92.61-1.17,1.85-.56,2.77,0,0,0,0,0,0,.62.91,1.85,1.15,2.78.56,0,0,1.74-1.18,1.8-1.24l2.13,3.14,2.24,3.32,4.58,6.75-12.81,8.39-7.25-10.7v7.13l4.27,6.3c-.32.54-.55,1.13-.68,1.74-.31,1.51.01,3.08.89,4.35l.9,1.33c1.83,2.65,5.43,3.35,8.12,1.59l2.59-1.7,6.11,9.25s-2.81,1.8-2.82,1.8c-1.38.92-1.77,2.78-.85,4.16,0,0,0,.01.01.02,0,0,.64.92,1.36,1.94h-24.25c.23-.64.35-1.32.35-2v-39.13c0-7.46-3.89-12.86-10-14.4v-4.47h1c1.1,0,2-.89,2-2h0v-6c0-3.31-2.69-6-6-6h-22.01c-3.31,0-6,2.69-6,6v6c0,1.1.9,2,2,2h1v4.47c-6.1,1.54-10,6.94-10,14.4v39.13c0,.68.12,1.36.35,2h-20.07c-1.1-.15-2.12.63-2.26,1.74s.63,2.12,1.74,2.26c.17.02.35.02.53,0h133.44c1.1.15,2.12-.63,2.26-1.74s-.63-2.12-1.74-2.26c-.17-.02-.35-.02-.53,0h0ZM58,45.31c-.67.44-1.26.85-1.78,1.25l-4.71-7.16c.08-.15.17-.3.27-.44.67-.7,1.43-1.3,2.25-1.81.86-.64,1.8-1.16,2.8-1.53.14-.05.28-.08.42-.1l4.93,7.46c-1.45.67-2.85,1.44-4.18,2.33ZM48,73.5c0-1.1.9-2,2-2h22.01c1.1,0,2,.9,2,2v4h-26.01v-4ZM71.01,81.5v4h-20.01v-4h20.01ZM81.01,139.5c0,1.1-.9,2-2,2h-36.01c-1.1,0-2-.9-2-2v-4h40.01v4ZM81.01,131.5h-40.01v-31.13c0-6.7,3.73-10.87,9.74-10.87h20.53c6.01,0,9.74,4.17,9.74,10.87v31.13ZM100.31,122.69c-.86.57-2.02.35-2.61-.5l-.91-1.33c-.54-.82-.31-1.93.51-2.47,0,0,15.36-10.06,15.38-10.08.87-.54,2.01-.33,2.62.5,0,0,.9,1.33.9,1.34.54.81.32,1.91-.49,2.45,0,0-.01,0-.02.01l-15.38,10.08ZM108.45,122.14l2.99-1.96,6.16,9.32-3.02,1.92-6.13-9.28ZM111.46,138.17l13.03-8.33,2.09,2.99-13.03,8.33-2.09-2.99Z"/>
      <path class="cls-1" d="M104.49,99.15l-3.48,2.3c-.93.57-2.14.33-2.77-.56-.61-.92-.37-2.16.55-2.77l3.45-2.29h.01l2.24,3.32Z"/>
      <path class="cls-1" d="M78.4,60.62s-3.24,2.16-3.24,2.16c-.92.6-2.15.36-2.77-.55-.61-.91-.38-2.14.53-2.76,0,0,.01,0,.02-.01l3.22-2.15,2.24,3.31Z"/>
      <path class="cls-1" d="M87.09,73.45s-3.31,2.22-3.31,2.22c-.54.31-1.18.39-1.77.21v-2.38c0-.47-.04-.93-.11-1.39,0,0,2.93-1.94,2.96-1.96l2.23,3.3Z"/>
      <path class="cls-1" d="M95.78,86.28l-3.38,2.28c-.93.57-2.14.33-2.78-.55-.61-.92-.36-2.16.56-2.78l3.35-2.26,2.25,3.31Z"/>
    </g>
  </g>
</svg>