<?xml version="1.0" encoding="UTF-8"?>
<svg id="Layer_2" data-name="Layer 2" xmlns="http://www.w3.org/2000/svg" viewBox="0 0 168 163.94">
  <defs>
    <style>
      .cls-1 {
        fill: #00b2ca;
      }
    </style>
  </defs>
  <g id="Bottom_navigation" data-name="Bottom navigation">
    <g id="Behavior_Temperament" data-name="Behavior Temperament">
      <circle cx="2" cy="147.94" r="2"/>
      <path d="M11,145.94h-3c-1.1,0-2,.9-2,2s.9,2,2,2h3c1.1,0,2-.9,2-2s-.9-2-2-2Z"/>
      <path d="M160,145.94h-3c-1.1,0-2,.9-2,2s.9,2,2,2h3c1.1,0,2-.9,2-2s-.9-2-2-2Z"/>
      <circle cx="166" cy="147.94" r="2"/>
      <g>
        <path class="cls-1" d="M118.15,153.94h-8.31c-1.1.09-1.93,1.06-1.84,2.16.08.98.86,1.76,1.84,1.84h8.31c1.1-.09,1.93-1.06,1.84-2.16-.08-.98-.86-1.76-1.84-1.84Z"/>
        <path class="cls-1" d="M58.15,153.94h-8.31c-1.1.09-1.93,1.06-1.84,2.16.08.98.86,1.76,1.84,1.84h8.31c1.1-.09,1.93-1.06,1.84-2.16-.08-.98-.86-1.76-1.84-1.84Z"/>
        <path class="cls-1" d="M104,153.94h-40c-1.1,0-2,.9-2,2s.9,2,2,2h15.94v2h-7.94c-1.1,0-2,.9-2,2s.9,2,2,2h25c1.1,0,2-.9,2-2s-.9-2-2-2h-8.94v-2h15.94c1.1,0,2-.9,2-2s-.9-2-2-2Z"/>
        <path class="cls-1" d="M86.15,107.74c6.28-1.09,10.86-6.54,10.85-12.91,0-2.39-.58-4.11-1.78-5.26-1.88-1.81-4.62-1.7-7.79-1.57-1.71.07-3.72.07-5.55,0-3.56-.13-6.93-.25-9.07,1.81-1.28,1.35-1.93,3.17-1.81,5.02-.01,6.48,4.72,11.99,11.12,12.95-.1.99-.1,1.99-.02,2.98,1.35.37,2.73.61,4.12.74-.21-1.19-.24-2.41-.09-3.62,0-.05,0-.09,0-.14ZM84,103.93c-5-.04-9.02-4.11-9-9.11-.09-.76.12-1.53.59-2.14.63-.61,2.08-.75,3.77-.75.77,0,6.43.13,8.24.06,2.16-.09,4.21-.17,4.86.46.45.7.65,1.54.55,2.37.02,5-4,9.07-9,9.11Z"/>
        <path class="cls-1" d="M76,70.72c.02-3.87-3.1-7.01-6.97-7.03-3.87-.02-7.01,3.1-7.03,6.97-.02,3.87,3.1,7.01,6.97,7.03.01,0,.02,0,.03,0,3.86,0,6.99-3.11,7-6.97h0ZM69,73.68c-1.64-.02-2.95-1.36-2.94-3,.02-1.64,1.36-2.95,3-2.94,1.63.02,2.94,1.34,2.94,2.97-.01,1.65-1.35,2.97-3,2.97Z"/>
        <path class="cls-1" d="M106,70.72c.02-3.87-3.1-7.01-6.97-7.03-3.87-.02-7.01,3.1-7.03,6.97-.02,3.87,3.1,7.01,6.97,7.03.01,0,.02,0,.03,0,3.86,0,6.99-3.11,7-6.97h0ZM96,70.72c-.02-1.66,1.31-3.01,2.97-3.03s3.01,1.31,3.03,2.97c.02,1.66-1.31,3.01-2.97,3.03-.01,0-.02,0-.03,0-1.65,0-2.99-1.32-3-2.97Z"/>
        <path class="cls-1" d="M36.37,57.78c1.1,0,2-.89,2-2,0-.56-.23-1.09-.65-1.47-2.65-2.44-1.58-4.79-1.23-5.41,1.05-1.17,2.26-2.21,3.58-3.07,1.12-.77,2.2-1.6,3.23-2.48.84-.72.93-1.99.21-2.82-.72-.83-1.98-.93-2.82-.21-.94.8-1.91,1.55-2.93,2.24-1.63,1.07-3.11,2.36-4.4,3.83-.06.06-.11.13-.16.21-1.28,1.93-2.56,6.64,1.8,10.65.37.34.85.53,1.35.53Z"/>
      </g>
      <path d="M31.06,75.43c1.16,4.8,2.49,10.25,5.37,15.07.43.75.98,1.43,1.64,2h-.02c.7,3.54,1.72,7.01,3.07,10.36,1.34-.29,2.68-.51,4.04-.67-1.19-2.85-2.14-5.81-2.82-8.82,6.45-2.25,10.67-20.65,10.15-35.85-.52-15.04,11.26-20.14,16.35-21.63.71-.21,1.35-.59,1.87-1.11,4.08-1.83,15.09-5.57,27,.36.44.34.94.6,1.47.76h0c5.09,1.49,16.87,6.59,16.35,21.63-.51,14.9,3.53,32.86,9.75,35.71-4.27,13.63-10.03,23.43-17.41,29.54.26-.13.52-.25.77-.38,2.77-1.4,5.64-2.6,8.58-3.61,5.05-6.56,9.15-15.21,12.37-26,.81-.61,1.49-1.38,1.99-2.27,2.88-4.83,4.2-10.27,5.37-15.07.95-3.9,1.84-7.59,3.3-9.16,5.77-6.2,8.28-11.69,7.67-16.78-.58-4.86-3.93-9.25-10.25-13.42-12.99-8.58-27.39-16.87-35.76-13.27-2.87,1.24-4.75,3.71-5.61,7.34-7.92-2.97-16.64-3-24.58-.09-.87-3.58-2.74-6.02-5.59-7.25-8.37-3.61-22.78,4.68-35.76,13.27-6.32,4.18-9.67,8.57-10.25,13.42-.61,5.08,1.9,10.57,7.67,16.78,1.46,1.57,2.35,5.25,3.3,9.16h0ZM103.48,26.48c.97-.39,2.02-.58,3.07-.56,8.5,0,23.01,9.59,28.91,13.49,5.28,3.49,8.06,6.94,8.49,10.56.46,3.85-1.71,8.29-6.63,13.58-2.17,2.33-3.14,6.32-4.26,10.94-1.1,4.53-2.34,9.66-4.92,13.97-.5.83-.96,1.21-1.14,1.15-2.91-.85-8.06-14.94-7.48-31.96.63-18.3-14.48-24.2-19.19-25.59-.1-.09-.21-.17-.33-.24.5-2.8,1.63-4.55,3.47-5.34h0ZM24.06,49.97c.43-3.62,3.21-7.07,8.49-10.56,5.9-3.9,20.4-13.49,28.91-13.49,1.05-.02,2.09.17,3.07.56,1.81.78,2.94,2.49,3.44,5.16-.56.28-.9.48-.99.53-.09.06-.18.12-.26.19-5.5,1.84-18.83,8.09-18.24,25.3.58,17.02-4.57,31.1-7.48,31.96-.18.06-.64-.32-1.14-1.15-2.57-4.31-3.82-9.44-4.92-13.97-1.12-4.62-2.09-8.61-4.26-10.94-4.92-5.29-7.09-9.73-6.63-13.58Z"/>
      <path class="cls-1" d="M127.93,45.84c1.32.86,2.52,1.89,3.58,3.06.37.65,1.4,2.99-1.22,5.41-.81.75-.86,2.01-.12,2.83.75.81,2.01.86,2.83.12,4.35-4.01,3.08-8.72,1.8-10.65-.05-.07-.1-.14-.16-.21-1.29-1.47-2.77-2.76-4.4-3.83-1.01-.7-1.99-1.44-2.93-2.24-.84-.72-2.1-.62-2.82.21-.72.84-.62,2.1.21,2.82,1.03.88,2.11,1.71,3.23,2.48h0Z"/>
      <path d="M150.72,145.94h-33.31c1.78-1.38,3.89-2.9,6.25-4.49l.26-.17c4.59-3.16,6.6-6.3,5.98-9.31-.2-.91-.64-1.75-1.27-2.43,1.96-1.42,4.18-3.62,3.11-6.1-1.12-2.58-5-2.79-6.29-2.43-.15.04-.48.08-.83.13-1.96.26-6.04.8-14.24,4.84-10.1,4.98-20.94,9.91-32.78,10.84-6.61.58-13.14-1.71-17.93-6.3-.76-1.42-.8-2.23-.59-2.49.79-1.02,5.59-1.62,15.54.93,13.43,3.66,20.26-2.92,21.12-3.83,2.53-2.33,5.66-5.75,4-8.67-1.47-2.59-5.63-2.43-9.02-1.41-3.43,1.03-7.15.28-10.34-.58-3.42-.93-6.86-2.21-10.17-3.44-4.81-1.95-9.78-3.47-14.86-4.54-8.64-1.56-17.34.18-25.85,5.16-3.16,1.85-6.11,4.02-8.83,6.47-.82.74-.88,2.01-.13,2.83.74.81,2,.88,2.82.14,2.51-2.27,5.24-4.27,8.16-5.98,7.67-4.49,15.44-6.07,23.12-4.68,4.85,1.03,9.59,2.48,14.18,4.35,3.4,1.27,6.92,2.58,10.52,3.55,3.52.95,8.12,1.88,12.54.55,1.36-.48,2.82-.62,4.25-.41-.19.48-.85,1.66-3.14,3.76-.04.04-.09.09-.13.13-.22.24-5.59,5.88-17.21,2.72-10.73-2.75-17.37-2.58-19.74.5-1.38,1.79-1.25,4.18.39,7.09.07.13.16.25.26.36,5.63,5.61,13.45,8.45,21.37,7.76,12.55-.99,23.8-6.1,34.24-11.24,7.61-3.75,11.11-4.22,13-4.47.44-.05.88-.12,1.31-.23.43-.03.86.02,1.27.14-.88.91-1.89,1.68-2.99,2.3-6.95,3.82-13.6,8.17-19.88,13.02-1.38,1.07-5.4,4.1-7.57,5.61H17.28c-1.1-.14-2.12.63-2.26,1.74-.14,1.1.63,2.12,1.74,2.26.17.02.35.02.52,0h133.44c1.1.14,2.12-.63,2.26-1.74s-.63-2.12-1.74-2.26c-.17-.02-.35-.02-.52,0h0ZM107.31,143.48c5.59-4.3,11.46-8.2,17.59-11.68.12.05.24.09.36.11.38.18.65.53.73.94.12.95-.95,2.8-4.35,5.14l-.22.15c-3.6,2.35-7.02,4.96-10.24,7.8h-7.11c1.36-1.01,2.59-1.95,3.24-2.46h0Z"/>
      <path d="M81,20.31c1.66,0,3-1.34,3-3s-1.34-3-3-3-3,1.34-3,3c0,1.66,1.34,3,3,3ZM81,15.81c.83,0,1.5.67,1.5,1.5s-.67,1.5-1.5,1.5-1.5-.67-1.5-1.5c0-.83.67-1.5,1.5-1.5Z"/>
      <path d="M164,43.38c-1.1,0-2,.9-2,2s.9,2,2,2,2-.9,2-2c0-1.1-.9-2-2-2ZM164,46.38c-.55,0-1-.45-1-1s.45-1,1-1,1,.45,1,1c0,.55-.45,1-1,1Z"/>
      <path d="M6,2.44c-1.1,0-2,.9-2,2s.9,2,2,2,2-.9,2-2c0-1.1-.9-2-2-2ZM6,5.44c-.55,0-1-.45-1-1s.45-1,1-1,1,.45,1,1c0,.55-.45,1-1,1Z"/>
      <path d="M143.28,26.6c-1.1,0-2,.9-2,2s.9,2,2,2,2-.9,2-2c0-1.1-.9-2-2-2ZM143.28,29.6c-.55,0-1-.45-1-1s.45-1,1-1,1,.45,1,1c0,.55-.45,1-1,1Z"/>
      <path d="M8,52.6c0-1.1-.9-2-2-2s-2,.9-2,2,.9,2,2,2c1.1,0,2-.9,2-2ZM5,52.6c0-.55.45-1,1-1s1,.45,1,1-.45,1-1,1c-.55,0-1-.45-1-1Z"/>
      <path class="cls-1" d="M35.63,19.8l1.49-1.96-.94-.53-.96,2.19h-.03l-.97-2.17-.96.55,1.47,1.91v.03l-2.3-.3v1.06l2.32-.3v.03l-1.49,1.91.89.56,1.02-2.21h.03l.94,2.19.99-.56-1.5-1.88v-.03l2.36.28v-1.06l-2.36.31v-.03Z"/>
      <path class="cls-1" d="M59.73,2.84l-.86,1.1.51.32.59-1.27h.02l.54,1.26.57-.32-.87-1.08v-.02l1.36.16v-.61l-1.36.18v-.02l.86-1.13-.54-.31-.55,1.26h-.02l-.56-1.25-.55.32.85,1.1v.02l-1.33-.17v.61l1.33-.17v.02Z"/>
      <path class="cls-1" d="M150.72,3.21v-1.04l-2.32.31v-.03l1.46-1.92-.92-.52-.94,2.15h-.03l-.95-2.13-.94.54,1.44,1.87v.03l-2.26-.29v1.04l2.27-.29v.03l-1.46,1.87.88.55,1-2.16h.03l.92,2.15.97-.55-1.47-1.84v-.03l2.32.28Z"/>
      <path class="cls-1" d="M116.75,17.52l1.26-1.66-.79-.45-.81,1.85h-.03l-.82-1.84-.81.46,1.25,1.62v.03l-1.95-.25v.9l1.96-.25v.03l-1.26,1.61.75.48.86-1.87h.03l.79,1.85.83-.48-1.27-1.59v-.03l2,.24v-.9l-2,.26v-.03Z"/>
    </g>
  </g>
</svg>