<?xml version="1.0" encoding="UTF-8"?>
<svg id="Layer_2" data-name="Layer 2" xmlns="http://www.w3.org/2000/svg" viewBox="0 0 168 159.42">
  <defs>
    <style>
      .cls-1 {
        fill: #00b2ca;
      }
    </style>
  </defs>
  <g id="Bottom_navigation" data-name="Bottom navigation">
    <g id="Birds">
      <path class="cls-1" d="M113.72,46.42c1.66,0,3-1.34,3-3s-1.34-3-3-3c-.08,0-.15.02-.23.02.69.06,1.19.67,1.13,1.35-.06.69-.67,1.19-1.35,1.13-.69-.06-1.19-.67-1.13-1.35.04-.42.29-.8.67-.99-1.57.51-2.44,2.2-1.93,3.77.4,1.23,1.55,2.07,2.84,2.07Z"/>
      <g>
        <path d="M80.09,120.42l-1.55-4h-1.71c-1.1,0-2,.9-2,2s.9,2,2,2h3.25Z"/>
        <path d="M83.99,7.17c1.66,0,3-1.34,3-3s-1.34-3-3-3-3,1.34-3,3c0,1.66,1.34,3,3,3ZM83.99,2.67c.83,0,1.5.67,1.5,1.5s-.67,1.5-1.5,1.5-1.5-.67-1.5-1.5c0-.83.67-1.5,1.5-1.5Z"/>
        <path d="M36.66,0c-1.1,0-2,.9-2,2s.9,2,2,2,2-.9,2-2c0-1.1-.9-2-2-2ZM36.66,3c-.55,0-1-.45-1-1s.45-1,1-1,1,.45,1,1c0,.55-.45,1-1,1Z"/>
        <path d="M137.1.83c-1.1,0-2,.9-2,2s.9,2,2,2,2-.9,2-2c0-1.1-.9-2-2-2ZM137.1,3.83c-.55,0-1-.45-1-1s.45-1,1-1,1,.45,1,1c0,.55-.45,1-1,1Z"/>
        <path d="M114.94,13.16c-1.1,0-2,.9-2,2s.9,2,2,2,2-.9,2-2c0-1.1-.9-2-2-2ZM114.94,16.16c-.55,0-1-.45-1-1s.45-1,1-1,1,.45,1,1c0,.55-.45,1-1,1Z"/>
        <path d="M24.83,41.33c0-1.1-.9-2-2-2s-2,.9-2,2,.9,2,2,2c1.1,0,2-.9,2-2ZM21.83,41.33c0-.55.45-1,1-1s1,.45,1,1-.45,1-1,1c-.55,0-1-.45-1-1Z"/>
      </g>
      <path class="cls-1" d="M59.57,16.21l1.49-1.95-.94-.53-.96,2.19h-.03l-.97-2.17-.96.55,1.47,1.91v.03l-2.3-.3v1.06l2.32-.3v.03l-1.49,1.91.89.56,1.02-2.21h.03l.94,2.19.99-.56-1.5-1.88v-.03l2.36.28v-1.06l-2.36.31v-.03Z"/>
      <path class="cls-1" d="M7.97,13.45l-.86,1.1.51.33.59-1.27h.02l.54,1.26.57-.33-.86-1.08v-.02l1.36.16v-.61l-1.36.18v-.02l.86-1.13-.54-.31-.55,1.26h-.02l-.56-1.25-.55.32.85,1.1v.02l-1.33-.17v.61l1.33-.17v.02Z"/>
      <path class="cls-1" d="M142.55,39.13v-1.04l-2.32.31v-.03l1.46-1.92-.92-.52-.94,2.15h-.03l-.95-2.13-.94.54,1.44,1.87v.03l-2.26-.29v1.04l2.27-.29v.03l-1.46,1.87.87.55,1-2.16h.03l.92,2.15.97-.55-1.47-1.84v-.03l2.32.28Z"/>
      <path class="cls-1" d="M162.18,17.12l1.26-1.66-.79-.45-.81,1.85h-.03l-.82-1.84-.81.46,1.24,1.61v.03l-1.95-.25v.9l1.96-.25v.03l-1.26,1.61.75.48.86-1.87h.03l.79,1.85.83-.48-1.27-1.59v-.03l2,.24v-.9l-2,.26v-.03Z"/>
      <circle cx="2" cy="143.42" r="2"/>
      <path d="M11,141.42h-3c-1.1,0-2,.9-2,2s.9,2,2,2h3c1.1,0,2-.9,2-2s-.9-2-2-2Z"/>
      <path d="M160,141.42h-3c-1.1,0-2,.9-2,2s.9,2,2,2h3c1.1,0,2-.9,2-2s-.9-2-2-2Z"/>
      <circle cx="166" cy="143.42" r="2"/>
      <path class="cls-1" d="M118.15,149.42h-8.31c-1.1.09-1.93,1.06-1.84,2.16.08.98.86,1.76,1.84,1.84h8.31c1.1-.09,1.93-1.06,1.84-2.16-.08-.98-.86-1.76-1.84-1.84Z"/>
      <path class="cls-1" d="M58.15,149.42h-8.31c-1.1.09-1.93,1.06-1.84,2.16.08.98.86,1.76,1.84,1.84h8.31c1.1-.09,1.93-1.06,1.84-2.16-.08-.98-.86-1.76-1.84-1.84Z"/>
      <path class="cls-1" d="M104,149.42h-40c-1.1,0-2,.9-2,2s.9,2,2,2h15.94v2h-7.94c-1.1,0-2,.9-2,2s.9,2,2,2h25c1.1,0,2-.9,2-2s-.9-2-2-2h-8.94v-2h15.94c1.1,0,2-.9,2-2s-.9-2-2-2Z"/>
      <path d="M150.72,141.42H49.39l25.77-29.09c1.92-.23,3.82-.56,5.71-.99l5.06,13.07h-15.06c-1.1,0-2,.91-1.99,2.01,0,1.1.89,1.98,1.99,1.99h57.81c3.31-.01,5.99-2.71,5.98-6.02-.01-3.3-2.68-5.97-5.98-5.98h-18.06c-.08-.27-.19-.53-.33-.77l-1.89-3.9c-.04-.08-.09-.17-.14-.24-1.06-1.63-2.86-2.62-4.8-2.65h-2.88l-1.69-4.16c2.72-1.43,5.34-3.04,7.86-4.81,16-11.32,14.13-25.89,13.23-32.9-.13-1-.24-1.87-.25-2.43-.08-3,.92-7.86,2.98-9.79h.09s.25.02.25.02c1.35.01,2.69.21,3.98.58,1.16.41,2.27.95,3.3,1.61l.15.09c1.3.94,2.83,1.52,4.43,1.66.03,0,.07,0,.1,0,1.1,0,2.16-.43,2.95-1.2.7-.69,1.08-1.64,1.06-2.63-.15-1.39-.74-2.7-1.7-3.72-2.38-2.93-5.52-5.14-9.08-6.39-.1-.04-.21-.07-.31-.11-.26-3.78-3.1-15.71-27.3-27.08-.81-.38-1.78-.17-2.36.51-.21.25-5.12,6.14-2.07,13.56.31.76.64,1.49.95,2.21,2.23,5.06,3.57,8.11-2.11,13.88-1.67,1.57-3.45,3.02-5.32,4.34-9.11,6.83-24.31,18.24-32.36,53.07l-27.78,28.86c-.77.8-.74,2.06.05,2.83.28.27.63.45,1.02.53l7.97,1.48s.02.02.03.03c.03.02.06.04.08.06l2.02,2.46h-23.44c-1.1-.14-2.12.63-2.26,1.74-.14,1.1.63,2.12,1.74,2.26.17.02.35.02.52,0h133.44c1.1.14,2.12-.63,2.26-1.74s-.63-2.12-1.74-2.26c-.17-.02-.35-.02-.52,0h0ZM90.77,124.42c-.41-.05-.74-.33-.86-.72l-5.16-13.34c1.09-.31,2.24-.66,3.44-1.07l4.2,10.33c.3.75,1.03,1.24,1.85,1.24h4.22c.57.02,1.1.31,1.43.79l1.34,2.77h-10.46ZM99.22,112.86h4.22c.57.02,1.1.31,1.43.79l3.29,6.77h20.51c1.1,0,2,.9,2,2s-.9,2-2,2h-23.04c-.08-.27-.19-.53-.33-.77l-1.89-3.9c-.04-.08-.09-.17-.14-.24-1.06-1.63-2.86-2.62-4.8-2.65h-2.88l-3.64-8.95c1.19-.48,2.41-1,3.66-1.58l2.52,6.2c.33.22.71.33,1.1.34ZM126.78,48.53c2.91,1,5.48,2.79,7.42,5.17.27.33.51.67.72,1.04-.87-.18-1.68-.55-2.4-1.08l-.15-.09c-1.29-.82-2.67-1.48-4.11-1.99-1.63-.49-3.33-.76-5.04-.79h-.27c-.99-.06-1.71-.12-1.95-.45-.16-.45-.07-.94.23-1.31.98-1.03,3.91-1.14,5.54-.51h0ZM35,134.13l25.26-26.24c.84-.3,1.68-.6,2.52-.91,9.41-3.53,18.61-7.61,27.54-12.23,6.79-3.46,15.11-8.57,19.15-17.4,1.96-4.28,2.38-8.61,1.16-11.86-.93-2.44-2.83-4.4-5.24-5.42-4.17-1.86-8.98-.11-11.47,1.1-.99.48-1.41,1.68-.93,2.67.48.99,1.67,1.41,2.66.93,1.51-.73,5.31-2.3,8.12-1.05,1.44.57,2.58,1.72,3.13,3.17.84,2.23.44,5.51-1.05,8.78-3.52,7.71-11.11,12.34-17.33,15.5-8.62,4.46-17.49,8.41-26.56,11.84,7.84-31.01,21.19-41.02,30.13-47.72,2.03-1.44,3.96-3.02,5.77-4.73,7.59-7.7,5.32-12.85,2.92-18.31-.3-.68-.61-1.38-.91-2.11-1.07-2.68-.85-5.7.59-8.19,19.41,9.51,22.79,18.85,23.37,22.18-2.03-.02-3.99.74-5.48,2.13h0c-1.63,1.76-1.86,4.4-.57,6.41.23.31.49.59.79.82-2.18,3.28-2.95,8.08-2.87,11.14.02.77.14,1.73.29,2.84.86,6.71,2.47,19.19-11.57,29.12-7.37,5.15-15.67,8.82-24.43,10.8l3.09-3.1c.78-.78.78-2.04,0-2.82s-2.04-.78-2.82,0l-7.5,7.52s-.02.03-.03.04c-.01.02-.03.03-.05.04l-27.69,31.25-2.37-2.89,8.78-9.69c.75-.81.7-2.07-.11-2.82s-2.07-.7-2.82.11c0,0,0,.01-.01.02l-8.96,9.89-4.49-.84Z"/>
    </g>
  </g>
</svg>