<?xml version="1.0" encoding="UTF-8"?>
<svg id="Layer_2" data-name="Layer 2" xmlns="http://www.w3.org/2000/svg" viewBox="0 0 168 164.38">
  <defs>
    <style>
      .cls-1 {
        fill: #00b2ca;
      }
    </style>
  </defs>
  <g id="Bottom_navigation" data-name="Bottom navigation">
    <g id="Health_Condition" data-name="Health Condition">
      <path d="M100.57,59.38c-6.09-.01-11.99,2.19-16.57,6.2-10.07-8.76-25.21-8.17-34.57,1.34-9.91,10.09-9.91,26.25,0,36.34l33.15,33.53c.78.79,2.04.79,2.83.02,0,0,.01-.01.02-.02l33.15-33.53c9.91-10.09,9.91-26.25,0-36.34-4.74-4.83-11.23-7.55-18-7.54ZM84,132.54l-31.44-31.8h14.56c.77,0,1.48-.45,1.81-1.15l2.48-5.26,2.5,5.27c.33.7,1.04,1.14,1.81,1.14h4c.94,0,1.75-.65,1.95-1.56l2.56-11.35,5.12,23.24c.19.88.95,1.52,1.84,1.57.88,0,1.67-.53,2.01-1.35l3.63-10.65h2.35c.85,0,1.61-.54,1.89-1.35l1.8-5.23,1.51,5.14c.25.85,1.03,1.44,1.92,1.44h9.25l-31.54,31.9ZM118.71,96.63h-10.92l-2.85-9.74c-.24-.84-1-1.42-1.87-1.44-.87-.03-1.67.52-1.94,1.35l-3.38,9.83h-2.35c-.86,0-1.62.54-1.89,1.35l-1.78,5.23-5.51-25.02c-.2-.92-1.01-1.57-1.95-1.57h0c-.94,0-1.75.65-1.95,1.56l-4.18,18.55h-1.13l-3.77-7.95c-.33-.7-1.03-1.14-1.81-1.14h0c-.77,0-1.48.45-1.81,1.15l-3.74,7.94h-16.51c-5.39-8.6-4.18-19.76,2.93-27.01,8.23-8.37,21.69-8.48,30.06-.25.08.08.17.16.25.25.8.76,2.05.76,2.85,0,8.23-8.37,21.69-8.48,30.05-.25.08.08.17.16.25.25,7.07,7.21,8.3,18.32,2.99,26.9h0Z"/>
      <path class="cls-1" d="M64.64,71.16c-4.66.63-8.46,4.03-9.61,8.58-.21,1.07.48,2.12,1.56,2.34,1.08.21,2.12-.47,2.36-1.54.84-2.93,3.36-5.08,6.39-5.44,1.09-.19,1.81-1.23,1.62-2.32s-1.23-1.81-2.32-1.62c0,0,0,0,0,0Z"/>
      <path d="M84,26.38c12.56,0,24.81,3.95,34.99,11.31.51-1.25,1.2-2.41,2.05-3.44-22.17-15.82-51.93-15.82-74.09,0,.85,1.04,1.55,2.2,2.05,3.44,10.18-7.36,22.43-11.32,34.99-11.31Z"/>
      <path d="M139.39,63.34c6.14,14.74,6.14,31.33,0,46.07,1.36.07,2.7.35,3.97.83,6.18-15.31,6.18-32.43,0-47.74-1.27.48-2.61.76-3.97.83h0Z"/>
      <path d="M28.61,109.42c-6.14-14.74-6.14-31.33,0-46.07-1.36-.07-2.7-.35-3.97-.83-6.18,15.31-6.18,32.43,0,47.74,1.27-.48,2.61-.76,3.97-.83h0Z"/>
      <path class="cls-1" d="M29.33,59.38h14.67c1.1,0,2-.9,2-2v-14.67c0-5.15-4.18-9.33-9.33-9.33-4.45,0-8.28,3.15-9.15,7.51-5.06,1.01-8.34,5.92-7.33,10.98.87,4.37,4.7,7.51,9.15,7.51h0ZM29.33,44.72c1.1,0,2-.9,2-2,0-2.95,2.39-5.33,5.33-5.33,2.95,0,5.33,2.39,5.33,5.33h0v12.67h-12.67c-2.95,0-5.33-2.39-5.33-5.33,0-2.95,2.39-5.33,5.33-5.33h0Z"/>
      <path class="cls-1" d="M124,59.38h14.67c5.15,0,9.33-4.18,9.33-9.33,0-4.45-3.15-8.28-7.51-9.15-1.01-5.06-5.92-8.34-10.98-7.33-4.37.87-7.51,4.7-7.51,9.15v14.67c0,1.1.9,2,2,2ZM126,42.72c0-2.95,2.39-5.33,5.33-5.33s5.33,2.39,5.33,5.33c0,1.1.9,2,2,2,2.95,0,5.34,2.37,5.35,5.32s-2.37,5.34-5.32,5.35c0,0-.02,0-.03,0h-12.67v-12.67Z"/>
      <path class="cls-1" d="M44,113.38h-14.67c-5.15,0-9.33,4.18-9.33,9.33,0,4.45,3.15,8.28,7.51,9.15,1.01,5.06,5.92,8.34,10.98,7.33,4.37-.87,7.51-4.7,7.51-9.15v-14.67c0-1.1-.9-2-2-2ZM42,130.05c0,2.95-2.39,5.33-5.33,5.33s-5.33-2.39-5.33-5.33c0-1.1-.9-2-2-2-2.95,0-5.33-2.39-5.33-5.33s2.39-5.33,5.33-5.33h12.67v12.67Z"/>
      <path class="cls-1" d="M138.67,113.38h-14.67c-1.1,0-2,.9-2,2v14.67c0,5.15,4.18,9.33,9.33,9.33,4.45,0,8.28-3.15,9.15-7.51,5.06-1.01,8.34-5.92,7.33-10.98-.87-4.37-4.7-7.51-9.15-7.51h0ZM138.67,128.05c-1.1,0-2,.9-2,2,0,2.95-2.39,5.33-5.33,5.33s-5.33-2.39-5.33-5.33v-12.67h12.67c2.95-.02,5.35,2.36,5.36,5.3.02,2.95-2.36,5.35-5.3,5.36-.02,0-.04,0-.06,0Z"/>
      <g>
        <path d="M107.05,19.88c1.66,0,3-1.34,3-3s-1.34-3-3-3-3,1.34-3,3c0,1.66,1.34,3,3,3ZM107.05,15.38c.83,0,1.5.67,1.5,1.5s-.67,1.5-1.5,1.5-1.5-.67-1.5-1.5c0-.83.67-1.5,1.5-1.5Z"/>
        <path d="M163.5,53.38c-1.1,0-2,.9-2,2s.9,2,2,2,2-.9,2-2c0-1.1-.9-2-2-2ZM163.5,56.38c-.55,0-1-.45-1-1s.45-1,1-1,1,.45,1,1c0,.55-.45,1-1,1Z"/>
        <path d="M136,.38c-1.1,0-2,.9-2,2s.9,2,2,2,2-.9,2-2h0c0-1.1-.9-2-2-2ZM136,3.38c-.55,0-1-.45-1-1s.45-1,1-1,1,.45,1,1c0,.55-.45,1-1,1Z"/>
        <path d="M149.75,32.38c-1.1,0-2,.9-2,2s.9,2,2,2,2-.9,2-2c0-1.1-.9-2-2-2ZM149.75,35.38c-.55,0-1-.45-1-1s.45-1,1-1,1,.45,1,1c0,.55-.45,1-1,1Z"/>
        <path d="M45.25,18.38c0-1.1-.9-2-2-2s-2,.9-2,2,.9,2,2,2c1.1,0,2-.9,2-2ZM42.25,18.38c0-.55.45-1,1-1s1,.45,1,1-.45,1-1,1c-.55,0-1-.45-1-1Z"/>
      </g>
      <path class="cls-1" d="M8.64,39.39l1.49-1.96-.94-.53-.95,2.19h-.03l-.97-2.17-.95.55,1.47,1.91v.03l-2.3-.3v1.06l2.32-.3v.03l-1.49,1.91.89.56,1.02-2.21h.03l.94,2.19.99-.56-1.5-1.88v-.03l2.36.28v-1.06l-2.36.31v-.03Z"/>
      <path class="cls-1" d="M9.75,4.13l-.86,1.1.51.32.59-1.27h.02l.54,1.26.57-.32-.86-1.08v-.02l1.36.16v-.61l-1.36.18v-.02l.86-1.13-.54-.31-.55,1.26h-.02l-.56-1.25-.55.32.85,1.1v.02l-1.32-.17v.61l1.33-.17v.02Z"/>
      <path class="cls-1" d="M166.25,12.94v-1.04l-2.32.31v-.03l1.46-1.92-.92-.52-.94,2.15h-.03l-.95-2.13-.94.54,1.44,1.87v.03l-2.26-.29v1.04l2.27-.29v.03l-1.46,1.87.88.55,1-2.16h.03l.92,2.15.97-.55-1.47-1.84v-.03l2.32.28Z"/>
      <path class="cls-1" d="M79,2.11l1.26-1.65-.79-.45-.81,1.85h-.03l-.82-1.84-.81.46,1.25,1.62v.03l-1.95-.25v.9l1.96-.25v.03l-1.26,1.62.75.48.86-1.87h.03l.79,1.85.83-.48-1.27-1.59v-.03l2,.24v-.9l-2,.26v-.03Z"/>
      <circle cx="2" cy="148.38" r="2"/>
      <path d="M11,146.38h-3c-1.1,0-2,.9-2,2s.9,2,2,2h3c1.1,0,2-.9,2-2s-.9-2-2-2Z"/>
      <path d="M160,146.38h-3c-1.1,0-2,.9-2,2s.9,2,2,2h3c1.1,0,2-.9,2-2s-.9-2-2-2Z"/>
      <circle cx="166" cy="148.38" r="2"/>
      <path class="cls-1" d="M118.15,154.38h-8.31c-1.1.09-1.93,1.06-1.84,2.16.08.98.86,1.76,1.84,1.84h8.31c1.1-.09,1.93-1.06,1.84-2.16-.08-.98-.86-1.76-1.84-1.84Z"/>
      <path class="cls-1" d="M58.15,154.38h-8.31c-1.1.09-1.93,1.06-1.84,2.16.08.98.86,1.76,1.84,1.84h8.31c1.1-.09,1.93-1.06,1.84-2.16-.08-.98-.86-1.76-1.84-1.84Z"/>
      <path class="cls-1" d="M104,154.38h-40c-1.1,0-2,.9-2,2s.9,2,2,2h15.94v2h-7.94c-1.1,0-2,.9-2,2s.9,2,2,2h25c1.1,0,2-.9,2-2s-.9-2-2-2h-8.94v-2h15.94c1.1,0,2-.9,2-2s-.9-2-2-2Z"/>
      <path d="M150.72,146.38h-44.48c5.26-1.96,10.23-4.6,14.8-7.86-.85-1.04-1.55-2.2-2.05-3.44-20.89,15.07-49.09,15.07-69.98,0-.51,1.25-1.2,2.41-2.05,3.44,4.57,3.26,9.55,5.9,14.8,7.86H17.28c-1.1-.14-2.12.63-2.26,1.74-.14,1.1.63,2.12,1.74,2.26.17.02.35.02.52,0h133.44c1.1.14,2.12-.63,2.26-1.74s-.63-2.12-1.74-2.26c-.17-.02-.35-.02-.52,0Z"/>
    </g>
  </g>
</svg>