<?xml version="1.0" encoding="UTF-8"?>
<svg id="Layer_2" data-name="Layer 2" xmlns="http://www.w3.org/2000/svg" viewBox="0 0 168 165.01">
  <defs>
    <style>
      .cls-1 {
        fill: #00b2ca;
      }
    </style>
  </defs>
  <g id="Bottom_navigation" data-name="Bottom navigation">
    <g id="Horses">
      <path class="cls-1" d="M147.46,111.64c-.75-.81-2.02-.85-2.83-.1-13.3,12.4-14.58,30.57-14.63,31.34-.07,1.1.77,2.05,1.87,2.12.99.17,1.93-.49,2.1-1.48.02-.13.03-.26.02-.39.01-.17,1.25-17.37,13.37-28.66.81-.75.85-2.02.1-2.83,0,0,0,0,0,0Z"/>
      <circle class="cls-1" cx="30" cy="131.01" r="2"/>
      <path class="cls-1" d="M64.85,81.25c-.42-1.02-1.59-1.51-2.61-1.09h0s-3.81,1.57-3.81,1.57c-1.18.49-2.05,1.5-2.36,2.74l-1.01,4.07c-.27,1.07.39,2.16,1.46,2.42,1.07.27,2.16-.39,2.42-1.46h0l.4-1.6c1.03.37,2.17-.16,2.54-1.2.24-.66.11-1.39-.33-1.93l2.21-.91c1.02-.42,1.51-1.59,1.09-2.61Z"/>
      <path class="cls-1" d="M129.02,79.29c-4.25-2.69-8.12-5.92-11.53-9.61-.74-.82-2-.9-2.82-.16s-.9,2-.16,2.82h0c3.67,4,7.87,7.5,12.47,10.39.95.55,2.17.24,2.74-.7.56-.95.25-2.18-.7-2.74Z"/>
      <circle cx="2" cy="149.01" r="2"/>
      <path d="M11,147.01h-3c-1.1,0-2,.9-2,2s.9,2,2,2h3c1.1,0,2-.9,2-2s-.9-2-2-2Z"/>
      <path d="M160,147.01h-3c-1.1,0-2,.9-2,2s.9,2,2,2h3c1.1,0,2-.9,2-2s-.9-2-2-2Z"/>
      <circle cx="166" cy="149.01" r="2"/>
      <path class="cls-1" d="M118.15,155.01h-8.31c-1.1.09-1.93,1.06-1.84,2.16.08.98.86,1.76,1.84,1.84h8.31c1.1-.09,1.93-1.06,1.84-2.16-.08-.98-.86-1.76-1.84-1.84Z"/>
      <path class="cls-1" d="M58.15,155.01h-8.31c-1.1.09-1.93,1.06-1.84,2.16.08.98.86,1.76,1.84,1.84h8.31c1.1-.09,1.93-1.06,1.84-2.16-.08-.98-.86-1.76-1.84-1.84Z"/>
      <path class="cls-1" d="M104,155.01h-40c-1.1,0-2,.9-2,2s.9,2,2,2h15.94v2h-7.94c-1.1,0-2,.9-2,2s.9,2,2,2h25c1.1,0,2-.9,2-2s-.9-2-2-2h-8.94v-2h15.94c1.1,0,2-.9,2-2s-.9-2-2-2Z"/>
      <g>
        <path d="M150.72,147.01h-36.84c-.36-4.16-1.31-8.25-2.83-12.14.92-6.75,3.51-13.16,7.54-18.65.67-.88.5-2.13-.38-2.8-.88-.67-2.13-.5-2.8.38h0c-3.35,4.51-5.8,9.62-7.22,15.06-2.69-4.81-6.16-9.14-10.26-12.83.79-1.95,1.26-4.02,1.41-6.12.03-1.1-.83-2.03-1.94-2.06-1.1-.03-2.02.83-2.06,1.93-.37,4.24-2.32,8.19-5.47,11.05-5.05,4.44-18,6.32-23.53,7.12-1.27.12-2.52.34-3.74.68-11.64,4.54-12.87,14.65-12.91,15.08-.03.26-.01.53-.03.79-.1,1.87-1.88,2.46-3.48,2.49h-10.82c2.44-1.97,4.56-4.29,6.31-6.9.6-.93.33-2.17-.6-2.76-.92-.59-2.15-.34-2.75.58-1.65,2.44-3.68,4.61-6.02,6.41-.13-.3-.4-1.09-.42-1.13-.58-1.33-1.56-2.45-2.79-3.22-.08-.05-.16-.09-.24-.12-.04-.02-3.52-1.6-4.57-4.43-.5-1.49-.34-3.11.44-4.47.02-.04.03-.07.05-.11.02-.06,2.4-5.68,6.05-9.06.09-.08.16-.17.23-.26.33-.43,8.14-10.73,11.91-17.11.26-.42,6.39-10.26,7.9-14.97.06-.18.09-.38.09-.57.38-4.37,2.45-8.43,5.77-11.3.08-.07.15-.14.21-.21.82-.95,8.06-9.43,9.83-13.74.21-.57,4.45-11.59,15.74-16.35-.77,2-1.57,3.77-2.31,5.27-.49.99-.09,2.19.9,2.68s2.19.09,2.68-.9h0c3.7-7.44,5.94-15.52,6.6-23.8.02-.3.07-1.1.08-1.23,5.13,7.94,9.37,17.02,6.73,29.29-.21,1.1.51,2.17,1.61,2.38.11.02.23.03.35.04.94,0,1.75-.66,1.95-1.58.89-4.02,1.11-8.16.66-12.26,4.08,1.88,7.88,4.33,11.29,7.26,1.15,1.08,16.19,15.2,24.5,17.12,1.08.25,2.15-.42,2.4-1.49s-.42-2.15-1.49-2.4c0,0,0,0,0,0-2.4-.56-5.74-2.54-9.18-4.98,0,0,2.64.33,2.73.33,1.1,0,2-.9,2-2,0-1.01-.75-1.85-1.75-1.98l-9.25-1.18c-.78-.64-1.53-1.27-2.25-1.89-1.08-.92,2.97.2,3.01.2,1.1,0,2-.9,2-2,0-1.05-.81-1.92-1.86-1.99l-8-.55s-1.77-1.47-2.52-2.04c0,0,2.78.21,2.83.21,1.1,0,2-.9,2-2,0-1.04-.81-1.91-1.85-1.99l-9.87-.75c-1.78-.99-3.65-1.83-5.56-2.52-1.57-5.74-4.12-11.17-7.52-16.06-1.2-1.83-2.57-3.91-4.58-3.37-2.02.54-2.15,2.83-2.36,6.31-.27,4.43-1.04,8.81-2.3,13.06-2.72.8-5.31,1.98-7.7,3.5-3.45-3.64-6.26-7.85-8.3-12.44-1.19-2.47-2.31-4.8-4.46-4.47-2.12.32-2.51,2.9-2.85,5.17-.83,5.51-2.33,15.51,2.68,26.83-.28.62-.44,1.03-.47,1.12-1.25,3.04-6.86,9.92-9.04,12.47-4.04,3.53-6.56,8.48-7.03,13.82-1.5,4.36-7.34,13.73-7.42,13.87-3.46,5.83-10.64,15.39-11.58,16.64-2.89,2.98-5.22,6.46-6.87,10.27-1.25,2.33-1.46,5.07-.58,7.56,1.5,4.08,5.69,6.23,6.57,6.65.44.31.81.72,1.05,1.2.27.81.6,1.61,1,2.36h-11.89c-1.1-.14-2.12.63-2.26,1.74-.14,1.1.63,2.12,1.74,2.26.17.02.35.02.52,0h133.44c1.1.14,2.12-.63,2.26-1.74s-.63-2.12-1.74-2.26c-.17-.02-.35-.02-.52,0h0ZM64.69,35.54c2.12,4.69,4.99,9.01,8.5,12.79-2.79,2.35-5.22,5.1-7.18,8.18-2.52-7.33-2.27-14.33-1.32-20.97ZM53.7,144.01c.17-1.07,1.63-8.24,10.32-11.63.31-.09,1.64-.29,2.92-.47,6.38-.92,19.66-2.85,25.6-8.08,1.36-1.2,2.54-2.58,3.52-4.11,3.4,3.21,12.01,13.06,13.74,27.29h-56.67c.41-.95.6-1.97.58-3Z"/>
        <path d="M125.52,38.54c1.66,0,3-1.34,3-3s-1.34-3-3-3-3,1.34-3,3c0,1.66,1.34,3,3,3ZM125.52,34.04c.83,0,1.5.67,1.5,1.5s-.67,1.5-1.5,1.5-1.5-.67-1.5-1.5c0-.83.67-1.5,1.5-1.5Z"/>
        <path d="M159.03,22.57c-1.1,0-2,.9-2,2s.9,2,2,2,2-.9,2-2c0-1.1-.9-2-2-2ZM159.03,25.57c-.55,0-1-.45-1-1s.45-1,1-1,1,.45,1,1c0,.55-.45,1-1,1Z"/>
        <path d="M34.75,58.77c-1.1,0-2,.9-2,2s.9,2,2,2,2-.9,2-2c0-1.1-.9-2-2-2ZM34.75,61.77c-.55,0-1-.45-1-1s.45-1,1-1,1,.45,1,1c0,.55-.45,1-1,1Z"/>
        <path d="M99.48,13.08c-1.1,0-2,.9-2,2s.9,2,2,2,2-.9,2-2c0-1.1-.9-2-2-2ZM99.48,16.08c-.55,0-1-.45-1-1s.45-1,1-1,1,.45,1,1c0,.55-.45,1-1,1Z"/>
        <path d="M14.48,17.08c0-1.1-.9-2-2-2s-2,.9-2,2,.9,2,2,2c1.1,0,2-.9,2-2ZM11.48,17.08c0-.55.45-1,1-1s1,.45,1,1-.45,1-1,1c-.55,0-1-.45-1-1Z"/>
      </g>
      <path class="cls-1" d="M8.07,58.09l1.49-1.96-.94-.53-.95,2.19h-.03l-.97-2.17-.95.55,1.47,1.91v.03l-2.3-.3v1.06l2.32-.3v.03l-1.49,1.91.89.56,1.02-2.21h.03l.94,2.19.99-.56-1.5-1.88v-.03l2.36.28v-1.06l-2.36.31v-.03Z"/>
      <path class="cls-1" d="M49.26,23.14l-.86,1.1.51.33.59-1.27h.02l.54,1.26.57-.32-.87-1.08v-.02l1.36.16v-.61l-1.36.18v-.02l.86-1.13-.54-.31-.55,1.26h-.02l-.56-1.25-.55.32.85,1.1v.02l-1.33-.17v.61l1.33-.17v.02Z"/>
      <path class="cls-1" d="M138.05,5.84v-1.04l-2.32.31v-.03l1.46-1.92-.92-.52-.94,2.15h-.03l-.95-2.13-.94.54,1.44,1.87v.03l-2.26-.29v1.04l2.27-.29v.03l-1.46,1.87.88.55,1-2.16h.03l.92,2.15.97-.55-1.47-1.84v-.03l2.32.28Z"/>
      <path class="cls-1" d="M65.36,2.11l1.26-1.65-.79-.45-.81,1.85h-.03l-.82-1.84-.81.46,1.25,1.61v.03l-1.95-.25v.9l1.96-.25v.03l-1.26,1.62.76.48.86-1.87h.03l.79,1.85.83-.48-1.27-1.59v-.03l2,.24v-.9l-2,.26v-.03Z"/>
    </g>
  </g>
</svg>