<?xml version="1.0" encoding="UTF-8"?>
<svg id="Layer_2" data-name="Layer 2" xmlns="http://www.w3.org/2000/svg" viewBox="0 0 168 161.95">
  <defs>
    <style>
      .cls-1 {
        fill: #00b2ca;
      }
    </style>
  </defs>
  <g id="Bottom_navigation" data-name="Bottom navigation">
    <g id="Cats">
      <path d="M64,88.94c1.81,0,3.53-.82,4.66-2.23.25,1.39.36,2.8.34,4.21-.01,1.1.87,2.01,1.98,2.02h.02c1.1,0,1.99-.88,2-1.98.07-6.46-1.76-11.06-5.44-13.69-6.11-4.36-14.87-1.3-15.23-1.16-1.04.37-1.58,1.52-1.21,2.56.37,1.04,1.52,1.58,2.56,1.21,1.89-.6,3.87-.91,5.85-.92-2.21,2.46-2,6.25.47,8.46,1.1.99,2.53,1.53,4.01,1.53h0ZM64,84.94c-1.1,0-2-.9-2-2s.9-2,2-2c1.1,0,2,.9,2,2,0,1.1-.9,2-2,2Z"/>
      <path d="M117.88,78.67c.37-1.04-.17-2.18-1.21-2.56,0,0,0,0,0,0-.37-.13-9.12-3.19-15.23,1.16-3.68,2.62-5.51,7.23-5.44,13.69.01,1.1.9,1.98,2,1.98h.02c1.1-.01,1.99-.92,1.98-2.02-.02-1.41.09-2.82.34-4.21,2.07,2.58,5.85,2.99,8.43.92,2.58-2.07,2.99-5.85.92-8.43-.07-.09-.14-.17-.22-.26,1.99.01,3.97.33,5.87.93,1.04.37,2.18-.17,2.55-1.21h0ZM105,84.94c-1.1,0-2-.9-2-2,0-1.1.9-2,2-2,1.1,0,2,.9,2,2,0,1.1-.9,2-2,2h0Z"/>
      <path d="M92.87,127.94c3.62.03,7.08-1.44,9.59-4.05.76-.81.72-2.07-.09-2.83-.8-.75-2.07-.72-2.82.08-2.33,2.35-5.72,3.31-8.93,2.53-1.09-.26-2.15-.64-3.15-1.14,2.68-2.61,4.74-5.78,6.03-9.3.6-1.85-.4-3.83-2.24-4.45-4.66-1.15-9.54-1.13-14.19.08-1.94.64-2.99,2.72-2.36,4.66.01.04.03.08.04.12,1.29,3.35,3.3,6.39,5.88,8.89-1.01.5-2.07.88-3.16,1.14-3.25.79-6.67-.2-8.99-2.6-.75-.81-2.02-.85-2.83-.1-.8.75-.85,2-.11,2.81,3.31,3.45,8.2,4.89,12.85,3.78,2.01-.48,3.92-1.28,5.67-2.37,1.74,1.09,3.65,1.9,5.66,2.37,1.04.24,2.1.37,3.17.37ZM84.04,120.25c-2.37-2.09-4.23-4.71-5.41-7.64,3.57-.84,7.28-.88,10.87-.12-1.18,2.98-3.05,5.64-5.45,7.77Z"/>
      <path class="cls-1" d="M59.99,111.8c-.07-1.1-1.02-1.93-2.12-1.86,0,0-.01,0-.02,0-6.72.47-23.77,2.62-37.04,12.38-.89.65-1.08,1.91-.43,2.8.66.88,1.9,1.07,2.8.43,12.43-9.14,28.59-11.17,34.95-11.61,1.1-.08,1.93-1.03,1.85-2.14Z"/>
      <path class="cls-1" d="M61.95,117.51c-.24-1.08-1.3-1.76-2.38-1.52h0c-.89.2-22.06,4.98-35.11,20.67-.71.85-.59,2.11.26,2.82,0,0,0,0,0,0,.85.69,2.1.58,2.82-.26,12.16-14.61,32.69-19.28,32.89-19.32,1.08-.24,1.76-1.3,1.52-2.38h0Z"/>
      <path d="M25.17,84.12c-2.07,9.78-.79,19.98,3.64,28.94,1.23-.56,2.45-1.08,3.68-1.56-2.8-5.65-4.27-11.86-4.29-18.16,0-2.15.18-4.3.52-6.43.31-1.5,1.5-5.53,3.63-7.5.81-.75.86-2.02.11-2.83-.75-.81-2.02-.86-2.83-.11h0c-.41.39-.79.8-1.13,1.25-2.94-11.98-5.8-28.33-3.9-41.72,0,.01.01.02.05.03,3.17,1.91,10.73,6.37,26.28,15.14-1.47,1.02-2.89,2.11-4.25,3.27-.83.72-.92,1.99-.2,2.82,0,0,0,0,0,0,.74.81,1.98.9,2.82.2,3.33-2.79,6.97-5.2,10.85-7.17,15.43-6.2,32.66-6.19,48.09.02,4.03,1.92,7.86,4.25,11.41,6.96.84.7,2.09.61,2.82-.2.72-.83.63-2.1-.2-2.82,0,0,0,0,0,0-1.5-1.24-3.09-2.36-4.76-3.36,11.58-6.63,21.03-12.14,25.85-15.01,1.92,13.32-.9,29.6-3.78,41.43-.25-.29-.51-.57-.79-.84-.81-.75-2.07-.71-2.83.09-.75.81-.71,2.07.09,2.83,0,0,.01.01.02.02,2.05,1.89,3.21,5.86,3.55,7.5.34,2.13.52,4.28.52,6.43,0,6.35-1.46,12.61-4.25,18.32,1.22.49,2.45,1.02,3.68,1.59,3-6.21,4.57-13.01,4.57-19.9,0-3.32-.37-6.64-1.11-9.88-.27-1.2-.26-2.45.05-3.64,3.09-12.28,6.34-29.97,4.24-44.52-.19-1.29-1.01-2.39-2.18-2.95-1.22-.59-2.65-.53-3.82.15-5.01,2.93-15.15,8.83-27.5,15.89-18.81-9.03-40.71-9-59.48.1-16.49-9.29-24.37-13.93-27.61-15.89-1.17-.71-2.62-.78-3.86-.19-1.18.55-2.01,1.66-2.2,2.96-2.11,14.76,1.24,32.72,4.43,45.19.3,1.17.33,2.39.08,3.57Z"/>
      <path class="cls-1" d="M147.18,122.33c-13.27-9.76-30.33-11.91-37.04-12.38-1.1-.08-2.06.75-2.14,1.85-.08,1.1.75,2.06,1.85,2.14,6.37.45,22.53,2.47,34.95,11.61.89.64,2.13.45,2.8-.43.65-.89.46-2.14-.43-2.8Z"/>
      <path class="cls-1" d="M108.43,115.98c-1.08-.24-2.14.45-2.38,1.53-.24,1.08.45,2.14,1.52,2.38.21.05,20.73,4.71,32.89,19.32.71.84,1.96.95,2.82.26.85-.71.97-1.97.26-2.82,0,0,0,0,0,0-13.05-15.69-34.21-20.48-35.11-20.67Z"/>
      <path class="cls-1" d="M82,128.94c-1.1,0-2,.9-2,2s.9,2,2,2h4c1.1,0,2-.9,2-2s-.9-2-2-2h-4Z"/>
      <circle cx="2" cy="145.95" r="2"/>
      <path d="M11,143.95h-3c-1.1,0-2,.9-2,2s.9,2,2,2h3c1.1,0,2-.9,2-2s-.9-2-2-2Z"/>
      <path d="M160,143.95h-3c-1.1,0-2,.9-2,2s.9,2,2,2h3c1.1,0,2-.9,2-2s-.9-2-2-2Z"/>
      <circle cx="166" cy="145.95" r="2"/>
      <path class="cls-1" d="M118.15,151.95h-8.31c-1.1.09-1.93,1.06-1.84,2.16.08.98.86,1.76,1.84,1.84h8.31c1.1-.09,1.93-1.06,1.84-2.16-.08-.98-.86-1.76-1.84-1.84Z"/>
      <path class="cls-1" d="M58.15,151.95h-8.31c-1.1.09-1.93,1.06-1.84,2.16.08.98.86,1.76,1.84,1.84h8.31c1.1-.09,1.93-1.06,1.84-2.16-.08-.98-.86-1.76-1.84-1.84Z"/>
      <path class="cls-1" d="M104,151.95h-40c-1.1,0-2,.9-2,2s.9,2,2,2h15.94v2h-7.94c-1.1,0-2,.9-2,2s.9,2,2,2h25c1.1,0,2-.9,2-2s-.9-2-2-2h-8.94v-2h15.94c1.1,0,2-.9,2-2s-.9-2-2-2Z"/>
      <g>
        <path d="M150.72,143.95h-53.75c.29-.11.58-.2.89-.27,9.86-1.91,19.13-6.12,27.04-12.3-1.29-.77-2.57-1.47-3.82-2.11-7.13,5.23-15.33,8.81-24.01,10.5-2.26.68-4.44,1.59-6.52,2.69-3.77,1.98-8.28,1.99-12.06.02-2.08-1.07-4.25-1.93-6.5-2.58-8.97-1.65-17.43-5.35-24.74-10.8-1.25.63-2.53,1.32-3.82,2.08,8.09,6.43,17.65,10.78,27.81,12.65.16.03.32.08.48.13H17.28c-1.1-.14-2.12.63-2.26,1.74-.14,1.1.63,2.12,1.74,2.26.17.02.35.02.52,0h133.44c1.1.14,2.12-.63,2.26-1.74s-.63-2.12-1.74-2.26c-.17-.02-.35-.02-.52,0Z"/>
        <path d="M5.33,42.11c1.66,0,3-1.34,3-3s-1.34-3-3-3-3,1.34-3,3c0,1.66,1.34,3,3,3ZM5.33,37.61c.83,0,1.5.67,1.5,1.5s-.67,1.5-1.5,1.5-1.5-.67-1.5-1.5c0-.83.67-1.5,1.5-1.5Z"/>
        <path d="M158.3,65.95c-1.1,0-2,.9-2,2s.9,2,2,2,2-.9,2-2c0-1.1-.9-2-2-2ZM158.3,68.95c-.55,0-1-.45-1-1s.45-1,1-1,1,.45,1,1c0,.55-.45,1-1,1Z"/>
        <path d="M68.83,9.7c-1.1,0-2,.9-2,2s.9,2,2,2,2-.9,2-2c0-1.1-.9-2-2-2ZM68.83,12.7c-.55,0-1-.45-1-1s.45-1,1-1,1,.45,1,1c0,.55-.45,1-1,1Z"/>
        <path d="M120,33.45c-1.1,0-2,.9-2,2s.9,2,2,2,2-.9,2-2c0-1.1-.9-2-2-2ZM120,36.45c-.55,0-1-.45-1-1s.45-1,1-1,1,.45,1,1c0,.55-.45,1-1,1Z"/>
        <path d="M56.72,34.7c0-1.1-.9-2-2-2s-2,.9-2,2,.9,2,2,2c1.1,0,2-.9,2-2ZM53.72,34.7c0-.55.45-1,1-1s1,.45,1,1-.45,1-1,1c-.55,0-1-.45-1-1Z"/>
      </g>
      <path class="cls-1" d="M19.26,2.5l1.49-1.95L19.8.01l-.95,2.19h-.03L17.85.03l-.96.55,1.47,1.91v.03l-2.3-.3v1.06l2.32-.3v.03l-1.49,1.91.89.56,1.02-2.21h.03l.94,2.19.99-.56-1.5-1.88v-.03l2.36.28v-1.06l-2.36.31v-.03Z"/>
      <path class="cls-1" d="M99.2,15.03l-.86,1.1.51.32.59-1.27h.02l.54,1.26.57-.32-.86-1.08v-.02l1.36.16v-.61l-1.36.18v-.02l.86-1.13-.54-.31-.55,1.26h-.02l-.56-1.25-.55.32.85,1.1v.02l-1.32-.17v.61l1.33-.17v.02Z"/>
      <path class="cls-1" d="M134.68,3.21v-1.04l-2.32.31v-.03l1.46-1.92-.92-.52-.94,2.15h-.03l-.95-2.13-.94.54,1.44,1.87v.03l-2.26-.29v1.04l2.27-.29v.03l-1.46,1.87.87.55,1-2.16h.03l.92,2.15.97-.55-1.47-1.84v-.03l2.32.28Z"/>
      <path class="cls-1" d="M161,23.89l1.26-1.65-.79-.45-.81,1.85h-.03l-.82-1.84-.81.46,1.24,1.62v.03l-1.95-.25v.9l1.96-.25v.03l-1.26,1.61.76.48.86-1.87h.03l.79,1.85.83-.48-1.27-1.59v-.03l2,.24v-.9l-2,.26v-.03Z"/>
    </g>
  </g>
</svg>