<?xml version="1.0" encoding="UTF-8"?>
<svg id="Layer_2" data-name="Layer 2" xmlns="http://www.w3.org/2000/svg" viewBox="0 0 168 160.74">
  <defs>
    <style>
      .cls-1 {
        fill: #00b2ca;
      }
    </style>
  </defs>
  <g id="Bottom_navigation" data-name="Bottom navigation">
    <g id="Size">
      <circle cx="2" cy="144.74" r="2"/>
      <path d="M11,142.74h-3c-1.1,0-2,.9-2,2s.9,2,2,2h3c1.1,0,2-.9,2-2s-.9-2-2-2Z"/>
      <path class="cls-1" d="M118.15,150.74h-8.31c-1.1.09-1.93,1.06-1.84,2.16.08.98.86,1.76,1.84,1.84h8.31c1.1-.09,1.93-1.06,1.84-2.16-.08-.98-.86-1.76-1.84-1.84Z"/>
      <path class="cls-1" d="M58.15,150.74h-8.31c-1.1.09-1.93,1.06-1.84,2.16.08.98.86,1.76,1.84,1.84h8.31c1.1-.09,1.93-1.06,1.84-2.16-.08-.98-.86-1.76-1.84-1.84Z"/>
      <path class="cls-1" d="M104,150.74h-40c-1.1,0-2,.9-2,2s.9,2,2,2h15.94v2h-7.94c-1.1,0-2,.9-2,2s.9,2,2,2h25c1.1,0,2-.9,2-2s-.9-2-2-2h-8.94v-2h15.94c1.1,0,2-.9,2-2s-.9-2-2-2Z"/>
      <path d="M88,111.74h4v-33c0-2.21-1.79-4-4-4h-33v4h33v33Z"/>
      <path d="M160,142.74h-3c-1.1,0-2,.9-2,2s.9,2,2,2h3c1.1,0,2-.9,2-2s-.9-2-2-2Z"/>
      <circle cx="166" cy="144.74" r="2"/>
      <path d="M150.72,142.74h-2.72v-23c0-2.21-1.79-4-4-4H51V22.74c0-2.21-1.79-4-4-4h-23c-2.21,0-4,1.79-4,4h0v120h-2.72c-1.1-.15-2.12.63-2.26,1.74s.63,2.12,1.74,2.26c.17.02.35.02.53,0h133.44c1.1.15,2.12-.63,2.26-1.74s-.63-2.12-1.74-2.26c-.17-.02-.35-.02-.53,0ZM144,142.74H24V22.74h23v4h-9c-1.1,0-2,.9-2,2s.9,2,2,2h9v4h-4c-1.1,0-2,.9-2,2s.9,2,2,2h4v4h-4c-1.1,0-2,.9-2,2s.9,2,2,2h4v4h-9c-1.1,0-2,.9-2,2s.9,2,2,2h9v4h-5c-1.1,0-2,.9-2,2s.9,2,2,2h5v4h-5c-1.1,0-2,.9-2,2s.9,2,2,2h5v4h-9c-1.1,0-2,.9-2,2s.9,2,2,2h9v4h-5c-1.1,0-2,.9-2,2s.9,2,2,2h5v4h-5c-1.1,0-2,.9-2,2s.9,2,2,2h5v4h-9c-1.1,0-2,.9-2,2s.9,2,2,2h9v4h-5c-1.1,0-2,.9-2,2s.9,2,2,2h5v9h9v4c0,1.1.9,2,2,2s2-.9,2-2v-4h4v4c0,1.1.9,2,2,2s2-.9,2-2v-4h4v9c0,1.1.9,2,2,2s2-.9,2-2v-9h4v5c0,1.1.9,2,2,2s2-.9,2-2v-5h4v5c0,1.1.9,2,2,2s2-.9,2-2v-5h4v9c0,1.1.9,2,2,2s2-.9,2-2v-9h4v5c0,1.1.9,2,2,2s2-.9,2-2v-5h4v5c0,1.1.9,2,2,2s2-.9,2-2v-5h4v9c0,1.1.9,2,2,2s2-.9,2-2v-9h4v5c0,1.1.9,2,2,2s2-.9,2-2v-5h4v5c0,1.1.9,2,2,2s2-.9,2-2v-5h4v23Z"/>
      <path class="cls-1" d="M144,134.74v4H30c-1.1,0-2-.9-2-2V22.74h4v112h112Z"/>
      <g>
        <path d="M110,39.74c1.66,0,3-1.34,3-3s-1.34-3-3-3-3,1.34-3,3c0,1.66,1.34,3,3,3ZM110,35.24c.83,0,1.5.67,1.5,1.5s-.67,1.5-1.5,1.5-1.5-.67-1.5-1.5c0-.83.67-1.5,1.5-1.5Z"/>
        <path d="M127,64.4c-1.1,0-2,.9-2,2s.9,2,2,2,2-.9,2-2c0-1.1-.9-2-2-2ZM127,67.4c-.55,0-1-.45-1-1s.45-1,1-1,1,.45,1,1c0,.55-.45,1-1,1Z"/>
        <path d="M65.3,2.74c-1.1,0-2,.9-2,2s.9,2,2,2,2-.9,2-2h0c0-1.1-.9-2-2-2ZM65.3,5.74c-.55,0-1-.45-1-1s.45-1,1-1,1,.45,1,1c0,.55-.45,1-1,1Z"/>
        <path d="M150.86.74c-1.1,0-2,.9-2,2s.9,2,2,2,2-.9,2-2c0-1.1-.9-2-2-2ZM150.86,3.74c-.55,0-1-.45-1-1s.45-1,1-1,1,.45,1,1c0,.55-.45,1-1,1Z"/>
        <path d="M8,34.74c0-1.1-.9-2-2-2s-2,.9-2,2,.9,2,2,2c1.1,0,2-.9,2-2ZM5,34.74c0-.55.45-1,1-1s1,.45,1,1-.45,1-1,1c-.55,0-1-.45-1-1Z"/>
      </g>
      <path class="cls-1" d="M13.41,2.49l1.49-1.95-.94-.53-.95,2.19h-.03L12.01.02l-.96.55,1.47,1.91v.03l-2.3-.3v1.06l2.32-.3v.03l-1.49,1.91.89.56,1.02-2.21h.03l.94,2.19.99-.56-1.5-1.88v-.03l2.36.28v-1.06l-2.36.31v-.03Z"/>
      <path class="cls-1" d="M65.04,48.53l-.86,1.1.51.33.59-1.27h.02l.54,1.26.57-.33-.86-1.08v-.02l1.36.16v-.61l-1.36.18v-.02l.86-1.13-.54-.31-.55,1.26h-.02l-.56-1.25-.55.31.85,1.1v.02l-1.33-.17v.61l1.33-.17v.02Z"/>
      <path class="cls-1" d="M161.22,42.95v-1.04l-2.32.31v-.03l1.46-1.92-.92-.52-.94,2.15h-.03l-.95-2.13-.94.54,1.44,1.87v.03l-2.26-.29v1.04l2.27-.29v.03l-1.46,1.87.88.55,1-2.16h.03l.92,2.15.97-.55-1.47-1.84v-.03l2.32.28Z"/>
      <path class="cls-1" d="M108.35,6.53l1.26-1.65-.79-.45-.81,1.85h-.03l-.82-1.84-.81.46,1.25,1.61v.03l-1.95-.25v.9l1.96-.25v.03l-1.26,1.61.75.48.86-1.87h.03l.79,1.85.83-.48-1.27-1.59v-.03l2,.24v-.9l-2,.26v-.03Z"/>
    </g>
  </g>
</svg>