<?xml version="1.0" encoding="UTF-8"?>
<svg id="Layer_2" data-name="Layer 2" xmlns="http://www.w3.org/2000/svg" viewBox="0 0 168 159.5">
  <defs>
    <style>
      .cls-1 {
        fill: #00b2ca;
      }
    </style>
  </defs>
  <g id="Bottom_navigation" data-name="Bottom navigation">
    <g id="Registration_Certification" data-name="Registration Certification">
      <path d="M33.51,93.12c-.24-1.08-1.31-1.76-2.39-1.51-1.08.24-1.76,1.31-1.51,2.39,0,0,0,0,0,.01.2.91,1.01,1.55,1.94,1.55.15,0,.3-.01.45-.05,1.08-.24,1.75-1.31,1.51-2.39Z"/>
      <path class="cls-1" d="M30.5,87.59c1.1-.08,1.94-1.04,1.86-2.14-.08-1.1-1.04-1.94-2.14-1.86-1.1.08-1.94,1.04-1.86,2.14,0,0,0,0,0,0,.08,1.04.95,1.85,1.99,1.85h.15Z"/>
      <path d="M30.2,79.52s.1,0,.15,0c1.14.03,2.09-.86,2.12-2,.03-1.14-.86-2.09-2-2.12-1.14-.03-2.09.86-2.12,2-.03,1.08.78,2,1.85,2.11Z"/>
      <path d="M46.05,119.72c-.75.8-.71,2.07.09,2.82,0,0,0,0,.01,0,.37.34.86.53,1.36.53,1.1,0,2-.89,2.01-1.99s-.89-2-1.99-2.01c-.56,0-1.09.23-1.47.64h0Z"/>
      <path class="cls-1" d="M47.45,43.98c1.1,0,1.99-.9,1.99-2,0-1.1-.9-1.99-2-1.99-1.1,0-1.99.9-1.99,2,0,.5.19.99.54,1.36.38.4.91.63,1.46.63Z"/>
      <path d="M132.67,62.37h0c.31.76,1.04,1.26,1.86,1.26.25,0,.51-.04.74-.14,1.03-.41,1.53-1.57,1.12-2.6s-1.57-1.53-2.6-1.12c-1.03.41-1.53,1.57-1.12,2.6,0,0,0,0,0,0h0Z"/>
      <path class="cls-1" d="M35.8,100.53c-.41-1.03-1.58-1.53-2.6-1.12-1.02.41-1.52,1.56-1.12,2.59.3.76,1.04,1.27,1.86,1.27.25,0,.5-.05.74-.14,1.03-.4,1.53-1.56,1.13-2.59,0,0,0,0,0,0Z"/>
      <path d="M36.45,106.79c-.95.56-1.28,1.78-.72,2.74s1.78,1.28,2.74.72c.95-.55,1.27-1.77.73-2.73-.56-.96-1.78-1.28-2.74-.73Z"/>
      <path d="M40.71,49.47c.36.28.8.43,1.25.43.61,0,1.19-.27,1.57-.75h0c.69-.86.54-2.12-.33-2.81s-2.12-.54-2.81.33c-.68.86-.54,2.11.32,2.8h0Z"/>
      <path d="M99.48,31.77c.19.06.39.09.59.09,1.11,0,2-.89,2.01-2s-.89-2-2-2.01c-1.11,0-2,.89-2.01,2,0,.88.57,1.66,1.41,1.92Z"/>
      <path d="M53.75,38.94c.4,0,.79-.12,1.12-.35h.01c.92-.63,1.16-1.88.53-2.8-.63-.92-1.88-1.16-2.8-.53-.92.63-1.16,1.88-.53,2.8.38.55,1,.88,1.67.88Z"/>
      <path class="cls-1" d="M91.91,30.06c.1,0,.2.02.3.02,1.1-.01,1.98-.91,1.97-2.01s-.91-1.98-2.01-1.97c-1.1.01-1.98.91-1.97,2.01.01.98.74,1.81,1.71,1.95Z"/>
      <path d="M84.15,29.5c1.1,0,2-.9,2-2,0-1.1-.9-2-2-2-1.1,0-2,.9-2,2,0,1.1.9,2,2,2h0Z"/>
      <path class="cls-1" d="M106.73,34.6c.27.13.56.2.86.2,1.11,0,2.02-.89,2.02-2,0-1.11-.89-2.02-2-2.02-1.11,0-2.02.89-2.02,2,0,.78.44,1.49,1.14,1.82Z"/>
      <path d="M113.47,38.48c.91.62,2.16.38,2.78-.53s.38-2.16-.53-2.78c-.91-.62-2.16-.38-2.78.53,0,0,0,0,0,0-.61.92-.38,2.15.53,2.78Z"/>
      <path class="cls-1" d="M76.1,30.11c.1,0,.2,0,.3-.02,1.11-.16,1.88-1.18,1.72-2.29-.16-1.11-1.18-1.88-2.29-1.72s-1.88,1.18-1.72,2.29c.14.99.99,1.73,1.99,1.74Z"/>
      <path class="cls-1" d="M36.4,56.3c.3.18.65.27,1,.27,1.1,0,2-.89,2-1.99,0-1.1-.89-2-1.99-2-1.1,0-2,.89-2,1.99,0,.71.38,1.37.99,1.73Z"/>
      <path d="M33.18,63.7c.23.09.48.14.73.14,1.11,0,2.02-.89,2.02-2.01s-.89-2.02-2.01-2.02c-1.11,0-2.02.89-2.02,2.01,0,.83.5,1.58,1.28,1.88Z"/>
      <path class="cls-1" d="M60.72,34.89c1.1,0,2-.9,2-2,0-1.1-.9-2-2-2-1.1,0-2,.9-2,2,0,.3.07.6.2.87.33.69,1.03,1.13,1.8,1.13Z"/>
      <path d="M68.23,31.92c.2,0,.4-.03.59-.09,1.05-.33,1.64-1.45,1.31-2.5-.33-1.05-1.45-1.64-2.5-1.31-1.05.33-1.64,1.45-1.31,2.5.26.84,1.03,1.4,1.91,1.4Z"/>
      <path class="cls-1" d="M31.09,71.5c.15.03.29.05.44.05,1.11,0,2-.89,2.01-2,0-1.11-.89-2-2-2.01-1.11,0-2,.89-2.01,2,0,.94.65,1.75,1.56,1.96Z"/>
      <path class="cls-1" d="M40.77,113.61c-.86.69-1,1.95-.31,2.81.38.48.95.75,1.56.75,1.1,0,2-.89,2-2s-.89-2-2-2c-.46,0-.9.16-1.25.44Z"/>
      <path d="M125.17,46.18c-.86.68-1.01,1.94-.32,2.8.38.48.96.76,1.58.76.46,0,.9-.15,1.25-.44.86-.69,1-1.95.31-2.81-.69-.86-1.95-1-2.81-.31,0,0,0,0,0,0Z"/>
      <path class="cls-1" d="M127.87,113.44c-.86-.69-2.13-.55-2.82.32-.69.86-.55,2.13.32,2.82.86.69,2.13.55,2.82-.32,0,0,0,0,0,0,.68-.87.54-2.12-.32-2.81Z"/>
      <path class="cls-1" d="M131,56.39c.35,0,.7-.1,1-.28.96-.55,1.28-1.77.73-2.73,0,0,0,0,0,0h0c-.56-.95-1.78-1.27-2.73-.71-.95.56-1.27,1.78-.71,2.73.36.61,1.01.99,1.72.99h0Z"/>
      <path d="M122.61,119.58c-.75-.8-2.02-.84-2.82-.09-.8.75-.84,2.02-.09,2.82.75.8,2.02.84,2.82.09h0c.81-.75.85-2.01.1-2.82h0Z"/>
      <path class="cls-1" d="M113.72,124.35c-.91.63-1.14,1.87-.51,2.78.63.91,1.87,1.14,2.78.51.91-.63,1.14-1.87.51-2.78-.62-.91-1.86-1.14-2.77-.52,0,0,0,0-.01,0Z"/>
      <path class="cls-1" d="M120.92,43.85c1.1,0,2-.9,2-2,0-.56-.23-1.09-.64-1.47-.81-.75-2.07-.7-2.82.11-.75.81-.7,2.07.11,2.82h0c.37.35.86.54,1.36.54Z"/>
      <path class="cls-1" d="M138.32,83.37c-1.1-.08-2.06.75-2.14,1.85-.08,1.1.75,2.06,1.85,2.14h.14c1.1,0,2-.88,2.01-1.99,0-1.06-.81-1.93-1.87-2h0Z"/>
      <path d="M137.45,91.39c-1.08-.24-2.15.43-2.39,1.51-.24,1.08.43,2.15,1.51,2.39.14.04.29.05.44.05,1.1,0,2-.89,2-2,0-.94-.65-1.75-1.56-1.95h0Z"/>
      <path class="cls-1" d="M135.37,99.2c-1.03-.41-2.19.1-2.59,1.12-.41,1.03.1,2.19,1.12,2.59,0,0,.01,0,.02,0,.23.09.47.14.72.14,1.1,0,2-.88,2.01-1.98,0-.83-.5-1.58-1.28-1.88h0Z"/>
      <path d="M132.15,106.6c-.96-.55-2.18-.22-2.74.74-.55.96-.22,2.18.74,2.74.96.55,2.18.22,2.74-.74,0,0,0,0,0,0,.55-.96.22-2.18-.74-2.73Z"/>
      <path d="M136.15,77.45c.08,1.04.95,1.85,2,1.85.05,0,.1,0,.15,0,1.1-.09,1.92-1.05,1.83-2.15-.09-1.1-1.05-1.92-2.15-1.83-1.09.09-1.91,1.04-1.83,2.14Z"/>
      <path class="cls-1" d="M68.92,131.2c-1.06-.32-2.17.28-2.49,1.33s.28,2.17,1.33,2.49c1.05.32,2.16-.27,2.49-1.32.33-1.05-.26-2.17-1.31-2.49,0,0-.01,0-.02,0Z"/>
      <path class="cls-1" d="M84.47,133.5h-.21c-1.1,0-2,.9-2,2s.9,2,2,2h.23c1.1,0,2-.91,1.99-2.01,0-1.1-.91-2-2.01-1.99h0Z"/>
      <path d="M76.5,132.93c-1.09-.16-2.11.59-2.27,1.68-.16,1.09.59,2.11,1.68,2.27h0c.1.02.2.02.3.02,1.1,0,1.99-.9,1.99-2,0-.99-.73-1.83-1.7-1.97h0Z"/>
      <path d="M61.69,128.36c-.99-.48-2.19-.07-2.67.93s-.07,2.19.93,2.67c.27.13.57.2.87.2,1.1,0,2-.89,2-2,0-.77-.44-1.47-1.13-1.8Z"/>
      <path class="cls-1" d="M134.98,69.78c.21.91,1.01,1.55,1.94,1.55.15,0,.31-.02.46-.05,1.08-.25,1.75-1.32,1.5-2.4-.25-1.08-1.32-1.75-2.4-1.5-1.08.25-1.75,1.32-1.5,2.4Z"/>
      <path d="M107.01,128.27c-.99.48-1.4,1.68-.92,2.67.34.69,1.04,1.13,1.8,1.12.3,0,.6-.07.87-.2.99-.48,1.4-1.68.92-2.67-.48-.99-1.68-1.4-2.67-.92h0Z"/>
      <path class="cls-1" d="M54.95,124.46c-.91-.62-2.15-.39-2.78.52-.62.91-.39,2.15.52,2.78h0c.33.23.72.36,1.12.35,1.1,0,2-.88,2.01-1.98,0-.67-.33-1.29-.88-1.67Z"/>
      <path d="M92.22,132.89c-1.09.17-1.84,1.19-1.67,2.29.15.97.99,1.69,1.97,1.69.1,0,.21,0,.31-.02,1.09-.17,1.84-1.19,1.67-2.29s-1.19-1.84-2.29-1.67h0Z"/>
      <path class="cls-1" d="M99.79,131.14c-1.06.33-1.65,1.45-1.32,2.5.26.84,1.03,1.41,1.91,1.41.2,0,.41-.03.6-.1,1.05-.33,1.64-1.45,1.31-2.5-.33-1.05-1.45-1.64-2.5-1.31h0Z"/>
      <path d="M112.68,62.26c-.51-.87-.95-1.78-1.3-2.72-.29-1.01-.48-2.05-.59-3.1-.27-2.02-.57-4.3-1.92-6.16-1.37-1.88-3.46-2.87-5.3-3.74-.96-.42-1.87-.92-2.74-1.49-.8-.64-1.55-1.35-2.23-2.12-1.41-1.49-3-3.18-5.24-3.91-2.15-.7-4.31-.3-6.39.08-1.05.23-2.13.37-3.2.41-1.08-.04-2.15-.18-3.2-.41-2.08-.38-4.23-.78-6.39-.08-2.24.73-3.83,2.42-5.24,3.91-.68.77-1.43,1.48-2.23,2.12-.87.58-1.79,1.08-2.74,1.49-1.84.88-3.93,1.87-5.3,3.74-1.35,1.86-1.66,4.14-1.92,6.16-.1,1.05-.3,2.09-.59,3.1-.35.94-.79,1.85-1.3,2.72-1.23,1.87-1.95,4.02-2.11,6.24.16,2.23.89,4.38,2.11,6.24.51.87.95,1.78,1.3,2.72.29,1.01.48,2.05.59,3.1.27,2.02.57,4.3,1.92,6.16,1.37,1.88,3.46,2.87,5.3,3.74.96.42,1.87.92,2.74,1.49.17.12.33.26.5.4l-10.16,16.28c-.58.94-.3,2.17.64,2.76.4.25.88.35,1.35.28l9.07-1.31,2.8,8.74c.24.74.89,1.28,1.66,1.37.08.01.16.02.25.02.69,0,1.33-.36,1.7-.94l6.9-11.06-2.36-3.78-5.65,9.06-2-6.24c-.3-.93-1.23-1.51-2.19-1.37l-6.48.93,7.38-11.82c1.13,1.21,2.52,2.14,4.08,2.71.83.26,1.7.39,2.58.38.96-.02,1.92-.12,2.87-.3l13.41,21.48c.37.59,1.01.94,1.7.94.08,0,.17,0,.25-.02.77-.1,1.42-.63,1.66-1.37l2.8-8.74,9.07,1.31c1.09.16,2.11-.6,2.27-1.69.07-.47-.03-.94-.28-1.35l-10.16-16.28c.17-.14.33-.28.5-.4.87-.58,1.79-1.08,2.74-1.49,1.84-.88,3.93-1.87,5.3-3.74,1.36-1.86,1.66-4.14,1.92-6.16.1-1.05.3-2.09.59-3.1.35-.94.79-1.85,1.3-2.72,1.23-1.87,1.95-4.02,2.11-6.24-.16-2.23-.89-4.38-2.11-6.24h0ZM104.81,107.11l-6.48-.93c-.97-.14-1.89.44-2.19,1.37l-2,6.24-10.16-16.27c1,.06,2,.19,2.99.4,2.08.38,4.24.78,6.39.08,1.55-.57,2.95-1.5,4.08-2.71l7.38,11.82ZM109.17,72.82c-.64,1.08-1.17,2.22-1.6,3.41-.36,1.25-.61,2.52-.75,3.81-.06,1.52-.47,3-1.19,4.33-1.05,1.11-2.35,1.96-3.78,2.49-1.18.52-2.31,1.15-3.38,1.87-1.01.78-1.94,1.65-2.79,2.61-.95,1.22-2.17,2.19-3.56,2.85-1.47.27-2.99.2-4.42-.21-1.29-.28-2.61-.44-3.93-.47-1.32.04-2.64.2-3.93.47-1.44.41-2.95.48-4.42.21-1.4-.66-2.62-1.63-3.57-2.85-.85-.95-1.78-1.83-2.79-2.61-1.07-.73-2.2-1.35-3.38-1.87-1.44-.53-2.73-1.38-3.78-2.49-.73-1.33-1.13-2.81-1.19-4.33-.13-1.29-.38-2.57-.75-3.81-.43-1.18-.96-2.32-1.6-3.41-.88-1.29-1.43-2.77-1.62-4.32.19-1.55.75-3.03,1.62-4.32.64-1.08,1.17-2.22,1.6-3.41.36-1.24.61-2.52.75-3.81.06-1.52.47-3,1.19-4.33,1.05-1.11,2.35-1.96,3.78-2.49,1.18-.52,2.31-1.15,3.38-1.87,1.01-.78,1.94-1.65,2.79-2.61.95-1.21,2.17-2.19,3.56-2.85.44-.13.89-.19,1.34-.18,1.04.04,2.07.18,3.08.4,1.29.28,2.61.44,3.93.47,1.32-.04,2.64-.2,3.93-.47,1.44-.41,2.95-.48,4.42-.21,1.4.66,2.62,1.63,3.57,2.85.85.95,1.78,1.83,2.79,2.61,1.07.73,2.2,1.35,3.38,1.87,1.44.53,2.73,1.38,3.78,2.49.73,1.33,1.13,2.81,1.19,4.33.13,1.29.38,2.57.75,3.81.43,1.18.96,2.32,1.6,3.41.88,1.29,1.43,2.77,1.62,4.32-.19,1.55-.75,3.03-1.62,4.32Z"/>
      <path class="cls-1" d="M83.76,49.5c-10.49.01-18.99,8.53-18.98,19.02.01,10.49,8.53,18.99,19.02,18.98,10.49-.01,18.98-8.51,18.98-19-.02-10.49-8.53-18.99-19.02-19ZM83.76,83.5c-8.28,0-14.99-6.73-14.98-15.02,0-8.28,6.73-14.99,15.02-14.98,8.28,0,14.98,6.72,14.98,15-.01,8.29-6.73,15-15.02,15Z"/>
      <path class="cls-1" d="M87.47,63.97l-5.61,4.71-1.57-1.9c-.71-.85-1.97-.96-2.82-.26-.85.7-.96,1.96-.26,2.81l2.86,3.44c.34.41.83.67,1.36.71.06,0,.12,0,.18,0,.47,0,.93-.17,1.29-.47l7.15-6c.85-.71.95-1.97.24-2.82s-1.97-.95-2.82-.24h0Z"/>
      <g>
        <path d="M38.11,24c1.66,0,3-1.34,3-3s-1.34-3-3-3-3,1.34-3,3c0,1.66,1.34,3,3,3ZM38.11,19.5c.83,0,1.5.67,1.5,1.5s-.67,1.5-1.5,1.5-1.5-.67-1.5-1.5c0-.83.67-1.5,1.5-1.5Z"/>
        <path d="M159.11,39.66c-1.1,0-2,.9-2,2s.9,2,2,2,2-.9,2-2c0-1.1-.9-2-2-2ZM159.11,42.66c-.55,0-1-.45-1-1s.45-1,1-1,1,.45,1,1c0,.55-.45,1-1,1Z"/>
        <path d="M8.89,6.66c-1.1,0-2,.9-2,2s.9,2,2,2,2-.9,2-2c0-1.1-.9-2-2-2ZM8.89,9.66c-.55,0-1-.45-1-1s.45-1,1-1,1,.45,1,1c0,.55-.45,1-1,1Z"/>
        <path d="M116.89,0c-1.1,0-2,.9-2,2s.9,2,2,2,2-.9,2-2c0-1.1-.9-2-2-2ZM116.89,3c-.55,0-1-.45-1-1s.45-1,1-1,1,.45,1,1c0,.55-.45,1-1,1Z"/>
        <path d="M88.89,10.66c0-1.1-.9-2-2-2s-2,.9-2,2,.9,2,2,2h0c1.1,0,2-.9,2-2ZM85.89,10.66c0-.55.45-1,1-1s1,.45,1,1-.45,1-1,1c-.55,0-1-.45-1-1Z"/>
      </g>
      <path class="cls-1" d="M16.3,42.67l1.49-1.96-.94-.53-.95,2.19h-.03l-.97-2.17-.95.55,1.47,1.91v.03l-2.3-.3v1.06l2.32-.3v.03l-1.49,1.91.89.56,1.02-2.21h.03l.94,2.19.99-.56-1.5-1.88v-.03l2.36.28v-1.06l-2.36.31v-.03Z"/>
      <path class="cls-1" d="M62.78,3.73l-.86,1.1.51.32.59-1.27h.02l.54,1.26.57-.32-.87-1.08v-.02l1.36.16v-.61l-1.36.18v-.02l.86-1.13-.54-.31-.55,1.26h-.02l-.56-1.25-.55.32.85,1.1v.02l-1.33-.17v.61l1.33-.17v.02Z"/>
      <path class="cls-1" d="M131.15,24.52v-1.04l-2.32.31v-.03l1.46-1.92-.92-.52-.94,2.15h-.03l-.95-2.13-.94.54,1.44,1.87v.03l-2.26-.29v1.04l2.27-.29v.03l-1.46,1.87.88.55,1-2.17h.03l.92,2.15.97-.55-1.47-1.84v-.03l2.32.28Z"/>
      <path class="cls-1" d="M151.33,7.25l1.26-1.65-.79-.45-.81,1.85h-.03l-.82-1.84-.81.46,1.24,1.62v.03l-1.95-.25v.9l1.96-.25v.03l-1.26,1.61.76.48.86-1.87h.03l.79,1.85.84-.48-1.27-1.59v-.03l2,.24v-.9l-2,.27v-.03Z"/>
      <circle cx="2" cy="143.5" r="2"/>
      <path d="M11,141.5h-3c-1.1,0-2,.9-2,2s.9,2,2,2h3c1.1,0,2-.9,2-2s-.9-2-2-2Z"/>
      <path d="M160,141.5h-3c-1.1,0-2,.9-2,2s.9,2,2,2h3c1.1,0,2-.9,2-2s-.9-2-2-2Z"/>
      <circle cx="166" cy="143.5" r="2"/>
      <path class="cls-1" d="M118.15,149.5h-8.31c-1.1.09-1.93,1.06-1.84,2.16.08.98.86,1.76,1.84,1.84h8.31c1.1-.09,1.93-1.06,1.84-2.16-.08-.98-.86-1.76-1.84-1.84Z"/>
      <path class="cls-1" d="M58.15,149.5h-8.31c-1.1.09-1.93,1.06-1.84,2.16.08.98.86,1.76,1.84,1.84h8.31c1.1-.09,1.93-1.06,1.84-2.16-.08-.98-.86-1.76-1.84-1.84Z"/>
      <path class="cls-1" d="M104,149.5h-40c-1.1,0-2,.9-2,2s.9,2,2,2h15.94v2h-7.94c-1.1,0-2,.9-2,2s.9,2,2,2h25c1.1,0,2-.9,2-2s-.9-2-2-2h-8.94v-2h15.94c1.1,0,2-.9,2-2s-.9-2-2-2Z"/>
      <path d="M150.72,141.5h-44.18c33.18-12.31,50.09-49.18,37.78-82.36-12.31-33.18-49.18-50.09-82.36-37.78C28.79,33.67,11.88,70.54,24.19,103.72c6.49,17.5,20.29,31.29,37.78,37.78H17.28c-1.1-.14-2.12.63-2.26,1.74-.14,1.1.63,2.12,1.74,2.26.17.02.35.02.52,0h133.44c1.1.14,2.12-.63,2.26-1.74s-.63-2.12-1.74-2.26c-.17-.02-.35-.02-.52,0ZM24.19,81.5c-.04-33.17,26.83-60.1,60-60.13,33.17-.04,60.1,26.83,60.13,60,.04,33.17-26.83,60.1-60,60.13-.02,0-.04,0-.07,0-33.14-.02-60.01-26.86-60.07-60Z"/>
    </g>
  </g>
</svg>