<svg width="168" height="166" viewBox="0 0 168 166" fill="none" xmlns="http://www.w3.org/2000/svg">
<g clip-path="url(#clip0_113_46)">
<path d="M2 151.023C3.10457 151.023 4 150.128 4 149.023C4 147.919 3.10457 147.023 2 147.023C0.89543 147.023 0 147.919 0 149.023C0 150.128 0.89543 151.023 2 151.023Z" fill="black"/>
<path d="M11 147.023H8C6.9 147.023 6 147.923 6 149.023C6 150.123 6.9 151.023 8 151.023H11C12.1 151.023 13 150.123 13 149.023C13 147.923 12.1 147.023 11 147.023Z" fill="black"/>
<path d="M160 147.023H157C155.9 147.023 155 147.923 155 149.023C155 150.123 155.9 151.023 157 151.023H160C161.1 151.023 162 150.123 162 149.023C162 147.923 161.1 147.023 160 147.023Z" fill="black"/>
<path d="M166 151.023C167.105 151.023 168 150.128 168 149.023C168 147.919 167.105 147.023 166 147.023C164.895 147.023 164 147.919 164 149.023C164 150.128 164.895 151.023 166 151.023Z" fill="black"/>
<path d="M118.151 155.023H109.841C108.741 155.113 107.911 156.083 108.001 157.183C108.081 158.163 108.861 158.943 109.841 159.023H118.151C119.251 158.933 120.081 157.963 119.991 156.863C119.911 155.883 119.131 155.103 118.151 155.023Z" fill="#00B2CA"/>
<path d="M58.1508 155.023H49.8408C48.7408 155.113 47.9108 156.083 48.0008 157.183C48.0808 158.163 48.8608 158.943 49.8408 159.023H58.1508C59.2508 158.933 60.0808 157.963 59.9908 156.863C59.9108 155.883 59.1308 155.103 58.1508 155.023Z" fill="#00B2CA"/>
<path d="M104 155.023H64C62.9 155.023 62 155.923 62 157.023C62 158.123 62.9 159.023 64 159.023H79.94V161.023H72C70.9 161.023 70 161.923 70 163.023C70 164.123 70.9 165.023 72 165.023H97C98.1 165.023 99 164.123 99 163.023C99 161.923 98.1 161.023 97 161.023H88.06V159.023H104C105.1 159.023 106 158.123 106 157.023C106 155.923 105.1 155.023 104 155.023Z" fill="#00B2CA"/>
<path d="M2 151.023C3.10457 151.023 4 150.128 4 149.023C4 147.919 3.10457 147.023 2 147.023C0.89543 147.023 0 147.919 0 149.023C0 150.128 0.89543 151.023 2 151.023Z" fill="black"/>
<path d="M11 147.023H8C6.9 147.023 6 147.923 6 149.023C6 150.123 6.9 151.023 8 151.023H11C12.1 151.023 13 150.123 13 149.023C13 147.923 12.1 147.023 11 147.023Z" fill="black"/>
<path d="M160 147.023H157C155.9 147.023 155 147.923 155 149.023C155 150.123 155.9 151.023 157 151.023H160C161.1 151.023 162 150.123 162 149.023C162 147.923 161.1 147.023 160 147.023Z" fill="black"/>
<path d="M166 151.023C167.105 151.023 168 150.128 168 149.023C168 147.919 167.105 147.023 166 147.023C164.895 147.023 164 147.919 164 149.023C164 150.128 164.895 151.023 166 151.023Z" fill="black"/>
<path d="M118.151 155.016H109.841C108.741 155.106 107.911 156.076 108.001 157.176C108.081 158.156 108.861 158.936 109.841 159.016H118.151C119.251 158.926 120.081 157.956 119.991 156.856C119.911 155.876 119.131 155.096 118.151 155.016Z" fill="#00B2CA"/>
<path d="M58.1508 155.016H49.8408C48.7408 155.106 47.9108 156.076 48.0008 157.176C48.0808 158.156 48.8608 158.936 49.8408 159.016H58.1508C59.2508 158.926 60.0808 157.956 59.9908 156.856C59.9108 155.876 59.1308 155.096 58.1508 155.016Z" fill="#00B2CA"/>
<path d="M104 155.016H64C62.9 155.016 62 155.916 62 157.016C62 158.116 62.9 159.016 64 159.016H79.94V161.016H72C70.9 161.016 70 161.916 70 163.016C70 164.116 70.9 165.016 72 165.016H97C98.1 165.016 99 164.116 99 163.016C99 161.916 98.1 161.016 97 161.016H88.06V159.016H104C105.1 159.016 106 158.116 106 157.016C106 155.916 105.1 155.016 104 155.016Z" fill="#00B2CA"/>
<path d="M61.4605 71.0178C62.4405 72.2778 63.6405 73.3578 65.0105 74.1878C66.4105 75.0578 68.0205 75.5278 69.6705 75.5478C69.8705 75.5478 70.0805 75.5478 70.2805 75.5278C74.1305 75.2178 76.4805 72.6278 77.9405 69.7878C79.6205 66.1578 80.1705 62.0978 79.5305 58.1478C79.2505 56.3178 78.7505 54.5278 78.0405 52.8178C76.8705 49.7478 74.7305 47.1478 71.9605 45.3878C70.5605 44.5078 68.9405 44.0278 67.2905 44.0078C67.0905 44.0078 66.8805 44.0078 66.6705 44.0278C64.9205 44.1578 63.2605 44.8478 61.9205 45.9778C59.4805 48.0378 57.9805 51.1078 57.4005 55.0178C57.1005 57.1378 57.1205 59.2978 57.4405 61.4178C57.9105 64.9178 59.3005 68.2178 61.4605 71.0078V71.0178ZM61.3405 55.6178C61.7805 52.6378 62.8405 50.4278 64.4905 49.0378C65.1805 48.4478 66.0305 48.0978 66.9405 48.0278C67.0505 48.0278 67.1605 48.0178 67.2705 48.0178C68.2105 48.0478 69.1305 48.3278 69.9205 48.8478C71.9505 50.1678 73.5105 52.1178 74.3505 54.3978C74.9305 55.7978 75.3405 57.2578 75.5705 58.7478C76.0805 61.8678 75.6705 65.0678 74.3905 67.9578C72.8305 70.9778 71.1105 71.4478 69.9705 71.5378C69.8705 71.5378 69.7705 71.5478 69.6705 71.5478C68.7605 71.5278 67.8705 71.2578 67.1005 70.7778C66.1405 70.1978 65.3005 69.4378 64.6105 68.5578C62.8705 66.3178 61.7605 63.6478 61.3905 60.8278C61.1305 59.1078 61.1105 57.3478 61.3505 55.6178H61.3405Z" fill="#00B2CA"/>
<path d="M55.1702 93.2353C57.2602 91.2053 58.5902 88.0653 58.5902 83.9153C58.6002 80.3853 57.6302 76.9253 55.7802 73.9253C54.2702 71.2853 52.0002 69.1753 49.2602 67.8553C47.9702 67.2653 46.5802 66.9553 45.1602 66.9453C44.7902 66.9453 44.4102 66.9653 44.0402 67.0153C42.4502 67.2253 40.9602 67.9153 39.7702 68.9953C37.5602 70.8953 36.2302 73.9553 35.9902 78.0153V79.3253C36.1402 82.7753 37.2002 86.1253 39.0602 89.0453C40.6302 91.6553 42.9802 93.7053 45.7802 94.8953C46.9502 95.3553 48.1902 95.5953 49.4402 95.6053C49.9902 95.6053 50.5502 95.5553 51.0902 95.4353C52.6302 95.1053 54.0402 94.3453 55.1502 93.2253L55.1702 93.2353ZM49.4602 91.6153C48.7202 91.6153 47.9802 91.4653 47.2902 91.1953C45.2602 90.3153 43.5702 88.8153 42.4502 86.9053C40.9802 84.5953 40.1402 81.9453 40.0102 79.2153V78.1453C40.1402 76.1553 40.6602 73.5253 42.4102 72.0253C43.0102 71.4553 43.7702 71.0953 44.5902 70.9853C44.7902 70.9553 44.9802 70.9453 45.1802 70.9453C46.0202 70.9453 46.8402 71.1353 47.6002 71.4853C49.6102 72.4753 51.2802 74.0453 52.3702 76.0053C53.8302 78.3853 54.6002 81.1253 54.5902 83.9153C54.5902 86.7353 53.8302 88.9653 52.3902 90.3553C51.8102 90.9453 51.0702 91.3553 50.2602 91.5253C50.0002 91.5753 49.7302 91.6053 49.4602 91.6053V91.6153Z" fill="#00B2CA"/>
<path d="M97.7207 75.5256C97.9207 75.5456 98.1307 75.5456 98.3307 75.5456C99.9807 75.5256 101.591 75.0556 102.991 74.1856C104.361 73.3556 105.561 72.2756 106.541 71.0156C108.701 68.2356 110.091 64.9256 110.561 61.4256C110.891 59.3056 110.901 57.1456 110.601 55.0256C110.021 51.1156 108.521 48.0456 106.081 45.9856C104.751 44.8456 103.081 44.1656 101.331 44.0356C101.121 44.0156 100.911 44.0156 100.711 44.0156C99.0607 44.0356 97.4407 44.5156 96.0407 45.3956C93.2607 47.1456 91.1307 49.7556 89.9607 52.8256C89.2407 54.5356 88.7407 56.3256 88.4707 58.1556C87.8207 62.1056 88.3807 66.1556 90.0607 69.7956C91.5307 72.6356 93.8707 75.2156 97.7207 75.5356V75.5256ZM92.4307 58.7456C92.6607 57.2456 93.0707 55.7856 93.6507 54.3856C94.4907 52.1056 96.0407 50.1656 98.0807 48.8456C98.8707 48.3256 99.7907 48.0456 100.731 48.0156C100.841 48.0156 100.951 48.0156 101.061 48.0256C101.971 48.0956 102.831 48.4556 103.521 49.0456C105.161 50.4256 106.221 52.6356 106.661 55.6156C106.901 57.3456 106.881 59.0956 106.621 60.8156C106.251 63.6356 105.141 66.3056 103.401 68.5556C102.721 69.4356 101.871 70.1956 100.921 70.7756C100.151 71.2556 99.2607 71.5256 98.3407 71.5456C98.2407 71.5456 98.1407 71.5456 98.0507 71.5356C96.8907 71.4456 95.1707 70.9656 93.6107 67.9456C92.3307 65.0556 91.9207 61.8656 92.4307 58.7456Z" fill="#00B2CA"/>
<path d="M128.93 89.0609C130.79 86.1509 131.85 82.8009 132 79.3409V78.0309C131.77 73.9709 130.43 70.9109 128.22 69.0109C127.03 67.9309 125.54 67.2409 123.95 67.0309C123.58 66.9809 123.2 66.9609 122.83 66.9609C121.42 66.9709 120.02 67.2809 118.73 67.8709C115.99 69.1909 113.72 71.3109 112.21 73.9409C110.36 76.9409 109.39 80.4009 109.4 83.9309C109.4 88.0809 110.73 91.2209 112.82 93.2509C113.93 94.3609 115.34 95.1309 116.88 95.4609C117.42 95.5709 117.97 95.6309 118.53 95.6309C119.79 95.6309 121.03 95.3809 122.19 94.9209C124.99 93.7309 127.35 91.6809 128.91 89.0709L128.93 89.0609ZM120.72 91.1909C120.02 91.4609 119.29 91.6109 118.54 91.6209C118.27 91.6209 117.99 91.5909 117.73 91.5409C116.93 91.3709 116.19 90.9609 115.62 90.3709C114.18 88.9709 113.42 86.7509 113.42 83.9309C113.41 81.1409 114.18 78.4009 115.64 76.0309C116.74 74.0709 118.4 72.4909 120.41 71.5009C121.17 71.1509 122 70.9609 122.84 70.9509C123.04 70.9509 123.24 70.9609 123.44 70.9909C124.26 71.1009 125.03 71.4609 125.62 72.0309C127.36 73.5309 127.88 76.1609 128.01 78.1409V79.2109C127.88 81.9509 127.04 84.6009 125.56 86.9109C124.44 88.8109 122.75 90.3109 120.73 91.1909H120.72Z" fill="#00B2CA"/>
<path d="M112.45 101.909C111.27 100.489 109.98 99.1592 108.59 97.9492C107.21 96.7192 105.94 95.3792 104.78 93.9392C102.46 91.0792 100.54 87.7692 98.45 84.6192C96.36 81.4692 94.05 78.5592 90.47 76.9592C88.45 76.0892 86.27 75.6092 84.07 75.5592C83.84 75.5492 83.62 75.5392 83.4 75.5392C81.4 75.5292 79.43 76.0092 77.67 76.9592C74.31 78.7092 71.97 81.7492 69.79 84.7092C67.56 87.7392 65.49 90.9492 63.18 93.7692C62.01 95.1992 60.74 96.5392 59.39 97.7992C58.7 98.4292 57.99 99.0192 57.34 99.6792C56.7 100.329 56.1 101.019 55.5 101.749C52.91 104.759 51.15 108.399 50.39 112.299C49.97 114.649 50.03 117.059 50.58 119.389C51.07 121.309 51.93 123.099 53.12 124.679C54.24 126.169 55.65 127.419 57.26 128.359C59.14 129.439 61.28 129.989 63.45 129.969C65.76 129.939 68.06 129.619 70.3 129.019C72.38 128.509 74.38 127.909 76.44 127.359C78.63 126.709 80.9 126.359 83.19 126.309C89.57 126.309 94.14 128.399 99.48 129.529C100.61 129.769 101.76 129.929 102.91 130.009H104.49C106.61 129.899 108.68 129.279 110.52 128.209C113.94 126.379 116.44 123.209 117.42 119.459C117.98 117.149 118.04 114.749 117.61 112.409C116.83 108.519 115.05 104.899 112.46 101.909H112.45ZM113.54 118.459C112.83 121.169 111.01 123.449 108.52 124.749C107.25 125.499 105.83 125.929 104.36 126.019H103.05C102.13 125.949 101.22 125.819 100.31 125.629C98.78 125.299 97.29 124.889 95.73 124.449C91.68 123.129 87.46 122.419 83.2 122.319C80.56 122.359 77.94 122.759 75.41 123.499C74.66 123.699 73.92 123.909 73.18 124.109C71.87 124.479 70.62 124.819 69.35 125.129C67.43 125.649 65.45 125.929 63.46 125.969C61.98 125.989 60.53 125.609 59.24 124.869C58.1 124.199 57.11 123.319 56.31 122.259C55.44 121.109 54.81 119.789 54.46 118.399C54.06 116.629 54.01 114.809 54.33 113.019C54.96 109.789 56.43 106.779 58.59 104.289C59.24 103.499 59.72 102.959 60.18 102.499C60.51 102.169 60.9 101.829 61.31 101.459C61.57 101.219 61.84 100.989 62.11 100.739C63.6 99.3592 64.99 97.8792 66.28 96.3092C67.84 94.3992 69.28 92.3492 70.67 90.3692C71.43 89.2792 72.23 88.1492 73.01 87.0892C75.1 84.2492 77.04 81.7992 79.52 80.5092C80.71 79.8692 82.05 79.5292 83.4 79.5492C83.56 79.5492 83.72 79.5492 83.88 79.5592C85.58 79.5892 87.27 79.9492 88.83 80.6092C91.37 81.7492 93.18 83.9192 95.11 86.8392C95.7 87.7292 96.28 88.6292 96.85 89.5292C98.32 91.9292 99.93 94.2392 101.66 96.4692C102.96 98.0792 104.38 99.5792 105.92 100.949C107.15 102.019 108.29 103.179 109.33 104.439C111.51 106.919 113.01 109.929 113.66 113.159C113.98 114.919 113.94 116.719 113.53 118.459H113.54Z" fill="black"/>
<path d="M84.251 83.572C80.411 83.092 78.121 86.302 77.371 87.362C76.731 88.262 76.951 89.512 77.851 90.152C78.751 90.792 80.001 90.572 80.641 89.672C82.101 87.612 83.071 87.442 83.751 87.532C85.241 87.742 86.581 88.562 87.461 89.782C88.161 90.632 89.421 90.762 90.271 90.062C91.121 89.362 91.251 88.102 90.551 87.252C89.031 85.232 86.761 83.912 84.251 83.572Z" fill="#00B2CA"/>
<path d="M105.87 109.727C105.25 109.207 104.59 108.727 103.89 108.307C102.95 107.727 101.72 108.017 101.14 108.957C100.56 109.897 100.85 111.127 101.79 111.707C102.31 112.017 102.8 112.367 103.27 112.757C104.05 113.327 104.64 114.117 104.95 115.037C105.04 115.357 105.03 115.697 104.92 116.017C104.51 116.787 103.8 117.357 102.96 117.587C102.31 117.847 101.62 117.987 100.92 118.007C99.8199 118.057 98.9599 118.987 99.0099 120.087C99.0599 121.157 99.9299 121.997 101.01 122.007C101.04 122.007 101.07 122.007 101.09 122.007C102.24 121.967 103.38 121.727 104.45 121.307C106.36 120.687 107.9 119.257 108.67 117.417C109.06 116.317 109.11 115.127 108.81 113.997C108.29 112.307 107.27 110.817 105.87 109.727Z" fill="#00B2CA"/>
<path d="M66.0797 118.022C65.3797 118.002 64.6897 117.862 64.0397 117.602C63.1997 117.372 62.4897 116.802 62.0797 116.032C61.9697 115.712 61.9597 115.372 62.0497 115.052C62.3597 114.132 62.9497 113.342 63.7297 112.772C64.1897 112.382 64.6897 112.032 65.2097 111.722C66.1497 111.142 66.4397 109.912 65.8597 108.972C65.2797 108.032 64.0497 107.742 63.1097 108.322C62.4097 108.742 61.7497 109.212 61.1297 109.742C59.7397 110.832 58.7097 112.322 58.1897 114.012C57.8897 115.142 57.9397 116.332 58.3297 117.422C59.1097 119.272 60.6497 120.692 62.5497 121.312C63.6197 121.742 64.7597 121.972 65.9097 122.012C65.9397 122.012 65.9697 122.012 65.9897 122.012C67.0897 122.012 67.9897 121.112 67.9897 120.012C67.9897 118.942 67.1397 118.062 66.0697 118.012L66.0797 118.022Z" fill="#00B2CA"/>
<path d="M150.72 147.019H106.26C139.4 134.729 156.3 97.8885 144 64.7485C131.71 31.6085 94.8703 14.7085 61.7303 27.0085C28.5903 39.3085 11.7003 76.1385 24.0003 109.279C30.4803 126.759 44.2703 140.539 61.7403 147.019H17.2803C16.1803 146.879 15.1603 147.649 15.0203 148.759C14.8803 149.859 15.6503 150.879 16.7603 151.019C16.9303 151.039 17.1103 151.039 17.2803 151.019H150.72C151.82 151.159 152.84 150.389 152.98 149.279C153.12 148.169 152.35 147.159 151.24 147.019C151.07 146.999 150.89 146.999 150.72 147.019ZM24.0003 87.0185C24.0003 53.8785 50.8603 27.0185 84.0003 27.0185C117.14 27.0185 144 53.8785 144 87.0185C144 120.159 117.14 147.019 84.0003 147.019C50.8603 147.019 24.0003 120.159 24.0003 87.0185Z" fill="black"/>
<path d="M102.301 12.0234C103.961 12.0234 105.301 10.6834 105.301 9.02344C105.301 7.36344 103.961 6.02344 102.301 6.02344C100.641 6.02344 99.3008 7.36344 99.3008 9.02344C99.3008 10.6834 100.641 12.0234 102.301 12.0234ZM102.301 7.52344C103.131 7.52344 103.801 8.19344 103.801 9.02344C103.801 9.85344 103.131 10.5234 102.301 10.5234C101.471 10.5234 100.801 9.85344 100.801 9.02344C100.801 8.19344 101.471 7.52344 102.301 7.52344Z" fill="black"/>
<path d="M58.3008 1.02344C57.2008 1.02344 56.3008 1.92344 56.3008 3.02344C56.3008 4.12344 57.2008 5.02344 58.3008 5.02344C59.4008 5.02344 60.3008 4.12344 60.3008 3.02344C60.3008 1.92344 59.4008 1.02344 58.3008 1.02344ZM58.3008 4.02344C57.7508 4.02344 57.3008 3.57344 57.3008 3.02344C57.3008 2.47344 57.7508 2.02344 58.3008 2.02344C58.8508 2.02344 59.3008 2.47344 59.3008 3.02344C59.3008 3.57344 58.8508 4.02344 58.3008 4.02344Z" fill="black"/>
<path d="M128.301 28.0234C127.201 28.0234 126.301 28.9234 126.301 30.0234C126.301 31.1234 127.201 32.0234 128.301 32.0234C129.401 32.0234 130.301 31.1234 130.301 30.0234C130.301 28.9234 129.401 28.0234 128.301 28.0234ZM128.301 31.0234C127.751 31.0234 127.301 30.5734 127.301 30.0234C127.301 29.4734 127.751 29.0234 128.301 29.0234C128.851 29.0234 129.301 29.4734 129.301 30.0234C129.301 30.5734 128.851 31.0234 128.301 31.0234Z" fill="black"/>
<path d="M164.301 23.0234C163.201 23.0234 162.301 23.9234 162.301 25.0234C162.301 26.1234 163.201 27.0234 164.301 27.0234C165.401 27.0234 166.301 26.1234 166.301 25.0234C166.301 23.9234 165.401 23.0234 164.301 23.0234ZM164.301 26.0234C163.751 26.0234 163.301 25.5734 163.301 25.0234C163.301 24.4734 163.751 24.0234 164.301 24.0234C164.851 24.0234 165.301 24.4734 165.301 25.0234C165.301 25.5734 164.851 26.0234 164.301 26.0234Z" fill="black"/>
<path d="M33.3008 31.0234C33.3008 29.9234 32.4008 29.0234 31.3008 29.0234C30.2008 29.0234 29.3008 29.9234 29.3008 31.0234C29.3008 32.1234 30.2008 33.0234 31.3008 33.0234C32.4008 33.0234 33.3008 32.1234 33.3008 31.0234ZM30.3008 31.0234C30.3008 30.4734 30.7508 30.0234 31.3008 30.0234C31.8508 30.0234 32.3008 30.4734 32.3008 31.0234C32.3008 31.5734 31.8508 32.0234 31.3008 32.0234C30.7508 32.0234 30.3008 31.5734 30.3008 31.0234Z" fill="black"/>
<path d="M10.8909 68.0291L12.3809 66.0691L11.4409 65.5391L10.4909 67.7291H10.4609L9.49094 65.5591L8.54094 66.1091L10.0109 68.0191V68.0491L7.71094 67.7491V68.8091L10.0309 68.5091V68.5391L8.54094 70.4491L9.43094 71.0091L10.4509 68.7991H10.4809L11.4209 70.9891L12.4109 70.4291L10.9109 68.5491V68.5191L13.2709 68.7991V67.7391L10.9109 68.0491V68.0191L10.8909 68.0291Z" fill="#00B2CA"/>
<path d="M13.0798 6.09156L12.2198 7.19156L12.7298 7.51156L13.3198 6.24156H13.3398L13.8798 7.50156L14.4498 7.18156L13.5898 6.10156V6.08156L14.9498 6.24156V5.63156L13.5898 5.81156V5.79156L14.4498 4.66156L13.9098 4.35156L13.3598 5.61156H13.3398L12.7798 4.36156L12.2298 4.68156L13.0798 5.78156V5.80156L11.7598 5.63156V6.24156L13.0898 6.07156V6.09156H13.0798Z" fill="#00B2CA"/>
<path d="M158.3 60.7313V59.6912L155.98 60.0013V59.9713L157.44 58.0513L156.52 57.5312L155.58 59.6813H155.55L154.6 57.5513L153.66 58.0913L155.1 59.9613V59.9913L152.84 59.7013V60.7413L155.11 60.4513V60.4813L153.65 62.3512L154.53 62.9013L155.53 60.7413H155.56L156.48 62.8913L157.45 62.3413L155.98 60.5013V60.4713L158.3 60.7513V60.7313Z" fill="#00B2CA"/>
<path d="M139.749 2.6L141.009 0.95L140.219 0.5L139.409 2.35H139.379L138.559 0.51L137.749 0.97L138.989 2.59V2.62L137.039 2.37V3.27L138.999 3.02V3.05L137.739 4.66L138.499 5.14L139.359 3.27H139.389L140.179 5.12L141.009 4.64L139.739 3.05V3.02L141.739 3.26V2.36L139.739 2.62V2.59L139.749 2.6Z" fill="#00B2CA"/>
</g>
<defs>
<clipPath id="clip0_113_46">
<rect width="168" height="164.52" fill="white" transform="translate(0 0.5)"/>
</clipPath>
</defs>
</svg>
