<svg width="168" height="155" viewBox="0 0 168 155" fill="none" xmlns="http://www.w3.org/2000/svg">
<g clip-path="url(#clip0_113_137)">
<path d="M28.7 86.9791L33.7 78.9791C34.29 78.0391 34 76.8091 33.06 76.2191C32.12 75.6291 30.89 75.9191 30.3 76.8591L29.09 78.7891C30.81 48.4691 56.79 25.2791 87.11 26.9991C112.68 28.4491 133.87 47.3691 138.19 72.6091C139.4 71.9491 140.8 71.7491 142.15 72.0291C136.7 39.9091 106.24 18.2891 74.11 23.7391C47.97 28.1791 28 49.5091 25.29 75.8791C25.18 76.9291 25.11 77.9791 25.06 79.0491L23.68 76.8491C23.09 75.9091 21.86 75.6291 20.92 76.2091C19.98 76.7991 19.7 78.0291 20.28 78.9691L25.28 86.9691C25.87 87.9091 27.1 88.1891 28.04 87.6091C28.3 87.4491 28.52 87.2291 28.68 86.9691L28.7 86.9791Z" fill="black"/>
<path d="M81 72.9184C81 64.6384 74.3 57.9084 66.02 57.8984C57.74 57.8984 51.01 64.5984 51 72.8784C51 80.3984 56.55 86.7584 64 87.7584V100.588L60.5 96.5984C59.77 95.7684 58.51 95.6784 57.68 96.4084C56.85 97.1384 56.76 98.3984 57.49 99.2284L64.49 107.228C64.84 107.618 65.33 107.858 65.85 107.908C66.47 107.938 67.08 107.688 67.5 107.228L74.5 99.2284C75.23 98.3984 75.14 97.1384 74.31 96.4084C73.48 95.6784 72.22 95.7684 71.49 96.5984L67.99 100.588V87.7584C75.43 86.7484 80.98 80.4084 80.99 72.9084L81 72.9184ZM55 72.9184C55 66.8384 59.92 61.9184 66 61.9184C72.08 61.9184 77 66.8384 77 72.9184C77 78.9984 72.08 83.9184 66 83.9184C59.93 83.9184 55.01 78.9884 55 72.9184Z" fill="black"/>
<path d="M117 72.9184C117 64.6384 110.3 57.9084 102.02 57.8984C93.74 57.8984 87.01 64.5984 87 72.8784C87 80.3984 92.55 86.7584 100 87.7584V97.9084H96C94.9 97.9084 94 98.8084 94 99.9084C94 101.008 94.9 101.908 96 101.908H100V105.908C100 107.008 100.9 107.908 102 107.908C103.1 107.908 104 107.008 104 105.908V101.908H108C109.1 101.908 110 101.008 110 99.9084C110 98.8084 109.1 97.9084 108 97.9084H104V87.7584C111.44 86.7484 116.99 80.4084 117 72.9084V72.9184ZM91 72.9184C91 66.8384 95.92 61.9184 102 61.9184C108.08 61.9184 113 66.8384 113 72.9184C113 78.9984 108.08 83.9184 102 83.9184C95.93 83.9184 91.01 78.9884 91 72.9184Z" fill="#00B2CA"/>
<path d="M83.9902 7.67188C85.6502 7.67188 86.9902 6.33187 86.9902 4.67188C86.9902 3.01188 85.6502 1.67188 83.9902 1.67188C82.3302 1.67188 80.9902 3.01188 80.9902 4.67188C80.9902 6.33187 82.3302 7.67188 83.9902 7.67188ZM83.9902 3.17188C84.8202 3.17188 85.4902 3.84188 85.4902 4.67188C85.4902 5.50187 84.8202 6.17188 83.9902 6.17188C83.1602 6.17188 82.4902 5.50187 82.4902 4.67188C82.4902 3.84188 83.1602 3.17188 83.9902 3.17188Z" fill="black"/>
<path d="M36.6602 0.5C35.5602 0.5 34.6602 1.4 34.6602 2.5C34.6602 3.6 35.5602 4.5 36.6602 4.5C37.7602 4.5 38.6602 3.6 38.6602 2.5C38.6602 1.4 37.7602 0.5 36.6602 0.5ZM36.6602 3.5C36.1102 3.5 35.6602 3.05 35.6602 2.5C35.6602 1.95 36.1102 1.5 36.6602 1.5C37.2102 1.5 37.6602 1.95 37.6602 2.5C37.6602 3.05 37.2102 3.5 36.6602 3.5Z" fill="black"/>
<path d="M137.1 1.32812C136 1.32812 135.1 2.22812 135.1 3.32812C135.1 4.42813 136 5.32812 137.1 5.32812C138.2 5.32812 139.1 4.42813 139.1 3.32812C139.1 2.22812 138.2 1.32812 137.1 1.32812ZM137.1 4.32812C136.55 4.32812 136.1 3.87813 136.1 3.32812C136.1 2.77812 136.55 2.32812 137.1 2.32812C137.65 2.32812 138.1 2.77812 138.1 3.32812C138.1 3.87813 137.65 4.32812 137.1 4.32812Z" fill="black"/>
<path d="M114.939 13.6562C113.839 13.6562 112.939 14.5562 112.939 15.6562C112.939 16.7563 113.839 17.6562 114.939 17.6562C116.039 17.6562 116.939 16.7563 116.939 15.6562C116.939 14.5562 116.039 13.6562 114.939 13.6562ZM114.939 16.6562C114.389 16.6562 113.939 16.2063 113.939 15.6562C113.939 15.1062 114.389 14.6562 114.939 14.6562C115.489 14.6562 115.939 15.1062 115.939 15.6562C115.939 16.2063 115.489 16.6562 114.939 16.6562Z" fill="black"/>
<path d="M24.8301 41.8281C24.8301 40.7281 23.9301 39.8281 22.8301 39.8281C21.7301 39.8281 20.8301 40.7281 20.8301 41.8281C20.8301 42.9281 21.7301 43.8281 22.8301 43.8281C23.9301 43.8281 24.8301 42.9281 24.8301 41.8281ZM21.8301 41.8281C21.8301 41.2781 22.2801 40.8281 22.8301 40.8281C23.3801 40.8281 23.8301 41.2781 23.8301 41.8281C23.8301 42.3781 23.3801 42.8281 22.8301 42.8281C22.2801 42.8281 21.8301 42.3781 21.8301 41.8281Z" fill="black"/>
<path d="M59.5691 16.7066L61.0591 14.7566L60.1191 14.2266L59.1591 16.4166H59.1291L58.1591 14.2466L57.1991 14.7966L58.6691 16.7066V16.7366L56.3691 16.4366V17.4966L58.6891 17.1966V17.2266L57.1991 19.1366L58.0891 19.6966L59.1091 17.4866H59.1391L60.0791 19.6766L61.0691 19.1166L59.5691 17.2366V17.2066L61.9291 17.4866V16.4266L59.5691 16.7366V16.7066Z" fill="#00B2CA"/>
<path d="M7.97062 13.9509L7.11063 15.0509L7.62063 15.3809L8.21063 14.1109H8.23062L8.77063 15.3709L9.34063 15.0409L8.48062 13.9609V13.9409L9.84063 14.1009V13.4909L8.48062 13.6709V13.6509L9.34063 12.5209L8.80063 12.2109L8.25063 13.4709H8.23062L7.67063 12.2209L7.12063 12.5409L7.97062 13.6409V13.6609L6.64062 13.4909V14.1009L7.97062 13.9309V13.9509Z" fill="#00B2CA"/>
<path d="M142.55 39.6297V38.5897L140.23 38.8997V38.8697L141.69 36.9497L140.77 36.4297L139.83 38.5797H139.8L138.85 36.4497L137.91 36.9897L139.35 38.8597V38.8897L137.09 38.5997V39.6397L139.36 39.3497V39.3797L137.9 41.2497L138.77 41.7997L139.77 39.6397H139.8L140.72 41.7897L141.69 41.2397L140.22 39.3997V39.3697L142.54 39.6497L142.55 39.6297Z" fill="#00B2CA"/>
<path d="M162.181 17.6178L163.441 15.9578L162.651 15.5078L161.841 17.3578H161.811L160.991 15.5178L160.181 15.9778L161.421 17.5878V17.6178L159.471 17.3678V18.2678L161.431 18.0178V18.0478L160.171 19.6578L160.921 20.1378L161.781 18.2678H161.811L162.601 20.1178L163.431 19.6378L162.161 18.0478V18.0178L164.161 18.2578V17.3578L162.161 17.6178V17.5878L162.181 17.6178Z" fill="#00B2CA"/>
<path d="M2 140.922C3.10457 140.922 4 140.026 4 138.922C4 137.817 3.10457 136.922 2 136.922C0.89543 136.922 0 137.817 0 138.922C0 140.026 0.89543 140.922 2 140.922Z" fill="black"/>
<path d="M11 136.922H8C6.9 136.922 6 137.822 6 138.922C6 140.022 6.9 140.922 8 140.922H11C12.1 140.922 13 140.022 13 138.922C13 137.822 12.1 136.922 11 136.922Z" fill="black"/>
<path d="M160 136.922H157C155.9 136.922 155 137.822 155 138.922C155 140.022 155.9 140.922 157 140.922H160C161.1 140.922 162 140.022 162 138.922C162 137.822 161.1 136.922 160 136.922Z" fill="black"/>
<path d="M166 140.922C167.105 140.922 168 140.026 168 138.922C168 137.817 167.105 136.922 166 136.922C164.895 136.922 164 137.817 164 138.922C164 140.026 164.895 140.922 166 140.922Z" fill="black"/>
<path d="M118.151 144.922H109.841C108.741 145.012 107.911 145.982 108.001 147.082C108.081 148.062 108.861 148.842 109.841 148.922H118.151C119.251 148.832 120.081 147.862 119.991 146.762C119.911 145.782 119.131 145.002 118.151 144.922Z" fill="#00B2CA"/>
<path d="M58.1508 144.922H49.8408C48.7408 145.012 47.9108 145.982 48.0008 147.082C48.0808 148.062 48.8608 148.842 49.8408 148.922H58.1508C59.2508 148.832 60.0808 147.862 59.9908 146.762C59.9108 145.782 59.1308 145.002 58.1508 144.922Z" fill="#00B2CA"/>
<path d="M104 144.922H64C62.9 144.922 62 145.822 62 146.922C62 148.022 62.9 148.922 64 148.922H79.94V150.922H72C70.9 150.922 70 151.822 70 152.922C70 154.022 70.9 154.922 72 154.922H97C98.1 154.922 99 154.022 99 152.922C99 151.822 98.1 150.922 97 150.922H88.06V148.922H104C105.1 148.922 106 148.022 106 146.922C106 145.822 105.1 144.922 104 144.922Z" fill="#00B2CA"/>
<path d="M150.72 136.923H105.31C127.03 128.473 141.76 108.053 142.92 84.7834L144.3 86.9834C144.9 87.9034 146.12 88.1834 147.06 87.6234C148 87.0334 148.28 85.8034 147.7 84.8634L142.7 76.8634C142.11 75.9234 140.88 75.6434 139.94 76.2234C139.68 76.3834 139.47 76.6034 139.3 76.8634L134.3 84.8634C133.71 85.8034 134 87.0334 134.94 87.6234C135.88 88.2134 137.11 87.9234 137.7 86.9834L138.91 85.0534C137.18 115.383 111.2 138.563 80.8803 136.843C55.3103 135.393 34.1303 116.473 29.8003 91.2334C28.5903 91.8834 27.1803 92.0934 25.8403 91.8034C29.3803 112.273 43.3803 129.403 62.7403 136.933H17.2803C16.1803 136.793 15.1603 137.563 15.0203 138.673C14.8803 139.773 15.6503 140.793 16.7603 140.933C16.9303 140.953 17.1103 140.953 17.2803 140.933H150.72C151.82 141.073 152.84 140.303 152.98 139.193C153.12 138.083 152.35 137.073 151.24 136.933C151.07 136.913 150.89 136.913 150.72 136.933V136.923Z" fill="black"/>
</g>
<defs>
<clipPath id="clip0_113_137">
<rect width="168" height="154.42" fill="white" transform="translate(0 0.5)"/>
</clipPath>
</defs>
</svg>
